<svg width="37" height="60" viewBox="0 0 37 60" fill="none" xmlns="http://www.w3.org/2000/svg">
<g clip-path="url(#clip0_4189_9360)">
<path d="M12.0213 4.70197C11.9676 4.59461 11.8733 4.51286 11.7591 4.47468C11.645 4.4365 11.5202 4.44502 11.4123 4.49836C11.0797 4.66306 10.7488 4.83409 10.4298 5.00784C10.3411 5.05599 10.271 5.13221 10.2307 5.22445C10.1903 5.31668 10.182 5.41967 10.207 5.51714C10.2321 5.61461 10.289 5.701 10.3688 5.76265C10.4487 5.8243 10.5469 5.85769 10.6479 5.85756C10.7241 5.85732 10.799 5.83836 10.8661 5.80236C11.1751 5.63405 11.495 5.46754 11.8168 5.30828C11.9246 5.25483 12.0067 5.16095 12.0451 5.04726C12.0834 4.93357 12.0749 4.80938 12.0213 4.70197Z" fill="white"/>
<path d="M9.15722 6.27474C9.12428 6.22518 9.08186 6.18257 9.03237 6.14933C8.98289 6.1161 8.92731 6.09289 8.86882 6.08104C8.81033 6.06919 8.75007 6.06894 8.69148 6.08028C8.63288 6.09162 8.57712 6.11434 8.52735 6.14714C8.21922 6.35075 7.91292 6.56341 7.61843 6.78059C7.52105 6.85139 7.4559 6.95781 7.43732 7.07644C7.41874 7.19506 7.44824 7.31617 7.51935 7.41313C7.59047 7.51009 7.69736 7.57495 7.8165 7.59345C7.93565 7.61195 8.0573 7.58257 8.15468 7.51177C8.44008 7.30364 8.73548 7.09912 9.0327 6.90366C9.08243 6.87058 9.12512 6.82805 9.15831 6.7785C9.19151 6.72896 9.21455 6.67338 9.22612 6.61495C9.23769 6.55652 9.23755 6.49639 9.22573 6.43801C9.2139 6.37963 9.19062 6.32414 9.15722 6.27474Z" fill="white"/>
<path d="M10.1852 32.7564C9.85249 32.5872 9.53165 32.4179 9.2308 32.2551C9.17828 32.2249 9.12023 32.2055 9.06006 32.1979C8.99988 32.1904 8.93881 32.195 8.88044 32.2113C8.82206 32.2277 8.76757 32.2555 8.72016 32.2932C8.67275 32.3308 8.63339 32.3775 8.60439 32.4305C8.57539 32.4836 8.55735 32.5418 8.55132 32.6019C8.54529 32.662 8.55141 32.7227 8.5693 32.7804C8.58718 32.838 8.61648 32.8916 8.65547 32.9378C8.69446 32.9841 8.74236 33.0221 8.79634 33.0496C9.10355 33.217 9.43257 33.3889 9.77251 33.5618C9.82588 33.5918 9.8848 33.6107 9.94572 33.6175C10.0066 33.6242 10.0683 33.6186 10.127 33.601C10.1857 33.5834 10.2402 33.5542 10.2872 33.515C10.3343 33.4759 10.3729 33.4277 10.4008 33.3734C10.4286 33.319 10.4451 33.2596 10.4493 33.1987C10.4535 33.1378 10.4453 33.0767 10.4251 33.0191C10.405 32.9614 10.3734 32.9085 10.3321 32.8633C10.2909 32.8182 10.2409 32.7818 10.1852 32.7564Z" fill="white"/>
<path d="M21.9012 38.6637C21.5968 38.4583 21.285 38.2556 20.9742 38.0611C20.9236 38.0294 20.8673 38.0081 20.8085 37.9981C20.7496 37.9882 20.6894 37.9899 20.6312 38.0031C20.573 38.0163 20.518 38.0408 20.4693 38.0752C20.4206 38.1096 20.3792 38.1532 20.3475 38.2036C20.3157 38.2539 20.2942 38.31 20.2842 38.3686C20.2743 38.4272 20.276 38.4871 20.2892 38.5451C20.3025 38.603 20.3272 38.6578 20.3617 38.7062C20.3963 38.7547 20.4401 38.7959 20.4906 38.8275C20.7933 39.0157 21.0959 39.213 21.3904 39.4121C21.4901 39.4793 21.6126 39.5044 21.7308 39.4819C21.8491 39.4593 21.9536 39.3909 22.0212 39.2917C22.0889 39.1926 22.1142 39.0708 22.0917 38.953C22.0692 38.8353 22.0007 38.7312 21.9012 38.6637Z" fill="white"/>
<path d="M13.1193 34.1527C12.7897 34.0025 12.4607 33.8517 12.1323 33.7003C12.078 33.674 12.0191 33.6588 11.959 33.6555C11.8988 33.6521 11.8386 33.6608 11.7818 33.6808C11.725 33.7009 11.6727 33.732 11.6281 33.7723C11.5835 33.8127 11.5474 33.8615 11.5219 33.9158C11.4964 33.9702 11.482 34.0291 11.4796 34.089C11.4772 34.149 11.4868 34.2088 11.5078 34.265C11.5288 34.3213 11.5608 34.3728 11.6021 34.4166C11.6433 34.4604 11.6928 34.4956 11.7478 34.5201C12.0768 34.6733 12.408 34.8257 12.7412 34.9771C12.8004 35.0037 12.8645 35.0176 12.9294 35.0178C13.0333 35.0182 13.1342 34.9831 13.2152 34.9183C13.2963 34.8536 13.3527 34.7632 13.3749 34.6621C13.3971 34.561 13.3838 34.4554 13.3373 34.3629C13.2908 34.2704 13.2139 34.1965 13.1193 34.1536V34.1527Z" fill="white"/>
<path d="M15.0389 3.44776C15.0179 3.39203 14.9861 3.34099 14.9452 3.29753C14.9044 3.25408 14.8553 3.21908 14.8008 3.19454C14.7464 3.16999 14.6876 3.15638 14.6279 3.15449C14.5681 3.1526 14.5086 3.16246 14.4527 3.18351C14.1064 3.31473 13.7601 3.455 13.4256 3.58802C13.3694 3.61001 13.3182 3.6429 13.275 3.6848C13.2317 3.7267 13.1973 3.77675 13.1737 3.83204C13.1501 3.88733 13.1378 3.94675 13.1375 4.00683C13.1372 4.0669 13.1489 4.12644 13.1719 4.18196C13.195 4.23748 13.2289 4.28786 13.2717 4.33019C13.3146 4.37251 13.3654 4.40593 13.4213 4.42848C13.4773 4.45103 13.5372 4.46226 13.5975 4.46152C13.6578 4.46078 13.7174 4.44808 13.7728 4.42417C14.0991 4.29024 14.4363 4.15811 14.7726 4.03052C14.8285 4.00969 14.8798 3.9781 14.9235 3.93753C14.9671 3.89696 15.0023 3.84822 15.0271 3.79409C15.0518 3.73997 15.0656 3.68153 15.0676 3.6221C15.0696 3.56267 15.0599 3.50343 15.0389 3.44776Z" fill="white"/>
<path d="M16.1004 35.5055C15.7705 35.3526 15.4378 35.2015 15.1006 35.0531C14.9914 35.0066 14.8683 35.0044 14.7575 35.0471C14.6468 35.0899 14.5573 35.174 14.5081 35.2817C14.4589 35.3893 14.454 35.5118 14.4944 35.623C14.5348 35.7342 14.6173 35.8252 14.7243 35.8766C15.0551 36.0268 15.3848 36.1776 15.7132 36.329C15.7729 36.357 15.8381 36.3715 15.9041 36.3716C16.0078 36.3719 16.1085 36.3369 16.1895 36.2723C16.2704 36.2078 16.3268 36.1176 16.3492 36.0168C16.3716 35.916 16.3587 35.8106 16.3126 35.7181C16.2665 35.6256 16.19 35.5515 16.0959 35.5083L16.1004 35.5055Z" fill="white"/>
<path d="M18.1546 2.45235C18.1206 2.33732 18.0422 2.2404 17.9366 2.18288C17.8309 2.12537 17.7067 2.11194 17.5911 2.14558C17.2339 2.24965 16.8794 2.35733 16.5376 2.46502C16.4784 2.48087 16.4231 2.50847 16.3749 2.54618C16.3267 2.58388 16.2866 2.6309 16.2572 2.68441C16.2277 2.73793 16.2094 2.79682 16.2034 2.85755C16.1974 2.91829 16.2037 2.97961 16.2221 3.03782C16.2405 3.09604 16.2706 3.14994 16.3105 3.19629C16.3503 3.24265 16.3992 3.28049 16.4542 3.30754C16.5091 3.3346 16.569 3.3503 16.6302 3.35372C16.6914 3.35713 16.7527 3.34819 16.8103 3.32741C17.1466 3.22154 17.4938 3.11565 17.8446 3.0143C17.9021 2.99777 17.9558 2.9701 18.0025 2.93288C18.0492 2.89566 18.088 2.84962 18.1168 2.79741C18.1456 2.7452 18.1638 2.68784 18.1703 2.62863C18.1767 2.56941 18.1714 2.50951 18.1546 2.45235Z" fill="white"/>
<path d="M19.059 36.958C18.7472 36.7924 18.4227 36.6268 18.0801 36.453C18.0267 36.4263 17.9686 36.4104 17.9091 36.4061C17.8495 36.4018 17.7897 36.4091 17.733 36.4278C17.6764 36.4465 17.6239 36.4762 17.5788 36.515C17.5336 36.5539 17.4965 36.6012 17.4697 36.6544C17.4429 36.7075 17.4269 36.7653 17.4226 36.8246C17.4183 36.8839 17.4257 36.9435 17.4445 36.9999C17.4632 37.0563 17.493 37.1085 17.532 37.1535C17.5711 37.1985 17.6186 37.2353 17.672 37.262C18.0119 37.4322 18.3255 37.5941 18.63 37.7561C18.6826 37.7842 18.7403 37.8016 18.7997 37.8075C18.8591 37.8133 18.9191 37.8075 18.9762 37.7902C19.0334 37.773 19.0865 37.7448 19.1327 37.7071C19.1789 37.6694 19.2171 37.623 19.2453 37.5706C19.2735 37.5182 19.291 37.4608 19.2969 37.4016C19.3028 37.3425 19.2969 37.2828 19.2796 37.2259C19.2623 37.169 19.2339 37.116 19.196 37.0701C19.1582 37.0241 19.1116 36.986 19.059 36.958Z" fill="white"/>
<path d="M28.4372 44.5638C28.3563 44.4872 28.2498 44.443 28.1381 44.4395C28.0265 44.4361 27.9174 44.4738 27.8319 44.5453C27.7463 44.6168 27.6903 44.7172 27.6743 44.8273C27.6584 44.9374 27.6837 45.0494 27.7455 45.1421C27.9737 45.4136 28.2 45.6932 28.4218 45.9746C28.4643 46.0287 28.5186 46.0725 28.5807 46.1026C28.6427 46.1327 28.7109 46.1484 28.7799 46.1484C28.8651 46.1484 28.9485 46.1246 29.0208 46.0796C29.093 46.0347 29.1511 45.9704 29.1885 45.8942C29.2258 45.818 29.2409 45.7328 29.232 45.6485C29.223 45.5641 29.1905 45.484 29.138 45.4172C28.9062 45.1312 28.6717 44.8426 28.4372 44.5638Z" fill="white"/>
<path d="M27.7454 0.369218C27.7345 0.310722 27.7121 0.254944 27.6795 0.205079C27.6469 0.155214 27.6048 0.112242 27.5555 0.0786197C27.5062 0.0449977 27.4507 0.0213844 27.3922 0.00913769C27.3337 -0.00310902 27.2734 -0.00374918 27.2146 0.00724875L26.1421 0.208139C26.0301 0.228308 25.9298 0.289581 25.861 0.379845C25.7922 0.470108 25.7599 0.582798 25.7705 0.695618C25.7812 0.808437 25.8339 0.913174 25.9184 0.989132C26.0028 1.06509 26.1128 1.10673 26.2267 1.10583C26.255 1.10581 26.2833 1.10309 26.3112 1.09769L27.3819 0.896795C27.5004 0.874823 27.6052 0.806892 27.6734 0.707956C27.7416 0.609021 27.7675 0.487177 27.7454 0.369218Z" fill="white"/>
<path d="M30.654 48.8142C30.74 48.8144 30.8242 48.7899 30.8967 48.7437C30.9984 48.6796 31.0705 48.578 31.0971 48.4611C31.1237 48.3442 31.1026 48.2216 31.0384 48.1202C30.843 47.8107 30.6385 47.5012 30.4322 47.199C30.3998 47.1474 30.3573 47.1029 30.3072 47.0681C30.2571 47.0332 30.2005 47.0088 30.1407 46.9963C30.0809 46.9838 30.0192 46.9833 29.9593 46.9951C29.8994 47.0068 29.8424 47.0304 29.7919 47.0646C29.7413 47.0987 29.6982 47.1427 29.6651 47.1938C29.632 47.2449 29.6095 47.3021 29.5992 47.362C29.5888 47.422 29.5906 47.4834 29.6046 47.5426C29.6186 47.6018 29.6444 47.6576 29.6805 47.7066C29.8814 48.0007 30.0795 48.3021 30.2695 48.6025C30.3104 48.6673 30.3671 48.7207 30.4343 48.7577C30.5016 48.7947 30.5771 48.8142 30.654 48.8142Z" fill="white"/>
<path d="M23.1101 1.72749C23.4654 1.65329 23.8199 1.5818 24.1753 1.51031C24.2934 1.48631 24.3971 1.41658 24.4636 1.31646C24.5301 1.21633 24.5539 1.094 24.5298 0.976403C24.5057 0.858802 24.4356 0.755558 24.3351 0.689372C24.2345 0.623187 24.1116 0.599491 23.9935 0.623492C23.636 0.694679 23.2785 0.767669 22.921 0.842476C22.8115 0.865709 22.7145 0.928361 22.6485 1.01842C22.5826 1.10849 22.5523 1.21962 22.5636 1.33052C22.5748 1.44141 22.6268 1.54428 22.7096 1.61937C22.7923 1.69446 22.9 1.73651 23.0119 1.73745C23.0449 1.73758 23.0778 1.73424 23.1101 1.72749Z" fill="white"/>
<path d="M33.1398 54.3442C33.1722 54.4305 33.2303 54.505 33.3063 54.5575C33.3823 54.6101 33.4726 54.6383 33.5652 54.6383C33.6198 54.6385 33.674 54.6287 33.7251 54.6094C33.838 54.5671 33.9293 54.482 33.9791 54.3727C34.0288 54.2634 34.033 54.1389 33.9905 54.0266C33.8624 53.6855 33.7261 53.3407 33.5852 53.0022C33.539 52.8914 33.4505 52.8033 33.3391 52.7574C33.2277 52.7115 33.1026 52.7115 32.9912 52.7575C32.8798 52.8034 32.7914 52.8915 32.7453 53.0024C32.6991 53.1133 32.6992 53.2379 32.7453 53.3488C32.8817 53.6773 33.0171 54.0103 33.1398 54.3442Z" fill="white"/>
<path d="M26.1812 42.1432C26.0948 42.0592 25.9784 42.0128 25.8576 42.0142C25.7369 42.0157 25.6216 42.0648 25.5372 42.1508C25.4529 42.2369 25.4063 42.3528 25.4077 42.473C25.4092 42.5933 25.4586 42.708 25.545 42.792C25.8013 43.0399 26.0558 43.2951 26.303 43.5512C26.3875 43.6328 26.5005 43.6785 26.6182 43.6788C26.7359 43.6791 26.8491 43.6339 26.934 43.5528C27.019 43.4717 27.0689 43.3609 27.0735 43.2438C27.078 43.1267 27.0367 43.0124 26.9583 42.925C26.7066 42.6608 26.4439 42.3983 26.1812 42.1432Z" fill="white"/>
<path d="M23.6863 39.9659C23.6396 39.9274 23.5857 39.8985 23.5276 39.881C23.4696 39.8636 23.4086 39.8579 23.3483 39.8642C23.2881 39.8705 23.2296 39.8888 23.1766 39.918C23.1235 39.9472 23.0768 39.9866 23.0393 40.034C23.0017 40.0814 22.9741 40.1358 22.958 40.194C22.9419 40.2522 22.9376 40.313 22.9455 40.3728C22.9534 40.4327 22.9732 40.4904 23.0038 40.5425C23.0344 40.5946 23.0751 40.6401 23.1236 40.6763C23.4036 40.8962 23.6835 41.1242 23.9553 41.3532C24.0006 41.3931 24.0535 41.4237 24.1108 41.4431C24.1682 41.4624 24.2288 41.4702 24.2892 41.4659C24.3496 41.4616 24.4085 41.4453 24.4625 41.418C24.5165 41.3907 24.5645 41.3529 24.6036 41.3069C24.6427 41.2609 24.6722 41.2076 24.6903 41.1501C24.7085 41.0926 24.7149 41.032 24.7092 40.972C24.7035 40.912 24.6858 40.8537 24.6572 40.8006C24.6285 40.7475 24.5895 40.7006 24.5425 40.6627C24.2625 40.4265 23.9744 40.1921 23.6863 39.9659Z" fill="white"/>
<path d="M32.1583 50.0205C32.1309 49.9665 32.0929 49.9186 32.0465 49.8795C32.0002 49.8404 31.9464 49.811 31.8884 49.7929C31.8304 49.7748 31.7694 49.7686 31.709 49.7744C31.6485 49.7802 31.5898 49.7981 31.5364 49.8269C31.483 49.8557 31.4359 49.8948 31.3979 49.9421C31.36 49.9893 31.3319 50.0436 31.3154 50.1018C31.2989 50.16 31.2943 50.221 31.3019 50.281C31.3094 50.341 31.329 50.3989 31.3594 50.4512C31.5293 50.7643 31.6957 51.0847 31.8547 51.4014C31.8925 51.4768 31.9506 51.5402 32.0225 51.5845C32.0944 51.6287 32.1773 51.6522 32.2619 51.6521C32.3319 51.6518 32.4009 51.6357 32.4637 51.605C32.5172 51.5786 32.565 51.5419 32.6042 51.497C32.6435 51.4521 32.6734 51.4 32.6924 51.3436C32.7114 51.2872 32.7191 51.2277 32.7149 51.1683C32.7108 51.109 32.6949 51.051 32.6682 50.9978C32.5055 50.672 32.3337 50.3427 32.1583 50.0205Z" fill="white"/>
<path d="M21.3267 1.65149C21.2993 1.53479 21.2265 1.4337 21.1242 1.37042C21.022 1.30713 20.8987 1.28683 20.7814 1.31396C20.4178 1.39993 20.0543 1.4868 19.7143 1.57277C19.6067 1.59961 19.5127 1.66471 19.45 1.75579C19.3873 1.84688 19.3602 1.95767 19.3738 2.06727C19.3874 2.17687 19.4409 2.27772 19.524 2.35082C19.6072 2.42392 19.7143 2.46421 19.8252 2.46411C19.8627 2.46415 19.8999 2.45927 19.9361 2.44963C20.2742 2.36547 20.6287 2.27951 20.9895 2.19535C21.1066 2.16763 21.2079 2.0948 21.2711 1.99284C21.3343 1.89088 21.3543 1.76813 21.3267 1.65149Z" fill="white"/>
<path d="M1.42423 24.0574C1.31971 23.7298 1.22972 23.3904 1.15701 23.0502C1.1454 22.9913 1.12214 22.9353 1.08858 22.8854C1.05502 22.8355 1.01184 22.7928 0.961533 22.7597C0.911231 22.7267 0.85483 22.7039 0.795595 22.6927C0.73636 22.6815 0.675477 22.6822 0.616508 22.6947C0.55754 22.7072 0.501656 22.7312 0.452112 22.7654C0.402568 22.7996 0.360362 22.8433 0.327935 22.8939C0.295509 22.9445 0.273513 23.001 0.26324 23.0602C0.252967 23.1193 0.254613 23.1799 0.268088 23.2384C0.347164 23.6076 0.444422 23.975 0.557127 24.3307C0.575031 24.3873 0.603975 24.44 0.642305 24.4855C0.680634 24.5311 0.727597 24.5686 0.780517 24.5961C0.833435 24.6236 0.891274 24.6404 0.950727 24.6457C1.01018 24.6509 1.07008 24.6444 1.12702 24.6266C1.18395 24.6087 1.2368 24.5799 1.28255 24.5418C1.3283 24.5036 1.36606 24.4568 1.39366 24.4042C1.42125 24.3515 1.43816 24.2939 1.44341 24.2347C1.44865 24.1755 1.44214 24.1159 1.42423 24.0592V24.0574Z" fill="white"/>
<path d="M2.24507 25.9731C2.2166 25.9209 2.17808 25.8747 2.13171 25.8373C2.08533 25.7999 2.03201 25.772 1.97479 25.7551C1.85922 25.721 1.73478 25.734 1.62883 25.7912C1.52289 25.8484 1.44412 25.9452 1.40986 26.0603C1.3756 26.1754 1.38865 26.2993 1.44614 26.4047C1.62792 26.7323 1.82151 27.0563 2.02966 27.3676C2.06186 27.4189 2.10408 27.4633 2.15382 27.4981C2.20356 27.5329 2.25983 27.5575 2.31926 27.5702C2.37869 27.583 2.4401 27.5838 2.49983 27.5725C2.55957 27.5612 2.61643 27.5381 2.66704 27.5046C2.71765 27.471 2.76098 27.4277 2.79446 27.3772C2.82795 27.3266 2.85092 27.2699 2.862 27.2104C2.87308 27.1509 2.87206 27.0898 2.85898 27.0307C2.84591 26.9715 2.82105 26.9156 2.78588 26.8663C2.59228 26.5767 2.41049 26.2762 2.24507 25.9731Z" fill="white"/>
<path d="M0.677105 18.1989C0.708816 18.2053 0.741091 18.2087 0.773455 18.2088C0.87715 18.2087 0.977686 18.1733 1.05837 18.1084C1.13905 18.0436 1.19502 17.9532 1.217 17.8523C1.29063 17.513 1.37788 17.1691 1.47695 16.8306C1.49366 16.7736 1.49893 16.7138 1.49244 16.6548C1.48595 16.5957 1.46785 16.5385 1.43915 16.4864C1.41046 16.4343 1.37173 16.3883 1.32519 16.3511C1.27866 16.3139 1.22521 16.2862 1.16792 16.2696C1.11063 16.253 1.05061 16.2477 0.991286 16.2542C0.931959 16.2606 0.874491 16.2787 0.822163 16.3072C0.769835 16.3358 0.723667 16.3744 0.686303 16.4207C0.64894 16.467 0.621109 16.5202 0.604399 16.5773C0.499874 16.9392 0.406256 17.3012 0.331725 17.6632C0.306814 17.7798 0.32912 17.9014 0.393791 18.0017C0.458462 18.102 0.560267 18.1729 0.677105 18.1989Z" fill="white"/>
<path d="M7.38592 31.1683C7.07962 30.9719 6.7824 30.771 6.50155 30.571C6.4531 30.5352 6.39797 30.5093 6.33937 30.4949C6.28078 30.4806 6.21989 30.4779 6.16026 30.4872C6.10064 30.4965 6.04348 30.5175 5.9921 30.5491C5.94073 30.5806 5.89618 30.622 5.86105 30.6709C5.82592 30.7197 5.80092 30.7751 5.7875 30.8336C5.77408 30.8922 5.77251 30.9529 5.7829 31.0121C5.79328 31.0713 5.81539 31.1278 5.84796 31.1784C5.88052 31.229 5.92288 31.2726 5.97256 31.3067C6.26523 31.5157 6.57516 31.7248 6.89328 31.9293C6.99465 31.9943 7.11782 32.0166 7.23569 31.9913C7.35356 31.9659 7.45647 31.8949 7.5218 31.794C7.58713 31.6931 7.60952 31.5705 7.58403 31.4531C7.55855 31.3358 7.48728 31.2333 7.38592 31.1683Z" fill="white"/>
<path d="M1.78868 15.1167C1.87707 15.1167 1.96352 15.091 2.03746 15.0428C2.1114 14.9946 2.16961 14.9259 2.20496 14.8453C2.34584 14.5267 2.49945 14.2055 2.65942 13.8906C2.71462 13.7839 2.725 13.6597 2.68827 13.5455C2.65153 13.4312 2.5707 13.3361 2.46355 13.2811C2.35639 13.2261 2.2317 13.2158 2.1169 13.2524C2.0021 13.289 1.9066 13.3694 1.85139 13.4761C1.68052 13.8073 1.51783 14.1458 1.36968 14.4815C1.34567 14.5359 1.33265 14.5945 1.3314 14.6539C1.33014 14.7134 1.34066 14.7725 1.36235 14.8279C1.38405 14.8832 1.41649 14.9338 1.45783 14.9767C1.49916 15.0196 1.54858 15.054 1.60326 15.0778C1.66155 15.1039 1.72479 15.1172 1.78868 15.1167Z" fill="white"/>
<path d="M4.09475 28.5033C4.05387 28.46 4.00482 28.4251 3.9504 28.4006C3.89598 28.3762 3.83725 28.3627 3.77758 28.3608C3.71791 28.359 3.65846 28.3688 3.60262 28.3899C3.54678 28.4109 3.49565 28.4427 3.45214 28.4834C3.40863 28.5241 3.37361 28.5729 3.34906 28.6271C3.32451 28.6813 3.31091 28.7397 3.30906 28.7991C3.3072 28.8585 3.31712 28.9177 3.33824 28.9733C3.35936 29.0289 3.39127 29.0798 3.43215 29.1231C3.68301 29.3892 3.95205 29.6534 4.23017 29.9086C4.31417 29.9855 4.42417 30.0282 4.5383 30.0281C4.62976 30.028 4.71906 30.0004 4.79454 29.949C4.87001 29.8975 4.92814 29.8246 4.96133 29.7398C4.99452 29.6549 5.00121 29.5621 4.98055 29.4734C4.95988 29.3847 4.91283 29.3042 4.84551 29.2426C4.58374 29.0028 4.33106 28.7539 4.09475 28.5033Z" fill="white"/>
<path d="M0.470778 21.444C0.591161 21.4406 0.705296 21.3899 0.78812 21.3028C0.870945 21.2158 0.915685 21.0996 0.912508 20.9797C0.912508 20.8702 0.912508 20.7616 0.912508 20.6521C0.912508 20.4142 0.919777 20.1716 0.933411 19.9282C0.940281 19.8082 0.89899 19.6904 0.818621 19.6007C0.738252 19.511 0.625391 19.4568 0.504862 19.45C0.384333 19.4431 0.26601 19.4842 0.175925 19.5642C0.0858398 19.6443 0.0313687 19.7566 0.0244986 19.8766C0.00995596 20.1336 0.00268555 20.3924 0.00268555 20.6485C0.00268555 20.7662 0.00268555 20.8829 0.00268555 20.9996C0.00576679 21.1176 0.0550035 21.2297 0.139899 21.312C0.224794 21.3943 0.338632 21.4404 0.457142 21.4403L0.470778 21.444Z" fill="white"/>
<path d="M6.50866 8.85467C6.55362 8.81458 6.59012 8.76598 6.61601 8.7117C6.64191 8.65742 6.65668 8.59855 6.65947 8.53853C6.66227 8.4785 6.65302 8.41852 6.63228 8.36209C6.61154 8.30566 6.57972 8.25392 6.53867 8.20986C6.49762 8.16581 6.44818 8.13034 6.39321 8.10552C6.33824 8.0807 6.27886 8.06703 6.21853 8.06531C6.1582 8.06359 6.09813 8.07385 6.04183 8.09549C5.98552 8.11713 5.93412 8.14972 5.8906 8.19136C5.61793 8.44202 5.35162 8.70445 5.09439 8.9714C5.01099 9.05804 4.96556 9.17412 4.96812 9.2941C4.97068 9.41409 5.021 9.52814 5.10802 9.61118C5.19504 9.69422 5.31164 9.73944 5.43215 9.7369C5.55266 9.73435 5.66722 9.68424 5.75063 9.5976C5.99512 9.34242 6.25052 9.09266 6.50866 8.85467Z" fill="white"/>
<path d="M3.75016 12.0689C3.94648 11.7785 4.15553 11.488 4.37003 11.2075C4.44235 11.1115 4.47341 10.9908 4.45636 10.872C4.43931 10.7532 4.37556 10.646 4.27914 10.574C4.18271 10.502 4.06152 10.4711 3.9422 10.4881C3.82288 10.505 3.71522 10.5685 3.6429 10.6645C3.41749 10.9586 3.19936 11.2627 2.99213 11.5694C2.95876 11.6187 2.93548 11.6741 2.92361 11.7324C2.91175 11.7907 2.91153 11.8507 2.92297 11.9091C2.93441 11.9674 2.95728 12.023 2.99027 12.0725C3.02327 12.1221 3.06575 12.1647 3.11528 12.1979C3.16482 12.2311 3.22044 12.2543 3.27897 12.2661C3.3375 12.2779 3.3978 12.2781 3.45641 12.2667C3.51503 12.2554 3.57081 12.2326 3.62059 12.1997C3.67036 12.1669 3.71316 12.1246 3.74652 12.0753L3.75016 12.0689Z" fill="white"/>
<path d="M30.2832 54.8085C32.0056 56.0165 33.8843 58.1847 35.1204 60C35.3722 57.8218 36.0293 55.0347 37.0001 53.1714L33.9398 55.1994L30.2832 54.8085Z" fill="white"/>
</g>
<defs>
<clipPath id="clip0_4189_9360">
<rect width="37" height="60" fill="white"/>
</clipPath>
</defs>
</svg>
