<svg width="34" height="38" viewBox="0 0 34 38" fill="none" xmlns="http://www.w3.org/2000/svg">
<circle cx="17" cy="21" r="17" fill="#C3D0F8"/>
<circle cx="17" cy="19" r="17" fill="#EEF2FF"/>
<circle cx="27" cy="6.99999" r="7" fill="#E2037F"/>
<path d="M25.485 7.47199C24.921 7.17199 24.639 6.70099 24.639 6.05899C24.639 5.73499 24.723 5.44099 24.891 5.17699C25.059 4.90699 25.314 4.69399 25.656 4.53799C25.998 4.37599 26.418 4.29499 26.916 4.29499C27.414 4.29499 27.831 4.37599 28.167 4.53799C28.509 4.69399 28.764 4.90699 28.932 5.17699C29.1 5.44099 29.184 5.73499 29.184 6.05899C29.184 6.38299 29.106 6.66499 28.95 6.90499C28.8 7.14499 28.596 7.33399 28.338 7.47199C28.662 7.62799 28.911 7.84399 29.085 8.11999C29.259 8.38999 29.346 8.70799 29.346 9.07399C29.346 9.49999 29.238 9.86899 29.022 10.181C28.806 10.487 28.512 10.721 28.14 10.883C27.774 11.045 27.366 11.126 26.916 11.126C26.466 11.126 26.055 11.045 25.683 10.883C25.317 10.721 25.026 10.487 24.81 10.181C24.594 9.86899 24.486 9.49999 24.486 9.07399C24.486 8.70199 24.573 8.38099 24.747 8.11099C24.921 7.83499 25.167 7.62199 25.485 7.47199ZM27.69 6.29299C27.69 6.04699 27.618 5.85799 27.474 5.72599C27.336 5.58799 27.15 5.51899 26.916 5.51899C26.682 5.51899 26.493 5.58799 26.349 5.72599C26.211 5.86399 26.142 6.05599 26.142 6.30199C26.142 6.53599 26.214 6.72199 26.358 6.85999C26.502 6.99199 26.688 7.05799 26.916 7.05799C27.144 7.05799 27.33 6.98899 27.474 6.85099C27.618 6.71299 27.69 6.52699 27.69 6.29299ZM26.916 8.13799C26.634 8.13799 26.406 8.21599 26.232 8.37199C26.058 8.52199 25.971 8.73199 25.971 9.00199C25.971 9.25399 26.055 9.46099 26.223 9.62299C26.397 9.78499 26.628 9.86599 26.916 9.86599C27.204 9.86599 27.429 9.78499 27.591 9.62299C27.759 9.46099 27.843 9.25399 27.843 9.00199C27.843 8.73799 27.756 8.52799 27.582 8.37199C27.414 8.21599 27.192 8.13799 26.916 8.13799Z" fill="white"/>
<path d="M16.9894 26.5808C15.7288 26.5179 14.5408 26.2365 13.436 25.6344C13.2939 25.557 13.1718 25.5431 13.0154 25.5952C12.123 25.8926 11.2262 26.1767 10.332 26.4687C10.0688 26.5547 9.82124 26.5682 9.60997 26.3534C9.39866 26.1387 9.42012 25.8919 9.5059 25.6296C9.79827 24.7355 10.0904 23.8413 10.3674 22.9424C10.4035 22.8251 10.39 22.6598 10.3331 22.5517C9.70823 21.3652 9.41213 20.1037 9.43865 18.7654C9.50661 15.3335 11.9946 12.3207 15.3563 11.597C19.2885 10.7505 23.126 12.9955 24.2538 16.8509C25.4998 21.1103 22.8606 25.4238 18.6411 26.3424C18.0989 26.4604 17.5404 26.5032 16.9894 26.5808ZM10.9435 25.0294C11.637 24.8059 12.2884 24.6082 12.9304 24.3838C13.2389 24.276 13.4994 24.3105 13.779 24.4735C15.2977 25.3587 16.9205 25.5764 18.6179 25.147C22.0015 24.2911 24.0769 20.7188 23.1716 17.3386C22.3196 14.1575 19.1767 12.125 15.9501 12.6862C13.8029 13.0596 12.2465 14.2574 11.2651 16.1857C10.6528 17.3888 10.4873 18.6751 10.7067 20.0119C10.8394 20.8206 11.1172 21.5721 11.5371 22.2724C11.662 22.4806 11.6956 22.6845 11.6168 22.922C11.3898 23.6054 11.1774 24.2937 10.9435 25.0294Z" fill="#001968"/>
<path d="M13.3121 18.9839C13.3072 18.5791 13.6307 18.2409 14.0323 18.2312C14.4266 18.2215 14.77 18.5592 14.7749 18.9615C14.7798 19.3663 14.4563 19.7043 14.0547 19.7142C13.6604 19.7238 13.317 19.3861 13.3121 18.9839Z" fill="#001968"/>
<path d="M19.2214 18.9528C19.23 18.5516 19.5805 18.2151 19.9724 18.2318C20.3772 18.2491 20.6929 18.5864 20.6841 18.9923C20.6755 19.3935 20.325 19.7301 19.9331 19.7133C19.5283 19.6961 19.2126 19.3588 19.2214 18.9528Z" fill="#001968"/>
<path d="M17.7394 18.9739C17.7382 19.3644 17.386 19.7153 16.9965 19.714C16.6061 19.7128 16.2551 19.3607 16.2564 18.9712C16.2576 18.5808 16.6098 18.2299 16.9993 18.2311C17.3897 18.2323 17.7406 18.5845 17.7394 18.9739Z" fill="#001968"/>
</svg>
