<svg width="55" height="89" viewBox="0 0 55 89" fill="none" xmlns="http://www.w3.org/2000/svg">
<g clip-path="url(#clip0_4189_9331)">
<path d="M17.8695 6.97459C17.7898 6.81534 17.6496 6.69407 17.4799 6.63744C17.3101 6.58081 17.1247 6.59345 16.9643 6.67257C16.4698 6.91687 15.978 7.17057 15.5038 7.42829C15.3719 7.49972 15.2678 7.61277 15.2078 7.74959C15.1478 7.88641 15.1355 8.03918 15.1727 8.18376C15.2099 8.32834 15.2945 8.45648 15.4132 8.54793C15.5319 8.63937 15.6779 8.68891 15.8281 8.68871C15.9413 8.68835 16.0527 8.66023 16.1523 8.60683C16.6117 8.35716 17.0873 8.11019 17.5656 7.87394C17.7258 7.79467 17.8479 7.6554 17.9049 7.48677C17.9619 7.31813 17.9492 7.13391 17.8695 6.97459Z" fill="white"/>
<path d="M13.6123 9.30752C13.5633 9.23401 13.5003 9.1708 13.4267 9.1215C13.3532 9.0722 13.2705 9.03778 13.1836 9.0202C13.0966 9.00263 13.0071 9.00225 12.92 9.01907C12.8329 9.03589 12.75 9.06959 12.676 9.11825C12.218 9.42027 11.7627 9.73571 11.3249 10.0579C11.1801 10.1629 11.0833 10.3207 11.0557 10.4967C11.0281 10.6727 11.0719 10.8523 11.1776 10.9961C11.2833 11.14 11.4422 11.2362 11.6193 11.2636C11.7964 11.291 11.9773 11.2475 12.122 11.1425C12.5463 10.8337 12.9854 10.5304 13.4272 10.2404C13.5011 10.1913 13.5646 10.1283 13.6139 10.0548C13.6633 9.98127 13.6975 9.89883 13.7147 9.81216C13.7319 9.72549 13.7317 9.6363 13.7141 9.5497C13.6966 9.4631 13.6619 9.3808 13.6123 9.30752Z" fill="white"/>
<path d="M15.1403 48.5886C14.6458 48.3376 14.1688 48.0866 13.7216 47.845C13.6436 47.8002 13.5573 47.7714 13.4678 47.7603C13.3784 47.7491 13.2876 47.7559 13.2008 47.7802C13.114 47.8044 13.033 47.8457 12.9626 47.9015C12.8921 47.9574 12.8336 48.0267 12.7905 48.1053C12.7474 48.184 12.7206 48.2704 12.7116 48.3595C12.7026 48.4486 12.7117 48.5386 12.7383 48.6242C12.7649 48.7098 12.8085 48.7892 12.8664 48.8578C12.9244 48.9264 12.9956 48.9827 13.0758 49.0236C13.5325 49.2719 14.0216 49.5269 14.5269 49.7833C14.6062 49.8278 14.6938 49.8559 14.7844 49.8659C14.8749 49.8759 14.9666 49.8676 15.0538 49.8415C15.1411 49.8154 15.2221 49.772 15.292 49.714C15.362 49.6559 15.4194 49.5845 15.4608 49.5038C15.5022 49.4232 15.5267 49.3351 15.5329 49.2448C15.5392 49.1544 15.5269 49.0638 15.497 48.9783C15.4671 48.8928 15.42 48.8142 15.3587 48.7473C15.2974 48.6803 15.2231 48.6263 15.1403 48.5886Z" fill="white"/>
<path d="M32.5558 57.3512C32.1031 57.0465 31.6397 56.7458 31.1777 56.4572C31.1025 56.4103 31.0188 56.3786 30.9313 56.3639C30.8439 56.3491 30.7543 56.3516 30.6678 56.3712C30.5813 56.3909 30.4995 56.4272 30.4272 56.4783C30.3548 56.5293 30.2933 56.594 30.2461 56.6686C30.1989 56.7433 30.167 56.8264 30.1521 56.9134C30.1373 57.0003 30.1398 57.0892 30.1595 57.1752C30.1793 57.2611 30.2159 57.3423 30.2673 57.4142C30.3186 57.4861 30.3837 57.5473 30.4589 57.5941C30.9088 57.8733 31.3587 58.166 31.7964 58.4613C31.9447 58.561 32.1267 58.5982 32.3025 58.5648C32.4783 58.5313 32.6335 58.4299 32.7341 58.2827C32.8346 58.1357 32.8723 57.955 32.8389 57.7803C32.8054 57.6057 32.7036 57.4513 32.5558 57.3512Z" fill="white"/>
<path d="M19.5017 50.6598C19.0117 50.437 18.5226 50.2133 18.0344 49.9887C17.9538 49.9498 17.8663 49.9272 17.7768 49.9223C17.6874 49.9173 17.5978 49.9301 17.5134 49.9599C17.429 49.9896 17.3513 50.0358 17.285 50.0956C17.2187 50.1555 17.1651 50.2278 17.1272 50.3085C17.0893 50.3891 17.0679 50.4764 17.0643 50.5654C17.0607 50.6543 17.0749 50.743 17.1061 50.8265C17.1374 50.9099 17.185 50.9863 17.2463 51.0512C17.3075 51.1162 17.3812 51.1684 17.4629 51.2048C17.952 51.4321 18.4442 51.6581 18.9396 51.8827C19.0276 51.9221 19.1228 51.9427 19.2193 51.9431C19.3738 51.9436 19.5238 51.8915 19.6443 51.7955C19.7648 51.6995 19.8485 51.5653 19.8815 51.4154C19.9146 51.2655 19.8949 51.1088 19.8257 50.9716C19.7566 50.8344 19.6423 50.7248 19.5017 50.6612V50.6598Z" fill="white"/>
<path d="M22.355 5.11416C22.3238 5.03151 22.2765 4.95579 22.2158 4.89133C22.155 4.82688 22.0821 4.77496 22.0012 4.73855C21.9202 4.70214 21.8328 4.68196 21.744 4.67916C21.6552 4.67635 21.5667 4.69097 21.4836 4.7222C20.9688 4.91684 20.4541 5.1249 19.9569 5.32222C19.8734 5.35484 19.7973 5.40363 19.733 5.46578C19.6687 5.52792 19.6175 5.60217 19.5824 5.68418C19.5473 5.76619 19.529 5.85433 19.5286 5.94345C19.5281 6.03256 19.5455 6.12087 19.5798 6.20322C19.6141 6.28558 19.6645 6.36032 19.7282 6.4231C19.7918 6.48588 19.8674 6.53545 19.9506 6.5689C20.0337 6.60234 20.1227 6.61901 20.2124 6.61791C20.3021 6.61681 20.3907 6.59798 20.473 6.56251C20.958 6.36385 21.4593 6.16786 21.9592 5.97859C22.0423 5.9477 22.1185 5.90084 22.1834 5.84066C22.2484 5.78049 22.3007 5.70818 22.3375 5.62789C22.3742 5.54761 22.3947 5.46092 22.3977 5.37277C22.4007 5.28462 22.3862 5.19674 22.355 5.11416Z" fill="white"/>
<path d="M23.9332 52.6666C23.4428 52.4397 22.9483 52.2155 22.447 51.9954C22.2847 51.9264 22.1017 51.9232 21.9371 51.9866C21.7725 52.0499 21.6394 52.1748 21.5663 52.3345C21.4932 52.4941 21.4859 52.6758 21.5459 52.8408C21.606 53.0057 21.7287 53.1407 21.8877 53.2169C22.3795 53.4397 22.8695 53.6634 23.3577 53.888C23.4464 53.9296 23.5433 53.9511 23.6414 53.9511C23.7956 53.9516 23.9452 53.8997 24.0656 53.8039C24.186 53.7082 24.2697 53.5745 24.303 53.4249C24.3363 53.2754 24.3171 53.119 24.2486 52.9818C24.1801 52.8446 24.0664 52.7348 23.9265 52.6706L23.9332 52.6666Z" fill="white"/>
<path d="M26.9865 3.63762C26.936 3.46699 26.8195 3.32324 26.6624 3.23792C26.5054 3.1526 26.3206 3.13269 26.1488 3.18258C25.6178 3.33695 25.0909 3.49669 24.5829 3.65642C24.4949 3.67992 24.4126 3.72088 24.341 3.7768C24.2693 3.83273 24.2098 3.90248 24.166 3.98185C24.1222 4.06123 24.095 4.14859 24.086 4.23868C24.0771 4.32877 24.0866 4.41972 24.1139 4.50607C24.1413 4.59242 24.186 4.67239 24.2452 4.74114C24.3045 4.8099 24.3772 4.86603 24.4588 4.90616C24.5405 4.94629 24.6295 4.96959 24.7205 4.97465C24.8115 4.97972 24.9025 4.96645 24.9882 4.93564C25.4881 4.77859 26.0042 4.62153 26.5258 4.47119C26.6112 4.44666 26.6909 4.40562 26.7604 4.35041C26.8298 4.2952 26.8876 4.22691 26.9304 4.14946C26.9732 4.07201 27.0002 3.98694 27.0098 3.89911C27.0194 3.81127 27.0115 3.72241 26.9865 3.63762Z" fill="white"/>
<path d="M28.331 54.821C27.8676 54.5753 27.3852 54.3297 26.8759 54.072C26.7966 54.0324 26.7102 54.0087 26.6217 54.0023C26.5332 53.9959 26.4442 54.0069 26.36 54.0346C26.2757 54.0623 26.1978 54.1063 26.1307 54.1639C26.0635 54.2216 26.0084 54.2918 25.9686 54.3706C25.9288 54.4494 25.905 54.5352 25.8985 54.6232C25.8921 54.7111 25.9031 54.7995 25.931 54.8832C25.9589 54.9669 26.0032 55.0443 26.0612 55.111C26.1192 55.1777 26.1899 55.2324 26.2692 55.272C26.7745 55.5243 27.2407 55.7646 27.6933 56.0049C27.7715 56.0465 27.8572 56.0723 27.9456 56.081C28.0339 56.0897 28.123 56.081 28.208 56.0555C28.2929 56.0299 28.372 55.988 28.4406 55.9321C28.5092 55.8762 28.5661 55.8074 28.608 55.7297C28.6498 55.652 28.6759 55.5668 28.6846 55.4791C28.6934 55.3913 28.6846 55.3027 28.6589 55.2183C28.6332 55.134 28.591 55.0554 28.5347 54.9873C28.4785 54.9191 28.4092 54.8626 28.331 54.821Z" fill="white"/>
<path d="M42.2713 66.103C42.151 65.9893 41.9927 65.9237 41.8267 65.9186C41.6607 65.9136 41.4987 65.9694 41.3715 66.0755C41.2443 66.1816 41.161 66.3305 41.1373 66.4938C41.1136 66.6571 41.1513 66.8233 41.2431 66.9607C41.5823 67.3634 41.9187 67.7782 42.2483 68.1957C42.3115 68.276 42.3923 68.3409 42.4846 68.3856C42.5768 68.4302 42.6781 68.4534 42.7807 68.4534C42.9073 68.4534 43.0314 68.4181 43.1388 68.3514C43.2462 68.2848 43.3326 68.1895 43.3881 68.0764C43.4436 67.9633 43.4659 67.837 43.4527 67.7119C43.4394 67.5868 43.391 67.4679 43.313 67.3688C42.9685 66.9446 42.6199 66.5164 42.2713 66.103Z" fill="white"/>
<path d="M41.2433 0.547649C41.2271 0.460879 41.1938 0.378143 41.1453 0.304176C41.0969 0.23021 41.0342 0.166467 40.9609 0.116595C40.8876 0.0667222 40.8051 0.0316958 40.7182 0.0135298C40.6313 -0.00463612 40.5416 -0.0055857 40.4543 0.0107279L38.86 0.308715C38.6935 0.338632 38.5444 0.429521 38.4421 0.563412C38.3398 0.697302 38.2918 0.86446 38.3076 1.03181C38.3234 1.19916 38.4019 1.35452 38.5274 1.46719C38.6529 1.57986 38.8165 1.64163 38.9857 1.64028C39.0278 1.64026 39.0699 1.63622 39.1113 1.62821L40.7029 1.33022C40.879 1.29763 41.0349 1.19686 41.1362 1.05011C41.2376 0.903357 41.2761 0.722621 41.2433 0.547649Z" fill="white"/>
<path d="M45.5668 72.4078C45.6947 72.408 45.8199 72.3717 45.9276 72.3031C46.0788 72.2081 46.186 72.0574 46.2255 71.884C46.265 71.7106 46.2337 71.5287 46.1383 71.3783C45.8479 70.9192 45.5439 70.4601 45.2372 70.0118C45.189 69.9353 45.1258 69.8693 45.0513 69.8176C44.9769 69.766 44.8927 69.7298 44.8039 69.7112C44.715 69.6926 44.6233 69.692 44.5342 69.7094C44.4451 69.7268 44.3605 69.7618 44.2853 69.8125C44.2102 69.8631 44.1461 69.9283 44.0969 70.0041C44.0476 70.0799 44.0143 70.1648 43.9989 70.2537C43.9834 70.3426 43.9862 70.4337 44.0069 70.5215C44.0277 70.6093 44.0661 70.6921 44.1198 70.7648C44.4184 71.2011 44.7129 71.6481 44.9953 72.0937C45.0561 72.1898 45.1404 72.269 45.2403 72.3239C45.3403 72.3789 45.4526 72.4077 45.5668 72.4078Z" fill="white"/>
<path d="M34.3526 2.56244C34.8809 2.45237 35.4078 2.34633 35.9361 2.24028C36.1117 2.20468 36.2658 2.10126 36.3647 1.95274C36.4635 1.80421 36.4989 1.62276 36.463 1.44832C36.4272 1.27388 36.3231 1.12074 36.1736 1.02256C36.0241 0.924387 35.8415 0.889239 35.6659 0.924839C35.1345 1.03043 34.603 1.1387 34.0716 1.24967C33.9088 1.28413 33.7646 1.37706 33.6666 1.51065C33.5685 1.64425 33.5236 1.8091 33.5403 1.97359C33.557 2.13809 33.6343 2.29067 33.7573 2.40206C33.8803 2.51345 34.0403 2.57581 34.2067 2.5772C34.2557 2.5774 34.3046 2.57246 34.3526 2.56244Z" fill="white"/>
<path d="M49.2619 80.6106C49.31 80.7386 49.3964 80.849 49.5094 80.927C49.6224 81.0049 49.7566 81.0467 49.8942 81.0468C49.9754 81.0471 50.056 81.0325 50.132 81.0039C50.2997 80.9412 50.4355 80.815 50.5095 80.6529C50.5834 80.4907 50.5896 80.3061 50.5265 80.1395C50.336 79.6334 50.1333 79.122 49.9239 78.62C49.8553 78.4555 49.7237 78.3248 49.5581 78.2568C49.3926 78.1887 49.2065 78.1887 49.041 78.2569C48.8754 78.3251 48.7439 78.4558 48.6754 78.6203C48.6069 78.7848 48.6069 78.9696 48.6755 79.1341C48.8782 79.6213 49.0795 80.1153 49.2619 80.6106Z" fill="white"/>
<path d="M38.9181 62.5123C38.7897 62.3877 38.6166 62.319 38.4371 62.3211C38.2576 62.3232 38.0863 62.3961 37.9609 62.5237C37.8354 62.6514 37.7662 62.8233 37.7684 63.0016C37.7705 63.18 37.8439 63.3502 37.9724 63.4748C38.3534 63.8426 38.7317 64.2211 39.0992 64.601C39.2248 64.722 39.3927 64.7898 39.5677 64.7903C39.7426 64.7907 39.9109 64.7237 40.0372 64.6033C40.1634 64.483 40.2377 64.3186 40.2444 64.1449C40.2512 63.9713 40.1898 63.8018 40.0733 63.6721C39.699 63.2801 39.3086 62.8909 38.9181 62.5123Z" fill="white"/>
<path d="M35.2094 59.2828C35.14 59.2256 35.0599 59.1828 34.9736 59.1569C34.8873 59.131 34.7967 59.1225 34.7071 59.1319C34.6175 59.1413 34.5306 59.1684 34.4517 59.2117C34.3728 59.2549 34.3034 59.3134 34.2476 59.3838C34.1918 59.4541 34.1507 59.5347 34.1268 59.6211C34.1029 59.7074 34.0966 59.7976 34.1082 59.8864C34.1199 59.9752 34.1494 60.0607 34.1949 60.138C34.2403 60.2153 34.3009 60.2828 34.3731 60.3365C34.7892 60.6627 35.2053 61.0009 35.6093 61.3405C35.6767 61.3998 35.7553 61.4452 35.8405 61.4739C35.9258 61.5026 36.0159 61.5141 36.1057 61.5077C36.1954 61.5013 36.283 61.4772 36.3633 61.4367C36.4435 61.3962 36.5148 61.3402 36.573 61.2719C36.6311 61.2037 36.675 61.1246 36.7019 61.0393C36.7289 60.954 36.7384 60.8642 36.73 60.7751C36.7215 60.6861 36.6952 60.5997 36.6526 60.5209C36.6101 60.4421 36.5521 60.3726 36.4821 60.3163C36.066 59.966 35.6377 59.6183 35.2094 59.2828Z" fill="white"/>
<path d="M47.8028 74.1971C47.762 74.117 47.7055 74.0459 47.6366 73.9879C47.5677 73.9299 47.4878 73.8863 47.4016 73.8595C47.3154 73.8327 47.2247 73.8234 47.1348 73.832C47.0449 73.8407 46.9577 73.8671 46.8783 73.9099C46.7989 73.9526 46.7289 74.0107 46.6725 74.0807C46.616 74.1508 46.5743 74.2314 46.5498 74.3177C46.5253 74.4041 46.5184 74.4944 46.5297 74.5834C46.5409 74.6725 46.5699 74.7584 46.6152 74.836C46.8678 75.3005 47.115 75.7756 47.3515 76.2454C47.4076 76.3572 47.4939 76.4513 47.6009 76.5169C47.7078 76.5826 47.831 76.6174 47.9568 76.6172C48.0608 76.6169 48.1634 76.593 48.2567 76.5475C48.3363 76.5082 48.4072 76.4538 48.4656 76.3872C48.5239 76.3207 48.5685 76.2434 48.5967 76.1597C48.6249 76.0761 48.6363 75.9877 48.6301 75.8997C48.6239 75.8117 48.6004 75.7257 48.5607 75.6468C48.3189 75.1635 48.0635 74.6749 47.8028 74.1971Z" fill="white"/>
<path d="M31.7018 2.4497C31.661 2.27659 31.5528 2.12664 31.4008 2.03277C31.2488 1.9389 31.0655 1.90878 30.8912 1.94902C30.3508 2.07654 29.8103 2.2054 29.305 2.33292C29.1451 2.37274 29.0053 2.4693 28.9121 2.60441C28.8188 2.73952 28.7786 2.90386 28.7988 3.06643C28.8191 3.22901 28.8985 3.37861 29.0221 3.48703C29.1457 3.59546 29.305 3.65523 29.4698 3.65508C29.5255 3.65513 29.5809 3.64791 29.6347 3.6336C30.1373 3.50877 30.6642 3.38126 31.2006 3.25642C31.3746 3.2153 31.5251 3.10727 31.6191 2.95603C31.7131 2.80479 31.7428 2.6227 31.7018 2.4497Z" fill="white"/>
<path d="M2.11727 35.6851C1.9619 35.1992 1.82813 34.6958 1.72005 34.1911C1.7028 34.1037 1.66822 34.0207 1.61834 33.9467C1.56845 33.8727 1.50425 33.8094 1.42948 33.7603C1.3547 33.7112 1.27086 33.6774 1.18281 33.6609C1.09476 33.6443 1.00426 33.6453 0.916603 33.6638C0.828947 33.6823 0.745877 33.718 0.67223 33.7687C0.598583 33.8195 0.535845 33.8843 0.487643 33.9593C0.439442 34.0344 0.406745 34.1182 0.391474 34.2059C0.376203 34.2937 0.37865 34.3835 0.398681 34.4703C0.516226 35.018 0.660799 35.563 0.828334 36.0905C0.854948 36.1746 0.897973 36.2526 0.954949 36.3202C1.01192 36.3877 1.08174 36.4435 1.1604 36.4843C1.23906 36.525 1.32504 36.55 1.41341 36.5577C1.50179 36.5655 1.59083 36.5559 1.67547 36.5294C1.7601 36.503 1.83866 36.4602 1.90666 36.4036C1.97467 36.347 2.0308 36.2777 2.07182 36.1995C2.11285 36.1214 2.13797 36.0359 2.14577 35.9481C2.15357 35.8603 2.14389 35.7719 2.11727 35.6878V35.6851Z" fill="white"/>
<path d="M3.33726 38.5267C3.29495 38.4493 3.23769 38.3808 3.16876 38.3254C3.09982 38.2699 3.02056 38.2284 2.9355 38.2034C2.76371 38.1528 2.57872 38.172 2.42124 38.2569C2.26375 38.3418 2.14667 38.4854 2.09574 38.6561C2.04481 38.8268 2.06421 39.0105 2.14967 39.167C2.41989 39.6529 2.70766 40.1335 3.01706 40.5952C3.06492 40.6714 3.12768 40.7372 3.20163 40.7889C3.27557 40.8405 3.3592 40.8769 3.44755 40.8958C3.5359 40.9148 3.62717 40.9159 3.71597 40.8992C3.80477 40.8825 3.88928 40.8482 3.96451 40.7984C4.03974 40.7487 4.10415 40.6844 4.15393 40.6095C4.20372 40.5345 4.23785 40.4504 4.25432 40.3621C4.2708 40.2738 4.26928 40.1832 4.24984 40.0955C4.2304 40.0078 4.19345 39.9248 4.14117 39.8516C3.85339 39.4221 3.58316 38.9764 3.33726 38.5267Z" fill="white"/>
<path d="M1.00646 26.995C1.0536 27.0046 1.10158 27.0095 1.14968 27.0098C1.30383 27.0096 1.45327 26.957 1.5732 26.8608C1.69313 26.7646 1.77634 26.6306 1.80902 26.4809C1.91845 25.9776 2.04816 25.4675 2.19542 24.9655C2.22026 24.8809 2.22809 24.7922 2.21845 24.7046C2.20881 24.617 2.18189 24.5321 2.13923 24.4548C2.09658 24.3776 2.03901 24.3094 1.96984 24.2542C1.90066 24.199 1.82122 24.1579 1.73605 24.1332C1.65089 24.1086 1.56167 24.1008 1.47349 24.1104C1.3853 24.12 1.29987 24.1467 1.22209 24.1891C1.1443 24.2315 1.07567 24.2886 1.02013 24.3574C0.964594 24.4261 0.923225 24.505 0.898385 24.5896C0.74301 25.1265 0.603848 25.6635 0.493059 26.2004C0.456029 26.3733 0.489187 26.5538 0.585319 26.7026C0.681452 26.8514 0.832783 26.9565 1.00646 26.995Z" fill="white"/>
<path d="M10.9789 46.2329C10.5236 45.9416 10.0818 45.6436 9.66427 45.347C9.59225 45.2938 9.5103 45.2555 9.4232 45.2342C9.3361 45.2128 9.24559 45.2089 9.15696 45.2227C9.06833 45.2365 8.98336 45.2677 8.90699 45.3145C8.83063 45.3612 8.7644 45.4227 8.71218 45.4951C8.65996 45.5676 8.6228 45.6497 8.60285 45.7366C8.5829 45.8235 8.58057 45.9134 8.596 46.0012C8.61143 46.089 8.64431 46.1729 8.69272 46.2479C8.74112 46.323 8.80408 46.3877 8.87793 46.4383C9.31298 46.7483 9.7737 47.0584 10.2466 47.3618C10.3973 47.4583 10.5804 47.4913 10.7556 47.4537C10.9308 47.4161 11.0838 47.3108 11.1809 47.1611C11.278 47.0114 11.3113 46.8295 11.2734 46.6555C11.2355 46.4814 11.1296 46.3294 10.9789 46.2329Z" fill="white"/>
<path d="M2.6589 22.4232C2.79029 22.4231 2.9188 22.385 3.0287 22.3134C3.13861 22.2419 3.22514 22.1401 3.27769 22.0205C3.48711 21.548 3.71544 21.0715 3.95324 20.6043C4.03529 20.4461 4.05072 20.262 3.99612 20.0924C3.94151 19.9229 3.82135 19.7818 3.66207 19.7003C3.5028 19.6188 3.31744 19.6035 3.14679 19.6577C2.97614 19.712 2.83418 19.8313 2.75212 19.9896C2.49811 20.4808 2.25628 20.9829 2.03605 21.4809C2.00036 21.5616 1.98102 21.6485 1.97915 21.7367C1.97729 21.8248 1.99292 21.9125 2.02517 21.9946C2.05741 22.0768 2.10564 22.1518 2.16709 22.2154C2.22853 22.2791 2.30199 22.33 2.38327 22.3654C2.46992 22.4041 2.56392 22.4238 2.6589 22.4232Z" fill="white"/>
<path d="M6.0867 42.2798C6.02593 42.2156 5.95302 42.1638 5.87213 42.1276C5.79124 42.0913 5.70394 42.0713 5.61524 42.0685C5.52654 42.0658 5.43817 42.0804 5.35517 42.1116C5.27216 42.1428 5.19615 42.1899 5.13147 42.2503C5.0668 42.3107 5.01473 42.3831 4.97824 42.4635C4.94175 42.5438 4.92154 42.6306 4.91878 42.7187C4.91602 42.8068 4.93077 42.8946 4.96216 42.9771C4.99355 43.0595 5.04099 43.135 5.10175 43.1993C5.47465 43.5939 5.87458 43.9859 6.28801 44.3644C6.41287 44.4785 6.57638 44.5418 6.74603 44.5416C6.88199 44.5415 7.01474 44.5006 7.12693 44.4243C7.23912 44.348 7.32553 44.2399 7.37487 44.114C7.4242 43.9881 7.43415 43.8504 7.40343 43.7188C7.37272 43.5872 7.30276 43.4679 7.2027 43.3765C6.81359 43.0208 6.43798 42.6516 6.0867 42.2798Z" fill="white"/>
<path d="M0.699963 31.8085C0.878911 31.8036 1.04857 31.7283 1.17169 31.5992C1.29481 31.4701 1.36131 31.2977 1.35659 31.1199C1.35659 30.9575 1.35659 30.7964 1.35659 30.634C1.35659 30.281 1.36739 29.9212 1.38766 29.5602C1.39787 29.3822 1.33649 29.2074 1.21703 29.0744C1.09756 28.9413 0.929794 28.8609 0.750629 28.8508C0.571464 28.8406 0.395578 28.9016 0.261668 29.0203C0.127758 29.139 0.0467875 29.3057 0.0365751 29.4837C0.0149578 29.8649 0.00415039 30.2488 0.00415039 30.6286C0.00415039 30.8031 0.00415039 30.9763 0.00415039 31.1494C0.00873062 31.3244 0.0819203 31.4907 0.208116 31.6128C0.334312 31.7349 0.50353 31.8032 0.679693 31.8031L0.699963 31.8085Z" fill="white"/>
<path d="M9.67515 13.1344C9.74199 13.075 9.79624 13.0029 9.83473 12.9224C9.87322 12.8418 9.89518 12.7545 9.89933 12.6655C9.90349 12.5764 9.88974 12.4875 9.85891 12.4038C9.82808 12.3201 9.78078 12.2433 9.71976 12.178C9.65874 12.1126 9.58525 12.06 9.50354 12.0232C9.42183 11.9864 9.33356 11.9661 9.24388 11.9635C9.1542 11.961 9.06491 11.9762 8.98121 12.0083C8.89752 12.0404 8.8211 12.0888 8.75642 12.1505C8.35109 12.5223 7.95522 12.9116 7.57287 13.3076C7.44888 13.4361 7.38136 13.6083 7.38516 13.7862C7.38896 13.9642 7.46376 14.1334 7.59312 14.2566C7.72248 14.3798 7.8958 14.4468 8.07494 14.4431C8.25408 14.4393 8.42436 14.365 8.54835 14.2364C8.91179 13.8579 9.29144 13.4874 9.67515 13.1344Z" fill="white"/>
<path d="M5.57464 17.9023C5.86647 17.4714 6.17721 17.0405 6.49607 16.6244C6.60357 16.482 6.64974 16.303 6.6244 16.1268C6.59906 15.9506 6.50429 15.7916 6.36096 15.6848C6.21763 15.578 6.03747 15.5321 5.86011 15.5573C5.68274 15.5825 5.5227 15.6766 5.4152 15.819C5.08013 16.2553 4.75588 16.7063 4.44783 17.1613C4.39824 17.2345 4.36363 17.3166 4.34599 17.4031C4.32835 17.4895 4.32804 17.5785 4.34503 17.6651C4.36203 17.7517 4.39603 17.8341 4.44508 17.9076C4.49413 17.9811 4.55727 18.0443 4.6309 18.0935C4.70454 18.1428 4.78722 18.1772 4.87422 18.1947C4.96123 18.2122 5.05086 18.2126 5.13799 18.1957C5.22512 18.1788 5.30804 18.145 5.38203 18.0963C5.45603 18.0475 5.51963 17.9848 5.56923 17.9117L5.57464 17.9023Z" fill="white"/>
<path d="M45.0154 81.2992C47.5757 83.0912 50.3684 86.3073 52.2059 89C52.5801 85.7691 53.5569 81.6348 54.9999 78.871L50.4508 81.8791L45.0154 81.2992Z" fill="white"/>
</g>
<defs>
<clipPath id="clip0_4189_9331">
<rect width="55" height="89" fill="white"/>
</clipPath>
</defs>
</svg>
