<svg width="44" height="49" viewBox="0 0 44 49" fill="none" xmlns="http://www.w3.org/2000/svg">
<path d="M9.05863 36.6034V38.7004H11.3446V39.3754H9.05863V41.5354H11.6146V42.2104H8.23963V35.9284H11.6146V36.6034H9.05863ZM15.4279 42.2104L14.2579 40.3744L13.1329 42.2104H12.2779L13.8709 39.7624L12.2779 37.2784H13.2049L14.3749 39.1054L15.4909 37.2784H16.3459L14.7619 39.7174L16.3549 42.2104H15.4279ZM17.9795 38.1874C18.1415 37.9054 18.3815 37.6714 18.6995 37.4854C19.0235 37.2934 19.3985 37.1974 19.8245 37.1974C20.2625 37.1974 20.6585 37.3024 21.0125 37.5124C21.3725 37.7224 21.6545 38.0194 21.8585 38.4034C22.0625 38.7814 22.1645 39.2224 22.1645 39.7264C22.1645 40.2244 22.0625 40.6684 21.8585 41.0584C21.6545 41.4484 21.3725 41.7514 21.0125 41.9674C20.6585 42.1834 20.2625 42.2914 19.8245 42.2914C19.4045 42.2914 19.0325 42.1984 18.7085 42.0124C18.3905 41.8204 18.1475 41.5834 17.9795 41.3014V44.5504H17.1605V37.2784H17.9795V38.1874ZM21.3275 39.7264C21.3275 39.3544 21.2525 39.0304 21.1025 38.7544C20.9525 38.4784 20.7485 38.2684 20.4905 38.1244C20.2385 37.9804 19.9595 37.9084 19.6535 37.9084C19.3535 37.9084 19.0745 37.9834 18.8165 38.1334C18.5645 38.2774 18.3605 38.4904 18.2045 38.7724C18.0545 39.0484 17.9795 39.3694 17.9795 39.7354C17.9795 40.1074 18.0545 40.4344 18.2045 40.7164C18.3605 40.9924 18.5645 41.2054 18.8165 41.3554C19.0745 41.4994 19.3535 41.5714 19.6535 41.5714C19.9595 41.5714 20.2385 41.4994 20.4905 41.3554C20.7485 41.2054 20.9525 40.9924 21.1025 40.7164C21.2525 40.4344 21.3275 40.1044 21.3275 39.7264ZM24.0616 35.5504V42.2104H23.2426V35.5504H24.0616ZM27.6084 42.2914C27.1464 42.2914 26.7264 42.1864 26.3484 41.9764C25.9764 41.7664 25.6824 41.4694 25.4664 41.0854C25.2564 40.6954 25.1514 40.2454 25.1514 39.7354C25.1514 39.2314 25.2594 38.7874 25.4754 38.4034C25.6974 38.0134 25.9974 37.7164 26.3754 37.5124C26.7534 37.3024 27.1764 37.1974 27.6444 37.1974C28.1124 37.1974 28.5354 37.3024 28.9134 37.5124C29.2914 37.7164 29.5884 38.0104 29.8044 38.3944C30.0264 38.7784 30.1374 39.2254 30.1374 39.7354C30.1374 40.2454 30.0234 40.6954 29.7954 41.0854C29.5734 41.4694 29.2704 41.7664 28.8864 41.9764C28.5024 42.1864 28.0764 42.2914 27.6084 42.2914ZM27.6084 41.5714C27.9024 41.5714 28.1784 41.5024 28.4364 41.3644C28.6944 41.2264 28.9014 41.0194 29.0574 40.7434C29.2194 40.4674 29.3004 40.1314 29.3004 39.7354C29.3004 39.3394 29.2224 39.0034 29.0664 38.7274C28.9104 38.4514 28.7064 38.2474 28.4544 38.1154C28.2024 37.9774 27.9294 37.9084 27.6354 37.9084C27.3354 37.9084 27.0594 37.9774 26.8074 38.1154C26.5614 38.2474 26.3634 38.4514 26.2134 38.7274C26.0634 39.0034 25.9884 39.3394 25.9884 39.7354C25.9884 40.1374 26.0604 40.4764 26.2044 40.7524C26.3544 41.0284 26.5524 41.2354 26.7984 41.3734C27.0444 41.5054 27.3144 41.5714 27.6084 41.5714ZM32.0332 38.0794C32.1772 37.7974 32.3812 37.5784 32.6452 37.4224C32.9152 37.2664 33.2422 37.1884 33.6262 37.1884V38.0344H33.4102C32.4922 38.0344 32.0332 38.5324 32.0332 39.5284V42.2104H31.2142V37.2784H32.0332V38.0794ZM39.0717 39.5554C39.0717 39.7114 39.0627 39.8764 39.0447 40.0504H35.1027C35.1327 40.5364 35.2977 40.9174 35.5977 41.1934C35.9037 41.4634 36.2727 41.5984 36.7047 41.5984C37.0587 41.5984 37.3527 41.5174 37.5867 41.3554C37.8267 41.1874 37.9947 40.9654 38.0907 40.6894H38.9727C38.8407 41.1634 38.5767 41.5504 38.1807 41.8504C37.7847 42.1444 37.2927 42.2914 36.7047 42.2914C36.2367 42.2914 35.8167 42.1864 35.4447 41.9764C35.0787 41.7664 34.7907 41.4694 34.5807 41.0854C34.3707 40.6954 34.2657 40.2454 34.2657 39.7354C34.2657 39.2254 34.3677 38.7784 34.5717 38.3944C34.7757 38.0104 35.0607 37.7164 35.4267 37.5124C35.7987 37.3024 36.2247 37.1974 36.7047 37.1974C37.1727 37.1974 37.5867 37.2994 37.9467 37.5034C38.3067 37.7074 38.5827 37.9894 38.7747 38.3494C38.9727 38.7034 39.0717 39.1054 39.0717 39.5554ZM38.2257 39.3844C38.2257 39.0724 38.1567 38.8054 38.0187 38.5834C37.8807 38.3554 37.6917 38.1844 37.4517 38.0704C37.2177 37.9504 36.9567 37.8904 36.6687 37.8904C36.2547 37.8904 35.9007 38.0224 35.6067 38.2864C35.3187 38.5504 35.1537 38.9164 35.1117 39.3844H38.2257Z" fill="white"/>
<g clip-path="url(#clip0_4189_9569)">
<path d="M19.5097 25C17.915 25.0012 16.3522 24.5538 14.9997 23.7089C13.6473 22.8641 12.5598 21.6558 11.8615 20.2221C11.1632 18.7885 10.8822 17.1873 11.0508 15.6016C11.2193 14.0159 11.8306 12.5095 12.8146 11.2547C13.7987 9.99988 15.1159 9.04718 16.6157 8.50547C18.1155 7.96376 19.7375 7.85488 21.2963 8.19129C22.8551 8.52769 24.2878 9.29579 25.4307 10.4078C26.5736 11.5199 27.3807 12.931 27.7597 14.48C28.0631 15.6755 28.0977 16.9234 27.8608 18.1338C27.6239 19.3443 27.1214 20.4871 26.3897 21.48C26.2297 21.69 26.2597 21.79 26.3897 21.96C28.1697 23.7333 29.9463 25.5067 31.7197 27.28C31.931 27.4604 32.063 27.7166 32.0874 27.9934C32.1117 28.2702 32.0263 28.5455 31.8496 28.76C31.7669 28.8717 31.6617 28.9649 31.5408 29.0337C31.42 29.1025 31.2861 29.1453 31.1478 29.1594C31.0094 29.1735 30.8697 29.1586 30.7374 29.1157C30.6052 29.0727 30.4833 29.0027 30.3797 28.91L30.2797 28.81L28.4297 26.97L24.9897 23.43C24.9607 23.3926 24.9235 23.3624 24.8811 23.3416C24.8386 23.3208 24.792 23.3099 24.7447 23.3099C24.6974 23.3099 24.6507 23.3208 24.6083 23.3416C24.5658 23.3624 24.5286 23.3926 24.4997 23.43C23.0491 24.4775 21.2987 25.0282 19.5097 25ZM13.1097 16.49C13.1077 17.7558 13.4811 18.9938 14.1827 20.0473C14.8843 21.1009 15.8826 21.9228 17.0512 22.409C18.2199 22.8952 19.5066 23.024 20.7484 22.779C21.9903 22.534 23.1316 21.9262 24.0281 21.0325C24.9245 20.1389 25.5358 18.9995 25.7847 17.7584C26.0336 16.5173 25.9089 15.2303 25.4263 14.0601C24.9437 12.8899 24.125 11.889 23.0736 11.1842C22.0222 10.4793 20.7855 10.102 19.5197 10.1C17.8247 10.1052 16.2003 10.7795 14.9999 11.9762C13.7995 13.1728 13.1202 14.7951 13.1097 16.49Z" fill="white"/>
<g clip-path="url(#clip1_4189_9569)">
<path d="M15.8594 15.4725C16.0164 15.1345 16.1832 14.8265 16.3064 14.4975C16.4877 14.017 16.8642 13.8464 17.303 13.7834C17.7501 13.7198 18.1821 13.7904 18.5492 14.0895C18.6203 14.1474 18.6718 14.2524 18.6973 14.346C18.7448 14.5229 18.7672 14.7075 18.808 14.9331C18.918 14.9013 19.0244 14.8857 19.1192 14.8418C19.3878 14.7164 19.6491 14.7059 19.9115 14.8555C19.9549 14.881 20.0021 14.8991 20.0511 14.9089C20.1691 14.9302 20.2415 14.9016 20.2436 14.7498C20.2476 14.6067 20.2688 14.4646 20.3068 14.3269C20.3306 14.2423 20.3752 14.1655 20.4362 14.1042C20.6652 13.8782 20.951 13.7904 21.2598 13.7754C21.6869 13.7548 22.0951 13.8143 22.4477 14.0946C22.4822 14.1167 22.5119 14.1461 22.5348 14.1808C22.7421 14.6025 22.946 15.0257 23.1481 15.4454C22.8914 15.3554 22.6489 15.2459 22.3953 15.1864C21.7207 15.0273 21.0712 15.1317 20.5116 15.5453C20.2234 15.7579 20.0155 16.0882 19.7736 16.3676C19.6816 16.4729 19.5985 16.5853 19.5 16.7084C19.2802 16.4405 19.0622 16.1897 18.8601 15.9256C18.3557 15.265 17.6731 15.0916 16.9081 15.1492C16.7311 15.1658 16.5564 15.202 16.3868 15.257C16.2163 15.3092 16.055 15.391 15.8594 15.4725Z" fill="white"/>
<path d="M19.2895 17.7811C19.2897 18.3714 19.0639 18.9375 18.6619 19.3551C18.2598 19.7726 17.7144 20.0073 17.1456 20.0075C16.5768 20.0077 16.0313 19.7734 15.6289 19.3562C15.2266 18.939 15.0005 18.373 15.0003 17.7827C14.9951 16.5608 15.9815 15.5387 17.1556 15.5482C17.7238 15.5508 18.2678 15.7875 18.668 16.2062C19.0681 16.6249 19.2917 17.1914 19.2895 17.7811ZM17.1482 19.2379C17.4311 19.2384 17.7077 19.1519 17.9432 18.9893C18.1786 18.8266 18.3622 18.5952 18.4709 18.3241C18.5795 18.0531 18.6082 17.7548 18.5534 17.4668C18.4986 17.1789 18.3627 16.9143 18.1629 16.7065C17.9631 16.4987 17.7084 16.3571 17.4311 16.2996C17.1537 16.2421 16.8662 16.2713 16.6048 16.3834C16.3434 16.4956 16.12 16.6857 15.9627 16.9297C15.8055 17.1736 15.7215 17.4605 15.7215 17.7541C15.721 17.9487 15.7575 18.1415 15.8289 18.3215C15.9004 18.5015 16.0053 18.6651 16.1378 18.8029C16.2702 18.9408 16.4276 19.0501 16.6008 19.1248C16.774 19.1994 16.9597 19.2378 17.1473 19.2379H17.1482Z" fill="white"/>
<path d="M21.85 19.9997C21.2856 19.9935 20.7463 19.7568 20.3489 19.3407C19.9516 18.9247 19.7283 18.3628 19.7275 17.7771C19.7267 17.1913 19.9485 16.6288 20.3446 16.2116C20.7408 15.7944 21.2795 15.556 21.8439 15.5482C23.0202 15.5396 24.0057 16.5614 23.9992 17.7824C23.9972 18.372 23.7697 18.9368 23.3668 19.3525C22.9638 19.7683 22.4183 20.001 21.85 19.9997ZM23.2774 17.754C23.2756 16.9203 22.6491 16.2702 21.8497 16.2709C21.662 16.2711 21.4762 16.3097 21.3028 16.3844C21.1294 16.4591 20.972 16.5686 20.8394 16.7065C20.7068 16.8444 20.6016 17.0081 20.53 17.1881C20.4583 17.3682 20.4215 17.5611 20.4217 17.756C20.4219 17.9508 20.4591 18.1436 20.5311 18.3235C20.6032 18.5035 20.7086 18.6669 20.8415 18.8045C20.9744 18.9421 21.1321 19.0512 21.3056 19.1255C21.4791 19.1999 21.6651 19.2381 21.8528 19.2379C22.0406 19.2391 22.2268 19.2014 22.4005 19.1272C22.5742 19.053 22.732 18.9437 22.8646 18.8056C22.9972 18.6675 23.1019 18.5034 23.1728 18.3229C23.2437 18.1423 23.2793 17.949 23.2774 17.754Z" fill="white"/>
<path d="M22.0013 13.4022C21.4892 13.2699 20.9967 13.3036 20.5144 13.5181C20.6509 13.1967 20.8962 13.043 21.2197 13.0089C21.4524 12.9825 21.8544 13.1082 22.0013 13.4022Z" fill="white"/>
<path d="M18.4866 13.4971C18.2363 13.4423 17.9959 13.3698 17.7528 13.3421C17.5096 13.3144 17.2677 13.3364 17.0276 13.3364C17.102 13.2293 17.2005 13.1427 17.3145 13.0841C17.4284 13.0255 17.5545 12.9966 17.6816 13C18.0398 13 18.3121 13.1744 18.4866 13.4971Z" fill="white"/>
</g>
</g>
<rect x="0.5" y="0.5" width="43" height="48" rx="1.5" stroke="white"/>
<defs>
<clipPath id="clip0_4189_9569">
<rect width="21.14" height="21.14" fill="white" transform="translate(10.9998 8)"/>
</clipPath>
<clipPath id="clip1_4189_9569">
<rect width="9" height="7" fill="white" transform="translate(14.9993 13)"/>
</clipPath>
</defs>
</svg>
