<svg width="53" height="62" viewBox="0 0 53 62" fill="none" xmlns="http://www.w3.org/2000/svg">
<g clip-path="url(#clip0_4189_9583)">
<path d="M50.9693 47.2991C50.9499 47.3463 50.9402 47.397 50.9409 47.4482C50.9416 47.4994 50.9527 47.55 50.9734 47.5969C51.0119 47.6851 51.0827 47.7551 51.171 47.7923C51.4449 47.9095 51.7255 48.0272 52.0049 48.142C52.0505 48.1607 52.0993 48.1701 52.1484 48.1698C52.1975 48.1695 52.246 48.1595 52.2911 48.1403C52.3363 48.1211 52.3771 48.0931 52.4113 48.0579C52.4456 48.0227 52.4725 47.981 52.4907 47.9351C52.5089 47.8893 52.5179 47.8403 52.5172 47.7908C52.5165 47.7413 52.5061 47.6924 52.4867 47.6468C52.4673 47.6012 52.4391 47.5598 52.4039 47.525C52.3687 47.4903 52.3271 47.4628 52.2814 47.4441C52.005 47.3304 51.7274 47.214 51.4564 47.0978C51.4111 47.0787 51.3625 47.0688 51.3135 47.0686C51.2644 47.0683 51.2159 47.0778 51.1707 47.0965C51.1255 47.1152 51.0844 47.1427 51.0499 47.1775C51.0153 47.2123 50.9879 47.2536 50.9693 47.2991Z" fill="white"/>
<path d="M46.096 45.2849C46.1309 45.3637 46.1915 45.4282 46.2677 45.4678C46.531 45.6053 46.8016 45.7446 47.0722 45.8823C47.161 45.9272 47.2636 45.935 47.3575 45.9038C47.4513 45.8725 47.5287 45.805 47.5726 45.7159C47.6165 45.6268 47.6234 45.5235 47.5917 45.4287C47.56 45.334 47.4922 45.2555 47.4035 45.2105C47.1354 45.075 46.8677 44.9369 46.607 44.8015C46.5382 44.7655 46.4603 44.7518 46.3839 44.7623C46.3075 44.7727 46.2364 44.8068 46.1803 44.8598C46.1243 44.9128 46.0861 44.9822 46.071 45.0583C46.0559 45.1344 46.0646 45.2136 46.096 45.2849Z" fill="white"/>
<path d="M31.969 35.1063C32.0017 35.0697 32.0268 35.0269 32.043 34.9803C32.0591 34.9338 32.066 34.8844 32.0631 34.8351C32.0603 34.7857 32.0479 34.7373 32.0265 34.6927C32.0051 34.648 31.9752 34.608 31.9386 34.5748C31.7181 34.3756 31.4956 34.1715 31.2766 33.9683C31.2133 33.9096 31.1321 33.8745 31.0465 33.8689C30.961 33.8633 30.8764 33.8874 30.8069 33.9373C30.7374 33.9872 30.6872 34.0599 30.6648 34.143C30.6424 34.2261 30.6492 34.3147 30.6839 34.3938C30.7047 34.4414 30.7351 34.4841 30.7733 34.5191C30.9941 34.7248 31.2193 34.931 31.4407 35.1307C31.4772 35.1641 31.5199 35.19 31.5662 35.2069C31.6126 35.2238 31.6617 35.2314 31.7108 35.2291C31.7599 35.2268 31.8079 35.2148 31.8523 35.1937C31.8966 35.1727 31.9363 35.143 31.969 35.1063Z" fill="white"/>
<path d="M27.5494 31.3268C27.618 31.3993 27.7122 31.4415 27.8113 31.4443C27.9103 31.4471 28.0061 31.4102 28.0775 31.3416C28.1489 31.273 28.1901 31.1785 28.1921 31.0788C28.1941 30.979 28.1566 30.8823 28.088 30.8098C27.883 30.5938 27.6766 30.3728 27.4737 30.1543C27.406 30.0809 27.3124 30.0375 27.2134 30.0334C27.1144 30.0294 27.0182 30.0651 26.9459 30.1327C26.8737 30.2003 26.8313 30.2943 26.828 30.394C26.8248 30.4936 26.861 30.5908 26.9287 30.6642C27.1342 30.8848 27.3425 31.1084 27.5494 31.3268Z" fill="white"/>
<path d="M33.2366 22.6134C33.2546 22.8995 33.2567 23.1864 33.2428 23.4725C33.2395 23.5312 33.2503 23.59 33.2742 23.6438C33.3083 23.7213 33.3673 23.7852 33.4416 23.8251C33.5159 23.865 33.6011 23.8787 33.6836 23.8638C33.7661 23.849 33.841 23.8066 33.8963 23.7434C33.9515 23.6802 33.9838 23.5999 33.988 23.5156C34.003 23.2015 34.0003 22.8866 33.98 22.5726C33.9737 22.4729 33.9284 22.3796 33.8541 22.3131C33.7797 22.2466 33.6824 22.2123 33.5836 22.2178C33.4848 22.2234 33.3925 22.2682 33.327 22.3426C33.2616 22.417 33.2283 22.5147 33.2346 22.6143L33.2366 22.6134Z" fill="white"/>
<path d="M22.2099 33.0644C22.2088 33.119 22.2196 33.1732 22.2416 33.2233C22.2705 33.289 22.3173 33.3453 22.3767 33.3854C22.436 33.4255 22.5054 33.4477 22.5765 33.4495C22.8851 33.4568 23.1952 33.4528 23.4984 33.4387C23.5951 33.4312 23.6848 33.386 23.7485 33.3128C23.8122 33.2395 23.8448 33.1439 23.8395 33.0463C23.8343 32.9486 23.7914 32.8566 23.7201 32.7897C23.6489 32.7228 23.5547 32.6862 23.4577 32.6879C23.1719 32.7009 22.8796 32.7045 22.5891 32.6974C22.4901 32.6951 22.3945 32.7324 22.3234 32.8012C22.2523 32.87 22.2115 32.9647 22.2099 33.0644Z" fill="white"/>
<path d="M24.9118 32.9959C24.9465 33.0746 25.0068 33.1391 25.0826 33.1787C25.1584 33.2184 25.2452 33.2309 25.3286 33.2141C25.5016 33.1799 25.6768 33.1431 25.8473 33.0976C25.9737 33.0667 26.102 33.0324 26.2297 32.9951C26.2767 32.9815 26.3205 32.9586 26.3586 32.9278C26.3967 32.897 26.4284 32.8589 26.4517 32.8156C26.4751 32.7724 26.4898 32.7249 26.4949 32.6758C26.5 32.6267 26.4954 32.577 26.4815 32.5295C26.4675 32.4821 26.4445 32.4378 26.4136 32.3991C26.3827 32.3605 26.3446 32.3283 26.3015 32.3044C26.2584 32.2805 26.2111 32.2654 26.1623 32.2598C26.1136 32.2543 26.0643 32.2585 26.0172 32.2722C25.899 32.3069 25.7802 32.3387 25.6636 32.3678C25.5027 32.4074 25.3396 32.4438 25.178 32.4762C25.1295 32.4855 25.0835 32.5043 25.0424 32.5316C25.0014 32.559 24.9662 32.5943 24.9389 32.6356C24.9116 32.6768 24.8928 32.7232 24.8835 32.772C24.8742 32.8208 24.8746 32.871 24.8847 32.9198C24.891 32.9461 24.9 32.9716 24.9118 32.9959Z" fill="white"/>
<path d="M32.4862 27.4263C32.4438 27.4007 32.3969 27.3836 32.3482 27.3763C32.2994 27.3689 32.2498 27.3713 32.2021 27.3833C32.1544 27.3954 32.1096 27.4168 32.0704 27.4464C32.0311 27.476 31.9981 27.5132 31.9732 27.5559C31.8278 27.8026 31.6698 28.0467 31.5028 28.2832C31.4494 28.3642 31.4295 28.4633 31.4474 28.5594C31.4653 28.6556 31.5196 28.7412 31.5988 28.7982C31.6779 28.8552 31.7758 28.8792 31.8716 28.8649C31.9674 28.8507 32.0536 28.7994 32.1121 28.722C32.2908 28.4696 32.4604 28.2073 32.6159 27.9429C32.641 27.9007 32.6576 27.8538 32.6646 27.805C32.6717 27.7562 32.6691 27.7064 32.6571 27.6584C32.645 27.6104 32.6237 27.5652 32.5944 27.5254C32.5651 27.4856 32.5283 27.4519 32.4862 27.4263Z" fill="white"/>
<path d="M19.5541 32.6542C19.5436 32.7025 19.5427 32.7524 19.5514 32.8012C19.5602 32.8499 19.5783 32.8966 19.6049 32.9384C19.6315 32.9802 19.666 33.0164 19.7064 33.0449C19.7467 33.0734 19.7923 33.0936 19.8403 33.1044C20.1408 33.1729 20.4451 33.2315 20.745 33.2822C20.794 33.2912 20.8442 33.2903 20.8927 33.2795C20.9412 33.2688 20.987 33.2483 21.0273 33.2194C21.0677 33.1905 21.1019 33.1537 21.1278 33.1111C21.1538 33.0686 21.171 33.0212 21.1785 32.9718C21.1859 32.9223 21.1835 32.8718 21.1713 32.8231C21.1591 32.7744 21.1374 32.7286 21.1075 32.6884C21.0775 32.6482 21.04 32.6143 20.997 32.5888C20.954 32.5633 20.9064 32.5466 20.8571 32.5398C20.5733 32.4944 20.2846 32.438 19.9996 32.3733C19.9031 32.3508 19.802 32.3678 19.7185 32.4205C19.6349 32.4731 19.5758 32.5572 19.5541 32.6542Z" fill="white"/>
<path d="M33.4172 26.2617C33.5253 25.9671 33.6206 25.6676 33.6987 25.3698C33.7234 25.2738 33.7094 25.1715 33.6596 25.0854C33.6098 24.9992 33.5283 24.9361 33.433 24.9099C33.3376 24.8837 33.2361 24.8965 33.1507 24.9455C33.0653 24.9945 33.0029 25.0757 32.9771 25.1714C32.905 25.446 32.8177 25.7231 32.7173 25.9944C32.6828 26.0877 32.6866 26.1912 32.7278 26.2823C32.769 26.3733 32.8444 26.4444 32.9372 26.48C33.0301 26.5155 33.1328 26.5125 33.2229 26.4717C33.313 26.4309 33.383 26.3556 33.4175 26.2623L33.4172 26.2617Z" fill="white"/>
<path d="M28.7613 31.8656C28.844 31.8132 28.9026 31.73 28.9246 31.634C28.9465 31.5379 28.93 31.4367 28.8786 31.3523C28.8271 31.2678 28.745 31.2068 28.6498 31.1825C28.5546 31.1582 28.454 31.1725 28.3698 31.2223C28.1244 31.3732 27.8707 31.5145 27.6156 31.6416C27.5301 31.6846 27.4645 31.7591 27.4324 31.8499C27.4004 31.9406 27.4043 32.0405 27.4434 32.129L27.4513 32.1469C27.496 32.2361 27.574 32.3041 27.6679 32.3358C27.7619 32.3676 27.8643 32.3606 27.9525 32.3164C28.2265 32.1785 28.4987 32.0274 28.7613 31.8656Z" fill="white"/>
<path d="M34.0187 36.8732C34.0499 36.8353 34.0733 36.7915 34.0876 36.7444C34.1019 36.6973 34.1069 36.6477 34.1022 36.5985C34.0974 36.5493 34.0831 36.5014 34.0601 36.4576C34.037 36.4138 34.0056 36.375 33.9678 36.3433C33.7396 36.1524 33.5093 35.9566 33.2839 35.7628C33.2467 35.729 33.2032 35.703 33.156 35.6864C33.1088 35.6697 33.0589 35.6627 33.0091 35.6658C32.9593 35.6689 32.9108 35.682 32.8663 35.7044C32.8218 35.7268 32.7822 35.7579 32.75 35.7961C32.7178 35.8342 32.6936 35.8785 32.6787 35.9263C32.6639 35.9742 32.6587 36.0247 32.6636 36.0747C32.6684 36.1248 32.6832 36.1734 32.707 36.2178C32.7308 36.2621 32.7631 36.3013 32.8021 36.333C33.0301 36.5289 33.2623 36.7271 33.493 36.9202C33.5309 36.9519 33.5745 36.9759 33.6214 36.9907C33.6683 37.0055 33.7176 37.0109 33.7664 37.0065C33.8152 37.0021 33.8626 36.9881 33.9059 36.9652C33.9492 36.9423 33.9875 36.9111 34.0187 36.8732Z" fill="white"/>
<path d="M25.0712 28.5255C25.0852 28.5575 25.1036 28.5873 25.1257 28.6143C25.3062 28.8393 25.503 29.0663 25.7161 29.3116C25.7816 29.3869 25.8739 29.4331 25.9728 29.44C26.0716 29.447 26.1688 29.4142 26.243 29.3487C26.3172 29.2833 26.3623 29.1907 26.3685 29.0912C26.3746 28.9917 26.3412 28.8935 26.2757 28.8183C26.0683 28.5803 25.8788 28.3551 25.6987 28.1365C25.641 28.0664 25.5602 28.0194 25.4713 28.0043C25.3824 27.9892 25.2913 28.0069 25.2149 28.0542C25.1384 28.1015 25.0817 28.1752 25.0553 28.2617C25.0288 28.3482 25.0343 28.4416 25.0709 28.5248L25.0712 28.5255Z" fill="white"/>
<path d="M30.3947 29.609C30.1933 29.8137 29.9808 30.0135 29.7604 30.2027C29.7001 30.255 29.6581 30.3256 29.6408 30.4041C29.6234 30.4825 29.6316 30.5647 29.6641 30.6386C29.679 30.6727 29.699 30.7044 29.7234 30.7326C29.7555 30.7702 29.7946 30.8011 29.8384 30.8236C29.8823 30.8461 29.93 30.8597 29.9789 30.8636C30.0278 30.8675 30.0769 30.8617 30.1235 30.8464C30.17 30.8312 30.213 30.8069 30.2501 30.7748C30.4824 30.5738 30.7092 30.3603 30.9242 30.1422C30.9937 30.0717 31.0323 29.976 31.0315 29.8762C31.0307 29.7765 30.9906 29.6808 30.92 29.6103C30.8495 29.5397 30.7542 29.5001 30.6551 29.5001C30.5561 29.5001 30.4615 29.5397 30.392 29.6102L30.3947 29.609Z" fill="white"/>
<path d="M28.7359 32.514C28.7548 32.557 28.7816 32.596 28.815 32.629C29.0268 32.8419 29.247 33.0553 29.4595 33.2679C29.5309 33.3376 29.6266 33.3762 29.7257 33.375C29.8248 33.3738 29.919 33.3331 29.9876 33.2617C30.0563 33.1903 30.0938 33.0942 30.0918 32.9944C30.0899 32.8946 30.0487 32.7994 29.9773 32.7296C29.7643 32.5213 29.5481 32.3095 29.3395 32.0984C29.2776 32.0362 29.1963 31.9975 29.1095 31.9891C29.0227 31.9806 28.936 32.003 28.8644 32.0524C28.7927 32.1017 28.7407 32.1748 28.7172 32.2591C28.6937 32.3435 28.7003 32.4336 28.7359 32.514Z" fill="white"/>
<path d="M38.3106 40.1649C38.3388 40.1247 38.3588 40.0792 38.3695 40.0311C38.3802 39.983 38.3814 39.9332 38.3729 39.8845C38.3645 39.8357 38.3466 39.7891 38.3203 39.7472C38.294 39.7053 38.2598 39.669 38.2197 39.6403C37.9801 39.4659 37.7339 39.2895 37.4944 39.1135C37.4549 39.0817 37.4095 39.0582 37.361 39.0444C37.3124 39.0307 37.2617 39.0269 37.2118 39.0334C37.1619 39.0399 37.1139 39.0565 37.0707 39.0822C37.0276 39.1079 36.99 39.1422 36.9605 39.183C36.9309 39.2238 36.9099 39.2703 36.8986 39.3196C36.8874 39.369 36.8862 39.4202 36.8952 39.4701C36.9041 39.5201 36.923 39.5678 36.9507 39.6104C36.9783 39.653 37.0142 39.6896 37.0562 39.718C37.2976 39.8965 37.5462 40.0784 37.7896 40.2502C37.8297 40.2792 37.8749 40.2999 37.9228 40.3113C37.9706 40.3227 38.0202 40.3245 38.0686 40.3166C38.117 40.3086 38.1633 40.2912 38.2048 40.2651C38.2463 40.2391 38.2823 40.205 38.3106 40.1649Z" fill="white"/>
<path d="M23.508 26.3733C23.6621 26.6289 23.8314 26.8894 24.0129 27.1502C24.0697 27.2324 24.1563 27.2888 24.2538 27.307C24.3513 27.3252 24.4517 27.3037 24.5328 27.2472C24.614 27.1908 24.6693 27.104 24.6866 27.0059C24.7039 26.9078 24.6818 26.8065 24.625 26.7243C24.4539 26.4762 24.2922 26.2272 24.1455 25.9848C24.0994 25.8959 24.0203 25.8289 23.9256 25.7984C23.8308 25.768 23.7283 25.7766 23.6404 25.8224C23.5526 25.8681 23.4867 25.9473 23.4572 26.0425C23.4277 26.1377 23.4371 26.241 23.4832 26.3299C23.4905 26.3449 23.4988 26.3594 23.508 26.3733Z" fill="white"/>
<path d="M5.74715 18.746C5.61459 18.4801 5.48196 18.2084 5.35289 17.9393C5.31119 17.8485 5.23553 17.7778 5.14254 17.7428C5.04956 17.7078 4.94687 17.7113 4.85707 17.7526C4.76727 17.7939 4.6977 17.8696 4.66369 17.963C4.62968 18.0563 4.634 18.1598 4.6757 18.2506L4.68086 18.2623C4.81183 18.5339 4.94628 18.8097 5.08134 19.0795C5.12603 19.1689 5.20403 19.2372 5.29818 19.2691C5.39234 19.301 5.49494 19.2941 5.58341 19.2498C5.67189 19.2055 5.73898 19.1275 5.76994 19.0329C5.80091 18.9383 5.7932 18.8349 5.74852 18.7454L5.74715 18.746Z" fill="white"/>
<path d="M48.5125 46.4885C48.5493 46.5719 48.6149 46.6393 48.6969 46.6781C48.966 46.8066 49.2412 46.9323 49.5158 47.0584C49.5606 47.0798 49.6092 47.092 49.6587 47.0944C49.7082 47.0968 49.7575 47.0892 49.8039 47.0721C49.8503 47.055 49.8928 47.0288 49.9289 46.995C49.965 46.9612 49.9939 46.9204 50.0142 46.875C50.0344 46.8296 50.0454 46.7806 50.0466 46.7308C50.0477 46.6809 50.0391 46.6313 50.021 46.5847C50.003 46.5381 49.976 46.4955 49.9416 46.4594C49.9071 46.4233 49.8659 46.3944 49.8204 46.3744C49.5473 46.2478 49.2748 46.1208 49.0099 45.9963C48.9409 45.9634 48.8638 45.9525 48.7889 45.9649C48.7139 45.9774 48.6448 46.0126 48.5906 46.0659C48.5364 46.1192 48.4998 46.188 48.4857 46.2632C48.4715 46.3384 48.4806 46.4162 48.5116 46.4864L48.5125 46.4885Z" fill="white"/>
<path d="M45.0303 43.9516C44.7703 43.8068 44.5074 43.6591 44.2505 43.5121C44.2077 43.4878 44.1606 43.4721 44.1119 43.466C44.0633 43.4599 44.0139 43.4635 43.9668 43.4766C43.9196 43.4897 43.8756 43.5121 43.8371 43.5424C43.7987 43.5728 43.7666 43.6105 43.7428 43.6534C43.7189 43.6963 43.7037 43.7437 43.698 43.7927C43.6924 43.8417 43.6963 43.8914 43.7097 43.939C43.7231 43.9866 43.7457 44.0311 43.7761 44.0701C43.8065 44.1091 43.8442 44.1417 43.887 44.166C44.1472 44.3149 44.4126 44.4647 44.6756 44.6107C44.7624 44.657 44.8636 44.6672 44.9572 44.6392C45.0509 44.6111 45.1296 44.547 45.1763 44.4606C45.223 44.3743 45.234 44.2727 45.2069 44.1776C45.1799 44.0826 45.1169 44.0018 45.0316 43.9527L45.0303 43.9516Z" fill="white"/>
<path d="M25.0885 16.8728C25.1314 16.8489 25.1691 16.8166 25.1995 16.7778C25.2299 16.739 25.2524 16.6946 25.2657 16.6469C25.2789 16.5993 25.2828 16.5494 25.2769 16.5001C25.271 16.4508 25.2555 16.4031 25.2314 16.3597C25.2073 16.3162 25.1749 16.278 25.1362 16.247C25.0974 16.2161 25.0531 16.1931 25.0057 16.1794C24.9583 16.1656 24.9087 16.1614 24.8598 16.1669C24.811 16.1724 24.7637 16.1876 24.7208 16.2116C24.5371 16.3146 24.3603 16.4293 24.1913 16.555C24.102 16.6223 24.0136 16.6933 23.9281 16.7672C23.8675 16.8195 23.8254 16.8901 23.8079 16.9686C23.7905 17.0471 23.7986 17.1294 23.831 17.2034C23.8459 17.2373 23.8658 17.2688 23.8901 17.2967C23.9221 17.3344 23.9612 17.3654 24.005 17.388C24.0489 17.4106 24.0966 17.4242 24.1456 17.4282C24.1945 17.4322 24.2437 17.4264 24.2903 17.4112C24.3369 17.396 24.3799 17.3717 24.417 17.3396C24.489 17.2775 24.564 17.2165 24.6397 17.1593C24.7827 17.0537 24.9326 16.958 25.0885 16.8728Z" fill="white"/>
<path d="M40.5457 41.6854C40.5724 41.6442 40.5907 41.598 40.5996 41.5495C40.6084 41.501 40.6077 41.4511 40.5975 41.4028C40.5872 41.3544 40.5676 41.3084 40.5398 41.2676C40.5119 41.2267 40.4764 41.1917 40.4353 41.1645C40.1862 41.0001 39.9359 40.8329 39.6918 40.6687C39.651 40.641 39.6052 40.6216 39.5571 40.6117C39.5091 40.6017 39.4596 40.6014 39.4115 40.6107C39.3144 40.6296 39.229 40.6865 39.1741 40.7691C39.1193 40.8516 39.0993 40.953 39.1188 41.051C39.1382 41.1489 39.1955 41.2354 39.2779 41.2913C39.5261 41.4594 39.7793 41.6294 40.0307 41.7953C40.114 41.8496 40.215 41.8685 40.3116 41.8479C40.4082 41.8273 40.4924 41.7688 40.5457 41.6854Z" fill="white"/>
<path d="M6.87257 21.635C6.91512 21.6108 6.95246 21.5784 6.98245 21.5396C7.01244 21.5007 7.0345 21.4563 7.04737 21.4087C7.06023 21.3612 7.06365 21.3115 7.05743 21.2624C7.0512 21.2134 7.03546 21.166 7.0111 21.123C6.86544 20.8661 6.71908 20.6021 6.57637 20.339C6.5325 20.2492 6.45514 20.1803 6.3613 20.1475C6.26747 20.1147 6.16484 20.1208 6.07601 20.1642C5.98717 20.2077 5.9194 20.2851 5.88761 20.3794C5.85582 20.4736 5.8626 20.577 5.90647 20.6669C5.91004 20.6768 5.9143 20.6865 5.91921 20.6958C6.06314 20.9617 6.21223 21.2319 6.3607 21.4933C6.38521 21.5365 6.41793 21.5745 6.45697 21.605C6.49602 21.6356 6.54061 21.6581 6.58819 21.6713C6.63577 21.6844 6.6854 21.688 6.7342 21.6818C6.78301 21.6756 6.83003 21.6597 6.87257 21.635Z" fill="white"/>
<path d="M11.6963 28.1538C11.731 28.1191 11.7585 28.0778 11.7772 28.0322C11.796 27.9867 11.8056 27.9378 11.8055 27.8884C11.8055 27.8389 11.7957 27.7899 11.7769 27.7441C11.758 27.6983 11.7304 27.6567 11.6956 27.6215C11.4954 27.4183 11.2908 27.2014 11.0865 26.9777C11.0268 26.9109 10.9455 26.8675 10.8574 26.8554C10.7692 26.8433 10.6799 26.8633 10.6055 26.9117C10.5311 26.9602 10.4765 27.0339 10.4516 27.1196C10.4267 27.2053 10.433 27.2975 10.4694 27.3794C10.4857 27.4165 10.5079 27.4507 10.5351 27.4806C10.7444 27.7136 10.9569 27.9393 11.1655 28.1504C11.2003 28.186 11.2416 28.2143 11.2872 28.2337C11.3328 28.2532 11.3817 28.2633 11.4311 28.2637C11.4804 28.264 11.5293 28.2544 11.5748 28.2356C11.6203 28.2167 11.6616 28.1889 11.6963 28.1538Z" fill="white"/>
<path d="M13.69 29.3699C13.4561 29.1938 13.223 29.0084 12.9977 28.8203C12.9599 28.7882 12.9162 28.764 12.8692 28.7489C12.8221 28.7338 12.7726 28.7283 12.7236 28.7325C12.6745 28.7368 12.6269 28.7508 12.5834 28.7737C12.5399 28.7967 12.5014 28.8281 12.4702 28.8662C12.4389 28.9043 12.4155 28.9483 12.4013 28.9957C12.387 29.0431 12.3823 29.0929 12.3873 29.1423C12.3923 29.1917 12.4069 29.2397 12.4304 29.2836C12.4539 29.3274 12.4857 29.3662 12.524 29.3977C12.7593 29.5937 13.0014 29.7867 13.2443 29.9703C13.3238 30.0304 13.4235 30.0565 13.5215 30.0428C13.6196 30.029 13.7078 29.9766 13.7669 29.897C13.826 29.8174 13.8511 29.7171 13.8367 29.6183C13.8223 29.5194 13.7695 29.4301 13.69 29.3699Z" fill="white"/>
<path d="M9.88754 26.1376C9.92613 26.1074 9.95838 26.0698 9.98244 26.027C10.0065 25.9842 10.0219 25.9369 10.0278 25.8879C10.0337 25.8389 10.0299 25.7892 10.0167 25.7415C10.0035 25.6938 9.98114 25.6492 9.95087 25.6101C9.77293 25.3798 9.59309 25.1396 9.41575 24.8958C9.35697 24.8151 9.26894 24.7609 9.17102 24.7452C9.0731 24.7295 8.9733 24.7536 8.89359 24.8121C8.81388 24.8707 8.76079 24.9589 8.74598 25.0575C8.73118 25.156 8.75588 25.2567 8.81465 25.3375C8.99609 25.5868 9.18162 25.8344 9.36335 26.0696C9.39361 26.1087 9.43117 26.1415 9.47389 26.1661C9.51661 26.1906 9.56365 26.2066 9.61233 26.2129C9.66101 26.2192 9.71036 26.2158 9.75759 26.2029C9.80481 26.1899 9.84897 26.1678 9.88754 26.1376Z" fill="white"/>
<path d="M8.29744 23.9428C8.33841 23.916 8.37367 23.8813 8.40119 23.8406C8.42871 23.7999 8.44797 23.7541 8.45785 23.7058C8.46774 23.6575 8.46807 23.6077 8.45881 23.5591C8.44955 23.5105 8.4309 23.4641 8.40391 23.4227C8.24407 23.1762 8.08257 22.9222 7.92448 22.6666C7.87798 22.578 7.79856 22.5112 7.7037 22.4812C7.60883 22.4511 7.50628 22.4601 7.41862 22.5062C7.33095 22.5523 7.26534 22.6318 7.23623 22.7271C7.20711 22.8225 7.21688 22.9258 7.26338 23.0145C7.26917 23.0314 7.27638 23.0478 7.28493 23.0635C7.44522 23.3221 7.61075 23.5834 7.77468 23.8355C7.80198 23.8775 7.83725 23.9135 7.87844 23.9417C7.91964 23.9698 7.96591 23.9895 8.01458 23.9995C8.06325 24.0095 8.11334 24.0096 8.16191 23.9999C8.21047 23.9902 8.25655 23.9708 8.29744 23.9428Z" fill="white"/>
<path d="M22.3985 20.6688C22.3496 20.6654 22.3005 20.6719 22.2542 20.6876C22.2079 20.7034 22.1652 20.7283 22.1285 20.7608C22.0919 20.7933 22.062 20.8328 22.0406 20.877C22.0192 20.9213 22.0067 20.9694 22.0038 21.0187C21.9846 21.3342 21.9848 21.6508 22.0043 21.9667C22.0104 22.0663 22.0557 22.1597 22.13 22.2264C22.2043 22.293 22.3016 22.3273 22.4005 22.3219C22.4993 22.3165 22.5917 22.2716 22.6573 22.1973C22.7228 22.123 22.7561 22.0253 22.7499 21.9256C22.7322 21.6406 22.7318 21.3549 22.7487 21.0702C22.7517 21.0208 22.7451 20.9713 22.7291 20.9245C22.7132 20.8776 22.6882 20.8343 22.6557 20.797C22.6231 20.7597 22.5837 20.7292 22.5396 20.7072C22.4954 20.6852 22.4475 20.6721 22.3985 20.6688Z" fill="white"/>
<path d="M18.073 32.5918C18.1197 32.6094 18.1692 32.6174 18.2188 32.6155C18.2684 32.6135 18.3171 32.6016 18.3619 32.5805C18.4067 32.5593 18.4469 32.5293 18.4799 32.4923C18.513 32.4552 18.5383 32.4118 18.5544 32.3646C18.5705 32.3174 18.5771 32.2674 18.5738 32.2175C18.5704 32.1675 18.5573 32.1187 18.535 32.0738C18.5127 32.0289 18.4818 31.9889 18.4441 31.9561C18.4064 31.9232 18.3626 31.8983 18.3153 31.8826C18.0421 31.7856 17.7667 31.6797 17.4963 31.5666C17.4509 31.5477 17.4023 31.5378 17.3533 31.5378C17.3042 31.5377 17.2557 31.5473 17.2106 31.5661C17.1654 31.585 17.1244 31.6126 17.09 31.6474C17.0555 31.6823 17.0283 31.7237 17.0098 31.7693C16.9913 31.8149 16.982 31.8638 16.9823 31.9131C16.9826 31.9625 16.9926 32.0114 17.0116 32.0571C17.0306 32.1027 17.0584 32.1442 17.0933 32.1792C17.1281 32.2142 17.1695 32.242 17.2149 32.2609C17.4981 32.379 17.7874 32.4904 18.073 32.5918Z" fill="white"/>
<path d="M27.4922 15.556C27.1733 15.5478 26.8545 15.566 26.539 15.6103C26.4904 15.6171 26.4438 15.6336 26.4017 15.6586C26.3596 15.6837 26.323 15.7169 26.2937 15.7564C26.2645 15.7958 26.2434 15.8408 26.2315 15.8886C26.2196 15.9364 26.2172 15.9863 26.2244 16.0352C26.2297 16.0689 26.2392 16.1017 26.2528 16.133C26.286 16.2084 26.3426 16.2709 26.4141 16.3111C26.4857 16.3512 26.5681 16.3668 26.6488 16.3554C26.9242 16.3161 27.2026 16.3001 27.481 16.3075C27.5304 16.3092 27.5795 16.301 27.6255 16.2835C27.6715 16.2659 27.7136 16.2393 27.7492 16.2052C27.7848 16.1711 27.8133 16.1301 27.833 16.0847C27.8528 16.0393 27.8633 15.9904 27.8641 15.9407C27.8649 15.891 27.8559 15.8415 27.8376 15.7952C27.8193 15.7489 27.7921 15.7066 27.7576 15.6708C27.7231 15.635 27.6819 15.6064 27.6365 15.5867C27.591 15.5669 27.5422 15.5564 27.4929 15.5557L27.4922 15.556Z" fill="white"/>
<path d="M34.8336 37.5383C34.8033 37.577 34.7809 37.6214 34.7678 37.6689C34.7546 37.7164 34.7509 37.7662 34.7569 37.8153C34.7629 37.8645 34.7784 37.912 34.8026 37.9552C34.8268 37.9985 34.8592 38.0365 34.8979 38.0672C35.1297 38.2516 35.3675 38.4366 35.6101 38.627C35.6489 38.6585 35.6936 38.6819 35.7414 38.6959C35.7893 38.7099 35.8393 38.7141 35.8886 38.7083C35.938 38.7026 35.9856 38.6869 36.0287 38.6623C36.0718 38.6377 36.1095 38.6047 36.1396 38.5651C36.1697 38.5256 36.1917 38.4803 36.2041 38.4319C36.2166 38.3835 36.2193 38.3331 36.2121 38.2835C36.2049 38.2339 36.188 38.1861 36.1623 38.1431C36.1366 38.1 36.1027 38.0625 36.0625 38.0327C35.824 37.8479 35.587 37.6609 35.3578 37.4787C35.3192 37.4479 35.275 37.425 35.2278 37.4114C35.1806 37.3977 35.1312 37.3935 35.0825 37.399C35.0339 37.4046 34.9868 37.4197 34.9441 37.4436C34.9014 37.4675 34.8638 37.4997 34.8336 37.5383Z" fill="white"/>
<path d="M32.6388 20.1217C32.7529 20.3849 32.8517 20.6545 32.9348 20.9289C32.9401 20.9436 32.9464 20.9579 32.9536 20.9717C32.9884 21.0655 33.0587 21.1418 33.149 21.1839C33.2393 21.2259 33.3422 21.2303 33.4351 21.1959C33.5279 21.1616 33.6031 21.0914 33.6442 21.0008C33.6852 20.9102 33.6887 20.8066 33.6539 20.7128C33.5624 20.4103 33.4534 20.1134 33.3275 19.8235C33.2878 19.7318 33.2137 19.6595 33.1215 19.6225C33.0293 19.5854 32.9265 19.5867 32.8358 19.6259C32.7451 19.6652 32.6739 19.7393 32.6379 19.8319C32.6019 19.9245 32.6039 20.028 32.6436 20.1196L32.6388 20.1217Z" fill="white"/>
<path d="M15.9099 30.8041C15.654 30.6649 15.3972 30.5163 15.1459 30.3635C15.1039 30.3378 15.0573 30.3205 15.0088 30.3129C14.9603 30.3052 14.9109 30.3072 14.8633 30.3188C14.8158 30.3304 14.771 30.3513 14.7316 30.3804C14.6922 30.4094 14.6589 30.4461 14.6337 30.4882C14.6085 30.5303 14.5917 30.5771 14.5845 30.6259C14.5773 30.6747 14.5797 30.7245 14.5915 30.7725C14.6034 30.8205 14.6245 30.8658 14.6537 30.9057C14.6829 30.9456 14.7195 30.9794 14.7616 31.0052C15.0225 31.1652 15.2901 31.3198 15.5571 31.4657C15.6445 31.5133 15.7468 31.5242 15.8415 31.4959C15.9363 31.4676 16.0157 31.4025 16.0623 31.3149C16.1089 31.2272 16.1189 31.1242 16.09 31.0286C16.0612 30.9329 15.9959 30.8524 15.9085 30.8047L15.9099 30.8041Z" fill="white"/>
<path d="M23.0588 23.6112C23.0296 23.5156 22.964 23.4354 22.8764 23.3881C22.7889 23.3408 22.6866 23.3304 22.592 23.359C22.4974 23.3877 22.4182 23.4531 22.372 23.541C22.3258 23.6288 22.3162 23.7318 22.3454 23.8273C22.4356 24.1209 22.542 24.4181 22.663 24.7114L22.6666 24.7197C22.686 24.7652 22.7141 24.8065 22.7492 24.8412C22.7844 24.8759 22.8259 24.9033 22.8715 24.9219C22.917 24.9406 22.9657 24.95 23.0147 24.9497C23.0637 24.9494 23.1121 24.9394 23.1572 24.9202C23.2022 24.901 23.2429 24.8731 23.2771 24.8379C23.3113 24.8028 23.3382 24.7612 23.3563 24.7154C23.3744 24.6697 23.3834 24.6208 23.3827 24.5714C23.382 24.522 23.3717 24.4732 23.3523 24.4276C23.2404 24.1568 23.1434 23.8809 23.0588 23.6112Z" fill="white"/>
<path d="M31.1444 17.8775C31.1629 17.9195 31.1888 17.9577 31.2209 17.9903C31.42 18.1938 31.606 18.41 31.7777 18.6374C31.8067 18.6789 31.8437 18.7142 31.8864 18.7411C31.9291 18.768 31.9767 18.7859 32.0263 18.794C32.0759 18.802 32.1266 18.7998 32.1752 18.7876C32.2238 18.7755 32.2694 18.7535 32.3093 18.7231C32.3491 18.6927 32.3824 18.6545 32.4072 18.6107C32.4319 18.5669 32.4476 18.5185 32.4533 18.4683C32.459 18.4181 32.4546 18.3672 32.4403 18.3187C32.4261 18.2701 32.4022 18.2248 32.3703 18.1856C32.1796 17.9329 31.973 17.6928 31.7518 17.4669C31.6903 17.4036 31.6089 17.3639 31.5217 17.3548C31.4346 17.3456 31.3473 17.3676 31.275 17.4169C31.2028 17.4661 31.1503 17.5395 31.1266 17.6242C31.1029 17.7089 31.1096 17.7996 31.1456 17.8803L31.1444 17.8775Z" fill="white"/>
<path d="M28.9024 16.4102C28.923 16.4572 28.953 16.4995 28.9904 16.5346C29.0278 16.5696 29.0719 16.5966 29.1199 16.614C29.3263 16.6876 29.5277 16.7746 29.7231 16.8744L29.8838 16.96C29.9269 16.986 29.9747 17.003 30.0244 17.01C30.074 17.017 30.1244 17.0139 30.1727 17.0009C30.221 16.9878 30.2661 16.9651 30.3053 16.9341C30.3445 16.9031 30.3771 16.8644 30.4011 16.8203C30.4251 16.7762 30.4399 16.7277 30.4449 16.6775C30.4498 16.6274 30.4446 16.5767 30.4297 16.5284C30.4148 16.4802 30.3904 16.4353 30.358 16.3966C30.3256 16.3579 30.2858 16.3261 30.2411 16.3031C30.1807 16.2696 30.1197 16.2364 30.0579 16.2051C29.8342 16.0903 29.6035 15.99 29.3672 15.9051C29.2984 15.8804 29.2242 15.8766 29.1535 15.8939C29.0829 15.9112 29.0191 15.9491 28.9698 16.0027C28.9205 16.0563 28.888 16.1234 28.8763 16.1957C28.8645 16.268 28.8741 16.3423 28.9037 16.4096L28.9024 16.4102Z" fill="white"/>
<path d="M42.7054 42.6047C42.4541 42.4519 42.1974 42.2942 41.9424 42.1348C41.8579 42.0821 41.7564 42.0651 41.6601 42.0876C41.5638 42.1102 41.4807 42.1704 41.429 42.2551C41.3773 42.3397 41.3613 42.4419 41.3844 42.539C41.4076 42.6362 41.468 42.7204 41.5525 42.7732C41.8104 42.9337 42.0698 43.0936 42.3243 43.2482C42.3665 43.2742 42.4132 43.2916 42.462 43.2993C42.5107 43.3071 42.5604 43.3051 42.6081 43.2934C42.6559 43.2817 42.7009 43.2606 42.7404 43.2312C42.7799 43.2019 42.8131 43.1649 42.8383 43.1225C42.8634 43.08 42.88 43.0329 42.8869 42.9838C42.8938 42.9347 42.891 42.8847 42.8787 42.8366C42.8663 42.7884 42.8446 42.7432 42.8149 42.7034C42.7852 42.6636 42.7479 42.63 42.7054 42.6047Z" fill="white"/>
<path d="M22.7418 18.2764C22.5928 18.5587 22.4662 18.8525 22.3632 19.1551C22.3462 19.2019 22.3386 19.2518 22.3409 19.3018C22.3432 19.3518 22.3554 19.4009 22.3768 19.4462C22.3981 19.4915 22.4282 19.5322 22.4653 19.5658C22.5023 19.5993 22.5456 19.6252 22.5926 19.6418C22.6396 19.6584 22.6893 19.6655 22.7388 19.6625C22.7884 19.6595 22.8367 19.6466 22.8811 19.6246C22.9255 19.6025 22.965 19.5717 22.9973 19.534C23.0296 19.4962 23.054 19.4523 23.0692 19.4048C23.1593 19.1395 23.2703 18.882 23.4011 18.6347C23.4241 18.5913 23.4384 18.5437 23.4431 18.4946C23.4478 18.4455 23.4428 18.3958 23.4285 18.3485C23.4141 18.3011 23.3907 18.257 23.3595 18.2187C23.3283 18.1803 23.29 18.1485 23.2467 18.1249C23.2034 18.1014 23.156 18.0867 23.1072 18.0815C23.0584 18.0764 23.0091 18.081 22.9622 18.0951C22.9154 18.1092 22.8718 18.1324 22.8339 18.1635C22.7961 18.1947 22.7648 18.233 22.7418 18.2764Z" fill="white"/>
<path d="M2.8547 12.9657C2.91648 14.7871 2.72143 17.1571 2.16696 18.8013L4.35588 16.821C4.37602 16.816 4.39576 16.8095 4.41493 16.8016C4.43137 16.7937 4.44728 16.7848 4.46259 16.7749L7.42221 16.6727C5.87254 15.8808 4.08061 14.3149 2.8547 12.9657Z" fill="white"/>
</g>
<defs>
<clipPath id="clip0_4189_9583">
<rect width="52.1139" height="34.4324" fill="white" transform="translate(31.637 0.293457) rotate(66.2372)"/>
</clipPath>
</defs>
</svg>
