<svg xmlns="http://www.w3.org/2000/svg" width="138" height="138" viewBox="0 0 138 138">
  <g id="favourite-location" transform="translate(-47 -46.778)">
    <rect id="Rectangle_1" data-name="Rectangle 1" width="138" height="138" transform="translate(47 46.778)" fill="#fff" opacity="0"/>
    <g id="Group_63192" data-name="Group 63192" transform="translate(67.03 49.972)">
      <circle id="Ellipse_3381" data-name="Ellipse 3381" cx="22.608" cy="22.608" r="22.608" transform="translate(26.732 25.95)" fill="#e2037f"/>
      <g id="Group_62211" data-name="Group 62211" transform="translate(0)">
        <path id="Path_70213" data-name="Path 70213" d="M563.331,1140.939v1.012c-.587,4.829-.776,9.747-1.826,14.474-6.113,27.508-21.257,48.666-45.247,63.475h-2.024c-9.522-6.351-18.433-13.4-25.963-22.11-10.543-12.2-18.417-25.78-21.733-41.692-.969-4.646-1.29-9.428-1.907-14.147v-1.012c.193-2.244.275-4.506.6-6.732,2.966-20.534,14.683-34.109,33.659-41.606,4.216-1.666,8.871-2.222,13.323-3.29H519.3c1.229.2,2.47.342,3.685.608,19.981,4.382,32.911,16.357,38.226,36.134C562.5,1130.859,562.654,1135.969,563.331,1140.939Zm-48,71.382c.735-.478,1.371-.872,1.988-1.295a89.117,89.117,0,0,0,30.214-34.948c7.067-14.5,10.711-29.674,7.69-45.912-4.6-24.7-30.274-41.2-55.3-30.66-18.156,7.649-28.181,22.74-28.214,42.375a64.734,64.734,0,0,0,5.235,24.992C484.852,1186,498.228,1200.575,515.331,1212.321Z" transform="translate(-464.63 -1089.31)" fill="#001968"/>
        <path id="Path_70214" data-name="Path 70214" d="M562.74,1157.955c.275,15.96-13.052,29.662-28.683,30.36a30.633,30.633,0,0,1-32.029-30.429c-.171-16.2,13.669-30.39,30.18-30.3A30.152,30.152,0,0,1,562.74,1157.955Zm-31.073,18.02c3.474-3.225,6.726-5.93,9.594-8.994a68.427,68.427,0,0,0,7.712-9.6,9.327,9.327,0,0,0-2.786-12.687c-4.113-2.894-8.773-2.224-12.364,1.774-.485.54-.981,1.07-1.488,1.621-1.245-1.132-2.3-2.22-3.481-3.14a8.589,8.589,0,0,0-9.686-.871c-3.373,1.671-5.188,4.7-4.525,8.244a21.844,21.844,0,0,0,3.812,9.353C522.559,1166.852,527.4,1171.439,531.667,1175.976Z" transform="translate(-483.095 -1108.212)" fill="#001968"/>
      </g>
    </g>
  </g>
</svg>
