<svg xmlns="http://www.w3.org/2000/svg" width="138" height="138" viewBox="0 0 138 138">
  <g id="get-location" transform="translate(-47 -46.778)">
    <rect id="Rectangle_1" data-name="Rectangle 1" width="138" height="138" transform="translate(47 46.778)" fill="#fff" opacity="0"/>
    <g id="Group_62321" data-name="Group 62321" transform="translate(441.153 -947.174)">
      <path id="Path_70673" data-name="Path 70673" d="M-328.923,1066.685c-2.7-.237-5.354-.479-8.005-.7q-16.473-1.378-32.946-2.747-2.028-.168-4.057-.321a4.15,4.15,0,0,1-4.036-3.4,4.1,4.1,0,0,1,2.581-4.477q15.464-7.092,30.938-14.162,32.963-15.078,65.912-30.187c3.076-1.417,5.845.156,6.215,2.561a5.91,5.91,0,0,1-.508,3.157q-8.26,18.185-16.637,36.317-13.733,29.906-27.468,59.812c-.159.346-.314.694-.5,1.025a4.093,4.093,0,0,1-4.261,2.12,4.049,4.049,0,0,1-3.368-3.651c-.62-7.123-1.206-14.249-1.8-21.373q-.941-11.32-1.874-22.641C-328.77,1067.606-328.85,1067.2-328.923,1066.685Z" transform="translate(0 0)" fill="#4d4d4d"/>
    </g>
  </g>
</svg>
