<svg width="13" height="13" viewBox="0 0 13 13" fill="none" xmlns="http://www.w3.org/2000/svg">
<path d="M6.49837 3.29323e-07C10.0841 -0.00113089 12.9989 2.91219 13 6.49844C13.0012 10.0841 10.0879 12.9989 6.50156 13C2.91587 13.0011 0.00113159 10.0878 3.71766e-07 6.50156C-0.00120155 2.91587 2.91212 0.00113155 6.49837 3.29323e-07ZM1.82975 3.16926C1.1991 4.04454 0.857608 5.02531 0.774463 6.11213H3.04603C3.13249 5.30289 3.21684 4.51315 3.3009 3.72681C2.82381 3.54596 2.3347 3.36072 1.82975 3.16926ZM9.69917 3.72653C9.78464 4.52644 9.86913 5.31561 9.95418 6.11114H12.2277C12.136 5.01555 11.7993 4.03295 11.1688 3.17011C10.6577 3.36369 10.1737 3.54695 9.69917 3.72653ZM3.30083 9.27234C3.21592 8.47808 3.13101 7.6834 3.04553 6.88391H0.790866C0.733527 7.64791 1.32572 9.28408 1.84644 9.82395C2.33816 9.63758 2.82749 9.45192 3.30083 9.27234ZM12.2142 6.88249H9.95496C9.86842 7.69033 9.78344 8.48487 9.69895 9.27319C10.1797 9.45503 10.6688 9.64013 11.1578 9.82508C11.6995 9.21041 12.2361 7.72879 12.2142 6.88249ZM6.11892 4.19924C5.42993 4.1127 4.75205 4.02757 4.03309 3.93708C3.96161 4.65328 3.88956 5.37557 3.81618 6.11072H6.11892V4.19924ZM9.18658 6.11963C9.1098 5.36736 9.03563 4.64084 8.96387 3.93764C8.23607 4.02899 7.56172 4.11341 6.88589 4.19811V6.11963H9.18658ZM3.81321 6.88037C3.8902 7.63348 3.96437 8.35959 4.0362 9.06208C4.76506 8.97087 5.43934 8.88659 6.11362 8.80232V6.88037H3.81321ZM9.18517 6.88391H6.88299V8.80218C7.57021 8.88744 8.24427 8.97115 8.96373 9.06052C9.03556 8.35478 9.10952 7.6274 9.18517 6.88391ZM6.11814 0.743213C5.73225 0.819712 5.36574 0.890696 5.00049 0.967336C4.96826 0.974124 4.92951 1.01329 4.91806 1.04581C4.67393 1.74067 4.43333 2.43665 4.17258 3.18863C4.8627 3.2763 5.48473 3.35535 6.11814 3.4358V0.743213ZM8.82721 3.18722C8.57049 2.44796 8.3359 1.76867 8.0963 1.09106C8.07862 1.04072 8.03118 0.974124 7.98678 0.964367C7.6274 0.885606 7.26548 0.818722 6.88384 0.744061V3.4375C7.52347 3.35506 8.14664 3.27489 8.82721 3.18722ZM6.11786 12.2533V9.56264C5.47773 9.6448 4.85464 9.72483 4.17265 9.81236C4.42887 10.5503 4.6629 11.2296 4.90328 11.9067C4.92279 11.9618 4.97886 12.0325 5.02934 12.0434C5.38299 12.1198 5.73961 12.1821 6.11786 12.2533ZM6.88292 12.2401C7.14324 12.2011 7.3866 12.1475 7.63242 12.1316C7.97271 12.11 8.13016 11.9273 8.22285 11.6143C8.39734 11.025 8.6028 10.445 8.81243 9.80953C8.13447 9.72342 7.5128 9.64465 6.88292 9.56476V12.2401ZM3.96748 1.3552C3.34156 1.6612 2.81794 2.05062 2.34057 2.55727C2.73169 2.70178 3.1004 2.83809 3.47589 2.97681C3.64253 2.42718 3.79977 1.90837 3.96748 1.3552ZM9.02998 1.35181C9.20235 1.91742 9.3615 2.43976 9.52595 2.97921C9.90901 2.83611 10.2726 2.70037 10.6578 2.55656C10.1845 2.04907 9.65844 1.66431 9.02998 1.35181ZM3.47511 10.0206C3.09191 10.1635 2.72844 10.2992 2.3593 10.4371C2.66275 10.8495 3.61927 11.5444 3.95631 11.6058C3.799 11.0877 3.64169 10.5694 3.47511 10.0206ZM9.52552 10.0204C9.36051 10.5639 9.20136 11.0878 9.03196 11.6459C9.65802 11.3374 10.1826 10.9501 10.6579 10.4436C10.275 10.3005 9.91594 10.1664 9.52552 10.0204Z" fill="white"/>
</svg>
