<svg width="50" height="48" viewBox="0 0 50 48" fill="none" xmlns="http://www.w3.org/2000/svg">
<g clip-path="url(#clip0_4189_9537)">
<path d="M41.6195 13.1419C41.5945 13.0384 41.5295 12.9488 41.4388 12.8927C41.3481 12.8366 41.2392 12.8186 41.136 12.8428C40.823 12.9171 40.5103 12.9929 40.1978 13.0703C40.1468 13.083 40.0989 13.1056 40.0568 13.1368C40.0147 13.1681 39.9793 13.2074 39.9524 13.2525C39.9256 13.2976 39.908 13.3476 39.9006 13.3997C39.8931 13.4518 39.896 13.5049 39.9091 13.5561C39.9222 13.6072 39.9451 13.6553 39.9767 13.6978C40.0083 13.7402 40.0479 13.776 40.0932 13.8032C40.1385 13.8304 40.1886 13.8485 40.2407 13.8564C40.2928 13.8643 40.3459 13.8618 40.3969 13.8492C40.7062 13.7724 41.0163 13.6972 41.327 13.6235C41.3915 13.6083 41.4509 13.5772 41.5 13.5329C41.5533 13.4849 41.5926 13.4232 41.6136 13.3543C41.6346 13.2855 41.6367 13.2121 41.6195 13.1419Z" fill="white"/>
<path d="M2.45427 33.3151C2.377 33.3874 2.33186 33.4878 2.32879 33.594C2.32571 33.7003 2.36496 33.8038 2.43788 33.8818C2.51081 33.9597 2.61145 34.0058 2.71765 34.0098C2.82386 34.0137 2.92694 33.9753 3.00421 33.903L3.01608 33.8923C3.2413 33.6726 3.47525 33.4482 3.70251 33.2331C3.74056 33.197 3.77108 33.1538 3.79232 33.1058C3.81357 33.0578 3.82513 33.006 3.82633 32.9533C3.82754 32.9007 3.81837 32.8483 3.79936 32.799C3.78034 32.7497 3.75185 32.7046 3.7155 32.6662C3.67916 32.6278 3.63568 32.5969 3.58754 32.5752C3.5394 32.5536 3.48755 32.5416 3.43495 32.5399C3.38235 32.5382 3.33002 32.547 3.28096 32.5656C3.2319 32.5842 3.18706 32.6123 3.14901 32.6484C2.91291 32.8704 2.68305 33.0921 2.45427 33.3151Z" fill="white"/>
<path d="M24.2058 19.5451C24.4941 19.4115 24.7833 19.2792 25.0734 19.1483C25.1103 19.1313 25.1444 19.109 25.1748 19.0821C25.2459 19.0185 25.2917 18.9312 25.3038 18.8363C25.3159 18.7413 25.2935 18.6448 25.2408 18.5643C25.188 18.4838 25.1084 18.4247 25.0163 18.3976C24.9242 18.3706 24.8257 18.3773 24.7387 18.4167C24.4459 18.5486 24.1542 18.682 23.8636 18.817C23.7675 18.8617 23.6934 18.9428 23.6575 19.0426C23.6217 19.1424 23.627 19.2527 23.6724 19.3493C23.7178 19.4458 23.7995 19.5207 23.8995 19.5574C23.9995 19.5942 24.1097 19.5897 24.2058 19.5451Z" fill="white"/>
<path d="M1.09448 34.6814C0.872697 34.9122 0.647833 35.1479 0.432893 35.3779C0.357191 35.452 0.314245 35.5533 0.313506 35.6598C0.312767 35.7662 0.354295 35.8689 0.428952 35.9453C0.50361 36.0217 0.605285 36.0655 0.711606 36.0672C0.817926 36.0688 0.920186 36.0281 0.995889 35.9541L1.02141 35.9311C1.23635 35.7011 1.45705 35.4692 1.677 35.2411C1.75071 35.1648 1.79086 35.0621 1.78863 34.9555C1.7864 34.8489 1.74196 34.7473 1.6651 34.6728C1.58824 34.5984 1.48525 34.5573 1.37878 34.5587C1.27231 34.56 1.17109 34.6036 1.09739 34.6799L1.09448 34.6814Z" fill="white"/>
<path d="M22.6629 19.8304C22.6154 19.735 22.5323 19.662 22.4316 19.6275C22.331 19.593 22.2211 19.5997 22.1261 19.6462C21.8382 19.7875 21.5511 19.9305 21.2648 20.0752C21.218 20.0988 21.1764 20.1315 21.1423 20.1713C21.1082 20.2111 21.0824 20.2574 21.0662 20.3074C21.0501 20.3573 21.0439 20.4101 21.0482 20.4626C21.0524 20.5152 21.067 20.5664 21.091 20.6135C21.115 20.6606 21.148 20.7026 21.1881 20.737C21.2281 20.7715 21.2746 20.7977 21.3246 20.8143C21.3747 20.8309 21.4275 20.8375 21.4799 20.8337C21.5324 20.8299 21.5835 20.8157 21.6303 20.7921C21.9142 20.648 22.1988 20.5062 22.484 20.3667C22.5165 20.3503 22.5467 20.3298 22.5738 20.3055C22.6385 20.2473 22.6822 20.1694 22.6982 20.0836C22.7143 19.9978 22.7019 19.9089 22.6629 19.8304Z" fill="white"/>
<path d="M33.2012 15.9191C33.2708 15.8581 33.3169 15.7746 33.3316 15.6828C33.3462 15.5911 33.3284 15.4968 33.2813 15.4162C33.2342 15.3356 33.1607 15.2736 33.0734 15.241C32.9861 15.2083 32.8904 15.207 32.8028 15.2372C32.4985 15.3404 32.1952 15.4453 31.8926 15.552C31.8423 15.5687 31.7958 15.5953 31.756 15.6302C31.7161 15.6651 31.6837 15.7077 31.6606 15.7555C31.6375 15.8032 31.6241 15.8551 31.6214 15.9083C31.6186 15.9614 31.6264 16.0147 31.6443 16.0649C31.6623 16.1152 31.69 16.1614 31.726 16.201C31.7619 16.2406 31.8052 16.2726 31.8535 16.2953C31.9018 16.3181 31.9541 16.331 32.0072 16.3333C32.0604 16.3356 32.1134 16.3273 32.1631 16.3089C32.4641 16.2029 32.7645 16.0994 33.0645 15.9986C33.115 15.9817 33.1615 15.9546 33.2012 15.9191Z" fill="white"/>
<path d="M27.3899 17.2717C27.0934 17.3939 26.7974 17.5178 26.5019 17.6434C26.4044 17.6849 26.3277 17.7635 26.2886 17.8621C26.2495 17.9606 26.2513 18.071 26.2935 18.169C26.3357 18.2669 26.4149 18.3444 26.5138 18.3844C26.6126 18.4243 26.7228 18.4235 26.8204 18.3821C27.1132 18.2574 27.4068 18.1345 27.7014 18.0133C27.7993 17.9728 27.8768 17.8949 27.9168 17.7967C27.9568 17.6985 27.9561 17.5881 27.9148 17.4897C27.8735 17.3914 27.795 17.3132 27.6965 17.2723C27.5981 17.2314 27.4878 17.2311 27.3899 17.2717Z" fill="white"/>
<path d="M30.5961 16.4481C30.5581 16.3485 30.4823 16.2678 30.3853 16.2237C30.2883 16.1795 30.178 16.1756 30.0789 16.2128C29.7783 16.3257 29.4782 16.4403 29.1787 16.5567C29.1297 16.5756 29.0851 16.6041 29.0473 16.6404C29.0096 16.6767 28.9794 16.7201 28.9585 16.7683C28.9376 16.8164 28.9264 16.8682 28.9255 16.9209C28.9247 16.9735 28.9342 17.0259 28.9536 17.075C28.9729 17.1241 29.0017 17.169 29.0383 17.2071C29.0749 17.2453 29.1186 17.2759 29.1669 17.2972C29.2151 17.3185 29.267 17.3302 29.3196 17.3315C29.3722 17.3328 29.4245 17.3237 29.4734 17.3047C29.7703 17.1894 30.0677 17.0757 30.3655 16.9638C30.4647 16.9266 30.5447 16.8514 30.5879 16.7547C30.6312 16.6579 30.6341 16.5477 30.5961 16.4481Z" fill="white"/>
<path d="M37.1292 14.3049C37.1439 14.3556 37.1683 14.403 37.2012 14.4444C37.2341 14.4858 37.2747 14.5204 37.3208 14.5462C37.367 14.572 37.4176 14.5885 37.4699 14.5948C37.5222 14.601 37.5752 14.5969 37.6257 14.5826C37.9329 14.4962 38.2402 14.4112 38.5477 14.3274C38.5987 14.3141 38.6465 14.2907 38.6883 14.2587C38.7301 14.2266 38.7651 14.1866 38.7912 14.1408C38.8174 14.0951 38.8342 14.0445 38.8406 13.992C38.8471 13.9396 38.8431 13.8863 38.8289 13.8352C38.8147 13.7841 38.7906 13.7363 38.7579 13.6944C38.7252 13.6525 38.6846 13.6175 38.6385 13.5913C38.5923 13.5651 38.5416 13.5482 38.489 13.5417C38.4365 13.5352 38.3833 13.5391 38.3325 13.5533C38.022 13.6376 37.712 13.7233 37.4025 13.8103C37.352 13.8245 37.3048 13.8486 37.2637 13.8811C37.2226 13.9137 37.1884 13.9541 37.163 14C37.1376 14.0459 37.1216 14.0965 37.1158 14.1488C37.11 14.2011 37.1146 14.2541 37.1292 14.3049Z" fill="white"/>
<path d="M9.50895 28.319C9.76053 28.1285 10.0167 27.9372 10.271 27.7498L10.3001 27.7236C10.3821 27.6566 10.4339 27.5595 10.4441 27.4536C10.4543 27.3478 10.422 27.2418 10.3543 27.1591C10.2867 27.0764 10.1892 27.0237 10.0834 27.0126C9.9775 27.0016 9.87193 27.033 9.78988 27.1C9.53204 27.2906 9.27474 27.4819 9.0196 27.6755C8.93498 27.7397 8.87957 27.835 8.86557 27.9407C8.85157 28.0463 8.88012 28.1536 8.94494 28.2388C9.00976 28.3241 9.10554 28.3803 9.21121 28.3953C9.31688 28.4102 9.42379 28.3825 9.50841 28.3184L9.50895 28.319Z" fill="white"/>
<path d="M12.1471 25.4345C11.8806 25.6156 11.6153 25.7979 11.3521 25.9825C11.2653 26.0432 11.2064 26.136 11.1884 26.2407C11.1704 26.3454 11.1948 26.4533 11.2561 26.5406C11.3174 26.628 11.4107 26.6877 11.5154 26.7066C11.6202 26.7256 11.7278 26.7021 11.8146 26.6415C12.073 26.4611 12.3366 26.2804 12.5984 26.1013C12.6841 26.0411 12.7424 25.9493 12.7607 25.8457C12.779 25.7422 12.7558 25.6353 12.6961 25.5481C12.6365 25.4609 12.5452 25.4004 12.4419 25.3796C12.3386 25.3589 12.2316 25.3796 12.1441 25.4372L12.1471 25.4345Z" fill="white"/>
<path d="M35.9412 15.0363C36.0089 14.9755 36.0537 14.8932 36.068 14.8031C36.0824 14.7129 36.0655 14.6203 36.0201 14.5406C35.9747 14.4608 35.9036 14.3988 35.8186 14.3647C35.7336 14.3306 35.6397 14.3266 35.5525 14.3532C35.2453 14.4468 34.9381 14.5426 34.6307 14.6407C34.58 14.6561 34.533 14.6813 34.4924 14.7151C34.4518 14.7488 34.4183 14.7903 34.3939 14.8372C34.3695 14.8842 34.3547 14.9355 34.3504 14.9884C34.3461 15.0412 34.3523 15.0945 34.3687 15.1451C34.385 15.1957 34.4113 15.2427 34.4458 15.2832C34.4804 15.3238 34.5225 15.3571 34.5699 15.3813C34.6173 15.4055 34.669 15.4201 34.7219 15.4242C34.7747 15.4284 34.8278 15.422 34.8781 15.4054C35.1823 15.3094 35.4872 15.2156 35.7928 15.1242C35.8481 15.106 35.8987 15.076 35.9412 15.0363Z" fill="white"/>
<path d="M17.0341 22.3651C16.7591 22.5247 16.4793 22.6885 16.2046 22.8521C16.1159 22.9072 16.0526 22.9952 16.0284 23.0971C16.0041 23.199 16.0209 23.3067 16.075 23.3971C16.1291 23.4874 16.2163 23.5532 16.3178 23.5804C16.4193 23.6075 16.5271 23.5938 16.6179 23.5422C16.8908 23.3803 17.1671 23.2185 17.4392 23.0605C17.4625 23.047 17.4843 23.0314 17.5045 23.0137C17.5782 22.9476 17.6244 22.8563 17.6343 22.7575C17.6442 22.6586 17.617 22.5593 17.558 22.4788C17.4991 22.3983 17.4125 22.3424 17.3151 22.3219C17.2178 22.3013 17.1166 22.3177 17.0312 22.3677L17.0341 22.3651Z" fill="white"/>
<path d="M7.26807 30.0864C7.51045 29.887 7.7592 29.685 8.00605 29.4869L8.02326 29.4715C8.06322 29.4375 8.09604 29.396 8.11985 29.3492C8.14367 29.3025 8.158 29.2514 8.16205 29.1989C8.16609 29.1464 8.15976 29.0936 8.14342 29.0434C8.12708 28.9932 8.10105 28.9466 8.06681 28.9063C8.03257 28.8661 7.99079 28.8328 7.94387 28.8086C7.89695 28.7844 7.84579 28.7696 7.79333 28.7651C7.74086 28.7606 7.68812 28.7665 7.6381 28.7824C7.58808 28.7983 7.54177 28.824 7.50181 28.8579C7.25205 29.0576 7.0039 29.259 6.75736 29.4622C6.71684 29.4955 6.68333 29.5365 6.65876 29.5829C6.63418 29.6293 6.61902 29.6802 6.61414 29.7326C6.60926 29.785 6.61474 29.838 6.63029 29.8885C6.64584 29.9389 6.67115 29.9859 6.70476 30.0268C6.73838 30.0676 6.77965 30.1015 6.82621 30.1265C6.87278 30.1515 6.92372 30.1671 6.97615 30.1724C7.02857 30.1778 7.08144 30.1727 7.13174 30.1576C7.18205 30.1425 7.2288 30.1175 7.26932 30.0842L7.26807 30.0864Z" fill="white"/>
<path d="M19.5567 20.9623C19.272 21.11 18.9903 21.2669 18.7105 21.4199C18.6177 21.4708 18.5491 21.5567 18.52 21.6587C18.4908 21.7607 18.5035 21.8705 18.5551 21.9639C18.6067 22.0572 18.6931 22.1266 18.7953 22.1566C18.8975 22.1867 19.007 22.1749 19.0999 22.1241C19.3774 21.972 19.6595 21.8191 19.9379 21.6705C19.9663 21.6556 19.9927 21.6373 20.0166 21.616C20.0895 21.5509 20.1358 21.461 20.1466 21.3635C20.1574 21.266 20.1321 21.1676 20.0753 21.0869C20.0186 21.0063 19.9345 20.9491 19.8389 20.9261C19.7433 20.9031 19.6429 20.916 19.5567 20.9623Z" fill="white"/>
<path d="M5.10182 31.9439C5.33921 31.7305 5.5766 31.5171 5.81457 31.3151L5.81991 31.3103C5.89918 31.2402 5.94711 31.1412 5.95315 31.0351C5.9592 30.929 5.92286 30.8245 5.85213 30.7446C5.78141 30.6646 5.6821 30.6158 5.57603 30.6089C5.46997 30.6019 5.36586 30.6374 5.28659 30.7075C5.04543 30.9167 4.80287 31.1315 4.56553 31.3437C4.48684 31.4145 4.4397 31.5139 4.43451 31.62C4.42931 31.7262 4.46648 31.8304 4.53783 31.9098C4.60919 31.9891 4.70888 32.0372 4.81498 32.0433C4.92108 32.0494 5.0249 32.0131 5.1036 31.9423L5.10182 31.9439Z" fill="white"/>
<path d="M43.194 13.2007C43.5082 13.1348 43.8205 13.0705 44.1329 13.0061C44.1868 12.9983 44.2385 12.9795 44.2848 12.9508C44.331 12.9222 44.3709 12.8843 44.4018 12.8396C44.4328 12.7949 44.4543 12.7442 44.4649 12.6907C44.4755 12.6372 44.475 12.5819 44.4636 12.5284C44.4521 12.4749 44.4298 12.4242 44.3981 12.3794C44.3664 12.3347 44.326 12.2968 44.2793 12.2681C44.2325 12.2394 44.1805 12.2206 44.1265 12.2127C44.0724 12.2048 44.0173 12.208 43.9647 12.2222C43.651 12.2878 43.3364 12.3541 43.0211 12.4211C42.9696 12.4319 42.9208 12.4527 42.8775 12.4825C42.8341 12.5122 42.7972 12.5502 42.7687 12.5944C42.7402 12.6386 42.7207 12.688 42.7113 12.7399C42.702 12.7917 42.7029 12.845 42.7142 12.8967C42.7254 12.9483 42.7466 12.9974 42.7767 13.041C42.8068 13.0846 42.8451 13.1219 42.8895 13.1508C42.9339 13.1797 42.9834 13.1997 43.0353 13.2095C43.0872 13.2193 43.1404 13.2188 43.192 13.208L43.194 13.2007Z" fill="white"/>
<path d="M14.5624 23.8553C14.2931 24.0249 14.0208 24.1982 13.7491 24.3699C13.6602 24.4273 13.5979 24.518 13.5762 24.6219C13.5544 24.7258 13.5748 24.8345 13.6329 24.924C13.6911 25.0136 13.7822 25.0766 13.8862 25.0993C13.9902 25.122 14.0986 25.1025 14.1876 25.0451C14.4541 24.8737 14.7241 24.7013 14.9931 24.5374C15.0125 24.5251 15.0309 24.5112 15.0479 24.4957C15.1224 24.4289 15.1689 24.3363 15.1781 24.2362C15.1873 24.1362 15.1586 24.036 15.0976 23.9555C15.0366 23.8751 14.9479 23.8203 14.8489 23.8019C14.75 23.7836 14.6481 23.8031 14.5635 23.8565L14.5624 23.8553Z" fill="white"/>
<path d="M49.8876 11.6276C47.9811 11.2471 45.5633 10.4638 43.9828 9.4754L45.5357 12.2462C45.5354 12.2707 45.5376 12.2952 45.5423 12.3192C45.5467 12.3415 45.5531 12.3633 45.5612 12.3845L44.9923 15.5009C46.1684 14.0757 48.2051 12.5826 49.8876 11.6276Z" fill="white"/>
</g>
<defs>
<clipPath id="clip0_4189_9537">
<rect width="53.0247" height="15.6355" fill="white" transform="translate(0 35.4478) rotate(-41.9525)"/>
</clipPath>
</defs>
</svg>
