<svg xmlns="http://www.w3.org/2000/svg" width="131" height="131" viewBox="0 0 131 131">
  <g id="Group_65306" data-name="Group 65306" transform="translate(-157 -333)">
    <circle id="Ellipse_3344" data-name="Ellipse 3344" cx="65.5" cy="65.5" r="65.5" transform="translate(157 333)" fill="#2fa504"/>
    <g id="Group_65305" data-name="Group 65305" transform="translate(192.235 377.464)">
      <path id="Path_74249" data-name="Path 74249" d="M110.282,114.448a6.923,6.923,0,0,1-2.2,3.5q-15.847,15.815-31.665,31.658a4.57,4.57,0,0,1-5.029,1.363,5.419,5.419,0,0,1-1.948-1.233q-8.095-8.018-16.125-16.1a4.606,4.606,0,0,1,.371-7.136,4.669,4.669,0,0,1,6.254.652q6.207,6.191,12.4,12.4a5.727,5.727,0,0,1,.489.7,6.831,6.831,0,0,1,.492-.665q14.393-14.4,28.79-28.8a4.616,4.616,0,0,1,4.933-1.373,4.508,4.508,0,0,1,3.128,3.4c.033.126.077.249.116.374Z" transform="translate(-51.796 -109.178)" fill="#fff"/>
    </g>
  </g>
</svg>
