<svg xmlns="http://www.w3.org/2000/svg" width="139" height="139" viewBox="0 0 139 139">
  <g id="Group_62209" data-name="Group 62209" transform="translate(-335 -136)">
    <circle id="Ellipse_3380" data-name="Ellipse 3380" cx="69.5" cy="69.5" r="69.5" transform="translate(335 136)" fill="#eef2ff"/>
    <g id="Group_62207" data-name="Group 62207" transform="translate(372.186 163.281)">
      <path id="Path_70211" data-name="Path 70211" d="M532.346,1124.731v.694c-.4,3.313-.532,6.688-1.253,9.931-4.194,18.873-14.583,33.388-31.043,43.547h-1.389a86.486,86.486,0,0,1-17.812-15.168c-7.233-8.367-12.635-17.687-14.911-28.6-.665-3.188-.885-6.469-1.309-9.707v-.694c.133-1.541.189-3.092.41-4.619,2.034-14.087,10.073-23.4,23.092-28.545,2.893-1.143,6.086-1.524,9.141-2.257h4.862c.844.138,1.7.235,2.528.418,13.709,3.006,22.58,11.222,26.226,24.791C531.774,1117.815,531.881,1121.321,532.346,1124.731ZM499.414,1173.7c.5-.328.941-.6,1.364-.889a61.136,61.136,0,0,0,20.729-23.978c4.848-9.949,7.348-20.358,5.276-31.5-3.154-16.95-20.77-28.265-37.937-21.034-12.457,5.247-19.334,15.6-19.357,29.071a44.413,44.413,0,0,0,3.592,17.147C478.5,1155.648,487.68,1165.646,499.414,1173.7Z" transform="translate(-464.63 -1089.31)" fill="#001968"/>
      <path id="Path_70212" data-name="Path 70212" d="M543.679,1148.423c.188,10.949-8.954,20.35-19.678,20.829a20.846,20.846,0,1,1-1.269-41.661A20.687,20.687,0,0,1,543.679,1148.423Zm-21.318,12.363c2.383-2.211,4.615-4.069,6.582-6.171a46.86,46.86,0,0,0,5.291-6.583,6.4,6.4,0,0,0-1.911-8.7c-2.822-1.986-6.019-1.525-8.482,1.217-.333.372-.673.734-1.021,1.113-.854-.776-1.576-1.523-2.388-2.153a5.89,5.89,0,0,0-6.645-.6,5.125,5.125,0,0,0-3.1,5.656,14.982,14.982,0,0,0,2.615,6.416C516.113,1154.525,519.436,1157.672,522.362,1160.786Z" transform="translate(-489.038 -1114.295)" fill="#001968"/>
    </g>
  </g>
</svg>
