<svg xmlns="http://www.w3.org/2000/svg" width="100" height="100" viewBox="0 0 100 100">
  <g id="like-icon" transform="translate(6137 3259)">
    <g id="Rectangle_12142" data-name="Rectangle 12142" transform="translate(-6137 -3259)" fill="#fff" stroke="#707070" stroke-width="1" opacity="0">
      <rect width="100" height="100" stroke="none"/>
      <rect x="0.5" y="0.5" width="99" height="99" fill="none"/>
    </g>
    <g id="Group_62893" data-name="Group 62893" transform="translate(-5934.654 -3333.225)">
      <path id="Path_70842" data-name="Path 70842" d="M-171.628,112.263a55.712,55.712,0,0,0-7.5,5.968c-3.418,3.026-7.1,5.75-10.69,8.568l-2.342,1.837s-17.006-25.914,8.5-39.276c0,0,12.957-6.074,26.319,10.123l13.362,15.791s2.834,3.239-1.215,6.478c0,0-2.834,4.454-8.1,1.215q-3.607-3.388-7.218-6.774-1.866-1.753-3.728-3.509c-.764-.721-1.84-2.272-3-2.295a3.608,3.608,0,0,0-1.42.347A20.8,20.8,0,0,0-171.628,112.263Z" transform="translate(0 0)" fill="none" stroke="#001968" stroke-width="5"/>
      <path id="Path_70843" data-name="Path 70843" d="M-151.294,156.312l-22.674,19.03s-2.834,3.239-6.883-2.834c0,0-2.834-4.049,0-5.669l21.055-16.6s.81-.81,1.215-.4Z" transform="translate(-9.285 -36.584)" fill="none" stroke="#001968" stroke-width="5"/>
      <path id="Path_70844" data-name="Path 70844" d="M-89.078,129.863c-14.981,21.055-34.417,27.533-34.417,27.533-5.264,2.834-8.1,2.834-8.1,2.834-4.624-1.156-2.28-3.045-2.043-3.225,3.027-2.3,5.911-4.81,8.857-7.208,2.657-2.163,6.839-4.49,8.736-7.334.324-.486.7-.915.517-1.55-.443-1.5-1.914-.761-2.7-.118l-17.411,14.172c-3.644,3.644-8.1.4-8.1.4-5.669-2.429-2.43-5.669-2.43-5.669l18.627-15.793c.464-.4,1.075-1.35.826-1.97-.579-1.445-2.462-.145-3.141.43l-17.306,14.66a9.471,9.471,0,0,1-4.113,2.421c-2.329.447-4.654-.922-6.274-2.654-1.124-1.2-2.077-2.9-1.476-4.43a5.216,5.216,0,0,1,1.568-1.886l21.444-18.741c-.6.526,5.6,4.65,6.439,4.849a10.351,10.351,0,0,0,10.1-3.458,8.312,8.312,0,0,0,.438-9.148c-2.4-3.7-5.717-7.017-8.5-10.437,19.435-24.294,35.227-10.932,35.227-10.932C-74.1,107.593-89.078,129.863-89.078,129.863Z" transform="translate(-22.912 -0.417)" fill="none" stroke="#001968" stroke-width="5"/>
    </g>
  </g>
</svg>
