<svg width="34" height="34" viewBox="0 0 34 34" fill="none" xmlns="http://www.w3.org/2000/svg">
<circle cx="17" cy="17" r="17" fill="#EEF2FF"/>
<path d="M24.4016 14.8795V15.0365C24.3105 15.7858 24.2812 16.5489 24.1183 17.2822C23.1699 21.5502 20.8203 24.8328 17.0981 27.1304H16.7841C15.3068 26.145 13.9242 25.0518 12.7559 23.7001C11.1201 21.8079 9.8985 19.7004 9.38385 17.2316C9.23358 16.5107 9.18372 15.7688 9.08789 15.0365V14.8795C9.11798 14.531 9.13074 14.1803 9.1806 13.835C9.64069 10.6492 11.4586 8.54284 14.4028 7.37963C15.0569 7.12121 15.7791 7.03478 16.4699 6.86913H17.5694C17.7601 6.90026 17.9526 6.92236 18.1411 6.96362C21.2411 7.64342 23.2473 9.50146 24.0719 12.5699C24.2723 13.3154 24.2964 14.1083 24.4016 14.8795ZM16.9542 25.9546C17.0681 25.8805 17.1669 25.8191 17.2626 25.7535C19.2999 24.3568 20.8705 22.5471 21.9503 20.3312C23.0466 18.0812 23.6121 15.7273 23.1433 13.208C22.4301 9.37487 18.4463 6.81591 14.5641 8.45129C11.7471 9.63781 10.1918 11.9795 10.1866 15.0256C10.1844 16.3777 10.4877 17.6664 10.9988 18.9033C12.2253 21.8712 14.3007 24.1323 16.9542 25.9546Z" fill="#001968"/>
<circle cx="17" cy="15" r="5" fill="#C80880"/>
<path d="M22.0144 14.8739C22.0621 17.6483 19.7453 20.0306 17.0277 20.1519C14.1797 20.2791 11.4931 18.0748 11.4593 14.8619C11.4296 12.0448 13.8357 9.57844 16.7062 9.5948C19.8926 9.61311 22.0555 12.1602 22.0144 14.8739ZM16.6123 18.0064C17.2163 17.4461 17.7816 16.9754 18.2802 16.4429C18.7669 15.9232 19.2372 15.3721 19.6211 14.7745C20.1017 14.0262 19.852 13.0719 19.1366 12.5689C18.4215 12.0657 17.6115 12.1824 16.9871 12.877C16.9028 12.9715 16.8165 13.0633 16.7284 13.1593C16.512 12.9625 16.329 12.7733 16.1233 12.6136C15.5983 12.2049 15.0225 12.1732 14.4394 12.462C13.853 12.7525 13.5374 13.2794 13.6527 13.8951C13.7591 14.4632 13.9637 15.0777 14.3154 15.5211C15.0288 16.4202 15.8708 17.2176 16.6123 18.0064Z" fill="#001968"/>
</svg>
