<svg width="10" height="59" viewBox="0 0 10 59" fill="none" xmlns="http://www.w3.org/2000/svg">
<g clip-path="url(#clip0_4189_9389)">
<path d="M4.34351 30.4413C4.34351 30.6146 4.41274 30.7807 4.53597 30.9032C4.65921 31.0258 4.82634 31.0946 5.00062 31.0946C5.1749 31.0946 5.34204 31.0258 5.46527 30.9032C5.58851 30.7807 5.65774 30.6146 5.65774 30.4413V28.8735C5.65774 28.7003 5.58851 28.5341 5.46527 28.4116C5.34204 28.2891 5.1749 28.2203 5.00062 28.2203C4.82634 28.2203 4.65921 28.2891 4.53597 28.4116C4.41274 28.5341 4.34351 28.7003 4.34351 28.8735V30.4413Z" fill="white"/>
<path d="M4.34351 25.7379C4.34351 25.9112 4.41274 26.0774 4.53597 26.1999C4.65921 26.3224 4.82634 26.3912 5.00062 26.3912C5.1749 26.3912 5.34204 26.3224 5.46527 26.1999C5.58851 26.0774 5.65774 25.9112 5.65774 25.7379V24.1702C5.65774 23.9969 5.58851 23.8307 5.46527 23.7082C5.34204 23.5857 5.1749 23.5169 5.00062 23.5169C4.82634 23.5169 4.65921 23.5857 4.53597 23.7082C4.41274 23.8307 4.34351 23.9969 4.34351 24.1702V25.7379Z" fill="white"/>
<path d="M4.34351 21.0346C4.34351 21.2078 4.41274 21.374 4.53597 21.4965C4.65921 21.619 4.82634 21.6878 5.00062 21.6878C5.1749 21.6878 5.34204 21.619 5.46527 21.4965C5.58851 21.374 5.65774 21.2078 5.65774 21.0346V19.4668C5.65774 19.2935 5.58851 19.1274 5.46527 19.0049C5.34204 18.8824 5.1749 18.8135 5.00062 18.8135C4.82634 18.8135 4.65921 18.8824 4.53597 19.0049C4.41274 19.1274 4.34351 19.2935 4.34351 19.4668V21.0346Z" fill="white"/>
<path d="M4.34351 0.653247V2.22104C4.34351 2.39429 4.41274 2.56045 4.53597 2.68296C4.65921 2.80546 4.82634 2.87429 5.00062 2.87429C5.1749 2.87429 5.34204 2.80546 5.46527 2.68296C5.58851 2.56045 5.65774 2.39429 5.65774 2.22104V0.653247C5.65774 0.479995 5.58851 0.313833 5.46527 0.191325C5.34204 0.0688176 5.1749 0 5.00062 0C4.82634 0 4.65921 0.0688176 4.53597 0.191325C4.41274 0.313833 4.34351 0.479995 4.34351 0.653247Z" fill="white"/>
<path d="M4.34351 49.2549C4.34351 49.4281 4.41274 49.5943 4.53597 49.7168C4.65921 49.8393 4.82634 49.9081 5.00062 49.9081C5.1749 49.9081 5.34204 49.8393 5.46527 49.7168C5.58851 49.5943 5.65774 49.4281 5.65774 49.2549V47.6871C5.65774 47.5138 5.58851 47.3477 5.46527 47.2251C5.34204 47.1026 5.1749 47.0338 5.00062 47.0338C4.82634 47.0338 4.65921 47.1026 4.53597 47.2251C4.41274 47.3477 4.34351 47.5138 4.34351 47.6871V49.2549Z" fill="white"/>
<path d="M4.34351 44.5515C4.34351 44.7247 4.41274 44.8909 4.53597 45.0134C4.65921 45.1359 4.82634 45.2047 5.00062 45.2047C5.1749 45.2047 5.34204 45.1359 5.46527 45.0134C5.58851 44.8909 5.65774 44.7247 5.65774 44.5515V42.9837C5.65774 42.8104 5.58851 42.6443 5.46527 42.5218C5.34204 42.3993 5.1749 42.3304 5.00062 42.3304C4.82634 42.3304 4.65921 42.3993 4.53597 42.5218C4.41274 42.6443 4.34351 42.8104 4.34351 42.9837V44.5515Z" fill="white"/>
<path d="M4.34351 35.1447C4.34351 35.318 4.41274 35.4841 4.53597 35.6066C4.65921 35.7291 4.82634 35.798 5.00062 35.798C5.1749 35.798 5.34204 35.7291 5.46527 35.6066C5.58851 35.4841 5.65774 35.318 5.65774 35.1447V33.5769C5.65774 33.4037 5.58851 33.2375 5.46527 33.115C5.34204 32.9925 5.1749 32.9237 5.00062 32.9237C4.82634 32.9237 4.65921 32.9925 4.53597 33.115C4.41274 33.2375 4.34351 33.4037 4.34351 33.5769V35.1447Z" fill="white"/>
<path d="M4.34351 16.3312C4.34351 16.5044 4.41274 16.6706 4.53597 16.7931C4.65921 16.9156 4.82634 16.9844 5.00062 16.9844C5.1749 16.9844 5.34204 16.9156 5.46527 16.7931C5.58851 16.6706 5.65774 16.5044 5.65774 16.3312V14.7634C5.65774 14.5901 5.58851 14.424 5.46527 14.3015C5.34204 14.179 5.1749 14.1102 5.00062 14.1102C4.82634 14.1102 4.65921 14.179 4.53597 14.3015C4.41274 14.424 4.34351 14.5901 4.34351 14.7634V16.3312Z" fill="white"/>
<path d="M4.34351 39.8481C4.34351 40.0214 4.41274 40.1875 4.53597 40.31C4.65921 40.4325 4.82634 40.5013 5.00062 40.5013C5.1749 40.5013 5.34204 40.4325 5.46527 40.31C5.58851 40.1875 5.65774 40.0214 5.65774 39.8481V38.2803C5.65774 38.1071 5.58851 37.9409 5.46527 37.8184C5.34204 37.6959 5.1749 37.6271 5.00062 37.6271C4.82634 37.6271 4.65921 37.6959 4.53597 37.8184C4.41274 37.9409 4.34351 38.1071 4.34351 38.2803V39.8481Z" fill="white"/>
<path d="M4.34351 11.6278C4.34351 11.8011 4.41274 11.9672 4.53597 12.0897C4.65921 12.2122 4.82634 12.2811 5.00062 12.2811C5.1749 12.2811 5.34204 12.2122 5.46527 12.0897C5.58851 11.9672 5.65774 11.8011 5.65774 11.6278V10.06C5.65774 9.88676 5.58851 9.7206 5.46527 9.59809C5.34204 9.47559 5.1749 9.40677 5.00062 9.40677C4.82634 9.40677 4.65921 9.47559 4.53597 9.59809C4.41274 9.7206 4.34351 9.88676 4.34351 10.06V11.6278Z" fill="white"/>
<path d="M5.00062 7.57767C5.1749 7.57767 5.34204 7.50885 5.46527 7.38634C5.58851 7.26383 5.65774 7.09768 5.65774 6.92443V5.35663C5.65774 5.18338 5.58851 5.01722 5.46527 4.89471C5.34204 4.7722 5.1749 4.70338 5.00062 4.70338C4.82634 4.70338 4.65921 4.7722 4.53597 4.89471C4.41274 5.01722 4.34351 5.18338 4.34351 5.35663V6.92443C4.34351 7.09768 4.41274 7.26383 4.53597 7.38634C4.65921 7.50885 4.82634 7.57767 5.00062 7.57767Z" fill="white"/>
<path d="M5.00054 58.9987C6.10712 56.0316 7.99699 52.3486 9.99463 50.0649L5.22527 51.7803C5.15196 51.7519 5.07397 51.7372 4.99528 51.7372C4.91617 51.7374 4.83776 51.752 4.76397 51.7803L-0.00537109 50.0649C2.00146 52.3486 3.89264 56.029 5.00054 58.9987Z" fill="white"/>
</g>
<defs>
<clipPath id="clip0_4189_9389">
<rect width="10" height="59" fill="white"/>
</clipPath>
</defs>
</svg>
