<svg width="204" height="34" viewBox="0 0 204 34" fill="none" xmlns="http://www.w3.org/2000/svg">
<path d="M0 4.99999C0 2.23857 2.23858 -7.62939e-06 5 -7.62939e-06H199C201.761 -7.62939e-06 204 2.23857 204 4.99999V29C204 31.7614 201.761 34 199 34H5C2.23857 34 0 31.7614 0 29V4.99999Z" fill="#EEF2FF"/>
<path d="M25.4539 13.01V20H24.7539V16.73H20.9639V20H20.2639V13.01H20.9639V16.15H24.7539V13.01H25.4539ZM31.551 14.54L28.311 22.57H27.581L28.641 19.97L26.401 14.54H27.171L29.031 19.2L30.831 14.54H31.551ZM32.1802 17.26C32.1802 16.7 32.2935 16.21 32.5202 15.79C32.7469 15.3633 33.0569 15.0367 33.4502 14.81C33.8502 14.5767 34.3002 14.46 34.8002 14.46C35.2802 14.46 35.7135 14.5767 36.1002 14.81C36.4869 15.0433 36.7702 15.3467 36.9502 15.72V12.6H37.6502V20H36.9502V18.78C36.7835 19.16 36.5102 19.4733 36.1302 19.72C35.7502 19.96 35.3035 20.08 34.7902 20.08C34.2902 20.08 33.8402 19.9633 33.4402 19.73C33.0469 19.4967 32.7369 19.1667 32.5102 18.74C32.2902 18.3133 32.1802 17.82 32.1802 17.26ZM36.9502 17.27C36.9502 16.83 36.8602 16.4433 36.6802 16.11C36.5002 15.7767 36.2535 15.52 35.9402 15.34C35.6335 15.16 35.2935 15.07 34.9202 15.07C34.5335 15.07 34.1869 15.1567 33.8802 15.33C33.5735 15.5033 33.3302 15.7567 33.1502 16.09C32.9769 16.4167 32.8902 16.8067 32.8902 17.26C32.8902 17.7067 32.9769 18.1 33.1502 18.44C33.3302 18.7733 33.5735 19.03 33.8802 19.21C34.1869 19.3833 34.5335 19.47 34.9202 19.47C35.2935 19.47 35.6335 19.38 35.9402 19.2C36.2535 19.02 36.5002 18.7633 36.6802 18.43C36.8602 18.0967 36.9502 17.71 36.9502 17.27ZM44.1882 16.99C44.1882 17.23 44.1816 17.4133 44.1682 17.54H39.6382C39.6582 17.9533 39.7582 18.3067 39.9382 18.6C40.1182 18.8933 40.3549 19.1167 40.6482 19.27C40.9416 19.4167 41.2616 19.49 41.6082 19.49C42.0616 19.49 42.4416 19.38 42.7482 19.16C43.0616 18.94 43.2682 18.6433 43.3682 18.27H44.1082C43.9749 18.8033 43.6882 19.24 43.2482 19.58C42.8149 19.9133 42.2682 20.08 41.6082 20.08C41.0949 20.08 40.6349 19.9667 40.2282 19.74C39.8216 19.5067 39.5016 19.18 39.2682 18.76C39.0416 18.3333 38.9282 17.8367 38.9282 17.27C38.9282 16.7033 39.0416 16.2067 39.2682 15.78C39.4949 15.3533 39.8116 15.0267 40.2182 14.8C40.6249 14.5733 41.0882 14.46 41.6082 14.46C42.1282 14.46 42.5816 14.5733 42.9682 14.8C43.3616 15.0267 43.6616 15.3333 43.8682 15.72C44.0816 16.1 44.1882 16.5233 44.1882 16.99ZM43.4782 16.97C43.4849 16.5633 43.4016 16.2167 43.2282 15.93C43.0616 15.6433 42.8316 15.4267 42.5382 15.28C42.2449 15.1333 41.9249 15.06 41.5782 15.06C41.0582 15.06 40.6149 15.2267 40.2482 15.56C39.8816 15.8933 39.6782 16.3633 39.6382 16.97H43.4782ZM46.1689 15.51C46.3223 15.17 46.5556 14.9067 46.8689 14.72C47.1889 14.5333 47.5789 14.44 48.0389 14.44V15.17H47.8489C47.3423 15.17 46.9356 15.3067 46.6289 15.58C46.3223 15.8533 46.1689 16.31 46.1689 16.95V20H45.4689V14.54H46.1689V15.51ZM48.772 17.26C48.772 16.7 48.882 16.21 49.102 15.79C49.3287 15.3633 49.6387 15.0367 50.032 14.81C50.432 14.5767 50.882 14.46 51.382 14.46C51.902 14.46 52.3487 14.58 52.722 14.82C53.102 15.06 53.3753 15.3667 53.542 15.74V14.54H54.242V20H53.542V18.79C53.3687 19.1633 53.092 19.4733 52.712 19.72C52.3387 19.96 51.892 20.08 51.372 20.08C50.8787 20.08 50.432 19.9633 50.032 19.73C49.6387 19.4967 49.3287 19.1667 49.102 18.74C48.882 18.3133 48.772 17.82 48.772 17.26ZM53.542 17.27C53.542 16.83 53.452 16.4433 53.272 16.11C53.092 15.7767 52.8453 15.52 52.532 15.34C52.2253 15.16 51.8853 15.07 51.512 15.07C51.1253 15.07 50.7787 15.1567 50.472 15.33C50.1653 15.5033 49.922 15.7567 49.742 16.09C49.5687 16.4167 49.482 16.8067 49.482 17.26C49.482 17.7067 49.5687 18.1 49.742 18.44C49.922 18.7733 50.1653 19.03 50.472 19.21C50.7787 19.3833 51.1253 19.47 51.512 19.47C51.8853 19.47 52.2253 19.38 52.532 19.2C52.8453 19.02 53.092 18.7633 53.272 18.43C53.452 18.0967 53.542 17.71 53.542 17.27ZM56.53 15.75C56.71 15.37 56.9867 15.06 57.36 14.82C57.74 14.58 58.1867 14.46 58.7 14.46C59.2 14.46 59.6467 14.5767 60.04 14.81C60.4334 15.0367 60.74 15.3633 60.96 15.79C61.1867 16.21 61.3 16.7 61.3 17.26C61.3 17.82 61.1867 18.3133 60.96 18.74C60.74 19.1667 60.43 19.4967 60.03 19.73C59.6367 19.9633 59.1934 20.08 58.7 20.08C58.18 20.08 57.73 19.9633 57.35 19.73C56.9767 19.49 56.7034 19.18 56.53 18.8V20H55.84V12.6H56.53V15.75ZM60.59 17.26C60.59 16.8067 60.5 16.4167 60.32 16.09C60.1467 15.7567 59.9067 15.5033 59.6 15.33C59.2934 15.1567 58.9467 15.07 58.56 15.07C58.1867 15.07 57.8434 15.16 57.53 15.34C57.2234 15.52 56.98 15.7767 56.8 16.11C56.62 16.4433 56.53 16.83 56.53 17.27C56.53 17.71 56.62 18.0967 56.8 18.43C56.98 18.7633 57.2234 19.02 57.53 19.2C57.8434 19.38 58.1867 19.47 58.56 19.47C58.9467 19.47 59.2934 19.3833 59.6 19.21C59.9067 19.03 60.1467 18.7733 60.32 18.44C60.5 18.1 60.59 17.7067 60.59 17.26ZM62.2681 17.26C62.2681 16.7 62.3781 16.21 62.5981 15.79C62.8248 15.3633 63.1348 15.0367 63.5281 14.81C63.9281 14.5767 64.3781 14.46 64.8781 14.46C65.3981 14.46 65.8448 14.58 66.2181 14.82C66.5981 15.06 66.8714 15.3667 67.0381 15.74V14.54H67.7381V20H67.0381V18.79C66.8648 19.1633 66.5881 19.4733 66.2081 19.72C65.8348 19.96 65.3881 20.08 64.8681 20.08C64.3748 20.08 63.9281 19.9633 63.5281 19.73C63.1348 19.4967 62.8248 19.1667 62.5981 18.74C62.3781 18.3133 62.2681 17.82 62.2681 17.26ZM67.0381 17.27C67.0381 16.83 66.9481 16.4433 66.7681 16.11C66.5881 15.7767 66.3414 15.52 66.0281 15.34C65.7214 15.16 65.3814 15.07 65.0081 15.07C64.6214 15.07 64.2748 15.1567 63.9681 15.33C63.6614 15.5033 63.4181 15.7567 63.2381 16.09C63.0648 16.4167 62.9781 16.8067 62.9781 17.26C62.9781 17.7067 63.0648 18.1 63.2381 18.44C63.4181 18.7733 63.6614 19.03 63.9681 19.21C64.2748 19.3833 64.6214 19.47 65.0081 19.47C65.3814 19.47 65.7214 19.38 66.0281 19.2C66.3414 19.02 66.5881 18.7633 66.7681 18.43C66.9481 18.0967 67.0381 17.71 67.0381 17.27ZM69.0161 17.26C69.0161 16.7 69.1295 16.21 69.3561 15.79C69.5828 15.3633 69.8928 15.0367 70.2861 14.81C70.6861 14.5767 71.1361 14.46 71.6361 14.46C72.1161 14.46 72.5495 14.5767 72.9361 14.81C73.3228 15.0433 73.6061 15.3467 73.7861 15.72V12.6H74.4861V20H73.7861V18.78C73.6195 19.16 73.3461 19.4733 72.9661 19.72C72.5861 19.96 72.1395 20.08 71.6261 20.08C71.1261 20.08 70.6761 19.9633 70.2761 19.73C69.8828 19.4967 69.5728 19.1667 69.3461 18.74C69.1261 18.3133 69.0161 17.82 69.0161 17.26ZM73.7861 17.27C73.7861 16.83 73.6961 16.4433 73.5161 16.11C73.3361 15.7767 73.0895 15.52 72.7761 15.34C72.4695 15.16 72.1295 15.07 71.7561 15.07C71.3695 15.07 71.0228 15.1567 70.7161 15.33C70.4095 15.5033 70.1661 15.7567 69.9861 16.09C69.8128 16.4167 69.7261 16.8067 69.7261 17.26C69.7261 17.7067 69.8128 18.1 69.9861 18.44C70.1661 18.7733 70.4095 19.03 70.7161 19.21C71.0228 19.3833 71.3695 19.47 71.7561 19.47C72.1295 19.47 72.4695 19.38 72.7761 19.2C73.0895 19.02 73.3361 18.7633 73.5161 18.43C73.6961 18.0967 73.7861 17.71 73.7861 17.27ZM76.7242 18.84L75.6842 21.46H75.2042L75.9442 18.84H76.7242ZM84.6468 13.01V13.59H82.7068V20H82.0068V13.59H80.0568V13.01H84.6468ZM90.6921 16.99C90.6921 17.23 90.6855 17.4133 90.6721 17.54H86.1421C86.1621 17.9533 86.2621 18.3067 86.4421 18.6C86.6221 18.8933 86.8588 19.1167 87.1521 19.27C87.4455 19.4167 87.7655 19.49 88.1121 19.49C88.5655 19.49 88.9455 19.38 89.2521 19.16C89.5655 18.94 89.7721 18.6433 89.8721 18.27H90.6121C90.4788 18.8033 90.1921 19.24 89.7521 19.58C89.3188 19.9133 88.7721 20.08 88.1121 20.08C87.5988 20.08 87.1388 19.9667 86.7321 19.74C86.3255 19.5067 86.0055 19.18 85.7721 18.76C85.5455 18.3333 85.4321 17.8367 85.4321 17.27C85.4321 16.7033 85.5455 16.2067 85.7721 15.78C85.9988 15.3533 86.3155 15.0267 86.7221 14.8C87.1288 14.5733 87.5921 14.46 88.1121 14.46C88.6321 14.46 89.0855 14.5733 89.4721 14.8C89.8655 15.0267 90.1655 15.3333 90.3721 15.72C90.5855 16.1 90.6921 16.5233 90.6921 16.99ZM89.9821 16.97C89.9888 16.5633 89.9055 16.2167 89.7321 15.93C89.5655 15.6433 89.3355 15.4267 89.0421 15.28C88.7488 15.1333 88.4288 15.06 88.0821 15.06C87.5621 15.06 87.1188 15.2267 86.7521 15.56C86.3855 15.8933 86.1821 16.3633 86.1421 16.97H89.9821ZM92.6729 12.6V20H91.9729V12.6H92.6729ZM93.938 17.26C93.938 16.7 94.048 16.21 94.268 15.79C94.4947 15.3633 94.8047 15.0367 95.198 14.81C95.598 14.5767 96.048 14.46 96.548 14.46C97.068 14.46 97.5147 14.58 97.888 14.82C98.268 15.06 98.5413 15.3667 98.708 15.74V14.54H99.408V20H98.708V18.79C98.5347 19.1633 98.258 19.4733 97.878 19.72C97.5047 19.96 97.058 20.08 96.538 20.08C96.0447 20.08 95.598 19.9633 95.198 19.73C94.8047 19.4967 94.4947 19.1667 94.268 18.74C94.048 18.3133 93.938 17.82 93.938 17.26ZM98.708 17.27C98.708 16.83 98.618 16.4433 98.438 16.11C98.258 15.7767 98.0113 15.52 97.698 15.34C97.3913 15.16 97.0513 15.07 96.678 15.07C96.2913 15.07 95.9447 15.1567 95.638 15.33C95.3313 15.5033 95.088 15.7567 94.908 16.09C94.7347 16.4167 94.648 16.8067 94.648 17.26C94.648 17.7067 94.7347 18.1 94.908 18.44C95.088 18.7733 95.3313 19.03 95.638 19.21C95.9447 19.3833 96.2913 19.47 96.678 19.47C97.0513 19.47 97.3913 19.38 97.698 19.2C98.0113 19.02 98.258 18.7633 98.438 18.43C98.618 18.0967 98.708 17.71 98.708 17.27ZM103.566 14.44C104.219 14.44 104.753 14.6433 105.166 15.05C105.579 15.45 105.786 16.0333 105.786 16.8V20H105.096V16.88C105.096 16.2867 104.946 15.8333 104.646 15.52C104.353 15.2067 103.949 15.05 103.436 15.05C102.909 15.05 102.489 15.2167 102.176 15.55C101.863 15.8833 101.706 16.3733 101.706 17.02V20H101.006V14.54H101.706V15.47C101.879 15.1367 102.129 14.8833 102.456 14.71C102.783 14.53 103.153 14.44 103.566 14.44ZM109.624 14.46C110.138 14.46 110.584 14.58 110.964 14.82C111.344 15.06 111.618 15.3633 111.784 15.73V14.54H112.484V20.14C112.484 20.64 112.374 21.0833 112.154 21.47C111.941 21.8567 111.641 22.1533 111.254 22.36C110.868 22.5733 110.428 22.68 109.934 22.68C109.234 22.68 108.651 22.5133 108.184 22.18C107.724 21.8467 107.438 21.3933 107.324 20.82H108.014C108.134 21.2 108.361 21.5033 108.694 21.73C109.034 21.9567 109.448 22.07 109.934 22.07C110.288 22.07 110.604 21.9933 110.884 21.84C111.164 21.6933 111.384 21.4733 111.544 21.18C111.704 20.8867 111.784 20.54 111.784 20.14V18.79C111.611 19.1633 111.334 19.4733 110.954 19.72C110.581 19.96 110.138 20.08 109.624 20.08C109.124 20.08 108.674 19.9633 108.274 19.73C107.881 19.4967 107.571 19.1667 107.344 18.74C107.124 18.3133 107.014 17.82 107.014 17.26C107.014 16.7 107.124 16.21 107.344 15.79C107.571 15.3633 107.881 15.0367 108.274 14.81C108.674 14.5767 109.124 14.46 109.624 14.46ZM111.784 17.27C111.784 16.83 111.694 16.4433 111.514 16.11C111.334 15.7767 111.088 15.52 110.774 15.34C110.468 15.16 110.128 15.07 109.754 15.07C109.368 15.07 109.021 15.1567 108.714 15.33C108.408 15.5033 108.164 15.7567 107.984 16.09C107.811 16.4167 107.724 16.8067 107.724 17.26C107.724 17.7067 107.811 18.1 107.984 18.44C108.164 18.7733 108.408 19.03 108.714 19.21C109.021 19.3833 109.368 19.47 109.754 19.47C110.128 19.47 110.468 19.38 110.774 19.2C111.088 19.02 111.334 18.7633 111.514 18.43C111.694 18.0967 111.784 17.71 111.784 17.27ZM113.762 17.26C113.762 16.7 113.872 16.21 114.092 15.79C114.319 15.3633 114.629 15.0367 115.022 14.81C115.422 14.5767 115.872 14.46 116.372 14.46C116.892 14.46 117.339 14.58 117.712 14.82C118.092 15.06 118.366 15.3667 118.532 15.74V14.54H119.232V20H118.532V18.79C118.359 19.1633 118.082 19.4733 117.702 19.72C117.329 19.96 116.882 20.08 116.362 20.08C115.869 20.08 115.422 19.9633 115.022 19.73C114.629 19.4967 114.319 19.1667 114.092 18.74C113.872 18.3133 113.762 17.82 113.762 17.26ZM118.532 17.27C118.532 16.83 118.442 16.4433 118.262 16.11C118.082 15.7767 117.836 15.52 117.522 15.34C117.216 15.16 116.876 15.07 116.502 15.07C116.116 15.07 115.769 15.1567 115.462 15.33C115.156 15.5033 114.912 15.7567 114.732 16.09C114.559 16.4167 114.472 16.8067 114.472 17.26C114.472 17.7067 114.559 18.1 114.732 18.44C114.912 18.7733 115.156 19.03 115.462 19.21C115.769 19.3833 116.116 19.47 116.502 19.47C116.876 19.47 117.216 19.38 117.522 19.2C117.836 19.02 118.082 18.7633 118.262 18.43C118.442 18.0967 118.532 17.71 118.532 17.27ZM123.39 14.44C124.044 14.44 124.577 14.6433 124.99 15.05C125.404 15.45 125.61 16.0333 125.61 16.8V20H124.92V16.88C124.92 16.2867 124.77 15.8333 124.47 15.52C124.177 15.2067 123.774 15.05 123.26 15.05C122.734 15.05 122.314 15.2167 122 15.55C121.687 15.8833 121.53 16.3733 121.53 17.02V20H120.83V14.54H121.53V15.47C121.704 15.1367 121.954 14.8833 122.28 14.71C122.607 14.53 122.977 14.44 123.39 14.44ZM126.838 17.26C126.838 16.7 126.948 16.21 127.168 15.79C127.395 15.3633 127.705 15.0367 128.098 14.81C128.498 14.5767 128.948 14.46 129.448 14.46C129.968 14.46 130.415 14.58 130.788 14.82C131.168 15.06 131.442 15.3667 131.608 15.74V14.54H132.308V20H131.608V18.79C131.435 19.1633 131.158 19.4733 130.778 19.72C130.405 19.96 129.958 20.08 129.438 20.08C128.945 20.08 128.498 19.9633 128.098 19.73C127.705 19.4967 127.395 19.1667 127.168 18.74C126.948 18.3133 126.838 17.82 126.838 17.26ZM131.608 17.27C131.608 16.83 131.518 16.4433 131.338 16.11C131.158 15.7767 130.912 15.52 130.598 15.34C130.292 15.16 129.952 15.07 129.578 15.07C129.192 15.07 128.845 15.1567 128.538 15.33C128.232 15.5033 127.988 15.7567 127.808 16.09C127.635 16.4167 127.548 16.8067 127.548 17.26C127.548 17.7067 127.635 18.1 127.808 18.44C127.988 18.7733 128.232 19.03 128.538 19.21C128.845 19.3833 129.192 19.47 129.578 19.47C129.952 19.47 130.292 19.38 130.598 19.2C130.912 19.02 131.158 18.7633 131.338 18.43C131.518 18.0967 131.608 17.71 131.608 17.27Z" fill="#001968"/>
<path d="M12.629 12C14.4111 12.0121 15.9392 13.3231 16.2125 15.0727C16.3027 15.6504 16.2212 16.1999 16.0184 16.741C15.7287 17.5132 15.3315 18.23 14.9004 18.9291C14.294 19.9125 13.6233 20.8512 12.9121 21.761C12.7501 21.9683 12.5125 21.9756 12.3549 21.7731C11.4129 20.5632 10.5284 19.3143 9.79783 17.962C9.55781 17.5178 9.3517 17.0586 9.1819 16.5815C8.894 15.7732 8.95878 14.979 9.29906 14.2125C9.83253 13.0106 10.7635 12.2939 12.0564 12.0576C12.2445 12.0232 12.438 12.0184 12.629 12ZM12.631 13.9922C11.8984 13.993 11.3089 14.5842 11.3097 15.3174C11.3104 16.0422 11.9029 16.6328 12.6302 16.6335C13.3534 16.6343 13.9481 16.0376 13.9465 15.3132C13.9448 14.5841 13.3546 13.9912 12.631 13.9922Z" fill="#001968"/>
</svg>
