<svg width="92" height="88" viewBox="0 0 92 88" fill="none" xmlns="http://www.w3.org/2000/svg">
<g clip-path="url(#clip0_4189_9455)">
<path d="M22.3658 82.8787L22.412 82.8362C22.7906 82.423 23.1682 81.9902 23.5343 81.551C23.593 81.4807 23.6375 81.3997 23.6651 81.3127C23.6927 81.2257 23.703 81.1344 23.6954 81.044C23.6877 80.9536 23.6623 80.8659 23.6205 80.7858C23.5788 80.7058 23.5215 80.635 23.452 80.5776C23.3825 80.5201 23.3021 80.477 23.2154 80.4508C23.1287 80.4247 23.0375 80.4159 22.9468 80.425C22.8561 80.4341 22.7679 80.4609 22.6871 80.5039C22.6062 80.5469 22.5344 80.6053 22.4757 80.6756C22.1231 81.0986 21.7629 81.5173 21.396 81.9123C21.265 82.0433 21.1907 82.2201 21.1893 82.4038C21.188 82.5874 21.2598 82.7629 21.3889 82.8916C21.5179 83.0203 21.6938 83.0916 21.8777 83.09C22.0616 83.0883 22.2385 83.0138 22.3695 82.8828L22.3658 82.8787Z" fill="white"/>
<path d="M28.1586 74.7027C28.2146 74.6514 28.262 74.5915 28.2989 74.5253C28.5694 74.0398 28.8377 73.5376 29.0984 73.0332C29.1832 72.8689 29.1997 72.6788 29.1444 72.5046C29.089 72.3304 28.9662 72.1865 28.803 72.1044C28.6399 72.0224 28.4497 72.0089 28.2744 72.0671C28.099 72.1252 27.9528 72.2502 27.868 72.4145C27.6149 72.9064 27.352 73.3961 27.0928 73.8731C27.0122 74.0176 26.9853 74.1852 27.0169 74.3458C27.0484 74.5065 27.1364 74.6498 27.265 74.75C27.3937 74.8503 27.5546 74.901 27.719 74.8931C27.8834 74.8851 28.0405 74.8191 28.1623 74.7068L28.1586 74.7027Z" fill="white"/>
<path d="M18.6819 86.3523C19.1172 86.0007 19.5596 85.624 19.9836 85.2417L19.9898 85.236C20.1261 85.1107 20.2078 84.9374 20.2171 84.754C20.2263 84.5706 20.1623 84.3922 20.039 84.2582C19.9158 84.1241 19.7435 84.0453 19.56 84.039C19.3765 84.0328 19.1968 84.0997 19.0605 84.2249C18.6587 84.5943 18.2351 84.9482 17.8151 85.2875C17.7437 85.3453 17.6842 85.4163 17.64 85.4966C17.5957 85.5769 17.5676 85.6649 17.5572 85.7555C17.5468 85.8461 17.5544 85.9376 17.5794 86.0247C17.6045 86.1118 17.6466 86.1929 17.7033 86.2632C17.76 86.3336 17.8302 86.3919 17.9099 86.4347C17.9896 86.4776 18.0772 86.5043 18.1678 86.5132C18.2584 86.5221 18.3501 86.5131 18.4377 86.4866C18.5254 86.4602 18.6072 86.4168 18.6786 86.359L18.6819 86.3523Z" fill="white"/>
<path d="M39.756 41.7082C39.8413 41.6294 39.9059 41.531 39.9439 41.4217C40.1303 40.8923 40.3185 40.3668 40.5056 39.8628C40.5402 39.7766 40.5573 39.6845 40.5557 39.5922C40.5542 39.4998 40.5342 39.409 40.4968 39.3251C40.4595 39.2412 40.4055 39.1659 40.3382 39.1036C40.2708 39.0413 40.1914 38.9934 40.1047 38.9626C40.018 38.9317 39.9257 38.9187 39.8333 38.9242C39.7408 38.9296 39.6501 38.9535 39.5665 38.9944C39.4829 39.0353 39.408 39.0924 39.3464 39.1623C39.2847 39.2322 39.2375 39.3136 39.2076 39.4015C39.0171 39.9141 38.8256 40.4464 38.6379 40.9826C38.5863 41.1286 38.5848 41.2869 38.6335 41.4322C38.6822 41.5776 38.7783 41.7018 38.9067 41.7851C39.0351 41.8684 39.1884 41.9061 39.3422 41.8922C39.4961 41.8782 39.6417 41.8135 39.756 41.7082Z" fill="white"/>
<path d="M38.204 46.4619C38.2962 46.3771 38.3643 46.2695 38.4011 46.1503C38.5643 45.6197 38.7314 45.0932 38.9021 44.5707C38.9344 44.4827 38.9487 44.3893 38.9441 44.2962C38.9395 44.2031 38.916 44.1122 38.8751 44.029C38.8343 43.9457 38.7768 43.8719 38.7063 43.8119C38.6357 43.7519 38.5535 43.707 38.4645 43.6798C38.3756 43.6526 38.2818 43.6438 38.1887 43.6539C38.0957 43.6639 38.0054 43.6927 37.9231 43.7383C37.8409 43.784 37.7685 43.8456 37.7103 43.9195C37.6521 43.9934 37.6092 44.0781 37.5844 44.1684C37.4139 44.6981 37.247 45.2308 37.0834 45.7666C37.0385 45.9121 37.0425 46.0676 37.0947 46.209C37.147 46.3504 37.2446 46.4701 37.3725 46.5495C37.5005 46.629 37.6517 46.6639 37.8029 46.6488C37.9542 46.6337 38.0971 46.5695 38.2097 46.4661L38.204 46.4619Z" fill="white"/>
<path d="M34.1676 58.0877C33.9921 58.0363 33.8023 58.057 33.6397 58.1451C33.4772 58.2333 33.3554 58.3817 33.301 58.5578C33.1347 59.0837 32.9673 59.6106 32.7989 60.1384C32.7514 60.3111 32.7722 60.4944 32.8571 60.6501C32.942 60.8057 33.0843 60.9216 33.2544 60.9735C33.4245 61.0254 33.6091 61.0094 33.7698 60.9287C33.9305 60.8481 34.0548 60.709 34.1166 60.5406C34.2884 60.0097 34.4561 59.477 34.6196 58.9425C34.6731 58.7675 34.6557 58.5795 34.5711 58.4195C34.4865 58.2594 34.3415 58.1402 34.1676 58.0877Z" fill="white"/>
<path d="M36.7778 51.2572C36.8729 51.1698 36.9423 51.0583 36.9783 50.9349C37.1326 50.4014 37.2878 49.8682 37.444 49.3355C37.4697 49.2478 37.4779 49.1563 37.4682 49.0661C37.4584 48.9759 37.431 48.8887 37.3874 48.8097C37.3437 48.7306 37.2848 48.6612 37.2139 48.6053C37.143 48.5494 37.0616 48.5082 36.9743 48.484C36.8869 48.4598 36.7954 48.4531 36.7049 48.4643C36.6144 48.4755 36.5267 48.5043 36.4468 48.5492C36.3669 48.594 36.2963 48.654 36.2392 48.7257C36.1821 48.7974 36.1395 48.8794 36.1138 48.967C35.9576 49.4998 35.8023 50.0342 35.6479 50.5703C35.6062 50.7155 35.6127 50.8695 35.6666 51.0091C35.7204 51.1487 35.8186 51.2662 35.9464 51.3438C36.0741 51.4214 36.2243 51.455 36.3743 51.4393C36.5244 51.4237 36.666 51.3597 36.7778 51.2572Z" fill="white"/>
<path d="M41.5474 37.0253C41.6225 36.9565 41.6816 36.8722 41.7206 36.7785C41.8899 36.3748 42.0631 35.9713 42.2348 35.5784L42.3773 35.261C42.4462 35.0938 42.4478 34.9074 42.3815 34.7414C42.3153 34.5753 42.1864 34.4425 42.0223 34.3712C41.8582 34.3 41.6717 34.2957 41.5023 34.3595C41.333 34.4232 41.194 34.5499 41.1149 34.7127L40.9684 35.0339C40.7914 35.4354 40.6138 35.8466 40.445 36.2611C40.3837 36.4073 40.3739 36.5692 40.4173 36.72C40.4606 36.8708 40.5545 37.0015 40.6833 37.0904C40.8121 37.1793 40.9682 37.2211 41.1257 37.209C41.2832 37.1968 41.4327 37.1313 41.5495 37.0234L41.5474 37.0253Z" fill="white"/>
<path d="M32.2984 65.5821C32.3802 65.5067 32.443 65.4131 32.4817 65.3092C32.6732 64.7956 32.8667 64.2634 33.0544 63.7271C33.107 63.5557 33.0915 63.3717 33.0112 63.2135C32.9309 63.0554 32.792 62.9354 32.6235 62.8786C32.455 62.8218 32.2699 62.8325 32.107 62.9087C31.9441 62.9848 31.816 63.1204 31.7494 63.2871C31.5631 63.8146 31.373 64.338 31.1839 64.8439C31.1287 64.9902 31.1242 65.15 31.171 65.2975C31.2179 65.445 31.3135 65.5716 31.4423 65.6569C31.5711 65.7422 31.7256 65.7813 31.8809 65.7677C32.0363 65.7541 32.1833 65.6887 32.2984 65.5821Z" fill="white"/>
<path d="M25.5017 78.9595C25.5393 78.9248 25.5731 78.8862 25.6026 78.8444C25.9236 78.3871 26.2445 77.9131 26.5538 77.4349C26.65 77.2798 26.682 77.0942 26.643 76.918C26.6041 76.7418 26.4972 76.589 26.3454 76.4924C26.1936 76.3958 26.0089 76.3631 25.8311 76.4014C25.6532 76.4397 25.4963 76.5458 25.3941 76.6971C25.0934 77.16 24.7841 77.6196 24.4726 78.0626C24.3741 78.2031 24.3303 78.3741 24.3497 78.543C24.3691 78.7118 24.4503 78.8665 24.5777 78.9776C24.7051 79.0886 24.8698 79.1482 25.0403 79.1448C25.2108 79.1415 25.3751 79.0755 25.5017 78.9595Z" fill="white"/>
<path d="M71.9163 14.7556C72.0063 14.7776 72.1001 14.7811 72.1921 14.7661C72.2842 14.751 72.3725 14.7177 72.4519 14.668C72.5313 14.6184 72.6001 14.5534 72.6543 14.477C72.7085 14.4007 72.7469 14.3144 72.7672 14.2235C72.7875 14.1325 72.7893 14.0387 72.7726 13.9476C72.7558 13.8565 72.7208 13.7701 72.6696 13.6934C72.6184 13.6166 72.5521 13.5513 72.4747 13.5011C72.3972 13.4509 72.3102 13.417 72.2188 13.4014C71.6619 13.2865 71.0984 13.187 70.5458 13.1056C70.3644 13.0791 70.1787 13.1259 70.0296 13.2357C69.8805 13.3454 69.7802 13.5091 69.7508 13.6908C69.7214 13.8724 69.7652 14.0571 69.8727 14.2042C69.9802 14.3513 70.1425 14.4488 70.3239 14.4752C70.8494 14.5518 71.3836 14.6484 71.9163 14.7556Z" fill="white"/>
<path d="M67.1061 14.2151C67.2898 14.2174 67.4681 14.1468 67.6017 14.0187C67.7354 13.8906 67.8135 13.7155 67.8188 13.5321C67.8242 13.3486 67.7563 13.1717 67.6302 13.0403C67.5041 12.9089 67.3301 12.8337 67.1464 12.8314C66.5686 12.8216 65.9874 12.839 65.4298 12.8759C65.2519 12.8951 65.0871 12.982 64.9699 13.1186C64.8528 13.2552 64.7922 13.4308 64.801 13.6089C64.8097 13.7869 64.8871 13.9536 65.0169 14.0741C65.1467 14.1946 65.3189 14.2595 65.4976 14.2554C66.0197 14.2232 66.5615 14.2083 67.1061 14.2151Z" fill="white"/>
<path d="M60.8243 15.227C61.3188 15.0374 61.8234 14.8763 62.3356 14.7445C62.4483 14.7162 62.5523 14.6597 62.6379 14.5804C62.752 14.4754 62.8284 14.336 62.8552 14.1842C62.8819 14.0324 62.8574 13.8769 62.7855 13.7422C62.7136 13.6075 62.5985 13.5012 62.4582 13.4402C62.318 13.3792 62.1606 13.3669 62.0109 13.4053C61.4453 13.55 60.8882 13.7277 60.3423 13.9373C60.257 13.9702 60.1787 14.0196 60.112 14.0825C60.0453 14.1454 59.9914 14.2205 59.9535 14.3038C59.9155 14.387 59.8942 14.4766 59.8908 14.5674C59.8874 14.6583 59.9019 14.7486 59.9336 14.8333C59.9652 14.918 60.0134 14.9954 60.0753 15.061C60.1372 15.1266 60.2116 15.1792 60.2943 15.2157C60.377 15.2523 60.4664 15.2721 60.5573 15.274C60.6483 15.276 60.739 15.26 60.8243 15.227Z" fill="white"/>
<path d="M79.5071 17.4534C79.9876 17.7039 80.4614 17.9678 80.9134 18.2388C81.041 18.3152 81.1907 18.3478 81.34 18.3316C81.4892 18.3155 81.63 18.2516 81.7412 18.1494C81.7899 18.104 81.8324 18.0524 81.8675 17.996C81.9152 17.9177 81.947 17.8311 81.9613 17.7411C81.9756 17.6511 81.972 17.5594 81.9508 17.4714C81.9296 17.3833 81.8911 17.3006 81.8375 17.2279C81.784 17.1553 81.7165 17.0941 81.6389 17.0479C81.164 16.7643 80.6664 16.4869 80.163 16.2239C80.0012 16.1397 79.8114 16.1237 79.6354 16.1795C79.4594 16.2352 79.3117 16.3581 79.2247 16.5211C79.1378 16.6842 79.1186 16.874 79.1716 17.0489C79.2246 17.2237 79.3453 17.3692 79.5071 17.4534Z" fill="white"/>
<path d="M43.6674 32.4878C43.7281 32.432 43.7785 32.366 43.8164 32.293C44.0694 31.805 44.3331 31.3164 44.6001 30.8416C44.6449 30.7618 44.6736 30.6741 44.6846 30.5838C44.6957 30.4934 44.6888 30.402 44.6644 30.3149C44.6401 30.2277 44.5987 30.1465 44.5426 30.0759C44.4865 30.0052 44.4169 29.9465 44.3377 29.9031C44.2584 29.8597 44.1712 29.8325 44.0808 29.8229C43.9905 29.8134 43.8989 29.8217 43.8112 29.8475C43.7235 29.8732 43.6415 29.9159 43.5698 29.9731C43.4982 30.0302 43.4382 30.1007 43.3935 30.1806C43.1199 30.6689 42.8487 31.17 42.5864 31.6684C42.5099 31.8137 42.4868 31.9804 42.5212 32.1391C42.5555 32.2979 42.6451 32.4385 42.7741 32.5363C42.9032 32.634 43.0633 32.6825 43.2264 32.6733C43.3895 32.664 43.545 32.5976 43.6656 32.4858L43.6674 32.4878Z" fill="white"/>
<path d="M76.5666 16.1292C76.651 16.1618 76.7413 16.1774 76.8323 16.1751C76.9234 16.1728 77.0133 16.1526 77.0971 16.1157C77.1809 16.0788 77.2568 16.0259 77.3206 15.9601C77.3844 15.8942 77.4347 15.8166 77.4688 15.7318C77.5029 15.6469 77.52 15.5565 77.5192 15.4656C77.5183 15.3748 77.4996 15.2852 77.464 15.2022C77.4284 15.1191 77.3767 15.0441 77.3117 14.9815C77.2468 14.9189 77.1699 14.8698 77.0855 14.8372C76.5625 14.6353 76.0261 14.4437 75.4918 14.2708C75.4048 14.2381 75.3117 14.2236 75.2182 14.2279C75.1248 14.2323 75.0329 14.2555 74.948 14.2961C74.8632 14.3367 74.7872 14.3939 74.7246 14.4643C74.662 14.5347 74.6141 14.6167 74.5838 14.7056C74.5535 14.7944 74.5415 14.8881 74.5483 14.9811C74.5552 15.0741 74.5809 15.1644 74.6238 15.2467C74.6668 15.3289 74.7261 15.4013 74.7982 15.4596C74.8703 15.5179 74.9537 15.5608 75.0433 15.5857C75.5524 15.7538 76.0656 15.9368 76.5666 16.1292Z" fill="white"/>
<path d="M56.5135 17.4843C56.9714 17.1883 57.4415 16.9036 57.9097 16.6393C58.0669 16.5464 58.1824 16.3962 58.2312 16.2209C58.2801 16.0457 58.2585 15.8594 58.171 15.7021C58.0836 15.5448 57.9373 15.4291 57.7635 15.3797C57.5898 15.3304 57.4025 15.3514 57.2418 15.4383C56.7496 15.7154 56.2552 16.015 55.779 16.3221C55.6283 16.4245 55.5227 16.5811 55.4849 16.7585C55.447 16.9358 55.48 17.1197 55.5766 17.2709C55.6732 17.4221 55.8259 17.5286 56.0019 17.5676C56.178 17.6066 56.3634 17.575 56.5186 17.4795L56.5135 17.4843Z" fill="white"/>
<path d="M49.1738 24.1071C49.1981 24.0876 49.2211 24.0664 49.2426 24.0438C49.5953 23.6189 49.9575 23.2003 50.3225 22.8032C50.3844 22.7352 50.4325 22.6558 50.4641 22.5697C50.4956 22.4836 50.5099 22.3923 50.5062 22.3013C50.5025 22.2102 50.4809 22.121 50.4425 22.0388C50.4042 21.9567 50.3499 21.8831 50.2827 21.8224C50.2155 21.7616 50.1368 21.7149 50.0511 21.6848C49.9654 21.6547 49.8742 21.6419 49.783 21.6471C49.6917 21.6523 49.602 21.6753 49.5191 21.715C49.4362 21.7546 49.3616 21.8101 49.2997 21.8781C48.9221 22.2924 48.5464 22.7253 48.1803 23.1644C48.0684 23.3004 48.0115 23.4728 48.0209 23.6469C48.0303 23.8211 48.1055 23.9842 48.2312 24.1035C48.3569 24.2228 48.5239 24.2895 48.6987 24.2902C48.8736 24.2908 49.0433 24.2254 49.1738 24.1071Z" fill="white"/>
<path d="M35.5805 53.2881C35.4052 53.2396 35.2166 53.2625 35.0559 53.3519C34.8952 53.4413 34.7753 53.5899 34.7223 53.7654C34.568 54.2989 34.4128 54.832 34.2566 55.3648C34.2309 55.4524 34.2227 55.5439 34.2325 55.6341C34.2422 55.7244 34.2697 55.8115 34.3133 55.8906C34.3569 55.9696 34.4158 56.0391 34.4867 56.095C34.5576 56.1508 34.639 56.1921 34.7264 56.2163C34.8137 56.2404 34.9052 56.2471 34.9957 56.236C35.0862 56.2248 35.174 56.1959 35.2539 56.1511C35.3338 56.1062 35.4043 56.0462 35.4614 55.9745C35.5185 55.9028 35.5611 55.8208 35.5868 55.7332L36.0536 54.1309C36.1028 53.9547 36.0807 53.7674 35.9921 53.6096C35.9035 53.4518 35.7556 53.3363 35.5805 53.2881Z" fill="white"/>
<path d="M46.1912 28.152C46.2341 28.1118 46.2723 28.0667 46.3048 28.0178C46.6066 27.554 46.9188 27.0954 47.2312 26.6535C47.2884 26.5789 47.3302 26.4938 47.3539 26.4033C47.3777 26.3128 47.383 26.2188 47.3694 26.1268C47.3559 26.0348 47.3239 25.9468 47.2752 25.868C47.2266 25.7893 47.1624 25.7214 47.0864 25.6685C47.0104 25.6156 46.9243 25.5788 46.8332 25.5602C46.742 25.5416 46.6477 25.5417 46.556 25.5604C46.4643 25.5791 46.377 25.616 46.2994 25.669C46.2217 25.722 46.1554 25.79 46.1043 25.8688C45.7814 26.3241 45.4596 26.797 45.1474 27.2742C45.0531 27.4163 45.0137 27.5872 45.0366 27.7545C45.0595 27.9218 45.1431 28.0739 45.2717 28.182C45.4003 28.2901 45.5649 28.3468 45.7343 28.3413C45.9038 28.3358 46.0663 28.2684 46.1912 28.152Z" fill="white"/>
<path d="M52.6339 20.481C53.0378 20.1098 53.4567 19.7528 53.8737 19.4123L53.9046 19.384C54.0444 19.2626 54.1312 19.0915 54.1457 18.9083C54.1603 18.7251 54.1015 18.5449 53.9822 18.4071C53.8629 18.2694 53.6929 18.1856 53.5097 18.174C53.3265 18.1625 53.145 18.2242 53.0051 18.3455C52.5717 18.6991 52.1331 19.078 51.7089 19.4622C51.5727 19.5875 51.4909 19.7609 51.4817 19.9443C51.4724 20.1276 51.5365 20.306 51.6597 20.4401C51.7829 20.5741 51.9553 20.653 52.1388 20.6592C52.3223 20.6654 52.5019 20.5986 52.6382 20.4733L52.6339 20.481Z" fill="white"/>
<path d="M29.9644 67.9212C29.7474 68.434 29.5247 68.9446 29.3029 69.4376C29.2367 69.5836 29.2226 69.7472 29.2631 69.9007C29.3035 70.0542 29.3961 70.1881 29.525 70.2799C29.654 70.3717 29.8114 70.4157 29.9708 70.4045C30.1301 70.3932 30.2816 70.3275 30.3996 70.2183C30.4708 70.1536 30.5275 70.0747 30.5661 69.9869C30.7934 69.4833 31.0205 68.9631 31.2382 68.4366C31.2748 68.3522 31.2944 68.2616 31.2959 68.1702C31.2974 68.0787 31.2807 67.9882 31.2468 67.9038C31.2129 67.8194 31.1625 67.7428 31.0985 67.6784C31.0344 67.6141 30.958 67.5633 30.8737 67.529C30.7894 67.4946 30.6988 67.4774 30.6072 67.4784C30.5157 67.4794 30.4249 67.4985 30.3401 67.5346C30.2554 67.5707 30.1784 67.6231 30.1136 67.6888C30.0488 67.7545 29.9975 67.8321 29.9626 67.9172L29.9644 67.9212Z" fill="white"/>
<path d="M77.7077 20.9352C80.9076 21.1781 85.045 22.5587 88.063 23.9797C86.7339 20.9225 85.4807 16.7474 85.337 13.5464L82.8391 18.5971L77.7077 20.9352Z" fill="white"/>
</g>
<defs>
<clipPath id="clip0_4189_9455">
<rect width="98.9979" height="27.9225" fill="white" transform="translate(0 66.9913) rotate(-42.5859)"/>
</clipPath>
</defs>
</svg>
