<svg width="68" height="68" viewBox="0 0 68 68" fill="none" xmlns="http://www.w3.org/2000/svg">
<path d="M34 0C52.7777 0 68 15.2223 68 34C68 52.7777 52.7777 68 34 68C15.2223 68 0 52.7777 0 34C0 15.2223 15.2223 0 34 0Z" fill="#001968"/>
<path d="M27.1965 26.4548C25.871 26.4548 24.5454 26.4567 23.2199 26.4544C21.3373 26.4511 20.0054 25.1247 20.0027 23.2483C20 21.2313 19.9994 19.214 20.003 17.197C20.006 15.3372 21.3396 14.0057 23.2019 14.0025C25.2191 13.9992 27.2362 13.9992 29.2533 14.0025C31.1181 14.0055 32.4518 15.3345 32.4544 17.1948C32.4579 19.9323 32.4558 22.6698 32.4548 25.4075C32.4546 26.0915 32.0901 26.4539 31.4037 26.4545C30.0013 26.4556 28.5989 26.4548 27.1965 26.4548ZM30.6103 24.61V24.3429C30.6103 21.9615 30.6114 19.5802 30.6098 17.1987C30.6094 16.3482 30.1011 15.8475 29.2403 15.847C27.2334 15.8459 25.2265 15.8459 23.2196 15.847C22.3456 15.8475 21.8478 16.3474 21.8472 17.2243C21.8465 19.212 21.8468 21.1997 21.8472 23.1873C21.8472 24.1236 22.3304 24.6096 23.2618 24.6098C25.6048 24.6103 27.9478 24.61 30.2907 24.61H30.6103Z" fill="white"/>
<path d="M35.2224 21.216C35.2224 19.8808 35.2205 18.5455 35.2229 17.2105C35.2264 15.3324 36.5559 14.0048 38.4376 14.0023C40.4451 13.9997 42.4525 13.9997 44.46 14.0023C46.344 14.0048 47.6723 15.3299 47.6749 17.2099C47.6777 19.2271 47.6784 21.2442 47.6748 23.2614C47.6713 25.121 46.3374 26.4517 44.4734 26.454C41.7359 26.4572 38.9984 26.4553 36.2608 26.4543C35.5964 26.4541 35.2236 26.0835 35.2229 25.423C35.2213 24.0206 35.2224 22.6183 35.2224 21.216ZM37.0673 24.6099H37.3697C39.7318 24.6099 42.0939 24.6106 44.456 24.6095C45.3291 24.6091 45.8298 24.1072 45.8303 23.2329C45.8313 21.2355 45.8313 19.2383 45.8305 17.2411C45.8301 16.344 45.3367 15.8472 44.4455 15.8469C42.4481 15.846 40.4509 15.846 38.4537 15.8469C37.5606 15.8472 37.0677 16.3424 37.0676 17.2393C37.067 19.5918 37.0673 21.9443 37.0673 24.2968V24.6099Z" fill="white"/>
<path d="M35.2226 34.4676C35.2226 33.0652 35.2216 31.6629 35.2229 30.2605C35.2236 29.5959 35.5936 29.2231 36.2544 29.2227C39.0015 29.2215 41.7487 29.2189 44.4958 29.2235C46.3383 29.2264 47.671 30.5635 47.6747 32.4085C47.6786 34.4353 47.6786 36.462 47.6747 38.4887C47.671 40.3333 46.3378 41.67 44.4958 41.6744C42.4692 41.679 40.4423 41.6785 38.4156 41.6744C36.5569 41.6709 35.2269 40.3355 35.223 38.4729C35.2203 37.1379 35.2226 35.8026 35.2226 34.4676ZM37.0792 31.0672C37.074 31.1429 37.0682 31.1891 37.0682 31.235C37.0676 33.6835 37.0639 36.1319 37.0702 38.5804C37.072 39.3129 37.6133 39.8279 38.3668 39.8291C40.4214 39.8328 42.4762 39.8328 44.5311 39.8291C45.308 39.8279 45.8283 39.3033 45.8296 38.5227C45.8328 36.4773 45.8326 34.4322 45.83 32.3869C45.8287 31.5878 45.3119 31.071 44.5149 31.068C43.6508 31.0645 42.7865 31.0672 41.9225 31.0672C40.3193 31.0672 38.7162 31.0672 37.0792 31.0672Z" fill="white"/>
<path d="M27.2173 29.2222C28.6198 29.2222 30.0222 29.2212 31.4246 29.2227C32.084 29.2233 32.4544 29.5964 32.4547 30.2616C32.4557 33.0086 32.4587 35.7558 32.4539 38.5029C32.4507 40.3294 31.1139 41.6687 29.2898 41.6739C27.2535 41.6798 25.2172 41.679 23.1809 41.6742C21.3411 41.6698 20.0064 40.3305 20.003 38.4874C19.999 36.4607 19.999 34.434 20.003 32.4072C20.0066 30.5631 21.3402 29.2287 23.1833 29.223C24.528 29.2189 25.8727 29.2222 27.2173 29.2222ZM30.6103 31.067H30.3229C27.9513 31.067 25.5795 31.0663 23.2079 31.0676C22.3521 31.068 21.848 31.5722 21.8474 32.4277C21.846 34.4441 21.8459 36.4607 21.8476 38.477C21.8482 39.3277 22.356 39.8295 23.2157 39.83C25.2226 39.8313 27.2294 39.8311 29.2362 39.83C30.1089 39.8295 30.6094 39.3276 30.61 38.4528C30.6111 36.734 30.6103 35.0153 30.6103 33.2965C30.6103 32.5675 30.6103 31.8386 30.6103 31.067Z" fill="white"/>
<path d="M29.1789 46.9382V53.8582H28.2689V48.6982L25.9689 53.8582H25.3289L23.0189 48.6882V53.8582H22.1089V46.9382H23.0889L25.6489 52.6582L28.2089 46.9382H29.1789ZM33.1121 53.9482C32.5988 53.9482 32.1321 53.8315 31.7121 53.5982C31.2988 53.3648 30.9721 53.0348 30.7321 52.6082C30.4988 52.1748 30.3821 51.6748 30.3821 51.1082C30.3821 50.5482 30.5021 50.0548 30.7421 49.6282C30.9888 49.1948 31.3221 48.8648 31.7421 48.6382C32.1621 48.4048 32.6321 48.2882 33.1521 48.2882C33.6721 48.2882 34.1421 48.4048 34.5621 48.6382C34.9821 48.8648 35.3121 49.1915 35.5521 49.6182C35.7988 50.0448 35.9221 50.5415 35.9221 51.1082C35.9221 51.6748 35.7955 52.1748 35.5421 52.6082C35.2955 53.0348 34.9588 53.3648 34.5321 53.5982C34.1055 53.8315 33.6321 53.9482 33.1121 53.9482ZM33.1121 53.1482C33.4388 53.1482 33.7455 53.0715 34.0321 52.9182C34.3188 52.7648 34.5488 52.5348 34.7221 52.2282C34.9021 51.9215 34.9921 51.5482 34.9921 51.1082C34.9921 50.6682 34.9055 50.2948 34.7321 49.9882C34.5588 49.6815 34.3321 49.4548 34.0521 49.3082C33.7721 49.1548 33.4688 49.0782 33.1421 49.0782C32.8088 49.0782 32.5021 49.1548 32.2221 49.3082C31.9488 49.4548 31.7288 49.6815 31.5621 49.9882C31.3955 50.2948 31.3121 50.6682 31.3121 51.1082C31.3121 51.5548 31.3921 51.9315 31.5521 52.2382C31.7188 52.5448 31.9388 52.7748 32.2121 52.9282C32.4855 53.0748 32.7855 53.1482 33.1121 53.1482ZM38.0286 49.2682C38.1886 48.9548 38.4153 48.7115 38.7086 48.5382C39.0086 48.3648 39.372 48.2782 39.7986 48.2782V49.2182H39.5586C38.5386 49.2182 38.0286 49.7715 38.0286 50.8782V53.8582H37.1186V48.3782H38.0286V49.2682ZM45.8491 50.9082C45.8491 51.0815 45.8391 51.2648 45.8191 51.4582H41.4391C41.4724 51.9982 41.6558 52.4215 41.9891 52.7282C42.3291 53.0282 42.7391 53.1782 43.2191 53.1782C43.6124 53.1782 43.9391 53.0882 44.1991 52.9082C44.4658 52.7215 44.6524 52.4748 44.7591 52.1682H45.7391C45.5924 52.6948 45.2991 53.1248 44.8591 53.4582C44.4191 53.7848 43.8724 53.9482 43.2191 53.9482C42.6991 53.9482 42.2324 53.8315 41.8191 53.5982C41.4124 53.3648 41.0924 53.0348 40.8591 52.6082C40.6258 52.1748 40.5091 51.6748 40.5091 51.1082C40.5091 50.5415 40.6224 50.0448 40.8491 49.6182C41.0758 49.1915 41.3924 48.8648 41.7991 48.6382C42.2124 48.4048 42.6858 48.2882 43.2191 48.2882C43.7391 48.2882 44.1991 48.4015 44.5991 48.6282C44.9991 48.8548 45.3058 49.1682 45.5191 49.5682C45.7391 49.9615 45.8491 50.4082 45.8491 50.9082ZM44.9091 50.7182C44.9091 50.3715 44.8324 50.0748 44.6791 49.8282C44.5258 49.5748 44.3158 49.3848 44.0491 49.2582C43.7891 49.1248 43.4991 49.0582 43.1791 49.0582C42.7191 49.0582 42.3258 49.2048 41.9991 49.4982C41.6791 49.7915 41.4958 50.1982 41.4491 50.7182H44.9091Z" fill="white"/>
</svg>
