<svg width="48" height="51" viewBox="0 0 48 51" fill="none" xmlns="http://www.w3.org/2000/svg">
<g clip-path="url(#clip0_4189_9402)">
<path d="M22.4952 24.8781C22.3782 24.7503 22.317 24.581 22.3251 24.4075C22.3332 24.2339 22.4099 24.0702 22.5384 23.9525C22.6669 23.8348 22.8366 23.7726 23.0103 23.7797C23.1839 23.7868 23.3472 23.8625 23.4642 23.9902L24.5233 25.1462C24.6404 25.274 24.7016 25.4432 24.6935 25.6168C24.6853 25.7904 24.6086 25.954 24.4801 26.0718C24.3516 26.1895 24.1819 26.2517 24.0083 26.2446C23.8346 26.2375 23.6713 26.1618 23.5543 26.034L22.4952 24.8781Z" fill="white"/>
<path d="M25.6724 28.346C25.5554 28.2182 25.4942 28.0489 25.5023 27.8754C25.5104 27.7018 25.5872 27.5381 25.7157 27.4204C25.8441 27.3027 26.0139 27.2405 26.1875 27.2476C26.3611 27.2547 26.5244 27.3304 26.6415 27.4581L27.7006 28.6141C27.8176 28.7418 27.8788 28.9111 27.8707 29.0847C27.8626 29.2583 27.7859 29.4219 27.6574 29.5397C27.5289 29.6574 27.3591 29.7196 27.1855 29.7125C27.0119 29.7054 26.8486 29.6297 26.7316 29.5019L25.6724 28.346Z" fill="white"/>
<path d="M28.8497 31.8139C28.7326 31.6861 28.6715 31.5168 28.6796 31.3433C28.6877 31.1697 28.7644 31.006 28.8929 30.8883C29.0214 30.7706 29.1911 30.7084 29.3647 30.7155C29.5384 30.7226 29.7017 30.7983 29.8187 30.926L30.8778 32.082C30.9949 32.2097 31.0561 32.379 31.048 32.5526C31.0398 32.7262 30.9631 32.8898 30.8346 33.0076C30.7061 33.1253 30.5364 33.1875 30.3628 33.1804C30.1891 33.1733 30.0258 33.0976 29.9088 32.9698L28.8497 31.8139Z" fill="white"/>
<path d="M42.6183 46.8414L41.5592 45.6854C41.4421 45.5577 41.3809 45.3884 41.389 45.2148C41.3971 45.0413 41.4739 44.8776 41.6024 44.7599C41.7309 44.6421 41.9006 44.58 42.0742 44.5871C42.2478 44.5941 42.4111 44.6699 42.5282 44.7976L43.5873 45.9536C43.7043 46.0813 43.7655 46.2506 43.7574 46.4242C43.7493 46.5978 43.6726 46.7614 43.5441 46.8791C43.4156 46.9969 43.2459 47.059 43.0722 47.052C42.8986 47.0449 42.7353 46.9691 42.6183 46.8414Z" fill="white"/>
<path d="M9.78572 11.0065C9.66868 10.8787 9.60749 10.7095 9.61559 10.5359C9.62369 10.3623 9.70043 10.1987 9.82893 10.0809C9.95743 9.96319 10.1272 9.90103 10.3008 9.9081C10.4744 9.91518 10.6377 9.99092 10.7547 10.1187L11.8138 11.2746C11.9309 11.4024 11.9921 11.5717 11.984 11.7452C11.9759 11.9188 11.8991 12.0825 11.7706 12.2002C11.6421 12.3179 11.4724 12.3801 11.2988 12.373C11.1252 12.3659 10.9619 12.2902 10.8448 12.1625L9.78572 11.0065Z" fill="white"/>
<path d="M12.963 14.4744C12.8459 14.3466 12.7847 14.1774 12.7928 14.0038C12.8009 13.8302 12.8777 13.6665 13.0062 13.5488C13.1347 13.4311 13.3044 13.3689 13.478 13.376C13.6516 13.3831 13.8149 13.4588 13.932 13.5866L14.9911 14.7425C15.1081 14.8703 15.1693 15.0395 15.1612 15.2131C15.1531 15.3867 15.0764 15.5504 14.9479 15.6681C14.8194 15.7858 14.6497 15.848 14.476 15.8409C14.3024 15.8338 14.1391 15.7581 14.0221 15.6303L12.963 14.4744Z" fill="white"/>
<path d="M19.3177 21.4102C19.2007 21.2824 19.1395 21.1132 19.1476 20.9396C19.1557 20.766 19.2324 20.6023 19.3609 20.4846C19.4894 20.3669 19.6591 20.3047 19.8328 20.3118C20.0064 20.3189 20.1697 20.3946 20.2867 20.5224L21.3458 21.6783C21.4629 21.8061 21.5241 21.9753 21.516 22.1489C21.5079 22.3225 21.4311 22.4861 21.3026 22.6039C21.1741 22.7216 21.0044 22.7838 20.8308 22.7767C20.6571 22.7696 20.4939 22.6939 20.3768 22.5661L19.3177 21.4102Z" fill="white"/>
<path d="M32.0272 35.2818C31.9101 35.154 31.8489 34.9847 31.857 34.8112C31.8651 34.6376 31.9419 34.4739 32.0704 34.3562C32.1989 34.2385 32.3686 34.1763 32.5422 34.1834C32.7159 34.1905 32.8792 34.2662 32.9962 34.3939L34.0553 35.5499C34.1723 35.6776 34.2335 35.8469 34.2254 36.0205C34.2173 36.1941 34.1406 36.3577 34.0121 36.4755C33.8836 36.5932 33.7139 36.6554 33.5402 36.6483C33.3666 36.6412 33.2033 36.5655 33.0863 36.4377L32.0272 35.2818Z" fill="white"/>
<path d="M16.1405 17.9423C16.0234 17.8145 15.9622 17.6453 15.9703 17.4717C15.9784 17.2981 16.0552 17.1344 16.1837 17.0167C16.3122 16.899 16.4819 16.8368 16.6555 16.8439C16.8291 16.851 16.9924 16.9267 17.1095 17.0545L18.1686 18.2104C18.2856 18.3382 18.3468 18.5074 18.3387 18.681C18.3306 18.8546 18.2539 19.0183 18.1254 19.136C17.9969 19.2537 17.8271 19.3159 17.6535 19.3088C17.4799 19.3017 17.3166 19.226 17.1996 19.0982L16.1405 17.9423Z" fill="white"/>
<path d="M35.2044 38.7496C35.0874 38.6219 35.0262 38.4526 35.0343 38.2791C35.0424 38.1055 35.1191 37.9418 35.2476 37.8241C35.3761 37.7064 35.5459 37.6442 35.7195 37.6513C35.8931 37.6583 36.0564 37.7341 36.1734 37.8618L37.2325 39.0178C37.3496 39.1455 37.4108 39.3148 37.4027 39.4884C37.3946 39.662 37.3178 39.8256 37.1893 39.9434C37.0608 40.0611 36.8911 40.1233 36.7175 40.1162C36.5439 40.1091 36.3806 40.0334 36.2635 39.9056L35.2044 38.7496Z" fill="white"/>
<path d="M38.4249 41.292C38.5534 41.1742 38.7231 41.1121 38.8967 41.1192C39.0704 41.1262 39.2336 41.202 39.3507 41.3297L40.4098 42.4857C40.5268 42.6134 40.588 42.7827 40.5799 42.9563C40.5718 43.1299 40.4951 43.2935 40.3666 43.4113C40.2381 43.529 40.0684 43.5912 39.8947 43.5841C39.7211 43.577 39.5578 43.5013 39.4408 43.3735L38.3817 42.2175C38.2646 42.0898 38.2034 41.9205 38.2115 41.7469C38.2196 41.5734 38.2964 41.4097 38.4249 41.292Z" fill="white"/>
<path d="M3.68776 3.37825C6.50804 4.81838 10.3895 6.25725 13.4052 6.59162L8.72979 8.5487C8.69496 8.6192 8.64733 8.68266 8.58934 8.73586C8.5309 8.78918 8.46322 8.83138 8.38967 8.86033L6.03198 13.347C5.96889 10.3075 4.87702 6.31628 3.68776 3.37825Z" fill="white"/>
</g>
<defs>
<clipPath id="clip0_4189_9402">
<rect width="10" height="59" fill="white" transform="matrix(0.73732 -0.675543 -0.675543 -0.73732 39.8569 50.2573)"/>
</clipPath>
</defs>
</svg>
