<svg width="34" height="36" viewBox="0 0 34 36" fill="none" xmlns="http://www.w3.org/2000/svg">
<circle cx="17" cy="19" r="17" fill="#C3D0F8"/>
<circle cx="17" cy="17" r="17" fill="#EEF2FF"/>
<path d="M16.8521 24.0704C15.5123 24.0851 14.1821 23.9544 12.8558 23.7764C12.5472 23.735 12.2351 23.7054 11.9325 23.6362C10.2674 23.2554 9.11065 21.6417 9.26238 19.9408C9.31638 19.3354 9.50091 18.7798 9.81627 18.2618C10.0503 17.8777 10.2785 17.4895 10.495 17.0953C10.7088 16.7061 10.8023 16.287 10.7973 15.8382C10.7896 15.1454 10.7611 14.4484 10.822 13.7602C11.0405 11.2901 12.2959 9.51154 14.5811 8.56602C17.9938 7.15397 21.7863 9.073 22.724 12.6385C22.8564 13.1416 22.8898 13.6759 22.9219 14.1987C22.9546 14.7303 22.9404 15.2659 22.9259 15.7991C22.913 16.2773 23.022 16.7211 23.2516 17.1339C23.477 17.5392 23.7192 17.935 23.9544 18.3347C25.0194 20.1447 24.3808 22.4354 22.5537 23.3673C22.1013 23.5981 21.6152 23.7008 21.1173 23.7511C20.0148 23.8629 18.9119 23.9712 17.8078 24.0663C17.4914 24.0935 17.1708 24.0704 16.8521 24.0704ZM17.3434 22.7703C17.9433 22.7197 19.0208 22.6382 20.0962 22.5342C20.5915 22.4863 21.0955 22.4421 21.5733 22.3135C22.951 21.9426 23.5632 20.3301 22.8339 19.0576C22.6307 18.7031 22.4113 18.358 22.2054 18.0052C21.7882 17.2901 21.5588 16.5275 21.5942 15.6889C21.6149 15.1977 21.6043 14.7048 21.5953 14.2128C21.5903 13.9433 21.5829 13.6702 21.5359 13.4058C21.0596 10.7227 18.6129 9.03269 15.9356 9.52979C13.8823 9.91093 12.2686 11.7256 12.1491 13.8162C12.1116 14.4727 12.1151 15.1329 12.1291 15.7908C12.1447 16.5181 11.9701 17.191 11.6195 17.8203C11.3838 18.2436 11.124 18.6534 10.8852 19.075C10.1233 20.4199 10.8575 22.0671 12.3521 22.3668C12.5485 22.4062 12.7498 22.4217 12.9489 22.448C14.2481 22.6202 15.5503 22.7552 17.3434 22.7703Z" fill="#001968"/>
<path d="M16.8669 27.1845C15.8634 27.1617 15.0527 26.7548 14.4486 25.9475C14.1809 25.5899 14.2197 25.1891 14.5331 24.9543C14.8473 24.7188 15.2429 24.7962 15.5113 25.145C16.242 26.0959 17.4943 26.0942 18.2191 25.1416C18.4766 24.8031 18.8737 24.7217 19.1811 24.9443C19.4962 25.1725 19.5447 25.5846 19.2859 25.9357C18.6872 26.7478 17.8777 27.1569 16.8669 27.1845Z" fill="#001968"/>
</svg>
