<svg xmlns="http://www.w3.org/2000/svg" width="32" height="32" viewBox="0 0 32 32">
  <g id="notification" transform="translate(-852 -976)">
    <rect id="Rectangle_11705" data-name="Rectangle 11705" width="32" height="32" transform="translate(852 976)" fill="none"/>
    <path id="Path_68883" data-name="Path 68883" d="M167.847,270.457a36.512,36.512,0,0,1-5.258-.387c-.406-.054-.817-.093-1.215-.184a4.613,4.613,0,0,1-3.513-4.862,5.041,5.041,0,0,1,.729-2.209c.308-.505.608-1.016.893-1.535a3.291,3.291,0,0,0,.4-1.654c-.01-.911-.048-1.828.033-2.734a7.654,7.654,0,0,1,4.946-6.834,7.911,7.911,0,0,1,10.713,5.358,10.678,10.678,0,0,1,.26,2.053c.043.7.024,1.4.005,2.106a3.357,3.357,0,0,0,.429,1.756c.3.533.615,1.054.925,1.58a4.706,4.706,0,0,1-1.843,6.621,5.256,5.256,0,0,1-1.89.5c-1.45.147-2.9.29-4.354.415C168.688,270.487,168.266,270.457,167.847,270.457Zm.646-1.711c.789-.067,2.207-.174,3.622-.311a11.884,11.884,0,0,0,1.943-.29,2.9,2.9,0,0,0,1.658-4.284c-.267-.466-.556-.92-.827-1.385a5.481,5.481,0,0,1-.8-3.047c.027-.646.013-1.295,0-1.942a6.812,6.812,0,0,0-.078-1.062,6.224,6.224,0,0,0-12.35.54c-.049.864-.045,1.732-.026,2.6a5.161,5.161,0,0,1-.67,2.67c-.31.557-.652,1.1-.966,1.651a2.9,2.9,0,0,0,1.93,4.331c.258.052.523.072.785.107A43.909,43.909,0,0,0,168.493,268.746Z" transform="translate(700.143 730.001)" fill="#001968"/>
    <path id="Path_68884" data-name="Path 68884" d="M251.644,553.479a3.893,3.893,0,0,1-3.182-1.627.881.881,0,1,1,1.4-1.056,2.159,2.159,0,0,0,3.563,0,.879.879,0,1,1,1.4,1.045A3.886,3.886,0,0,1,251.644,553.479Z" transform="translate(616.366 451.076)" fill="#001968"/>
  </g>
</svg>
