<svg width="94" height="34" viewBox="0 0 94 34" fill="none" xmlns="http://www.w3.org/2000/svg">
<path d="M0 8.99999C0 6.23857 2.23858 3.99999 5 3.99999H89C91.7614 3.99999 94 6.23857 94 8.99999V29C94 31.7614 91.7614 34 89 34H5C2.23858 34 0 31.7614 0 29V8.99999Z" fill="#A30266"/>
<path d="M0 4.99999C0 2.23857 2.23858 -7.62939e-06 5 -7.62939e-06H89C91.7614 -7.62939e-06 94 2.23857 94 4.99999V26C94 28.7614 91.7614 31 89 31H5C2.23858 31 0 28.7614 0 26V4.99999Z" fill="#C80880"/>
<path d="M31.0125 13.9C31.0125 14.3417 30.9083 14.7583 30.7 15.15C30.4917 15.5417 30.1583 15.8625 29.7 16.1125C29.2417 16.3542 28.6542 16.475 27.9375 16.475H26.3625V20H24.9375V11.3125H27.9375C28.6042 11.3125 29.1667 11.4292 29.625 11.6625C30.0917 11.8875 30.4375 12.1958 30.6625 12.5875C30.8958 12.9792 31.0125 13.4167 31.0125 13.9ZM27.9375 15.3125C28.4792 15.3125 28.8833 15.1917 29.15 14.95C29.4167 14.7 29.55 14.35 29.55 13.9C29.55 12.95 29.0125 12.475 27.9375 12.475H26.3625V15.3125H27.9375ZM36.3341 20.0875C35.5257 20.0875 34.7799 19.9 34.0966 19.525C33.4216 19.1417 32.8841 18.6125 32.4841 17.9375C32.0924 17.2542 31.8966 16.4875 31.8966 15.6375C31.8966 14.7875 32.0924 14.025 32.4841 13.35C32.8841 12.675 33.4216 12.15 34.0966 11.775C34.7799 11.3917 35.5257 11.2 36.3341 11.2C37.1507 11.2 37.8966 11.3917 38.5716 11.775C39.2549 12.15 39.7924 12.675 40.1841 13.35C40.5757 14.025 40.7716 14.7875 40.7716 15.6375C40.7716 16.4875 40.5757 17.2542 40.1841 17.9375C39.7924 18.6125 39.2549 19.1417 38.5716 19.525C37.8966 19.9 37.1507 20.0875 36.3341 20.0875ZM36.3341 18.85C36.9091 18.85 37.4216 18.7208 37.8716 18.4625C38.3216 18.1958 38.6716 17.8208 38.9216 17.3375C39.1799 16.8458 39.3091 16.2792 39.3091 15.6375C39.3091 14.9958 39.1799 14.4333 38.9216 13.95C38.6716 13.4667 38.3216 13.0958 37.8716 12.8375C37.4216 12.5792 36.9091 12.45 36.3341 12.45C35.7591 12.45 35.2466 12.5792 34.7966 12.8375C34.3466 13.0958 33.9924 13.4667 33.7341 13.95C33.4841 14.4333 33.3591 14.9958 33.3591 15.6375C33.3591 16.2792 33.4841 16.8458 33.7341 17.3375C33.9924 17.8208 34.3466 18.1958 34.7966 18.4625C35.2466 18.7208 35.7591 18.85 36.3341 18.85ZM45.0363 20.0875C44.453 20.0875 43.928 19.9875 43.4613 19.7875C42.9947 19.5792 42.628 19.2875 42.3613 18.9125C42.0947 18.5375 41.9613 18.1 41.9613 17.6H43.4863C43.5197 17.975 43.6655 18.2833 43.9238 18.525C44.1905 18.7667 44.5613 18.8875 45.0363 18.8875C45.528 18.8875 45.9113 18.7708 46.1863 18.5375C46.4613 18.2958 46.5988 17.9875 46.5988 17.6125C46.5988 17.3208 46.5113 17.0833 46.3363 16.9C46.1697 16.7167 45.9572 16.575 45.6988 16.475C45.4488 16.375 45.0988 16.2667 44.6488 16.15C44.0822 16 43.6197 15.85 43.2613 15.7C42.9113 15.5417 42.6113 15.3 42.3613 14.975C42.1113 14.65 41.9863 14.2167 41.9863 13.675C41.9863 13.175 42.1113 12.7375 42.3613 12.3625C42.6113 11.9875 42.9613 11.7 43.4113 11.5C43.8613 11.3 44.3822 11.2 44.9738 11.2C45.8155 11.2 46.503 11.4125 47.0363 11.8375C47.578 12.2542 47.878 12.8292 47.9363 13.5625H46.3613C46.3363 13.2458 46.1863 12.975 45.9113 12.75C45.6363 12.525 45.2738 12.4125 44.8238 12.4125C44.4155 12.4125 44.0822 12.5167 43.8238 12.725C43.5655 12.9333 43.4363 13.2333 43.4363 13.625C43.4363 13.8917 43.5155 14.1125 43.6738 14.2875C43.8405 14.4542 44.0488 14.5875 44.2988 14.6875C44.5488 14.7875 44.8905 14.8958 45.3238 15.0125C45.8988 15.1708 46.3655 15.3292 46.7238 15.4875C47.0905 15.6458 47.3988 15.8917 47.6488 16.225C47.9072 16.55 48.0363 16.9875 48.0363 17.5375C48.0363 17.9792 47.9155 18.3958 47.6738 18.7875C47.4405 19.1792 47.0947 19.4958 46.6363 19.7375C46.1863 19.9708 45.653 20.0875 45.0363 20.0875ZM55.3303 11.3125V12.475H53.0178V20H51.5928V12.475H49.2678V11.3125H55.3303Z" fill="white"/>
<path d="M64.9916 16.884C66.3088 15.2967 67.6208 13.7156 68.9329 12.1344L68.9145 12.1145C68.7574 12.2476 68.5997 12.3801 68.4432 12.5139C66.9767 13.7679 65.5069 15.0182 64.0484 16.2814C63.8648 16.4405 63.7233 16.472 63.4943 16.3871C62.8065 16.1321 62.1078 15.9066 61.4125 15.672C61.2671 15.6229 61.1523 15.5472 61.144 15.3808C61.136 15.2217 61.2384 15.1382 61.3698 15.0696C64.2716 13.5562 67.1724 12.0411 70.0726 10.5248C70.2028 10.4567 70.3283 10.4174 70.4562 10.5175C70.5754 10.6108 70.5794 10.7329 70.5574 10.8755C70.4494 11.5773 70.3526 12.2808 70.2485 12.9832C70.1574 13.5984 70.0606 14.2127 69.969 14.8279C69.8645 15.5302 69.7637 16.2331 69.6599 16.9355C69.6062 17.2988 69.5563 17.6628 69.4917 18.024C69.4454 18.2823 69.2925 18.3625 69.0421 18.2776C68.4722 18.0844 67.9031 17.8893 67.3338 17.6945C66.5702 17.4332 65.8067 17.1716 65.0433 16.9099C65.0308 16.9057 65.0194 16.8981 64.9916 16.884Z" fill="white"/>
<path d="M64.5867 16.5686C65.1279 16.7536 65.6453 16.9304 66.1766 17.112C65.9512 17.4197 65.7318 17.7194 65.5122 18.0189C65.3876 18.1889 65.2634 18.3592 65.1378 18.5284C65.0347 18.6673 64.9225 18.7103 64.7834 18.6632C64.6367 18.6136 64.5855 18.5037 64.5859 18.3555C64.5879 17.7668 64.5867 17.1782 64.5867 16.5686Z" fill="white"/>
</svg>
