<svg width="86" height="68" viewBox="0 0 86 68" fill="none" xmlns="http://www.w3.org/2000/svg">
<g clip-path="url(#clip0_4189_9415)">
<path d="M70.8061 2.22925C70.8691 2.26661 70.9393 2.29076 71.0122 2.30024C71.0852 2.30972 71.1595 2.30433 71.2304 2.28438C71.3637 2.24767 71.4778 2.16131 71.5487 2.04341C71.7715 1.67785 71.9962 1.30287 72.2167 0.929062C72.2526 0.867974 72.276 0.800556 72.2857 0.730647C72.2953 0.660738 72.2909 0.589707 72.2728 0.52162C72.2548 0.453532 72.2233 0.389716 72.1802 0.333816C72.1372 0.277915 72.0834 0.231029 72.0219 0.195826C71.9605 0.160623 71.8926 0.137793 71.8221 0.128646C71.7516 0.1195 71.6798 0.124214 71.611 0.142517C71.5422 0.16082 71.4776 0.192359 71.421 0.235325C71.3643 0.278291 71.3167 0.331842 71.2808 0.39293C71.0625 0.762773 70.8401 1.13378 70.6195 1.49537C70.583 1.55596 70.5589 1.62301 70.5486 1.69268C70.5382 1.76236 70.5418 1.83329 70.5591 1.90144C70.5765 1.96959 70.6072 2.03362 70.6496 2.08986C70.6919 2.14611 70.7451 2.19347 70.8061 2.22925Z" fill="white"/>
<path d="M66.944 8.74771C67.0632 8.71415 67.1674 8.64117 67.2392 8.54095C67.4887 8.19463 67.7422 7.83831 67.9934 7.48154C68.0755 7.36447 68.1074 7.22013 68.0823 7.08029C68.0571 6.94045 67.9768 6.81656 67.8591 6.73587C67.7414 6.65517 67.5959 6.62428 67.4547 6.65C67.3134 6.67572 67.1879 6.75595 67.1058 6.87302C66.8582 7.22656 66.607 7.57891 66.361 7.92201C66.2958 8.01239 66.2604 8.12042 66.2596 8.23122C66.2589 8.34203 66.2928 8.45016 66.3567 8.54072C66.4206 8.63127 66.5114 8.6998 66.6166 8.73687C66.7218 8.77394 66.8362 8.77773 66.944 8.74771Z" fill="white"/>
<path d="M49.5771 26.7552C49.5317 26.7013 49.476 26.6568 49.4131 26.6243C49.3502 26.5918 49.2814 26.572 49.2106 26.5659C49.1398 26.5598 49.0685 26.5676 49.0006 26.5889C48.9327 26.6101 48.8696 26.6444 48.815 26.6898C48.4865 26.9625 48.1507 27.2372 47.8169 27.507C47.7206 27.585 47.654 27.6934 47.6285 27.8139C47.603 27.9344 47.62 28.0597 47.6768 28.1687C47.7335 28.2778 47.8265 28.364 47.9402 28.4128C48.0538 28.4617 48.1811 28.4702 48.3008 28.437C48.3727 28.4173 48.4397 28.3827 48.4973 28.3356C48.835 28.0636 49.1744 27.7856 49.5036 27.5116C49.5587 27.4665 49.6042 27.4112 49.6378 27.3487C49.6713 27.2863 49.692 27.2179 49.6989 27.1477C49.7057 27.0774 49.6984 27.0065 49.6775 26.9392C49.6566 26.8719 49.6225 26.8093 49.5771 26.7552Z" fill="white"/>
<path d="M43.2974 32.2669C43.4145 32.1841 43.4939 32.0588 43.5181 31.9185C43.5424 31.7783 43.5094 31.6345 43.4265 31.5189C43.3437 31.4033 43.2176 31.3253 43.0762 31.3021C42.9348 31.2789 42.7895 31.3123 42.6724 31.3951C42.3233 31.6424 41.9667 31.8908 41.6144 32.1346C41.4962 32.2158 41.4153 32.3401 41.3893 32.48C41.3632 32.62 41.3943 32.7641 41.4757 32.8807C41.5571 32.9973 41.6821 33.0769 41.8232 33.1019C41.9642 33.1268 42.1099 33.0952 42.228 33.0139C42.5839 32.7669 42.9444 32.5164 43.2974 32.2669Z" fill="white"/>
<path d="M32.0698 22.3953C32.4804 22.4283 32.8887 22.4841 33.2928 22.5625C33.3756 22.5791 33.4614 22.5757 33.5429 22.5528C33.6601 22.5201 33.763 22.4493 33.835 22.3519C33.9069 22.2544 33.9438 22.1359 33.9396 22.0156C33.9354 21.8952 33.8904 21.78 33.8118 21.6885C33.7333 21.5971 33.6257 21.5346 33.5066 21.5114C33.063 21.4259 32.6147 21.3653 32.1639 21.3298C32.0209 21.3184 31.8789 21.3637 31.7691 21.4558C31.6593 21.5479 31.5906 21.6792 31.5783 21.8209C31.5659 21.9626 31.6108 22.1031 31.7032 22.2114C31.7955 22.3197 31.9277 22.387 32.0707 22.3984L32.0698 22.3953Z" fill="white"/>
<path d="M44.6757 40.216C44.7531 40.2288 44.8325 40.2245 44.9082 40.2035C45.0076 40.1759 45.0972 40.1208 45.1664 40.0446C45.2355 39.9684 45.2813 39.8743 45.2984 39.7735C45.3721 39.3361 45.4298 38.8943 45.4718 38.4602C45.4809 38.3211 45.435 38.1843 45.3439 38.0788C45.2528 37.9732 45.1235 37.9072 44.9835 37.8948C44.8436 37.8823 44.7039 37.9244 44.5942 38.012C44.4844 38.0997 44.4132 38.2261 44.3956 38.3644C44.3557 38.7735 44.301 39.19 44.2315 39.6017C44.2079 39.742 44.2414 39.8855 44.3247 40.0007C44.408 40.1159 44.5343 40.1934 44.6757 40.216Z" fill="white"/>
<path d="M45.1313 36.3598C45.2502 36.3265 45.3542 36.254 45.4262 36.1542C45.4981 36.0545 45.5336 35.9336 45.5268 35.8116C45.5136 35.5585 45.4971 35.3019 45.4674 35.0501C45.4492 34.864 45.4268 34.6746 45.3999 34.4853C45.39 34.4157 45.3665 34.3487 45.3305 34.2882C45.2944 34.2277 45.2467 34.1749 45.19 34.1328C45.1333 34.0907 45.0687 34.0601 45 34.0428C44.9312 34.0255 44.8596 34.0218 44.7892 34.0319C44.7189 34.0421 44.6511 34.0658 44.5899 34.1018C44.5286 34.1378 44.4751 34.1854 44.4323 34.2418C44.3895 34.2982 44.3582 34.3624 44.3404 34.4306C44.3225 34.4989 44.3184 34.5698 44.3282 34.6395C44.3535 34.8147 44.3743 34.9901 44.3918 35.162C44.4151 35.3989 44.4336 35.6383 44.4466 35.8748C44.4498 35.9456 44.4672 36.015 44.4977 36.0789C44.5282 36.1429 44.5712 36.2002 44.6243 36.2474C44.6774 36.2946 44.7395 36.3309 44.807 36.3541C44.8744 36.3773 44.946 36.387 45.0174 36.3826C45.0561 36.3791 45.0942 36.3715 45.1313 36.3598Z" fill="white"/>
<path d="M38.7608 24.4476C38.7156 24.5026 38.6818 24.5658 38.6614 24.6336C38.6409 24.7015 38.6341 24.7726 38.6415 24.8428C38.6489 24.9131 38.6702 24.9812 38.7043 25.0431C38.7383 25.105 38.7845 25.1596 38.8401 25.2036C39.1612 25.4609 39.476 25.7356 39.7781 26.0215C39.8824 26.1141 40.0193 26.1626 40.1596 26.1568C40.3 26.151 40.4329 26.0914 40.5302 25.9904C40.6275 25.8895 40.6815 25.7553 40.6809 25.6161C40.6803 25.477 40.625 25.3438 40.5268 25.2448C40.2045 24.939 39.8662 24.6442 39.522 24.3689C39.4671 24.3245 39.4039 24.2914 39.3359 24.2713C39.2679 24.2513 39.1965 24.2448 39.1258 24.2521C39.0551 24.2594 38.9865 24.2804 38.9239 24.314C38.8613 24.3475 38.8058 24.3929 38.7608 24.4476Z" fill="white"/>
<path d="M43.5488 43.9092C43.6153 43.934 43.6861 43.9455 43.7572 43.9431C43.8284 43.9407 43.8984 43.9244 43.9633 43.8951C44.0282 43.8659 44.0868 43.8243 44.1356 43.7727C44.1843 43.7211 44.2224 43.6605 44.2476 43.5944C44.4065 43.181 44.5522 42.7603 44.6856 42.3441C44.7085 42.2763 44.7175 42.2047 44.7121 42.1335C44.7067 42.0624 44.687 41.9931 44.6541 41.9298C44.6212 41.8664 44.5759 41.8103 44.5207 41.7647C44.4656 41.7191 44.4017 41.6849 44.3329 41.6641C44.264 41.6434 44.1917 41.6365 44.12 41.6439C44.0483 41.6513 43.9787 41.6728 43.9153 41.7071C43.852 41.7414 43.7961 41.7879 43.751 41.8439C43.706 41.8998 43.6726 41.964 43.6528 42.0328C43.5301 42.4271 43.3908 42.8261 43.2405 43.2181C43.1888 43.3508 43.1922 43.4981 43.25 43.6277C43.3078 43.7572 43.4153 43.8585 43.5488 43.9092Z" fill="white"/>
<path d="M37.295 22.8853C36.8983 22.6713 36.4918 22.4745 36.0843 22.3024C35.9528 22.2476 35.8045 22.2467 35.6718 22.2999C35.539 22.353 35.4326 22.456 35.3758 22.5862C35.3191 22.7165 35.3165 22.8634 35.3687 22.9949C35.4209 23.1264 35.5236 23.2318 35.6545 23.2881C36.0302 23.4468 36.4064 23.6276 36.7718 23.8259C36.8973 23.8941 37.0453 23.91 37.1833 23.87C37.3212 23.83 37.4377 23.7374 37.5073 23.6126C37.5768 23.4879 37.5936 23.3411 37.554 23.2047C37.5144 23.0682 37.4216 22.9532 37.2961 22.8851L37.295 22.8853Z" fill="white"/>
<path d="M44.3119 30.6536C44.2543 30.5253 44.148 30.4249 44.0159 30.3741C43.8838 30.3232 43.7365 30.326 43.6058 30.3818C43.4752 30.4377 43.3716 30.5421 43.3176 30.6724C43.2635 30.8028 43.2633 30.9488 43.3169 31.0788C43.4812 31.4587 43.6303 31.8484 43.7589 32.2372C43.8024 32.3676 43.895 32.4761 44.0175 32.5403C44.14 32.6044 44.2829 32.6193 44.4167 32.5818L44.4438 32.5743C44.5798 32.5289 44.6924 32.432 44.7568 32.3048C44.8213 32.1777 44.8323 32.0307 44.7874 31.8961C44.6474 31.4783 44.4882 31.0602 44.3119 30.6536Z" fill="white"/>
<path d="M52.5093 24.2018C52.4618 24.1497 52.4044 24.1074 52.3403 24.0774C52.2762 24.0474 52.2067 24.0302 52.1358 24.0269C52.0648 24.0235 51.9938 24.0341 51.9268 24.0579C51.8598 24.0817 51.7982 24.1184 51.7453 24.1657C51.4271 24.4512 51.1016 24.7386 50.7799 25.0195C50.7242 25.0655 50.6783 25.122 50.645 25.1857C50.6116 25.2494 50.5914 25.319 50.5857 25.3904C50.5799 25.4619 50.5886 25.5336 50.6113 25.6015C50.634 25.6694 50.6703 25.7319 50.7179 25.7856C50.7655 25.8392 50.8235 25.8827 50.8886 25.9136C50.9536 25.9445 51.0243 25.9622 51.0965 25.9655C51.1686 25.9689 51.2409 25.9578 51.3088 25.9331C51.3768 25.9083 51.4391 25.8703 51.4921 25.8214C51.8175 25.5373 52.1469 25.2476 52.4687 24.959C52.5215 24.9117 52.5645 24.8545 52.5952 24.7908C52.6258 24.7272 52.6435 24.6582 52.6473 24.5879C52.6511 24.5175 52.6408 24.4473 52.6172 24.381C52.5935 24.3148 52.5568 24.2539 52.5093 24.2018Z" fill="white"/>
<path d="M38.8064 35.2181C38.8547 35.2046 38.9009 35.1847 38.9437 35.1587C39.3008 34.948 39.6638 34.7146 40.0563 34.4618C40.1767 34.384 40.2613 34.2621 40.2915 34.123C40.3216 33.9839 40.2948 33.839 40.217 33.7201C40.1391 33.6011 40.0166 33.518 39.8764 33.4889C39.7362 33.4598 39.5897 33.4872 39.4692 33.565C39.0884 33.8112 38.7293 34.0346 38.3815 34.246C38.27 34.3137 38.1867 34.419 38.147 34.5423C38.1073 34.6656 38.1139 34.7988 38.1655 34.9172C38.2171 35.0356 38.3103 35.1313 38.4279 35.1867C38.5455 35.242 38.6795 35.2533 38.8053 35.2184L38.8064 35.2181Z" fill="white"/>
<path d="M41.437 27.869C41.6869 28.1973 41.9275 28.5404 42.1514 28.8926C42.2135 28.9891 42.3053 29.0632 42.4133 29.1039C42.5213 29.1447 42.6399 29.1499 42.7516 29.1188C42.8032 29.1045 42.8524 29.0826 42.8975 29.0537C42.9575 29.0157 43.0095 28.9665 43.0504 28.9087C43.0913 28.851 43.1204 28.7859 43.136 28.7171C43.1516 28.6484 43.1534 28.5773 43.1412 28.508C43.1291 28.4387 43.1033 28.3726 43.0653 28.3133C42.8269 27.9418 42.5698 27.5755 42.3036 27.2251C42.2175 27.1119 42.0893 27.0374 41.9473 27.0181C41.8053 26.9988 41.661 27.0362 41.5462 27.1222C41.4315 27.2081 41.3556 27.3355 41.3353 27.4763C41.315 27.6172 41.352 27.7599 41.4381 27.8731L41.437 27.869Z" fill="white"/>
<path d="M45.2287 30.8227C45.2937 30.8046 45.3547 30.7744 45.4084 30.7337C45.7546 30.4761 46.1031 30.2067 46.449 29.948C46.5628 29.8607 46.6372 29.7324 46.6558 29.5913C46.6744 29.4502 46.6357 29.3079 46.5483 29.1956C46.4608 29.0833 46.3317 29.0103 46.1894 28.9927C46.0471 28.975 45.9032 29.0141 45.7894 29.1014C45.4496 29.3617 45.1041 29.6259 44.7613 29.8792C44.66 29.9545 44.5884 30.0623 44.5586 30.1839C44.5289 30.3056 44.543 30.4335 44.5985 30.5455C44.654 30.6575 44.7474 30.7465 44.8625 30.7971C44.9775 30.8478 45.1071 30.8568 45.2287 30.8227Z" fill="white"/>
<path d="M58.069 18.7719C58.0176 18.7236 57.9571 18.6858 57.8908 18.6608C57.8246 18.6357 57.754 18.6239 57.6829 18.6259C57.6119 18.628 57.5419 18.6438 57.477 18.6726C57.412 18.7015 57.3533 18.7426 57.3043 18.7938C57.0073 19.0989 56.7061 19.4129 56.4067 19.7176C56.3534 19.7672 56.3107 19.8269 56.2812 19.8931C56.2517 19.9594 56.2359 20.0308 56.235 20.1031C56.234 20.1753 56.2478 20.2469 56.2755 20.3136C56.3032 20.3803 56.3443 20.4407 56.3963 20.4911C56.4482 20.5415 56.51 20.5809 56.5779 20.607C56.6458 20.633 56.7184 20.6452 56.7913 20.6427C56.8642 20.6402 56.9359 20.6231 57.0021 20.5925C57.0683 20.5619 57.1277 20.5183 57.1767 20.4645C57.4799 20.1577 57.7895 19.8413 58.0837 19.5303C58.1331 19.4793 58.1719 19.4192 58.1979 19.3535C58.2239 19.2877 58.2365 19.2176 58.2352 19.1472C58.2338 19.0767 58.2184 19.0073 58.1899 18.9429C58.1614 18.8785 58.1203 18.8204 58.069 18.7719Z" fill="white"/>
<path d="M35.4255 37.0006C35.8206 36.8338 36.2257 36.6464 36.6338 36.4416C36.7623 36.3777 36.8602 36.2661 36.9061 36.1312C36.9519 35.9962 36.9419 35.8491 36.8782 35.7221C36.8145 35.5951 36.7023 35.4987 36.5664 35.454C36.4305 35.4093 36.2819 35.4201 36.1534 35.4839C35.7655 35.6765 35.3783 35.8555 35.0035 36.0145C34.8677 36.0619 34.7562 36.1607 34.6935 36.2892C34.6308 36.4177 34.622 36.5653 34.6691 36.6996C34.7162 36.8338 34.8153 36.9438 34.9447 37.0052C35.074 37.0666 35.2229 37.0744 35.3587 37.027C35.3815 37.0197 35.4039 37.0109 35.4255 37.0006Z" fill="white"/>
<path d="M20.9433 60.6979C20.538 60.832 20.1245 60.965 19.7153 61.0935C19.5777 61.1342 19.4617 61.2273 19.3929 61.3524C19.3241 61.4775 19.3081 61.6242 19.3484 61.7604C19.3887 61.8965 19.4821 62.011 19.6079 62.0784C19.7338 62.1459 19.8818 62.161 20.0195 62.1202L20.0372 62.1153C20.4502 61.9846 20.87 61.8499 21.2813 61.713C21.4177 61.6678 21.5306 61.5708 21.5953 61.4434C21.66 61.3161 21.6712 61.1687 21.6263 61.0338C21.5814 60.899 21.4841 60.7876 21.3559 60.7242C21.2278 60.6608 21.0791 60.6506 20.9427 60.6958L20.9433 60.6979Z" fill="white"/>
<path d="M69.1505 5.55734C69.2766 5.52202 69.3859 5.44261 69.4578 5.33385C69.6956 4.97747 69.9308 4.61181 70.1662 4.24718C70.2059 4.18774 70.2332 4.12115 70.2467 4.05129C70.2602 3.98142 70.2595 3.90967 70.2447 3.84022C70.23 3.77077 70.2014 3.705 70.1606 3.64674C70.1199 3.58848 70.0678 3.53889 70.0075 3.50087C69.9471 3.46285 69.8796 3.43716 69.809 3.42527C69.7383 3.41339 69.6659 3.41557 69.596 3.43167C69.526 3.44777 69.46 3.47748 69.4016 3.51907C69.3432 3.56065 69.2937 3.61328 69.2559 3.6739C69.0198 4.03646 68.7835 4.39799 68.5522 4.74924C68.4914 4.84058 68.46 4.948 68.4624 5.05712C68.4647 5.16624 68.5007 5.27186 68.5654 5.35983C68.6301 5.44781 68.7205 5.51395 68.8245 5.5494C68.9285 5.58486 69.0411 5.58793 69.1473 5.55821L69.1505 5.55734Z" fill="white"/>
<path d="M64.8297 9.99056C64.5706 10.3307 64.3068 10.6743 64.0452 11.0095C64.0017 11.0654 63.9698 11.1292 63.9511 11.1972C63.9325 11.2652 63.9275 11.3361 63.9365 11.4058C63.9455 11.4756 63.9683 11.5428 64.0036 11.6037C64.0389 11.6645 64.086 11.7179 64.1421 11.7606C64.1983 11.8033 64.2625 11.8346 64.331 11.8527C64.3995 11.8708 64.4711 11.8753 64.5415 11.866C64.6119 11.8567 64.6799 11.8337 64.7415 11.7985C64.8032 11.7632 64.8573 11.7162 64.9007 11.6603C65.1656 11.3208 65.433 10.974 65.6944 10.6299C65.7781 10.5159 65.8133 10.3741 65.7926 10.2352C65.7718 10.0962 65.6968 9.97123 65.5835 9.88714C65.4703 9.80304 65.328 9.76659 65.1874 9.78563C65.0467 9.80468 64.9189 9.87769 64.8315 9.98894L64.8297 9.99056Z" fill="white"/>
<path d="M22.238 32.8084C22.2127 32.7425 22.1745 32.6822 22.1256 32.6311C22.0767 32.5799 22.0181 32.5388 21.953 32.5102C21.888 32.4815 21.8178 32.4659 21.7465 32.4642C21.6752 32.4625 21.6042 32.4747 21.5375 32.5001C21.4708 32.5256 21.4098 32.5638 21.3578 32.6125C21.3059 32.6612 21.2641 32.7196 21.2349 32.7842C21.2056 32.8488 21.1895 32.9184 21.1873 32.9891C21.1852 33.0597 21.1971 33.13 21.2224 33.196C21.3313 33.4782 21.4582 33.7532 21.6025 34.0193C21.6799 34.16 21.7628 34.3003 21.8503 34.4371C21.9123 34.5339 22.004 34.6082 22.1121 34.6491C22.2203 34.69 22.339 34.6954 22.4508 34.6643C22.502 34.6501 22.5509 34.6282 22.5956 34.5995C22.6558 34.5616 22.7079 34.5124 22.7489 34.4547C22.79 34.3969 22.8192 34.3318 22.8349 34.263C22.8506 34.1942 22.8524 34.1231 22.8403 34.0538C22.8283 33.9844 22.8025 33.9182 22.7645 33.8588C22.6908 33.7438 22.6195 33.6247 22.5536 33.5052C22.4327 33.2803 22.3273 33.0475 22.238 32.8084Z" fill="white"/>
<path d="M60.6891 15.9042C60.6359 15.8579 60.5739 15.8224 60.5068 15.7999C60.4396 15.7773 60.3686 15.7681 60.2977 15.7728C60.2268 15.7775 60.1574 15.796 60.0936 15.8272C60.0297 15.8584 59.9727 15.9017 59.9256 15.9547C59.6408 16.2753 59.3518 16.597 59.0684 16.9105C59.0206 16.9629 58.9837 17.024 58.9597 17.0904C58.9357 17.1567 58.9251 17.2271 58.9285 17.2973C58.9354 17.4392 58.999 17.5723 59.1051 17.6673C59.2113 17.7622 59.3515 17.8113 59.4947 17.8037C59.638 17.7961 59.7727 17.7324 59.8691 17.6266C60.159 17.308 60.4526 16.9827 60.7399 16.6592C60.8341 16.5518 60.8817 16.412 60.8722 16.2704C60.8626 16.1289 60.7968 15.9972 60.6891 15.9042Z" fill="white"/>
<path d="M25.2822 59.6887C25.2565 59.6232 25.218 59.5635 25.1689 59.5129C25.1199 59.4623 25.0612 59.4218 24.9962 59.3938C24.9312 59.3657 24.8612 59.3507 24.7902 59.3495C24.7192 59.3483 24.6485 59.361 24.5823 59.3868C24.1872 59.5414 23.7818 59.6955 23.3785 59.8446C23.2417 59.8887 23.1279 59.9846 23.0621 60.1113C22.9963 60.2381 22.9838 60.3852 23.0275 60.5205C23.0711 60.6557 23.1673 60.7679 23.2949 60.8324C23.4224 60.8969 23.5709 60.9085 23.7076 60.8645C23.7225 60.8614 23.7371 60.8573 23.7514 60.8523C24.159 60.702 24.5737 60.5453 24.9759 60.3876C25.0423 60.3616 25.103 60.3228 25.1545 60.2736C25.2059 60.2243 25.247 60.1655 25.2755 60.1005C25.304 60.0355 25.3192 59.9657 25.3204 59.895C25.3215 59.8243 25.3085 59.7542 25.2822 59.6887Z" fill="white"/>
<path d="M35.5403 54.1632C35.498 54.1068 35.445 54.0592 35.384 54.0232C35.3231 53.9872 35.2556 53.9635 35.1852 53.9535C35.1149 53.9435 35.0432 53.9473 34.9742 53.9647C34.9052 53.9822 34.8403 54.0129 34.7832 54.0552C34.4532 54.2983 34.1028 54.5449 33.743 54.7897C33.6357 54.8609 33.5574 54.9676 33.5222 55.0905C33.4869 55.2134 33.497 55.3445 33.5507 55.4602C33.6043 55.5759 33.698 55.6686 33.8148 55.7216C33.9316 55.7746 34.064 55.7845 34.188 55.7495C34.244 55.7339 34.2972 55.7094 34.3452 55.6767C34.7194 55.4268 35.084 55.1707 35.4269 54.9173C35.4846 54.8752 35.5333 54.8221 35.5703 54.7613C35.6073 54.7004 35.6317 54.633 35.6423 54.5628C35.6528 54.4927 35.6492 54.4213 35.6317 54.3527C35.6142 54.2841 35.5831 54.2197 35.5403 54.1632Z" fill="white"/>
<path d="M37.6778 51.5767C37.3795 51.8732 37.0681 52.1668 36.7545 52.4487C36.7011 52.4959 36.6576 52.5531 36.6266 52.6169C36.5955 52.6808 36.5775 52.75 36.5735 52.8206C36.5695 52.8912 36.5797 52.9619 36.6034 53.0284C36.6271 53.095 36.664 53.1561 36.7117 53.2084C36.7595 53.2607 36.8173 53.303 36.8818 53.3329C36.9463 53.3628 37.0162 53.3798 37.0875 53.3828C37.1588 53.3858 37.23 53.3747 37.2972 53.3503C37.3643 53.3259 37.4259 53.2887 37.4786 53.2406C37.8055 52.9461 38.1295 52.6413 38.4404 52.3334C38.5422 52.2327 38.5997 52.0962 38.6002 51.954C38.6007 51.8118 38.5442 51.6755 38.4431 51.5752C38.3419 51.4748 38.2045 51.4186 38.061 51.4189C37.9175 51.4192 37.7796 51.4759 37.6778 51.5767Z" fill="white"/>
<path d="M32.3027 56.3227C32.2677 56.2616 32.2208 56.2081 32.1648 56.1651C32.1088 56.1221 32.0448 56.0905 31.9763 56.0721C31.9079 56.0537 31.8363 56.0489 31.7658 56.0579C31.6953 56.0669 31.6272 56.0896 31.5654 56.1246C31.2015 56.3306 30.8231 56.5372 30.4402 56.7395C30.3133 56.8065 30.2182 56.9206 30.1758 57.0567C30.1335 57.1927 30.1473 57.3396 30.2143 57.4649C30.2812 57.5903 30.3958 57.6838 30.5329 57.7251C30.67 57.7663 30.8183 57.7518 30.9452 57.6847C31.3369 57.4777 31.727 57.2645 32.0987 57.0542C32.1605 57.0192 32.2148 56.9725 32.2585 56.9168C32.3022 56.861 32.3345 56.7974 32.3534 56.7295C32.3723 56.6615 32.3776 56.5906 32.3689 56.5208C32.3602 56.451 32.3377 56.3837 32.3027 56.3227Z" fill="white"/>
<path d="M28.8561 58.1347C28.8263 58.0709 28.7841 58.0137 28.7319 57.9662C28.6797 57.9188 28.6186 57.882 28.5519 57.8581C28.4852 57.8341 28.4144 57.8234 28.3434 57.8267C28.2724 57.8299 28.2026 57.8469 28.1382 57.8768C27.7549 58.0537 27.3605 58.2314 26.9648 58.4039C26.8292 58.4519 26.718 58.5512 26.6558 58.6799C26.5936 58.8087 26.5855 58.9564 26.6331 59.0905C26.6808 59.2246 26.7804 59.3342 26.91 59.3951C27.0396 59.456 27.1886 59.4633 27.3242 59.4153C27.3494 59.4105 27.3742 59.4036 27.3982 59.3947C27.7989 59.2196 28.2044 59.0377 28.5965 58.8562C28.6617 58.8259 28.7202 58.7832 28.7687 58.7303C28.8172 58.6775 28.8546 58.6157 28.8788 58.5486C28.9029 58.4814 28.9134 58.4102 28.9095 58.3391C28.9056 58.2681 28.8874 58.1986 28.8561 58.1347Z" fill="white"/>
<path d="M27.0859 37.4108C27.0712 37.4797 27.0703 37.5507 27.0832 37.6199C27.0962 37.689 27.1228 37.7548 27.1615 37.8136C27.2002 37.8724 27.2503 37.9229 27.3089 37.9624C27.3674 38.0019 27.4333 38.0296 27.5028 38.0438C27.9476 38.1356 28.3979 38.2002 28.8511 38.2371C28.994 38.2487 29.1361 38.2035 29.2461 38.1115C29.356 38.0195 29.4248 37.8881 29.4373 37.7464C29.4498 37.6046 29.405 37.4641 29.3127 37.3557C29.2205 37.2473 29.0883 37.1798 28.9453 37.1682C28.5364 37.1351 28.13 37.0773 27.7284 36.995C27.6589 36.9805 27.5871 36.9799 27.5172 36.993C27.4473 37.0061 27.3806 37.0327 27.3209 37.0713C27.2612 37.1099 27.2097 37.1598 27.1694 37.218C27.1291 37.2763 27.1007 37.3418 27.0859 37.4108Z" fill="white"/>
<path d="M43.1569 46.0025C43.1914 45.9398 43.213 45.871 43.2204 45.8C43.2278 45.7291 43.2208 45.6575 43.1999 45.5894C43.179 45.5213 43.1445 45.4581 43.0986 45.4035C43.0527 45.3489 42.9961 45.304 42.9323 45.2714C42.8685 45.2388 42.7987 45.2192 42.727 45.2137C42.6553 45.2083 42.5832 45.217 42.5148 45.2395C42.4464 45.262 42.3831 45.2977 42.3287 45.3447C42.2743 45.3916 42.2298 45.4488 42.1979 45.5128C42.004 45.8814 41.797 46.2515 41.5809 46.6129C41.5446 46.6736 41.5207 46.7407 41.5106 46.8104C41.5004 46.8801 41.5042 46.951 41.5217 47.0191C41.5392 47.0872 41.5701 47.1511 41.6127 47.2073C41.6552 47.2634 41.7085 47.3106 41.7695 47.3462C41.8306 47.3818 41.8982 47.4051 41.9685 47.4148C42.0388 47.4245 42.1104 47.4203 42.1792 47.4026C42.248 47.3848 42.3127 47.3539 42.3696 47.3114C42.4265 47.269 42.4744 47.2159 42.5107 47.1552C42.7366 46.7766 42.9542 46.388 43.1569 46.0025Z" fill="white"/>
<path d="M20.8575 29.1205C20.7805 29.5723 20.7411 30.0294 20.7395 30.4872C20.7393 30.5576 20.7531 30.6273 20.7801 30.6923C20.8072 30.7572 20.8469 30.8162 20.8971 30.8658C20.9472 30.9155 21.0068 30.9547 21.0724 30.9814C21.138 31.0082 21.2083 31.0217 21.2794 31.0215C21.3283 31.0209 21.377 31.0141 21.4243 31.0011C21.5383 30.9694 21.6388 30.9016 21.7106 30.8082C21.7823 30.7147 21.8213 30.6007 21.8216 30.4835C21.8222 30.0838 21.8564 29.6846 21.9238 29.2901C21.9364 29.2203 21.9348 29.1488 21.9193 29.0798C21.9037 29.0107 21.8745 28.9455 21.8332 28.8879C21.792 28.8302 21.7396 28.7813 21.6791 28.744C21.6185 28.7066 21.5511 28.6816 21.4806 28.6703C21.41 28.659 21.3379 28.6617 21.2683 28.6782C21.1987 28.6947 21.133 28.7248 21.075 28.7665C21.017 28.8083 20.9679 28.861 20.9305 28.9216C20.8931 28.9822 20.8682 29.0494 20.8572 29.1194L20.8575 29.1205Z" fill="white"/>
<path d="M53.6221 23.1792C53.671 23.2302 53.7295 23.271 53.7944 23.2995C53.8593 23.3279 53.9293 23.3434 54.0004 23.3449C54.0715 23.3465 54.1423 23.3341 54.2087 23.3086C54.2751 23.283 54.3359 23.2447 54.3875 23.196C54.6972 22.904 55.009 22.6037 55.3293 22.2977C55.3821 22.2489 55.4245 22.1901 55.4542 22.125C55.4839 22.0598 55.5001 21.9895 55.502 21.9182C55.5039 21.8468 55.4914 21.776 55.4653 21.7096C55.4391 21.6433 55.3998 21.5829 55.3497 21.5319C55.2996 21.481 55.2397 21.4405 55.1735 21.4129C55.1072 21.3853 55.036 21.3712 54.964 21.3712C54.892 21.3713 54.8207 21.3856 54.7542 21.4133C54.6877 21.441 54.6273 21.4816 54.5767 21.5326C54.2652 21.8339 53.9507 22.1328 53.6447 22.4215C53.593 22.47 53.5514 22.5282 53.5223 22.5925C53.4932 22.6569 53.4771 22.7262 53.475 22.7966C53.4729 22.8669 53.4848 22.9369 53.5101 23.0026C53.5353 23.0682 53.5734 23.1282 53.6221 23.1792Z" fill="white"/>
<path d="M28.4039 22.7356C28.8015 22.6273 29.205 22.542 29.6124 22.4799C29.6343 22.4755 29.6559 22.4694 29.677 22.4619C29.8176 22.4316 29.9405 22.3473 30.0188 22.2275C30.0971 22.1077 30.1243 21.9622 30.0945 21.8231C30.0647 21.6841 29.9803 21.5627 29.8598 21.4858C29.7393 21.4089 29.5927 21.3827 29.4521 21.4131C29.0033 21.4813 28.5587 21.5755 28.1206 21.6952C27.9822 21.7329 27.8642 21.8235 27.7926 21.9471C27.721 22.0706 27.7018 22.217 27.7391 22.354C27.7764 22.491 27.8671 22.6074 27.9914 22.6776C28.1157 22.7478 28.2634 22.7661 28.4018 22.7284L28.4039 22.7356Z" fill="white"/>
<path d="M40.1717 48.713C39.9214 49.0484 39.6574 49.3832 39.3887 49.7093C39.3435 49.7638 39.3095 49.8265 39.2886 49.8939C39.2678 49.9613 39.2605 50.032 39.2673 50.102C39.274 50.172 39.2946 50.24 39.3279 50.3019C39.3611 50.3639 39.4065 50.4187 39.4612 50.4633C39.516 50.5078 39.5791 50.5411 39.647 50.5614C39.7149 50.5817 39.7862 50.5885 39.8569 50.5814C39.9276 50.5743 39.9963 50.5536 40.0591 50.5202C40.1218 50.4869 40.1774 50.4417 40.2226 50.3872C40.5036 50.0488 40.7783 49.6999 41.0403 49.3501C41.126 49.2356 41.1624 49.0923 41.1415 48.9518C41.1207 48.8113 41.0443 48.685 40.9292 48.6008C40.8141 48.5166 40.6697 48.4813 40.5278 48.5027C40.3858 48.5241 40.2579 48.6005 40.1723 48.715L40.1717 48.713Z" fill="white"/>
<path d="M31.4055 37.0739C31.2636 37.0959 31.1361 37.1728 31.051 37.2876C30.9658 37.4024 30.93 37.5458 30.9514 37.6862C30.9728 37.8266 31.0497 37.9525 31.1651 38.0363C31.2805 38.12 31.425 38.1547 31.5668 38.1327C32.0029 38.0645 32.4473 37.974 32.8892 37.862L32.9017 37.8585C32.9704 37.8403 33.0348 37.8088 33.0914 37.7659C33.1479 37.723 33.1955 37.6696 33.2313 37.6086C33.2671 37.5476 33.2904 37.4803 33.3 37.4106C33.3096 37.3408 33.3053 37.2699 33.2872 37.202C33.2692 37.134 33.2378 37.0703 33.1948 37.0145C33.1518 36.9587 33.0982 36.9119 33.0368 36.8768C32.9755 36.8417 32.9077 36.8189 32.8374 36.8098C32.767 36.8006 32.6954 36.8053 32.6267 36.8236C32.2186 36.9274 31.8064 37.0089 31.4055 37.0739Z" fill="white"/>
<path d="M24.9065 24.4018C24.9699 24.384 25.0296 24.3549 25.0826 24.316C25.4128 24.0744 25.7582 23.8541 26.1168 23.6565C26.1817 23.6238 26.2394 23.5784 26.2864 23.5232C26.3334 23.468 26.3688 23.404 26.3903 23.3351C26.4118 23.2661 26.4191 23.1937 26.4118 23.122C26.4044 23.0504 26.3826 22.9811 26.3475 22.9182C26.3124 22.8552 26.2649 22.8001 26.2077 22.7559C26.1505 22.7117 26.0848 22.6795 26.0146 22.6611C25.9444 22.6427 25.8711 22.6386 25.7991 22.649C25.7271 22.6593 25.6578 22.6839 25.5955 22.7214C25.1971 22.9408 24.8134 23.1854 24.4468 23.4539C24.3442 23.5284 24.2711 23.636 24.2403 23.7581C24.2095 23.8802 24.2228 24.0088 24.2781 24.1216C24.3334 24.2344 24.427 24.3242 24.5426 24.3752C24.6583 24.4262 24.7885 24.4352 24.9107 24.4006L24.9065 24.4018Z" fill="white"/>
<path d="M22.3607 27.2899C22.4318 27.2701 22.4982 27.2361 22.5557 27.1901C22.6132 27.1441 22.6606 27.0869 22.6951 27.0222C22.8421 26.7438 23.007 26.4751 23.1889 26.2176L23.3436 26.0067C23.3893 25.9506 23.4233 25.8861 23.4434 25.817C23.4636 25.7478 23.4695 25.6755 23.4608 25.6042C23.4522 25.5328 23.4291 25.4641 23.393 25.4019C23.3569 25.3398 23.3086 25.2855 23.2508 25.2424C23.193 25.1993 23.127 25.1682 23.0567 25.1509C22.9864 25.1337 22.9132 25.1306 22.8415 25.142C22.7698 25.1533 22.7011 25.1789 22.6394 25.217C22.5777 25.2552 22.5244 25.3052 22.4825 25.3641C22.4224 25.4431 22.3627 25.5231 22.3057 25.6045C22.0965 25.8991 21.9068 26.2067 21.7376 26.5254C21.6885 26.6182 21.6677 26.723 21.6779 26.827C21.6882 26.931 21.7289 27.0295 21.795 27.1106C21.8612 27.1916 21.95 27.2516 22.0504 27.2831C22.1508 27.3146 22.2585 27.3162 22.3602 27.2878L22.3607 27.2899Z" fill="white"/>
<path d="M62.4385 13.0213C62.1698 13.3474 61.8929 13.6802 61.6141 14.0102C61.5218 14.1195 61.4768 14.2604 61.4892 14.402C61.5016 14.5435 61.5702 14.6741 61.68 14.7649C61.7898 14.8558 61.9318 14.8995 62.0747 14.8865C62.2176 14.8734 62.3498 14.8047 62.4421 14.6954C62.7232 14.3614 63.0037 14.0253 63.2757 13.695C63.3213 13.6403 63.3556 13.5774 63.3766 13.5097C63.3975 13.442 63.4048 13.3709 63.398 13.3005C63.3911 13.2302 63.3703 13.162 63.3367 13.0998C63.303 13.0376 63.2573 12.9827 63.202 12.9382C63.1468 12.8938 63.0831 12.8607 63.0148 12.8408C62.9464 12.8209 62.8747 12.8146 62.8037 12.8223C62.7327 12.83 62.6639 12.8516 62.6012 12.8857C62.5385 12.9199 62.4832 12.966 62.4385 13.0213Z" fill="white"/>
<path d="M23.7538 36.4331C24.1247 36.7028 24.5166 36.9429 24.9259 37.1513C24.989 37.1852 25.0584 37.2062 25.1299 37.2131C25.2015 37.22 25.2738 37.2128 25.3426 37.1917C25.4115 37.1706 25.4754 37.1361 25.5308 37.0903C25.5862 37.0444 25.6318 36.9882 25.665 36.9248C25.6983 36.8614 25.7184 36.7921 25.7244 36.721C25.7303 36.65 25.7219 36.5785 25.6996 36.5109C25.6773 36.4432 25.6415 36.3808 25.5945 36.3271C25.5474 36.2735 25.49 36.2297 25.4255 36.1984C25.0666 36.016 24.7232 35.8054 24.3983 35.5688C24.3413 35.5272 24.2765 35.4971 24.2076 35.4804C24.1387 35.4637 24.067 35.4606 23.9968 35.4713C23.9265 35.482 23.859 35.5063 23.7981 35.5428C23.7371 35.5793 23.684 35.6273 23.6417 35.6841C23.5994 35.7408 23.5687 35.8052 23.5514 35.8736C23.5342 35.9419 23.5306 36.0129 23.541 36.0825C23.5514 36.152 23.5756 36.2188 23.6121 36.279C23.6486 36.3391 23.6968 36.3915 23.7538 36.4331Z" fill="white"/>
<path d="M12.1308 63.6285C14.7338 63.9135 18.0643 64.6759 20.2891 65.801L17.9209 62.2827C17.9179 62.2531 17.9127 62.2237 17.9054 62.1948C17.8975 62.1698 17.8881 62.1453 17.8771 62.1215L18.3376 57.8916C16.8942 59.9334 14.3005 62.1613 12.1308 63.6285Z" fill="white"/>
</g>
<defs>
<clipPath id="clip0_4189_9415">
<rect width="74.8774" height="49.4726" fill="white" transform="translate(0 20.102) rotate(-15.5731)"/>
</clipPath>
</defs>
</svg>
