<svg width="60" height="60" viewBox="0 0 60 60" fill="none" xmlns="http://www.w3.org/2000/svg">
<g clip-path="url(#clip0_4189_2690)">
<path d="M42.8112 20.5892C42.2434 20.5589 41.7114 20.5048 41.1785 20.504C34.5188 20.4984 27.0488 20.4992 20.3891 20.504C19.1262 20.504 17.8626 20.5239 16.5908 20.535C16.6017 20.4803 16.6186 20.4269 16.6411 20.3757C17.1991 19.2606 18.1197 18.6719 19.376 18.5843C19.6583 18.5644 19.9438 18.5787 20.2269 18.5787C26.4608 18.5787 33.5057 18.5787 39.7388 18.5787C41.0876 18.5787 42.0909 19.153 42.7074 20.3407C42.7528 20.4291 42.7828 20.5223 42.8112 20.5892Z" fill="white"/>
<path d="M18.4629 16.9513C18.6332 16.1261 19.6033 15.2515 20.6155 15.0651C20.8143 15.0268 21.0163 15.0063 21.2189 15.0038C26.6004 15.0038 32.7937 14.9942 38.176 15.0038C39.4421 15.0038 40.3408 15.6259 40.8809 16.7466C40.9038 16.7983 40.9228 16.8515 40.9377 16.9059C38.5353 16.9059 26.396 16.8971 23.9863 16.8955C21.5766 16.894 37.8167 16.8852 35.4046 16.8955C32.9924 16.9059 20.8572 16.8422 18.4629 16.9513Z" fill="white"/>
<path d="M44.9958 24.9288C44.999 24.6709 44.9717 24.4135 44.9147 24.1618C44.6186 22.955 43.617 22.215 42.2771 22.2134C38.4237 22.2134 28.0833 22.2134 24.2283 22.2134C20.4162 22.2134 20.6596 22.2134 16.8475 22.2134C16.5945 22.2053 16.3412 22.2221 16.0916 22.2636C14.8134 22.5225 14.0047 23.5452 14.0039 24.8986C14.0039 28.8151 14.0039 38.3083 14.0039 42.2249C14.0039 43.8921 15.1005 44.965 16.8029 44.965C24.4586 44.965 34.5476 44.965 42.2033 44.965C43.9065 44.965 45.0007 43.8937 45.0015 42.2241C45.0007 38.3187 45.0007 28.8359 44.9958 24.9288ZM39.3759 34.1591C39.3617 34.2115 39.3508 34.2647 39.3434 34.3184C39.2575 35.6587 38.8727 36.9639 38.216 38.1418C36.6799 40.8788 34.3464 42.5547 31.2214 43.1457C30.8442 43.2166 30.4598 43.2485 30.0794 43.2986H28.922C28.8729 43.2852 28.8231 43.2748 28.7727 43.2676C27.401 43.1899 26.0648 42.8087 24.8642 42.1524C21.6304 40.3626 19.8696 37.6337 19.6409 33.9863C19.5293 32.2579 19.9263 30.5344 20.7845 29.0214C22.3163 26.2813 24.6481 24.6126 27.78 24.0152C28.1563 23.9435 28.5408 23.9116 28.922 23.8615H30.0794C30.1279 23.8756 30.1776 23.886 30.2278 23.8925C31.4237 23.9616 32.594 24.2618 33.6716 24.7759C36.7115 26.2423 38.5697 28.6136 39.2202 31.8882C39.294 32.2578 39.3248 32.6354 39.3759 33.0097V34.1591ZM29.5019 25.813C25.1675 25.813 21.5988 29.3225 21.5972 33.5888C21.5955 37.8551 25.1659 41.3646 29.4994 41.3662C33.833 41.3678 37.4025 37.8567 37.4033 33.5904C37.4042 29.3241 33.8371 25.8146 29.5019 25.813ZM33.756 34.2356C33.6427 34.3199 33.5238 34.3966 33.3999 34.465C31.6382 35.4681 29.8758 36.4686 28.1125 37.4664C27.9189 37.5764 27.7106 37.6592 27.4937 37.7125C27.3209 37.7583 27.1368 37.7349 26.9816 37.6473C26.8265 37.5598 26.7131 37.4153 26.6664 37.2457C26.6076 37.0562 26.5773 36.8592 26.5763 36.6611C26.5682 35.6296 26.5763 34.598 26.5763 33.5665C26.5763 32.5573 26.5763 31.5473 26.5763 30.5397C26.5734 30.3851 26.5881 30.2306 26.6201 30.0793C26.7483 29.5392 27.1879 29.317 27.7151 29.5217C27.8402 29.5708 27.9614 29.6291 28.0776 29.6961C29.8663 30.7109 31.6542 31.7268 33.4413 32.7437C33.552 32.8055 33.6582 32.8747 33.7592 32.9508C34.2337 33.3132 34.2329 33.8684 33.756 34.2356Z" fill="white"/>
</g>
<defs>
<clipPath id="clip0_4189_2690">
<rect width="31" height="30" fill="white" transform="translate(14 15)"/>
</clipPath>
</defs>
</svg>
