<svg width="73" height="73" viewBox="0 0 73 73" fill="none" xmlns="http://www.w3.org/2000/svg">
<g clip-path="url(#clip0_4189_9508)">
<path d="M59.6476 50.0542C59.7673 50.094 59.8983 50.0846 60.0118 50.028C60.1253 49.9713 60.2121 49.8721 60.253 49.7522C60.3791 49.3821 60.4992 49.0087 60.6084 48.642C60.6389 48.5402 60.6346 48.4314 60.5963 48.3328C60.558 48.2342 60.4879 48.1514 60.3969 48.0976C60.3059 48.0438 60.1994 48.0219 60.0941 48.0356C59.9888 48.0492 59.8907 48.0975 59.8154 48.1728C59.7588 48.2297 59.7169 48.2995 59.6936 48.3762C59.5878 48.7314 59.4726 49.0933 59.3506 49.4512C59.3097 49.5713 59.3181 49.7022 59.3738 49.8152C59.4295 49.9283 59.528 50.0142 59.6476 50.0542Z" fill="white"/>
<path d="M60.6186 46.753C60.6799 46.7653 60.7432 46.7654 60.8047 46.7533C60.8663 46.7412 60.925 46.717 60.9774 46.6823C61.0298 46.6476 61.075 46.6029 61.1103 46.5508C61.1456 46.4988 61.1704 46.4404 61.1832 46.379C61.2621 45.9982 61.333 45.6121 61.3917 45.2314C61.4118 45.1063 61.3815 44.9787 61.3074 44.8767C61.2333 44.7747 61.1215 44.7066 60.9965 44.6875C60.8716 44.6684 60.7437 44.6997 60.6411 44.7747C60.5384 44.8496 60.4695 44.962 60.4493 45.0871C60.3907 45.4543 60.3219 45.8263 60.2451 46.1928C60.2325 46.2544 60.2322 46.3178 60.2442 46.3794C60.2561 46.4409 60.2802 46.4994 60.3149 46.5514C60.3496 46.6035 60.3942 46.6481 60.4464 46.6827C60.4985 46.7172 60.557 46.7412 60.6186 46.753Z" fill="white"/>
<path d="M40.213 27.8335C40.5867 27.7117 40.9516 27.5986 41.2969 27.4957C41.3585 27.4791 41.4162 27.4503 41.4667 27.4111C41.5172 27.3718 41.5593 27.323 41.5908 27.2674C41.6222 27.2118 41.6422 27.1505 41.6497 27.0872C41.6572 27.024 41.6519 26.9599 41.6342 26.8989C41.6165 26.8379 41.5868 26.7812 41.5467 26.732C41.5067 26.6829 41.4571 26.6423 41.401 26.6128C41.3449 26.5832 41.2833 26.5652 41.2199 26.5599C41.1565 26.5545 41.0926 26.562 41.0319 26.5817C40.6785 26.6859 40.3055 26.8031 39.9236 26.9277C39.8616 26.9451 39.8036 26.9749 39.7531 27.0152C39.7026 27.0556 39.6608 27.1056 39.63 27.1624C39.5993 27.2192 39.5803 27.2815 39.5742 27.3456C39.5681 27.4097 39.575 27.4743 39.5946 27.5354C39.6141 27.5965 39.6458 27.653 39.6878 27.7014C39.7299 27.7498 39.7813 27.7891 39.8391 27.8169C39.8969 27.8448 39.9598 27.8606 40.024 27.8634C40.0883 27.8663 40.1526 27.8561 40.213 27.8335Z" fill="white"/>
<path d="M27.0896 32.1643C27.4691 32.0903 27.8521 32.0089 28.2283 31.9221C28.2895 31.908 28.3473 31.882 28.3986 31.8455C28.4499 31.8091 28.4936 31.763 28.5272 31.7099C28.5608 31.6567 28.5837 31.5975 28.5945 31.5357C28.6053 31.4739 28.6039 31.4107 28.5903 31.3496C28.5766 31.2886 28.5511 31.2309 28.5151 31.1799C28.4791 31.1289 28.4333 31.0856 28.3805 31.0524C28.3276 31.0193 28.2686 30.9969 28.2069 30.9866C28.1451 30.9763 28.0819 30.9783 28.0207 30.9924C27.6553 31.0778 27.2831 31.1565 26.9157 31.2277C26.7915 31.252 26.6815 31.3245 26.61 31.4293C26.5385 31.5341 26.5113 31.6627 26.5343 31.7868C26.5574 31.9108 26.6288 32.0203 26.7329 32.091C26.837 32.1618 26.9653 32.1881 27.0896 32.1643Z" fill="white"/>
<path d="M36.9882 28.9798C37.3456 28.8461 37.7029 28.7132 38.0603 28.5813C38.1202 28.5604 38.1754 28.5279 38.2228 28.4856C38.2702 28.4433 38.3087 28.392 38.3363 28.3348C38.3638 28.2776 38.3797 28.2156 38.383 28.1524C38.3864 28.0892 38.3772 28.0261 38.3559 27.9667C38.3346 27.9073 38.3016 27.8528 38.259 27.8065C38.2163 27.7601 38.1648 27.7227 38.1074 27.6966C38.0501 27.6704 37.9879 27.656 37.9247 27.6541C37.8615 27.6522 37.7984 27.663 37.7392 27.6857C37.38 27.8167 37.02 27.95 36.659 28.0855C36.5951 28.1098 36.537 28.1472 36.4884 28.1953C36.4106 28.2724 36.3613 28.3736 36.3489 28.4821C36.3364 28.5906 36.3614 28.6997 36.4198 28.7914C36.4781 28.8831 36.5663 28.9517 36.6697 28.9859C36.773 29.02 36.8852 29.0176 36.9875 28.9791L36.9882 28.9798Z" fill="white"/>
<path d="M58.3261 53.233C58.3831 53.2587 58.4447 53.273 58.5074 53.2749C58.5701 53.2768 58.6327 53.2663 58.6916 53.244C58.7504 53.2217 58.8043 53.188 58.8503 53.1449C58.8963 53.1019 58.9334 53.0502 58.9595 52.9929C59.1206 52.6376 59.275 52.2755 59.426 51.9277C59.4516 51.8695 59.4654 51.8069 59.4666 51.7436C59.4678 51.6803 59.4564 51.6174 59.433 51.5587C59.4096 51.5001 59.3747 51.4467 59.3304 51.4018C59.2861 51.357 59.2332 51.3214 59.1748 51.2973C59.1164 51.2732 59.0537 51.261 58.9904 51.2614C58.9271 51.2619 58.8643 51.2749 58.8059 51.2998C58.7474 51.3246 58.6944 51.3609 58.6499 51.4063C58.6054 51.4518 58.5704 51.5056 58.5468 51.5646C58.4026 51.9071 58.249 52.2563 58.0927 52.6015C58.0664 52.6586 58.0516 52.7203 58.0491 52.783C58.0466 52.8456 58.0564 52.9081 58.0781 52.9667C58.0998 53.0253 58.1329 53.079 58.1754 53.1247C58.218 53.1704 58.2692 53.2072 58.3261 53.233Z" fill="white"/>
<path d="M33.7603 30.1935C34.1199 30.0616 34.4802 29.9263 34.8419 29.7856C34.9579 29.7389 35.0513 29.6488 35.1023 29.5346C35.1532 29.4204 35.1576 29.2912 35.1145 29.1746C35.0714 29.0579 34.9842 28.9632 34.8716 28.9107C34.759 28.8581 34.6299 28.8519 34.512 28.8933C34.1537 29.028 33.7959 29.1612 33.4385 29.2932C33.3732 29.3168 33.3138 29.3545 33.2646 29.4037C33.1869 29.4806 33.1378 29.5816 33.1252 29.6899C33.1126 29.7981 33.1374 29.9071 33.1955 29.9987C33.2536 30.0903 33.3414 30.1591 33.4444 30.1935C33.5473 30.228 33.6593 30.2261 33.7617 30.1881L33.7603 30.1935Z" fill="white"/>
<path d="M56.7394 56.2924C56.85 56.3526 56.9804 56.3663 57.1019 56.3304C57.2234 56.2945 57.3261 56.212 57.3874 56.1009C57.5767 55.7576 57.7614 55.4137 57.9366 55.0792C57.969 55.0234 57.9898 54.9617 57.9978 54.8977C58.0058 54.8338 58.0008 54.7691 57.9831 54.7073C57.9655 54.6456 57.9354 54.5882 57.8949 54.5386C57.8543 54.489 57.8041 54.4482 57.7472 54.4186C57.6903 54.389 57.6279 54.3713 57.5638 54.3665C57.4996 54.3618 57.4351 54.37 57.374 54.3908C57.313 54.4116 57.2566 54.4445 57.2084 54.4876C57.1602 54.5306 57.1211 54.5828 57.0935 54.6412C56.9211 54.9702 56.7405 55.3074 56.5539 55.6439C56.5233 55.699 56.5038 55.7595 56.4965 55.8219C56.4893 55.8844 56.4944 55.9475 56.5117 56.0078C56.5289 56.068 56.5579 56.1242 56.5969 56.173C56.636 56.2219 56.6844 56.2624 56.7394 56.2924Z" fill="white"/>
<path d="M30.4755 31.3164C30.831 31.2074 31.1959 31.0889 31.5804 30.963C31.64 30.9431 31.6952 30.9117 31.7429 30.8706C31.7905 30.8295 31.8297 30.7794 31.8581 30.7234C31.8865 30.6673 31.9037 30.6062 31.9085 30.5437C31.9134 30.4812 31.906 30.4184 31.8866 30.359C31.8672 30.2995 31.8362 30.2446 31.7955 30.1973C31.7548 30.15 31.705 30.1113 31.6492 30.0833C31.5933 30.0553 31.5324 30.0387 31.4699 30.0343C31.4075 30.03 31.3446 30.0379 31.285 30.0578C30.9052 30.1844 30.5511 30.2975 30.2038 30.4037C30.1437 30.4221 30.0877 30.452 30.039 30.4919C29.9904 30.5318 29.9499 30.5808 29.9201 30.6361C29.8902 30.6915 29.8715 30.7521 29.865 30.8145C29.8585 30.8768 29.8643 30.9398 29.8822 30.9997C29.9 31.0596 29.9295 31.1154 29.969 31.1637C30.0085 31.2121 30.0571 31.2521 30.1122 31.2815C30.1673 31.3109 30.2278 31.3291 30.2901 31.3351C30.3524 31.3411 30.4154 31.3347 30.4755 31.3164Z" fill="white"/>
<path d="M17.8371 32.6443C17.9544 32.6409 18.0666 32.5946 18.1525 32.514C18.2383 32.4334 18.2918 32.3243 18.3026 32.2074C18.3134 32.0906 18.2808 31.9742 18.211 31.8805C18.1413 31.7868 18.0393 31.7224 17.9244 31.6995C17.5529 31.6675 17.1766 31.6282 16.8024 31.5841C16.7306 31.5755 16.6575 31.5834 16.5889 31.6072C16.5203 31.631 16.4579 31.6701 16.4064 31.7215C16.3428 31.7849 16.2981 31.8648 16.2776 31.952C16.257 32.0391 16.2613 32.1302 16.2899 32.2146C16.3186 32.2991 16.3705 32.3736 16.4397 32.4296C16.5089 32.4857 16.5927 32.521 16.6814 32.5316C17.0664 32.5716 17.4554 32.6116 17.8371 32.6443Z" fill="white"/>
<path d="M51.1273 64.9808C51.1789 65.0161 51.2369 65.0409 51.2982 65.0537C51.3595 65.0665 51.4229 65.0671 51.4846 65.0553C51.5463 65.0436 51.6052 65.0199 51.658 64.9855C51.7107 64.951 51.7562 64.9066 51.7918 64.8547L52.4432 63.9069C52.5118 63.8085 52.5412 63.6883 52.5256 63.57C52.51 63.4517 52.4506 63.3439 52.359 63.2679C52.2674 63.192 52.1503 63.1534 52.031 63.1598C51.9116 63.1662 51.7986 63.2172 51.7144 63.3026C51.6932 63.3237 51.6741 63.3468 51.6574 63.3715L51.0074 64.318C50.9353 64.4225 50.9074 64.551 50.9299 64.6753C50.9524 64.7996 51.0234 64.9095 51.1273 64.9808Z" fill="white"/>
<path d="M13.0308 31.1351C12.9665 31.199 12.9218 31.28 12.902 31.3682C12.8736 31.4916 12.8952 31.6208 12.962 31.7275C13.0289 31.8342 13.1355 31.9096 13.2586 31.9373C13.6339 32.0218 14.0161 32.0996 14.3942 32.1707C14.4566 32.1849 14.5213 32.1863 14.5845 32.1749C14.6477 32.1635 14.7081 32.1395 14.762 32.1044C14.8159 32.0692 14.8622 32.0236 14.8982 31.9702C14.9343 31.9169 14.9592 31.8569 14.9716 31.7939C14.984 31.7309 14.9836 31.6661 14.9704 31.6035C14.9572 31.5408 14.9315 31.4816 14.8948 31.4293C14.8581 31.377 14.8112 31.3328 14.7569 31.2992C14.7025 31.2656 14.6419 31.2433 14.5786 31.2338C14.2106 31.1647 13.8393 31.0882 13.4747 31.0063C13.3962 30.9886 13.3143 30.9911 13.2366 31.0136C13.159 31.0361 13.0882 31.0779 13.0308 31.1351Z" fill="white"/>
<path d="M53.579 60.5203C53.3688 60.84 53.1573 61.157 52.9451 61.4747C52.8748 61.5805 52.8491 61.7095 52.8738 61.8334C52.8984 61.9574 52.9714 62.066 53.0766 62.1355C53.1818 62.2049 53.3106 62.2295 53.4347 62.2039C53.5588 62.1782 53.6681 62.1044 53.7384 61.9986C53.9524 61.6795 54.1651 61.3591 54.3764 61.0374C54.4408 60.9386 54.4668 60.8198 54.4492 60.7037C54.4316 60.5877 54.3718 60.4826 54.2811 60.4085C54.1905 60.3345 54.0754 60.2967 53.958 60.3025C53.8406 60.3082 53.7291 60.3571 53.6448 60.4398C53.6201 60.4642 53.598 60.4912 53.579 60.5203Z" fill="white"/>
<path d="M7.0749 28.875C6.98672 28.835 6.88819 28.8229 6.79249 28.8405C6.69679 28.858 6.60849 28.9043 6.53938 28.9731C6.49849 29.0137 6.46531 29.0613 6.44148 29.1137C6.38862 29.2291 6.38359 29.3604 6.4275 29.4787C6.47141 29.597 6.56066 29.6926 6.67561 29.7445C7.02424 29.9027 7.38166 30.0575 7.73777 30.2042C7.85444 30.2522 7.98581 30.2518 8.10297 30.203C8.22014 30.1542 8.3135 30.061 8.36252 29.9439C8.41154 29.8268 8.4122 29.6955 8.36437 29.5787C8.31653 29.462 8.22411 29.3694 8.10743 29.3213C7.7621 29.1786 7.41409 29.0319 7.0749 28.875Z" fill="white"/>
<path d="M21.3154 32.7642C21.4422 32.7623 21.5635 32.7101 21.6525 32.6192C21.7416 32.5282 21.7911 32.4059 21.7903 32.2791C21.7894 32.1523 21.7382 32.0315 21.648 31.9432C21.5578 31.8549 21.4358 31.8064 21.309 31.8083C20.9339 31.8148 20.5548 31.8145 20.1804 31.8082C20.0568 31.8105 19.9386 31.8606 19.8505 31.948C19.7625 32.0354 19.7115 32.1533 19.7083 32.2768C19.7051 32.4003 19.75 32.5199 19.8334 32.6103C19.9169 32.7007 20.0324 32.7549 20.1557 32.7616C20.5396 32.7705 20.9302 32.7701 21.3154 32.7642Z" fill="white"/>
<path d="M24.7919 32.5252C24.8553 32.5192 24.9169 32.5005 24.9732 32.4702C25.0295 32.44 25.0792 32.3989 25.1195 32.3493C25.1598 32.2997 25.1898 32.2426 25.2078 32.1814C25.2257 32.1202 25.2313 32.0562 25.2242 31.993C25.2171 31.9298 25.1973 31.8688 25.1662 31.8136C25.1351 31.7583 25.0931 31.7099 25.0429 31.6713C24.9926 31.6327 24.9351 31.6045 24.8736 31.5886C24.8121 31.5726 24.748 31.5692 24.6849 31.5784C24.3129 31.6233 23.9349 31.6622 23.5624 31.6944C23.4989 31.6984 23.4368 31.715 23.3796 31.7433C23.3225 31.7716 23.2715 31.811 23.2296 31.8592C23.1877 31.9073 23.1558 31.9633 23.1358 32.0238C23.1158 32.0842 23.108 32.148 23.1129 32.2113C23.1178 32.2747 23.1353 32.3363 23.1645 32.3925C23.1936 32.4488 23.2337 32.4985 23.2825 32.5389C23.3312 32.5793 23.3876 32.6094 23.4484 32.6276C23.5091 32.6458 23.573 32.6516 23.6363 32.6447C24.0203 32.6119 24.4091 32.5716 24.7919 32.5252Z" fill="white"/>
<path d="M11.0138 31.3583C11.0743 31.378 11.1382 31.3853 11.2018 31.3799C11.2654 31.3744 11.3273 31.3563 11.384 31.3266C11.4406 31.2968 11.4908 31.2561 11.5316 31.2067C11.5724 31.1574 11.603 31.1004 11.6215 31.0392C11.64 30.978 11.6461 30.9139 11.6394 30.8505C11.6327 30.7872 11.6133 30.7259 11.5825 30.6703C11.5516 30.6148 11.5099 30.5661 11.4597 30.5271C11.4096 30.4881 11.3521 30.4596 11.2905 30.4433C10.9315 30.3371 10.5698 30.2228 10.2163 30.1058C10.1322 30.0779 10.0419 30.074 9.95535 30.0946C9.86883 30.1153 9.78959 30.1596 9.72654 30.2226C9.67452 30.2749 9.63495 30.3382 9.61085 30.4078C9.59055 30.4673 9.58214 30.5301 9.58612 30.5927C9.59009 30.6553 9.60637 30.7163 9.63402 30.7724C9.66167 30.8284 9.70015 30.8784 9.74726 30.9194C9.79436 30.9604 9.84917 30.9917 9.90855 31.0114C10.2715 31.1325 10.644 31.2494 11.0138 31.3583Z" fill="white"/>
<path d="M54.9662 59.2492C55.0732 59.3155 55.2025 59.3364 55.3257 59.3073C55.449 59.2782 55.556 59.2016 55.6234 59.0941C55.831 58.7595 56.0378 58.4243 56.2277 58.1073C56.2881 58.0073 56.31 57.8889 56.2893 57.7745C56.2685 57.6601 56.2066 57.5576 56.1151 57.4862C56.0237 57.4149 55.909 57.3797 55.7928 57.3873C55.6765 57.3949 55.5667 57.4447 55.484 57.5273C55.456 57.5552 55.4318 57.5865 55.412 57.6206C55.2221 57.9349 55.0213 58.2627 54.8145 58.5939C54.7477 58.7016 54.7261 58.8312 54.7546 58.954C54.783 59.0769 54.8591 59.183 54.9662 59.2492Z" fill="white"/>
<path d="M53.2017 27.7777C53.5226 27.9434 53.8414 28.1286 54.148 28.3274C54.2003 28.3626 54.2592 28.3869 54.3212 28.399C54.3832 28.4111 54.4472 28.4107 54.5092 28.3978C54.5713 28.385 54.6303 28.3599 54.6828 28.3241C54.7352 28.2883 54.7802 28.2425 54.8149 28.1893C54.8497 28.1361 54.8735 28.0766 54.8851 28.0143C54.8967 27.952 54.8958 27.8881 54.8825 27.8264C54.8692 27.7646 54.8437 27.7063 54.8075 27.6546C54.7713 27.603 54.7251 27.5592 54.6717 27.5258C54.3389 27.3102 53.9939 27.1095 53.646 26.929C53.5906 26.9002 53.53 26.8827 53.4676 26.8773C53.4053 26.872 53.3423 26.879 53.2825 26.898C53.2226 26.917 53.167 26.9475 53.1187 26.9879C53.0705 27.0283 53.0306 27.0777 53.0013 27.1333C52.9721 27.189 52.954 27.2497 52.9482 27.3121C52.9423 27.3746 52.9488 27.4374 52.9673 27.4971C52.9858 27.5569 53.0159 27.6122 53.0558 27.6602C53.0958 27.7081 53.1449 27.7475 53.2003 27.7763L53.2017 27.7777Z" fill="white"/>
<path d="M51.1685 26.9647C51.2284 26.9823 51.2914 26.9879 51.3537 26.9812C51.4161 26.9745 51.4766 26.9556 51.5318 26.9255C51.6434 26.8648 51.7266 26.7625 51.7632 26.6411C51.7998 26.5197 51.7868 26.3891 51.727 26.2781C51.6673 26.1671 51.5656 26.0847 51.4445 26.0491C51.0659 25.9409 50.6812 25.8442 50.2951 25.7677C50.233 25.7536 50.1685 25.752 50.1056 25.7631C50.0427 25.7743 49.9825 25.798 49.9287 25.8327C49.8749 25.8675 49.8285 25.9126 49.7923 25.9654C49.756 26.0183 49.7307 26.0778 49.7179 26.1404C49.705 26.203 49.7048 26.2675 49.7172 26.33C49.7297 26.3925 49.7546 26.4517 49.7905 26.5042C49.8264 26.5567 49.8725 26.6014 49.9261 26.6356C49.9797 26.6698 50.0397 26.6928 50.1025 26.7034C50.4618 26.7745 50.8202 26.8625 51.1685 26.9647Z" fill="white"/>
<path d="M58.1037 31.5763C58.0752 31.5951 58.0487 31.6167 58.0244 31.6406C57.9471 31.7179 57.8984 31.8191 57.8863 31.9274C57.8742 32.0356 57.8994 32.1445 57.9578 32.2359C58.1545 32.5429 58.3444 32.8635 58.5215 33.1888C58.5513 33.2436 58.5917 33.292 58.6404 33.3311C58.689 33.3701 58.7449 33.3992 58.805 33.4166C58.865 33.4339 58.928 33.4393 58.9903 33.4323C59.0526 33.4253 59.1131 33.4061 59.1682 33.3758C59.2233 33.3455 59.2719 33.3047 59.3114 33.2558C59.3509 33.2068 59.3804 33.1506 59.3983 33.0904C59.4161 33.0302 59.422 32.9672 59.4155 32.9049C59.409 32.8427 59.3903 32.7824 59.3605 32.7276C59.1701 32.3807 58.9715 32.0419 58.7587 31.7174C58.6908 31.6122 58.5839 31.5384 58.4613 31.5119C58.3387 31.4855 58.2101 31.5086 58.1037 31.5763Z" fill="white"/>
<path d="M43.4796 26.93C43.8538 26.848 44.2246 26.776 44.5825 26.7156C44.6452 26.7062 44.7055 26.6843 44.7599 26.6514C44.8143 26.6185 44.8617 26.5751 44.8993 26.5238C44.9369 26.4725 44.9639 26.4143 44.9789 26.3526C44.9938 26.291 44.9964 26.227 44.9863 26.1645C44.9763 26.1021 44.9539 26.0423 44.9205 25.9888C44.8871 25.9353 44.8433 25.889 44.7916 25.8527C44.74 25.8165 44.6816 25.7909 44.6197 25.7776C44.5579 25.7642 44.494 25.7633 44.4316 25.7749C44.0582 25.8374 43.6719 25.9128 43.2829 25.9976C43.159 26.0247 43.0505 26.0998 42.9814 26.2064C42.9123 26.313 42.8881 26.4424 42.9142 26.566C42.9403 26.6897 43.0145 26.7975 43.1205 26.8658C43.2266 26.934 43.3558 26.9571 43.4796 26.93Z" fill="white"/>
<path d="M59.5597 34.6949C59.4938 34.7607 59.4483 34.8442 59.4289 34.9351C59.4095 35.026 59.417 35.1203 59.4504 35.2066C59.5815 35.5482 59.7051 35.9014 59.8193 36.2546C59.8572 36.375 59.9415 36.475 60.0537 36.5326C60.1659 36.5902 60.2967 36.6007 60.4174 36.5618C60.5381 36.5229 60.6388 36.4377 60.6974 36.3251C60.7559 36.2124 60.7675 36.0815 60.7296 35.9611C60.6115 35.5877 60.4819 35.215 60.3435 34.8552C60.321 34.7968 60.2873 34.7436 60.2442 34.6985C60.201 34.6534 60.1493 34.6173 60.0921 34.5922C60.0348 34.5672 59.9731 34.5538 59.9105 34.5527C59.8478 34.5516 59.7854 34.5628 59.7269 34.5858C59.6641 34.6098 59.6071 34.647 59.5597 34.6949Z" fill="white"/>
<path d="M47.912 26.4609C47.9746 26.4627 48.0371 26.4521 48.0958 26.4297C48.1545 26.4074 48.2084 26.3737 48.2543 26.3307C48.3002 26.2876 48.3373 26.236 48.3633 26.1788C48.3894 26.1216 48.404 26.0599 48.4063 25.9973C48.4086 25.9347 48.3985 25.8723 48.3766 25.8137C48.3548 25.7552 48.3215 25.7016 48.2789 25.6561C48.2362 25.6105 48.1849 25.5739 48.1279 25.5483C48.0709 25.5227 48.0094 25.5086 47.9467 25.5068C47.5623 25.4958 47.1655 25.4997 46.7687 25.5171C46.649 25.5224 46.5353 25.5726 46.4502 25.6577C46.3821 25.7258 46.3359 25.8128 46.3177 25.9072C46.2995 26.0016 46.3102 26.0991 46.3484 26.1869C46.3865 26.2747 46.4504 26.3487 46.5316 26.3992C46.6128 26.4498 46.7075 26.4745 46.8035 26.4702C47.1767 26.4536 47.5498 26.4505 47.912 26.4609Z" fill="white"/>
<path d="M55.8511 29.0105C55.7638 29.1026 55.7162 29.2253 55.719 29.3517C55.7217 29.478 55.7745 29.5977 55.8658 29.6845C55.947 29.7659 56.0275 29.8466 56.1087 29.928C56.2852 30.1049 56.4596 30.2906 56.63 30.4817C56.7138 30.576 56.832 30.6328 56.9585 30.6396C57.085 30.6465 57.2094 30.6028 57.3044 30.5181C57.3994 30.4335 57.4572 30.3148 57.4651 30.1883C57.473 30.0618 57.4303 29.9377 57.3464 29.8434C57.1667 29.6415 56.9802 29.4437 56.7903 29.2533C56.7031 29.1659 56.6165 29.0791 56.5299 28.9924C56.4401 28.907 56.3203 28.8603 56.1959 28.8623C56.0715 28.8643 55.9524 28.9148 55.864 29.0031L55.8511 29.0105Z" fill="white"/>
<path d="M60.6816 42.8635C60.6778 42.9268 60.6866 42.9901 60.7075 43.0497C60.7284 43.1093 60.7611 43.1641 60.8035 43.2108C60.8459 43.2575 60.8973 43.2952 60.9546 43.3217C61.012 43.3482 61.0741 43.363 61.1374 43.3651C61.2007 43.3673 61.2639 43.3569 61.3233 43.3344C61.3827 43.312 61.4372 43.2779 61.4835 43.2343C61.5298 43.1906 61.567 43.1383 61.5929 43.0803C61.6189 43.0223 61.6331 42.9598 61.6347 42.8964C61.6523 42.5071 61.6564 42.1138 61.6504 41.7239C61.6483 41.5974 61.5962 41.4773 61.5053 41.39C61.4144 41.3027 61.2923 41.2554 61.1657 41.2585C61.0392 41.2615 60.9187 41.3147 60.8306 41.4063C60.7426 41.4979 60.6943 41.6204 60.6963 41.7469C60.7031 42.1186 60.6977 42.4944 60.6816 42.8635Z" fill="white"/>
<path d="M60.3565 38.4206C60.4254 38.7827 60.4848 39.1542 60.5328 39.5225C60.55 39.6477 60.6164 39.7605 60.7172 39.8361C60.818 39.9117 60.945 39.9439 61.0704 39.9257C61.1957 39.9074 61.3091 39.8401 61.3855 39.7387C61.462 39.6373 61.4953 39.5099 61.478 39.3847C61.4282 38.9983 61.3654 38.6099 61.2926 38.2276C61.2809 38.1661 61.2572 38.1076 61.2229 38.0555C61.1885 38.0033 61.1441 37.9585 61.0923 37.9237C61.0405 37.8888 60.9823 37.8645 60.9209 37.8523C60.8595 37.84 60.7962 37.8399 60.7346 37.8521C60.673 37.8643 60.6143 37.8885 60.5619 37.9233C60.5095 37.9581 60.4643 38.0028 60.429 38.0549C60.3937 38.107 60.369 38.1655 60.3562 38.2269C60.3434 38.2884 60.3428 38.3517 60.3545 38.4132L60.3565 38.4206Z" fill="white"/>
<path d="M8.86219 26.4033C6.68104 26.7876 3.67123 26.5745 1.40264 26.1454C2.83006 27.9519 4.40662 30.5129 5.06402 32.6205L5.84374 28.8349L8.86219 26.4033Z" fill="white"/>
</g>
<defs>
<clipPath id="clip0_4189_9508">
<rect width="39" height="63" fill="white" transform="translate(72.105 44.6001) rotate(135.067)"/>
</clipPath>
</defs>
</svg>
