<svg xmlns="http://www.w3.org/2000/svg" width="32" height="32" viewBox="0 0 32 32">
  <g id="share" transform="translate(-359 -1555)">
    <rect id="Rectangle_11706" data-name="Rectangle 11706" width="32" height="32" transform="translate(359 1555)" fill="none"/>
    <path id="share-square" d="M28.89,8.568,21.421.439A1.315,1.315,0,0,0,19.474.41a1.5,1.5,0,0,0-.028,2.05l7.1,7.707H14.9A7.1,7.1,0,0,0,8,17.439V24.71a1.383,1.383,0,1,0,2.761,0V17.439A4.269,4.269,0,0,1,14.9,13.076H26.529l-7.1,7.707a1.5,1.5,0,0,0,.028,2.05,1.332,1.332,0,0,0,.966.407,1.389,1.389,0,0,0,.994-.436l7.456-8.1a4.524,4.524,0,0,0,.014-6.151Z" transform="translate(355.955 1558.182)" fill="#001968"/>
  </g>
</svg>
