<svg xmlns="http://www.w3.org/2000/svg" width="16.055" height="16.055" viewBox="0 0 16.055 16.055">
  <g id="block_report" transform="translate(-17.462 -24.988)">
    <path id="Path_70855" data-name="Path 70855" d="M164.591,176.316a4.207,4.207,0,1,1,8.415.022,4.207,4.207,0,0,1-8.415-.022Zm6.449-2.737a3.539,3.539,0,0,0-4.981,4.988Zm-4.481,5.494a3.541,3.541,0,0,0,4.985-4.985Z" transform="translate(-139.739 -139.741)" stroke="#001968" stroke-width="0.5"/>
    <path id="Path_70856" data-name="Path 70856" d="M17.712,32.036q0-2.515,0-5.031a1.637,1.637,0,0,1,1.771-1.767q3.463,0,6.926,0A1.61,1.61,0,0,1,28.034,26.5a2.033,2.033,0,0,1,.036.434q0,1.847,0,3.694c0,.049,0,.1,0,.146-.015.183-.132.307-.3.283a.639.639,0,0,1-.32-.239c-.042-.048-.018-.156-.018-.236q0-1.81,0-3.621a.987.987,0,0,0-1.064-1.082q-3.475-.005-6.95,0a1,1,0,0,0-1.067,1.063q0,5.1,0,10.207a1,1,0,0,0,1.07,1.06c1.2,0,2.4,0,3.6,0,.073,0,.146,0,.219,0a.289.289,0,0,1,.3.289.309.309,0,0,1-.28.34.959.959,0,0,1-.194.006q-1.81,0-3.621,0a1.631,1.631,0,0,1-1.731-1.733Q17.711,34.575,17.712,32.036Z" transform="translate(0 0)" stroke="#001968" stroke-width="0.5"/>
  </g>
</svg>
