<svg xmlns="http://www.w3.org/2000/svg" width="11.504" height="14.794" viewBox="0 0 11.504 14.794">
  <g id="document" transform="translate(1.742 3.533)">
    <path id="Path_70865" data-name="Path 70865" d="M-.295-3.533H6.5c.034.04.065.082.1.119Q8.133-1.876,9.668-.336a.33.33,0,0,1,.09.209q.007,4.847,0,9.694A1.637,1.637,0,0,1,8.067,11.26q-4.06,0-8.119,0a1.82,1.82,0,0,1-.415-.044A1.631,1.631,0,0,1-1.741,9.56q0-4.045,0-8.09,0-1.661,0-3.323a1.561,1.561,0,0,1,.72-1.385A3.96,3.96,0,0,1-.295-3.533ZM4.831-2.29c-.063,0-.109-.008-.156-.008H0c-.361,0-.5.144-.5.51q0,5.654,0,11.308c0,.362.144.5.509.5H8.016c.372,0,.512-.141.512-.515q0-3.972,0-7.943c0-.051,0-.1-.007-.166H8.368c-.611,0-1.223,0-1.834,0A1.62,1.62,0,0,1,4.842-.191c-.031-.639-.009-1.28-.011-1.92C4.831-2.168,4.831-2.225,4.831-2.29Zm1.233.134c0,.619,0,1.235,0,1.85a.421.421,0,0,0,.473.471H8.386Z" transform="translate(0)"/>
    <path id="Path_70866" data-name="Path 70866" d="M66.268,149.994v.807H59.7v-.807Z" transform="translate(-58.976 -147.354)"/>
    <path id="Path_70867" data-name="Path 70867" d="M59.711,191.672v-.806h6.56v.806Z" transform="translate(-58.982 -186.583)"/>
    <path id="Path_70868" data-name="Path 70868" d="M59.634,232.57v-.8H66.2v.8Z" transform="translate(-58.908 -225.837)"/>
    <path id="Path_70869" data-name="Path 70869" d="M66.255,272.6v.8H59.691v-.8Z" transform="translate(-58.963 -265.032)"/>
  </g>
</svg>
