<svg id="camer" xmlns="http://www.w3.org/2000/svg" width="16.665" height="14.445" viewBox="0 0 16.665 14.445">
  <path id="Path_68513" data-name="Path 68513" d="M249.3,156.346H243.09a2.032,2.032,0,0,1-2.116-2.121q0-3.992,0-7.985a2.032,2.032,0,0,1,2.122-2.115c.712,0,1.423,0,2.135,0,.118,0,.174-.03.208-.146.075-.255.162-.506.254-.755a2,2,0,0,1,1.879-1.321q1.736-.009,3.472,0a2,2,0,0,1,1.877,1.324c.088.238.171.479.242.723a.206.206,0,0,0,.239.177c.717-.009,1.435-.005,2.152,0a2.028,2.028,0,0,1,2.084,2.083q0,4.027,0,8.054a2.028,2.028,0,0,1-2.085,2.083Q252.429,156.347,249.3,156.346Zm-.007-1.111h6.213a.927.927,0,0,0,1.017-1.008q0-3.991,0-7.983a.924.924,0,0,0-1-1.007c-.885,0-1.77,0-2.655,0a.553.553,0,0,1-.585-.419c-.129-.377-.38-1.133-.38-1.133s-.469-.668-.926-.668q-1.675,0-3.349,0a.913.913,0,0,0-.925.669c-.124.366-.243.735-.367,1.1a.571.571,0,0,1-.633.451h-2.6a.928.928,0,0,0-1.017,1.025q0,3.965,0,7.931a.935.935,0,0,0,1.052,1.043Z" transform="translate(-240.974 -141.901)" fill="#fff"/>
  <path id="Path_68514" data-name="Path 68514" d="M330.8,229.963a4.166,4.166,0,1,1,4.162,4.161A4.168,4.168,0,0,1,330.8,229.963Zm4.17,3.05a3.055,3.055,0,1,0-3.059-3.055A3.062,3.062,0,0,0,334.972,233.013Z" transform="translate(-326.636 -221.901)" fill="#fff"/>
  <path id="Path_68515" data-name="Path 68515" d="M528.979,237.777a.555.555,0,1,1-.551.554A.559.559,0,0,1,528.979,237.777Z" transform="translate(-515.096 -233.33)" fill="#fff"/>
</svg>
