<svg xmlns="http://www.w3.org/2000/svg" width="16.171" height="17.295" viewBox="0 0 16.171 17.295">
  <g id="pin" transform="translate(0 0)">
    <path id="Path_68563" data-name="Path 68563" d="M53.337,117.961a4.655,4.655,0,0,1,4.8,5.083,4.607,4.607,0,0,1-1.364,2.827q-4.125,4.161-8.25,8.322a3.313,3.313,0,0,1-3.41.919,3.276,3.276,0,0,1-2.444-2.54,3.219,3.219,0,0,1,.863-3.157q3.024-3.055,6.1-6.06a2.2,2.2,0,1,1,3.169,3.063c-.607.641-1.244,1.254-1.869,1.878Q49,130.22,47.076,132.143a.627.627,0,0,1-.491.223.575.575,0,0,1-.429-.927,1.536,1.536,0,0,1,.149-.156q2.769-2.763,5.539-5.525a1.232,1.232,0,0,0,.418-.959.988.988,0,0,0-1.316-.905,1.415,1.415,0,0,0-.548.326q-3.011,2.967-6.005,5.951a2.3,2.3,0,0,0,1.762,3.92,2.316,2.316,0,0,0,1.565-.722q2.953-2.987,5.91-5.969c.8-.807,1.606-1.607,2.395-2.423a3.457,3.457,0,0,0-4.892-4.885q-3.1,3.047-6.175,6.112-.973.964-1.948,1.927a.578.578,0,1,1-.812-.817q1.17-1.163,2.342-2.323,2.843-2.817,5.685-5.634A4.536,4.536,0,0,1,53.337,117.961Z" transform="translate(-41.989 -117.961)" fill="#fff"/>
  </g>
</svg>
