<svg xmlns="http://www.w3.org/2000/svg" width="10.712" height="10.589" viewBox="0 0 10.712 10.589">
  <g id="close" transform="translate(-22.643 45.888)">
    <path id="Path_70870" data-name="Path 70870" d="M26.575-40.584l-2.33-2.328q-.609-.609-1.218-1.219A1.01,1.01,0,0,1,23-45.593a1.01,1.01,0,0,1,1.463.038l3.4,3.386c.039.039.081.075.132.123.052-.049.1-.093.146-.139q1.675-1.674,3.349-3.348a1.015,1.015,0,0,1,1.389-.107,1,1,0,0,1,.075,1.5q-1.679,1.68-3.36,3.358c-.051.051-.112.093-.187.155.141.136.261.249.378.365l3.226,3.209a1,1,0,0,1,.283,1.081,1.059,1.059,0,0,1-1.671.425c-.214-.2-.417-.4-.622-.608q-1.444-1.443-2.886-2.888a1.177,1.177,0,0,1-.105-.145c-.072.067-.116.106-.158.148q-1.7,1.7-3.394,3.4a1.107,1.107,0,0,1-1.154.287.961.961,0,0,1-.485-1.482,1.863,1.863,0,0,1,.209-.238q1.685-1.687,3.372-3.372C26.451-40.493,26.508-40.53,26.575-40.584Z"/>
  </g>
</svg>
