<svg xmlns="http://www.w3.org/2000/svg" width="11.935" height="16.21" viewBox="0 0 11.935 16.21">
  <g id="audio" transform="translate(-79.62 27.99)">
    <path id="Path_70863" data-name="Path 70863" d="M135.744-22.508c0,.819-.029,1.639.006,2.456a2.932,2.932,0,0,1-3.02,3.016,3.006,3.006,0,0,1-2.742-1.441,2.563,2.563,0,0,1-.389-1.369c0-1.773-.011-3.545,0-5.318a2.866,2.866,0,0,1,2.705-2.815,3.093,3.093,0,0,1,2.811,1.084,2.679,2.679,0,0,1,.623,1.7c0,.9,0,1.792,0,2.688Z" transform="translate(-47.084 0)"/>
    <path id="Path_70864" data-name="Path 70864" d="M86.179,96.614v1.675c.627,0,1.242,0,1.856,0a.58.58,0,1,1-.012,1.155c-.964,0-1.929,0-2.893,0-.646,0-1.292,0-1.938,0-.433,0-.677-.21-.679-.574s.236-.581.669-.582c.6,0,1.193,0,1.807,0V96.63c-.413-.1-.836-.185-1.246-.311a5.938,5.938,0,0,1-4.123-5.552c0-.434.2-.688.553-.7a.606.606,0,0,1,.6.671,4.522,4.522,0,0,0,1.062,2.924,4.819,4.819,0,0,0,8.437-1.914A6.99,6.99,0,0,0,90.4,90.7c.048-.5.466-.773.863-.555a.567.567,0,0,1,.294.554,5.977,5.977,0,0,1-5.148,5.865C86.332,96.572,86.259,96.595,86.179,96.614Z" transform="translate(0 -111.227)"/>
  </g>
</svg>
