<svg xmlns="http://www.w3.org/2000/svg" width="14.707" height="10.485" viewBox="0 0 14.707 10.485">
  <g id="video" transform="translate(-22.534 1.907)">
    <path id="Path_70862" data-name="Path 70862" d="M33.118,1.76,36.059-1.2c.1-.1.2-.209.31-.307a.488.488,0,0,1,.533-.1.488.488,0,0,1,.328.407,1.13,1.13,0,0,1,.008.16q0,4.373,0,8.747a.535.535,0,0,1-.95.405q-1.488-1.5-2.983-2.989a2.3,2.3,0,0,1-.181-.234l-.065.036c0,.071-.012.141-.013.212-.011.451,0,.9-.035,1.353a2.309,2.309,0,0,1-2.237,2.083q-2.961.012-5.923,0a2.311,2.311,0,0,1-2.3-2.242q-.036-3,0-5.991a2.311,2.311,0,0,1,2.3-2.241q2.95-.011,5.9,0A2.307,2.307,0,0,1,33.015.206c.034.426.023.856.032,1.284,0,.081,0,.161,0,.242Z" transform="translate(0)"/>
  </g>
</svg>
