<svg xmlns="http://www.w3.org/2000/svg" width="14.707" height="13.095" viewBox="0 0 14.707 13.095">
  <g id="image" transform="translate(68.66 -66.427)">
    <path id="Path_70859" data-name="Path 70859" d="M-68.66,77.167V68.781a.72.72,0,0,0,.027-.1,2.626,2.626,0,0,1,2.55-2.253c3.2-.01,6.4-.005,9.606,0a2.41,2.41,0,0,1,1.427.453,2.417,2.417,0,0,1,1.1,2.063c0,2.7,0,5.4,0,8.1a1.789,1.789,0,0,1-.046.4,2.65,2.65,0,0,1-2.6,2.077c-.957,0-1.914,0-2.872,0q-3.252,0-6.5,0A2.648,2.648,0,0,1-68.587,77.5C-68.614,77.391-68.636,77.279-68.66,77.167Zm7.373.923q2.369,0,4.738,0a1.037,1.037,0,0,0,1.058-.832,1.5,1.5,0,0,0,.037-.341q0-3.9,0-7.8a1.146,1.146,0,0,0-1.2-1.191H-65.98a1.137,1.137,0,0,0-1.192,1.19q0,3.891,0,7.781a1.36,1.36,0,0,0,.022.285,1.139,1.139,0,0,0,1.139.9Q-63.648,78.092-61.287,78.09Z"/>
    <path id="Path_70860" data-name="Path 70860" d="M14.289,206.108h-3.4a1.414,1.414,0,0,1-.243-.012.751.751,0,0,1-.592-1.006.92.92,0,0,1,.1-.207q.808-1.279,1.622-2.556a.81.81,0,0,1,.791-.394.622.622,0,0,1,.452.247c.119.15.238.3.355.451a.749.749,0,0,0,1.226-.021c.322-.457.63-.925.947-1.386a.807.807,0,0,1,.924-.315.724.724,0,0,1,.459.424c.519,1.212,1.04,2.423,1.554,3.637a.8.8,0,0,1-.5,1.115,1.067,1.067,0,0,1-.256.022Q16,206.11,14.289,206.108Z" transform="translate(-75.649 -129.283)"/>
    <path id="Path_70861" data-name="Path 70861" d="M184.328,134.012a1.125,1.125,0,0,1,1.121-1.091,1.115,1.115,0,1,1-1.121,1.091Z" transform="translate(-243.281 -63.943)"/>
  </g>
</svg>
