<svg width="150" height="150" viewBox="0 0 150 150" fill="none" xmlns="http://www.w3.org/2000/svg">
<g clip-path="url(#clip0_4219_300)">
<path d="M12 85.8281C12.7809 83.9644 14.2444 83.1375 16.177 82.665C23.7698 80.8144 30.4406 76.995 36.8489 72.6867C42.7872 68.6575 48.411 64.1833 53.6719 59.3025C58.0261 55.3059 63.0202 52.7236 68.9133 51.9919C72.9091 51.4622 76.9732 51.8585 80.7914 53.1502C81.638 53.4422 82.0875 53.2814 82.6453 52.612C92.4234 40.8498 102.207 29.1041 111.996 17.3747C114.237 14.6085 117.422 12.768 120.938 12.2067C121.132 12.1564 121.321 12.0872 121.502 12H125.203C125.469 12.082 125.731 12.187 126.004 12.2428C131.077 13.3322 134.722 16.2098 136.802 20.9677C137.344 22.1719 137.61 23.5172 138 24.7969V28.4883C137.81 29.2364 137.646 29.9944 137.426 30.7359C136.593 33.5897 134.919 36.1261 132.622 38.0137C120.967 47.7262 109.307 57.4366 97.6406 67.1447C97.0369 67.6467 96.7941 68.0241 97.0861 68.8772C99.6783 76.4241 99.1106 83.7544 94.8187 90.4744C87.7378 101.555 79.725 111.95 70.2094 121.082C67.7386 123.454 64.8938 125.443 62.1736 127.543C61.3636 128.101 60.4983 128.575 59.5913 128.957C57.1205 130.141 54.7481 130.348 52.0444 129.183C43.477 125.462 35.2017 121.285 27.9534 115.31C21.4467 109.919 16.2328 103.547 13.6406 95.3175C12.9187 93.0206 12.5348 90.6352 12 88.2891V85.8281ZM43.0045 87.0291L43.1719 87.2587L28.9313 105.401C29.9911 106.385 31.0477 107.304 32.0058 108.308C32.685 109.017 33.2231 108.935 33.9745 108.433C42.4708 102.852 50.9758 97.2895 59.4895 91.7442C59.8439 91.5145 60.2048 91.3012 60.5625 91.088L60.8611 91.3439L44.6484 117C47.9002 118.516 51.3192 120.084 54.712 121.705C55.5455 122.106 56.2936 122.106 57.0089 121.584C58.9022 120.222 60.9202 118.995 62.6297 117.43C72.6834 108.242 80.8997 97.5127 88.2923 86.1267C89.933 83.6002 90.6516 80.7291 90.7139 77.7234C90.9108 67.6927 82.5928 59.4403 72.3816 59.5552C67.6073 59.6077 63.4697 61.2942 59.8045 64.3819C54.6956 68.6836 49.5966 73.0148 44.2613 77.0278C37.0917 82.4123 29.3742 86.888 20.7478 89.6081C20.5442 89.7151 20.3528 89.8438 20.1769 89.992C21.0366 92.3119 21.8962 94.6317 22.7756 97.0139C29.6695 93.6145 36.337 90.3234 43.0045 87.0291ZM92.6072 61.0678C92.9091 60.8316 93.1355 60.6642 93.352 60.4805L116.587 41.1211C120.334 38.0006 124.107 34.9097 127.802 31.7269C128.987 30.7221 129.782 29.3327 130.047 27.8015C130.312 26.2703 130.031 24.6947 129.252 23.3498C127.717 20.6067 124.455 19.1433 121.482 20.2031C120.075 20.7302 118.823 21.6037 117.843 22.7428C110.953 30.8639 104.164 39.0802 97.342 47.2636L89.0569 57.2025L92.6072 61.0678Z" fill="black"/>
<path d="M105.023 138C104.695 137.862 104.367 137.705 104.039 137.59C100.364 136.333 98.0735 132.619 98.7133 128.934C98.9929 127.069 99.9328 125.365 101.362 124.134C102.791 122.903 104.615 122.226 106.501 122.226C108.388 122.226 110.211 122.903 111.641 124.134C113.07 125.365 114.01 127.069 114.289 128.934C114.929 132.625 112.649 136.333 108.967 137.59C108.639 137.705 108.311 137.862 107.983 138H105.023Z" fill="black"/>
<path d="M76.9688 138C76.8703 135.578 78.2649 133.895 80.5191 133.702C82.665 133.518 84.3844 134.978 84.7289 137.278C84.765 137.518 84.8044 137.76 84.8438 138H76.9688Z" fill="black"/>
<path d="M97.0665 125.288C96.0291 125.286 95.0353 124.871 94.3037 124.136C93.572 123.4 93.1624 122.405 93.1651 121.367C93.1677 120.33 93.5822 119.336 94.3176 118.604C95.0529 117.873 96.0488 117.463 97.0861 117.466C98.1235 117.468 99.1173 117.883 99.8489 118.618C100.581 119.354 100.99 120.35 100.988 121.387C100.985 122.424 100.57 123.418 99.835 124.15C99.0997 124.881 98.1038 125.291 97.0665 125.288Z" fill="black"/>
</g>
<defs>
<clipPath id="clip0_4219_300">
<rect width="126" height="126" fill="white" transform="translate(12 12)"/>
</clipPath>
</defs>
</svg>
