<svg xmlns="http://www.w3.org/2000/svg" width="116" height="116" viewBox="0 0 116 116">
  <g id="Close" transform="translate(-4480 -3336)">
    <circle id="Ellipse_686" data-name="Ellipse 686" cx="58" cy="58" r="58" transform="translate(4480 3336)" fill="#ff2855"/>
    <g id="Group_44203" data-name="Group 44203" transform="translate(4511.751 3368.087)">
      <path id="Path_69052" data-name="Path 69052" d="M643.5,368.959v1.535c-.04.129-.084.256-.119.385a4.584,4.584,0,0,1-3.758,3.6,5.516,5.516,0,0,1-5.2-1.576q-8.369-8.4-16.773-16.761a5.132,5.132,0,0,1-.44-.636,7.158,7.158,0,0,1-.484.637c-5.543,5.539-11.108,11.055-16.621,16.623a5.785,5.785,0,0,1-4.741,1.81,4.505,4.505,0,0,1-4.059-3.017c-.113-.318-.2-.645-.3-.968v-1.535a7.994,7.994,0,0,1,2.638-3.9q8.031-7.975,16.03-15.981a5.11,5.11,0,0,1,.675-.46c-.324-.252-.5-.36-.642-.5q-8.5-8.481-17-16.97a4.949,4.949,0,0,1,2.212-8.271,4.749,4.749,0,0,1,4.846,1.3q7.238,7.174,14.463,14.361c.989.984,1.944,2,2.934,3.023.221-.2.348-.312.466-.43q4.224-4.213,8.446-8.429,4.2-4.2,8.41-8.392a4.984,4.984,0,0,1,7.12-.047,4.929,4.929,0,0,1-.1,7.056q-8.391,8.375-16.786,16.746a3.069,3.069,0,0,1-.609.354c.379.334.58.494.761.673q8.453,8.384,16.907,16.769a5.707,5.707,0,0,1,1.483,2.235C643.341,368.448,643.417,368.7,643.5,368.959Z" transform="translate(-591 -322.778)" fill="#fff"/>
    </g>
  </g>
</svg>
