<svg xmlns="http://www.w3.org/2000/svg" width="100" height="100" viewBox="0 0 100 100">
  <g id="account-settings" transform="translate(-47 -47)">
    <rect id="Rectangle_1" data-name="Rectangle 1" width="100" height="100" transform="translate(47 47)" fill="#fff" opacity="0"/>
    <g id="Group_46" data-name="Group 46" transform="translate(48.9 49.1)">
      <g id="Group_45" data-name="Group 45" transform="translate(40.152 0.9)" style="mix-blend-mode: normal;isolation: isolate">
        <path id="Path_111" data-name="Path 111" d="M46.858,42.048a20.382,20.382,0,0,1,.952-2.1,27.806,27.806,0,0,1,2-2.667A1.013,1.013,0,0,0,50,36.142a5.358,5.358,0,0,1-.667-1.714,1.034,1.034,0,0,0-1.143-.857c-1.143-.1-2.381-.286-3.524-.476A3.123,3.123,0,0,1,42,29.856V24.9a3.094,3.094,0,0,1,2.667-3.143c1.143-.19,2.381-.381,3.619-.476.571-.1,1.048-.19,1.143-.857a3.027,3.027,0,0,1,.286-.857c.857-1.143.476-2-.381-2.857L47.905,15a3.315,3.315,0,0,1,.286-4.667C49.334,9.187,50.382,8.044,51.525,7a3.04,3.04,0,0,1,4.381-.286c.952.667,1.81,1.429,2.762,2.191a.866.866,0,0,0,1.048.1,5.359,5.359,0,0,1,1.714-.667c.762-.19.857-.667.952-1.333.1-1.143.286-2.286.476-3.429A3.177,3.177,0,0,1,66,.9h5.048a3.094,3.094,0,0,1,3.143,2.667c.19,1.143.381,2.381.476,3.619.1.571.19.952.857,1.048a3.027,3.027,0,0,1,.857.286,1.826,1.826,0,0,0,2.762-.381c.571-.571,1.238-.952,1.81-1.429A3.406,3.406,0,0,1,85.624,7c1.143,1.048,2.191,2.191,3.238,3.238a3.406,3.406,0,0,1,.286,4.667l-2,2.572a1.012,1.012,0,0,0-.19,1.238,4.491,4.491,0,0,1,.571,1.429c.19.857.762,1.048,1.524,1.143,1.143.1,2.191.286,3.238.476a3.246,3.246,0,0,1,2.667,3.048c0,1.714.1,3.524,0,5.239a3.068,3.068,0,0,1-2.572,3.048c-1.143.191-2.381.381-3.619.476-.571.1-1.048.19-1.143.952,0,.1,0,.191-.1.191-1.048,1.524-.667,2.762.571,4a16.288,16.288,0,0,1,1.048,1.333,3.354,3.354,0,0,1-.191,4.477l-3.429,3.429a3.361,3.361,0,0,1-4.477.286c-.952-.667-1.81-1.429-2.762-2.191a.867.867,0,0,0-1.143-.1,14.655,14.655,0,0,1-1.81.762,1.131,1.131,0,0,0-.762.952c-.1,1.048-.286,2.1-.381,3.143a3.359,3.359,0,0,1-3.619,3.238H66.193a3.316,3.316,0,0,1-3.524-3.143c-.19-1.048-.286-2.1-.381-3.238-.1-.571-.19-.857-.857-1.048a4.376,4.376,0,0,1-1.524-.667,1.073,1.073,0,0,0-1.524.19c-.762.667-1.619,1.238-2.381,1.9a3.227,3.227,0,0,1-4.667-.286c-1.143-1.048-2.191-2.191-3.334-3.238a2.847,2.847,0,0,1-.952-2.381A.333.333,0,0,1,46.858,42.048ZM68.479,16.33a11.049,11.049,0,0,0,0,22.1A10.821,10.821,0,0,0,79.528,27.379,11,11,0,0,0,68.479,16.33Z" transform="translate(-42 -0.9)" fill="#318fb5"/>
      </g>
      <circle id="Ellipse_16" data-name="Ellipse 16" cx="20.479" cy="20.479" r="20.479" transform="translate(15.578 13.759)" fill="#f7d6bf"/>
      <path id="Path_112" data-name="Path 112" d="M68.917,89.361v8.572H3.1V89.361a32.909,32.909,0,0,1,65.817,0Z" transform="translate(0 -2.641)" fill="#005086"/>
    </g>
  </g>
</svg>
