<svg xmlns="http://www.w3.org/2000/svg" width="100" height="100" viewBox="0 0 100 100">
  <g id="edit-profile" transform="translate(-47 -47)">
    <rect id="Rectangle_1" data-name="Rectangle 1" width="100" height="100" transform="translate(47 47)" fill="#fff" opacity="0"/>
    <g id="Group_43" data-name="Group 43" transform="translate(49.989 50.352)">
      <ellipse id="Ellipse_13" data-name="Ellipse 13" cx="18.16" cy="20.607" rx="18.16" ry="20.607" transform="translate(21.761 2.3)" fill="#fcd09f"/>
      <path id="Path_103" data-name="Path 103" d="M25.807,45.4s12.609,14.114,28.6.282c0,0,6.775,4.611,8.28,6.492,0,0-27,8.28-14.4,34.721,0,0-21.453,5.175-41.5-11.95C6.8,75.228,7.082,54.057,25.807,45.4Z" transform="translate(0 -2.545)" fill="#1ea6c6"/>
      <circle id="Ellipse_14" data-name="Ellipse 14" cx="19.383" cy="19.383" r="19.383" transform="translate(49.425 53.299)" fill="#ef806f"/>
      <path id="Path_104" data-name="Path 104" d="M67.5,71.091,80.391,58.2a39.087,39.087,0,0,1,5.552,3.952L72.393,75.7Z" transform="translate(-3.585 -3.301)" fill="#f2f2f2"/>
      <path id="Path_105" data-name="Path 105" d="M77.593,80.842,72.7,75.95,86.155,62.4a24.116,24.116,0,0,1,3.67,5.552Z" transform="translate(-3.892 -3.549)" fill="#b3b3b3"/>
      <path id="Path_106" data-name="Path 106" d="M67.364,71.9,65.2,78.957s3.105.282,4.611,4.611L76.868,81.4a33.831,33.831,0,0,0-3.105-3.387A42.412,42.412,0,0,0,67.364,71.9Z" transform="translate(-3.449 -4.111)" fill="#fff"/>
      <path id="Path_107" data-name="Path 107" d="M65.064,79.4,62.9,86.457l6.775-2.164A6.332,6.332,0,0,0,65.064,79.4Z" transform="translate(-3.313 -4.553)" fill="gray"/>
    </g>
  </g>
</svg>
