<svg xmlns="http://www.w3.org/2000/svg" width="100" height="100" viewBox="0 0 100 100">
  <g id="language-settings" transform="translate(-47 -47)">
    <rect id="Rectangle_1" data-name="Rectangle 1" width="100" height="100" transform="translate(47 47)" fill="#fff" opacity="0"/>
    <g id="Group_61" data-name="Group 61" transform="translate(48.326 47.8)">
      <path id="Path_204" data-name="Path 204" d="M21.636,82.143S-3.384,67.972,9.712,41.779c0,0,5.278-9.48,13.878-12.705L68.352,6.4S86.628,5.032,92.785,38.065L83.208,74.227,68.743,87.616s-27.463,4.3-28.44,4.3S21.636,82.73,21.636,82.73" transform="translate(-0.119 -0.095)" fill="#e6edff"/>
      <path id="Path_205" data-name="Path 205" d="M17.216,96.656l-9.676.586s-9.089-7.428-6.353-9.089c0,0,2.346-1.661,5.962.782,0,0-7.428-5.473-2.541-6.255A15.543,15.543,0,0,1,10.277,86.2s-5.766-5.082-3.812-8.405c0,0,3.714-.489,7.232,6.255,0,0-3.225-4.007,1.661-10.848,0,0,1.466-.293,2.541,2.834V96.754Z" transform="translate(0 -1.609)" fill="#f94b70"/>
      <path id="Path_206" data-name="Path 206" d="M17.3,96.678l-7.525.489S2.739,91.4,4.791,90.13c0,0,1.857-1.271,4.593.586,0,0-5.766-4.3-1.955-4.887a11.482,11.482,0,0,1,4.4,2.737s-4.5-3.909-3.03-6.548c0,0,2.932-.391,5.669,4.887,0,0-2.541-3.127,1.271-8.405,0,0,1.173-.2,1.955,2.15V96.776Z" transform="translate(-0.085 -1.729)" fill="#ea3f6c"/>
      <path id="Path_207" data-name="Path 207" d="M16.809,96.53l-4.789.293s-4.5-3.714-3.225-4.5c0,0,1.173-.782,2.932.391,0,0-3.714-2.737-1.271-3.127A8.7,8.7,0,0,1,13.29,91.35s-2.932-2.541-1.955-4.2c0,0,1.857-.2,3.616,3.127,0,0-1.661-1.955.782-5.375,0,0,.782-.2,1.271,1.368v10.36Z" transform="translate(-0.179 -1.874)" fill="#f94b70"/>
      <path id="Path_208" data-name="Path 208" d="M70.842,95.633H17.871A1.294,1.294,0,0,1,16.6,94.363V3.471A1.294,1.294,0,0,1,17.871,2.2H70.94A1.294,1.294,0,0,1,72.21,3.471V94.363A1.383,1.383,0,0,1,70.842,95.633Z" transform="translate(-0.361)" fill="#39484c"/>
      <rect id="Rectangle_20" data-name="Rectangle 20" width="45.739" height="77.698" transform="translate(21.126 11.289)" fill="#fff"/>
      <circle id="Ellipse_45" data-name="Ellipse 45" cx="1.661" cy="1.661" r="1.661" transform="translate(42.334 5.034)" fill="#fff"/>
      <path id="Path_209" data-name="Path 209" d="M74.443,27.007h-2.15A.312.312,0,0,1,72,26.714V18.993a.312.312,0,0,1,.293-.293h2.15a.312.312,0,0,1,.293.293v7.721A.259.259,0,0,1,74.443,27.007Z" transform="translate(-1.617 -0.374)" fill="#39484c"/>
      <path id="Path_210" data-name="Path 210" d="M74.443,37.155h-2.15A.312.312,0,0,1,72,36.862V31.193a.312.312,0,0,1,.293-.293h2.15a.312.312,0,0,1,.293.293v5.669A.312.312,0,0,1,74.443,37.155Z" transform="translate(-1.617 -0.65)" fill="#39484c"/>
      <circle id="Ellipse_46" data-name="Ellipse 46" cx="1.661" cy="1.661" r="1.661" transform="translate(10.961 45.203)" fill="#fff"/>
      <circle id="Ellipse_47" data-name="Ellipse 47" cx="1.661" cy="1.661" r="1.661" transform="translate(78.691 21.356)" fill="#f4b831"/>
      <circle id="Ellipse_48" data-name="Ellipse 48" cx="1.466" cy="1.466" r="1.466" transform="translate(74.39 37.677)" fill="#fff"/>
      <circle id="Ellipse_49" data-name="Ellipse 49" cx="1.661" cy="1.661" r="1.661" transform="translate(10.571 62.208)" fill="#fff"/>
      <circle id="Ellipse_50" data-name="Ellipse 50" cx="1.661" cy="1.661" r="1.661" transform="translate(76.15 45.985)" fill="#fff"/>
      <rect id="Rectangle_21" data-name="Rectangle 21" width="21.404" height="21.404" transform="translate(39.206 43.737)" fill="#3434ea"/>
      <rect id="Rectangle_22" data-name="Rectangle 22" width="21.404" height="21.404" transform="translate(27.087 25.461)" fill="#ed5132"/>
      <path id="Path_211" data-name="Path 211" d="M73.9,60.116S73.411,33.239,88.853,35c0,0,15.735,2.15-.293,27.756Z" transform="translate(-1.66 -0.741)" fill="#b3cbff"/>
      <path id="Path_212" data-name="Path 212" d="M79.968,59.649s.88-7.037-1.368-11.533c0,0,.782-1.466,1.759.88,0,0,1.759,2.346,1.173,7.623l5.082-11.435s.88-1.661,1.564.2L83.389,56.912s3.225-3.421,6.45-3.518c0,0,1.368.1.2,1.368,0,0-5.18,1.564-7.819,5.962Z" transform="translate(-1.766 -0.959)" fill="#fff"/>
      <g id="Group_60" data-name="Group 60" transform="translate(55.039 54.683)" style="mix-blend-mode: normal;isolation: isolate">
        <path id="Path_213" data-name="Path 213" d="M59.916,88.152c.2-.489.489-1.075.782-1.661a18.717,18.717,0,0,1,1.564-2.052.937.937,0,0,0,.2-.88,3.283,3.283,0,0,1-.489-1.368.907.907,0,0,0-.88-.684,26.343,26.343,0,0,1-2.737-.391A2.384,2.384,0,0,1,56.3,78.574V74.665a2.351,2.351,0,0,1,2.052-2.443,24.778,24.778,0,0,1,2.834-.391c.489-.1.782-.2.88-.684,0-.2.2-.489.2-.684.684-.88.391-1.564-.293-2.248a13.139,13.139,0,0,1-1.075-1.368,2.6,2.6,0,0,1,.2-3.616l2.639-2.639a2.355,2.355,0,0,1,3.421-.2,12.106,12.106,0,0,1,2.15,1.759.765.765,0,0,0,.782.1,3.283,3.283,0,0,1,1.368-.489c.586-.2.684-.489.782-1.075.1-.88.2-1.759.391-2.737A2.351,2.351,0,0,1,75.065,55.9h4.007a2.351,2.351,0,0,1,2.443,2.052,24.775,24.775,0,0,1,.391,2.834c.1.489.2.782.684.782.2,0,.489.2.684.2a1.4,1.4,0,0,0,2.15-.293A7,7,0,0,1,86.891,60.4a2.7,2.7,0,0,1,3.616.2c.88.782,1.759,1.759,2.541,2.541a2.6,2.6,0,0,1,.2,3.616c-.489.684-1.075,1.368-1.564,2.052-.2.293-.391.586-.2.977a9.524,9.524,0,0,1,.489,1.075c.2.684.586.782,1.173.88a19.779,19.779,0,0,1,2.541.391,2.408,2.408,0,0,1,2.052,2.346c0,1.368.1,2.737,0,4.1a2.323,2.323,0,0,1-2.052,2.346,24.777,24.777,0,0,1-2.834.391c-.489.1-.782.2-.88.782,0,.1,0,.2-.1.2-.782,1.173-.489,2.15.489,3.127a10.237,10.237,0,0,1,.782,1.075,2.685,2.685,0,0,1-.2,3.518l-2.737,2.737a2.575,2.575,0,0,1-3.518.2,12.106,12.106,0,0,1-2.15-1.759.728.728,0,0,0-.88-.1,9.172,9.172,0,0,1-1.466.586.971.971,0,0,0-.586.782c-.1.782-.2,1.661-.293,2.443a2.6,2.6,0,0,1-2.834,2.541H75.065a2.549,2.549,0,0,1-2.737-2.443,20.148,20.148,0,0,1-.293-2.541c-.1-.489-.2-.684-.684-.782a4.23,4.23,0,0,1-1.173-.489.812.812,0,0,0-1.173.2c-.586.489-1.271.977-1.857,1.466a2.508,2.508,0,0,1-3.616-.2c-.88-.782-1.759-1.759-2.639-2.541a2.5,2.5,0,0,1-.782-1.857ZM76.824,67.921a8.781,8.781,0,0,0-8.7,8.7,8.7,8.7,0,1,0,8.7-8.7Z" transform="translate(-56.3 -55.9)" fill="#f4b831"/>
      </g>
      <circle id="Ellipse_51" data-name="Ellipse 51" cx="8.796" cy="8.796" r="8.796" transform="translate(66.767 66.509)" fill="#fff"/>
      <path id="Path_214" data-name="Path 214" d="M52.773,58.41H49.938l-.586,2.932a1.009,1.009,0,0,1-1.271.977c-.586-.1-.88-.586-.782-1.368.586-2.932,1.173-5.864,1.759-8.7.1-.391.1-.782.2-1.173.2-.586.489-.88,1.075-.88h1.955a.986.986,0,0,1,1.075.88c.586,3.03,1.271,6.157,1.857,9.187.1.293.1.586.2.88a.989.989,0,0,1-1.955.293L52.87,58.8A1.011,1.011,0,0,1,52.773,58.41Zm-2.443-2.052h2.052c-.293-1.368-.489-2.639-.782-4.1-.2.2-.391.293-.489.391C50.818,53.816,50.623,55.087,50.329,56.357Z" transform="translate(-1.056 -1.088)" fill="#fff"/>
      <path id="Path_215" data-name="Path 215" d="M38.077,40.755c-.88.684-1.661,1.368-2.443,1.955a1.031,1.031,0,0,1-1.759-.586,1.121,1.121,0,0,1,.489-1.173c.782-.586,1.466-1.173,2.248-1.857a15.733,15.733,0,0,1-2.443-4.3c-.1-.1-.293-.293-.391-.293-.684-.2-1.075-.586-.977-1.271a1.024,1.024,0,0,1,1.173-.88H37v-.977c0-.684.489-1.271,1.075-1.173a1.141,1.141,0,0,1,1.075,1.271v.977h3.225a1.063,1.063,0,0,1,1.075.88.951.951,0,0,1-.88,1.173c-.489.1-.489.293-.684.684-.684,1.368-1.466,2.737-2.248,4.2.684.489,1.466,1.075,2.248,1.759a1.335,1.335,0,0,1,.391,1.075A.841.841,0,0,1,41.5,43a1.97,1.97,0,0,1-1.075-.293C39.641,42.123,38.859,41.439,38.077,40.755Zm-.2-3.225h.293c.586-.977,1.173-1.955,1.759-3.03H36.22C36.807,35.673,37.393,36.65,37.882,37.53Z" transform="translate(-0.728 -0.634)" fill="#fff"/>
    </g>
  </g>
</svg>
