<svg xmlns="http://www.w3.org/2000/svg" width="100" height="100" viewBox="0 0 100 100">
  <g id="our-blog" transform="translate(-47 -47)">
    <rect id="Rectangle_1" data-name="Rectangle 1" width="100" height="100" transform="translate(47 47)" fill="#fff" opacity="0"/>
    <g id="Group_59" data-name="Group 59" transform="translate(49.2 50.3)">
      <path id="Path_191" data-name="Path 191" d="M83.747,90.087H12.053A7.262,7.262,0,0,1,4.8,82.833V10.953A7.262,7.262,0,0,1,12.053,3.7H83.747A7.262,7.262,0,0,1,91,10.953V82.926A7.243,7.243,0,0,1,83.747,90.087Z" fill="#f9f9f9"/>
      <path id="Path_192" data-name="Path 192" d="M94.177,10.767V83.019A7.045,7.045,0,0,1,87.2,90.087H50.1V3.7H87.2A7.045,7.045,0,0,1,94.177,10.767Z" transform="translate(-3.176)" fill="#e2dff4"/>
      <path id="Path_193" data-name="Path 193" d="M91,10.767v14.6H4.8v-14.6A7.064,7.064,0,0,1,11.867,3.7H83.933A7.064,7.064,0,0,1,91,10.767Z" fill="#7d81e7"/>
      <path id="Path_194" data-name="Path 194" d="M94.212,10.767v14.6H50.6V3.7H87.145A7.064,7.064,0,0,1,94.212,10.767Z" transform="translate(-3.211)" fill="#5e69e2"/>
      <path id="Path_195" data-name="Path 195" d="M17.723,17.956H13.074A1.667,1.667,0,0,1,11.4,16.283V15.074A1.667,1.667,0,0,1,13.074,13.4h4.649A1.667,1.667,0,0,1,19.4,15.074v1.209A1.729,1.729,0,0,1,17.723,17.956Z" transform="translate(-0.463 -0.68)" fill="#fff79f"/>
      <path id="Path_196" data-name="Path 196" d="M31.823,18.156H27.174A1.667,1.667,0,0,1,25.5,16.483V15.274A1.667,1.667,0,0,1,27.174,13.6h4.649A1.667,1.667,0,0,1,33.5,15.274v1.209A1.729,1.729,0,0,1,31.823,18.156Z" transform="translate(-1.451 -0.694)" fill="#90e36a"/>
      <path id="Path_197" data-name="Path 197" d="M46.323,18.156H41.674A1.667,1.667,0,0,1,40,16.483V15.274A1.667,1.667,0,0,1,41.674,13.6h4.649A1.667,1.667,0,0,1,48,15.274v1.209A1.667,1.667,0,0,1,46.323,18.156Z" transform="translate(-2.468 -0.694)" fill="#ff80a7"/>
      <g id="Group_57" data-name="Group 57" transform="translate(12.983 45.266)" style="mix-blend-mode: normal;isolation: isolate">
        <path id="Path_198" data-name="Path 198" d="M21.6,67.6H15.925a2.367,2.367,0,0,1-1.767-.558,2.367,2.367,0,0,1-.558-1.767V51.325a2.367,2.367,0,0,1,.558-1.767A2.367,2.367,0,0,1,15.925,49h6.044a15.675,15.675,0,0,1,2.325.186,4.076,4.076,0,0,1,1.767.651,4.173,4.173,0,0,1,1.209,1.023,3.649,3.649,0,0,1,.744,1.3,4.344,4.344,0,0,1,.279,1.581,4.262,4.262,0,0,1-2.79,4.092c2.418.744,3.627,2.325,3.627,4.556a4.92,4.92,0,0,1-.837,2.79,4.612,4.612,0,0,1-2.139,1.86A6.023,6.023,0,0,1,24.2,67.5C23.364,67.5,22.527,67.6,21.6,67.6ZM17.32,51.883v4.835H20.76a6.243,6.243,0,0,0,2.139-.279,2.24,2.24,0,0,0,1.488-2.232,1.853,1.853,0,0,0-1.023-1.86,8.135,8.135,0,0,0-3.069-.465Zm4,7.439H17.413v5.486h4c2.511,0,3.813-.93,3.813-2.79A2.352,2.352,0,0,0,24.2,59.973,5.736,5.736,0,0,0,21.318,59.322Z" transform="translate(-13.6 -48.442)" fill="#0a789b"/>
        <path id="Path_199" data-name="Path 199" d="M37.413,50.932V64.415h7.625a1.925,1.925,0,0,1,1.395.465,1.572,1.572,0,0,1,0,2.232,2.284,2.284,0,0,1-1.395.465H35.925A2.008,2.008,0,0,1,33.6,65.252V50.932a2.273,2.273,0,0,1,.558-1.674,2.023,2.023,0,0,1,2.79,0A2.761,2.761,0,0,1,37.413,50.932Z" transform="translate(-15.002 -48.421)" fill="#0a789b"/>
        <path id="Path_200" data-name="Path 200" d="M57.313,48.7a9.231,9.231,0,0,1,4.928,1.209A7.365,7.365,0,0,1,65.4,53.256a10.932,10.932,0,0,1,1.023,5.114,13.216,13.216,0,0,1-.558,3.906A7.209,7.209,0,0,1,64.1,65.345,7.916,7.916,0,0,1,61.218,67.3a11.286,11.286,0,0,1-7.811-.093,7.916,7.916,0,0,1-2.883-1.953,8.317,8.317,0,0,1-1.767-3.069,13.216,13.216,0,0,1-.558-3.906,10.769,10.769,0,0,1,.651-3.906A8.317,8.317,0,0,1,50.618,51.3,7.916,7.916,0,0,1,53.5,49.351,9.641,9.641,0,0,1,57.313,48.7Zm5.3,9.578a8.273,8.273,0,0,0-.651-3.534,4.486,4.486,0,0,0-1.86-2.232,5.681,5.681,0,0,0-2.79-.744,4.734,4.734,0,0,0-2.046.465,4.3,4.3,0,0,0-1.674,1.209,6.138,6.138,0,0,0-1.116,2.046,8.812,8.812,0,0,0-.372,2.79,9.415,9.415,0,0,0,.372,2.883A6.638,6.638,0,0,0,53.593,63.3a4.545,4.545,0,0,0,1.674,1.3,5,5,0,0,0,2.046.372,5.6,5.6,0,0,0,2.7-.744A4.641,4.641,0,0,0,61.962,62,11.082,11.082,0,0,0,62.613,58.278Z" transform="translate(-16.026 -48.421)" fill="#0a789b"/>
        <path id="Path_201" data-name="Path 201" d="M88.161,60.024v3.534c0,.465-.093.837-.093,1.116s-.279.558-.558.744a8.044,8.044,0,0,1-.93.651,13.206,13.206,0,0,1-3.255,1.3,13.01,13.01,0,0,1-3.441.372,10.769,10.769,0,0,1-3.906-.651A8.291,8.291,0,0,1,73,65.138a8.68,8.68,0,0,1-1.953-3.069,12.607,12.607,0,0,1,0-8A8.491,8.491,0,0,1,72.911,51a8.68,8.68,0,0,1,3.069-1.953,11.454,11.454,0,0,1,4.092-.651,12.655,12.655,0,0,1,3.348.465,6.914,6.914,0,0,1,2.325,1.3,7.407,7.407,0,0,1,1.395,1.581,3.418,3.418,0,0,1,.465,1.488,1.637,1.637,0,0,1-.558,1.209,1.619,1.619,0,0,1-1.3.465A1.752,1.752,0,0,1,85,54.723a1.25,1.25,0,0,1-.651-.558,9.84,9.84,0,0,0-1.209-1.674,3.609,3.609,0,0,0-1.3-.93,4.475,4.475,0,0,0-2.046-.372,6.092,6.092,0,0,0-2.325.465,4.856,4.856,0,0,0-1.767,1.3A6.638,6.638,0,0,0,74.584,55.1a8.812,8.812,0,0,0-.372,2.79A7.526,7.526,0,0,0,75.7,62.906a5.159,5.159,0,0,0,4.184,1.767A6.934,6.934,0,0,0,82.3,64.3a12.129,12.129,0,0,0,2.325-.93V60.4H81.745a3.431,3.431,0,0,1-1.581-.279A1.125,1.125,0,0,1,79.606,59a1.493,1.493,0,0,1,.465-1.023,1.715,1.715,0,0,1,1.209-.372h4.277a5.32,5.32,0,0,1,1.3.093,1.183,1.183,0,0,1,.837.651A2.7,2.7,0,0,1,88.161,60.024Z" transform="translate(-17.582 -48.4)" fill="#0a789b"/>
      </g>
      <g id="Group_58" data-name="Group 58" transform="translate(45.157 45.266)" style="mix-blend-mode: normal;isolation: isolate">
        <path id="Path_202" data-name="Path 202" d="M65.4,53.156a8.413,8.413,0,0,0-3.162-3.348A10.441,10.441,0,0,0,57.313,48.6a9.95,9.95,0,0,0-3.813.651A8.788,8.788,0,0,0,50.618,51.2a8.317,8.317,0,0,0-1.767,3.069,12.923,12.923,0,0,0-.093,7.811,7.209,7.209,0,0,0,1.767,3.069A7.916,7.916,0,0,0,53.407,67.1a11.286,11.286,0,0,0,7.811.093A8.788,8.788,0,0,0,64.1,65.245a8.316,8.316,0,0,0,1.767-3.069,13.216,13.216,0,0,0,.558-3.906A12.54,12.54,0,0,0,65.4,53.156ZM61.869,61.9a4.641,4.641,0,0,1-1.953,2.232,4.27,4.27,0,0,1-2.6.744,5,5,0,0,1-2.046-.372,4.545,4.545,0,0,1-1.674-1.3,6.638,6.638,0,0,1-1.116-2.139,9.039,9.039,0,0,1-.372-2.883,8.812,8.812,0,0,1,.372-2.79,6.138,6.138,0,0,1,1.116-2.046,4.3,4.3,0,0,1,1.674-1.209,5.068,5.068,0,0,1,2.046-.465,5.681,5.681,0,0,1,2.79.744,5.467,5.467,0,0,1,1.86,2.232,8.273,8.273,0,0,1,.651,3.534A8.523,8.523,0,0,1,61.869,61.9Z" transform="translate(-48.2 -48.414)" fill="#08475e"/>
        <path id="Path_203" data-name="Path 203" d="M88.161,60.024v3.534c0,.465-.093.837-.093,1.116s-.279.558-.558.744a8.044,8.044,0,0,1-.93.651,13.206,13.206,0,0,1-3.255,1.3,13.01,13.01,0,0,1-3.441.372,10.769,10.769,0,0,1-3.906-.651A8.291,8.291,0,0,1,73,65.138a8.68,8.68,0,0,1-1.953-3.069,12.607,12.607,0,0,1,0-8A8.491,8.491,0,0,1,72.911,51a8.68,8.68,0,0,1,3.069-1.953,11.454,11.454,0,0,1,4.092-.651,12.655,12.655,0,0,1,3.348.465,6.914,6.914,0,0,1,2.325,1.3,7.407,7.407,0,0,1,1.395,1.581,3.418,3.418,0,0,1,.465,1.488,1.637,1.637,0,0,1-.558,1.209,1.619,1.619,0,0,1-1.3.465A1.752,1.752,0,0,1,85,54.723a1.25,1.25,0,0,1-.651-.558,9.84,9.84,0,0,0-1.209-1.674,3.609,3.609,0,0,0-1.3-.93,4.475,4.475,0,0,0-2.046-.372,6.092,6.092,0,0,0-2.325.465,4.856,4.856,0,0,0-1.767,1.3A6.638,6.638,0,0,0,74.584,55.1a8.812,8.812,0,0,0-.372,2.79A7.526,7.526,0,0,0,75.7,62.906a5.159,5.159,0,0,0,4.184,1.767A6.934,6.934,0,0,0,82.3,64.3a12.129,12.129,0,0,0,2.325-.93V60.4H81.745a3.431,3.431,0,0,1-1.581-.279A1.125,1.125,0,0,1,79.606,59a1.493,1.493,0,0,1,.465-1.023,1.715,1.715,0,0,1,1.209-.372h4.277a5.32,5.32,0,0,1,1.3.093,1.183,1.183,0,0,1,.837.651A2.7,2.7,0,0,1,88.161,60.024Z" transform="translate(-49.757 -48.4)" fill="#08475e"/>
      </g>
    </g>
  </g>
</svg>
