<svg xmlns="http://www.w3.org/2000/svg" width="100" height="100" viewBox="0 0 100 100">
  <g id="user-analytics" transform="translate(-47 -47)">
    <rect id="Rectangle_1" data-name="Rectangle 1" width="100" height="100" transform="translate(47 47)" fill="#fff" opacity="0"/>
    <g id="Group_54" data-name="Group 54" transform="translate(49.3 48.7)">
      <ellipse id="Ellipse_39" data-name="Ellipse 39" cx="15.165" cy="6.911" rx="15.165" ry="6.911" transform="translate(62.743 73.606)" fill="#ffe177"/>
      <path id="Path_155" data-name="Path 155" d="M89.3,83.358H73.464a.86.86,0,0,1-.864-.864V56.964a.86.86,0,0,1,.864-.864H89.3a.86.86,0,0,1,.864.864V82.494C90.26,82.974,89.876,83.358,89.3,83.358Z" transform="translate(-2.851 -1.882)" fill="#837683"/>
      <path id="Path_156" data-name="Path 156" d="M90.8,58.975v21.4a2.888,2.888,0,0,1-2.879,2.879H86a2.972,2.972,0,0,0,2.975-2.879v-21.4A2.99,2.99,0,0,0,86,56h1.92A3.039,3.039,0,0,1,90.8,58.975Z" transform="translate(-3.389 -1.878)" fill="#685e68"/>
      <rect id="Rectangle_17" data-name="Rectangle 17" width="11.421" height="2.879" transform="translate(11.86 38.654) rotate(-38.23)" fill="#a79ba7"/>
      <rect id="Rectangle_18" data-name="Rectangle 18" width="2.879" height="11.422" transform="matrix(0.186, -0.982, 0.982, 0.186, 25.951, 32.476)" fill="#a79ba7"/>
      <rect id="Rectangle_19" data-name="Rectangle 19" width="14.685" height="2.879" transform="matrix(0.756, -0.655, 0.655, 0.756, 41.652, 30.441)" fill="#a79ba7"/>
      <path id="Path_157" data-name="Path 157" d="M13.474,71.649h-7.2a.619.619,0,0,1-.576-.576v-14.4a.619.619,0,0,1,.576-.576H13.57a.619.619,0,0,1,.576.576v14.4A.823.823,0,0,1,13.474,71.649Z" transform="translate(-0.161 -1.882)" fill="#fe646f"/>
      <path id="Path_158" data-name="Path 158" d="M14.291,57.928v11.9a1.822,1.822,0,0,1-1.824,1.824H11.7V56.2h.768A1.744,1.744,0,0,1,14.291,57.928Z" transform="translate(-0.402 -1.886)" fill="#fd4755"/>
      <path id="Path_159" data-name="Path 159" d="M44.97,71.407H37.676a.619.619,0,0,1-.576-.576V48.276a.619.619,0,0,1,.576-.576H44.97a.619.619,0,0,1,.576.576V70.927A.608.608,0,0,1,44.97,71.407Z" transform="translate(-1.423 -1.544)" fill="#6cf5c2"/>
      <path id="Path_160" data-name="Path 160" d="M45.691,49.524v21.5a1.822,1.822,0,0,1-1.824,1.824H43.1V47.7h.864A1.744,1.744,0,0,1,45.691,49.524Z" transform="translate(-1.665 -1.544)" fill="#00e499"/>
      <path id="Path_161" data-name="Path 161" d="M60.67,69.956H53.376a.619.619,0,0,1-.576-.576v-38.1a.619.619,0,0,1,.576-.576H60.67a.619.619,0,0,1,.576.576v38.1Q61.1,69.956,60.67,69.956Z" transform="translate(-2.055 -0.86)" fill="#8ac9fe"/>
      <path id="Path_162" data-name="Path 162" d="M61.491,32.62V68.228a1.765,1.765,0,0,1-1.824,1.824H58.9V30.7h.768A1.845,1.845,0,0,1,61.491,32.62Z" transform="translate(-2.3 -0.86)" fill="#60b7ff"/>
      <path id="Path_163" data-name="Path 163" d="M29.174,71.178h-7.2A.619.619,0,0,1,21.4,70.6V42.576A.619.619,0,0,1,21.976,42H29.27a.619.619,0,0,1,.576.576V70.6A.7.7,0,0,1,29.174,71.178Z" transform="translate(-0.792 -1.315)" fill="#ffe177"/>
      <path id="Path_164" data-name="Path 164" d="M29.991,43.924V69.358a1.765,1.765,0,0,1-1.824,1.824H27.4V42.1h.768A1.765,1.765,0,0,1,29.991,43.924Z" transform="translate(-1.033 -1.319)" fill="#ffd064"/>
      <path id="Path_165" data-name="Path 165" d="M62.647,74.223H2.18a.453.453,0,0,1-.48-.48V70.48A.453.453,0,0,1,2.18,70H62.647a.453.453,0,0,1,.48.48v3.359A.439.439,0,0,1,62.647,74.223Z" transform="translate(0 -2.441)" fill="#837683"/>
      <path id="Path_166" data-name="Path 166" d="M63.131,71.54V72.6H1.8V71.54A1.413,1.413,0,0,1,3.24,70.1H61.6A1.5,1.5,0,0,1,63.131,71.54Z" transform="translate(-0.004 -2.445)" fill="#a79ba7"/>
      <circle id="Ellipse_40" data-name="Ellipse 40" cx="4.991" cy="4.991" r="4.991" transform="translate(4.675 37.518)" fill="#fe646f"/>
      <circle id="Ellipse_41" data-name="Ellipse 41" cx="4.991" cy="4.991" r="4.991" transform="translate(19.744 25.712)" fill="#ffe177"/>
      <circle id="Ellipse_42" data-name="Ellipse 42" cx="4.991" cy="4.991" r="4.991" transform="translate(34.813 28.88)" fill="#6cf5c2"/>
      <circle id="Ellipse_43" data-name="Ellipse 43" cx="4.991" cy="4.991" r="4.991" transform="translate(49.786 15.443)" fill="#8ac9fe"/>
      <ellipse id="Ellipse_44" data-name="Ellipse 44" cx="7.006" cy="7.966" rx="7.006" ry="7.966" transform="translate(71.477 9.3)" fill="#f6dccd"/>
      <path id="Path_167" data-name="Path 167" d="M88.666,17.366c0,4.415-3.167,7.966-7.006,7.966h-.48c3.359-.576,5.951-3.935,5.951-7.87,0-4.223-2.879-7.678-6.431-7.966a3.6,3.6,0,0,1,1.056-.1C85.5,9.3,88.666,12.855,88.666,17.366Z" transform="translate(-3.176 -0.004)" fill="#f1cbbc"/>
      <path id="Path_168" data-name="Path 168" d="M65.8,34.194V54.541s.1,5.279,8.638,5.471H89.123s5.663.768,6.335-6.623V34.578s1.92-6.623-10.942-7.486C84.516,27.091,67.048,24.98,65.8,34.194Z" transform="translate(-2.577 -0.707)" fill="#80b4fb"/>
      <path id="Path_169" data-name="Path 169" d="M96.269,34.578V53.294c-.576,7.486-5.087,6.623-5.087,6.623h-.96c1.344-.192,3.839-1.344,4.223-6.623V34.578s1.536-6.623-8.83-7.486c0,0-.768-.1-2.016-.192a19.551,19.551,0,0,1,3.839.192C97.8,27.859,96.269,34.578,96.269,34.578Z" transform="translate(-3.293 -0.707)" fill="#61a2f9"/>
      <path id="Path_170" data-name="Path 170" d="M88.852,61.3a3.751,3.751,0,0,1-1.152,0Z" transform="translate(-3.458 -2.091)" fill="#61a2f9"/>
      <path id="Path_171" data-name="Path 171" d="M74.687,40.644V60.128H72V40.644a1.344,1.344,0,1,1,2.687,0Z" transform="translate(-2.826 -1.206)" fill="#61a2f9"/>
      <path id="Path_172" data-name="Path 172" d="M83.387,65.948V83.7H80.7V65.948A1.293,1.293,0,0,1,82.044,64.7,1.358,1.358,0,0,1,83.387,65.948Z" transform="translate(-3.176 -2.227)" fill="#685e68"/>
      <path id="Path_173" data-name="Path 173" d="M90.587,40.944v19.58H87.9V40.944A1.312,1.312,0,0,1,89.244,39.6,1.373,1.373,0,0,1,90.587,40.944Z" transform="translate(-3.466 -1.218)" fill="#61a2f9"/>
    </g>
  </g>
</svg>
