<svg xmlns="http://www.w3.org/2000/svg" width="100" height="100" viewBox="0 0 100 100">
  <g id="business-icon" transform="translate(6137 3259)">
    <g id="Rectangle_12142" data-name="Rectangle 12142" transform="translate(-6137 -3259)" fill="#fff" stroke="#707070" stroke-width="1" opacity="0">
      <rect width="100" height="100" stroke="none"/>
      <rect x="0.5" y="0.5" width="99" height="99" fill="none"/>
    </g>
    <g id="Group_62897" data-name="Group 62897" transform="translate(-5598.758 -3265.216)">
      <path id="Path_70915" data-name="Path 70915" d="M-487.773,99.3q-18.66,0-37.32,0c-3.037,0-3.727-.691-3.727-3.737,0-13.214-.018-26.428.025-39.642a2.61,2.61,0,0,0-1.475-2.668,13.622,13.622,0,0,1-7-11.639,4.823,4.823,0,0,1,.719-2.449c4.568-8.122,9.221-16.2,13.755-24.337A3.774,3.774,0,0,1-519.07,12.7q23.769.039,47.539.015c5.007,0,10.014.03,15.02-.016a3.764,3.764,0,0,1,3.729,2.131q6.854,12.271,13.9,24.433c.977,1.687.64,3.334.271,4.945a13.62,13.62,0,0,1-6.917,9.223,2.086,2.086,0,0,0-1.27,2.146q.047,19.976.02,39.952c0,3.129-.654,3.771-3.831,3.771Q-469.191,99.3-487.773,99.3ZM-464.22,49.05c-2.982,4.037-6.886,6.228-11.774,6.225A14.082,14.082,0,0,1-487.7,49.149c-5.934,7.859-17.214,8.438-23.652.1-4.69,4.82-5.276,5.111-12.543,6.208v38.88h8.544V92.571c0-8.051-.011-16.1.006-24.153.009-4.005,2.313-7.533,6.217-8.11a37.761,37.761,0,0,1,11.343.045c4.06.651,6.094,4.043,6.109,8.644.026,7.844.008,15.689.008,23.533v1.815h40.04V55.354A14.794,14.794,0,0,1-464.22,49.05Zm18.749-11.245a5.546,5.546,0,0,0-.266-.747c-3.539-6.215-7.064-12.438-10.67-18.614a2.279,2.279,0,0,0-1.71-.822c-19.756-.042-39.513-.026-59.27-.06a2.025,2.025,0,0,0-2.058,1.177c-3.369,6.015-6.792,12-10.19,18a10.309,10.309,0,0,0-.445,1.067Zm-50.99,56.571c0-8.873.034-17.58-.026-26.286a3.443,3.443,0,0,0-3.673-3.4c-1.958-.051-3.918-.015-5.877-.011-3.187,0-4.4,1.189-4.4,4.35q-.014,11.91,0,23.82c0,.494.052.988.082,1.525Zm35.043-51.607c.311,4.083,4.3,7.557,8.643,7.67a9.106,9.106,0,0,0,9.393-7.67Zm-70.758-.005a9.162,9.162,0,0,0,9.651,7.659c4.323-.274,8.33-3.921,8.358-7.659Zm23.662,0c-.027,3.308,3.834,7.8,9.223,7.667,4.434-.108,8.739-3.892,8.657-7.667Zm41.454.02h-17.876c.05,3.979,4.481,7.692,9.039,7.65C-471.4,50.4-467.058,46.665-467.06,42.787Z" transform="translate(0 0)" fill="#001968"/>
      <path id="Path_70916" data-name="Path 70916" d="M-366.165,181.278c-1.429,0-2.859.006-4.288,0a4.635,4.635,0,0,1-4.944-4.656c-.1-2.354-.094-4.718,0-7.073a4.471,4.471,0,0,1,4.6-4.632q4.658-.143,9.324,0a4.584,4.584,0,0,1,4.649,4.932c.01,2.18.014,4.359,0,6.539a4.711,4.711,0,0,1-4.942,4.892C-363.234,181.285-364.7,181.278-366.165,181.278Zm-.006-3.406c1.462,0,2.924.014,4.385,0,1.171-.014,1.538-.374,1.547-1.536q.025-3.262,0-6.525c-.008-1.137-.418-1.588-1.524-1.6q-4.385-.036-8.771,0a1.369,1.369,0,0,0-1.524,1.525c0,2.21-.014,4.421,0,6.632.009,1.06.435,1.483,1.5,1.5C-369.094,177.888-367.632,177.872-366.17,177.872Z" transform="translate(-103.46 -101.073)" fill="#001968"/>
    </g>
  </g>
</svg>
