<svg xmlns="http://www.w3.org/2000/svg" width="42" height="42" viewBox="0 0 42 42">
  <g id="businesses" transform="translate(-231 -1634)">
    <rect id="Rectangle_11707" data-name="Rectangle 11707" width="42" height="42" transform="translate(231 1634)" fill="none"/>
    <g id="Group_59985" data-name="Group 59985" transform="translate(5.844 1529.769)">
      <path id="Path_68507" data-name="Path 68507" d="M229,234.95a3.667,3.667,0,0,1,.239-.394,1.079,1.079,0,0,1,1.5-.18q3.61,2.148,7.217,4.3c.518.308,1.034.619,1.554.923a1.62,1.62,0,0,1,.889,1.5.332.332,0,0,0,.109.244,1.742,1.742,0,0,0,1.679.265c.313-.118.631-.226.936-.362a2.868,2.868,0,0,1,2.757.171.8.8,0,0,0,.524.068c.556-.118,1.1-.27,1.654-.415a2.424,2.424,0,0,1,1.574.1c.372.151.746.3,1.122.436a1.581,1.581,0,0,0,1.224-.017c-.02-.122-.047-.239-.058-.357a1.57,1.57,0,0,1,.821-1.6q3.538-2.106,7.073-4.216c.594-.354,1.185-.713,1.783-1.062a1.074,1.074,0,0,1,1.712.977q0,4.925,0,9.851a2.007,2.007,0,0,1-1.023,1.835c-.287.173-.57.351-.863.513a.5.5,0,0,1-.725-.169.492.492,0,0,1,.21-.687c.292-.186.593-.356.889-.535a.981.981,0,0,0,.506-.886q0-4.942,0-9.884c0-.062-.014-.125-.026-.227-.126.065-.224.109-.316.164q-4.256,2.535-8.511,5.072c-.631.376-.678.573-.3,1.206l3.927,6.583c.25.419.49.485.91.243.271-.156.535-.324.807-.476a.51.51,0,0,1,.731.141.5.5,0,0,1-.213.715c-.321.2-.647.4-.981.577a1.507,1.507,0,0,1-1.534-.034c-.4-.226-.4-.232-.8.075a1.749,1.749,0,0,1,.077,2.174,1.772,1.772,0,0,1-2.11.639,1.886,1.886,0,0,1-.77,1.285,1.762,1.762,0,0,1-1.462.259,1.855,1.855,0,0,1-.979,1.478,1.793,1.793,0,0,1-1.734-.052c-.061.185-.1.357-.171.517a1.753,1.753,0,0,1-2.442.856c-.4-.214-.786-.469-1.187-.687a.354.354,0,0,0-.309-.009,1.8,1.8,0,0,1-2.958-.609,1.851,1.851,0,0,1-1.542-.075,1.772,1.772,0,0,1-.914-1.245c-1.375-.168-1.7-.4-2.079-1.5a1.78,1.78,0,0,1-1.975-1.243c-.321-.924.255-1.589.76-2.267l-.086-.067a1.4,1.4,0,0,0-.226.157,1.551,1.551,0,0,1-2.01.3c-1.3-.763-2.588-1.542-3.884-2.31a2.217,2.217,0,0,1-1-1.407Zm16.616,19.99c.391.232.762.457,1.137.675a.769.769,0,1,0,.768-1.317c-.314-.191-.638-.369-.945-.571a.5.5,0,0,1,.48-.867,1.8,1.8,0,0,1,.262.147c.749.442,1.493.894,2.249,1.324a.757.757,0,0,0,.775-1.3c-.194-.13-.4-.244-.6-.363-.652-.387-1.306-.771-1.957-1.161-.339-.2-.433-.478-.269-.747s.451-.3.79-.111c.049.027.1.057.144.086,1.075.637,2.146,1.28,3.228,1.9a1.192,1.192,0,0,0,.625.164.666.666,0,0,0,.622-.566.75.75,0,0,0-.415-.867c-1.1-.658-2.206-1.309-3.309-1.964a1.948,1.948,0,0,1-.28-.182.5.5,0,0,1,.495-.844,1.5,1.5,0,0,1,.293.16q2.217,1.312,4.435,2.625a.773.773,0,1,0,.777-1.316q-2.994-1.774-5.989-3.545c-.333-.2-.667-.391-1.018-.6-.058.116-.1.2-.145.291a2.286,2.286,0,0,1-1.962,1.31,1.106,1.106,0,0,1-1.256-1.154c-.006-.569.014-1.139-.005-1.708a2.9,2.9,0,0,1,.623-2.227,1.524,1.524,0,0,0-1.378-.133c-.419.152-.832.321-1.25.474a2.633,2.633,0,0,1-1.991-.043c-.193-.081-.376-.188-.589-.3l-3.393,5.727a.419.419,0,0,0,.6.114,1.033,1.033,0,0,1,.382-.11,1.771,1.771,0,0,1,1.85.864c1.309-.96,2.346-.637,3.083.956a1.814,1.814,0,0,1,1.635.648,1.849,1.849,0,0,1,.3,1.758A1.819,1.819,0,0,1,245.616,254.94Zm-15.588-19.816c-.011.147-.022.223-.022.3q0,4.89,0,9.78a1.065,1.065,0,0,0,.572.985c1.22.721,2.435,1.449,3.652,2.173.538.32.764.262,1.085-.28l3.873-6.534c.341-.575.285-.8-.284-1.137l-7.5-4.473C230.962,235.676,230.522,235.416,230.028,235.124Zm22.478,7.349a2.888,2.888,0,0,1-2.493-.071,5.2,5.2,0,0,0-.781-.3,1.658,1.658,0,0,0-.717-.086c-.677.136-1.348.31-2.011.5a1.3,1.3,0,0,0-.946,1.247c-.015.759,0,1.519-.009,2.278,0,.212.075.277.28.249a1.209,1.209,0,0,0,.968-.637,2.441,2.441,0,0,0,.2-.764.506.506,0,0,1,.79-.432c.07.035.136.077.2.117q3.413,2.02,6.827,4.037c.1.06.264.126.35.086a7.558,7.558,0,0,0,.757-.455Zm-13.3,10.494c.179-.1.415-.154.528-.3.561-.736,1.1-1.487,1.624-2.254a.751.751,0,0,0-1.222-.858c-.552.73-1.1,1.468-1.6,2.231A.8.8,0,0,0,239.2,252.966Zm2.064,1.484a1.818,1.818,0,0,0,.545-.333c.549-.718,1.076-1.453,1.586-2.2a.732.732,0,0,0-.214-1.008.715.715,0,0,0-1,.122c-.551.73-1.1,1.468-1.6,2.233A.8.8,0,0,0,241.266,254.45Zm-2.669-4.878a.756.756,0,0,0-1.277-.429,10.551,10.551,0,0,0-.873,1.223.664.664,0,0,0,.131.833.713.713,0,0,0,.8.2A3.306,3.306,0,0,0,238.6,249.572Zm5.051,5.87a1.484,1.484,0,0,0,.488-.248,5.928,5.928,0,0,0,.7-.977.747.747,0,0,0-1.223-.809,5.352,5.352,0,0,0-.644.893A.79.79,0,0,0,243.648,255.442Z" transform="translate(0 -114.603)" fill="#6b6e77"/>
      <path id="Path_68508" data-name="Path 68508" d="M339.811,110.759c0-.308-.012-.565,0-.82A1.656,1.656,0,0,1,341.5,108.3c.86-.016,1.72-.014,2.579,0a1.659,1.659,0,0,1,1.708,1.655c.013.254,0,.51,0,.808h1.3c.514,0,1.028-.008,1.541,0a1.849,1.849,0,0,1,1.817,1.824q.021,3.484,0,6.968a1.867,1.867,0,0,1-1.909,1.844c-.39.013-.782,0-1.172,0q-5.075,0-10.15,0a1.885,1.885,0,0,1-2.011-1.507,5.059,5.059,0,0,1-.031-1.2.437.437,0,0,1,.483-.416.468.468,0,0,1,.494.451c.028.243.008.491.014.736a.884.884,0,0,0,.862.925c.089.009.178.007.268.007,3.674,0,7.348.006,11.021-.01a1.648,1.648,0,0,0,.834-.25.78.78,0,0,0,.282-.569c.024-1.328.013-2.656.013-4.061a3.215,3.215,0,0,1-2.381.749c-.081.416.15,1.053-.531,1.044-.645-.009-.447-.617-.519-1.022h-6.414c-.072.413.127,1.037-.551,1.021-.634-.015-.431-.605-.493-1.031a3.3,3.3,0,0,1-2.392-.771c0,.32,0,.569,0,.818-.008.385-.207.616-.517.611s-.485-.228-.486-.6c0-1.228-.009-2.457,0-3.685a1.861,1.861,0,0,1,1.9-1.881c.793-.009,1.586,0,2.378,0Zm-1.26,4.472c.06-.4-.145-1,.492-1.009.677-.014.481.607.545,1.017h6.445c0-.192-.013-.368,0-.543a.51.51,0,0,1,.53-.493.5.5,0,0,1,.465.517c.008.173,0,.346,0,.513a2.1,2.1,0,0,0,2.049-.837,2.317,2.317,0,0,0,.365-1.432c-.013-.929-.273-1.2-1.19-1.2-3.574,0-7.148.018-10.722-.011-1.095-.009-1.422.31-1.386,1.39A2.046,2.046,0,0,0,338.551,115.232Zm6.23-4.487c0-.28.015-.535,0-.788a.637.637,0,0,0-.666-.652q-1.32-.021-2.64,0a.58.58,0,0,0-.619.5,7.084,7.084,0,0,0-.009.935Z" transform="translate(-96.644)" fill="#6b6e77"/>
    </g>
  </g>
</svg>
