<svg xmlns="http://www.w3.org/2000/svg" width="42" height="42" viewBox="0 0 42 42">
  <g id="buy_sell" transform="translate(-231 -1634)">
    <rect id="Rectangle_11707" data-name="Rectangle 11707" width="42" height="42" transform="translate(231 1634)" fill="none"/>
    <g id="Group_59986" data-name="Group 59986" transform="translate(129.24 1408.663)">
      <path id="Path_67860" data-name="Path 67860" d="M106,464.617a.97.97,0,0,1,.939-.443c1.81.014,3.621,0,5.431.011a.6.6,0,0,0,.541-.263,5,5,0,0,1,3.259-2.121,5.1,5.1,0,0,1,4.62,1.621,1.261,1.261,0,0,0,.47.32c1.408.491,2.815.986,4.236,1.437a3.353,3.353,0,0,1,2.366,2c1.009-.279,2-.563,3-.826a24.008,24.008,0,0,1,2.6-.628,2.542,2.542,0,0,1,2.075,4.339,4.124,4.124,0,0,1-1.351.881c-3.4,1.255-6.815,2.471-10.23,3.687-.407.145-.838.221-1.258.328h-1.113a12.137,12.137,0,0,1-3.833-1.5c-.775-.4-1.526-.836-2.288-1.258a3.73,3.73,0,0,0-1.754-.5c-.1.689-.27.829-.949.829h-1.539c-.008.135-.017.231-.018.327-.01.7-.2.887-.9.888-1.155,0-2.31-.007-3.464,0a.8.8,0,0,1-.835-.491Zm7.677,5.761a6.463,6.463,0,0,1,2.9.929c1.219.675,2.467,1.3,3.71,1.929a4.2,4.2,0,0,0,1.9.415,5.366,5.366,0,0,0,1.862-.449c3.226-1.165,6.461-2.308,9.682-3.486a2.431,2.431,0,0,0,.972-.679,1.223,1.223,0,0,0-.821-2.015,2.214,2.214,0,0,0-.805.078c-1.63.439-3.254.9-4.883,1.343a.439.439,0,0,0-.343.331,2.561,2.561,0,0,1-3.217,1.664c-.616-.183-1.225-.387-1.838-.581-1.308-.415-2.617-.827-3.923-1.245a.647.647,0,0,1-.52-.7.611.611,0,0,1,.526-.583,1.182,1.182,0,0,1,.477.064c.967.3,1.932.608,2.9.915.913.29,1.824.588,2.74.869a1.27,1.27,0,0,0,1.5-.557,1.219,1.219,0,0,0-.24-1.578,2.855,2.855,0,0,0-.924-.526c-1.591-.561-3.2-1.086-4.788-1.645a1.482,1.482,0,0,1-.591-.421,3.764,3.764,0,0,0-3.723-1.328,3.892,3.892,0,0,0-2.484,1.89.725.725,0,0,0-.064.376c0,1.145,0,2.291,0,3.436Zm-6.352,2.038h2.541v-6.906h-2.541Zm3.908-6.91v5.7h1.11v-5.7Z" transform="translate(0 -211.861)" fill="#6b6e77"/>
      <path id="Path_67861" data-name="Path 67861" d="M152,233.841c.121-.7.27-.819.965-.82h1.55c0-.2-.007-.372,0-.542a.632.632,0,0,1,.681-.675q1.915-.011,3.829,0a.633.633,0,0,1,.682.674q.008,4.107,0,8.215c0,.438-.291.669-.791.67-1.844,0-3.687.007-5.531-.005a.68.68,0,0,0-.619.3,5.191,5.191,0,0,1-3.179,2.085,2.451,2.451,0,0,1-.747.053.908.908,0,0,0-.821.332q-3.053,3.08-6.127,6.138c-.478.478-.8.477-1.277,0l-12.081-12.079c-.543-.542-.542-.789,0-1.335l6.9-6.9c.518-.517.787-.515,1.314.011.609.609,1.223,1.215,1.824,1.832a.36.36,0,0,0,.452.1c.9-.34,1.8-.663,2.7-.988a5.213,5.213,0,0,1,4.107.15c1.457.686,2.872,1.463,4.3,2.215A4.1,4.1,0,0,0,152,233.841Zm-12.189-.821c.817.821,1.607,1.618,2.4,2.408a.665.665,0,0,0,.265.116q1.82.582,3.641,1.16c.28.089.565.166.838.274a.636.636,0,0,1,.374.807.653.653,0,0,1-.754.428,2.688,2.688,0,0,1-.313-.093q-2.772-.877-5.545-1.752a1.263,1.263,0,0,0-1.488.524,1.22,1.22,0,0,0,.2,1.582,2.645,2.645,0,0,0,.885.527c1.6.565,3.217,1.091,4.819,1.656a1.657,1.657,0,0,1,.641.46,3.76,3.76,0,0,0,3.8,1.279,3.937,3.937,0,0,0,2.391-1.866.531.531,0,0,0,.063-.279c0-1.6,0-3.207.006-4.811,0-.206-.059-.285-.273-.3a5.468,5.468,0,0,1-2.2-.671c-1.394-.741-2.787-1.487-4.2-2.183a3.882,3.882,0,0,0-2.994-.2C141.517,232.364,140.687,232.7,139.808,233.02Zm-7.607,6.9,6.658,6.661a4.193,4.193,0,0,1,4.791,0l1.491-1.494a4.246,4.246,0,0,1-.7-3.083.34.34,0,0,0-.186-.259c-.457-.176-.923-.327-1.388-.483-.191-.064-.385-.121-.585-.184-.05.139-.085.241-.123.342A3.729,3.729,0,1,1,137.7,236.5a.813.813,0,0,0,.411-.309,2.716,2.716,0,0,1,1.491-1.107l.22-.069-1.366-1.362a4.192,4.192,0,0,1-4.762,0l-1.487,1.5A4.19,4.19,0,0,1,132.2,239.916Zm26.177.122v-6.91h-2.541v6.91Zm-20.638-2.125a2.358,2.358,0,0,0-1.452,2.673,2.436,2.436,0,0,0,2.581,1.939,2.29,2.29,0,0,0,2.1-1.92C139.509,240.184,138.063,239.711,137.741,237.913Zm15.613,2.126h1.128v-5.681h-1.128Zm-10.668,7.491a2.824,2.824,0,0,0-2.84-.013l1.426,1.429ZM131.2,238.987a2.643,2.643,0,0,0-.042-2.934c-.234.245-.46.5-.7.731s-.51.467-.783.715l1.428,1.412A1.048,1.048,0,0,0,131.2,238.987Zm6.33-6.35c-.047-.056-.091-.114-.142-.166-.426-.431-.852-.861-1.32-1.333-.257.271-.482.52-.72.755s-.5.47-.76.711A2.666,2.666,0,0,0,137.531,232.638Zm9.292,10.824-1.19-.638.438,1.364Z" transform="translate(-20.19 0)" fill="#6b6e77"/>
      <path id="Path_67862" data-name="Path 67862" d="M221.083,517.043a.66.66,0,0,1,.662.633.674.674,0,0,1-.664.671.657.657,0,0,1-.637-.656A.638.638,0,0,1,221.083,517.043Z" transform="translate(-104.435 -262.326)" fill="#6b6e77"/>
      <path id="Path_67863" data-name="Path 67863" d="M361.228,322.838a.636.636,0,0,1-.657.627.646.646,0,1,1,.037-1.291A.637.637,0,0,1,361.228,322.838Z" transform="translate(-231.718 -84.501)" fill="#6b6e77"/>
    </g>
  </g>
</svg>
