<svg xmlns="http://www.w3.org/2000/svg" width="100" height="100" viewBox="0 0 100 100">
  <g id="search-btm-2" transform="translate(-47 -47)">
    <path id="Path_73073" data-name="Path 73073" d="M0,0H100V100H0Z" transform="translate(47 47)" fill="#fff" opacity="0"/>
    <g id="Group_66190" data-name="Group 66190" transform="translate(51.233 50.22)">
      <path id="Path_70051" data-name="Path 70051" d="M439.442,1132.88a37.2,37.2,0,0,1-8.926-73.324c20.048-4.9,40.358,7.332,45.046,27.3a36.382,36.382,0,0,1-6,30.568c-.673.947-.535,1.384.2,2.12q11.689,11.617,23.319,23.295c1.978,1.983,2.187,4.554.571,6.482a4.564,4.564,0,0,1-6.887.224c-2.719-2.665-5.392-5.376-8.085-8.067-5.146-5.145-10.306-10.276-15.419-15.454-.754-.764-1.2-.839-2.121-.174A36.388,36.388,0,0,1,439.442,1132.88Zm-28.031-37.252a28.021,28.021,0,1,0,28.036-27.936A28.091,28.091,0,0,0,411.411,1095.628Z" transform="translate(-402.166 -1058.477)" fill="#001968"/>
      <g id="Group_66191" data-name="Group 66191" transform="translate(463.458 -120.47)">
        <path id="Path_76215" data-name="Path 76215" d="M-449.482,230.237a25.929,25.929,0,0,1,.979-3.777,10.716,10.716,0,0,1,10.379-6.528,10.82,10.82,0,0,1,10.159,8.643,10.863,10.863,0,0,1-7.821,12.646,10.861,10.861,0,0,1-13.184-7.35c-.244-.828-.345-1.7-.512-2.549Zm3.686.374a7.2,7.2,0,0,0,7.081,7.262,7.265,7.265,0,0,0,7.357-7.082,7.2,7.2,0,0,0-7.049-7.377A7.2,7.2,0,0,0-445.8,230.611Z" transform="translate(0 -67.868)" fill="#001968"/>
        <path id="Path_76216" data-name="Path 76216" d="M-274.048,231.15a28.687,28.687,0,0,1-.74,3.282,10.787,10.787,0,0,1-11.446,7.067,10.874,10.874,0,0,1-9.483-9.553,10.8,10.8,0,0,1,8.931-11.882,10.746,10.746,0,0,1,12.6,9.647,2.786,2.786,0,0,0,.138.509Zm-3.688-.509A7.131,7.131,0,0,0-284.9,223.4a7.239,7.239,0,0,0-7.275,7.174,7.187,7.187,0,0,0,7.231,7.271A7.141,7.141,0,0,0-277.736,230.641Z" transform="translate(-129.888 -67.851)" fill="#001968"/>
        <path id="Path_76217" data-name="Path 76217" d="M-420.867,171.881q1.48-3.046,2.965-6.09a1.232,1.232,0,0,1,.353-.4,8.7,8.7,0,0,1,10.232-.121,2.52,2.52,0,0,1,.739,1.25c.239.861.35,1.758.554,2.854a12.071,12.071,0,0,0,1.578-.456,4.164,4.164,0,0,1,4,.079c.067.039.127.09.2.125.787.4,1.345.124,1.474-.722a15.135,15.135,0,0,1,.318-1.9,2.7,2.7,0,0,1,.665-1.165,6.292,6.292,0,0,1,4.385-1.613,8.969,8.969,0,0,1,5.457,1.323,2.288,2.288,0,0,1,.782.722c1.053,2.021,2.062,4.065,3.077,6.083a37.7,37.7,0,0,0-3.842-1.27,11.808,11.808,0,0,0-9.516,1.766,17.99,17.99,0,0,0-2.916,3.071c-.719.808-1.385,1.663-2.152,2.59-.755-.893-1.477-1.749-2.2-2.6q-.7-.826-1.41-1.645c-2.505-2.907-5.819-3.584-9.43-3.374A15.148,15.148,0,0,0-420.867,171.881Z" transform="translate(-24.181 -20.331)" fill="#001968"/>
        <path id="Path_76218" data-name="Path 76218" d="M-270.028,142.485a4.163,4.163,0,0,1,3.7-2.5,4.611,4.611,0,0,1,4.013,1.868,22.386,22.386,0,0,0-2.574-.341,12.891,12.891,0,0,0-2.6.236C-268.3,141.9-269.09,142.207-270.028,142.485Z" transform="translate(-151.65 -0.307)" fill="#001968"/>
        <path id="Path_76219" data-name="Path 76219" d="M-376.8,142.274a11.639,11.639,0,0,0-7.667-.743,4.393,4.393,0,0,1,3.606-1.918A4.567,4.567,0,0,1-376.8,142.274Z" transform="translate(-54.943 0)" fill="#001968"/>
      </g>
    </g>
  </g>
</svg>
