<svg xmlns="http://www.w3.org/2000/svg" width="42" height="42" viewBox="0 0 42 42">
  <g id="groups" transform="translate(-231 -1634)">
    <rect id="Rectangle_11707" data-name="Rectangle 11707" width="42" height="42" transform="translate(231 1634)" fill="none"/>
    <g id="Group_59984" data-name="Group 59984" transform="translate(-4.86 -3.451)">
      <path id="Path_68885" data-name="Path 68885" d="M211.649,288c-.043.084-.089.167-.129.253a1.607,1.607,0,0,1-1.594.968q-3.2,0-6.406,0h-.483c0,.152,0,.27,0,.389A1.985,1.985,0,0,1,201,291.66c-.368.008-.736,0-1.1,0q-7.584,0-15.168,0a2.027,2.027,0,0,1-2.184-1.978h-.42q-3.185,0-6.369,0a1.611,1.611,0,0,1-1.8-1.79,15.287,15.287,0,0,1,.211-3.553,7.49,7.49,0,0,1,8.039-5.572,7.348,7.348,0,0,1,2.946.962c.218.13.333.078.495-.08a9.936,9.936,0,0,1,5.641-2.783A10.135,10.135,0,0,1,199.7,279.4c.065.056.127.115.143.129a21.221,21.221,0,0,1,2.213-.941,7.43,7.43,0,0,1,9.531,6.15.831.831,0,0,0,.062.167Zm-18.859,2.436q4.049,0,8.1,0c.664,0,.932-.269.938-.939,0-.355.006-.711-.008-1.065a21.881,21.881,0,0,0-.165-3.152,9.015,9.015,0,0,0-17.849,1.076c-.063,1.026-.025,2.059-.035,3.088-.007.729.255.992,1,.992ZM203.016,288h4.1c.932,0,1.865,0,2.8,0,.258,0,.508-.051.5-.353a18.847,18.847,0,0,0-.163-3.331,6.154,6.154,0,0,0-6.967-4.772,5.934,5.934,0,0,0-2.529.965A10.35,10.35,0,0,1,203.016,288Zm-20.423.453a10.668,10.668,0,0,1,2-7.625c-.111-.071-.19-.129-.274-.175a6.28,6.28,0,0,0-8.9,3.7,13.239,13.239,0,0,0-.244,3.729c0,.3.22.369.486.368,1.289,0,2.577,0,3.866,0Z" transform="translate(64.063 1380.171)" fill="#6b6e77"/>
      <path id="Path_68886" data-name="Path 68886" d="M350.612,132.214a5.57,5.57,0,1,1,5.619-5.565A5.593,5.593,0,0,1,350.612,132.214Zm.009-9.913a4.348,4.348,0,1,0,4.4,4.349A4.393,4.393,0,0,0,350.62,122.3Z" transform="translate(-93.966 1523.992)" fill="#6b6e77"/>
      <path id="Path_68887" data-name="Path 68887" d="M522.352,175.519a4.374,4.374,0,1,1-4.354-4.35A4.372,4.372,0,0,1,522.352,175.519Zm-4.375-3.124a3.109,3.109,0,1,0,3.164,3.1A3.12,3.12,0,0,0,517.977,172.395Z" transform="translate(-249.729 1477.713)" fill="#6b6e77"/>
      <path id="Path_68888" data-name="Path 68888" d="M214.52,179.429a4.374,4.374,0,1,1,4.368,4.339A4.366,4.366,0,0,1,214.52,179.429Zm4.367,3.11a3.108,3.108,0,1,0-3.157-3.11A3.119,3.119,0,0,0,218.887,182.539Z" transform="translate(26.579 1474.087)" fill="#6b6e77"/>
    </g>
  </g>
</svg>
