<svg xmlns="http://www.w3.org/2000/svg" width="42" height="42" viewBox="0 0 42 42">
  <g id="home_gray" transform="translate(-231 -1634)">
    <rect id="Rectangle_11707" data-name="Rectangle 11707" width="42" height="42" transform="translate(231 1634)" fill="none"/>
    <g id="Group_59983" data-name="Group 59983" transform="translate(236 1640)">
      <path id="Path_37985" data-name="Path 37985" d="M165,57.145V56.3a4.282,4.282,0,0,1,1.413-2.158q5.827-5.712,11.625-11.453a4.4,4.4,0,0,1,2.211-1.413h.857a4.345,4.345,0,0,1,2.188,1.392q5.818,5.76,11.665,11.492a4.115,4.115,0,0,1,1.4,2.2v.724a.864.864,0,0,0-.053.138,2.85,2.85,0,0,1-2.85,2.34c-.148,0-.3,0-.461,0,0,.168,0,.287,0,.407,0,2.985.008,5.969-.007,8.954a3.3,3.3,0,0,1-2.354,3.088c-.192.059-.388.105-.583.158h-5.634a1.07,1.07,0,0,1-.731-1.15c.015-2.3.008-4.6.005-6.9a1.537,1.537,0,0,0-1.68-1.648c-.867,0-1.733,0-2.6,0a1.55,1.55,0,0,0-1.743,1.706c0,2.28-.009,4.56.006,6.84a1.071,1.071,0,0,1-.728,1.152h-5.634c-.026-.015-.051-.04-.078-.043a3.391,3.391,0,0,1-2.878-3.474c.04-2.9.01-5.81.01-8.716v-.375c-.214,0-.386.007-.557,0a2.818,2.818,0,0,1-2.484-1.548A6.3,6.3,0,0,1,165,57.145Z" transform="translate(-165 -41.276)" fill="none" stroke="#6b6e77" stroke-width="1.5"/>
    </g>
  </g>
</svg>
