<svg xmlns="http://www.w3.org/2000/svg" width="22.298" height="23.513" viewBox="0 0 22.298 23.513">
  <g id="Local_News" data-name="Local News" transform="translate(501.178 -62.575)">
    <path id="Path_75974" data-name="Path 75974" d="M-481.266,83.912a10.651,10.651,0,0,1,1.112.105.71.71,0,0,1,.66.682.758.758,0,0,1-.684.7q-1.041.184-2.092.313a49.78,49.78,0,0,1-6.956.367,50.5,50.5,0,0,1-7.015-.6c-.611-.1-1.225-.181-1.833-.3a3.558,3.558,0,0,1-2.956-3.026,6.642,6.642,0,0,1-.013-2.722c.063-.319.134-.389.465-.394,1.179-.017,2.358-.027,3.536-.039h.342c.031-.539.075-1.069.091-1.6a54.359,54.359,0,0,0-.22-5.867c-.134-1.728-.255-3.457-.389-5.185-.053-.688-.12-1.374-.191-2.06-.022-.211-.017-.372.217-.482.143-.067.229-.247.365-.339a2.166,2.166,0,0,1,.724-.41c.827-.157,1.663-.27,2.5-.369a24.365,24.365,0,0,1,6.96.38,21.211,21.211,0,0,0,5.1.436c.443-.033.881-.141,1.321-.215.042-.007.085-.015.128-.019.7-.07.859.085.88.778.081,2.552.174,5.1.257,7.655a64.29,64.29,0,0,1-.029,6.7,9.968,9.968,0,0,1-.843,3.629A5.468,5.468,0,0,1-481.266,83.912Zm-16.376.641c.079.018.109.028.139.031,1.087.1,2.172.277,3.261.3,2.581.045,5.164.029,7.746.012a13.741,13.741,0,0,0,2-.162,5.257,5.257,0,0,0,4.648-4.289,16.608,16.608,0,0,0,.407-4.289c-.078-3.708-.19-7.415-.286-11.123-.01-.394,0-.789,0-1.222a4.391,4.391,0,0,0-.582.052,7.786,7.786,0,0,1-2.638.221q-2.268-.255-4.525-.6a23.757,23.757,0,0,0-7.683-.045c-.354.062-.7.144-1.053.229-.146.035-.181.136-.16.3.121.914.254,1.828.332,2.746.165,1.933.33,3.867.437,5.8a56.329,56.329,0,0,1-.019,7.628,7.391,7.391,0,0,1-.852,3.012A4.2,4.2,0,0,1-497.642,84.553Zm.875-4.99h-3.726c-.406,1.529.1,3.724,1,4.359.172-.092.353-.174.519-.279a3.609,3.609,0,0,0,1.465-1.379A8.182,8.182,0,0,0-496.768,79.562Z" transform="translate(0 0)" fill="#001968"/>
    <path id="Path_75975" data-name="Path 75975" d="M-491.216,104.211c-.065-.066-.2-.139-.2-.224-.009-.1.067-.284.142-.306.469-.136.946-.247,1.426-.337a.318.318,0,0,1,.26.178c.019.1-.055.29-.127.312C-490.2,103.974-490.682,104.081-491.216,104.211Z" transform="translate(-9.082 -37.954)" fill="#001968"/>
    <path id="Path_75976" data-name="Path 75976" d="M-489.759,82.412c.139.062.233.1.325.145.269.13.538.263.807.394a.258.258,0,0,1,.149.378.249.249,0,0,1-.368.115c-.339-.163-.685-.314-1.011-.5a.377.377,0,0,1-.124-.318C-489.969,82.543-489.833,82.478-489.759,82.412Z" transform="translate(-10.421 -18.468)" fill="#001968"/>
    <path id="Path_75977" data-name="Path 75977" d="M-473.429,68.252c-.04.045-.093.158-.17.177a.341.341,0,0,1-.3-.067,9.522,9.522,0,0,1-.625-.973.325.325,0,0,1,.085-.3.324.324,0,0,1,.314.006c.243.33.456.683.677,1.029C-473.432,68.14-473.438,68.171-473.429,68.252Z" transform="translate(-24.806 -4.164)" fill="#001968"/>
    <path id="Path_75978" data-name="Path 75978" d="M-393.719,96.379c0,.975,0,1.949,0,2.924a.638.638,0,0,1-.221.5,4.094,4.094,0,0,1-2.735,1.113,8.413,8.413,0,0,1-3.079-.55c-1.214-.4-2.427-.813-3.655-1.173a3.987,3.987,0,0,0-2.118-.09,4.6,4.6,0,0,0-.837.324c-.327.156-.5.071-.5-.293-.011-.992,0-1.984-.029-2.976-.03-1.034-.089-2.067-.147-3.1-.026-.466-.025-.488.41-.676a5.887,5.887,0,0,1,3.62-.329c1.419.3,2.816.707,4.223,1.064a8.426,8.426,0,0,0,3.34.34,8.517,8.517,0,0,0,1.317-.342c.361-.115.5-.031.5.343,0,.974,0,1.949,0,2.923Zm-.485-2.634c-.075.02-.147.046-.221.058-.482.079-.962.191-1.448.225a9.621,9.621,0,0,1-3.056-.4c-1.331-.342-2.654-.719-3.994-1.017a5.805,5.805,0,0,0-3.257.167.372.372,0,0,0-.3.435c.067,1.757.11,3.515.16,5.272,0,.084,0,.168,0,.251.039,0,.059.01.073,0a4.534,4.534,0,0,1,2.891-.1c1.085.291,2.151.655,3.218,1.008a11.016,11.016,0,0,0,2.944.719,3.857,3.857,0,0,0,2.6-.719.767.767,0,0,0,.346-.666c0-1.483.026-2.966.041-4.449C-394.2,94.279-394.2,94.021-394.2,93.745Z" transform="translate(-87.637 -27.307)" fill="#001968"/>
    <path id="Path_75979" data-name="Path 75979" d="M-387.766,296.961c-.658-.075-1.272-.188-1.889-.208-1.522-.048-3.046-.095-4.567-.061-1.263.028-2.524.17-3.786.261-.069.005-.152.034-.2.005-.107-.06-.253-.133-.283-.232-.048-.159.068-.277.242-.295.479-.049.959-.1,1.439-.137a45.747,45.747,0,0,1,6.218-.156c.927.054,1.849.175,2.773.269.157.016.313.054.348.248S-387.558,296.964-387.766,296.961Z" transform="translate(-95.589 -217.399)" fill="#001968"/>
    <path id="Path_75980" data-name="Path 75980" d="M-369.681,249.085l-4.918-.211c-.2-.008-.351-.072-.335-.3s.187-.258.377-.244a61.682,61.682,0,0,0,8.121.068c.361-.02.721-.046,1.081-.071.182-.013.341.027.361.237s-.127.3-.325.306Z" transform="translate(-117.531 -172.935)" fill="#001968"/>
    <path id="Path_75981" data-name="Path 75981" d="M-387.335,344.474c-.977-.055-1.742-.1-2.506-.14-.2-.01-.383-.054-.369-.291s.2-.257.4-.248c1.289.056,2.578.124,3.867.149a10.958,10.958,0,0,0,1.458-.139c.173-.02.322,0,.371.183s-.067.313-.251.346a6.138,6.138,0,0,1-.916.134C-386.034,344.487-386.791,344.474-387.335,344.474Z" transform="translate(-103.309 -261.813)" fill="#001968"/>
    <g id="Group_65982" data-name="Group 65982" transform="translate(-489.867 66.899)">
      <path id="Path_75982" data-name="Path 75982" d="M-320.849,135.453l-.683-1.181c.092-.079.185-.153.271-.234a2.517,2.517,0,0,0,.488-.691c.1-.186.186-.375.278-.563a.153.153,0,0,1,.136-.1.155.155,0,0,1,.148.092q.657,1.139,1.315,2.278a.157.157,0,0,1,.008.174.154.154,0,0,1-.156.069c-.257-.016-.514-.034-.771-.043a2.146,2.146,0,0,0-1.007.192A.2.2,0,0,1-320.849,135.453Z" transform="translate(322.618 -132.169)" fill="#001968"/>
      <path id="Path_75983" data-name="Path 75983" d="M-335.721,158.7c-.2.112-.389.228-.587.329a.612.612,0,0,1-.515.016.652.652,0,0,1-.439-.561.634.634,0,0,1,.277-.627c.183-.126.382-.229.577-.344Z" transform="translate(337.268 -155.28)" fill="#001968"/>
      <path id="Path_75984" data-name="Path 75984" d="M-318.918,178.192l.4-.234c.009.013.017.024.023.035.137.236.274.472.409.708a.235.235,0,0,1-.141.356.235.235,0,0,1-.249-.093c-.011-.015-.02-.032-.029-.048Z" transform="translate(320.184 -174.32)" fill="#001968"/>
      <path id="Path_75985" data-name="Path 75985" d="M-280.2,136.961a.132.132,0,0,1-.136-.091.125.125,0,0,1,.061-.149c.113-.067.228-.133.342-.2.042-.024.083-.049.125-.071a.128.128,0,0,1,.178.047.124.124,0,0,1-.048.174c-.156.093-.314.183-.472.272A.221.221,0,0,1-280.2,136.961Z" transform="translate(284.268 -135.66)" fill="#001968"/>
      <path id="Path_75986" data-name="Path 75986" d="M-288.272,125.809a.338.338,0,0,1,.023-.061q.125-.219.252-.436a.129.129,0,0,1,.182-.06.129.129,0,0,1,.041.187q-.127.223-.257.445a.125.125,0,0,1-.148.063A.134.134,0,0,1-288.272,125.809Z" transform="translate(291.653 -125.234)" fill="#001968"/>
      <path id="Path_75987" data-name="Path 75987" d="M-276.589,151.718c-.093,0-.186,0-.278,0a.118.118,0,0,1-.113-.1.123.123,0,0,1,.063-.134.178.178,0,0,1,.074-.017c.17,0,.34,0,.51,0a.128.128,0,0,1,.139.128.128.128,0,0,1-.138.129c-.086,0-.172,0-.258,0Z" transform="translate(281.143 -149.652)" fill="#001968"/>
      <path id="Path_75988" data-name="Path 75988" d="M-292.3,143.6a.373.373,0,0,1,.48.169.367.367,0,0,1-.112.47Z" transform="translate(295.405 -142.304)" fill="#001968"/>
    </g>
  </g>
</svg>
