<svg id="more" xmlns="http://www.w3.org/2000/svg" width="27.678" height="27.678" viewBox="0 0 27.678 27.678">
  <path id="Path_37998" data-name="Path 37998" d="M787.175,372.432q-1.988,0-3.977,0a3.089,3.089,0,0,1-3.217-3.206q0-3.026,0-6.051a3.085,3.085,0,0,1,3.2-3.194q3.026-.005,6.051,0a3.083,3.083,0,0,1,3.2,3.192q.005,4.106,0,8.213a.939.939,0,0,1-1.051,1.047Q789.278,372.434,787.175,372.432Zm3.414-1.845v-.267q0-3.572,0-7.144a1.247,1.247,0,0,0-1.369-1.352q-3.01,0-6.021,0a1.25,1.25,0,0,0-1.372,1.377q0,2.982,0,5.963a1.263,1.263,0,0,0,1.415,1.423h7.349Z" transform="translate(-779.978 -359.977)" fill="#fff"/>
  <path id="Path_37999" data-name="Path 37999" d="M977.991,367.2q0-2,0-4.006a3.088,3.088,0,0,1,3.215-3.208q3.011,0,6.022,0a3.085,3.085,0,0,1,3.215,3.208q0,3.026,0,6.051a3.085,3.085,0,0,1-3.2,3.193q-4.106,0-8.213,0a.938.938,0,0,1-1.038-1.031Q977.989,369.3,977.991,367.2Zm1.845,3.394h7.389a1.253,1.253,0,0,0,1.374-1.377q0-3,0-5.992a1.255,1.255,0,0,0-1.385-1.394h-5.992a1.254,1.254,0,0,0-1.386,1.392q0,3.529,0,7.057Z" transform="translate(-962.769 -359.982)" fill="#fff"/>
  <path id="Path_38000" data-name="Path 38000" d="M977.99,563.229q0-2.1,0-4.207a.938.938,0,0,1,1.031-1.038q4.121,0,8.241,0a3.081,3.081,0,0,1,3.179,3.185q.006,3.04,0,6.08a3.083,3.083,0,0,1-3.179,3.186q-3.04.007-6.08,0a3.087,3.087,0,0,1-3.193-3.2C977.987,565.9,977.99,564.565,977.99,563.229Zm1.857-3.4c-.005.076-.011.122-.011.168,0,2.449,0,4.9,0,7.345a1.227,1.227,0,0,0,1.3,1.249q3.082.006,6.164,0a1.235,1.235,0,0,0,1.3-1.306q0-3.068,0-6.136a1.238,1.238,0,0,0-1.315-1.319c-.864,0-1.728,0-2.592,0Z" transform="translate(-962.767 -542.762)" fill="#fff"/>
  <path id="Path_38001" data-name="Path 38001" d="M787.191,557.985q2.1,0,4.207,0a.938.938,0,0,1,1.03,1.039q0,4.121,0,8.241a3.08,3.08,0,0,1-3.164,3.171q-3.054.009-6.109,0a3.085,3.085,0,0,1-3.178-3.187q-.006-3.04,0-6.08a3.084,3.084,0,0,1,3.18-3.184C784.5,557.982,785.846,557.985,787.191,557.985Zm3.393,1.845H790.3q-3.557,0-7.115,0a1.247,1.247,0,0,0-1.36,1.36q0,3.025,0,6.049a1.248,1.248,0,0,0,1.368,1.353q3.01,0,6.02,0a1.253,1.253,0,0,0,1.374-1.377q0-2.578,0-5.156Z" transform="translate(-779.974 -542.763)" fill="#fff"/>
</svg>
