<svg xmlns="http://www.w3.org/2000/svg" width="100" height="100" viewBox="0 0 100 100">
  <g id="add-icon" transform="translate(6137 3259)">
    <g id="Rectangle_12142" data-name="Rectangle 12142" transform="translate(-6137 -3259)" fill="#fff" stroke="#707070" stroke-width="1" opacity="0">
      <rect width="100" height="100" stroke="none"/>
      <rect x="0.5" y="0.5" width="99" height="99" fill="none"/>
    </g>
    <g id="Group_62922" data-name="Group 62922" transform="translate(-6816.807 -3880.935)">
      <path id="Path_70215" data-name="Path 70215" d="M730.807,629.383c.317.087.634.176.952.262a7.473,7.473,0,0,1,5.527,7.411q.017,13.173,0,26.347v1.054h1.053q13.215,0,26.429.006a7.474,7.474,0,1,1,.043,14.948c-7.424.024-14.849.007-22.274.007h-5.252v1.012q0,13.215-.005,26.43a7.474,7.474,0,1,1-14.947.125c-.028-6.261-.007-12.522-.008-18.784v-8.783H695.593c-4.548,0-7.033-1.889-8.236-6.261a1.485,1.485,0,0,0-.1-.222V670.94a2.233,2.233,0,0,0,.123-.3c1.035-4.106,3.7-6.18,7.952-6.181h27v-1.094q0-13.159,0-26.318a7.267,7.267,0,0,1,3.925-6.736,16.143,16.143,0,0,1,2.553-.925Z" transform="translate(0 0)" fill="#001968"/>
    </g>
  </g>
</svg>
