<svg xmlns="http://www.w3.org/2000/svg" width="100" height="100" viewBox="0 0 100 100">
  <g id="delete-icon" transform="translate(6137 3259)">
    <g id="Rectangle_12142" data-name="Rectangle 12142" transform="translate(-6137 -3259)" fill="#fff" stroke="#707070" stroke-width="1" opacity="0">
      <rect width="100" height="100" stroke="none"/>
      <rect x="0.5" y="0.5" width="99" height="99" fill="none"/>
    </g>
    <g id="Group_62907" data-name="Group 62907" transform="translate(-6543.807 -4301.877)">
      <path id="Path_70199" data-name="Path 70199" d="M445.869,1157.924q0,9.226,0,18.45a6.564,6.564,0,0,0,6.925,6.961q13.741.01,27.482,0a6.55,6.55,0,0,0,6.878-6.88q.009-18.643-.006-37.288a3.86,3.86,0,0,1,1.2-3.132,3.365,3.365,0,0,1,5.517,1.7,6.994,6.994,0,0,1,.2,1.652q.016,18.514,0,37.029a13.436,13.436,0,0,1-4.008,9.867,13.274,13.274,0,0,1-9.63,3.953c-9.289.053-18.58.076-27.869,0a13.418,13.418,0,0,1-13.573-13.48c-.092-12.557-.036-25.116-.017-37.674,0-2.808,2.076-4.461,4.534-3.718a3.493,3.493,0,0,1,2.367,3.6Q445.879,1148.44,445.869,1157.924Z" transform="translate(-9.713 -59.503)"/>
      <path id="Path_70200" data-name="Path 70200" d="M443.087,1065.311c0-2.317-.013-4.417,0-6.517.019-2.417,1.3-3.777,3.725-3.791q9.994-.056,19.988,0c2.419.015,3.683,1.384,3.706,3.812.019,2.02.016,4.04.027,6.06a1.77,1.77,0,0,0,.123.371c.4.02.858.06,1.312.061,4,.006,8-.007,11.993.01a3.538,3.538,0,0,1,3.466,2.022,3.25,3.25,0,0,1-.39,3.52,3.64,3.64,0,0,1-3.17,1.371q-9.092-.017-18.183-.005c-11.907,0-23.814.013-35.721-.026a5.6,5.6,0,0,1-2.565-.6,3.007,3.007,0,0,1-1.513-3.294,3.158,3.158,0,0,1,2.5-2.784,8.065,8.065,0,0,1,1.781-.2c3.783-.017,7.566-.009,11.348-.009Zm20.55-.049v-3.273H449.962v3.273Z" transform="translate(0 0)"/>
      <path id="Path_70201" data-name="Path 70201" d="M505.8,1177.312c0-3.868-.007-7.736,0-11.6.006-2.321,1.36-3.853,3.4-3.879a3.526,3.526,0,0,1,3.5,3.807q.044,11.668,0,23.335a3.53,3.53,0,0,1-3.494,3.815c-2.034-.02-3.4-1.556-3.4-3.872C505.8,1185.046,505.8,1181.179,505.8,1177.312Z" transform="translate(-59.328 -79.277)"/>
      <path id="Path_70202" data-name="Path 70202" d="M565.9,1177.378c0,3.954.018,7.908-.009,11.861a3.3,3.3,0,0,1-2.464,3.364,3.153,3.153,0,0,1-3.717-1.291,4.976,4.976,0,0,1-.692-2.415c-.051-7.735-.045-15.471-.021-23.206.007-2.281,1.461-3.854,3.445-3.866,2.077-.012,3.453,1.548,3.458,3.95Q565.915,1171.576,565.9,1177.378Z" transform="translate(-98.783 -79.274)"/>
    </g>
  </g>
</svg>
