<svg xmlns="http://www.w3.org/2000/svg" width="100" height="100" viewBox="0 0 100 100">
  <g id="edit-icon" transform="translate(6137 3259)">
    <g id="Rectangle_12142" data-name="Rectangle 12142" transform="translate(-6137 -3259)" fill="#fff" stroke="#707070" stroke-width="1" opacity="0">
      <rect width="100" height="100" stroke="none"/>
      <rect x="0.5" y="0.5" width="99" height="99" fill="none"/>
    </g>
    <g id="Group_62905" data-name="Group 62905" transform="translate(-6509.777 -4287.83)">
      <path id="Path_70195" data-name="Path 70195" d="M416.937,1157.644h-21.9a9.119,9.119,0,0,1-9.241-9.143c-.043-6.4-.011-12.8-.012-19.2q0-12.176,0-24.356a9.355,9.355,0,0,1,7.754-9.455,9.554,9.554,0,0,1,1.861-.127q12.119-.011,24.239,0c2.2,0,3.609,1.211,3.612,3.1,0,1.834-1.474,3.16-3.6,3.163-7.963.013-15.926.07-23.887-.035a3.414,3.414,0,0,0-3.733,3.7c.064,14.207.029,28.416.035,42.623,0,2.5,1.158,3.656,3.633,3.656q21.312,0,42.624,0c2.451,0,3.67-1.208,3.671-3.642q.005-12.061,0-24.122c0-2.254,1.362-3.563,3.489-3.413a3.1,3.1,0,0,1,2.771,3.334c.044,1.911.011,3.825.011,5.738,0,6.167.013,12.334,0,18.5a9.37,9.37,0,0,1-6.229,9.235,7.291,7.291,0,0,1-2.385.435C432.082,1157.656,424.51,1157.644,416.937,1157.644Z" transform="translate(0 -40.986)"/>
      <path id="Path_70196" data-name="Path 70196" d="M537.872,1095.911c-.229.243-.509.556-.805.852-7.582,7.583-15.183,15.144-22.725,22.765a6.06,6.06,0,0,1-3.412,1.784c-2.944.53-5.879,1.106-8.814,1.686-1.929.382-2.715-.36-2.34-2.315.454-2.365.956-4.721,1.433-7.082a10.674,10.674,0,0,0,.221-1.26,7.065,7.065,0,0,1,2.519-4.539c7.465-7.37,14.857-14.812,22.276-22.229.246-.246.5-.482.675-.647Z" transform="translate(-87.227 -33.001)"/>
      <path id="Path_70197" data-name="Path 70197" d="M631.828,1048.557a56.319,56.319,0,0,1,4.778-5.01,7.585,7.585,0,0,1,10.609,1.006,7.711,7.711,0,0,1-.267,10.505c-1.426,1.491-2.9,2.935-4.278,4.326Z" transform="translate(-188.418 0)"/>
    </g>
  </g>
</svg>
