<svg xmlns="http://www.w3.org/2000/svg" width="25" height="25" viewBox="0 0 100 100">
  <g id="filter-icon" transform="translate(-47 -47)">
    <path id="Path_73073" data-name="Path 73073" d="M0,0H100V100H0Z" transform="translate(47 47)" fill="#fff" opacity="0"/>
    <g id="Group_62501" data-name="Group 62501" transform="translate(493.764 -330.309)">
      <path id="Path_70846" data-name="Path 70846" d="M-440.66,395.25c.7-1.581,1.947-2.032,3.615-2.027,13.092.039,26.184.022,39.276.022h1.066c2.085-6.374,6.252-10.089,13.071-9.814,6.227.25,9.958,3.955,11.809,9.814h.978c4.722,0,9.444-.006,14.166,0a2.723,2.723,0,0,1,2.775,1.936,2.5,2.5,0,0,1-1.04,2.967,3.984,3.984,0,0,1-1.913.5c-4.665.041-9.331.022-14,.022h-.983c-.082.216-.175.414-.234.621a12.676,12.676,0,0,1-12.142,9.326,12.614,12.614,0,0,1-12.179-9.253c-.2-.692-.562-.7-1.1-.7-13.262.006-26.524-.012-39.785.026a3.2,3.2,0,0,1-3.386-2.088Zm56.44-6.471a7.184,7.184,0,0,0-7.236,7.182,7.237,7.237,0,0,0,7.21,7.232,7.271,7.271,0,0,0,7.21-7.163A7.218,7.218,0,0,0-384.22,388.779Z" transform="translate(0 0)"/>
      <path id="Path_70847" data-name="Path 70847" d="M-440.66,667.111a3.177,3.177,0,0,1,3.382-2.089c13.237.039,26.473.017,39.71.035.69,0,1.013-.151,1.217-.879a12.655,12.655,0,0,1,12.065-9.083,12.746,12.746,0,0,1,12.165,9.095l.245.853h1.039c4.78,0,9.56-.008,14.34.01A2.7,2.7,0,0,1-353.8,667.3a2.686,2.686,0,0,1-1.658,2.937,4.486,4.486,0,0,1-1.493.229c-4.639.017-9.277.01-13.915.01h-.967c-.281.784-.5,1.572-.835,2.3a12.462,12.462,0,0,1-9.554,7.432,2.641,2.641,0,0,0-.4.137h-3.394a3.151,3.151,0,0,0-.462-.16,12.587,12.587,0,0,1-6.41-3.228,12.819,12.819,0,0,1-3.724-6.483h-1.115c-13.106,0-26.212-.018-39.318.023-1.67,0-2.9-.471-3.615-2.028Zm56.405,7.828a7.214,7.214,0,0,0,7.219-7.213,7.272,7.272,0,0,0-7.175-7.2,7.237,7.237,0,0,0-7.245,7.2A7.181,7.181,0,0,0-384.255,674.939Z" transform="translate(0 -210.101)"/>
      <path id="Path_70848" data-name="Path 70848" d="M-440.66,531.039a3.291,3.291,0,0,1,3.5-2.06c4.552.07,9.106.024,13.66.024h.91a12.887,12.887,0,0,1,12.452-9.93A12.868,12.868,0,0,1-397.767,529h.989q19.854,0,39.708,0a6.465,6.465,0,0,1,1.015.035,2.738,2.738,0,0,1,2.276,2.841,2.736,2.736,0,0,1-2.516,2.541c-.309.024-.622.01-.933.01h-40.588a12.764,12.764,0,0,1-5.294,7.747,12.426,12.426,0,0,1-7.105,2.171,12.825,12.825,0,0,1-12.37-9.918h-5.324c-3.083,0-6.167-.059-9.248.024a3.284,3.284,0,0,1-3.5-2.06Zm30.51,7.878a7.2,7.2,0,0,0,7.173-7.252,7.191,7.191,0,0,0-7.19-7.147,7.222,7.222,0,0,0-7.229,7.206A7.233,7.233,0,0,0-410.15,538.918Z" transform="translate(0 -104.909)"/>
    </g>
  </g>
</svg>
