<svg xmlns="http://www.w3.org/2000/svg" width="41" height="41" viewBox="0 0 41 41">
  <g id="Helpline" transform="translate(-330 -303)">
    <g id="Ellipse_3539" data-name="Ellipse 3539" transform="translate(330 303)" fill="#fff" stroke="#fff" stroke-width="1">
      <circle cx="20.5" cy="20.5" r="20.5" stroke="none"/>
      <circle cx="20.5" cy="20.5" r="20" fill="none"/>
    </g>
    <path id="Path_74322" data-name="Path 74322" d="M19.5,0A19.5,19.5,0,1,1,0,19.5,19.5,19.5,0,0,1,19.5,0Z" transform="translate(331 304)" fill="#001968"/>
    <g id="Group_66129" data-name="Group 66129" transform="translate(-133.682 40.249)">
      <g id="Group_66128" data-name="Group 66128" transform="translate(467.521 267.13)">
        <g id="Group_66127" data-name="Group 66127" transform="translate(0 0)">
          <g id="Group_66118" data-name="Group 66118" transform="translate(7.318 7.128)">
            <g id="Group_66117" data-name="Group 66117">
              <path id="Path_74311" data-name="Path 74311" d="M1034.523,716.632V722.8H1019v-6.164a7.762,7.762,0,0,1,15.523,0Z" transform="translate(-1017.419 -708.87)" fill="#fa0c00"/>
              <path id="Path_74312" data-name="Path 74312" d="M939.686,1553.689v.779H921v-.779a1.45,1.45,0,0,1,1.4-1.5h.182v-.323H938.1v.323h.182A1.45,1.45,0,0,1,939.686,1553.689Z" transform="translate(-921 -1538.267)" fill="#d5d5d5" style="mix-blend-mode: multiply;isolation: isolate"/>
              <path id="Path_74313" data-name="Path 74313" d="M939.686,1573.366v.8a.3.3,0,0,1-.3.3H921.3a.3.3,0,0,1-.3-.3v-.8a1.45,1.45,0,0,1,1.4-1.5h15.887A1.45,1.45,0,0,1,939.686,1573.366Z" transform="translate(-921 -1557.944)" fill="#fff"/>
            </g>
          </g>
          <g id="Group_66126" data-name="Group 66126">
            <g id="Group_66119" data-name="Group 66119" transform="translate(16.037)">
              <path id="Path_74314" data-name="Path 74314" d="M1462.873,272.21v-4.138c0-.056,0-.112,0-.168V267.9a.788.788,0,0,0-.766-.766l-.2.027a.766.766,0,0,0-.338.2l-.12.155a.764.764,0,0,0-.1.387v4.138c0,.056,0,.112,0,.168v.007a.788.788,0,0,0,.767.767l.2-.027a.766.766,0,0,0,.338-.2l.12-.155a.762.762,0,0,0,.1-.387Z" transform="translate(-1461.34 -267.13)" fill="#fa0c00"/>
            </g>
            <g id="Group_66120" data-name="Group 66120" transform="translate(8.071 2.058)">
              <path id="Path_74315" data-name="Path 74315" d="M971.29,398.763l-.058-.1-.157-.272-.232-.4-.283-.49-.31-.537-.314-.544-.291-.5-.247-.428-.177-.306-.084-.146,0-.006a.739.739,0,0,0-.764-.366.57.57,0,0,0-.285.091l-.155.12a.766.766,0,0,0-.2.338l-.027.2a.762.762,0,0,0,.1.387l.058.1.157.272.232.4.283.49.31.537.314.544.291.5.247.428.177.306.084.146,0,.006a.739.739,0,0,0,.764.366.57.57,0,0,0,.285-.091l.155-.12a.766.766,0,0,0,.2-.338l.027-.2a.762.762,0,0,0-.1-.387Z" transform="translate(-967.705 -394.647)" fill="#fa0c00"/>
            </g>
            <g id="Group_66121" data-name="Group 66121" transform="translate(2.201 7.823)">
              <path id="Path_74316" data-name="Path 74316" d="M608.83,754.18l-.1-.058-.272-.157-.4-.232-.49-.283-.537-.31-.544-.314-.5-.291-.428-.247-.306-.177-.146-.084-.006,0a.571.571,0,0,0-.285-.091.787.787,0,0,0-.764.366l-.077.183a.772.772,0,0,0,0,.407l.077.183a.771.771,0,0,0,.275.275l.1.058.272.157.4.232.49.283.537.31.544.314.5.291.428.247.306.177.146.084.006,0a.571.571,0,0,0,.285.091.787.787,0,0,0,.764-.366l.077-.183a.772.772,0,0,0,0-.408l-.077-.183a.77.77,0,0,0-.275-.275Z" transform="translate(-603.942 -751.918)" fill="#fa0c00"/>
            </g>
            <g id="Group_66122" data-name="Group 66122" transform="translate(0 15.751)">
              <path id="Path_74317" data-name="Path 74317" d="M472.6,1243.212h-4.313a.788.788,0,0,0-.766.766l.027.2a.766.766,0,0,0,.2.338l.155.12a.764.764,0,0,0,.387.1H472.6a.788.788,0,0,0,.767-.766l-.027-.2a.766.766,0,0,0-.2-.338l-.155-.12a.762.762,0,0,0-.387-.1Z" transform="translate(-467.521 -1243.212)" fill="#fa0c00"/>
            </g>
            <g id="Group_66123" data-name="Group 66123" transform="translate(27.474 16.037)">
              <path id="Path_74318" data-name="Path 74318" d="M2170.907,1262.482h4.313a.787.787,0,0,0,.766-.766l-.027-.2a.766.766,0,0,0-.2-.338l-.155-.12a.762.762,0,0,0-.387-.1h-4.313a.787.787,0,0,0-.766.766q.014.1.027.2a.766.766,0,0,0,.2.338l.155.12a.762.762,0,0,0,.387.1Z" transform="translate(-2170.141 -1260.949)" fill="#fa0c00"/>
            </g>
            <g id="Group_66124" data-name="Group 66124" transform="translate(25.994 8.071)">
              <path id="Path_74319" data-name="Path 74319" d="M2079.572,770.9l.1-.058.272-.157.4-.232.49-.283.537-.31.544-.314.5-.291.428-.247.306-.177.146-.084.006,0a.738.738,0,0,0,.366-.764.569.569,0,0,0-.091-.285l-.12-.155a.764.764,0,0,0-.338-.2l-.2-.027a.763.763,0,0,0-.387.1l-.1.058-.272.157-.4.232-.49.283-.537.31-.543.314-.5.291-.428.247-.306.177-.146.084-.006,0a.791.791,0,0,0-.275,1.049l.12.155a.766.766,0,0,0,.338.2l.2.027a.764.764,0,0,0,.387-.1Z" transform="translate(-2078.418 -767.314)" fill="#fa0c00"/>
            </g>
            <g id="Group_66125" data-name="Group 66125" transform="translate(21.808 2.201)">
              <path id="Path_74320" data-name="Path 74320" d="M1820.408,408.439l.058-.1.157-.272.232-.4.283-.49.31-.537.314-.544.291-.5.247-.428.177-.306.084-.146,0-.006a.571.571,0,0,0,.091-.285.787.787,0,0,0-.366-.764l-.183-.077a.773.773,0,0,0-.408,0l-.183.077a.771.771,0,0,0-.275.275l-.058.1-.157.272-.232.4-.283.49-.31.537-.314.544-.291.5-.247.428-.177.306-.084.146,0,.006a.571.571,0,0,0-.091.285.787.787,0,0,0,.366.764l.183.077a.771.771,0,0,0,.407,0l.183-.077a.772.772,0,0,0,.275-.275Z" transform="translate(-1818.979 -403.551)" fill="#fa0c00"/>
            </g>
          </g>
        </g>
      </g>
      <circle id="Ellipse_3541" data-name="Ellipse 3541" cx="5.318" cy="5.318" r="5.318" transform="translate(478.999 275.906)" fill="#fff"/>
      <path id="Path_74321" data-name="Path 74321" d="M1348.151,969.355l-.665-.665a.665.665,0,0,0-.665-.16l-1.057.352-.937-.937.339-1.024a.665.665,0,0,0-.16-.665l-.665-.665c-.891-.9-2.34,1.423-.937,2.818l1.881,1.881c1.4,1.4,3.736-.033,2.865-.937Z" transform="translate(-861.175 -686.995)" fill="#fa0c00"/>
    </g>
    <text id="Helpline-2" data-name="Helpline" transform="translate(342 337)" fill="#fff" font-size="4" font-family="Poppins-Regular, Poppins"><tspan x="0" y="0">HELPLINE</tspan></text>
  </g>
</svg>
