<svg xmlns="http://www.w3.org/2000/svg" width="11.62" height="10.676" viewBox="0 0 11.62 10.676">
  <g id="Group_62998" data-name="Group 62998" transform="translate(-5770.772 -2286.858)">
    <path id="Path_71302" data-name="Path 71302" d="M5777.635,2692.271c-.7.02-1.384,0-2.055.07a3.665,3.665,0,0,0-1.705.752,8.485,8.485,0,0,0-2.205,2.356.48.48,0,0,1-.439.265.442.442,0,0,1-.458-.44,7.178,7.178,0,0,1,1.791-4.992,4.205,4.205,0,0,1,2.6-1.353c.723-.086,1.459-.062,2.189-.086.084,0,.168,0,.281,0,0-.266.007-.523,0-.78a.482.482,0,0,1,.292-.529.489.489,0,0,1,.579.172q1.185,1.228,2.374,2.451a.49.49,0,0,1,0,.812q-1.2,1.24-2.4,2.478a.472.472,0,0,1-.845-.338C5777.634,2692.844,5777.635,2692.579,5777.635,2692.271Z" transform="translate(0 -399.008)" fill="#fff"/>
    <path id="Path_71303" data-name="Path 71303" d="M6353.945,2292.21q0,2.27,0,4.539a.7.7,0,0,1-.782.785h-7.717a.708.708,0,0,1-.787-.784c0-.212,0-.423,0-.635,0-.131.053-.238.193-.236s.173.105.172.231c0,.224,0,.448,0,.672.005.27.123.388.391.388h7.771c.279,0,.393-.118.393-.4q0-4.576,0-9.151c0-.276-.119-.394-.4-.394h-7.753c-.281,0-.4.115-.4.395,0,.563,0,1.126,0,1.688a.415.415,0,0,1-.013.179c-.028.055-.091.128-.141.129a.259.259,0,0,1-.183-.1.356.356,0,0,1-.026-.193q0-.835,0-1.671a.709.709,0,0,1,.8-.792h7.7a.7.7,0,0,1,.79.794Z" transform="translate(-571.553)" fill="#fff"/>
  </g>
</svg>
