<?xml version="1.0" encoding="utf-8"?>
<!-- Generator: Adobe Illustrator 26.0.1, SVG Export Plug-In . SVG Version: 6.00 Build 0)  -->
<svg version="1.1" id="Layer_1" xmlns="http://www.w3.org/2000/svg" xmlns:xlink="http://www.w3.org/1999/xlink" x="0px" y="0px"
	 viewBox="0 0 7390 6628" style="enable-background:new 0 0 7390 6628;" xml:space="preserve">
<style type="text/css">
	.st0{fill:#001969;}
	.st1{fill:#E2047F;}
	.st2{fill:#001968;}
	.st3{font-family:'Kanit-SemiBold';}
	.st4{font-size:1140.1509px;}
	.st5{font-family:'Kanit-Regular';}
	.st6{font-size:238.8461px;}
</style>
<g>
	<path class="st0" d="M2440.6,1891c20.6,5.7,41.2,11.7,61.9,17.1c148.3,38.8,296.6,77.5,444.9,116.3c1.3,0.3,2.5,1.1,4.7,2.1
		c-46.6,29-92.5,57.6-139.2,86.7c332.7,531.3,664.9,1061.8,998,1593.7c66.8-118.1,130.5-236.2,190.3-356.3
		c59.7-119.9,117.3-240.8,176.1-361.7c18.2,13.8,37.6,28.5,57,43.2c75.2,57,150.3,114,225.5,170.9c1.7,1.3,3.8,2.2,5.8,3.2
		c0,0.6,0,1.1,0,1.7c-7.1,13.8-14.4,27.5-21.4,41.3c-70.2,140.6-149,276.6-227.3,412.8c-129.5,225.2-258.7,450.6-388,676
		c-1.5,2.6-3.2,5.2-5.3,8.6c-439.2-681.4-877.7-1361.9-1316.6-2042.9c-56.9,35.4-113.2,70.4-171.3,106.6c3-15.7,5.5-29.4,8.3-43.2
		c16.9-84.6,33.8-169.2,50.8-253.8c14.6-72.7,29.3-145.3,43.9-218c0.3-1.4,0.2-2.8,0.2-4.2C2439.4,1891,2440,1891,2440.6,1891z"/>
	<g>
		<path class="st1" d="M3377.6,2861.1c14.7-41.1,28.3-80.1,42.6-118.8c2.8-7.6,1.9-11.7-4.2-17.3
			c-68.3-62.7-122.5-136.3-167.1-217.2c-59-107.2-98.5-221.5-123.1-341.1c-11.1-53.9-19-108.3-20.3-163.3
			c-1.1-46.5-2.8-93.3,0.6-139.7c15.3-207.3,80.8-396.6,208.7-562.1c107-138.4,242.4-237.8,410.8-289.6
			c47.7-14.7,96.4-25.3,146.3-28.3c37.7-2.3,75.6-4.7,113.2-2.9c92.4,4.5,181.3,26.1,266.1,63.3c146,64.1,264.1,162.9,359.2,289.9
			c89.6,119.7,149.1,253.5,182.7,398.9c10.8,46.9,19.3,94.3,22.6,142.4c2.5,35.7,3.4,71.4,5.6,107.1c2.4,39.6-2.7,78.7-7.2,117.8
			c-5.6,49.2-10.6,98.6-19.5,147.3c-12.6,68.9-26.4,137.8-43.3,205.7c-63.3,254.1-159.9,495.8-273.9,730.9
			c-3.7,7.6-7.5,15.2-11.8,23.9c-96.7-73.3-192.7-146.2-288.9-219.2c14.6-33.7,29.2-66.9,43.4-100.2
			c57.9-136,111.2-273.7,153.4-415.5c20.7-69.4,38.3-139.6,50-211.1c4.7-28.8,8.5-57.8,10.3-86.9c2.5-39.8,4.5-79.8,3.6-119.7
			c-4.1-164.7-45.7-318.4-139.2-455.9c-51.8-76.1-116.3-138.6-198.7-181.4c-44.7-23.2-92.1-38.1-142.3-42.7
			c-92.4-8.6-176.4,15.3-252.4,67.8c-78.2,54-133.7,127.2-175,211.7c-32.3,66-53.2,135.7-65.4,208.2
			c-9.8,58.5-13.7,117.3-11.3,176.4c3,73.5,12.4,146.2,35.5,216.4c11.8,35.8,28.7,69.1,52.5,98.6c2.7,3.3,5.6,6.4,8.5,9.6
			c0.9,1,2.1,1.8,4.1,3.6c10.2-28.3,20.1-55.8,30.5-84.9c91.2,132.5,181.6,263.7,272.7,395.9
			C3697.3,2739.5,3538.5,2799.9,3377.6,2861.1z"/>
	</g>
</g>
<g>
	<path class="st0" d="M4038.8,1904.8c-4.7,87.3-41.7,162.2-128.2,205.8c-79.8,40.2-176.6,20.1-237.9-47
		c-37.5-41-58.5-89.3-62.5-144.7c-5.8-79.6,19.5-147.6,79-201.4c32.2-29.1,70.5-45.8,114-50.3c102-10.6,183.9,56.2,216.6,136.7
		C4032.1,1834.2,4037.8,1865.8,4038.8,1904.8z M3967.1,1910.5c0-40.9-7.9-69.8-23.9-96.1c-50.1-82.6-156.7-93.7-222.6-23.2
		c-53.6,57.4-54.8,156.6-2.5,215.2c48.5,54.5,121.3,65.9,179.6,26.8C3944.6,2002,3965.2,1956.1,3967.1,1910.5z"/>
</g>
<g>
	<path class="st1" d="M3829,2000.2c-29.2-26.5-55.8-54.2-73.1-89.7c-23-47.1,5.9-94.4,55.3-104.4c22.8-4.6,44.2,0,63.3,12.8
		c29.3,19.6,39.5,52.7,26.5,86c-13.5,34.4-37.4,61.3-63,87C3835.4,1994.5,3832.5,1996.9,3829,2000.2z M3824.7,1849.5
		c-15.3,0-26.9,12.3-26.9,28.8c0,16.3,11.7,29.3,26.6,29.5c14.5,0.1,27.1-13.3,27.2-29.2C3851.6,1862.5,3839.7,1849.5,3824.7,1849.5
		z"/>
</g>
<text transform="matrix(1 0 0 1 1428.5924 5327.082)" class="st2 st3 st4">Locally</text>
<text transform="matrix(1 0 0 1 1517.212 5660.0186)" class="st2 st5 st6">Explore Your Neighborhood in One Click</text>
</svg>
