<svg xmlns="http://www.w3.org/2000/svg" width="100" height="100" viewBox="0 0 100 100">
  <g id="report-icon" transform="translate(6137 3259)">
    <g id="Rectangle_12142" data-name="Rectangle 12142" transform="translate(-6137 -3259)" fill="#fff" stroke="#707070" stroke-width="1" opacity="0">
      <rect width="100" height="100" stroke="none"/>
      <rect x="0.5" y="0.5" width="99" height="99" fill="none"/>
    </g>
    <g id="Group_62908" data-name="Group 62908" transform="translate(-6513.738 -4298.977)">
      <path id="Path_70205" data-name="Path 70205" d="M426.308,1127.947c-9.2,0-18.407.016-27.611-.007a12.577,12.577,0,0,1-12.5-9.5,12.123,12.123,0,0,1,1.206-9.4q13.865-25.249,27.774-50.473a12.673,12.673,0,0,1,22.231-.019q13.934,25.211,27.769,50.476a12.615,12.615,0,0,1-8.007,18.529,14.533,14.533,0,0,1-3.632.373C444.462,1127.96,435.385,1127.947,426.308,1127.947Zm-.055-6.335q13.676,0,27.352,0c5.637,0,8.565-4.954,5.846-9.9q-13.687-24.909-27.387-49.809a6.409,6.409,0,0,0-11.548.032q-13.648,24.857-27.33,49.7c-2.8,5.088.125,9.981,5.968,9.983Q412.7,1121.616,426.252,1121.612Z" transform="translate(0 0)"/>
      <path id="Path_70206" data-name="Path 70206" d="M533.48,1152.066c0-3.245-.031-6.491.015-9.736a3.016,3.016,0,0,1,2.165-2.793,3.144,3.144,0,0,1,3.537,1.307,3.737,3.737,0,0,1,.482,1.784q.051,9.419.008,18.84a3.111,3.111,0,1,1-6.218-.046c-.039-3.118-.01-6.238-.01-9.357Z" transform="translate(-110.283 -65.287)"/>
      <path id="Path_70207" data-name="Path 70207" d="M536.57,1270.686a3.126,3.126,0,1,1,3.149-3.069A3.056,3.056,0,0,1,536.57,1270.686Z" transform="translate(-110.294 -158.623)"/>
    </g>
  </g>
</svg>
