<svg xmlns="http://www.w3.org/2000/svg" width="100" height="100" viewBox="0 0 100 100">
  <g id="saved-files" transform="translate(6137 3259)">
    <g id="Rectangle_12142" data-name="Rectangle 12142" transform="translate(-6137 -3259)" fill="#fff" stroke="#707070" stroke-width="1" opacity="0">
      <rect width="100" height="100" stroke="none"/>
      <rect x="0.5" y="0.5" width="99" height="99" fill="none"/>
    </g>
    <g id="Group_62891" data-name="Group 62891" transform="translate(-6152.537 -3261.524)">
      <path id="Path_70764" data-name="Path 70764" d="M77.117,19.2c-4.231,2.008-6.294,5.116-5.593,9.5.7,4.369,3.752,6.509,7.925,7.161,1.234,5.12,3.662,7.617,7.807,8.08,3.672.41,6.781-1.619,9.083-6.185v1.517q0,23.442-.006,46.885c0,3.62-1.443,6.489-4.727,8.205S85.181,95.63,82.2,93.53c-5.112-3.6-10.241-7.175-15.355-10.77-2.3-1.613-2.969-1.626-5.294,0-5.163,3.608-10.335,7.2-15.484,10.832a8.416,8.416,0,0,1-9.286.808,8.3,8.3,0,0,1-4.639-7.941c.009-17.605-.04-35.211.025-52.816.03-8.189,6-14.384,14.139-14.522,10.028-.17,20.06-.051,30.091-.053A5.834,5.834,0,0,1,77.117,19.2Z" transform="translate(0 -6.879)" fill="#001968"/>
      <path id="Path_70765" data-name="Path 70765" d="M205.071,17.644c1.857,0,3.452-.009,5.048,0,1.974.014,3.129,1.07,3.112,2.823-.016,1.709-1.23,2.788-3.179,2.809-1.5.016-3.009.013-4.514.025a2.224,2.224,0,0,0-.454.16c0,1.511.018,3.1,0,4.681-.029,2.023-1.043,3.228-2.71,3.268-1.691.041-2.837-1.247-2.875-3.285-.029-1.544-.006-3.089-.006-4.846H196.48c-3.9,0-5.1-.673-5.086-2.864s1.1-2.774,5.128-2.774h2.992c0-1.9-.087-3.681.022-5.45a2.743,2.743,0,0,1,4.031-2.426,2.641,2.641,0,0,1,1.5,2.514C205.069,14.01,205.071,15.74,205.071,17.644Z" transform="translate(-114.286 0)" fill="#001968"/>
    </g>
  </g>
</svg>
