<svg id="Group_62594" data-name="Group 62594" xmlns="http://www.w3.org/2000/svg" width="25.395" height="27.7" viewBox="0 0 25.395 27.7">
  <path id="Path_70759" data-name="Path 70759" d="M-64.819-78.3a10.812,10.812,0,0,1-1.34-.389,4.579,4.579,0,0,1-2.7-5.123.244.244,0,0,0-.148-.312q-4.028-2.289-8.049-4.589a.3.3,0,0,0-.418.042,4.582,4.582,0,0,1-5.075.652A4.574,4.574,0,0,1-85.1-92.488a4.415,4.415,0,0,1,2.845-3.918,4.436,4.436,0,0,1,4.778.772c.118.1.2.171.37.073,2.75-1.576,5.5-3.144,8.236-4.7-.025-.463-.081-.91-.067-1.356a4.6,4.6,0,0,1,3.908-4.331,1.865,1.865,0,0,0,.206-.052h.974a.991.991,0,0,0,.152.047,4.622,4.622,0,0,1,3.9,3.719,4.63,4.63,0,0,1-2.363,4.921,4.6,4.6,0,0,1-5.379-.751c-.063-.06-.128-.118-.2-.184l-8.34,4.754a4.723,4.723,0,0,1,0,2.689l8.383,4.777a1.773,1.773,0,0,1,.175-.227,4.514,4.514,0,0,1,3.853-1.229,4.613,4.613,0,0,1,3.928,4.177,4.61,4.61,0,0,1-3.432,4.851c-.225.059-.453.1-.68.155Z" transform="translate(85.114 106)" fill="#001968"/>
</svg>
