<svg xmlns="http://www.w3.org/2000/svg" width="712.7" height="109.596" viewBox="0 0 712.7 109.596">
  <g id="Group_62981" data-name="Group 62981" transform="translate(-827 -4557.9)">
    <path id="Path_71287" data-name="Path 71287" d="M1153.171,4667.5H843.71a16.71,16.71,0,0,1-16.71-16.71V4574.61a16.71,16.71,0,0,1,16.71-16.71h309.474a16.71,16.71,0,0,1,16.71,16.71v76.175A16.721,16.721,0,0,1,1153.171,4667.5Z" fill="#fed0ea"/>
    <g id="Group_62979" data-name="Group 62979" transform="translate(844.305 4571.114)">
      <path id="Path_71288" data-name="Path 71288" d="M967.827,4741.2v-16.76a64.333,64.333,0,0,0,24.346,5.256c9.793,0,14.553-1.1,14.553-7.215s-4.773-7.586-18.346-11.5c-16.152-4.76-21.78-10.76-21.78-23.23,0-15.049,10.884-23.243,31.933-23.243,9.049,0,18.47,1.587,23.85,3.421v16.884a57.106,57.106,0,0,0-20.925-4.041c-8.814,0-14.8.979-14.8,6.855,0,5.145,3.793,6.483,16.388,9.793,19.326,5.256,23.851,13.338,23.851,25.078,0,13.946-10.648,23.243-32.788,23.243C983.732,4745.733,974.31,4744.134,967.827,4741.2Z" transform="translate(-966.6 -4664.5)" fill="#001968"/>
      <path id="Path_71289" data-name="Path 71289" d="M1534.1,4674.3h16.884l33.52,47.106V4674.3h19.822v78.791h-17.008l-33.52-46.982v46.982h-19.7V4674.3Z" transform="translate(-1463.751 -4673.085)" fill="#001968"/>
      <path id="Path_71290" data-name="Path 71290" d="M2211.6,4674.3h21.284l30.1,78.791h-20.553l-7.091-17.863h-26.3l-6.979,17.863H2181.5Zm21.037,46.375-10.524-27.408-10.4,27.408Z" transform="translate(-2030.897 -4673.085)" fill="#001968"/>
      <path id="Path_71291" data-name="Path 71291" d="M2919.612,4674.3h38.776c18.843,0,27.644,12.235,27.644,28.14,0,16.276-10.884,27.532-28.14,27.532H2939.3v23.119h-19.7V4674.3Zm33.892,40.5c8.318,0,12.483-5.021,12.483-12.483,0-8.07-3.793-12.842-11.863-12.842h-14.8V4714.8Z" transform="translate(-2677.5 -4673.085)" fill="#001968"/>
    </g>
    <g id="Group_62980" data-name="Group 62980" transform="translate(1183.443 4571.102)">
      <path id="Path_71292" data-name="Path 71292" d="M3702.4,4674.3h19.7v63.618h37.189v15.173H3702.4Z" transform="translate(-3702.4 -4673.073)" fill="#001968"/>
      <path id="Path_71293" data-name="Path 71293" d="M4138.6,4705.482c0-29.119,13.574-40.982,39.271-40.982,25.573,0,39.271,11.863,39.271,40.982,0,27.644-13.7,40.25-39.271,40.25C4152.174,4745.733,4138.6,4733.126,4138.6,4705.482Zm58.362,0c0-17.615-5.876-24.1-19.09-24.1-13.338,0-19.2,6.483-19.2,24.1,0,16.152,5.876,23.491,19.2,23.491C4191.086,4728.973,4196.962,4721.622,4196.962,4705.482Z" transform="translate(-4084.527 -4664.488)" fill="#001968"/>
      <path id="Path_71294" data-name="Path 71294" d="M4808.7,4705.63c0-26.3,14.07-41.23,42.209-41.23a68.142,68.142,0,0,1,23.851,4.041V4685.7a57.059,57.059,0,0,0-22.388-4.4c-16.388,0-23.615,7.586-23.615,24.346,0,16.029,8.07,23.243,23.851,23.243a57.854,57.854,0,0,0,22.264-4.277v17.367a71.23,71.23,0,0,1-23.85,3.669C4823.5,4745.645,4808.7,4730.72,4808.7,4705.63Z" transform="translate(-4671.56 -4664.4)" fill="#001968"/>
      <path id="Path_71295" data-name="Path 71295" d="M5409.2,4674.3h21.285l30.1,78.791h-20.553l-7.09-17.863h-26.305l-6.979,17.863H5379.1Zm21.049,46.375-10.524-27.408-10.4,27.408Z" transform="translate(-5171.251 -4673.073)" fill="#001968"/>
      <path id="Path_71296" data-name="Path 71296" d="M6117.4,4674.3h19.7v63.618h37.188v15.173H6117.4Z" transform="translate(-5818.029 -4673.073)" fill="#001968"/>
    </g>
  </g>
</svg>
