<svg xmlns="http://www.w3.org/2000/svg" width="819.304" height="217" viewBox="0 0 819.304 217">
  <g id="Group_66175" data-name="Group 66175" transform="translate(-733 -5859)">
    <rect id="Rectangle_13056" data-name="Rectangle 13056" width="390" height="217" rx="13" transform="translate(733 5859)" fill="#fed0ea"/>
    <g id="Group_66173" data-name="Group 66173" transform="translate(757.349 5883.006)">
      <path id="Path_76149" data-name="Path 76149" d="M-363.556,314.723c-7.3-11.546-19.555-16.493-31.914-13.42a31.636,31.636,0,0,1-4.363.9c-3.764.385-7.063-.48-8.791-4.238a7.744,7.744,0,0,1,2.068-9.558,15.407,15.407,0,0,1,7.863-3.7c15.411-1.533,28.032,4.148,37.794,16.028,3.071,3.736,5.4,8.075,8.4,11.875a6.6,6.6,0,0,0,4.522,2.2c14.07.167,28.143,0,42.214.129,9.805.089,18.773,2.553,25.291,10.569a42.5,42.5,0,0,1,8.861,20.6,62.265,62.265,0,0,1-2.307,30.348c-4.374,12.608-14.131,18.613-28.5,17.541-12.425-.926-22.092-9.254-24.466-21.077-2.3-11.465,2.732-24.1,11.719-29.419,10.048-5.942,23.786-4.758,32.972,2.8a27.442,27.442,0,0,0,3.021,1.865c.571-7.992-7.462-14.455-14.451-16.523a40.6,40.6,0,0,0-10.747-1.633c-12.31-.2-24.625-.029-36.937-.11-3.042-.02-4.278.384-3.573,4.13,3.372,17.926,3.147,35.8-3.018,53.158-3.944,11.1-11.992,17.756-23.949,19.047-10.763,1.163-19.657-2.239-26.212-11.125-3.387-4.592-3.626-9.775-2.9-15.105.416-3.062,1.161-6.079,1.7-9.125,1.45-8.131-2.489-13.758-10.6-15.191-7.5-1.324-14.88,1.478-17.8,6.753-3.7,6.7-2.019,16.67,3.348,23.126,2.683,3.229,5.392,6.863,6.624,10.775,1.943,6.168-3.614,11.212-9.968,10.249-8.967-1.36-14.52-6.294-16.3-15.068-2.389-11.794-2.581-23.394,5.042-33.743,8.828-11.984,23.71-14.1,34.938-10.154,9.658,3.4,14.581,11.54,15.639,21.8.49,4.755.961,9.665,5.539,12.448,5.368,3.262,15.793,4.3,22.066-2.457a28.851,28.851,0,0,0,7.933-18.643c.348-8.966-.577-17.985-1.048-26.976-.17-3.248-2.15-3.949-5.231-3.935-25.708.12-51.416.075-77.124.063-7.817,0-10.212-2.58-8.75-10.126.318-1.639,2.313-3.459,3.979-4.2,1.866-.827,4.235-.677,6.386-.68q33.285-.056,66.57-.024C-366.715,314.91-365.415,314.8-363.556,314.723Zm65.067,32.942c-10.485-.015-16.082,4.818-16.083,13.889,0,9.83,5.573,15.149,15.872,15.148,9.451,0,16.05-6.469,15.943-15.628C-282.845,353.361-289.512,347.679-298.488,347.665Z" transform="translate(445.418 -272.352)" fill="#001968"/>
      <path id="Path_76150" data-name="Path 76150" d="M-103.948,401.586c-2.881,2.553-5.843,5.7-9.3,8.142-9.4,6.654-19.664,7.412-29.9,2.487-10.4-5-16.764-13.432-17.9-25.185-1.009-10.413.581-20.208,7.834-28.393,7.774-8.776,17.958-11.41,28.97-10.035,12.088,1.51,20.408,8.5,24.4,20.225,2.484,7.294,4.908,14.546,11.171,19.777,6.995,5.842,21.427,5.227,25.832-6.2,3.481-9.034,4.862-18.384-.318-27.276-4.526-7.77-11.908-11.023-20.7-11.368-5.047-.2-8.02-2.738-8.175-7.039-.2-5.479,2.374-8.266,7.924-8.359,11.127-.186,18.755,5.6,24.616,14.469,7.962,12.053,8.858,25.511,7.981,39.328-.54,8.506-2.6,16.542-8.257,23.2-9,10.6-27.672,13.077-37.335,4.735C-99.956,407.627-101.934,404.14-103.948,401.586Zm-24.679-7.263c12.083,0,19.082-7.172,19.112-19.6.024-9.753-8.717-17.82-19.784-17.643-12.337.2-19.45,8.362-19.173,17.474C-148.11,386.419-140.5,394.32-128.627,394.324Z" transform="translate(392.037 -280.599)" fill="#001968"/>
      <path id="Path_76151" data-name="Path 76151" d="M-212.638,436.617c-1.133,1.662-2,2.942-2.878,4.22-7.515,10.983-26.039,12.772-35.149,3.37a14.738,14.738,0,0,1-3.68-15.1c1.673-5.924,6.31-8.584,11.919-9.874,9.126-2.1,17.421-.013,25.093,5.1.645.431,1.344.783,2.8,1.623.722-3.02,1.889-5.709,1.883-8.4a39.256,39.256,0,0,0-1.473-11.891c-1.951-6.013-7.2-8.076-13.108-5.967-3.767,1.345-5.834.85-6.786-1.626-1.411-3.67-.042-7.85,3.037-9.273,5.888-2.721,13.934-.06,18.242,6.112,6.534,9.36,7.277,19.66,4.536,30.37-.667,2.608-.753,4.294,1.084,6.8,5.662,7.723,7.9,16.3,3.742,25.661-1.687,3.8-3.973,5.206-7.071,4.014-2.689-1.034-4.421-5.189-3.421-8.259,1.068-3.278,2.33-6.5,3.185-9.834A7.216,7.216,0,0,0-212.638,436.617Zm-19.137,2.855c5.288.256,9.263-2.21,12.75-5.927,1.653-1.762,1.372-3.055-.347-4.384-5.945-4.595-12.547-4.386-19.178-2.2-3.87,1.273-4.746,5.086-2.3,8.409A9.984,9.984,0,0,0-231.775,439.473Z" transform="translate(416.647 -290.592)" fill="#001968"/>
      <path id="Path_76152" data-name="Path 76152" d="M-154.369,302.187c-6.085-6.057-8.23-12.9-5.6-20.595,2.569-7.534,9.809-12,18.393-12.017q33.879-.055,67.759,0c5.954.008,8.743,2.023,9.166,6.38.534,5.5-2.592,8.962-8.3,8.971-21.775.037-43.551,0-65.326.044a17.388,17.388,0,0,0-4.757.629c-2.733.792-4.3,2.991-3.324,5.546a8.09,8.09,0,0,0,4.485,4.255c2.334.773,5.076.365,7.643.373,8.115.027,16.23.008,24.344.011,5.762,0,8.021,1.43,8.028,5.064.007,3.885-1.958,5.213-7.756,5.216-10.143.006-20.287-.039-30.43.024-4.34.028-6.368,1.692-6.5,5.018-.16,3.991,2.41,5.422,5.763,6.021a19.029,19.029,0,0,0,3.232.161c3.516.019,7.034.034,10.549,0,2.587-.024,5.259.226,5.42,3.434.155,3.1-1.54,5.992-4.752,6.066-7.678.176-15.522.56-23.017-.75-7.964-1.394-14.532-14.6-6.78-21.973C-155.557,303.518-155.043,302.908-154.369,302.187Z" transform="translate(391.991 -269.55)" fill="#001968"/>
    </g>
    <g id="Group_66174" data-name="Group 66174" transform="translate(1133.877 5883.006)">
      <path id="Path_76153" data-name="Path 76153" d="M-39.283,350.078c-3.095,7.822-3.095,7.822-12.008,7.822q-20.391,0-40.781,0c-1.2,0-2.7-.369-3.531.2-1.7,1.161-3.757,2.6-4.365,4.374-.883,2.574.948,4.584,3.527,5.372a17.045,17.045,0,0,0,4.705.647c5.863.073,11.729.1,17.591,0,3.29-.057,5.714,1.107,5.732,4.566.017,3.412-2.106,5.309-5.652,5.316-6.4.011-12.794,0-19.191.041-1.46.009-3.3-.352-4.294.374-1.613,1.176-3.525,3.029-3.69,4.751-.126,1.317,2.016,3.7,3.571,4.147,3,.868,6.339.486,9.472,1.01,14.34,2.4,26.552,15.813,27.113,30.862a93.264,93.264,0,0,1-1.966,23.672c-3.22,14.344-13,23.136-26.892,27.284-14.752,4.405-29.657,4.785-44.352-.086-18.227-6.041-29.128-21.286-29.778-40.631-.428-12.743,1.728-24.673,10.274-34.724,7.727-9.088,19.572-11.743,30.866-8.882,15.926,4.034,16.36,22.705,8.393,31.479-7.717,8.5-23.669,9.744-32.265,2.128-2.387-2.115-4.1-4.986-6.522-8.005a27.822,27.822,0,0,0-1.808,16.322c1.762,11.095,8.74,17.756,19.089,20.756a83.008,83.008,0,0,0,48.721-.17c20.109-6.267,22.244-30.827,11.964-42.831-4.58-5.347-10.618-7.685-17.624-7.953-5.456-.208-10.973-.656-15.331-4.552-6.138-5.488-6.189-12.024-.292-17.795a5.378,5.378,0,0,0,.657-1.169,19.219,19.219,0,0,1-6.018-17.7c1.182-7.978,9.361-14.367,18.265-14.453,15.991-.157,31.984-.03,47.977-.048,4.4,0,7.27,1.963,8.441,6.264Zm-94.205,64.346a27.582,27.582,0,0,0,3.216-.336,10.777,10.777,0,0,0,8.541-8.418,9.183,9.183,0,0,0-5.353-9.769,19.349,19.349,0,0,0-9.173-1.521c-6.233.737-10.07,5.714-9.464,11.141C-145.162,410.534-140.154,414.413-133.489,414.424Z" transform="translate(457.71 -332.578)" fill="#001968"/>
      <path id="Path_76154" data-name="Path 76154" d="M-520.109,409.538c-4.838,10.221-3.224,28.987,13.627,35.717,11.155,4.456,22.779,4.987,34.561,4.323,9.111-.514,17.934-1.947,25.636-7.436,9.2-6.559,11.815-18.8,8.792-29.49-3.142-11.111-11.374-16.82-23.178-17.111a40.405,40.405,0,0,1-4.789-.16c-10.436-1.513-14.255-5.609-15.183-16.149-.934-10.6,4.021-18.633,13.493-21.866,17.414-5.942,33.952-.762,45.719,14.32,1.047,1.343,2.094,2.688,2.739,3.516,4.858-3.351,9.113-7.327,14.149-9.468,5.116-2.175,11-2.542,17.061-3.807-.443-1.978-1.01-4.475-1.561-6.975-2.955-13.412,5.853-24.63,19.6-24.772a45.075,45.075,0,0,1,9.879.871c13.469,2.9,19.243,18.489,10.742,28.9-.834,1.021-2.463,1.394-4.708,2.595,1.3-6.331,1.379-10.979-2.988-14.539-4.272-3.483-13.958-4.105-18.1-1.035-4.25,3.147-5.877,9.794-3.437,15.212a11.159,11.159,0,0,0,3.585,4.662c11.107,7.328,15.393,18.547,16.756,30.834,1.257,11.331.31,22.671-6.592,32.548-6.858,9.813-18.3,13.336-30.45,9.457-11.224-3.582-17.915-12.745-18.077-24.517-.149-10.934,2.827-20.308,12.923-26.066a25.909,25.909,0,0,1,30.076,3.407c1.135,1.027,2.37,1.942,4.2,3.434a13.3,13.3,0,0,0-4.574-10.422c-7.767-7.541-17.263-8.926-27.422-7.215a38.459,38.459,0,0,0-9.8,3.067c-3.86,1.807-6.608,4.664-7.088,9.416a5.86,5.86,0,0,1-3.315,4.149c-2.7.8-3.384-1.822-3.995-3.885-4.391-14.84-19.2-23.935-34.8-21.463-4.491.711-9.3.973-12.146,4.98a9.995,9.995,0,0,0-1.748,7.188c.384,1.613,3.241,3.245,5.265,3.72,3.188.747,6.645.25,9.911.765,14.376,2.267,22.747,11.783,26.17,24.865a53.353,53.353,0,0,1-4.051,38.435,34.935,34.935,0,0,1-19.346,17.044c-15.92,6.052-32.265,6.754-48.484,1.5-18.374-5.955-29.24-21.12-29.962-40.5-.474-12.734,1.645-24.677,10.159-34.775,7.716-9.151,19.457-11.836,30.821-9.05,16.034,3.931,16.5,22.594,8.642,31.412-7.719,8.656-24.031,9.89-32.584,2.079C-516.25,415.178-517.875,412.4-520.109,409.538ZM-385,424.574c3.264-1.27,6.827-2.067,9.731-3.906,6.611-4.184,7.9-15.272,2.724-20.332-5.44-5.32-16.437-6.68-22.532-2.167-2.455,1.818-4.89,4.844-5.529,7.72C-402.853,416.022-395.946,423.745-385,424.574ZM-500.989,412.03c4.484,0,8.388-1.279,10.9-5.274a8.5,8.5,0,0,0-.258-10.062c-2.993-4.259-7.486-5.4-12.286-4.908-6.356.655-10.561,5.566-10.059,11.13C-512.224,408.085-507.107,412.068-500.989,412.03Z" transform="translate(531.078 -330.178)" fill="#001968"/>
      <path id="Path_76155" data-name="Path 76155" d="M-274.076,392.995c-3.076-2.563-6.125-4.688-8.665-7.307-5.066-5.223-4.663-13.5.562-17.27,4.411-3.181,9.341-2.725,12.786,1.447a41.3,41.3,0,0,1,3.774,6.081c.784,1.384,1.312,2.912,2.078,4.308,5.606,10.225,12.506,11.448,19.825,2.407,6.228-7.694,11.11-16.485,16.5-24.851,1.506-2.339,2.692-4.883,4.011-7.341,2.535-4.73,6.589-6.133,11.71-5.648,7.89.745,11.864,7.409,8.557,14.625-2.843,6.2-8.271,9.91-13.405,13.935-6.179,4.843-12.256,9.818-18.345,14.774a4.432,4.432,0,0,0-.846,1.389c5.572,2.507,11.01,4.8,16.295,7.412a19.453,19.453,0,0,1,4.951,3.952c2.693,2.735,4.151,5.96,2.217,9.734-1.6,3.113-6.713,5.149-10.428,4.294a23.457,23.457,0,0,1-12.4-7.53,28.99,28.99,0,0,0-33.279-6.543c-3.454,1.668-5.953,3.989-5.986,8.174-.035,4.143,1.6,7.683,5.5,8.847a79.862,79.862,0,0,0,16.258,3.1c8.206.662,16.572-.114,24.676,1.06a38.272,38.272,0,0,1,15.669,6.14c9.98,6.858,10.363,21.838,1.181,31.2-8.2,8.368-18.563,12.706-30.042,14.306-12.451,1.735-24.656.13-36.521-3.758-9.088-2.979-14.32-9.51-14.62-17.032-.164-4.136,1.675-6.805,5.18-8.64,3.64-1.906,7.222-2.01,10.354.8a29.826,29.826,0,0,1,5.152,6.013c6.253,9.754,15.065,14.832,26.648,14.644,5.536-.089,10.787-1.588,15.048-5.439,6.126-5.535,5.48-13.693-1.491-18.167-7.666-4.92-16.252-5.047-25-4.972a97.278,97.278,0,0,1-19-1.412c-7.478-1.43-13.351-5.764-15.042-13.679-1.857-8.693-.413-16.777,6.907-22.766C-280.485,396.981-277.269,395.15-274.076,392.995Z" transform="translate(483.293 -333.087)" fill="#001968"/>
    </g>
  </g>
</svg>
