<svg xmlns="http://www.w3.org/2000/svg" width="100" height="100" viewBox="0 0 100 100">
  <g id="saved-files-lines" transform="translate(6137 3259)">
    <g id="Rectangle_12142" data-name="Rectangle 12142" transform="translate(-6137 -3259)" fill="#fff" stroke="#707070" stroke-width="1" opacity="0">
      <rect width="100" height="100" stroke="none"/>
      <rect x="0.5" y="0.5" width="99" height="99" fill="none"/>
    </g>
    <g id="Group_62896" data-name="Group 62896" transform="translate(-6433.067 -3776.513)">
      <path id="Path_70762" data-name="Path 70762" d="M32.109,63.029c0-9.249.093-18.5-.029-27.749A15.576,15.576,0,0,1,43.394,19.9a17.648,17.648,0,0,1,4.323-.572c8.339-.053,16.68-.017,25.019-.037a3.129,3.129,0,0,1,3.21,1.789,2.922,2.922,0,0,1-1.9,4.06,9.522,9.522,0,0,1-2.1.176c-7.885.012-15.77-.013-23.655.016-4.751.017-8.238,2.3-9.6,6.386a12.466,12.466,0,0,0-.524,3.873q-.048,27.749-.029,55.5c0,1.542.225,2.937,1.754,3.73,1.588.824,2.891.155,4.191-.763q8.222-5.808,16.476-11.57c4.111-2.883,7.768-2.891,11.879-.019,5.584,3.9,11.175,7.79,16.736,11.721,1.294.915,2.6,1.4,4.067.586,1.392-.776,1.742-2.094,1.74-3.608q-.023-21.684,0-43.367a5.372,5.372,0,0,1,.268-2.065,2.83,2.83,0,0,1,3.052-1.759,3.259,3.259,0,0,1,2.689,2.725,6.313,6.313,0,0,1,.034,1.059q0,21.835,0,43.671a9.4,9.4,0,0,1-8.017,9.7,9.038,9.038,0,0,1-6.987-1.776q-8.252-5.765-16.482-11.56c-2.664-1.879-3.258-1.907-5.918-.049q-8.314,5.805-16.623,11.617a9,9,0,0,1-9.844.829,8.9,8.9,0,0,1-5.031-8.5Q32.116,77.358,32.109,63.029Z" transform="translate(278.122 508.704)" fill="#001968"/>
      <path id="Path_70763" data-name="Path 70763" d="M205.984,18.361c2.025,0,3.834-.019,5.643.005a2.872,2.872,0,0,1,3.112,2.954A2.971,2.971,0,0,1,211.7,24.4c-1.812.052-3.627.011-5.739.011,0,2.023.023,3.965-.008,5.906a2.7,2.7,0,0,1-2.066,2.657,2.6,2.6,0,0,1-3.107-.922,5.092,5.092,0,0,1-.762-2.515c-.115-1.647-.033-3.308-.033-5.124-1.719,0-3.269,0-4.819,0-2.52,0-3.846-1.033-3.868-3-.022-2.041,1.217-3.046,3.763-3.053q2.2-.006,4.391-.019a3.7,3.7,0,0,0,.553-.142c0-1.824-.083-3.725.021-5.616a2.946,2.946,0,0,1,4.268-2.7,2.856,2.856,0,0,1,1.688,2.8C205.982,14.533,205.984,16.387,205.984,18.361Z" transform="translate(167.196 515.48)" fill="#001968"/>
    </g>
  </g>
</svg>
