<svg xmlns="http://www.w3.org/2000/svg" width="11.727" height="11.705" viewBox="0 0 11.727 11.705">
  <g id="Group_59840" data-name="Group 59840" transform="translate(-117.005 -117.492)">
    <path id="Path_68837" data-name="Path 68837" d="M117,121.867c.029-.2.051-.393.09-.586a4.634,4.634,0,0,1,1.719-2.793,4.646,4.646,0,0,1,4.368-.748,4.7,4.7,0,0,1,3.148,3.82,4.777,4.777,0,0,1,.025,1.064c-.034-.026-.058-.041-.079-.06-.257-.234-.515-.466-.768-.7a.261.261,0,0,1-.075-.143,3.736,3.736,0,0,0-.919-2.032,3.77,3.77,0,0,0-6.269,4.027,10.1,10.1,0,0,0,1.72,2.565,17.851,17.851,0,0,0,1.609,1.611.309.309,0,0,1,.119.263c-.009.3,0,.6,0,.893,0,.037,0,.074-.006.134-.088-.071-.162-.128-.233-.188a17.34,17.34,0,0,1-3.351-3.645,6.507,6.507,0,0,1-1.011-2.274c-.034-.164-.055-.33-.083-.495Z" fill="#001968"/>
    <path id="Path_68838" data-name="Path 68838" d="M127.635,133.841c-.076-.02-.154-.036-.229-.059a1.248,1.248,0,0,1-.885-1.225c0-.423,0-.847,0-1.271v-.151l-.256.227-.615-.674,3.558-3.246.9.821,2.621,2.391a.305.305,0,0,0,.037.026v.023l-.62.656-.252-.227v.136c0,.446,0,.893,0,1.339a1.245,1.245,0,0,1-.888,1.176c-.076.022-.154.038-.231.057Zm1.575-5.159c-.02.017-.033.025-.044.035q-.838.764-1.673,1.529a.222.222,0,0,0-.057.148c0,.71,0,1.42,0,2.129,0,.276.124.4.4.4h2.748c.277,0,.4-.121.4-.4q0-.87,0-1.741a1.305,1.305,0,0,0-.019-.485c-.058-.135-.221-.225-.339-.333Z" transform="translate(-4.034 -4.644)" fill="#001968"/>
    <path id="Path_68839" data-name="Path 68839" d="M124.087,122.64a1.939,1.939,0,1,1-1.935,1.938A1.937,1.937,0,0,1,124.087,122.64Zm1.029,1.943a1.024,1.024,0,1,0-1.031,1.021A1.025,1.025,0,0,0,125.115,124.583Z" transform="translate(-2.402 -2.403)" fill="#001968"/>
    <path id="Path_68840" data-name="Path 68840" d="M131.062,134.759V133.4h1.363v1.356Z" transform="translate(-6.561 -7.426)" fill="#001968"/>
  </g>
</svg>
