<svg xmlns="http://www.w3.org/2000/svg" width="11.914" height="12.645" viewBox="0 0 11.914 12.645">
  <g id="Group_59838" data-name="Group 59838" transform="translate(-101.216 -99.55)">
    <path id="Path_68827" data-name="Path 68827" d="M103.567,112.195a2.557,2.557,0,0,1-.281-.116.878.878,0,0,1-.437-.613q-.394-1.781-.789-3.562c-.009-.04-.019-.079-.032-.128-.132,0-.264,0-.395,0a.391.391,0,0,1-.416-.406c0-.169,0-.337,0-.506a.386.386,0,0,1,.4-.4c.316,0,.633,0,.966,0-.023-.048-.038-.084-.057-.118-.162-.3-.314-.606-.487-.9a1.077,1.077,0,0,1,.6-1.616c.019-.006.037-.015.072-.029a2.9,2.9,0,0,0-1.032-1.321c-.121-.067-.16-.163-.111-.262a.19.19,0,0,1,.277-.069,1.949,1.949,0,0,1,.752.713,3.348,3.348,0,0,0,.223.313l-.3-.89c-.056-.163-.114-.326-.168-.49-.043-.13,0-.231.1-.267s.2.013.252.151q.259.745.515,1.491l.033.094c.021-.315.038-.63.065-.944.013-.157.1-.226.215-.209s.164.11.146.266a4.162,4.162,0,0,0-.007,1.1,1.129,1.129,0,0,1,.734-.057,1.03,1.03,0,0,1,.767.833c.077.39.137.784.224,1.176v-.124q0-.623,0-1.247a1.653,1.653,0,0,1,.43-1.15,1.411,1.411,0,0,0,.39-1.045c0-.025.007-.056,0-.073a.941.941,0,0,1-.073-.576c-.007-.444,0-.889,0-1.333,0-.244.084-.33.324-.33q.488,0,.975,0c.219,0,.309.089.31.307,0,.56,0,1.119,0,1.679,0,.07-.049.14-.051.21a1.81,1.81,0,0,0,.019.52,2.229,2.229,0,0,0,.264.535,4.7,4.7,0,0,0,.316.411c0-.079,0-.138,0-.2a.373.373,0,0,1,.406-.41q1.253,0,2.506,0a.366.366,0,0,1,.4.4c0,.049,0,.1,0,.148a.409.409,0,0,1-.275.459c.091.177.173.36.277.53a1.3,1.3,0,0,1,.181.74c-.012.473,0,.947,0,1.42v.16h.491c.156,0,.313,0,.469,0a.385.385,0,0,1,.386.385c.005.181.006.362,0,.543a.385.385,0,0,1-.389.381c-.136,0-.271,0-.421,0-.059.265-.119.528-.177.79-.212.955-.425,1.909-.633,2.864a.891.891,0,0,1-.7.744c-.011,0-.019.013-.029.021Zm8.364-4.412h-9.513c.011.053.019.1.028.141q.375,1.7.749,3.394a.54.54,0,0,0,.625.506h6.7a.539.539,0,0,0,.626-.505q.251-1.144.505-2.287Zm.82-.939H101.6v.554h11.151Zm-4.651-2.353a1.707,1.707,0,0,0-.41-1.454,1.443,1.443,0,0,1-.291-.507,5,5,0,0,1-.14-.676H106.6a.218.218,0,0,0-.009.042,1.739,1.739,0,0,1-.482,1.255,1.363,1.363,0,0,0-.341.963c0,.736,0,1.472,0,2.208v.131h.568c0-.507,0-1,0-1.5,0-.327.136-.461.466-.461Zm-5.611,1,.572-.2c.194-.067.387-.137.583-.2.169-.055.313.049.266.2a.286.286,0,0,1-.156.152c-.221.087-.449.158-.675.235l-.412.145.25.462c.272-.093.536-.184.8-.272.131-.044.232,0,.267.1s-.014.2-.15.253c-.075.028-.151.055-.259.094h1.6c-.018-.109-.034-.21-.051-.311-.1-.588-.2-1.176-.3-1.763a.692.692,0,0,0-.935-.584c-.391.125-.779.26-1.165.4a.683.683,0,0,0-.476.654A1.348,1.348,0,0,0,102.489,105.49Zm8.912.969a.614.614,0,0,0,.008-.068c0-.576,0-1.152,0-1.728a.409.409,0,0,0-.048-.175c-.132-.26-.27-.517-.4-.777a.136.136,0,0,0-.14-.09q-.87,0-1.74,0a.136.136,0,0,0-.14.09c-.132.26-.272.516-.4.777a.5.5,0,0,0-.05.211c0,.547,0,1.094,0,1.641v.117h.295v-.128q0-.524,0-1.049c0-.258.089-.346.351-.346h1.641c.254,0,.347.094.347.351q0,.518,0,1.037v.137Zm-4.694,0h1.4v-1.584h-1.4Zm4.03,0v-1.145h-1.581v1.145Zm-4.226-4.991h.856v-1.54h-.856Zm2.157,1.776h2.551v-.259h-2.551Zm-.253.29.059.268.093-.187Z" fill="#001968"/>
    <path id="Path_68828" data-name="Path 68828" d="M139.491,140c-.041.2-.087.427-.135.656q-.158.753-.317,1.5c0,.02-.01.04-.015.06-.035.133-.119.2-.225.172a.188.188,0,0,1-.134-.25c.1-.462.193-.923.29-1.385.055-.261.109-.522.164-.783.032-.149.118-.218.237-.188C139.448,139.814,139.491,139.877,139.491,140Z" transform="translate(-29.177 -31.353)" fill="#001968"/>
    <path id="Path_68829" data-name="Path 68829" d="M123.434,142.168c.008.141-.057.233-.17.241s-.187-.072-.2-.217q-.075-1.063-.149-2.128a.618.618,0,0,1,0-.111.163.163,0,0,1,.16-.158.16.16,0,0,1,.19.136c.021.134.029.269.038.4Q123.371,141.252,123.434,142.168Z" transform="translate(-16.909 -31.361)" fill="#001968"/>
    <path id="Path_68830" data-name="Path 68830" d="M115.632,146.231c0,.121-.052.191-.154.213a.18.18,0,0,1-.213-.157c-.061-.272-.116-.545-.174-.818-.023-.108-.051-.216-.067-.325a.171.171,0,0,1,.132-.207.16.16,0,0,1,.216.111C115.465,145.447,115.549,145.848,115.632,146.231Z" transform="translate(-10.757 -35.362)" fill="#001968"/>
    <path id="Path_68831" data-name="Path 68831" d="M132.812,140.065c-.022.3-.042.586-.066.873-.011.139-.086.213-.2.206s-.182-.1-.172-.24q.03-.424.062-.849c.011-.144.086-.226.2-.218S132.817,139.933,132.812,140.065Z" transform="translate(-24.284 -31.393)" fill="#001968"/>
    <path id="Path_68832" data-name="Path 68832" d="M132.368,148.4c-.009.09-.012.181-.027.269a.179.179,0,0,1-.356-.032c0-.16.013-.32.033-.479a.166.166,0,0,1,.182-.15.169.169,0,0,1,.175.159,1.952,1.952,0,0,1,0,.233Z" transform="translate(-23.977 -37.762)" fill="#001968"/>
    <path id="Path_68833" data-name="Path 68833" d="M114.214,139.944c.028.028.1.069.127.13a.963.963,0,0,1,.067.286.17.17,0,0,1-.144.2.162.162,0,0,1-.2-.115,1.524,1.524,0,0,1-.062-.312C113.988,140.028,114.07,139.949,114.214,139.944Z" transform="translate(-9.959 -31.478)" fill="#001968"/>
  </g>
</svg>
