<svg xmlns="http://www.w3.org/2000/svg" width="7.62" height="7.62" viewBox="0 0 7.62 7.62">
  <g id="Group_59835" data-name="Group 59835" transform="translate(76.262 76.295)">
    <path id="Path_68826" data-name="Path 68826" d="M-71.886-68.675a.394.394,0,0,1-.26-.345c-.183-1.032-.373-2.062-.559-3.093a.122.122,0,0,0-.115-.12q-1.573-.28-3.144-.568a.326.326,0,0,1-.3-.288.327.327,0,0,1,.232-.341l6.894-2.821c.236-.1.362-.042.492.208v.119c-.017.043-.032.087-.05.13q-1.4,3.426-2.8,6.852a.4.4,0,0,1-.273.267Z" fill="#fff"/>
  </g>
</svg>
