<svg xmlns="http://www.w3.org/2000/svg" width="6.271" height="10.627" viewBox="0 0 6.271 10.627">
  <path id="Icon_ionic-ios-phone-portrait" data-name="Icon ionic-ios-phone-portrait" d="M15.494,2.25H11.052a.861.861,0,0,0-.927.78v9.038a.881.881,0,0,0,.927.809h4.439a.859.859,0,0,0,.9-.809V3.03A.835.835,0,0,0,15.494,2.25ZM12.842,2.8h.84a.1.1,0,1,1,0,.19h-.84a.1.1,0,1,1,0-.19Zm.434,9.726a.418.418,0,1,1,.487-.413A.455.455,0,0,1,13.276,12.521Zm2.619-1.162H10.629a.052.052,0,0,1-.056-.047v-7.8a.052.052,0,0,1,.056-.047h5.265a.052.052,0,0,1,.056.047v7.8A.052.052,0,0,1,15.894,11.359Z" transform="translate(-10.125 -2.25)" fill="#001968"/>
</svg>
