<svg xmlns="http://www.w3.org/2000/svg" width="9.726" height="9.711" viewBox="0 0 9.726 9.711">
  <g id="Group_61132" data-name="Group 61132" transform="translate(-216 -93.905)">
    <path id="Path_69475" data-name="Path 69475" d="M268.061,278.388a1.007,1.007,0,0,1-.509-.233.868.868,0,0,1-.268-.92.852.852,0,0,1,.745-.651.876.876,0,0,1,.954.529.093.093,0,0,0,.1.063q2.721,0,5.441,0a.6.6,0,0,0,.606-.475.59.59,0,0,0-.334-.674.8.8,0,0,0-.312-.061c-.981,0-1.962,0-2.944,0a1.213,1.213,0,0,1-.1-2.424c.218-.009.437,0,.655,0a.092.092,0,0,0,.1-.063.906.906,0,1,1,.957,1.261.887.887,0,0,1-.955-.528.092.092,0,0,0-.1-.065c-.19,0-.38,0-.57,0a.607.607,0,1,0,0,1.212c.981,0,1.963.01,2.944,0a1.229,1.229,0,0,1,1.271,1.042c0,.008.01.015.015.023v.3c-.021.078-.038.158-.065.234a1.221,1.221,0,0,1-1.212.827q-2.687,0-5.374,0a.129.129,0,0,0-.13.077,1.7,1.7,0,0,1-.231.308.923.923,0,0,1-.473.223Z" transform="translate(-50.028 -174.773)" fill="#001968"/>
    <path id="Path_69476" data-name="Path 69476" d="M216,172.556a6,6,0,0,1,.155-.593,2.125,2.125,0,0,1,4.052.338,1.833,1.833,0,0,1-.13,1.174,6.17,6.17,0,0,1-.734,1.257c-.307.409-.631.806-.952,1.2a.31.31,0,0,1-.528,0,12.3,12.3,0,0,1-1.432-1.954,3.369,3.369,0,0,1-.4-.977l-.031-.146Zm3.038.2a.911.911,0,1,0-.927.9A.917.917,0,0,0,219.038,172.759Z" transform="translate(0 -74.894)" fill="#001968"/>
    <path id="Path_69477" data-name="Path 69477" d="M500.628,96.107a.376.376,0,0,1-.4.23c-.639-.007-1.279,0-1.918,0H498.2V96.9c0,.1,0,.208,0,.313a.305.305,0,1,1-.607,0c0-.322,0-.644,0-.967q0-.99,0-1.981a.314.314,0,0,1,.359-.36c.76,0,1.519,0,2.279,0a.377.377,0,0,1,.4.23Z" transform="translate(-274.903)" fill="#e55819"/>
  </g>
</svg>
