<svg xmlns="http://www.w3.org/2000/svg" width="100" height="100" viewBox="0 0 100 100">
  <g id="buy-sell-main" transform="translate(-47 -47)">
    <rect id="Rectangle_1" data-name="Rectangle 1" width="100" height="100" transform="translate(47 47)" fill="#fff" opacity="0"/>
    <g id="Group_62989" data-name="Group 62989" transform="translate(46.596 46.135)">
      <rect id="Rectangle_11975" data-name="Rectangle 11975" width="53.631" height="41.915" rx="7.574" transform="translate(27.405 5.471)" fill="#8bc852" style="mix-blend-mode: normal;isolation: isolate"/>
      <path id="Path_71326" data-name="Path 71326" d="M39.569,10.149H71.253s-.825,5.775,6.271,6.6l-.165,18.813s-6.436.825-5.941,6.765H39.239s1.484-5.775-5.941-6.435V16.255S40.064,17.245,39.569,10.149Z" transform="translate(-0.943 -0.222)" fill="#69af81" style="mix-blend-mode: normal;isolation: isolate"/>
      <circle id="Ellipse_3405" data-name="Ellipse 3405" cx="10.809" cy="10.809" r="10.809" transform="translate(43.247 15.372)" fill="#8bc852" style="mix-blend-mode: normal;isolation: isolate"/>
      <rect id="Rectangle_11976" data-name="Rectangle 11976" width="6.766" height="2.97" rx="1.485" transform="translate(67.834 24.778)" fill="#8bc852"/>
      <path id="Path_71327" data-name="Path 71327" d="M2.528,11.577H5.87L23.321,3.409s6.311-2.352,8.787,2.722c0,0-3.837,1.361-4.456,6.931l.123,5.446,17.451.371s4.084.619,3.837,5.446a6.069,6.069,0,0,1-4.456,5.322H31.241s-4.827,5.446-11.51,5.57c0,0-6.188.743-11.634-6.684H2.4Z" transform="translate(0 0)" fill="#ffcbbe" style="mix-blend-mode: normal;isolation: isolate"/>
      <path id="Path_71328" data-name="Path 71328" d="M2.656,25.935l5.322-.123s4.7,5.446,11.015,5.446A14.379,14.379,0,0,0,30.75,27.3l13.367-.124a4.45,4.45,0,0,0,4.579-3.96s2.6,7.425-6.807,7.549l-11.263.124s-4.456,5.94-11.882,5.322c0,0-6.188.124-10.643-6.56H2.532S2.656,25.564,2.656,25.935Z" transform="translate(-0.004 -0.621)" fill="#eaac9d" style="mix-blend-mode: normal;isolation: isolate"/>
      <path id="Path_71329" data-name="Path 71329" d="M21.553,19.269H28.36V15.927A5.314,5.314,0,0,0,21.553,19.269Z" transform="translate(-0.584 -0.39)" fill="#eaac9d"/>
      <path id="Path_71330" data-name="Path 71330" d="M30.726,46.8s-.62,21.288-.62,21.659c0,0,1.981,12.377,18.689,11.387,0,0,22.772-1.609,25.5-4.209,0,0,3.342-5.693.99-27.724,0,0,.247-5.569-6.807-5.569,0,0-21.411-1.238-34.159.494C34.315,42.843,31.963,42.472,30.726,46.8Z" transform="translate(-0.845 -1.192)" fill="#f4dd45" style="mix-blend-mode: normal;isolation: isolate"/>
      <path id="Path_71331" data-name="Path 71331" d="M30.1,65.641s10.273,12.252,38.739,7.178L70.7,71.581s2.351-24.01-1.485-28.836c0,0,6.56-.743,6.435,6.311,0,0,2.723,24.382-3.094,25.372L69.212,76.9l-10.4,3.713H46.934l-12.624-4.58L29.979,71.7Z" transform="translate(-0.841 -1.216)" fill="#ecbe6b" style="mix-blend-mode: normal;isolation: isolate"/>
      <path id="Path_71332" data-name="Path 71332" d="M46.957,42.23V57.577L53.641,53l6.931,4.456L60.2,42.106S50.423,42.354,46.957,42.23Z" transform="translate(-1.359 -1.197)" fill="#595959" style="mix-blend-mode: normal;isolation: isolate"/>
      <path id="Path_71333" data-name="Path 71333" d="M29.379,66.789,46.953,78.3l18.318-2.97-9.282-5.694s-5.2-5.446.99-9.035c0,0,2.351-1.609,6.188.867L79.38,69.017s3.466,3.836,1.857,5.57l8.045,1.732L82.969,91.666,74.305,88.2,49.8,91.542s-3.961.371-6.684-1.609l-17.7-13.985s-4.951-3.713-1.981-7.921A5.28,5.28,0,0,1,29.379,66.789Z" transform="translate(-0.613 -1.746)" fill="#ffcbbe" style="mix-blend-mode: normal;isolation: isolate"/>
      <path id="Path_71334" data-name="Path 71334" d="M54.568,62.825s1.114-1.981,5.817.247l9.158,4.951s5.941,4.083.743,9.282c0,0-7.8,11.015-19.431,10.149,0,0-4.951.247-10.4-4.456,0,0-11.757-9.9-15.841-8.292L41.2,88.2s2.847,4.95,11.511,2.723l21.535-2.352,5.94,1.857,4.951-14.48L81.672,74.83s.743-4.827-3.836-6.188L61.994,60.721S58.157,58,54.568,62.825Z" transform="translate(-0.678 -1.742)" fill="#eaac9d" style="mix-blend-mode: normal;isolation: isolate"/>
      <ellipse id="Ellipse_3406" data-name="Ellipse 3406" cx="14.335" cy="6.794" rx="14.335" ry="6.794" transform="translate(74.644 93.14) rotate(-68.177)" fill="#3b66c1" style="mix-blend-mode: normal;isolation: isolate"/>
      <path id="Path_71335" data-name="Path 71335" d="M82.771,88.064s4.934,3.252,8.184,2.69l-1.57,4.372a14.114,14.114,0,0,1-7.96-2.69Z" transform="translate(-2.411 -2.6)" fill="#454545" style="mix-blend-mode: normal;isolation: isolate"/>
    </g>
  </g>
</svg>
