<svg xmlns="http://www.w3.org/2000/svg" xmlns:xlink="http://www.w3.org/1999/xlink" width="100" height="100" viewBox="0 0 100 100">
  <defs>
    <linearGradient id="linear-gradient" x1="2.677" y1="3.145" x2="1.659" y2="4.012" gradientUnits="objectBoundingBox">
      <stop offset="0" stop-color="#fcdd62"/>
      <stop offset="1" stop-color="#f4870f"/>
    </linearGradient>
    <linearGradient id="linear-gradient-2" x1="0.348" y1="3.467" x2="1.555" y2="3.467" gradientUnits="objectBoundingBox">
      <stop offset="0" stop-color="#fcdd62"/>
      <stop offset="1" stop-color="#f79e35"/>
    </linearGradient>
    <linearGradient id="linear-gradient-3" x1="2.374" y1="-4.023" x2="1.172" y2="-3.362" gradientUnits="objectBoundingBox">
      <stop offset="0" stop-color="#77c029"/>
      <stop offset="0.175" stop-color="#6eb72a"/>
      <stop offset="0.453" stop-color="#58a02e"/>
      <stop offset="0.797" stop-color="#357b34"/>
      <stop offset="1" stop-color="#1d6239"/>
    </linearGradient>
    <linearGradient id="linear-gradient-4" x1="-0.42" y1="-2.581" x2="0.973" y2="-2.581" gradientUnits="objectBoundingBox">
      <stop offset="0" stop-color="#86c228"/>
      <stop offset="1" stop-color="#13a037"/>
    </linearGradient>
    <linearGradient id="linear-gradient-5" x1="0.054" y1="0.541" x2="1.119" y2="0.422" gradientUnits="objectBoundingBox">
      <stop offset="0" stop-color="#fc92b9"/>
      <stop offset="1" stop-color="#ea3b77"/>
    </linearGradient>
    <linearGradient id="linear-gradient-6" x1="-5.299" y1="0.541" x2="-4.234" y2="0.422" xlink:href="#linear-gradient-5"/>
    <linearGradient id="linear-gradient-7" y1="0.5" x2="1" y2="0.5" gradientUnits="objectBoundingBox">
      <stop offset="0" stop-color="#f1b0a2"/>
      <stop offset="1" stop-color="#aa4939"/>
    </linearGradient>
    <linearGradient id="linear-gradient-8" x1="0.51" y1="0.881" x2="0.497" y2="0.019" gradientUnits="objectBoundingBox">
      <stop offset="0" stop-color="#fe6c9d"/>
      <stop offset="1" stop-color="#fdb4ba"/>
    </linearGradient>
    <linearGradient id="linear-gradient-9" x1="-0.011" y1="0.485" x2="1.016" y2="0.485" xlink:href="#linear-gradient-7"/>
    <linearGradient id="linear-gradient-10" y1="0.5" x2="1" y2="0.5" gradientUnits="objectBoundingBox">
      <stop offset="0" stop-color="#c8effe"/>
      <stop offset="1" stop-color="#62dbfb"/>
    </linearGradient>
    <linearGradient id="linear-gradient-11" x1="-0.267" y1="0.549" x2="1.111" y2="0.549" xlink:href="#linear-gradient-10"/>
    <linearGradient id="linear-gradient-12" x1="-1.487" y1="-2.844" x2="-0.486" y2="-2.844" xlink:href="#linear-gradient-10"/>
    <linearGradient id="linear-gradient-13" x1="-1.45" y1="-2.971" x2="-0.449" y2="-2.971" gradientUnits="objectBoundingBox">
      <stop offset="0" stop-color="#fd4755"/>
      <stop offset="1" stop-color="#c5353a"/>
    </linearGradient>
    <linearGradient id="linear-gradient-14" x1="-1.352" y1="-2.912" x2="-0.351" y2="-2.912" xlink:href="#linear-gradient-2"/>
    <linearGradient id="linear-gradient-15" x1="1.171" y1="-0.105" x2="0.317" y2="0.691" xlink:href="#linear-gradient"/>
    <linearGradient id="linear-gradient-16" x1="0" y1="0.5" x2="1" y2="0.5" xlink:href="#linear-gradient-2"/>
    <linearGradient id="linear-gradient-17" x1="0.487" y1="-0.026" x2="0.502" y2="0.625" gradientUnits="objectBoundingBox">
      <stop offset="0" stop-color="#c8effe"/>
      <stop offset="0.116" stop-color="#bfecfb"/>
      <stop offset="0.301" stop-color="#a8e3f6"/>
      <stop offset="0.531" stop-color="#82d6ed"/>
      <stop offset="0.794" stop-color="#4fc4e0"/>
      <stop offset="1" stop-color="#22b4d6"/>
    </linearGradient>
    <linearGradient id="linear-gradient-18" x1="3.542" y1="-0.651" x2="3.555" y2="0.009" xlink:href="#linear-gradient-17"/>
    <linearGradient id="linear-gradient-20" x1="0.604" y1="0.013" x2="0.612" y2="1.138" xlink:href="#linear-gradient-3"/>
    <linearGradient id="linear-gradient-21" x1="-7.725" y1="-2.938" x2="-7.717" y2="-1.766" xlink:href="#linear-gradient-3"/>
    <linearGradient id="linear-gradient-22" x1="0.118" y1="1.214" x2="0.604" y2="1.214" xlink:href="#linear-gradient-4"/>
  </defs>
  <g id="event-explore" transform="translate(-47 -47)">
    <rect id="Rectangle_1" data-name="Rectangle 1" width="100" height="100" transform="translate(47 47)" fill="#fff" opacity="0"/>
    <g id="Group_62988" data-name="Group 62988" transform="translate(49.08 48.379)">
      <g id="Group_62982" data-name="Group 62982" transform="translate(39.575 44.231)">
        <path id="Path_71297" data-name="Path 71297" d="M50.772,53.091s-3.256,1.13-3.092,5.986l-5.877.145-.013-3.831S42.8,51.749,50.772,53.091Z" transform="translate(-41.79 -47.034)" fill="url(#linear-gradient)"/>
        <path id="Path_71298" data-name="Path 71298" d="M53.666,52.966l-7.745-.06s-3.4-.234-4.051,2.733c0,0-.136-6.387,7.741-8.793l5.025-.161Z" transform="translate(-41.795 -46.685)" fill="url(#linear-gradient-2)"/>
      </g>
      <g id="Group_62983" data-name="Group 62983" transform="translate(53.986 72.839)">
        <path id="Path_71299" data-name="Path 71299" d="M64.686,85.465S63,82.458,58.25,83.473l-1.176-5.76,3.769-.686S64.6,77.377,64.686,85.465Z" transform="translate(-57.074 -77.027)" fill="url(#linear-gradient-3)"/>
        <path id="Path_71300" data-name="Path 71300" d="M65.167,88.355l-1.3-7.635s-.368-3.389-3.4-3.508c0,0,6.263-1.256,10.017,6.075L71.52,88.2Z" transform="translate(-57.268 -77.033)" fill="url(#linear-gradient-4)"/>
      </g>
      <path id="Path_71301" data-name="Path 71301" d="M7.894,35.939s14.563-3.37,21.063-2.648L29.8,52.43s.842,6.259-5.3,7.463L10.662,61.938Z" transform="translate(-0.277 -1.682)" fill="url(#linear-gradient-5)"/>
      <path id="Path_71302" data-name="Path 71302" d="M92.137,35.939s-14.564-3.37-21.063-2.648L70.231,52.43s-.843,6.259,5.3,7.463l13.842,2.046Z" transform="translate(-3.838 -1.682)" fill="url(#linear-gradient-6)"/>
      <path id="Path_71303" data-name="Path 71303" d="M23.34,52.571S29.719,58.348,26.109,61a5.941,5.941,0,0,0,4.453-5.536l-.24-5.056Z" transform="translate(-1.16 -2.666)" fill="#d80c57" style="mix-blend-mode: normal;isolation: isolate"/>
      <path id="Path_71304" data-name="Path 71304" d="M77.668,52.316s-6.379,5.777-2.768,8.425A5.942,5.942,0,0,1,70.447,55.2l.24-5.056Z" transform="translate(-3.852 -2.651)" fill="#d80c57" style="mix-blend-mode: normal;isolation: isolate"/>
      <path id="Path_71305" data-name="Path 71305" d="M8.339,35.457l4.935,55.367s.361,3.25-2.287,3.732a3.18,3.18,0,0,1-3.25-3.01L3.043,36.18a3.073,3.073,0,0,1,2.768-3.01A3.093,3.093,0,0,1,8.339,35.457Z" transform="translate(0 -1.681)" fill="url(#linear-gradient-7)"/>
      <path id="Path_71306" data-name="Path 71306" d="M17.851,29.088l2.768,18.656s.6,4.333,4.093,3.01c0,0,24.554-4.935,45.858-.361l2.768.722s2.648.722,3.49-2.889l2.648-18.777s1.083-4.092-4.935-4.333-23.11-5.055-50.794,0l-3.37.482A3.478,3.478,0,0,0,17.851,29.088Z" transform="translate(-0.846 -1.089)" fill="url(#linear-gradient-8)"/>
      <path id="Path_71307" data-name="Path 71307" d="M97.853,36.143,93.466,91.556s-.188,3.264-2.879,3.3a3.179,3.179,0,0,1-2.7-3.51L92.511,35.97a2.673,2.673,0,0,1,5.342.173Z" transform="translate(-4.849 -1.698)" fill="url(#linear-gradient-9)"/>
      <path id="Path_71308" data-name="Path 71308" d="M55.128,65.176a6.741,6.741,0,0,0,4.693-4.814s2.287,4.332,4.574,4.574c0,0-4.092,2.889-4.332,4.453C60.063,69.389,57.776,65.417,55.128,65.176Z" transform="translate(-2.977 -3.235)" fill="url(#linear-gradient-10)"/>
      <path id="Path_71309" data-name="Path 71309" d="M33.865,85.641a6.744,6.744,0,0,0,6.722.157s-1.614,4.626-.233,6.464c0,0-4.9-1.028-6.211-.139C34.143,92.123,35.492,87.744,33.865,85.641Z" transform="translate(-1.762 -4.68)" fill="url(#linear-gradient-11)"/>
      <path id="Path_71310" data-name="Path 71310" d="M76.837,89.265a6.743,6.743,0,0,0,4.6-4.9s2.369,4.289,4.66,4.486c0,0-4.036,2.966-4.248,4.535C81.851,93.382,79.489,89.455,76.837,89.265Z" transform="translate(-4.218 -4.607)" fill="url(#linear-gradient-12)"/>
      <path id="Path_71311" data-name="Path 71311" d="M12.879,71a6.742,6.742,0,0,0,4.609-4.9S19.85,70.4,22.141,70.6c0,0-4.041,2.96-4.254,4.528C17.886,75.128,15.53,71.2,12.879,71Z" transform="translate(-0.562 -3.563)" fill="url(#linear-gradient-13)"/>
      <path id="Path_71312" data-name="Path 71312" d="M44.921,15.6a6.742,6.742,0,0,0,4.61-4.9s2.362,4.292,4.653,4.493c0,0-4.041,2.961-4.254,4.528C49.929,19.723,47.573,15.792,44.921,15.6Z" transform="translate(-2.393 -0.397)" fill="url(#linear-gradient-14)"/>
      <g id="Group_62984" data-name="Group 62984" transform="translate(21.578 69.765)">
        <path id="Path_71313" data-name="Path 71313" d="M30.106,75.933s3.13,1.444,6.379-2.167l4.333,3.972-2.648,2.768S34.921,82.432,30.106,75.933Z" transform="translate(-23.125 -73.766)" fill="url(#linear-gradient-15)"/>
        <path id="Path_71314" data-name="Path 71314" d="M27.758,73.766l5.536,5.417s2.287,2.527,4.815.842c0,0-4.333,4.694-11.675.964L22.7,77.618Z" transform="translate(-22.702 -73.766)" fill="url(#linear-gradient-16)"/>
      </g>
      <g id="Group_62985" data-name="Group 62985" transform="translate(5.806 3.756)">
        <path id="Path_71315" data-name="Path 71315" d="M6.158,4.7a21.927,21.927,0,0,0,6,8.289s-1.1-1.269-1.1-4.906l.085-3.552s-.17-.592-1.269-.762H7.257S6.074,3.6,6.158,4.7Z" transform="translate(-5.984 -3.756)" fill="url(#linear-gradient-17)"/>
        <path id="Path_71316" data-name="Path 71316" d="M17.07,25.722a21.933,21.933,0,0,0-6.389-8s1.158,1.215,1.329,4.848l.083,3.552s.2.584,1.3.7l2.618-.124S17.205,26.816,17.07,25.722Z" transform="translate(-6.243 -4.555)" fill="url(#linear-gradient-18)"/>
        <path id="Path_71317" data-name="Path 71317" d="M12.745,12.8c4.482,3.044,3.721,12.348,3.721,12.348s1.015-1.607-6.259-7.865c0,0-4.4-4.145-4.229-9.134l.085-3.129a44.658,44.658,0,0,0,5.158,6.343" transform="translate(-5.974 -3.828)" fill="url(#linear-gradient-10)"/>
      </g>
      <g id="Group_62986" data-name="Group 62986" transform="translate(62.402 6.046)">
        <path id="Path_71318" data-name="Path 71318" d="M66.471,11.192a29.135,29.135,0,0,0,13.466,1.914s-2.227-.121-5.7-3.478L70.918,6.267s-.722-.385-1.9.51L66.6,9.282S65.343,10.258,66.471,11.192Z" transform="translate(-66.001 -6.185)" fill="url(#linear-gradient-20)"/>
        <path id="Path_71319" data-name="Path 71319" d="M96.615,20.41a29.137,29.137,0,0,0-13.541-1.278s2.231.016,5.861,3.207l3.472,3.2s.739.351,1.872-.6l2.3-2.616S97.787,21.29,96.615,20.41Z" transform="translate(-66.976 -6.905)" fill="url(#linear-gradient-21)"/>
        <path id="Path_71320" data-name="Path 71320" d="M80.961,12.715C88.01,11.242,96.2,20.56,96.2,20.56s-.6-2.454-13.3-1.281c0,0-8.021.376-12.634-4.393l-2.912-2.971a59.321,59.321,0,0,0,10.826.927" transform="translate(-66.078 -6.512)" fill="url(#linear-gradient-22)"/>
      </g>
      <g id="Group_62987" data-name="Group 62987" transform="translate(22.683 28.061)" style="mix-blend-mode: normal;isolation: isolate">
        <path id="Path_71321" data-name="Path 71321" d="M31.273,32.021H26.149v3.5h4.718a.977.977,0,0,1,.778.3,1.158,1.158,0,0,1,.256.784,1.208,1.208,0,0,1-.253.793.955.955,0,0,1-.782.307H26.149v4.058h5.3a1.011,1.011,0,0,1,.809.316,1.25,1.25,0,0,1,.272.842,1.216,1.216,0,0,1-.272.822,1.008,1.008,0,0,1-.809.317H25.268a1.271,1.271,0,0,1-1.068-.419,2.221,2.221,0,0,1-.325-1.353V31.563a2.981,2.981,0,0,1,.145-1.016,1.055,1.055,0,0,1,.455-.574,1.557,1.557,0,0,1,.793-.18h6.006a1.009,1.009,0,0,1,.808.306,1.184,1.184,0,0,1,.264.8,1.2,1.2,0,0,1-.264.814A1.013,1.013,0,0,1,31.273,32.021Z" transform="translate(-23.874 -29.549)" fill="#eaf9fa"/>
        <path id="Path_71322" data-name="Path 71322" d="M36.587,31.431,39.13,41l2.551-9.635q.2-.758.3-1.056a1.42,1.42,0,0,1,.329-.535.83.83,0,0,1,.628-.239.886.886,0,0,1,.54.185,1.251,1.251,0,0,1,.39.491,1.467,1.467,0,0,1,.141.619,2.591,2.591,0,0,1-.045.462c-.031.165-.07.328-.115.487s-.092.322-.138.491l-2.719,9.324q-.146.535-.291,1.016a4.754,4.754,0,0,1-.338.847,1.71,1.71,0,0,1-.509.6,1.277,1.277,0,0,1-.777.234,1.292,1.292,0,0,1-.778-.229,1.694,1.694,0,0,1-.514-.6,5.068,5.068,0,0,1-.34-.851q-.146-.477-.291-1.012l-2.673-9.246c-.046-.169-.093-.334-.141-.5a4.486,4.486,0,0,1-.123-.525,2.848,2.848,0,0,1-.05-.477,1.451,1.451,0,0,1,.314-.905.957.957,0,0,1,.789-.408.855.855,0,0,1,.823.453A6.864,6.864,0,0,1,36.587,31.431Z" transform="translate(-24.462 -29.534)" fill="#eaf9fa"/>
        <path id="Path_71323" data-name="Path 71323" d="M53.817,32.021H48.693v3.5h4.718a.975.975,0,0,1,.777.3,1.154,1.154,0,0,1,.256.784,1.2,1.2,0,0,1-.253.793.953.953,0,0,1-.781.307H48.693v4.058h5.3a1.013,1.013,0,0,1,.809.316,1.255,1.255,0,0,1,.272.842,1.221,1.221,0,0,1-.272.822,1.011,1.011,0,0,1-.809.317H47.812a1.272,1.272,0,0,1-1.068-.419,2.221,2.221,0,0,1-.325-1.353V31.563a2.981,2.981,0,0,1,.145-1.016,1.053,1.053,0,0,1,.456-.574,1.553,1.553,0,0,1,.792-.18h6a1.007,1.007,0,0,1,.808.306,1.18,1.18,0,0,1,.265.8,1.2,1.2,0,0,1-.265.814A1.01,1.01,0,0,1,53.817,32.021Z" transform="translate(-25.162 -29.549)" fill="#eaf9fa"/>
        <path id="Path_71324" data-name="Path 71324" d="M60.481,31.266l4.374,8.408V31.189a2.228,2.228,0,0,1,.279-1.241.868.868,0,0,1,.755-.414.889.889,0,0,1,.773.414,2.209,2.209,0,0,1,.284,1.241V42.41q0,1.878-1.226,1.878a1.313,1.313,0,0,1-.552-.112,1.382,1.382,0,0,1-.459-.355,3.284,3.284,0,0,1-.4-.569c-.123-.218-.245-.439-.368-.668l-4.266-8.31v8.359a2.123,2.123,0,0,1-.3,1.236.915.915,0,0,1-1.541,0,2.174,2.174,0,0,1-.29-1.231V31.626a3.927,3.927,0,0,1,.123-1.1,1.525,1.525,0,0,1,.483-.715,1.126,1.126,0,0,1,.728-.277,1.036,1.036,0,0,1,.525.126,1.32,1.32,0,0,1,.383.34,3.616,3.616,0,0,1,.337.555Z" transform="translate(-25.799 -29.534)" fill="#eaf9fa"/>
        <path id="Path_71325" data-name="Path 71325" d="M77.383,32.176H74.9V42.54a2.273,2.273,0,0,1-.314,1.329.962.962,0,0,1-.812.433.975.975,0,0,1-.824-.438,2.258,2.258,0,0,1-.317-1.324V32.176H70.152a1.084,1.084,0,0,1-.866-.326A1.262,1.262,0,0,1,69,30.989a1.244,1.244,0,0,1,.294-.877,1.1,1.1,0,0,1,.855-.321h7.231a1.1,1.1,0,0,1,.876.331,1.275,1.275,0,0,1,.288.866,1.243,1.243,0,0,1-.291.861A1.108,1.108,0,0,1,77.383,32.176Z" transform="translate(-26.453 -29.549)" fill="#eaf9fa"/>
      </g>
    </g>
  </g>
</svg>
