<svg xmlns="http://www.w3.org/2000/svg" width="100" height="100" viewBox="0 0 100 100">
  <g id="connection-group-icon" transform="translate(6137 3259)">
    <g id="Rectangle_12142" data-name="Rectangle 12142" transform="translate(-6137 -3259)" fill="#fff" stroke="#707070" stroke-width="1" opacity="0">
      <rect width="100" height="100" stroke="none"/>
      <rect x="0.5" y="0.5" width="99" height="99" fill="none"/>
    </g>
    <g id="Group_62913" data-name="Group 62913" transform="translate(-6581.404 -4302.722)">
      <path id="Path_70589" data-name="Path 70589" d="M468.217,1183.669c-5.216-5.758-4-13.076.286-17.058a11.792,11.792,0,0,1,16.173.075c4.246,4.035,5.378,11.23.24,16.946.873.555,1.765,1.057,2.586,1.657a18.816,18.816,0,0,1,8.146,15.121,7,7,0,0,1-3.24,6.287,18.886,18.886,0,0,1-8.083,3.039,43.007,43.007,0,0,1-17.571-.46,22.169,22.169,0,0,1-4.145-1.481c-4.319-2.034-5.784-4.874-5.007-9.589a19.037,19.037,0,0,1,9.522-13.9Zm8.367,21.494a27.8,27.8,0,0,0,11.2-1.835c2.641-1.141,2.941-1.688,2.555-4.463a13.955,13.955,0,0,0-27.553-.187c-.5,2.931-.188,3.479,2.587,4.674A27.752,27.752,0,0,0,476.583,1205.162Zm6.523-29.88a6.557,6.557,0,1,0-6.543,6.582A6.611,6.611,0,0,0,483.106,1175.282Z" transform="translate(0 -78.864)"/>
      <path id="Path_70590" data-name="Path 70590" d="M608.307,1076.969c-5.335-5.905-3.881-13.246.284-17.068a11.754,11.754,0,0,1,16.078,0,11.893,11.893,0,0,1,.369,16.979c1.266.884,2.6,1.68,3.777,2.662a18.744,18.744,0,0,1,6.912,13.765,7.245,7.245,0,0,1-3.674,6.971,20.822,20.822,0,0,1-8.552,2.877,40.114,40.114,0,0,1-19.272-1.405,14.5,14.5,0,0,1-1.785-.771c-4.1-2.1-5.5-4.83-4.776-9.368a19.113,19.113,0,0,1,9.762-14.155C607.688,1077.307,607.95,1077.166,608.307,1076.969Zm8.331,21.58c1.43-.083,2.867-.1,4.288-.264a21.113,21.113,0,0,0,8.2-2.277,2.329,2.329,0,0,0,1.408-2.263,13.949,13.949,0,0,0-12.93-13.409c-7.392-.352-13.854,4.837-14.771,11.861-.356,2.726-.075,3.253,2.484,4.393C608.92,1098.2,612.784,1098.348,616.638,1098.549Zm-.021-36.565a6.55,6.55,0,1,0,6.567,6.464A6.459,6.459,0,0,0,616.617,1061.985Z" transform="translate(-103.521 0)"/>
      <path id="Path_70591" data-name="Path 70591" d="M479.79,1062.084c-4.085,0-8.169-.015-12.254,0-3.116.013-4.732,1.626-4.753,4.727-.021,3.173.005,6.346-.023,9.518-.018,1.99-1.059,3.112-2.751,3.06a2.311,2.311,0,0,1-2.4-2.254c-.045-4-.158-8,.056-11.99a9.127,9.127,0,0,1,8.556-8.207c8.993-.113,17.99-.056,26.984-.045a2.4,2.4,0,0,1,2.513,2.15,2.439,2.439,0,0,1-2,2.884,6.184,6.184,0,0,1-1.413.147Q486.048,1062.093,479.79,1062.084Z" transform="translate(-0.098 -0.111)"/>
      <path id="Path_70592" data-name="Path 70592" d="M636.778,1279.518c-3.218,0-6.436.01-9.654,0-1.837-.006-3-.978-3.045-2.5-.046-1.543,1.188-2.681,3.052-2.688,5.957-.024,11.915-.006,17.872-.012,3.629,0,5.157-1.516,5.169-5.116.011-3.045-.01-6.091.027-9.134.024-1.963,1-3.057,2.614-3.061a2.322,2.322,0,0,1,2.522,2.27c.046,4.045.18,8.1-.087,12.129-.286,4.3-4.363,7.95-8.686,8.073-3.258.094-6.522.02-9.783.02Z" transform="translate(-123.172 -148.008)"/>
    </g>
  </g>
</svg>
