<svg xmlns="http://www.w3.org/2000/svg" width="100" height="100" viewBox="0 0 100 100">
  <g id="visible-everyone" transform="translate(6137 3259)">
    <g id="Rectangle_12142" data-name="Rectangle 12142" transform="translate(-6137 -3259)" fill="#fff" stroke="#707070" stroke-width="1" opacity="0">
      <rect width="100" height="100" stroke="none"/>
      <rect x="0.5" y="0.5" width="99" height="99" fill="none"/>
    </g>
    <g id="Group_62923" data-name="Group 62923" transform="translate(-6544.48 -4325.599)">
      <path id="Path_70587" data-name="Path 70587" d="M482.266,1139.615c4.746,7.329,4.211,15.572,4.03,23.854H428.678c-.165-8.245-.738-16.487,4.048-23.881-10.109-8.664-15.123-19.553-14.453-32.787.539-10.638,4.976-19.567,12.751-26.846,15.13-14.167,39.4-13.5,54.29,1.282C500.595,1096.406,501.5,1123.87,482.266,1139.615ZM444.5,1131.96a26.229,26.229,0,0,0-10.943,12.532c-1.967,4.611-1.943,9.463-1.945,14.339,0,1.375.4,1.716,1.743,1.71,11.271-.052,22.542-.03,33.814-.03,4.922,0,9.844-.032,14.766.024,1.119.012,1.464-.342,1.41-1.432-.08-1.62-.016-3.248-.027-4.872a25.264,25.264,0,0,0-5.389-15.722,23.993,23.993,0,0,0-7.632-6.584l-12.905,20.654Zm2.235-19.841a17.732,17.732,0,0,0,5.669,12.834,6.793,6.793,0,0,0,8.909.8c4.769-3.168,8.839-12.482,5.528-19.374-3.231-6.726-11.085-8.568-16.271-3.674A12.132,12.132,0,0,0,446.737,1112.12Zm22.458,15.868a29.8,29.8,0,0,1,11.394,8.995,35.9,35.9,0,0,0,9-11.165,2.441,2.441,0,0,0-.437-.116c-7.479-.008-14.958-.03-22.436.018a2.666,2.666,0,0,0-1.592.808c-4.828,4.665-10.585,4.68-15.457.078a3.471,3.471,0,0,0-2.144-.883c-6.937-.065-13.875-.04-20.813-.036-.418,0-.836.049-1.286.077,1.351,3.381,5.071,8.006,8.987,11.189a29.306,29.306,0,0,1,11.207-8.914l7.052,11.3c.4-1.075.688-1.853.991-2.624.461-1.172.625-2.8,1.489-3.38.891-.6,2.472-.115,3.743-.21a1.322,1.322,0,0,1,1.567,1.091c.5,1.562,1.11,3.092,1.77,4.9Zm-29.055-35.755h15.744v-19.319C449.255,1073.675,442.528,1081.965,440.139,1092.233Zm18.893.026h15.9c-.341-1.083-.61-2.068-.959-3.024-1.693-4.649-3.883-9.018-7.5-12.5a12.875,12.875,0,0,0-7.448-3.874ZM436.017,1122.6l-1.326-12.04H421.259a33.453,33.453,0,0,0,2.3,11.272,1.6,1.6,0,0,0,1.208.731c1.718.083,3.442.036,5.164.036Zm42.968,0c3.248,0,6.532.02,9.816-.006,2.844-.023,2.247.457,3.2-2.339a31.112,31.112,0,0,0,1.693-9.7H480.276C479.848,1114.551,479.431,1118.443,478.985,1122.6Zm-44.31-15.232,1.337-12.041c-3.8,0-7.684-.013-11.566.028a1.147,1.147,0,0,0-.805.636,34.17,34.17,0,0,0-2.38,11.376Zm56.434-11.928H478.958c.456,4.037.9,7.971,1.345,11.893h13.433A34.726,34.726,0,0,0,491.109,1095.443Zm-44.948-20.78a35.857,35.857,0,0,0-20.888,17.615h11.69C438.815,1085.743,441.538,1079.723,446.162,1074.663Zm43.571,17.626c-4.815-8.7-11.642-14.58-20.906-17.6,4.639,5.056,7.338,11.1,9.207,17.6ZM475.95,1095.4H459.078v1.576c5.478,1.074,9,4.3,11.024,9.318.176.436.585,1.085.913,1.1,1.993.1,3.993.051,6.28.051C476.832,1103.3,476.4,1099.4,475.95,1095.4Zm-38.268,12h6.6c1.942-5.634,5.593-9.353,11.6-10.439v-1.56H439.029Zm30.45,15.243h4.408c3.1,0,3.235.021,3.715-3,.473-2.973.637-5.995.944-9.074h-6.162A22.26,22.26,0,0,1,468.133,1122.641Zm-21.534-.121a23.609,23.609,0,0,1-2.971-11.96H437.7c.463,4.07.909,7.99,1.361,11.96Zm10.795,24.369c.927-1.471,1.777-2.776,2.567-4.117a1.294,1.294,0,0,0,.034-.953c-.568-1.663-1.16-3.319-1.8-4.955-.115-.294-.491-.486-.747-.725-.236.272-.571.505-.692.821q-.947,2.459-1.787,4.959a1.521,1.521,0,0,0,.017,1.1C455.707,1144.282,456.514,1145.5,457.394,1146.889Z" transform="translate(0 0)"/>
    </g>
  </g>
</svg>
