<svg xmlns="http://www.w3.org/2000/svg" width="17.405" height="17.401" viewBox="0 0 17.405 17.401">
  <g id="Group_65303" data-name="Group 65303" transform="translate(-34.72 -49.947)">
    <path id="Path_74247" data-name="Path 74247" d="M43.423,67.341c-1.3,0-2.6.011-3.9,0a5.135,5.135,0,0,1-2.77-.773,4.315,4.315,0,0,1-1.941-3.117,7.991,7.991,0,0,1-.092-1.238c-.008-2.379,0-4.758-.005-7.137a6.023,6.023,0,0,1,.443-2.448A4.223,4.223,0,0,1,38.4,50.084a6.543,6.543,0,0,1,1.254-.129q3.794-.017,7.587,0a5.357,5.357,0,0,1,2.461.559,4.285,4.285,0,0,1,2.319,3.324,7.845,7.845,0,0,1,.093,1.258c.009,2.372,0,4.745.005,7.117a6.038,6.038,0,0,1-.439,2.449,4.271,4.271,0,0,1-3.456,2.592,8.311,8.311,0,0,1-1.278.093c-1.176.012-2.352,0-3.528,0Zm2.537-10.77c.747,0,1.5.006,2.242-.005a.907.907,0,0,0,.422-.111.622.622,0,0,0,.264-.711.662.662,0,0,0-.661-.476q-2.242,0-4.485,0a.654.654,0,1,0,.016,1.3Q44.859,56.572,45.96,56.571Zm.01,6.1c.618,0,1.237,0,1.855,0a3.843,3.843,0,0,0,.549-.017.641.641,0,0,0,.453-.953.65.65,0,0,0-.61-.334H43.733a.976.976,0,0,0-.1.007.642.642,0,0,0-.587.663.653.653,0,0,0,.7.634C44.489,62.67,45.23,62.667,45.97,62.667Zm-6.7-6.99c-.1-.1-.158-.153-.218-.207a.653.653,0,0,0-.933,0,.633.633,0,0,0,.018.927q.312.322.634.634a.626.626,0,0,0,.9.026q1.015-.988,2-2a.648.648,0,0,0-.927-.9c-.411.4-.812.8-1.213,1.209C39.438,55.453,39.36,55.565,39.268,55.677Zm-.048,6.09a2.133,2.133,0,0,0-.17-.206.658.658,0,0,0-.935,0,.632.632,0,0,0,.021.927c.2.21.411.416.62.62a.648.648,0,0,0,.946.012c.158-.149.308-.307.462-.46.49-.49.984-.976,1.469-1.472a.647.647,0,0,0-.252-1.1.658.658,0,0,0-.688.193C40.219,60.769,39.737,61.248,39.22,61.767Z" fill="#c80880"/>
  </g>
</svg>
