<svg xmlns="http://www.w3.org/2000/svg" width="16.109" height="14.32" viewBox="0 0 16.109 14.32">
  <path id="Map_view" data-name="Map view" d="M8.055,0A3.524,3.524,0,0,0,4.531,3.524c0,1.573,2.3,4.441,3.186,5.482a.441.441,0,0,0,.677,0c.882-1.041,3.186-3.909,3.186-5.482A3.524,3.524,0,0,0,8.055,0Zm0,4.7A1.175,1.175,0,1,1,9.229,3.524,1.175,1.175,0,0,1,8.055,4.7ZM.563,6.04A.9.9,0,0,0,0,6.871v7a.448.448,0,0,0,.614.416L4.475,12.53V6.011a8.47,8.47,0,0,1-.594-1.3Zm7.492,4.02a1.336,1.336,0,0,1-1.021-.474C6.484,8.936,5.9,8.2,5.37,7.439v5.09l5.37,1.79V7.439c-.529.758-1.114,1.5-1.664,2.146A1.337,1.337,0,0,1,8.055,10.059ZM15.5,4.507,11.635,6.265v8.055l3.912-1.565a.9.9,0,0,0,.563-.831v-7A.448.448,0,0,0,15.5,4.507Z" fill="#001968"/>
</svg>
