<svg xmlns="http://www.w3.org/2000/svg" width="19.521" height="13.665" viewBox="0 0 19.521 13.665">
  <path id="Grid_view" data-name="Grid view" d="M5.856,9.082A3.416,3.416,0,1,0,2.44,5.666,3.414,3.414,0,0,0,5.856,9.082Zm2.343.976H7.946a4.717,4.717,0,0,1-4.179,0H3.514A3.515,3.515,0,0,0,0,13.572v.878a1.464,1.464,0,0,0,1.464,1.464h8.785a1.464,1.464,0,0,0,1.464-1.464v-.878A3.515,3.515,0,0,0,8.2,10.058Zm6.442-.976a2.928,2.928,0,1,0-2.928-2.928A2.929,2.929,0,0,0,14.641,9.082Zm1.464.976h-.116a3.846,3.846,0,0,1-2.7,0h-.116a3.388,3.388,0,0,0-1.7.47,4.464,4.464,0,0,1,1.211,3.044v1.171c0,.067-.015.131-.018.2h5.387a1.464,1.464,0,0,0,1.464-1.464A3.414,3.414,0,0,0,16.1,10.058Z" transform="translate(0 -2.25)" fill="#001968"/>
</svg>
