<svg xmlns="http://www.w3.org/2000/svg" width="100" height="100" viewBox="0 0 100 100">
  <g id="attending" transform="translate(-47 -47)">
    <rect id="Rectangle_1" data-name="Rectangle 1" width="100" height="100" transform="translate(47 47)" fill="#fff" opacity="0"/>
    <g id="Group_62748" data-name="Group 62748" transform="translate(57.319 61.497)">
      <path id="Path_71246" data-name="Path 71246" d="M8.233-5.134c0-1.1-.045-2.057.01-3.009a2.728,2.728,0,0,1,2.707-2.8,2.77,2.77,0,0,1,2.7,2.838c.055.953.01,1.912.01,2.918h5.421c0-.946-.015-1.847,0-2.748a2.783,2.783,0,0,1,2.662-3.011,2.8,2.8,0,0,1,2.8,3.031c.024.863,0,1.727,0,2.687H54.824c0-.878-.026-1.775.005-2.671.065-1.856,1.206-3.083,2.8-3.046,1.606.037,2.63,1.249,2.648,3.143.008.818,0,1.635,0,2.561h5.477c0-1.013-.03-1.97.007-2.925A2.722,2.722,0,0,1,68.2-10.936,2.667,2.667,0,0,1,71.09-8.664a32.328,32.328,0,0,1,.245,3.53c1.5,0,3.033-.015,4.561,0a8.861,8.861,0,0,1,8.843,6.746,10.421,10.421,0,0,1,.245,2.725c.012,22.728-.051,45.457.053,68.185a9.259,9.259,0,0,1-9.5,9.429q-35.833-.111-71.666,0a9.358,9.358,0,0,1-9.547-9.54q.2-34.019,0-68.039A9.237,9.237,0,0,1,3.878-5.141C5.267-5.095,6.659-5.134,8.233-5.134ZM-.178,17.8v1.559q0,26.412,0,52.824c0,3.15,1.105,4.231,4.292,4.231,23.654,0,47.309-.042,70.963.046,3.472.013,4.563-1.865,4.554-4.527-.058-17.511-.03-35.022-.03-52.533V17.8ZM8.23.388C6.243.388,4.46.31,2.687.414A3,3,0,0,0-.07,3c-.116,3.024-.037,6.056-.037,9.147h79.6c0-3.068.093-6.056-.039-9.035A2.822,2.822,0,0,0,76.8.45,50.683,50.683,0,0,0,71.174.4a25.212,25.212,0,0,1-.027,3.328,2.633,2.633,0,0,1-2.893,2.441,2.711,2.711,0,0,1-2.5-2.84c-.03-.948-.006-1.9-.006-2.875H60.275c0,.95.008,1.811,0,2.671-.022,1.809-1.025,2.986-2.582,3.045a2.748,2.748,0,0,1-2.861-2.952c-.037-.9-.006-1.809-.006-2.781H24.543c0,1.024.036,1.979-.008,2.932a2.729,2.729,0,1,1-5.452-.1c-.024-.943,0-1.888,0-2.822H13.654c0,1.04.049,2-.011,2.952a2.7,2.7,0,1,1-5.4-.046C8.187,2.4,8.23,1.448,8.23.388Z" transform="translate(0 0)" fill="#001968"/>
      <path id="Path_71247" data-name="Path 71247" d="M97.457,113.98A21.76,21.76,0,1,1,75.6,135.638,21.8,21.8,0,0,1,97.457,113.98Zm16.155,21.7a16.257,16.257,0,1,0-16.229,16.327A16.116,16.116,0,0,0,113.612,135.678Z" transform="translate(-57.679 -88.665)" fill="#001968"/>
      <path id="Path_71248" data-name="Path 71248" d="M122.931,171.587c2.623-2.661,5.009-5.114,7.441-7.521a4.323,4.323,0,0,1,1.763-1.167,2.665,2.665,0,0,1,2.549,4.5c-3.236,3.256-6.47,6.514-9.743,9.731a2.61,2.61,0,0,1-3.886.032q-2.775-2.655-5.431-5.435a2.719,2.719,0,1,1,3.816-3.873C120.621,168.98,121.678,170.235,122.931,171.587Z" transform="translate(-85.451 -123.304)" fill="#001968"/>
    </g>
  </g>
</svg>
