<svg xmlns="http://www.w3.org/2000/svg" width="100" height="100" viewBox="0 0 100 100">
  <g id="event-topic" transform="translate(-47 -47)">
    <rect id="Rectangle_1" data-name="Rectangle 1" width="100" height="100" transform="translate(47 47)" fill="#fff" opacity="0"/>
    <g id="Group_62978" data-name="Group 62978" transform="translate(-5621.845 -1963.854)">
      <path id="Path_71285" data-name="Path 71285" d="M5689.8,2024.568c0-1.947.108-3.687-.021-5.406-.249-3.274,2.157-4.57,4.352-4.676,2.468-.119,4.936-.106,7.4-.009a3.874,3.874,0,0,1,3.938,4.125c.052,1.883.046,3.767.072,5.65,0,.042.041.081.119.214h26.549c0-1.838,0-3.616.006-5.391.015-3.106,1.511-4.606,4.631-4.631,2.033-.013,4.062-.02,6.095.005,3.358.039,4.952,1.644,4.957,4.959v5.149c2.546,0,4.988.007,7.436,0a7.861,7.861,0,0,1,6.142,2.748,7.688,7.688,0,0,1,2.08,5.253q-.007,32.786-.016,65.57a8.974,8.974,0,0,1-9.277,9.177q-35.4,0-70.794,0a8.993,8.993,0,0,1-9.319-9.283q-.031-32.714,0-65.428a8.066,8.066,0,0,1,7.875-8.018C5684.533,2024.524,5687.043,2024.568,5689.8,2024.568Zm-11.224,25.693c-.025.454-.057.74-.057,1.03q0,23.131,0,46.266c0,3.551,1.812,5.3,5.371,5.3h69.91c.336,0,.678.013,1.014-.006a3.986,3.986,0,0,0,3.943-3.036,9.665,9.665,0,0,0,.4-2.694q.031-22.625.011-45.252v-1.606Zm-.057-4.588h80.657c0-4.449.041-8.792-.021-13.138a3.3,3.3,0,0,0-2.737-3.309c-2.8-.217-5.629-.061-8.517-.061v1.341c-.021,3.476-1.661,5.116-5.153,5.136-2.033.012-4.062.013-6.1,0a4.171,4.171,0,0,1-4.429-4.3c-.026-.756,0-1.514,0-2.274h-26.741c0,.862.036,1.631-.011,2.4a4.084,4.084,0,0,1-3.684,4.146c-2.6.093-5.226.1-7.829,0a4.275,4.275,0,0,1-4.154-4.493c-.006-.661,0-1.325,0-2.111-2.758,0-5.355-.108-7.948.038a3.653,3.653,0,0,0-3.321,3.624C5678.475,2036.954,5678.516,2041.253,5678.516,2045.673Zm58.051-14.539h6.835v-12.113h-6.835Zm-35.755.049v-12.165h-6.225v12.165Z" transform="translate(0)" fill="#001968" stroke="#001968" stroke-width="0.2"/>
      <path id="Path_71286" data-name="Path 71286" d="M6515.942,3451.25a8.578,8.578,0,0,1-1.117,1.64c-2.219,2.215-4.5,4.383-6.783,6.533a1.836,1.836,0,0,0-.719,1.969c.666,3.153,1.252,6.328,1.686,9.518a3.192,3.192,0,0,1-.729,2.541,2.954,2.954,0,0,1-2.607.2c-3.012-1.4-5.91-3.051-8.891-4.522a2.325,2.325,0,0,0-1.795-.011c-2.9,1.413-5.764,2.911-8.609,4.424-1.01.536-1.988.844-2.977.089a2.469,2.469,0,0,1-.734-2.737c.646-3.208,1.211-6.43,1.713-9.663a2.158,2.158,0,0,0-.58-1.594c-2.215-2.22-4.5-4.38-6.783-6.527-.91-.847-1.578-1.775-1.117-3.043.449-1.236,1.629-1.368,2.736-1.536,3.1-.466,6.2-.9,9.277-1.449a2.124,2.124,0,0,0,1.326-1.017c1.469-2.82,2.861-5.679,4.248-8.543.48-1.009,1.08-1.906,2.291-1.928,1.273-.022,1.9.872,2.422,1.948,1.377,2.867,2.795,5.718,4.27,8.53a2.137,2.137,0,0,0,1.334,1c3.131.549,6.277,1,9.418,1.468C6515.022,3448.8,6515.907,3449.524,6515.942,3451.25Zm-20.092-8.38c-1.184,2.367-2.3,4.439-3.275,6.579a3.113,3.113,0,0,1-2.762,1.958c-2.277.262-4.533.624-6.324.88,1.4,1.589,2.846,3.392,4.461,5.04a3.42,3.42,0,0,1,1.045,3.381c-.445,2.262-.766,4.543-1.189,7.1,2.168-1.159,4.119-2.106,5.961-3.219a3.713,3.713,0,0,1,4.186-.008c1.889,1.107,3.844,2.1,5.961,3.244-.393-2.3-.631-4.367-1.129-6.359a4.231,4.231,0,0,1,1.547-4.713,60.157,60.157,0,0,0,4.213-4.435c-2.178-.3-4.465-.654-6.764-.924a3.006,3.006,0,0,1-2.643-1.906C6498.169,3447.342,6497.052,3445.262,6495.851,3442.87Z" transform="translate(-778.118 -1379.535)" fill="#001968" stroke="#001968" stroke-width="0.2"/>
    </g>
  </g>
</svg>
