<svg id="clap-icon" xmlns="http://www.w3.org/2000/svg" width="221.881" height="241.471" viewBox="0 0 221.881 241.471">
  <path id="Path_70543" data-name="Path 70543" d="M175.909,49.083S158.016,34.248,148.56,20.347c-3.539-5.181-15.005-4.53-18.94,5.407L67.731,49.621,26.906,27.595c-6.427-3.822-14.694-1.076-18.346,6.2l-.057.113c-3.68,7.276-1.444,16.251,5.011,20.1L19.8,57.746c-5.492-.991-11.325,1.869-14.241,7.644L5.5,65.5C1.793,72.78,4,81.783,10.485,85.6l14.1,8.437C18.1,90.22,9.89,92.966,6.238,100.185l-.028.17c-3.737,7.3-1.5,16.251,4.954,20.129,0,0,71.77,44.223,96.457,57.614,19.563,10.532,57.954,15.656,82.16-13.533C198.643,153.864,175.909,49.083,175.909,49.083Z" transform="translate(-3.705 55.072)" fill="#f37c13"/>
  <path id="Path_70544" data-name="Path 70544" d="M117.81,58.969c-12.768-8.72-21.347-20.186-27.774-37.626-2.208-6.059-11.013-6.993-16.109,2.8-7.361,14.043-.283,25.622,3.567,30.69l1.869,2.407A87.156,87.156,0,0,0,82.59,66.9C72.03,64.462,59.97,70.436,51.533,81.59c-8.72,11.523-29.359,31.4-38.051,42.977-10.56,13.873-7.757,33.747,4.049,42.326,0,0,62.115,45.44,103.507-10.249C153.426,113.1,130.692,67.8,117.81,58.969Z" transform="translate(84.235 44.931)" fill="#fdda35"/>
  <path id="Path_70545" data-name="Path 70545" d="M126.917,89.986c6.313,4.615,7.757,14.014,3.228,21.092l-.057.057c-4.558,7.05-13.306,9.06-19.676,4.473L11.718,44.319C5.376,39.733,3.932,30.333,8.462,23.284l.085-.085c4.53-7.05,13.306-9.06,19.62-4.5Z" transform="translate(54.177 30.675)" fill="#fdda35"/>
  <path id="Path_70546" data-name="Path 70546" d="M76.007,74.409,12.986,28.884C9.532,26.449,7.1,22.655,8.088,16.54c-4.558,7.9-1.727,16.024,3.794,19.96L74.875,82.053C81.245,86.611,82.321,78.967,76.007,74.409Z" transform="translate(53.956 38.41)" fill="#d26607"/>
  <path id="Path_70547" data-name="Path 70547" d="M125.794,90.459c6.285,4.558,7.757,13.958,3.228,21.007l-.057.142c-4.558,7.021-13.335,9.031-19.676,4.473L10.623,44.792c-6.37-4.558-7.842-13.958-3.312-21.007l.113-.142c4.53-7.021,13.306-9,19.648-4.473Z" transform="translate(23.053 43.905)" fill="#fdda35"/>
  <path id="Path_70548" data-name="Path 70548" d="M88.155,84.266,11.941,29.313A12.455,12.455,0,0,1,6.958,17.026C2.57,24.982,4.92,33.617,10.469,37.608l76.526,54.33C93.308,96.553,94.412,88.909,88.155,84.266Z" transform="translate(22.755 51.683)" fill="#d26607"/>
  <path id="Path_70549" data-name="Path 70549" d="M125.542,91.6c6.313,4.558,7.814,13.986,3.256,21.007l-.085.113c-4.53,7.05-13.335,9-19.676,4.445L10.4,45.907C4.029,41.349,2.557,31.95,7.115,24.929l.085-.17c4.5-6.993,13.335-9,19.62-4.445Z" transform="translate(17.105 74.753)" fill="#fdda35"/>
  <path id="Path_70550" data-name="Path 70550" d="M78.976,79.924,11.764,31.4a12.275,12.275,0,0,1-4.3-13.278C2.224,25.481,4.347,35.56,9.839,39.58L77.872,87.6C84.185,92.154,85.289,84.539,78.976,79.924Z" transform="translate(16.759 81.562)" fill="#d26607"/>
  <path id="Path_70551" data-name="Path 70551" d="M125.461,92.828c6.313,4.558-38.985,9.371-45.3,4.813L10.319,47.247C3.948,42.632,2.476,33.2,6.978,26.183l.113-.113c4.5-7.078,13.363-9.06,19.676-4.473Z" transform="translate(14.553 109.087)" fill="#fdda35"/>
  <path id="Path_70552" data-name="Path 70552" d="M207.631,45.231s-6.936,34.936-34.427,55.8c-24.574,18.686-62.653,2.435-80.744-9.569C73.293,78.723,63.525,72.183,17.8,37.417,9.139,30.848,6.7,26.177,8.063,19.354c-6.71,7.3-3.312,18.176,2.208,22.111l4.756,3.369S70.009,85.093,88.666,98.088c16.845,11.693,60.955,30.548,88.926,8.324C208.763,81.668,207.631,45.231,207.631,45.231Z" transform="translate(13.949 115.264)" fill="#d26607"/>
  <path id="Path_70553" data-name="Path 70553" d="M29.079,62.2c-8.012-8.324-8.324-20.384-8.324-20.384l-1.84-2.435C15.8,35.394,10.733,27.3,12.4,17.076c-7.5,13.759-.17,24.8,3.652,29.784l1.9,2.463a11.682,11.682,0,0,0,1.444,6.37Z" transform="translate(145.192 53.049)" fill="#d3895d"/>
  <path id="Path_70554" data-name="Path 70554" d="M26.1,14.893,37.82,56.3,6.771,28.247Z" transform="translate(80.046 -6.583)" fill="#fddb35"/>
  <path id="Path_70555" data-name="Path 70555" d="M31.936,14.6,18.845,55.588,8.477,15.044Z" transform="translate(126.642 -14.599)" fill="#fddb35"/>
  <path id="Path_70556" data-name="Path 70556" d="M44.252,28.123,9.845,54l15-39.081Z" transform="translate(163.996 -5.81)" fill="#fddb35"/>
</svg>
