<svg id="idea-blulb" xmlns="http://www.w3.org/2000/svg" width="191.312" height="243.966" viewBox="0 0 191.312 243.966">
  <g id="Group_62308" data-name="Group 62308" transform="translate(0 0)">
    <g id="Group_62283" data-name="Group 62283" transform="translate(93.174)">
      <g id="Group_62282" data-name="Group 62282">
        <path id="Path_70569" data-name="Path 70569" d="M2255.574,342.086a2.482,2.482,0,0,1-2.482-2.483V327.344a2.482,2.482,0,1,1,4.965,0V339.6A2.482,2.482,0,0,1,2255.574,342.086Z" transform="translate(-2253.092 -324.862)" fill="#ffcb00"/>
      </g>
    </g>
    <g id="Group_62285" data-name="Group 62285" transform="translate(150.388 27.29)">
      <g id="Group_62284" data-name="Group 62284">
        <path id="Path_70570" data-name="Path 70570" d="M2479.269,445.192a2.483,2.483,0,0,1-1.756-4.238l8.669-8.669a2.483,2.483,0,1,1,3.511,3.51l-8.669,8.669A2.476,2.476,0,0,1,2479.269,445.192Z" transform="translate(-2476.786 -431.558)" fill="#ffcb00"/>
      </g>
    </g>
    <g id="Group_62287" data-name="Group 62287" transform="translate(27.29 150.388)">
      <g id="Group_62286" data-name="Group 62286">
        <path id="Path_70571" data-name="Path 70571" d="M1997.985,926.476a2.483,2.483,0,0,1-1.756-4.238l8.669-8.669a2.482,2.482,0,0,1,3.511,3.51l-8.669,8.669A2.474,2.474,0,0,1,1997.985,926.476Z" transform="translate(-1995.502 -912.842)" fill="#ffcb00"/>
      </g>
    </g>
    <g id="Group_62289" data-name="Group 62289" transform="translate(174.088 93.174)">
      <g id="Group_62288" data-name="Group 62288">
        <path id="Path_70572" data-name="Path 70572" d="M2584.187,694.113h-12.258a2.483,2.483,0,1,1,0-4.965h12.258a2.483,2.483,0,1,1,0,4.965Z" transform="translate(-2569.445 -689.148)" fill="#ffcb00"/>
      </g>
    </g>
    <g id="Group_62291" data-name="Group 62291" transform="translate(0 93.174)">
      <g id="Group_62290" data-name="Group 62290">
        <path id="Path_70573" data-name="Path 70573" d="M1903.547,694.113h-12.259a2.483,2.483,0,0,1,0-4.965h12.259a2.483,2.483,0,1,1,0,4.965Z" transform="translate(-1888.805 -689.148)" fill="#ffcb00"/>
      </g>
    </g>
    <g id="Group_62293" data-name="Group 62293" transform="translate(150.388 150.388)">
      <g id="Group_62292" data-name="Group 62292">
        <path id="Path_70574" data-name="Path 70574" d="M2487.938,926.476a2.477,2.477,0,0,1-1.756-.728l-8.669-8.669a2.483,2.483,0,0,1,3.511-3.51l8.669,8.669a2.483,2.483,0,0,1-1.755,4.238Z" transform="translate(-2476.786 -912.842)" fill="#ffcb00"/>
      </g>
    </g>
    <g id="Group_62295" data-name="Group 62295" transform="translate(27.29 27.29)">
      <g id="Group_62294" data-name="Group 62294">
        <path id="Path_70575" data-name="Path 70575" d="M2006.654,445.192a2.476,2.476,0,0,1-1.756-.727l-8.669-8.669a2.482,2.482,0,0,1,3.511-3.51l8.669,8.669a2.483,2.483,0,0,1-1.755,4.238Z" transform="translate(-1995.502 -431.558)" fill="#ffcb00"/>
      </g>
    </g>
    <g id="Group_62297" data-name="Group 62297" transform="translate(124.421 7.229)">
      <g id="Group_62296" data-name="Group 62296">
        <path id="Path_70576" data-name="Path 70576" d="M2377.745,369.4a2.485,2.485,0,0,1-2.291-3.442l4.735-11.308a2.483,2.483,0,1,1,4.581,1.917l-4.735,11.308A2.484,2.484,0,0,1,2377.745,369.4Z" transform="translate(-2375.261 -353.125)" fill="#ffcb00"/>
      </g>
    </g>
    <g id="Group_62299" data-name="Group 62299" transform="translate(168.045 57.844)">
      <g id="Group_62298" data-name="Group 62298">
        <path id="Path_70577" data-name="Path 70577" d="M2548.3,560.634a2.483,2.483,0,0,1-.942-4.781l11.343-4.648a2.483,2.483,0,0,1,1.883,4.6l-11.344,4.648A2.483,2.483,0,0,1,2548.3,560.634Z" transform="translate(-2545.819 -551.018)" fill="#ffcb00"/>
      </g>
    </g>
    <g id="Group_62301" data-name="Group 62301" transform="translate(6.957 123.852)">
      <g id="Group_62300" data-name="Group 62300">
        <path id="Path_70578" data-name="Path 70578" d="M1918.487,818.708a2.483,2.483,0,0,1-.942-4.781l11.343-4.648a2.483,2.483,0,1,1,1.883,4.595l-11.344,4.648A2.474,2.474,0,0,1,1918.487,818.708Z" transform="translate(-1916.003 -809.093)" fill="#ffcb00"/>
      </g>
    </g>
    <g id="Group_62303" data-name="Group 62303" transform="translate(167.809 124.422)">
      <g id="Group_62302" data-name="Group 62302">
        <path id="Path_70579" data-name="Path 70579" d="M2558.689,821.021a2.478,2.478,0,0,1-.958-.193l-11.308-4.735a2.483,2.483,0,0,1,1.917-4.581l11.308,4.735a2.483,2.483,0,0,1-.959,4.774Z" transform="translate(-2544.898 -811.32)" fill="#ffcb00"/>
      </g>
    </g>
    <g id="Group_62305" data-name="Group 62305" transform="translate(7.228 57.19)">
      <g id="Group_62304" data-name="Group 62304">
        <path id="Path_70580" data-name="Path 70580" d="M1930.856,558.161a2.476,2.476,0,0,1-.958-.193l-11.308-4.735a2.483,2.483,0,0,1,1.917-4.581l11.308,4.735a2.483,2.483,0,0,1-.959,4.773Z" transform="translate(-1917.065 -548.461)" fill="#ffcb00"/>
      </g>
    </g>
    <g id="Group_62307" data-name="Group 62307" transform="translate(57.845 6.957)">
      <g id="Group_62306" data-name="Group 62306">
        <path id="Path_70581" data-name="Path 70581" d="M2122.1,368.371a2.485,2.485,0,0,1-2.3-1.542l-4.648-11.344a2.483,2.483,0,0,1,4.6-1.883l4.648,11.344a2.484,2.484,0,0,1-2.3,3.425Z" transform="translate(-2114.963 -352.061)" fill="#ffcb00"/>
      </g>
    </g>
  </g>
  <g id="Group_62311" data-name="Group 62311" transform="translate(32.548 30.652)">
    <path id="Path_70582" data-name="Path 70582" d="M2213.341,1135.745h-41.936a4.285,4.285,0,0,1-4.284-4.285h0a4.285,4.285,0,0,1,4.284-4.285h41.936a4.285,4.285,0,0,1,4.285,4.285h0A4.285,4.285,0,0,1,2213.341,1135.745Z" transform="translate(-2128.484 -952.619)" fill="#002a47"/>
    <path id="Path_70583" data-name="Path 70583" d="M2213.341,1188.357h-41.936a4.284,4.284,0,0,1-4.284-4.284h0a4.284,4.284,0,0,1,4.284-4.285h41.936a4.285,4.285,0,0,1,4.285,4.285h0A4.285,4.285,0,0,1,2213.341,1188.357Z" transform="translate(-2128.484 -991.775)" fill="#002a47"/>
    <path id="Path_70584" data-name="Path 70584" d="M2221.229,1233.106a1.663,1.663,0,0,0-1.634,1.965,11.892,11.892,0,0,0,23.376,0,1.663,1.663,0,0,0-1.634-1.965Z" transform="translate(-2167.514 -1031.456)" fill="#002a47"/>
    <g id="Group_62309" data-name="Group 62309" transform="translate(0 0)">
      <path id="Path_70585" data-name="Path 70585" d="M2096.479,613.862h-33.672a11.264,11.264,0,0,1-11.182-10.381c-1.427-18.983-9.172-31.011-17.375-43.746-8.944-13.888-18.192-28.248-18.192-51.47a63.27,63.27,0,0,1,53.334-62.745,64.85,64.85,0,0,1,22.021.263,63.559,63.559,0,0,1,51.817,62.482c0,23.222-9.249,37.583-18.194,51.47-8.2,12.735-15.949,24.763-17.375,43.747A11.266,11.266,0,0,1,2096.479,613.862Z" transform="translate(-2016.058 -444.705)" fill="#ffcb00"/>
    </g>
    <g id="Group_62310" data-name="Group 62310" transform="translate(17.424 37.24)">
      <path id="Path_70586" data-name="Path 70586" d="M2099.533,656.459a4.132,4.132,0,0,1-3.348-1.7c-22.974-31.553-6.038-61.168-5.306-62.413a4.138,4.138,0,0,1,7.139,4.186c-.634,1.093-14.834,26.31,4.857,53.356a4.138,4.138,0,0,1-3.343,6.573Z" transform="translate(-2084.182 -590.303)" fill="#fff"/>
    </g>
  </g>
</svg>
