<svg id="namaste" xmlns="http://www.w3.org/2000/svg" width="237.959" height="267.837" viewBox="0 0 237.959 267.837">
  <path id="Path_70676" data-name="Path 70676" d="M-473.178,1375-512,1409.874l31.913,41.783,39.809-42.44Z" transform="translate(512.368 -1186.654)" fill="#fdda35"/>
  <path id="Path_70677" data-name="Path 70677" d="M-429.45,1015.914c3.57-3.442,7.034-7.124,10.867-10.372a41.626,41.626,0,0,0,8.694-9.766c5.216-8.4,8.01-17.707,10.136-27.256.609-2.737,1.121-5.5,1.64-8.062,1.646,6.375,3.064,12.9,5.033,19.265,3.288,10.622,8.512,19.879,17.361,27.269,7.066,5.9,12.97,13.2,19.34,19.917a2.04,2.04,0,0,1,.268,1.716c-.934,2.859-2.01,5.671-2.983,8.517a6.831,6.831,0,0,0,4.636,9.207c.332.105.651.251.992.384-1.654,2.869-1.828,5.644.141,8.265,1.942,2.583,4.67,3.181,7.771,2.487-.095.7-.2,1.23-.233,1.766-.309,4.7,3.358,8.2,7.99,7.357a9.858,9.858,0,0,0,3.984-2.081c2.225-1.728,4.283-3.671,6.432-5.543,1.207,1.358,2.265,2.543,3.317,3.733,1.962,2.216,3.914,4.44,5.882,6.65.818.919,1.914,1.358,2.907.591a3.767,3.767,0,0,0,1.148-2.294c.074-.5-.5-1.174-.914-1.652-2.907-3.341-5.849-6.65-8.858-10.059l35.083-30.547c.881.738,1.625,1.471,2.474,2.047a2.166,2.166,0,0,0,3.1-.34,2.141,2.141,0,0,0-.168-3.108c-.546-.578-1.161-1.092-1.828-1.713,2.625-2.283,5.168-4.444,7.652-6.669a6.9,6.9,0,0,0-.306-10.747,7.019,7.019,0,0,0-9.043.562c-2.844,2.454-5.67,4.927-8.521,7.407l-5.055-5.121c.57-.66,1.129-1.32,1.7-1.969,2.031-2.3,4.1-4.566,6.089-6.906a6.909,6.909,0,0,0-2.605-10.934A6.93,6.93,0,0,0-303.34,990c-2.325,2.61-4.63,5.239-7.078,8.012-4.7-5.145-9.3-10.141-13.832-15.2a2.263,2.263,0,0,1-.224-1.873c1.11-3.377,2.382-6.7,3.5-10.078a6.844,6.844,0,0,0-4.249-8.769,6.881,6.881,0,0,0-8.778,4.257c-.339.881-.669,1.766-1,2.649l-.524.078c-.775-1.836-1.919-3.605-2.269-5.519q-5.6-30.6-10.959-61.251c-2.705-15.442-6.146-30.666-11.845-45.336C-365.8,843.6-371,830.241-378.06,817.711c-2.694-4.778-5.546-9.475-9.862-13.03-2.444-2.013-5.143-2.926-8.206-1.41a16.979,16.979,0,0,0-1.838,1.21c-3.477-2.547-6.187-2.569-9.488.022a16.782,16.782,0,0,0-3.277,3.2,81.191,81.191,0,0,0-6.214,9.262c-11.241,21.112-20.046,43.28-25.354,66.549-5.631,24.685-10.011,49.664-14.553,74.585a31.907,31.907,0,0,1-8.134,16.787c-6.24-4.188-11.36-4.164-15.535.069a10.4,10.4,0,0,0-3.037,6.576c-.345,4.011,1.352,7.193,4.485,9.842-5.554,5.655-10.885,11.247-16.4,16.651-5.4,5.292-10.986,10.4-16.5,15.573-1.308,1.228-1.512,2.477-.527,3.576a2.318,2.318,0,0,0,3.372.034c.723-.586,1.442-1.186,2.1-1.839q15.726-15.546,31.409-31.134a2.463,2.463,0,0,1,3.1-.748c-1.1,7.446,3.617,12.583,11.909,12.941a10.849,10.849,0,0,0,2.662,9.875c2.646,2.865,6.031,3.738,9.942,3.311a11.631,11.631,0,0,0,.851,8.766c-7.911,8.815-15.75,17.537-23.572,26.273q-5.1,5.7-10.144,11.442c-1.124,1.273-1.157,2.739-.12,3.635,1.061.917,2.367.7,3.58-.6.112-.12.222-.242.332-.365q12.857-14.421,25.718-28.838c2.431-2.72,4.91-5.4,7.342-8.066,5.915,3.567,11.068,1.592,13.9-1.25C-426.288,1026.769-426.042,1021.932-429.45,1015.914Z" transform="translate(513.119 -802.515)" fill="#ffe87c"/>
  <path id="Path_70678" data-name="Path 70678" d="M-429.45,1015.914c3.407,6.017,3.162,10.854-.664,14.7-2.831,2.843-7.984,4.818-13.9,1.25-2.431,2.668-4.911,5.346-7.342,8.066q-12.872,14.407-25.718,28.838c-.11.123-.219.245-.332.365-1.213,1.3-2.519,1.519-3.58.6-1.037-.9-1-2.362.12-3.635q5.06-5.731,10.144-11.442c7.822-8.737,15.661-17.458,23.572-26.273a11.631,11.631,0,0,1-.851-8.766c-3.911.427-7.3-.446-9.942-3.311a10.849,10.849,0,0,1-2.662-9.875c-8.292-.358-13.006-5.5-11.909-12.941a2.463,2.463,0,0,0-3.1.748q-15.651,15.62-31.409,31.134c-.661.653-1.38,1.253-2.1,1.839a2.318,2.318,0,0,1-3.372-.034c-.985-1.1-.781-2.348.527-3.576,5.513-5.177,11.1-10.281,16.5-15.573,5.515-5.4,10.846-11,16.4-16.651-3.132-2.649-4.83-5.831-4.485-9.842a10.4,10.4,0,0,1,3.037-6.576c4.175-4.233,9.3-4.257,15.535-.069a31.907,31.907,0,0,0,8.134-16.787c4.543-24.921,8.922-49.9,14.553-74.585,5.308-23.269,14.113-45.437,25.354-66.549a81.191,81.191,0,0,1,6.214-9.262,16.782,16.782,0,0,1,3.277-3.2c3.3-2.59,6.011-2.568,9.488-.022a16.979,16.979,0,0,1,1.838-1.21c3.062-1.516,5.761-.6,8.206,1.41,4.316,3.555,7.168,8.253,9.862,13.03,7.065,12.53,12.26,25.89,17.454,39.262,5.7,14.67,9.14,29.894,11.845,45.336q5.368,30.645,10.959,61.251c.35,1.914,1.494,3.683,2.269,5.519l.524-.078c.334-.883.664-1.768,1-2.649a6.881,6.881,0,0,1,8.778-4.257,6.844,6.844,0,0,1,4.249,8.769c-1.114,3.376-2.386,6.7-3.5,10.078a2.263,2.263,0,0,0,.224,1.873c4.527,5.062,9.128,10.057,13.832,15.2,2.448-2.773,4.752-5.4,7.078-8.012a6.93,6.93,0,0,1,8.018-2.09,6.909,6.909,0,0,1,2.605,10.934c-1.985,2.34-4.059,4.6-6.089,6.906-.572.649-1.131,1.308-1.7,1.969l5.055,5.121c2.85-2.479,5.677-4.953,8.521-7.407a7.019,7.019,0,0,1,9.043-.562,6.9,6.9,0,0,1,.306,10.747c-2.485,2.226-5.027,4.386-7.652,6.669.668.621,1.283,1.135,1.828,1.713a2.141,2.141,0,0,1,.168,3.108,2.166,2.166,0,0,1-3.1.34c-.85-.576-1.594-1.309-2.474-2.047l-35.083,30.547c3.009,3.409,5.951,6.719,8.858,10.059.416.479.988,1.153.914,1.652a3.767,3.767,0,0,1-1.148,2.294c-.992.767-2.089.329-2.907-.591-1.968-2.21-3.92-4.435-5.882-6.65-1.052-1.19-2.109-2.375-3.317-3.733-2.15,1.873-4.208,3.816-6.432,5.543a9.858,9.858,0,0,1-3.984,2.081c-4.631.838-8.3-2.658-7.99-7.357.035-.535.138-1.066.233-1.766-3.1.693-5.829.1-7.771-2.487-1.969-2.62-1.795-5.4-.141-8.265-.341-.133-.66-.279-.992-.384a6.831,6.831,0,0,1-4.636-9.207c.974-2.846,2.049-5.658,2.983-8.517a2.04,2.04,0,0,0-.268-1.716c-6.37-6.722-12.274-14.017-19.34-19.917-8.848-7.39-14.073-16.647-17.361-27.269-1.969-6.36-3.388-12.89-5.033-19.265-.519,2.566-1.031,5.325-1.64,8.062-2.126,9.549-4.92,18.855-10.136,27.256a41.626,41.626,0,0,1-8.694,9.766C-422.416,1008.79-425.879,1012.473-429.45,1015.914Zm75.386,6.591a4.546,4.546,0,0,0,.361-.6q8.206-23.124,16.362-46.266a2.705,2.705,0,0,0-.363-2.038c-1.885-2.951-4.048-5.757-4.683-9.323-3.12-17.512-6.146-35.04-9.36-52.534-1.988-10.817-3.813-21.694-6.5-32.346-3.954-15.685-10.129-30.632-16.745-45.371-3.456-7.7-7.115-15.312-12.317-22.027a24.36,24.36,0,0,0-4.6-4.392c-1.37-1.035-2.725-.489-3.16,1.189a12.305,12.305,0,0,0-.45,4.532c.588,4.552,1.176,9.127,2.2,13.593,2.545,11.089,5.607,22.051,7.37,33.324,2.792,17.846,5.877,35.646,8.712,53.485.816,5.131,1.247,10.327,1.756,15.5a2.3,2.3,0,0,1-2.161,2.756c-1.27.068-2.191-.808-2.4-2.378-.544-4.07-1-8.152-1.6-12.214-1.028-6.987-2.056-13.99-4.608-20.624a27.9,27.9,0,0,0-2.947-5.259,2.809,2.809,0,0,0-3.352-1.109,2.916,2.916,0,0,0-2.315,2.645c-.521,5.281-1.331,10.549-1.556,15.843a243.05,243.05,0,0,0,2.6,47.527c1.508,9.758,3.656,19.362,7.5,28.509,2.5,5.958,5.645,11.479,10.561,15.86,3.515,3.132,6.968,6.343,10.286,9.68C-361.611,1014.356-357.927,1018.414-354.064,1022.505Zm-85.633-10.392a43.1,43.1,0,0,1,5.385.78,1.92,1.92,0,0,0,2.24-.583q4.9-4.98,9.919-9.84c1.528-1.485,3.289-2.747,4.719-4.315,4.358-4.779,7.013-10.544,9.193-16.546a135.534,135.534,0,0,0,6.849-31.2,79.665,79.665,0,0,0,.817-12.921,269.851,269.851,0,0,1-.2-32.694,36.587,36.587,0,0,0-.8-12.048,3.2,3.2,0,0,0-5.566-1.536,10.861,10.861,0,0,0-2.454,4.015,106.44,106.44,0,0,0-3.262,12.855c-1.168,7.015-1.89,14.1-2.822,21.16-.253,1.915-1.225,2.895-2.605,2.742-1.429-.158-2.259-1.336-2.041-3.2.749-6.416,1.4-12.851,2.381-19.233q2.875-18.661,6.1-37.269,2.754-15.762,5.966-31.442c1.616-7.929,3.7-15.763,5.256-23.7a25.557,25.557,0,0,0-.112-8.122c-.256-1.917-1.693-2.356-3.307-1.255a12.159,12.159,0,0,0-3.133,2.857,89.644,89.644,0,0,0-6.632,10.159c-10.444,20.2-18.913,41.274-23.943,63.418-5.6,24.64-9.992,49.559-14.548,74.423-1.194,6.517-3.364,12.282-7.559,17.334-.734.885-1.424,1.809-2.1,2.736a1.832,1.832,0,0,0-.47.988c.092,1.667.269,3.328.426,5.092a10.836,10.836,0,0,1,8.488,4.115,10.861,10.861,0,0,1,2.095,9.252C-441.987,997.941-437.858,1005.845-439.7,1012.114Zm53.791-124.2c-3.62-19.964-6.05-40.077-11.984-59.381-5.854,19.018-8.292,38.8-11.865,58.656,4.44-2.876,8.13-1.607,11.6,1.3C-393.359,884.931-391.447,884.83-385.905,887.914Zm42.444,146.483.651.31,29.366-33.255-13.308-14.26Zm63.842-23.769c-.171-.573-.228-.842-.33-1.094-.719-1.773-2.484-1.915-4.286-.347L-339.5,1057.3c-1.845,1.607-2.227,2.95-1.168,4.129,1.029,1.144,2.456.9,4.274-.682q14.8-12.9,29.611-25.786,12.886-11.219,25.759-22.455A10.478,10.478,0,0,0-279.619,1010.629Zm-68.262,42.922a16.771,16.771,0,0,0,2.321-1.8q24.5-27.69,48.949-55.421c1.22-1.382,1.288-2.815.2-3.755-1.118-.968-2.42-.725-3.682.7q-22.136,25.061-44.269,50.126c-1.7,1.929-3.485,3.8-5.055,5.832a3.2,3.2,0,0,0-.448,2.532C-349.656,1052.432-348.688,1052.866-347.881,1053.551ZM-325,968.31c-.507-.548-1.034-1.6-1.779-1.786a3.9,3.9,0,0,0-2.552.821c-.415.261-.524,1.044-.724,1.608q-9.7,27.352-19.393,54.708c-1.789,5.05-3.583,10.1-5.34,15.157a2.266,2.266,0,0,0,1.365,3.059,2.332,2.332,0,0,0,2.928-1.439c.179-.4.294-.823.44-1.235q12.209-34.466,24.416-68.933C-325.457,969.755-325.3,969.233-325,968.31Zm21.325,42.961-29.89,33.867.482.473,33.864-29.475Zm-152.05-15.748a6.325,6.325,0,0,0-6.259-6.141,6.31,6.31,0,0,0-6.147,6.249,6.317,6.317,0,0,0,6.255,6.138A6.311,6.311,0,0,0-455.725,995.523Zm-10.957-13.115a6.237,6.237,0,0,0-6.234-6.133,6.286,6.286,0,0,0-6.105,6.281,6.3,6.3,0,0,0,6.253,6.131A6.231,6.231,0,0,0-466.682,982.407Zm28.864,34.484a6.062,6.062,0,0,0-6.077,6.2,6.116,6.116,0,0,0,6.2,6.106,6.162,6.162,0,0,0,6.087-6.231A6.085,6.085,0,0,0-437.818,1016.891Zm-12.33-1.77a6.236,6.236,0,0,0,6.281-6.069,6.249,6.249,0,0,0-6.135-6.225,6.256,6.256,0,0,0-6.276,6.082A6.219,6.219,0,0,0-450.148,1015.122Z" transform="translate(513.119 -802.515)" fill="#e2037f"/>
</svg>
