<svg xmlns="http://www.w3.org/2000/svg" width="240.828" height="200.484" viewBox="0 0 240.828 200.484">
  <g id="Group_65977" data-name="Group 65977" transform="translate(-67 -160.04)">
    <g id="Group_65332" data-name="Group 65332" transform="translate(-3.156 -68)">
      <path id="Die" d="M355.669,415.674h-61.7c-31.754,0-58.813-22.328-63.188-52.438-2.516-17.317,2.434-37.857,23.8-59.947,0,0-9.86-68.969,59.454-61.75,0,0,59.8-42.2,101.362,10.217,0,0,55.894,12.17,35.456,67.818,0,0,31.652,35.818,10.908,71.479-8.859,15.23-25.693,24.622-43.9,24.622Z" transform="translate(-160.027 2.561)" fill="#e1eeff"/>
      <g id="Group_65159" data-name="Group 65159" transform="translate(-703.879 -585.116)">
        <g id="woman" transform="translate(823.446 844.382)">
          <path id="Path_74016" data-name="Path 74016" d="M1752.219,2232.968h0a92.481,92.481,0,0,1-11.027-1.986l-.212-.052-.136-.034q-1.369-.339-2.67-.7l-.281-.079-.107-.031q-1.3-.372-2.571-.784c-.236-.077-.485-.158-.746-.245l-.1-.035q-1.487-.5-2.885-1.044l-.224-.088v-1.645h19.9q.2,1.523.448,3.1l.006.039Q1751.9,2231.217,1752.219,2232.968Z" transform="translate(-1699.536 -2140.138)" fill="#242424"/>
          <path id="Path_74017" data-name="Path 74017" d="M1988.858,1305.363a5.333,5.333,0,0,0-1.327-1.518,1.269,1.269,0,0,0-1.05-.229,23.416,23.416,0,0,1-9.816.069,1.261,1.261,0,0,0-1.32.509,6.747,6.747,0,0,0-.524,7.206c2.34,4.351-.842,8.142-1.076,10.621s-.8,5.428.889,7.346,3.623,21.13,14.224,27.022c12.025,3.158,23.045-1.193,26.554-4.211s7.861-8.984,5.053-17.757a30.327,30.327,0,0,1-16.143-1.775c-8.212-3.419-9.826-10.321-9.826-15.608s-.521-10.323-2.4-11.183A9.542,9.542,0,0,0,1988.858,1305.363Z" transform="translate(-1924.799 -1282.03)" fill="#242424"/>
          <path id="Path_74018" data-name="Path 74018" d="M1670.354,1676.405a8.931,8.931,0,0,1-1.149.442,8.79,8.79,0,0,1-1.819.356c-.237.021-.482.032-.737.033-.108,0-.219,0-.33-.006h-.024a8.913,8.913,0,0,1-4.907-1.738h0v0c-.009-.075-.017-.149-.027-.224-.207-1.731-.5-3.557-.9-5.461q-.236-1.13-.5-2.2c-.618,1.272-1.416,3.018-2.235,5.137-.176.454-.5,1.3-.914,2.512-.387,1.142-.847,2.612-1.323,4.391-.254.947-.511,1.983-.765,3.1-.208.921-.423,1.926-.636,3.009a116,116,0,0,0-1.665,11.5l-.744-.052-20.133-1.405-.224-.088q-.47-.185-.929-.375c0-.464.017-1.331.052-2.5,0-.123.008-.249.012-.378.028-.841.067-1.818.123-2.9.034-.656.073-1.35.12-2.075q.01-.154.02-.311.04-.592.085-1.209.025-.328.051-.664.014-.171.028-.344t.029-.347q.038-.461.081-.931c0-.027,0-.053.007-.08q.01-.119.022-.239l.007-.081q.051-.538.107-1.086.07-.689.15-1.39c0-.039.009-.079.013-.118s.008-.075.013-.113q.026-.225.053-.451c.256-2.147.579-4.35.987-6.487-.05-.087-.1-.175-.149-.262a13.365,13.365,0,0,1-.868-1.813q-.109-.286-.2-.578a6.977,6.977,0,0,1-.3-1.744,7.775,7.775,0,0,1,1.232-4.306c-1.148.022-2.526.055-4.024.085h0l-.424.008-.668.013c-.629.012-1.273.023-1.925.032a7.464,7.464,0,0,1-.519-7.319c3.385-.695,10.926-2.26,14.391-3.114a21.2,21.2,0,0,1,5.743-.592,22.233,22.233,0,0,1,4.292.554q.215.049.407.1a13.086,13.086,0,0,1,1.349.407c2.255.382,4.215.647,5.911.833,1.528.167,2.842.269,3.962.333,0,0,3.776.216,6.129,1.926a4.12,4.12,0,0,1,1.167,1.4,6.357,6.357,0,0,1,.817,3.236c.024,1.32.294,3.788.766,7.279C1669.7,1671.936,1670,1674.04,1670.354,1676.405Z" transform="translate(-1599.607 -1607.961)" fill="#c80880"/>
          <path id="Path_74019" data-name="Path 74019" d="M1693.335,1738.838l-4.813,4.743c-1.148.022-2.526.055-4.024.085,2.574-.778,6.473-3.446,8.66-5.038A.138.138,0,0,1,1693.335,1738.838Z" transform="translate(-1656.05 -1686.612)" fill="#a9006a"/>
          <path id="Path_74020" data-name="Path 74020" d="M1931.989,1656.417a16.893,16.893,0,0,1-11.193,2.887,8.323,8.323,0,0,1-3-.692,3.809,3.809,0,0,1-2.042-2.213,2.644,2.644,0,0,1,.315-2.208,20.141,20.141,0,0,1,6.048,1.06C1925.446,1655.7,1928.744,1655.843,1931.989,1656.417Z" transform="translate(-1871.021 -1608.108)" fill="#ffa383"/>
          <g id="Group_65080" data-name="Group 65080" transform="translate(35.375 63.764)">
            <path id="Path_74021" data-name="Path 74021" d="M1788.99,1910.23a.137.137,0,0,1-.115-.062,6.77,6.77,0,0,0-5.233-2.968.137.137,0,1,1,.013-.274,7.048,7.048,0,0,1,5.449,3.091.137.137,0,0,1-.115.213Z" transform="translate(-1783.512 -1906.926)" fill="#a9006a"/>
          </g>
          <g id="Group_65101" data-name="Group 65101" transform="translate(0)">
            <path id="Path_74022" data-name="Path 74022" d="M1693.008,1508.243a13.341,13.341,0,0,0,3.484-.776c1.106-.448,2.277-.966,2.628-2.107a4.867,4.867,0,0,0,.086-2.527c-.185-.788-1.1-1.2-1.894-1.34a3.317,3.317,0,0,0-2.314.521,6.117,6.117,0,0,0-1.7,1.713,5.875,5.875,0,0,0-1.026,2.236A3.09,3.09,0,0,0,1693.008,1508.243Z" transform="translate(-1663.252 -1466.054)" fill="#ffa383"/>
            <path id="Path_74023" data-name="Path 74023" d="M1448.975,1556.955c-2.5,2.222-7.567,7.653-7.672,7.767l1.3-.266.4-.083a7.463,7.463,0,0,0,.519,7.319c-4.166.06-8.662.054-11.581-.232-4.773-.468-3.463-4.773-1.685-6.738s14.88-9.358,17.313-10.669S1451.5,1554.709,1448.975,1556.955Z" transform="translate(-1418.094 -1514.585)" fill="#ffa383"/>
            <path id="Path_74024" data-name="Path 74024" d="M1556.153,1708.336l-5.421,3.729,4.117-3.462h0Z" transform="translate(-1531.642 -1658.465)" fill="#d16945"/>
            <g id="Group_65095" data-name="Group 65095">
              <path id="Path_74025" data-name="Path 74025" d="M1546.711,1108.986a55.338,55.338,0,0,1-20.041-21.182s-10.388,16.424-8.563,20.986c9.853-1,21.339,3.6,25.753,5.58A6.2,6.2,0,0,0,1546.711,1108.986Z" transform="translate(-1501.1 -1081.346)" fill="#f0f0f0"/>
              <path id="Path_74026" data-name="Path 74026" d="M1893.222,1391.29c-.408-.212-.842-.451-1.3-.716a6.194,6.194,0,0,1-2.85,5.384c1.183.532,1.858.877,1.858.877S1894.906,1394.1,1893.222,1391.29Z" transform="translate(-1846.315 -1362.934)" fill="#2f518a"/>
              <g id="Group_65081" data-name="Group 65081" transform="translate(12.01 4.5)">
                <path id="Path_74027" data-name="Path 74027" d="M1462.872,1073.66c-1.761,4.7-4.774,8.167-7.564,9.1a3.962,3.962,0,0,1-2.682.026c-3.3-1.239-4.075-7.333-1.721-13.61s6.942-10.361,10.246-9.122a3.961,3.961,0,0,1,2,1.783C1464.645,1064.367,1464.634,1068.962,1462.872,1073.66Z" transform="translate(-1449.542 -1059.828)" fill="#3d69b3"/>
                <path id="Path_74028" data-name="Path 74028" d="M1478.83,1087.025a22.771,22.771,0,0,1-.935,2.155c-1.785,3.588-4.285,6.161-6.629,6.942a3.676,3.676,0,0,1-1.431-.227c-3.27-1.226-4.119-7.026-1.9-12.953s6.675-9.739,9.946-8.513a3.675,3.675,0,0,1,1.228.77c1.252,2.129,1.444,5.712.43,9.589A22.771,22.771,0,0,1,1478.83,1087.025Z" transform="translate(-1465.499 -1073.193)" fill="#f0f0f0"/>
                <path id="Path_74029" data-name="Path 74029" d="M1549.272,1191.439a22.8,22.8,0,0,1-.935,2.155,3.855,3.855,0,1,1,1.647-4.393A22.777,22.777,0,0,1,1549.272,1191.439Z" transform="translate(-1535.941 -1177.608)" fill="#2f518a"/>
              </g>
              <path id="Path_74030" data-name="Path 74030" d="M1675.381,1410.507l-7.674,10.013s-.234,1.731,2.573,2.293c1.972-2.007,9.779-11.043,9.779-11.043Z" transform="translate(-1640.43 -1381.473)" fill="#f0f0f0"/>
              <g id="Group_65082" data-name="Group 65082" transform="translate(11.873 4.362)">
                <path id="Path_74031" data-name="Path 74031" d="M1462.539,1064.479a11.5,11.5,0,0,0-.423-2.969v0h0a7.045,7.045,0,0,0-.673-1.589,4.08,4.08,0,0,0-2.073-1.841c-1.648-.618-3.644.01-5.619,1.768a13.72,13.72,0,0,0-1.24,1.261h0c-.062.071-.123.143-.184.217a18.077,18.077,0,0,0-1.691,2.409h0c-.049.081-.1.163-.143.245h0a22.949,22.949,0,0,0-2.625,7.19c-.017.091-.032.181-.047.272a18.192,18.192,0,0,0-.225,2.048q-.023.45-.021.888h0c0,.093,0,.186,0,.277h0a12.988,12.988,0,0,0,.1,1.383,7.846,7.846,0,0,0,1.244,3.573h0c.053.075.108.148.166.218a3.853,3.853,0,0,0,1.66,1.236,3.664,3.664,0,0,0,1.294.231,4.685,4.685,0,0,0,1.48-.255q.279-.093.559-.218h0c2.738-1.218,5.473-4.651,7.088-8.961A20.261,20.261,0,0,0,1462.539,1064.479Zm-.867,4.858h0a22.879,22.879,0,0,1-1.784,4.755h0c-1.722,3.384-4.118,5.908-6.453,6.685-.132.044-.264.082-.392.114h0l-.022.006h0a3.647,3.647,0,0,1-2.173-.092,3.578,3.578,0,0,1-1.543-1.151c-.057-.07-.112-.143-.166-.219h0a7.607,7.607,0,0,1-1.185-3.434,13,13,0,0,1-.1-1.389h0c0-.092,0-.183,0-.276h0q0-.6.047-1.23c.041-.539.108-1.089.2-1.646h0c.014-.091.03-.18.046-.271h0a22.779,22.779,0,0,1,2.552-7.01c.047-.083.094-.165.142-.246a18.03,18.03,0,0,1,1.651-2.373h0c.06-.074.121-.147.183-.218a13.524,13.524,0,0,1,1.262-1.291,6.508,6.508,0,0,1,4.136-1.93,3.4,3.4,0,0,1,1.2.214,3.637,3.637,0,0,1,1.7,1.357h0c.082.114.159.234.232.36a.022.022,0,0,1,0,.006,9.231,9.231,0,0,1,1.063,4.472A18.508,18.508,0,0,1,1461.672,1069.338Z" transform="translate(-1447.573 -1057.843)" fill="#2f518a"/>
              </g>
              <g id="Group_65083" data-name="Group 65083" transform="translate(34.094 29.791)">
                <path id="Path_74032" data-name="Path 74032" d="M1769.652,1423.028a.138.138,0,0,1-.054-.011,28.069,28.069,0,0,0-4.292-1.421.137.137,0,1,1,.065-.267,28.3,28.3,0,0,1,4.334,1.435.137.137,0,0,1-.054.264Z" transform="translate(-1765.202 -1421.325)" fill="#2f518a"/>
              </g>
              <g id="Group_65084" data-name="Group 65084" transform="translate(33.488 30.835)">
                <path id="Path_74033" data-name="Path 74033" d="M1756.676,1437.857a.138.138,0,0,1-.108-.223l1.053-1.334a.137.137,0,0,1,.216.17l-1.053,1.333A.137.137,0,0,1,1756.676,1437.857Z" transform="translate(-1756.538 -1436.249)" fill="#2f518a"/>
              </g>
              <g id="Group_65085" data-name="Group 65085" transform="translate(32.769 30.901)">
                <path id="Path_74034" data-name="Path 74034" d="M1746.392,1440.973a.138.138,0,0,1-.114-.214l2.328-3.5a.137.137,0,0,1,.229.152l-2.328,3.5A.137.137,0,0,1,1746.392,1440.973Z" transform="translate(-1746.254 -1437.196)" fill="#2f518a"/>
              </g>
              <g id="Group_65086" data-name="Group 65086" transform="translate(35.875 31.677)">
                <path id="Path_74035" data-name="Path 74035" d="M1790.785,1449.824a.136.136,0,0,1-.081-.026.137.137,0,0,1-.031-.192l.912-1.263a.137.137,0,1,1,.223.161l-.912,1.263A.138.138,0,0,1,1790.785,1449.824Z" transform="translate(-1790.648 -1448.286)" fill="#2f518a"/>
              </g>
              <g id="Group_65087" data-name="Group 65087" transform="translate(34.828 32.245)">
                <path id="Path_74036" data-name="Path 74036" d="M1775.82,1458.922a.137.137,0,0,1-.094-.238l2.386-2.246a.137.137,0,1,1,.188.2l-2.386,2.246A.137.137,0,0,1,1775.82,1458.922Z" transform="translate(-1775.683 -1456.401)" fill="#2f518a"/>
              </g>
              <g id="Group_65088" data-name="Group 65088" transform="translate(11.699)">
                <path id="Path_74037" data-name="Path 74037" d="M1453.144,1007.691a.137.137,0,0,1-.111-.057c-2.8-3.846-5.464-7.858-7.927-11.925a.137.137,0,1,1,.235-.142c2.459,4.06,5.122,8.066,7.915,11.906a.137.137,0,0,1-.111.218Z" transform="translate(-1445.086 -995.501)" fill="#366fd1"/>
              </g>
              <g id="Group_65089" data-name="Group 65089" transform="translate(10.74 6.278)">
                <path id="Path_74038" data-name="Path 74038" d="M1437.612,1091.56a.137.137,0,0,1-.1-.04l-6.092-6.051a.138.138,0,1,1,.194-.2l6.092,6.051a.137.137,0,0,1-.1.235Z" transform="translate(-1431.383 -1085.234)" fill="#366fd1"/>
              </g>
              <g id="Group_65090" data-name="Group 65090" transform="translate(0 16.78)">
                <path id="Path_74039" data-name="Path 74039" d="M1292.409,1236.708h-.01l-14.4-1.084a.137.137,0,1,1,.021-.274l14.4,1.085a.137.137,0,0,1-.01.274Z" transform="translate(-1277.87 -1235.349)" fill="#366fd1"/>
              </g>
              <g id="Group_65091" data-name="Group 65091" transform="translate(8.648 20.634)">
                <path id="Path_74040" data-name="Path 74040" d="M1401.618,1291.661a.137.137,0,0,1-.039-.269,22.976,22.976,0,0,1,6.419-.962h0a.137.137,0,0,1,0,.275,22.709,22.709,0,0,0-6.343.951A.138.138,0,0,1,1401.618,1291.661Z" transform="translate(-1401.48 -1290.43)" fill="#366fd1"/>
              </g>
              <g id="Group_65092" data-name="Group 65092" transform="translate(5.837 23.902)">
                <path id="Path_74041" data-name="Path 74041" d="M1361.441,1345.547a.137.137,0,0,1-.087-.244l10.047-8.13a.137.137,0,1,1,.173.214l-10.046,8.13A.137.137,0,0,1,1361.441,1345.547Z" transform="translate(-1361.303 -1337.143)" fill="#366fd1"/>
              </g>
              <g id="Group_65093" data-name="Group 65093" transform="translate(0.577 26.609)">
                <path id="Path_74042" data-name="Path 74042" d="M1286.259,1378.673a.138.138,0,0,1-.068-.257,34.982,34.982,0,0,1,5.7-2.563.137.137,0,0,1,.09.26,34.717,34.717,0,0,0-5.651,2.543A.138.138,0,0,1,1286.259,1378.673Z" transform="translate(-1286.121 -1375.845)" fill="#366fd1"/>
              </g>
              <g id="Group_65094" data-name="Group 65094" transform="translate(2.471 2.332)">
                <path id="Path_74043" data-name="Path 74043" d="M1317.814,1032.635a.137.137,0,0,1-.085-.029l-4.484-3.52a.137.137,0,1,1,.17-.216l4.484,3.52a.138.138,0,0,1-.085.246Z" transform="translate(-1313.193 -1028.841)" fill="#366fd1"/>
              </g>
            </g>
            <g id="Group_65096" data-name="Group 65096" transform="translate(30.844 31.719)">
              <path id="Path_74044" data-name="Path 74044" d="M1721.381,1452.848a7.3,7.3,0,0,0,1.765,1.165,4.168,4.168,0,0,0,1.786.57.593.593,0,0,0,.588-.755,2.634,2.634,0,0,0-.9-1.2,7.7,7.7,0,0,0-1.188-.932c-.611-.388-1.79-1.32-2.454-.5C1720.455,1451.842,1720.878,1452.4,1721.381,1452.848Z" transform="translate(-1720.599 -1450.729)" fill="#ffa383"/>
              <path id="Path_74045" data-name="Path 74045" d="M1723.8,1451.959a1.052,1.052,0,0,0-.043-.153,1.606,1.606,0,0,0-.237-.434h0c-.055-.073-.114-.143-.176-.211h0c-.124-.136-.255-.261-.376-.375l-.1-.1a7.813,7.813,0,0,0-.777-.652h0c-.074-.054-.148-.107-.224-.159h0c-.069-.047-.138-.092-.208-.137l-.207-.136a6.9,6.9,0,0,0-.823-.49c-.556-.266-1.17-.382-1.605.156a1.082,1.082,0,0,0-.273.687.91.91,0,0,0,.035.251,1.158,1.158,0,0,0,.081.209h0a1.613,1.613,0,0,0,.176.277,2.57,2.57,0,0,0,.2.228h0c.065.067.132.13.2.188a7.414,7.414,0,0,0,1.333.949c.121.068.244.132.37.193h0l.094.045.158.075.015.007c.146.07.3.144.463.214h0a3.37,3.37,0,0,0,.946.281h0a.05.05,0,0,0,.016,0h0a1.157,1.157,0,0,0,.144.008c.036,0,.072,0,.107,0a.728.728,0,0,0,.71-.918Zm-.31.417a.54.54,0,0,1-.422.228h-.01a3.669,3.669,0,0,1-1.547-.482l-.16-.076q-.215-.1-.42-.215l-.034-.018h0c-.075-.042-.148-.085-.222-.13h0c-.117-.071-.231-.145-.344-.224l0,0a6.836,6.836,0,0,1-.663-.516h0c-.014-.012-.029-.024-.042-.037-.078-.07-.149-.138-.211-.2h0a2.053,2.053,0,0,1-.173-.206.766.766,0,0,1,0-1.052c.3-.375.739-.325,1.219-.1h0a6.456,6.456,0,0,1,.842.493l.212.14c.068.044.136.088.2.134h0c.076.051.151.1.224.159h0a7.361,7.361,0,0,1,.74.621l.1.1c.122.115.25.235.365.363h0a2.345,2.345,0,0,1,.175.213h0a1.179,1.179,0,0,1,.212.452.283.283,0,0,1,.006.044h0A.5.5,0,0,1,1723.485,1452.376Z" transform="translate(-1718.741 -1448.887)" fill="#d16945"/>
            </g>
            <g id="Group_65097" data-name="Group 65097" transform="translate(28.666 32.634)">
              <path id="Path_74046" data-name="Path 74046" d="M1690.261,1465.92a7.3,7.3,0,0,0,1.765,1.165,4.164,4.164,0,0,0,1.786.57.593.593,0,0,0,.587-.755,2.633,2.633,0,0,0-.9-1.2,7.675,7.675,0,0,0-1.189-.932c-.611-.388-1.79-1.32-2.454-.5C1689.336,1464.913,1689.759,1465.471,1690.261,1465.92Z" transform="translate(-1689.479 -1463.801)" fill="#ffa383"/>
              <path id="Path_74047" data-name="Path 74047" d="M1692.387,1464.689l-.022-.036h0l0,0-.005-.008-.018-.028-.024-.035-.016-.022-.029-.039-.007-.009-.011-.015-.011-.014-.033-.041-.012-.015-.01-.011c-.126-.061-.249-.125-.37-.193a2.857,2.857,0,0,1,.441.519l.022,0,.055,0,.073,0h0Zm-1.208.852h0c-.183-.065-.364-.144-.534-.222h0c-.092-.042-.179-.085-.262-.124l-.112-.052c.092.068.183.139.271.211l.023.018h0c.026.022.053.044.081.066l.091.073h0l.092.076.066-.009h0l.027.012.008,0,.04.015.008,0,.015.006.031.012.019.007.069.025.051.018.341-.046A2.979,2.979,0,0,1,1691.18,1465.542Zm1.208-.852-.022-.036h0l-.008-.013-.018-.028-.024-.035-.016-.022-.029-.039-.007-.009-.011-.015-.011-.014-.033-.041-.012-.015-.01-.011c-.126-.061-.249-.125-.37-.193a2.857,2.857,0,0,1,.441.519h0l.022,0,.055,0,.073,0h0Zm-1.208.852h0c-.183-.065-.364-.144-.534-.222h0c-.092-.042-.179-.085-.262-.124l-.112-.052c.092.068.183.139.271.211l.023.018h0c.026.022.053.044.081.066l.091.073h0l.092.076.066-.009h0l.027.012.008,0,.04.015.008,0,.015.006.031.012.019.007.069.025.051.018h0l.342-.047h0A2.979,2.979,0,0,1,1691.18,1465.542Zm1.49-.509a1.244,1.244,0,0,0-.108-.308,1.637,1.637,0,0,0-.108-.187,2.334,2.334,0,0,0-.182-.24h0c-.094-.109-.195-.211-.294-.306l-.026-.025h0l-.113-.108-.086-.081h0l-.017-.017a7.7,7.7,0,0,0-1.21-.949l-.022-.014h0l-.185-.122-.034-.023c-.082-.054-.171-.113-.265-.172-.061-.039-.124-.078-.189-.116-.631-.37-1.414-.672-1.939-.023a1.082,1.082,0,0,0-.273.687,1.365,1.365,0,0,0,.417.886c.074.082.151.156.229.228l0,0h0l.042.038q.186.167.384.32.157.124.321.237h0a7.333,7.333,0,0,0,1.091.63l.02.009c.045.02.091.042.138.065l.121.058h0c.08.037.162.076.246.113h0a.169.169,0,0,0,.028.012h0c.07.032.142.062.213.091h0c.059.025.117.048.176.068l.1.033h0a2.225,2.225,0,0,0,.7.132c.036,0,.072,0,.107,0a.809.809,0,0,0,.61-.32h0l.028-.043a.555.555,0,0,0,.049-.106h0a.736.736,0,0,0,.035-.143h0A.922.922,0,0,0,1692.669,1465.032Zm-.311.417a.366.366,0,0,1-.062.078h0a.588.588,0,0,1-.359.148,1.414,1.414,0,0,1-.429-.041h0a2.979,2.979,0,0,1-.325-.094h0c-.183-.065-.364-.144-.534-.222h0c-.092-.042-.179-.085-.262-.124l-.112-.052-.048-.023a7.32,7.32,0,0,1-.909-.508c-.044-.029-.088-.059-.132-.091h0c-.114-.078-.226-.161-.335-.248s-.24-.193-.355-.3c-.64-.571-.756-1.009-.387-1.463a.7.7,0,0,1,.572-.276,2.986,2.986,0,0,1,1.411.614l.079.052c.06.04.117.078.17.112h0c.014.01.028.018.042.027.082.053.164.107.244.163a7.454,7.454,0,0,1,.674.525l0,0c.083.073.165.148.245.224l.106.1.167.159a2.857,2.857,0,0,1,.441.519h0a1.1,1.1,0,0,1,.143.35.572.572,0,0,1-.01.29h0A.335.335,0,0,1,1692.359,1465.45Zm-1.179.092h0c-.183-.065-.364-.144-.534-.222h0c-.092-.042-.179-.085-.262-.124l-.112-.052c.092.068.183.139.271.211l.023.018h0c.026.022.053.044.081.066l.091.073h0l.092.076.066-.009h0l.027.012.008,0,.04.015.008,0,.015.006.031.012.019.007.069.025.051.018.341-.046A2.979,2.979,0,0,1,1691.18,1465.542Zm1.208-.852-.022-.036h0l0,0-.005-.008-.018-.028-.024-.035-.016-.022-.029-.039-.007-.009-.011-.015-.011-.014-.033-.041-.012-.015-.01-.011c-.126-.061-.249-.125-.37-.193a2.857,2.857,0,0,1,.441.519l.022,0,.055,0,.073,0h0Zm-1.208.852h0c-.183-.065-.364-.144-.534-.222h0c-.092-.042-.179-.085-.262-.124l-.112-.052c.092.068.183.139.271.211l.023.018h0c.026.022.053.044.081.066l.091.073h0l.092.076.066-.009h0l.027.012.008,0,.04.015.008,0,.015.006.031.012.019.007.069.025.051.018.341-.046A2.979,2.979,0,0,1,1691.18,1465.542Zm1.208-.852-.022-.036h0l0,0-.005-.008-.018-.028-.024-.035-.016-.022-.029-.039-.007-.009-.011-.015-.011-.014-.033-.041-.012-.015-.01-.011c-.126-.061-.249-.125-.37-.193a2.857,2.857,0,0,1,.441.519l.022,0,.055,0,.073,0h0Z" transform="translate(-1687.614 -1461.961)" fill="#d16945"/>
            </g>
            <g id="Group_65098" data-name="Group 65098" transform="translate(27.484 34.495)">
              <path id="Path_74048" data-name="Path 74048" d="M1673.322,1492.208a7.5,7.5,0,0,0,1.765.995,4.682,4.682,0,0,0,1.786.487.7.7,0,0,0,.53-.252.493.493,0,0,0,.057-.393c-.1-.413-.554-.744-.9-1.025a7.641,7.641,0,0,0-1.189-.8c-.611-.332-1.79-1.127-2.454-.427C1672.4,1491.349,1672.82,1491.825,1673.322,1492.208Z" transform="translate(-1672.543 -1490.38)" fill="#ffa383"/>
              <path id="Path_74049" data-name="Path 74049" d="M1673.564,1491.359l-.09-.037-.16-.064-.01,0,.009.006.009,0,.12.067.046.026.008,0,.044.027h0l.01-.012,0,0,.011-.013Zm-.09-.037-.16-.064-.01,0-.01,0-.005,0,.024.013.009,0,.12.067.046.026.008,0,.045.026.01-.012,0,0,.01-.013Zm2.3-.126a1.352,1.352,0,0,0-.387-.624h0c-.014-.013-.028-.027-.042-.041-.029-.027-.057-.055-.088-.081h0c-.045-.041-.092-.081-.138-.12h0l-.092-.076h0l-.091-.073c-.028-.022-.055-.044-.081-.066h0l-.023-.018c-.088-.072-.179-.143-.271-.211a7.881,7.881,0,0,0-.939-.6l-.118-.065h0l-.09-.051c-.085-.048-.178-.1-.277-.155-.157-.085-.329-.173-.507-.248h0a3.076,3.076,0,0,0-.3-.111,1.215,1.215,0,0,0-1.322.23.857.857,0,0,0-.275.664,1.4,1.4,0,0,0,.616.89c.026.022.052.042.077.061s.054.041.082.06h0c.069.052.137.1.208.148.142.1.287.193.437.28h0a7.839,7.839,0,0,0,1.069.525l.158.064.023.009c.159.065.336.136.521.2.135.048.275.094.416.13h0l.12.031h0c.061.013.121.025.182.035a1.917,1.917,0,0,0,.232.025h0s0,0,0,0q.045,0,.089,0c.034,0,.068,0,.1,0a1.141,1.141,0,0,0,.126-.017h0a.768.768,0,0,0,.506-.294A.628.628,0,0,0,1675.771,1491.2Zm-.3.346a.565.565,0,0,1-.426.192,1.747,1.747,0,0,1-.489-.045h0a3.712,3.712,0,0,1-.419-.117l-.089-.031c-.073-.025-.143-.051-.214-.078h0c-.091-.035-.179-.07-.262-.1h0l-.09-.037-.16-.064-.01,0-.01,0-.005,0h0a7.381,7.381,0,0,1-.977-.479c-.047-.027-.094-.055-.141-.083h0c-.124-.076-.244-.155-.362-.238-.076-.053-.151-.108-.225-.164-.241-.184-.563-.462-.587-.755a.6.6,0,0,1,.2-.453.767.767,0,0,1,.583-.236,2.756,2.756,0,0,1,1.2.405c.1.056.2.113.3.165l.056.032.156.087a7.423,7.423,0,0,1,.925.592c.071.053.141.107.209.162h0l.033.027.089.072h0l.016.012.131.106c.048.038.1.078.143.119h0a1.362,1.362,0,0,1,.471.639A.366.366,0,0,1,1675.466,1491.542Zm-1.9-.183-.09-.037-.16-.064-.01,0-.01,0,.019.011.009,0,.12.067.046.026.008,0,.044.027h0l.01-.012,0,0,.011-.013Zm0,0-.09-.037-.16-.064-.01,0,.009.006.009,0,.12.067.046.026.008,0,.044.027h0l.01-.012,0,0,.011-.013Z" transform="translate(-1670.719 -1488.562)" fill="#d16945"/>
            </g>
            <g id="Group_65099" data-name="Group 65099" transform="translate(27.255 36.355)">
              <path id="Path_74050" data-name="Path 74050" d="M1670.051,1518.786a7.51,7.51,0,0,0,1.765.995,4.683,4.683,0,0,0,1.786.486.7.7,0,0,0,.53-.252.493.493,0,0,0,.057-.393c-.1-.413-.554-.745-.9-1.026a7.635,7.635,0,0,0-1.188-.8c-.611-.332-1.79-1.127-2.454-.427C1669.125,1517.926,1669.548,1518.4,1670.051,1518.786Z" transform="translate(-1669.271 -1516.958)" fill="#ffa383"/>
              <path id="Path_74051" data-name="Path 74051" d="M1672.5,1517.781a1,1,0,0,0-.087-.23h0a2.361,2.361,0,0,0-.624-.681l0,0-.127-.1-.067-.054-.037-.03c-.067-.055-.135-.109-.205-.161h0q-.171-.132-.351-.252c-.092-.062-.185-.123-.28-.181h0c-.044-.027-.088-.054-.133-.08h0c-.079-.047-.158-.092-.239-.136-.063-.034-.133-.074-.208-.116a7.588,7.588,0,0,0-.765-.394h0a2.8,2.8,0,0,0-.607-.188,1.6,1.6,0,0,0-.266-.023,1.16,1.16,0,0,0-.2.016,1,1,0,0,0-.57.3.861.861,0,0,0-.275.665,1.426,1.426,0,0,0,.635.9h0l.059.046a7.512,7.512,0,0,0,1.31.8h0c.158.076.32.147.485.213l.034.013h0l.124.051a5.531,5.531,0,0,0,1.382.423h0a1.771,1.771,0,0,0,.2.012c.034,0,.068,0,.1,0a.95.95,0,0,0,.476-.157h0a.577.577,0,0,0,.157-.155A.625.625,0,0,0,1672.5,1517.781Zm-.268.062a.366.366,0,0,1-.037.284.316.316,0,0,1-.087.085h0a.684.684,0,0,1-.338.107l-.047,0h0a3.815,3.815,0,0,1-1.366-.353h0l-.15-.06-.159-.065c-.163-.065-.324-.136-.48-.212h0a7.162,7.162,0,0,1-1.252-.764l-.058-.045h0c-.231-.183-.506-.44-.528-.709a.6.6,0,0,1,.2-.453.766.766,0,0,1,.582-.236,1.187,1.187,0,0,1,.156.011,1.9,1.9,0,0,1,.4.1h0l.132.051h0a7.016,7.016,0,0,1,.8.408l.179.1h0l.028.016c.068.037.135.074.2.113q.235.137.457.289c.176.119.346.246.509.379l.106.085a2.167,2.167,0,0,1,.724.8h0A.543.543,0,0,1,1672.229,1517.842Z" transform="translate(-1667.445 -1515.147)" fill="#d16945"/>
            </g>
            <path id="Path_74052" data-name="Path 74052" d="M1718.527,1511.531a4.229,4.229,0,0,1-3.211-.631,1.133,1.133,0,0,1-.411-.42.471.471,0,0,1,.076-.548.713.713,0,0,1,.382-.13l4.176-.567c.112-.015.108.147.143.255a.842.842,0,0,1,.023.335A1.871,1.871,0,0,1,1718.527,1511.531Z" transform="translate(-1684.28 -1473.292)" fill="#ffa383"/>
            <g id="Group_65100" data-name="Group 65100" transform="translate(30.435 35.805)">
              <path id="Path_74053" data-name="Path 74053" d="M1715.869,1509.941a4.4,4.4,0,0,1-2.449-.741,1.262,1.262,0,0,1-.458-.474.61.61,0,0,1,.11-.711.838.838,0,0,1,.454-.163l4.176-.567a.137.137,0,1,1,.037.272l-4.176.567a.6.6,0,0,0-.311.1.338.338,0,0,0-.042.385,1.022,1.022,0,0,0,.364.366,4.113,4.113,0,0,0,3.106.61.137.137,0,0,1,.057.269A4.188,4.188,0,0,1,1715.869,1509.941Z" transform="translate(-1712.896 -1507.283)" fill="#d16945"/>
            </g>
          </g>
          <path id="Path_74054" data-name="Path 74054" d="M1992.211,1528.086c-1.715,3.214-2.745,10.528-2.745,10.528s-8.484.359-7.58-1.169a33.5,33.5,0,0,0,1.949-4.164,17.806,17.806,0,0,0,.774-2.338c.018-.083.035-.161.048-.236C1984.657,1530.707,1993.926,1524.873,1992.211,1528.086Z" transform="translate(-1932.569 -1489.928)" fill="#ffa383"/>
          <path id="Path_74055" data-name="Path 74055" d="M2015.026,1582.387c-1.106,1.345-3.184,1.669-4.385,1.7a17.827,17.827,0,0,0,.774-2.338Z" transform="translate(-1959.376 -1540.734)" fill="#d16945"/>
          <path id="Path_74056" data-name="Path 74056" d="M1957.922,1376.975c-1.934,4.623-4.18,9.614-2.839,11.985s4.086,3.119,7.3,2.246,6.551-6.909,4.929-6.683-1.466-.834-.437-3.236,1.5-4.648-.718-5.334C1964.411,1377.792,1959.269,1377.811,1957.922,1376.975Z" transform="translate(-1907.327 -1349.335)" fill="#ffa383"/>
          <ellipse id="Ellipse_3538" data-name="Ellipse 3538" cx="2.144" cy="1.608" rx="2.144" ry="1.608" transform="translate(57.964 36.708) rotate(-40.447)" fill="#ffa383"/>
          <g id="Group_65106" data-name="Group 65106" transform="translate(49.244 28.723)">
            <g id="Group_65102" data-name="Group 65102" transform="translate(0.915 2.29)">
              <ellipse id="Ellipse_3539" data-name="Ellipse 3539" cx="0.749" cy="0.515" rx="0.749" ry="0.515" transform="translate(3.5 2.737) rotate(-64.765)" fill="#181c39"/>
              <path id="Path_74057" data-name="Path 74057" d="M1995.86,1439.717c-.176.374-.528.579-.785.458s-.323-.523-.146-.9.528-.579.785-.458S1996.037,1439.343,1995.86,1439.717Z" transform="translate(-1994.83 -1438.786)" fill="#181c39"/>
            </g>
            <g id="Group_65103" data-name="Group 65103" transform="translate(0.346 3.29)">
              <path id="Path_74058" data-name="Path 74058" d="M1988.059,1456.572a.139.139,0,0,1-.052-.01,2.752,2.752,0,0,1-1.132-.859.654.654,0,0,1-.165-.553.514.514,0,0,1,.276-.307,1.314,1.314,0,0,1,.281-.094l.043-.011a3.4,3.4,0,0,0,2.074-1.592.137.137,0,0,1,.24.135,3.679,3.679,0,0,1-2.245,1.723l-.045.011a1.077,1.077,0,0,0-.224.073.249.249,0,0,0-.135.138c-.022.076.016.177.118.308a2.476,2.476,0,0,0,1.018.773.137.137,0,0,1-.052.265Z" transform="translate(-1986.694 -1453.076)" fill="#d16945"/>
            </g>
            <g id="Group_65104" data-name="Group 65104" transform="translate(0 7.807)">
              <path id="Path_74059" data-name="Path 74059" d="M1982.366,1530.053a1.641,1.641,0,0,0,.758.815,1.913,1.913,0,0,0,1.567-.035,2.956,2.956,0,0,0,.379-.2,4.632,4.632,0,0,1-2.788-.851A1.3,1.3,0,0,0,1982.366,1530.053Z" transform="translate(-1982.245 -1528.935)" fill="#942539"/>
              <path id="Path_74060" data-name="Path 74060" d="M1981.774,1517.644a3.156,3.156,0,0,0,.017.849,4.631,4.631,0,0,0,2.788.851,8.371,8.371,0,0,0,.943-.715A8.034,8.034,0,0,1,1981.774,1517.644Z" transform="translate(-1981.753 -1517.644)" fill="#fff"/>
            </g>
            <g id="Group_65105" data-name="Group 65105" transform="translate(1.188)">
              <path id="Path_74061" data-name="Path 74061" d="M2054.751,1426.418a1.327,1.327,0,0,1,.851-.388,1.68,1.68,0,0,1,.952.194,1.753,1.753,0,0,1,.7.674,1.4,1.4,0,0,1,.185.91.148.148,0,0,1-.262.068l-.006-.008a3.729,3.729,0,0,0-.494-.525,2.479,2.479,0,0,0-.519-.348,3.027,3.027,0,0,0-.584-.208,4.994,4.994,0,0,0-.714-.115h-.01a.151.151,0,0,1-.1-.253Z" transform="translate(-2050.794 -1424.625)" fill="#242424"/>
              <path id="Path_74062" data-name="Path 74062" d="M1998.756,1406.469a1.071,1.071,0,0,1,.645-.387,1.3,1.3,0,0,1,.789.085,1.252,1.252,0,0,1,.59.537.993.993,0,0,1,.1.754.149.149,0,0,1-.264.044l-.009-.013a2.62,2.62,0,0,0-.353-.409,1.679,1.679,0,0,0-.369-.265,1.377,1.377,0,0,0-.442-.131,1.885,1.885,0,0,0-.539.013l-.013,0a.145.145,0,0,1-.139-.231Z" transform="translate(-1998.727 -1406.055)" fill="#242424"/>
            </g>
          </g>
          <g id="Group_65107" data-name="Group 65107" transform="translate(58.693 23.376)">
            <path id="Path_74063" data-name="Path 74063" d="M2116.947,1333a.137.137,0,0,1-.112-.217,8.716,8.716,0,0,1,5.263-3.159.137.137,0,0,1,.056.269,8.44,8.44,0,0,0-5.094,3.048A.137.137,0,0,1,2116.947,1333Z" transform="translate(-2116.81 -1329.622)" fill="#748bb5"/>
          </g>
          <g id="Group_65113" data-name="Group 65113" transform="translate(34.791 62.741)">
            <path id="Path_74064" data-name="Path 74064" d="M1786.733,1899.8a29.2,29.2,0,0,0-1.418-4.682c-.246-.62-.361-1.228-.956-1.6a6.2,6.2,0,0,0-1.683-.6,11.166,11.166,0,0,0-2.8-.4c-.567-.007-1.153-.377-1.677-.161a1.275,1.275,0,0,0-.7.754,1.546,1.546,0,0,0,.021,1.036,1.237,1.237,0,0,0-.927.6,1.031,1.031,0,0,0,.1,1,.942.942,0,0,0-.887.477.92.92,0,0,0,.008,1,.9.9,0,0,0-.6.619,1.152,1.152,0,0,0,.068.829,2.216,2.216,0,0,0,.51.675,12.4,12.4,0,0,0,3.964,2.454c1.771.729,3.7.229,5.607.019A1.713,1.713,0,0,0,1786.733,1899.8Z" transform="translate(-1775.162 -1892.293)" fill="#ffa383"/>
            <g id="Group_65108" data-name="Group 65108" transform="translate(4.337 0.069)">
              <path id="Path_74065" data-name="Path 74065" d="M1837.166,1893.476a.137.137,0,0,1,.2-.167l3.833,2.643a.138.138,0,1,1-.156.226l-3.833-2.643A.138.138,0,0,1,1837.166,1893.476Z" transform="translate(-1837.155 -1893.285)" fill="#d16945"/>
            </g>
            <g id="Group_65109" data-name="Group 65109" transform="translate(2.221 1.721)">
              <path id="Path_74066" data-name="Path 74066" d="M1806.92,1917.083a.138.138,0,0,1,.2-.169l2.254,1.48a.137.137,0,1,1-.151.23l-2.254-1.48A.136.136,0,0,1,1806.92,1917.083Z" transform="translate(-1806.908 -1916.892)" fill="#d16945"/>
            </g>
            <g id="Group_65110" data-name="Group 65110" transform="translate(1.394 3.321)">
              <path id="Path_74067" data-name="Path 74067" d="M1795.1,1939.953a.138.138,0,0,1,.2-.171l2.2,1.353a.137.137,0,1,1-.144.234l-2.2-1.353A.136.136,0,0,1,1795.1,1939.953Z" transform="translate(-1795.085 -1939.762)" fill="#d16945"/>
            </g>
            <g id="Group_65111" data-name="Group 65111" transform="translate(0.516 4.793)">
              <path id="Path_74068" data-name="Path 74068" d="M1782.542,1961a.137.137,0,0,1,.21-.163l2.044,1.577a.137.137,0,1,1-.168.218l-2.044-1.577A.137.137,0,0,1,1782.542,1961Z" transform="translate(-1782.531 -1960.805)" fill="#d16945"/>
            </g>
            <path id="Path_74069" data-name="Path 74069" d="M1901.306,1970.345c1.371-.823,1.632-2.794,1.813-4.166a15.386,15.386,0,0,0-.1-3.953,34.971,34.971,0,0,0-.635-3.889,8.353,8.353,0,0,1-4.059.824,8.481,8.481,0,0,1-4.962-1.988c.259,1.163.5,2.4.7,3.7q.213,1.369.35,2.652l-17.028-4.826-4.092,1.854a71.939,71.939,0,0,0,12.7,7.081s3.333,1.434,12.877,2.988A3.327,3.327,0,0,0,1901.306,1970.345Z" transform="translate(-1866.427 -1952.634)" fill="#ffa383"/>
            <g id="Group_65112" data-name="Group 65112" transform="translate(28.821 10.641)">
              <path id="Path_74070" data-name="Path 74070" d="M2187.125,2044.585a.138.138,0,0,1,.144-.19l3.121.394a.137.137,0,1,1-.034.273l-3.121-.394A.137.137,0,0,1,2187.125,2044.585Z" transform="translate(-2187.114 -2044.394)" fill="#d16945"/>
            </g>
          </g>
        </g>
        <g id="man" transform="translate(897.323 856.162)">
          <path id="Path_74071" data-name="Path 74071" d="M2656.253,2205.781c-2.589.845-5.426,1.646-8.5,2.339a94.325,94.325,0,0,1-12.864,1.981q.594-1.644,1.172-3.369.449-1.341.858-2.65l18.913-1.2Z" transform="translate(-2613.832 -2130.191)" fill="#242424"/>
          <path id="Path_74072" data-name="Path 74072" d="M2961.629,1869.085c2.233.486,1.613-2.457.937-4.743s-4.368,1.029-4.368,1.029Z" transform="translate(-2914.517 -1814.59)" fill="#1a2c4d"/>
          <path id="Path_74073" data-name="Path 74073" d="M2491,1726.956a9.7,9.7,0,0,1-1.653-2.62,16.967,16.967,0,0,1-1.2-9.177l-.007,0c-.3-.091-9.792-3-11.79-3.758a9.036,9.036,0,0,0-5.453-.45c-1.712.385-7.989,1.093-11.54.385-1.755-.349-4.58,1.033-7.194,3.722l6.656,12.3.041-.06a20.887,20.887,0,0,1,3.223,6.151c1.493,4.641,3.361,7.163,3.361,11.7,0,1.479,1.775,1.929,1.775,1.929,7.842.482,11.156.815,12.467,1.048a7.358,7.358,0,0,0,1.124.116,7.614,7.614,0,0,0,3.7-.841,9.492,9.492,0,0,0,1.993-2.769c1.034-2.2.956-4.35.552-7.084a53.6,53.6,0,0,0-3.1-11.557Z" transform="translate(-2443.892 -1672.461)" fill="#001968"/>
          <ellipse id="Ellipse_3540" data-name="Ellipse 3540" cx="2.944" cy="2.208" rx="2.944" ry="2.208" transform="translate(17.908 13.525) rotate(-56.033)" fill="#242424"/>
          <path id="Path_74074" data-name="Path 74074" d="M2336.944,1967c2.23.651,18.827-1.1,23.458-3.109s4.046-3.125-3.025-2.97a68.218,68.218,0,0,1-14.538-1.569l1.937-4.857.611-1.55a17.742,17.742,0,0,1-2.978-.8,18.248,18.248,0,0,1-5.832-3.482,58.833,58.833,0,0,1-1.774,7.987,49.021,49.021,0,0,0-.905,5.4C2333.56,1964.855,2334.713,1966.349,2336.944,1967Z" transform="translate(-2333.841 -1893.764)" fill="#ff9b78"/>
          <path id="Path_74075" data-name="Path 74075" d="M2918.708,1665.619l1.5.395,1.163.306-.051-.066-6.477-8.532,3.991-.341c4.312,4.37,12.343,7.284,14.626,10.8s2.79,6.172-1.1,6.857c-2.389.421-7.088.163-10.359-.1A13.054,13.054,0,0,1,2918.708,1665.619Z" transform="translate(-2874.197 -1622.855)" fill="#ff9b78"/>
          <path id="Path_74076" data-name="Path 74076" d="M2965.631,1783.372c.612.059,1.422.133,2.348.207a13.054,13.054,0,0,1-3.3-9.319l-.249-.065A16.968,16.968,0,0,0,2965.631,1783.372Z" transform="translate(-2920.173 -1731.497)" fill="#c7603e"/>
          <path id="Path_74077" data-name="Path 74077" d="M2991.517,1780.781c1.628,2.465,5.782,5.624,5.854,5.679l-4.691-5.373Z" transform="translate(-2945.505 -1737.622)" fill="#c7603e"/>
          <g id="Group_65114" data-name="Group 65114" transform="translate(35.824 44.77)">
            <path id="Path_74078" data-name="Path 74078" d="M2850.147,1812.689a.124.124,0,0,0,.033,0,.126.126,0,0,0,.087-.155c-.924-3.428-4.108-8.617-4.14-8.669a.123.123,0,0,0-.171-.04.127.127,0,0,0-.04.173c.032.052,3.2,5.21,4.111,8.6A.125.125,0,0,0,2850.147,1812.689Z" transform="translate(-2845.897 -1803.801)" fill="#134caa"/>
          </g>
          <path id="Path_74079" data-name="Path 74079" d="M2527.2,1557.495l.761,2.979,1.923,6.493,7.081,1.979,2.726,2.607v-1.736l-2.518-5.785-1.138-2.615-.845-.375Z" transform="translate(-2513.673 -1529.957)" fill="#ff9b78"/>
          <g id="Group_65115" data-name="Group 65115" transform="translate(25.895 41.47)">
            <path id="Path_74080" data-name="Path 74080" d="M2714.025,1790.485a.124.124,0,0,0,.12-.093c.889-3.294-.014-9.649-2.479-17.435-2.193-6.926-5.2-13.468-7.474-16.28a.123.123,0,0,0-.175-.017.127.127,0,0,0-.017.177c4.7,5.8,11.843,26.311,9.905,33.488a.125.125,0,0,0,.12.159Z" transform="translate(-2703.971 -1756.632)" fill="#134caa"/>
          </g>
          <g id="Group_65116" data-name="Group 65116" transform="translate(37.939 71.216)">
            <path id="Path_74081" data-name="Path 74081" d="M2876.808,2186.23a.123.123,0,0,0,.067-.02,6.511,6.511,0,0,0,2.721-3.048,1.179,1.179,0,0,0,.045-.937.857.857,0,0,0-1-.37,1.9,1.9,0,0,0-.846.615,6.942,6.942,0,0,0-1.666,3.594.126.126,0,0,0,.1.143.124.124,0,0,0,.141-.106,6.688,6.688,0,0,1,1.6-3.462,1.686,1.686,0,0,1,.73-.542.617.617,0,0,1,.714.243.965.965,0,0,1-.057.733,6.275,6.275,0,0,1-2.624,2.926.127.127,0,0,0-.037.174A.124.124,0,0,0,2876.808,2186.23Z" transform="translate(-2876.124 -2181.818)" fill="#1a2c4d"/>
          </g>
          <g id="Group_65117" data-name="Group 65117" transform="translate(36.716 73.106)">
            <path id="Path_74082" data-name="Path 74082" d="M2858.765,2211.281a.125.125,0,0,0,.124-.122,4.574,4.574,0,0,1,.416-1.765.818.818,0,0,1,.145-.235.23.23,0,0,1,.182-.078.241.241,0,0,1,.17.188.8.8,0,0,1-.022.359,4.156,4.156,0,0,1-.592,1.389.127.127,0,0,0,.034.175.123.123,0,0,0,.172-.034,4.418,4.418,0,0,0,.627-1.473,1.042,1.042,0,0,0,.021-.475.483.483,0,0,0-.378-.377.473.473,0,0,0-.39.148,1.039,1.039,0,0,0-.2.306,4.827,4.827,0,0,0-.439,1.865.125.125,0,0,0,.12.13Z" transform="translate(-2858.641 -2208.829)" fill="#1a2c4d"/>
          </g>
          <g id="Group_65118" data-name="Group 65118" transform="translate(24.998 71.354)">
            <path id="Path_74083" data-name="Path 74083" d="M2694.488,2187.482a.118.118,0,0,0,.043-.008.126.126,0,0,0,.073-.162,11.5,11.5,0,0,0-.817-1.868,3.838,3.838,0,0,0-1.429-1.473,1.211,1.211,0,0,0-.587-.176.623.623,0,0,0-.568.339c-.178.387.169.793.283.927a17.645,17.645,0,0,0,2.469,2.376.123.123,0,0,0,.174-.022.127.127,0,0,0-.022-.177,17.392,17.392,0,0,1-2.433-2.343c-.239-.28-.32-.494-.246-.655a.385.385,0,0,1,.346-.194.946.946,0,0,1,.466.146,3.593,3.593,0,0,1,1.333,1.38,11.3,11.3,0,0,1,.8,1.827A.124.124,0,0,0,2694.488,2187.482Z" transform="translate(-2691.154 -2183.795)" fill="#1a2c4d"/>
          </g>
          <g id="Group_65119" data-name="Group 65119" transform="translate(24.538 36.616)">
            <path id="Path_74084" data-name="Path 74084" d="M2686.351,1689.062l3.026.5,2.811,4.522-4.481-1.907Z" transform="translate(-2686.227 -1688.937)" fill="#2f518a"/>
            <path id="Path_74085" data-name="Path 74085" d="M2690.646,1692.347l-1.186-1.906h0l-.943-1.518h0l-.682-1.1a.121.121,0,0,0-.085-.057l-3.026-.5a.128.128,0,0,0-.07.009h0a.117.117,0,0,0-.048.038.129.129,0,0,0-.016.128l.854,1.963h0l.5,1.153a.121.121,0,0,0,.066.065l.048.02h0l.087.036h0l4.343,1.85a.117.117,0,0,0,.048.01.126.126,0,0,0,.1-.044A.128.128,0,0,0,2690.646,1692.347Zm-3.9-1.683h0l-.594-.253-.453-1.042-.791-1.817,2.745.456.582.937.951,1.53h0l1.038,1.669Z" transform="translate(-2684.58 -1687.264)" fill="#1a2c4d"/>
          </g>
          <g id="Group_65120" data-name="Group 65120" transform="translate(13.807 35.426)">
            <path id="Path_74086" data-name="Path 74086" d="M2542.239,1674.861l-7.883-2.807-1.394,3.076,8.262,4.982Z" transform="translate(-2532.838 -1671.927)" fill="#2f518a"/>
            <path id="Path_74087" data-name="Path 74087" d="M2540.629,1673.068l-7.459-2.657h0l-.424-.151a.124.124,0,0,0-.154.066l-1.061,2.34h0l-.333.736a.127.127,0,0,0,.049.161l.266.16h0l8,4.82a.122.122,0,0,0,.114.007.127.127,0,0,0,.073-.091l.713-3.695h0l.182-.943h0l.005-.028h0l.113-.583A.125.125,0,0,0,2540.629,1673.068Zm-.272.659h0l-.023.117h0l-.174.9-.674,3.492-7.578-4.57h0l-.436-.263.292-.642h0l1.008-2.224.489.174h0l7.186,2.559Z" transform="translate(-2531.186 -1670.253)" fill="#1a2c4d"/>
          </g>
          <g id="Group_65121" data-name="Group 65121" transform="translate(6 64.93)">
            <path id="Path_74088" data-name="Path 74088" d="M2422.722,2092.7a.124.124,0,0,0,.007-.028.126.126,0,0,0-.1-.143c-1.1-.167-2.85-.546-2.868-.55a.124.124,0,0,0-.147.1.126.126,0,0,0,.1.149c.018,0,1.777.384,2.883.553A.124.124,0,0,0,2422.722,2092.7Z" transform="translate(-2419.608 -2091.974)" fill="#c7603e"/>
          </g>
          <path id="Path_74089" data-name="Path 74089" d="M2577.76,1609.179c1.173,1.17,4.445,1.744,6.436,1.994l-1.138-2.615-.845-.375-4.242.1Z" transform="translate(-2560.695 -1577.098)" fill="#d16945"/>
          <g id="Group_65126" data-name="Group 65126" transform="translate(24.606 62.868)">
            <path id="Path_74090" data-name="Path 74090" d="M2693.965,2070.076c.745-.3,1.982-.56,1.97-1.58a.706.706,0,0,0-.516-.741.918.918,0,0,0,.233-.926.886.886,0,0,0-.754-.562,1.238,1.238,0,0,0,.4-1.049.863.863,0,0,0-.736-.772.69.69,0,0,0,.073-.916,1.092,1.092,0,0,0-.886-.394,3.258,3.258,0,0,0-1,.12.485.485,0,0,0,.164-.4.394.394,0,0,0-.164-.353q-1.328.023-2.65.155-.648.064-1.293.155a.87.87,0,0,0-.771.464,16.187,16.187,0,0,1-2.474,4.373,7.123,7.123,0,0,1,1.042,2.052,22.12,22.12,0,0,0,2.384.868,6.1,6.1,0,0,0,3.722-.019Q2693.341,2070.328,2693.965,2070.076Z" transform="translate(-2685.557 -2062.499)" fill="#ff9b78"/>
            <g id="Group_65122" data-name="Group 65122" transform="translate(7.116 1.821)">
              <path id="Path_74091" data-name="Path 74091" d="M2789.279,2088.705a.129.129,0,0,0,0-.092.123.123,0,0,0-.161-.071l-1.764.7a.127.127,0,0,0-.07.163.124.124,0,0,0,.161.071l1.764-.7A.125.125,0,0,0,2789.279,2088.705Z" transform="translate(-2787.275 -2088.533)" fill="#d16945"/>
            </g>
            <g id="Group_65123" data-name="Group 65123" transform="translate(7.517 3.642)">
              <path id="Path_74092" data-name="Path 74092" d="M2794.945,2114.729a.128.128,0,0,0,0-.091.123.123,0,0,0-.16-.073l-1.7.656a.126.126,0,0,0-.072.162.123.123,0,0,0,.16.073l1.7-.656A.124.124,0,0,0,2794.945,2114.729Z" transform="translate(-2793.004 -2114.558)" fill="#c7603e"/>
            </g>
            <g id="Group_65124" data-name="Group 65124" transform="translate(8.187 5.13)">
              <path id="Path_74093" data-name="Path 74093" d="M2804.375,2136a.127.127,0,0,0,0-.095.124.124,0,0,0-.163-.068l-1.551.657a.127.127,0,0,0-.067.165.124.124,0,0,0,.162.067l1.551-.657A.125.125,0,0,0,2804.375,2136Z" transform="translate(-2802.585 -2135.829)" fill="#c7603e"/>
            </g>
            <g id="Group_65125" data-name="Group 65125" transform="translate(3.299 0.631)">
              <path id="Path_74094" data-name="Path 74094" d="M2736.716,2071.689a.127.127,0,0,0,0-.087.123.123,0,0,0-.158-.078l-3.766,1.312a.126.126,0,0,0-.077.16.124.124,0,0,0,.158.078l3.766-1.312A.125.125,0,0,0,2736.716,2071.689Z" transform="translate(-2732.71 -2071.517)" fill="#c7603e"/>
            </g>
          </g>
          <path id="Path_74095" data-name="Path 74095" d="M2483.7,1321.642s5.876,12.9,6.214,14.615a10.572,10.572,0,0,1-.232,5.006c-.4.695-2.283,1.5-3.266,1.7s-5,.105-5.844-.343-2.452-3.748-2.452-3.748l-4.692-10.5,1.86-3.386Z" transform="translate(-2463.667 -1310.605)" fill="#ff9b78"/>
          <path id="Path_74096" data-name="Path 74096" d="M2433.555,1380.507c-1.1,1.627-.254,2.442.423,4.413s2.494,5.743,2.494,5.743-1.106.577-1.584.171,1.246,5.131,1.246,5.131-.423.588-1.1,0-2.01-4.016-2.01-4.016a80.461,80.461,0,0,1-5.092-6.6c-1.353-2.357.819-5.5,2.579-5.743a9.531,9.531,0,0,1,2.959,0Z" transform="translate(-2420.957 -1364.411)" fill="#242424"/>
          <path id="Path_74097" data-name="Path 74097" d="M2487.085,1514.787a2.222,2.222,0,0,0,3.021.841c.889-.643.677-1.782-.1-2.89s-1.832-1.765-2.721-1.121A2.293,2.293,0,0,0,2487.085,1514.787Z" transform="translate(-2475.87 -1487.053)" fill="#ff9b78"/>
          <g id="Group_65127" data-name="Group 65127" transform="translate(20.854 22.16)">
            <path id="Path_74098" data-name="Path 74098" d="M2633.7,1484.055a.124.124,0,0,0,.039-.006,1.9,1.9,0,0,0,1.116-1.009.619.619,0,0,0,.03-.562.72.72,0,0,0-.487-.3,4.371,4.371,0,0,1-2.249-1.5.123.123,0,0,0-.175-.02.127.127,0,0,0-.02.177,4.616,4.616,0,0,0,2.373,1.589c.143.04.287.08.34.178a.416.416,0,0,1-.038.335,1.647,1.647,0,0,1-.967.874.126.126,0,0,0-.079.159A.124.124,0,0,0,2633.7,1484.055Z" transform="translate(-2631.924 -1480.63)" fill="#c7603e"/>
          </g>
          <ellipse id="Ellipse_3541" data-name="Ellipse 3541" cx="5.913" cy="3.756" rx="5.913" ry="3.756" transform="translate(10.954 13.347) rotate(-55.353)" fill="#242424"/>
          <ellipse id="Ellipse_3542" data-name="Ellipse 3542" cx="5.013" cy="2.931" rx="5.013" ry="2.931" transform="translate(7.765 15.996) rotate(-69.907)" fill="#242424"/>
          <path id="Path_74099" data-name="Path 74099" d="M2624.161,1541.919a7.19,7.19,0,0,1-.852-.891,6.812,6.812,0,0,0,4.512-.793c.013.25.03.507.022.76A4.919,4.919,0,0,1,2624.161,1541.919Z" transform="translate(-2603.058 -1513.905)" fill="#fff"/>
          <path id="Path_74100" data-name="Path 74100" d="M2639.175,1551.106a2.126,2.126,0,0,1-.216.954,1.734,1.734,0,0,1-1.216.863,2.083,2.083,0,0,1-1.469-.314,6.538,6.538,0,0,1-.781-.579A4.92,4.92,0,0,0,2639.175,1551.106Z" transform="translate(-2614.389 -1524.015)" fill="#8a1c30"/>
          <path id="Path_74101" data-name="Path 74101" d="M2592.655,1483.324c.179.352.512.54.744.419s.274-.5.1-.857-.512-.54-.744-.418S2592.475,1482.971,2592.655,1483.324Z" transform="translate(-2574.445 -1460.144)" fill="#3d0129"/>
          <path id="Path_74102" data-name="Path 74102" d="M2646.757,1457.876c.179.352.512.54.744.418s.274-.5.1-.857-.512-.54-.744-.419S2646.578,1457.523,2646.757,1457.876Z" transform="translate(-2624.762 -1436.476)" fill="#3d0129"/>
          <path id="Path_74103" data-name="Path 74103" d="M2565.625,1443.992c.195.3.757.278,1.463-.191s.862-.921.668-1.223-.667-.338-1.373.131S2565.431,1443.691,2565.625,1443.992Z" transform="translate(-2549.35 -1422.872)" fill="#242424"/>
          <path id="Path_74104" data-name="Path 74104" d="M2623.317,1421.938c.195.3.757.278,1.463-.191s.862-.921.668-1.223-.667-.338-1.372.131S2623.122,1421.637,2623.317,1421.938Z" transform="translate(-2603.005 -1402.361)" fill="#242424"/>
          <path id="Path_74105" data-name="Path 74105" d="M2884.328,1604.384a11.956,11.956,0,0,1-3.022-1.139c-.935-.545-1.919-1.16-2.093-2.239a4.517,4.517,0,0,1,.234-2.3,1.981,1.981,0,0,1,1.86-.98,2.973,2.973,0,0,1,2.007.761,5.6,5.6,0,0,1,1.308,1.766,5.434,5.434,0,0,1,.643,2.157A2.846,2.846,0,0,1,2884.328,1604.384Z" transform="translate(-2841.005 -1567.368)" fill="#ff9b78"/>
          <g id="Group_65142" data-name="Group 65142" transform="translate(28.078 0)">
            <path id="Path_74106" data-name="Path 74106" d="M2759.673,1244.713a50.153,50.153,0,0,0,20.157-17.2s7.642,16.025,5.537,19.987c-8.742-1.93-19.521,1.057-23.687,2.405A5.715,5.715,0,0,1,2759.673,1244.713Z" transform="translate(-2757.898 -1223.064)" fill="#f0f0f0"/>
            <path id="Path_74107" data-name="Path 74107" d="M2735.712,1473.835c.388-.15.8-.323,1.236-.517a5.715,5.715,0,0,0,2.007,5.2c-1.116.361-1.758.6-1.758.6S2733.912,1476.215,2735.712,1473.835Z" transform="translate(-2735.173 -1451.67)" fill="#2f518a"/>
            <g id="Group_65128" data-name="Group 65128" transform="translate(20.32 2.98)">
              <path id="Path_74108" data-name="Path 74108" d="M3026.218,1218.784c1.1,4.458,3.449,7.928,5.858,9.064a3.534,3.534,0,0,0,2.4.3c3.093-.785,4.408-6.25,2.938-12.207s-5.17-10.15-8.262-9.366a3.58,3.58,0,0,0-1.981,1.415C3025.578,1210.143,3025.117,1214.326,3026.218,1218.784Z" transform="translate(-3025.616 -1206.483)" fill="#3d69b3"/>
              <path id="Path_74109" data-name="Path 74109" d="M3026.22,1229.927a21.328,21.328,0,0,0,.619,2.058c1.235,3.451,3.215,6.052,5.239,7.006a3.272,3.272,0,0,0,1.308-.058c3.061-.776,4.416-5.966,3.028-11.591s-4.994-9.556-8.055-8.78a3.3,3.3,0,0,0-1.181.573c-1.342,1.808-1.881,5.048-1.368,8.682A21.079,21.079,0,0,0,3026.22,1229.927Z" transform="translate(-3025.618 -1217.625)" fill="#f0f0f0"/>
              <path id="Path_74110" data-name="Path 74110" d="M3028.769,1325.977a21.2,21.2,0,0,0,.619,2.058,3.442,3.442,0,0,0,3.012.661,3.534,3.534,0,0,0,2.532-4.282,3.468,3.468,0,0,0-6.573-.547A21.143,21.143,0,0,0,3028.769,1325.977Z" transform="translate(-3028.167 -1313.675)" fill="#2f518a"/>
            </g>
            <path id="Path_74111" data-name="Path 74111" d="M2837.707,1507.275l5.862,9.909s.033,1.6-2.544,1.819c-1.564-2.031-7.647-11.065-7.647-11.065Z" transform="translate(-2826.507 -1483.251)" fill="#f0f0f0"/>
            <g id="Group_65129" data-name="Group 65129" transform="translate(20.196 2.854)">
              <path id="Path_74112" data-name="Path 74112" d="M3036.484,1218.14h0c0-.084-.009-.168-.015-.253h0a21.3,21.3,0,0,0-1.62-6.815h0c-.033-.08-.068-.159-.1-.238h0a16.85,16.85,0,0,0-1.271-2.369h0c-.048-.072-.1-.144-.144-.215a12.594,12.594,0,0,0-.982-1.277c-1.594-1.805-3.321-2.584-4.862-2.193a3.684,3.684,0,0,0-2.051,1.461,6.515,6.515,0,0,0-.768,1.379h0c-.995,2.394-1.1,5.925-.211,9.518a16.926,16.926,0,0,0,3.962,7.706,7.649,7.649,0,0,0,1.482,1.183h0c.16.095.319.181.481.257a3.966,3.966,0,0,0,1.692.409,3.214,3.214,0,0,0,.794-.1,3.455,3.455,0,0,0,1.617-.952h0a.214.214,0,0,0,.021-.021c.051-.052.1-.1.15-.16h0a7.221,7.221,0,0,0,1.483-3.123,12.37,12.37,0,0,0,.232-1.248h0c.011-.083.022-.167.031-.251h0A16.446,16.446,0,0,0,3036.484,1218.14Zm-.322,2.633h0c-.009.085-.02.169-.031.251h0a11.989,11.989,0,0,1-.231,1.254,7,7,0,0,1-1.416,3l-.1.111c-.023.024-.045.048-.069.071h0a3.222,3.222,0,0,1-1.5.887,3.263,3.263,0,0,1-1.962-.142h0l-.017-.007h0c-.113-.042-.227-.09-.341-.144a6.85,6.85,0,0,1-1.9-1.4,11.845,11.845,0,0,1-1.514-1.914,17.613,17.613,0,0,1-1.691-3.441h0a21.3,21.3,0,0,1-.68-2.225,21.006,21.006,0,0,1-.433-2.288h0c-.455-3.448.032-6.6,1.369-8.4l.005,0h0c.079-.106.159-.205.243-.3h0a3.276,3.276,0,0,1,1.662-1.06,2.968,2.968,0,0,1,.735-.091,5.5,5.5,0,0,1,3.882,2.207,12.234,12.234,0,0,1,1,1.307h0c.049.071.1.142.143.216h0a16.5,16.5,0,0,1,1.238,2.332h0c.035.079.069.159.1.238h0a20.782,20.782,0,0,1,1.01,3.063,20.528,20.528,0,0,1,.563,3.58h0c.006.085.01.169.015.252A16.069,16.069,0,0,1,3036.162,1220.773Z" transform="translate(-3023.852 -1204.68)" fill="#2f518a"/>
            </g>
            <g id="Group_65130" data-name="Group 65130" transform="translate(7.613 24.787)">
              <path id="Path_74113" data-name="Path 74113" d="M2844.113,1519.281a.128.128,0,0,0,.035-.005,25.013,25.013,0,0,1,4-.848.126.126,0,0,0-.031-.25,25.252,25.252,0,0,0-4.037.856.126.126,0,0,0-.084.156A.125.125,0,0,0,2844.113,1519.281Z" transform="translate(-2843.988 -1518.178)" fill="#2f518a"/>
            </g>
            <g id="Group_65131" data-name="Group 65131" transform="translate(11.122 25.691)">
              <path id="Path_74114" data-name="Path 74114" d="M2895.083,1532.669a.121.121,0,0,0,.065-.019.127.127,0,0,0,.04-.173l-.808-1.323a.123.123,0,0,0-.171-.041.127.127,0,0,0-.04.173l.809,1.323A.123.123,0,0,0,2895.083,1532.669Z" transform="translate(-2894.15 -1531.094)" fill="#2f518a"/>
            </g>
            <g id="Group_65132" data-name="Group 65132" transform="translate(10.617 25.693)">
              <path id="Path_74115" data-name="Path 74115" d="M2888.779,1534.813a.124.124,0,0,0,.057-.014.127.127,0,0,0,.054-.169l-1.731-3.428a.124.124,0,0,0-.167-.055.126.126,0,0,0-.054.169l1.731,3.428A.125.125,0,0,0,2888.779,1534.813Z" transform="translate(-2886.924 -1531.133)" fill="#2f518a"/>
            </g>
            <g id="Group_65133" data-name="Group 65133" transform="translate(9.02 26.224)">
              <path id="Path_74116" data-name="Path 74116" d="M2864.917,1540.213a.122.122,0,0,0,.061-.016.127.127,0,0,0,.047-.171l-.689-1.245a.123.123,0,0,0-.169-.048.127.127,0,0,0-.048.171l.69,1.245A.123.123,0,0,0,2864.917,1540.213Z" transform="translate(-2864.103 -1538.717)" fill="#2f518a"/>
            </g>
            <g id="Group_65134" data-name="Group 65134" transform="translate(8.579 26.696)">
              <path id="Path_74117" data-name="Path 74117" d="M2859.832,1548.013a.123.123,0,0,0,.08-.03.127.127,0,0,0,.014-.177l-1.912-2.292a.123.123,0,0,0-.175-.015.127.127,0,0,0-.015.177l1.912,2.292A.124.124,0,0,0,2859.832,1548.013Z" transform="translate(-2857.795 -1545.469)" fill="#2f518a"/>
            </g>
            <g id="Group_65135" data-name="Group 65135" transform="translate(26.452)">
              <path id="Path_74118" data-name="Path 74118" d="M3113.395,1174.155a.123.123,0,0,0,.092-.041c2.9-3.209,5.708-6.584,8.336-10.03a.127.127,0,0,0-.022-.177.123.123,0,0,0-.174.023c-2.624,3.44-5.423,6.809-8.323,10.013a.127.127,0,0,0,.008.178A.122.122,0,0,0,3113.395,1174.155Z" transform="translate(-3113.271 -1163.881)" fill="#366fd1"/>
            </g>
            <g id="Group_65136" data-name="Group 65136" transform="translate(28.912 5.813)">
              <path id="Path_74119" data-name="Path 74119" d="M3148.557,1252.091a.123.123,0,0,0,.077-.027l6.087-4.874a.127.127,0,0,0,.02-.177.123.123,0,0,0-.174-.021l-6.087,4.874a.127.127,0,0,0-.021.177A.123.123,0,0,0,3148.557,1252.091Z" transform="translate(-3148.433 -1246.965)" fill="#366fd1"/>
            </g>
            <g id="Group_65137" data-name="Group 65137" transform="translate(30.526 15.977)">
              <path id="Path_74120" data-name="Path 74120" d="M3184.668,1393.014a.126.126,0,0,0,0-.252l-13.037-.508a.126.126,0,0,0-.01.252l13.038.508Z" transform="translate(-3171.507 -1392.254)" fill="#366fd1"/>
            </g>
            <g id="Group_65138" data-name="Group 65138" transform="translate(29.68 18.432)">
              <path id="Path_74121" data-name="Path 74121" d="M3165.16,1429.126a.123.123,0,0,0,.114-.076.126.126,0,0,0-.065-.165,20.545,20.545,0,0,0-5.663-1.542.126.126,0,0,0-.03.25,20.292,20.292,0,0,1,5.6,1.524A.123.123,0,0,0,3165.16,1429.126Z" transform="translate(-3159.406 -1427.342)" fill="#366fd1"/>
            </g>
            <g id="Group_65139" data-name="Group 65139" transform="translate(28.578 21.318)">
              <path id="Path_74122" data-name="Path 74122" d="M3151.971,1477.28a.122.122,0,0,0,.087-.036.127.127,0,0,0,0-.178l-8.185-8.441a.123.123,0,0,0-.176,0,.127.127,0,0,0,0,.178l8.185,8.441A.122.122,0,0,0,3151.971,1477.28Z" transform="translate(-3143.662 -1468.587)" fill="#366fd1"/>
            </g>
            <g id="Group_65140" data-name="Group 65140" transform="translate(36.947 24.782)">
              <path id="Path_74123" data-name="Path 74123" d="M3268.236,1521.264a.124.124,0,0,0,.1-.052.127.127,0,0,0-.028-.176,31.521,31.521,0,0,0-4.85-2.924.123.123,0,0,0-.166.059.127.127,0,0,0,.058.168,31.267,31.267,0,0,1,4.812,2.9A.122.122,0,0,0,3268.236,1521.264Z" transform="translate(-3263.281 -1518.1)" fill="#366fd1"/>
            </g>
            <g id="Group_65141" data-name="Group 65141" transform="translate(38.44 3.081)">
              <path id="Path_74124" data-name="Path 74124" d="M3284.743,1210.9a.123.123,0,0,0,.065-.019l4.385-2.738a.127.127,0,0,0,.041-.173.123.123,0,0,0-.171-.041l-4.385,2.738a.127.127,0,0,0-.041.173A.124.124,0,0,0,3284.743,1210.9Z" transform="translate(-3284.619 -1207.913)" fill="#366fd1"/>
            </g>
          </g>
          <g id="Group_65143" data-name="Group 65143" transform="translate(38.688 27.238)">
            <path id="Path_74125" data-name="Path 74125" d="M2892.471,1556.854a6.551,6.551,0,0,1-1.722.837,3.717,3.717,0,0,1-1.668.294.6.6,0,0,1-.438-.334.613.613,0,0,1,.005-.424,2.4,2.4,0,0,1,.951-.978,6.919,6.919,0,0,1,1.178-.7c.594-.276,1.764-.974,2.258-.147C2893.423,1556.056,2892.976,1556.509,2892.471,1556.854Z" transform="translate(-2888.482 -1554.887)" fill="#ffa383"/>
            <path id="Path_74126" data-name="Path 74126" d="M2891.49,1553.663c-.441-.738-1.326-.418-1.969-.117l-.244.118c-.073.035-.141.069-.2.1a7.138,7.138,0,0,0-.767.417c-.071.044-.141.089-.21.136h0c-.075.05-.149.1-.222.156l-.105.076a2.237,2.237,0,0,0-.889.962.732.732,0,0,0,0,.515.72.72,0,0,0,.526.408,1.187,1.187,0,0,0,.223.029h0l.073,0a3.113,3.113,0,0,0,.819-.138h0c.154-.043.3-.091.446-.136l.014,0,.15-.048c.03-.01.061-.019.091-.03h0q.179-.059.354-.128c.157-.062.311-.131.462-.2a6.4,6.4,0,0,0,.6-.331h0c.083-.051.165-.1.246-.16a2.892,2.892,0,0,0,.407-.327,1.561,1.561,0,0,0,.191-.23h0a.962.962,0,0,0,.1-.181A.927.927,0,0,0,2891.49,1553.663Zm-.738,1.411-.03.021h0l-.006,0h0c-.065.044-.131.087-.2.128-.149.092-.3.179-.458.257l0,0h0a5.646,5.646,0,0,1-.585.264q-.2.078-.4.143l-.153.049a3.224,3.224,0,0,1-1.452.243.42.42,0,0,1-.342-.594,2.025,2.025,0,0,1,.8-.839l.107-.077c.063-.046.126-.091.19-.134h0c.069-.048.139-.094.209-.139a6.868,6.868,0,0,1,.757-.412c.063-.029.133-.063.207-.1s.177-.086.265-.126c.673-.309,1.315-.494,1.628.029a.71.71,0,0,1-.13.954A2.452,2.452,0,0,1,2890.751,1555.074Z" transform="translate(-2886.831 -1553.211)" fill="#c7603e"/>
          </g>
          <g id="Group_65144" data-name="Group 65144" transform="translate(40.524 28.339)">
            <path id="Path_74127" data-name="Path 74127" d="M2918.714,1572.6a6.555,6.555,0,0,1-1.722.837,3.718,3.718,0,0,1-1.668.294.6.6,0,0,1-.438-.334.614.614,0,0,1,.005-.425,2.4,2.4,0,0,1,.951-.978,6.919,6.919,0,0,1,1.178-.7c.594-.276,1.764-.974,2.258-.147C2919.666,1571.8,2919.219,1572.252,2918.714,1572.6Z" transform="translate(-2914.725 -1570.63)" fill="#ff9b78"/>
            <path id="Path_74128" data-name="Path 74128" d="M2913.637,1570.747h0l-.025.024-.024.023-.015.015-.031.031-.032.033a1.671,1.671,0,0,0-.11.133h0l.031.006.069.015.034.008h0a2.547,2.547,0,0,1,.458-.417C2913.874,1570.665,2913.756,1570.708,2913.637,1570.747Zm1.334,1.078.022-.014c.088-.055.179-.108.27-.159l-.108.035-.25.079h0c-.162.05-.336.1-.508.134h0a2.451,2.451,0,0,1-.3.046l.3.084c.085-.017.17-.037.254-.059l.06.017.163.046.189-.116.007,0-.052-.05Zm2.766-2.419a.981.981,0,0,0-.164-.21c-.411-.4-1.042-.235-1.575-.011-.062.027-.123.054-.181.081h0c-.091.041-.177.083-.256.122l-.035.017-.2.1q-.239.109-.468.239h0a7.039,7.039,0,0,0-.731.47l-.1.077-.14.1c-.1.075-.2.155-.3.243h0a2.106,2.106,0,0,0-.192.194,1.29,1.29,0,0,0-.12.156,1.148,1.148,0,0,0-.135.266.835.835,0,0,0-.047.276.65.65,0,0,0,.014.134h0a.59.59,0,0,0,.031.1.452.452,0,0,0,.02.042h0a.726.726,0,0,0,.505.367,1.373,1.373,0,0,0,.3.031,2.306,2.306,0,0,0,.439-.047h0c.031,0,.061-.011.091-.018.056-.012.11-.025.164-.04h0c.069-.017.137-.036.2-.056h0l.028-.008h0c.081-.024.159-.048.234-.073h0l.116-.036.131-.043.019-.006c.177-.056.351-.119.522-.189l.08-.033h0q.155-.066.307-.139c.158-.077.313-.16.465-.25.13-.076.257-.156.381-.241l.044-.03h0c.078-.055.156-.113.232-.177a1.313,1.313,0,0,0,.472-.691c.006-.029.011-.058.014-.088A1.017,1.017,0,0,0,2917.736,1569.406Zm-.087.606c-.03.268-.242.524-.652.8-.115.079-.232.154-.352.223a6.147,6.147,0,0,1-.613.322c-.059.027-.118.053-.178.078-.179.074-.361.141-.547.2l-.044.014-.108.035-.25.079h0c-.162.05-.336.1-.508.134h0a2.451,2.451,0,0,1-.3.046h0a1.273,1.273,0,0,1-.391-.017.544.544,0,0,1-.3-.179h0a.358.358,0,0,1-.046-.078.4.4,0,0,1-.019-.07h0a.517.517,0,0,1,.027-.265.96.96,0,0,1,.171-.3h0a2.547,2.547,0,0,1,.458-.417l.169-.124c.036-.026.072-.051.106-.077.082-.06.166-.119.25-.174l.007,0s0,0,0,0c.148-.1.3-.191.455-.278.064-.036.13-.07.2-.1h0c.08-.042.161-.082.244-.12l.207-.1.076-.037c.739-.357,1.475-.633,1.816-.06l0,.007a.852.852,0,0,1,.122.341A.59.59,0,0,1,2917.649,1570.013Zm-4.012.735h0l-.025.024-.024.023-.015.015-.031.031-.032.033a1.671,1.671,0,0,0-.11.133h0l.031.006.069.015.034.008h0a2.547,2.547,0,0,1,.458-.417C2913.874,1570.665,2913.756,1570.708,2913.637,1570.747Zm0,0h0l-.025.024-.024.023-.015.015-.031.031-.032.033a1.671,1.671,0,0,0-.11.133h0l.031.006.069.015.034.008h0a2.547,2.547,0,0,1,.458-.417C2913.874,1570.665,2913.756,1570.708,2913.637,1570.747Z" transform="translate(-2913.078 -1568.954)" fill="#c7603e"/>
          </g>
          <g id="Group_65145" data-name="Group 65145" transform="translate(41.413 30.175)">
            <path id="Path_74129" data-name="Path 74129" d="M2931.406,1598.542a6.729,6.729,0,0,1-1.7.683,4.176,4.176,0,0,1-1.658.219.63.63,0,0,1-.443-.295.456.456,0,0,1,0-.364c.137-.363.587-.607.929-.819a6.872,6.872,0,0,1,1.162-.574c.587-.225,1.741-.8,2.249-.081C2932.341,1597.877,2931.9,1598.256,2931.406,1598.542Z" transform="translate(-2927.439 -1596.837)" fill="#ff9b78"/>
            <path id="Path_74130" data-name="Path 74130" d="M2927.051,1596.323l-.116.036h0c-.076.025-.154.049-.235.073h0l-.028.008h0l-.12.076,0,0,.081.023.081.023h0l.13-.08.015-.01c.03-.018.06-.036.089-.055l.032-.02h0c.068-.042.137-.082.207-.121Zm0,0-.116.036.04.041c.068-.042.137-.082.207-.121Zm3.338-.738a1.088,1.088,0,0,0-1.156-.372,2.634,2.634,0,0,0-.287.063h0c-.167.045-.33.1-.48.159l-.269.107-.2.08-.092.036c-.09.036-.179.074-.267.113h0q-.285.127-.554.277c-.091.051-.182.1-.27.159l-.022.014h0l-.08.049-.086.053h0l-.1.06h0c-.047.029-.093.06-.139.091-.029.02-.058.04-.086.062l-.044.032h0a1.239,1.239,0,0,0-.424.518.58.58,0,0,0,.008.465.694.694,0,0,0,.418.331h0a.786.786,0,0,0,.11.031,1.276,1.276,0,0,0,.171.025h0c.051,0,.1.006.157.006h.053c.057,0,.115-.005.174-.01h0l.1-.011h0c.128-.016.259-.039.385-.066.175-.036.343-.08.493-.118h0l.022-.006.149-.038c.2-.051.4-.109.588-.177h0a6.473,6.473,0,0,0,.656-.266q.1-.049.207-.1c.068-.033.135-.069.2-.107h0l.08-.044.078-.046a1.272,1.272,0,0,0,.659-.73A.8.8,0,0,0,2930.39,1595.586Zm-.078.583a.692.692,0,0,1-.241.352,2.37,2.37,0,0,1-.377.259c-.073.042-.147.082-.222.121q-.172.091-.353.171h0q-.1.045-.206.088-.181.073-.368.135h0c-.16.055-.323.1-.489.146h0l-.026.007-.151.039-.085.022c-.078.02-.161.041-.246.061h0c-.066.016-.134.031-.2.045l-.081.016h0a3.337,3.337,0,0,1-.389.054h0a1.574,1.574,0,0,1-.444-.019.51.51,0,0,1-.357-.228.34.34,0,0,1,0-.262,1.243,1.243,0,0,1,.5-.521h0c.046-.031.094-.061.141-.09h0l.13-.08.015-.01c.03-.018.06-.036.089-.055l.032-.02h0c.068-.042.137-.082.207-.121q.275-.155.568-.284l.015-.007h0c.1-.047.209-.09.316-.131l.205-.081.287-.114a2.9,2.9,0,0,1,.966-.227.741.741,0,0,1,.646.3A.547.547,0,0,1,2930.312,1596.169Zm-3.26.154-.116.036h0c-.076.025-.154.049-.235.073h0l-.028.008h0l-.12.076,0,0,.081.023.081.023h0l.13-.08.015-.01c.03-.018.06-.036.089-.055l.032-.02h0c.068-.042.137-.082.207-.121Zm0,0-.116.036h0c-.076.025-.154.049-.235.073h0l-.028.008h0l-.12.076,0,0,.081.023.081.023h0l.13-.08.015-.01c.03-.018.06-.036.089-.055l.032-.02h0c.068-.042.137-.082.207-.121Z" transform="translate(-2925.788 -1595.185)" fill="#c7603e"/>
          </g>
          <g id="Group_65146" data-name="Group 65146" transform="translate(41.389 31.89)">
            <path id="Path_74131" data-name="Path 74131" d="M2931.064,1623.066a6.727,6.727,0,0,1-1.7.683,4.177,4.177,0,0,1-1.658.219.631.631,0,0,1-.443-.295.457.457,0,0,1,0-.364c.137-.362.587-.606.929-.818a6.862,6.862,0,0,1,1.162-.574c.588-.225,1.741-.8,2.249-.081C2932,1622.4,2931.561,1622.781,2931.064,1623.066Z" transform="translate(-2927.097 -1621.362)" fill="#ff9b78"/>
            <path id="Path_74132" data-name="Path 74132" d="M2928.589,1619.966l-.065-.017c-.112.034-.222.073-.327.113l.023.039.042.071h0a4.4,4.4,0,0,1,.515-.161C2928.713,1620,2928.65,1619.981,2928.589,1619.966Zm1.522.243a1.177,1.177,0,0,0-.065-.1.9.9,0,0,0-.471-.348,1.174,1.174,0,0,0-.18-.041h0a1.5,1.5,0,0,0-.242-.011,2.919,2.919,0,0,0-.842.181c-.061.021-.12.043-.177.065h0c-.1.038-.194.076-.28.111l-.2.08c-.078.03-.155.061-.231.093l-.129.057h0c-.092.041-.182.083-.271.128-.117.058-.231.119-.344.184h0c-.068.039-.137.078-.2.12l-.036.022-.067.042-.126.077h0a1.685,1.685,0,0,0-.749.739.615.615,0,0,0-.039.306h0a.508.508,0,0,0,.047.158.61.61,0,0,0,.243.251h0a.885.885,0,0,0,.285.111,1.6,1.6,0,0,0,.33.031,5.264,5.264,0,0,0,1.234-.212l.149-.039c.156-.039.309-.084.461-.132a6.85,6.85,0,0,0,.958-.395h0q.159-.08.313-.168a1.379,1.379,0,0,0,.739-.776A.746.746,0,0,0,2930.111,1620.209Zm-.144.481a.691.691,0,0,1-.241.352,2.383,2.383,0,0,1-.378.258c-.1.06-.21.116-.318.17h0a6.249,6.249,0,0,1-.9.368h0c-.149.05-.3.093-.455.133l-.151.039a3.648,3.648,0,0,1-1.452.179.508.508,0,0,1-.357-.228.339.339,0,0,1,0-.262c.108-.286.461-.5.774-.692l.1-.064c.161-.1.328-.193.5-.281.145-.074.294-.142.446-.2h0c.063-.027.129-.053.194-.078l.021-.008h.008l.176-.071c.1-.04.206-.084.318-.126h0a4.4,4.4,0,0,1,.515-.161l.063-.015h0a1.779,1.779,0,0,1,.355-.04h.017a.762.762,0,0,1,.563.217.712.712,0,0,1,.066.08A.55.55,0,0,1,2929.968,1620.69Z" transform="translate(-2925.444 -1619.705)" fill="#c7603e"/>
          </g>
          <path id="Path_74133" data-name="Path 74133" d="M2891.313,1604.3a3.771,3.771,0,0,0,2.952-.172,1.024,1.024,0,0,0,.419-.33.436.436,0,0,0,0-.507.641.641,0,0,0-.326-.166l-3.668-1.036c-.1-.028-.115.12-.159.213a.771.771,0,0,0-.062.3A1.72,1.72,0,0,0,2891.313,1604.3Z" transform="translate(-2851.523 -1571.433)" fill="#ff9b78"/>
          <g id="Group_65147" data-name="Group 65147" transform="translate(39.042 30.535)">
            <path id="Path_74134" data-name="Path 74134" d="M2893.9,1603.021a3.891,3.891,0,0,0,1.739-.4,1.141,1.141,0,0,0,.468-.373.565.565,0,0,0-.011-.659.755.755,0,0,0-.386-.2l-3.667-1.036a.124.124,0,0,0-.153.087.126.126,0,0,0,.086.155l3.668,1.036a.534.534,0,0,1,.266.127.313.313,0,0,1-.009.355.923.923,0,0,1-.371.286,3.669,3.669,0,0,1-2.854.166.124.124,0,0,0-.159.076.126.126,0,0,0,.075.161A3.829,3.829,0,0,0,2893.9,1603.021Z" transform="translate(-2891.889 -1600.339)" fill="#c7603e"/>
          </g>
          <path id="Path_74135" data-name="Path 74135" d="M2347.263,1789.292a40.683,40.683,0,0,0,7.155,3.637,11.532,11.532,0,0,0,3.386.734c.381.021.734.02,1.053.007l3.724-6.8c-.427-2.957-2.1-12.783-7.3-14.033a4.731,4.731,0,0,0-.682-.112c-.352.535-.824,1.276-1.351,2.176a51.3,51.3,0,0,0-2.381,4.62A64.111,64.111,0,0,0,2347.263,1789.292Z" transform="translate(-2346.324 -1730.132)" fill="#001968"/>
          <path id="Path_74136" data-name="Path 74136" d="M2364.186,2022l.5-1.263a21.891,21.891,0,0,1-2.121-.642,29.485,29.485,0,0,1-4.548-2.176c-.614-.34-1.108-.63-1.418-.815l-.239.981a16.926,16.926,0,0,0,7.822,3.915Z" transform="translate(-2354.788 -1957.408)" fill="#c7603e"/>
          <path id="Path_74137" data-name="Path 74137" d="M2502.649,1891.955a.114.114,0,0,0,.031-.011.127.127,0,0,0,.057-.168c-1.534-3.2-5.609-7.7-5.65-7.744a.123.123,0,0,0-.176-.007.127.127,0,0,0-.007.178c.041.045,4.092,4.521,5.609,7.683A.124.124,0,0,0,2502.649,1891.955Z" transform="translate(-2485.466 -1833.613)" fill="#134caa"/>
        </g>
        <g id="Advertisement" transform="translate(854.897 821.662)">
          <g id="Group_65148" data-name="Group 65148" transform="translate(0 0)">
            <rect id="Rectangle_12479" data-name="Rectangle 12479" width="159.967" height="14.682" fill="#c80880"/>
          </g>
          <path id="Path_74138" data-name="Path 74138" d="M1727.417,984.365l31.087,24.494-9.25-24.494Z" transform="translate(-1727.417 -969.683)" fill="#c80880"/>
          <g id="Group_65149" data-name="Group 65149" transform="translate(9.96 14.682)">
            <rect id="Rectangle_12480" data-name="Rectangle 12480" width="107.832" height="14.87" fill="#001968"/>
          </g>
          <text id="Your_News_Your_Channel" data-name="Your News, Your Channel" transform="translate(4.618 9.546)" fill="#fff" font-size="8.5" font-family="NofexRegular, Nofex"><tspan x="0" y="0">Your News, Your Channel</tspan></text>
          <text id="Create_Share_" data-name="Create &amp; Share!" transform="translate(17.256 24.335)" fill="#fff" font-size="8" font-family="NofexRegular, Nofex"><tspan x="0" y="0">Create &amp; Share!</tspan></text>
        </g>
        <g id="Newspaper" transform="translate(826.845 929.948)">
          <rect id="Rectangle_12481" data-name="Rectangle 12481" width="145.857" height="83.692" transform="translate(0)" fill="#334566"/>
          <rect id="Rectangle_12482" data-name="Rectangle 12482" width="139.804" height="78.137" transform="translate(3.216 2.517)" fill="#fff"/>
          <g id="Group_65157" data-name="Group 65157" transform="translate(10.526 30.272)">
            <rect id="Rectangle_12483" data-name="Rectangle 12483" width="31.635" height="28.956" fill="#748bb5"/>
            <path id="Path_74139" data-name="Path 74139" d="M1508.553,2983.31v3.75h-31.635v-3.75a59.973,59.973,0,0,1,31.635,0Z" transform="translate(-1476.918 -2958.104)" fill="#2f518a"/>
            <g id="earth" transform="translate(22.183 2.84)">
              <path id="Path_74140" data-name="Path 74140" d="M1794.091,2695.29a3.979,3.979,0,1,0,4.464-3.412A3.986,3.986,0,0,0,1794.091,2695.29Z" transform="translate(-1794.057 -2691.844)" fill="#2f518a"/>
              <g id="Group_65150" data-name="Group 65150" transform="translate(4.077 0.253)">
                <path id="Path_74141" data-name="Path 74141" d="M1852.622,2695.835a.348.348,0,0,1,.163-.279.28.28,0,0,1,.295-.069.853.853,0,0,1,.1.092.569.569,0,0,0,.391.062.675.675,0,0,1,.336.054.312.312,0,0,1,.182.27.166.166,0,0,0,.013.1c.047.063.169,0,.219.06.031.038.01.093,0,.142a.453.453,0,0,0,.044.221c.02.052.064.117.116.1.066-.087-.123-.212-.058-.3.034-.029.09-.005.113.033a.437.437,0,0,1,.037.128.35.35,0,0,0,.467.218.332.332,0,0,1,.239.044,3.528,3.528,0,0,1,.549.918,3.616,3.616,0,0,1,.159.842,1.883,1.883,0,0,1-.164.96c-.015.029-.02.065-.047.084-.048.032-.118-.011-.134-.067a.148.148,0,0,1-.006-.04l-.031.136a.091.091,0,0,1-.124.091c-.033-.006-.067-.011-.1-.02l.018.014a.093.093,0,0,1,.013.131c-.036.033-.092.019-.141.016a.411.411,0,0,0-.3.148,1.859,1.859,0,0,1-.242.245c-.087.062-.206.11-.224.215a.762.762,0,0,0,.018.171c0,.08-.032.158-.031.239,0,.122.089.251.028.357-.045.077-.148.1-.214.158-.049.045-.075.11-.12.159-.1.107-.273.109-.4.193a.842.842,0,0,0-.246.466,1.8,1.8,0,0,1-.413.68.528.528,0,0,1-.39.2.056.056,0,0,1-.044-.018.06.06,0,0,1-.005-.041.2.2,0,0,1,.071-.171.967.967,0,0,0,.136-.149c.048-.061.083-.166.014-.2-.02-.01-.044-.011-.063-.022-.051-.029-.043-.1-.028-.158a.187.187,0,0,1-.121-.127.607.607,0,0,1-.02-.181.3.3,0,0,0-.039-.172.317.317,0,0,0-.263-.089.844.844,0,0,0-.016-.423.925.925,0,0,1-.1-.427.163.163,0,0,1,.05-.1.215.215,0,0,1,.07-.034,1.674,1.674,0,0,1,.742-.07c.023,0,.051,0,.062-.016a.064.064,0,0,0,0-.028c.007-.15.161-.245.3-.3a2.459,2.459,0,0,1,.754-.165.723.723,0,0,0,.213-.031.59.59,0,0,0,.28-.3.222.222,0,0,1,.065-.086.218.218,0,0,0,.054-.037.108.108,0,0,0,.017-.043c.015-.062.279-.01.328-.02,0-.021.033-.021.053-.018l.037.007-.014-.008a.184.184,0,0,1-.1-.17c.008-.061.055-.13.015-.177a.143.143,0,0,0-.1-.033c-.11-.013-.281-.2-.281-.2a.619.619,0,0,0-.042.085c-.012.05.006.019-.013.177-.011.089-.136.161-.2.1-.062-.125.063-.259.095-.4a.1.1,0,0,0,0-.06.121.121,0,0,0-.038-.045,1.78,1.78,0,0,0-.272-.188.5.5,0,0,0,.039-.192.17.17,0,0,0-.1-.154c-.063-.02-.153,0-.18-.059a.687.687,0,0,1-.013-.071c-.027-.083-.149-.057-.232-.082a.169.169,0,0,1-.084-.249c.046-.012.1-.028.118-.073a.107.107,0,0,0-.052-.125.316.316,0,0,0-.143-.033l-.024.156a.054.054,0,0,1-.063.055l-.208.015c-.044,0-.1,0-.117-.039a.111.111,0,0,1,.005-.082l.1-.308a.28.28,0,0,1,.044-.092.285.285,0,0,1,.07-.055l.151-.1a1.9,1.9,0,0,1,.445-.229.285.285,0,0,1,.219,0,.122.122,0,0,1,.038.188.266.266,0,0,1,.067.133l.1.356a.219.219,0,0,0,.1-.24.449.449,0,0,0,.2-.04.152.152,0,0,0,.083-.168.224.224,0,0,0-.1-.1l-.15-.1c-.074-.051-.169-.1-.248-.061l.041-.171a.191.191,0,0,1-.182-.081c-.022-.032-.033-.071-.056-.1a.084.084,0,0,0-.1-.034c-.054.031-.022.113.016.162s.076.127.026.163a.794.794,0,0,0-.185.054c-.062.016-.147,0-.158-.068-.007-.041.016-.093-.017-.118s-.044-.009-.067-.011a.109.109,0,0,1-.07-.17c.073,0,.094-.1.148-.152.087-.082.262-.034.318-.139l-.453-.256a.336.336,0,0,0-.163-.058.115.115,0,0,0-.119.1c0,.039.03.076.021.115a.235.235,0,0,1-.044.067c-.085.127.1.317.005.439-.066.089-.211.052-.307.107a.3.3,0,0,1-.1.053c-.084.011-.125-.1-.118-.186s.023-.187-.045-.237c-.048-.036-.13-.035-.15-.092-.01-.03,0-.064-.008-.093s-.037-.043-.06-.061a.216.216,0,0,1-.085-.167A.16.16,0,0,1,1852.622,2695.835Z" transform="translate(-1852.271 -2695.466)" fill="#2a487a"/>
                <path id="Path_74142" data-name="Path 74142" d="M1886.708,2708.122a.567.567,0,0,0-.031-.128.238.238,0,0,0-.049-.084.113.113,0,0,0-.088-.036.08.08,0,0,1-.059.059.368.368,0,0,0-.066.01.075.075,0,0,0-.022.105.194.194,0,0,0,.1.065.282.282,0,0,1,.1.067.15.15,0,0,0,.04.042c.035.017.073,0,.1.038C1886.728,2708.214,1886.714,2708.168,1886.708,2708.122Z" transform="translate(-1883.995 -2707.004)" fill="#2a487a"/>
                <path id="Path_74143" data-name="Path 74143" d="M1884.19,2705.06c0,.021,0,.048-.017.054a.078.078,0,0,1-.028,0,.046.046,0,0,0-.042.067.086.086,0,0,0,.073.035.059.059,0,0,0,.038-.009.067.067,0,0,0,.018-.024.134.134,0,0,0,.021-.069c0-.024-.024-.049-.048-.044Z" transform="translate(-1881.87 -2704.389)" fill="#2a487a"/>
                <path id="Path_74144" data-name="Path 74144" d="M1882.861,2752.477l-.087.008a.116.116,0,0,1-.052,0,.039.039,0,0,1-.027-.04.041.041,0,0,1,.033-.029.185.185,0,0,1,.047,0,.568.568,0,0,0,.112-.015c.029,0,.193-.031.185.042C1883.069,2752.478,1882.9,2752.474,1882.861,2752.477Z" transform="translate(-1880.566 -2748.408)" fill="#2a487a"/>
                <path id="Path_74145" data-name="Path 74145" d="M1877.965,2752.836l.021,0c0,.026.031.041.051.058s.037.048.019.068a.058.058,0,0,1-.048.01l-.147-.013a.158.158,0,0,1-.092-.029.054.054,0,0,1,0-.084.1.1,0,0,1,.04-.008.775.775,0,0,0,.1-.028.12.12,0,0,1,.1.013l0,.027Z" transform="translate(-1875.966 -2748.797)" fill="#2a487a"/>
              </g>
              <g id="Group_65151" data-name="Group 65151" transform="translate(0 0.204)">
                <path id="Path_74146" data-name="Path 74146" d="M1796.3,2697.392c-.064.032-.158.081-.124.144.074.06.215-.04.27.037.029.04.006.094,0,.143s.015.116.063.107l.022-.174a.069.069,0,0,1,.072-.074l.291-.051c.124-.022.295-.014.322.108a1,1,0,0,1-.008.154c.005.1.094.177.084.273a.191.191,0,0,1-.182.15.561.561,0,0,1-.247-.058l-.034.25c-.11-.05-.108-.209-.064-.322a.554.554,0,0,0,.081-.346c-.077.078-.031.25-.135.285-.076.026-.191-.049-.225.025a.071.071,0,0,0-.006.04.394.394,0,0,0,.433.357.187.187,0,0,1,.179-.153c.03.016.057.057,0,.158-.045.081.021.164.207.289.035.024.03.105-.007.116a.182.182,0,0,0-.08.081c-.027.066.058.094.114.12a.215.215,0,1,1-.284.293c-.046-.09-.031-.213-.109-.277a.256.256,0,0,0-.1-.043.469.469,0,0,0-.346-.006c-.105.054-.148.225-.048.289a.131.131,0,0,1-.169.042.594.594,0,0,1,.21-.456,1.125,1.125,0,0,0-.325.279.525.525,0,0,1-.37.2c0-.062.061-.1.113-.138s.1-.111.054-.155a.349.349,0,0,1-.437.172.179.179,0,0,0,.039.28.344.344,0,0,0,.32-.01c.06-.029.128-.067.187-.037a.358.358,0,0,1,.068.059.206.206,0,0,0,.3-.053c.026-.048.034-.11.08-.14a.188.188,0,0,1,.158,0l.338.1a.821.821,0,0,1,.247.1.277.277,0,0,1,.127.224.283.283,0,0,0,0,.091.17.17,0,0,0,.094.088.618.618,0,0,1,.228.174.216.216,0,0,1,0,.266c-.025.026-.058.043-.083.068-.132.13,0,.4-.151.515-.027.02-.06.031-.088.052a.81.81,0,0,0-.1.112.374.374,0,0,1-.338.091,1.241,1.241,0,0,1-.338-.136c-.073-.037-.168-.072-.232-.021-.031.025-.048.067-.085.084a.36.36,0,0,0-.067.024.106.106,0,0,0-.032.056l-.1.309a.971.971,0,0,0-.063.3c0,.174.1.337.1.511a1.018,1.018,0,0,1-.19.527c-.062.105-.145.223-.268.225s-.208-.111-.25-.222a1.2,1.2,0,0,0-.133-.328c-.062-.08-.167-.154-.146-.252.014-.064.081-.129.024-.181a.1.1,0,0,0-.034-.019.327.327,0,0,1-.188-.307c-.007-.12.018-.239.01-.359a.662.662,0,0,0-.244-.468.316.316,0,0,1-.116-.121.256.256,0,0,1-.005-.119l.024-.2a.064.064,0,0,1,.007-.024c.021-.039.064-.024.1-.021.1.008.172-.073.232-.147a1.746,1.746,0,0,0,.359-.586,2.243,2.243,0,0,0-.4.483.173.173,0,0,0-.036.112c.005.037.034.072.022.107-.019.06-.115.034-.15-.017s-.053-.123-.111-.147c-.038-.016-.086-.007-.121-.03a.15.15,0,0,1-.045-.126c0-.126.006-.276.114-.342a.467.467,0,0,1,.178-.044.223.223,0,0,0,.161-.079c.034-.051.01-.139-.052-.144-.01.073-.091.115-.165.125a.691.691,0,0,0-.219.036.387.387,0,0,0-.156.2c-.127.261-.35.8-.35.8a3.89,3.89,0,0,1,.757-2.187,3.311,3.311,0,0,1,1.356-1.143c.058-.029.185-.118.25-.113C1796.482,2697.246,1796.357,2697.363,1796.3,2697.392Z" transform="translate(-1793.99 -2697.063)" fill="#2a487a"/>
                <path id="Path_74147" data-name="Path 74147" d="M1840.1,2711.153a.743.743,0,0,0-.091.057.219.219,0,0,0-.036.232c.007.02.01.05-.01.054a.028.028,0,0,1-.029-.018.365.365,0,0,1-.011-.035.1.1,0,0,0-.062-.051.709.709,0,0,0-.082-.015.034.034,0,0,1-.022-.01.038.038,0,0,1-.006-.021.177.177,0,0,1,0-.061.059.059,0,0,1,.041-.042.464.464,0,0,1,.049,0,.094.094,0,0,0,.054-.032.468.468,0,0,0,.094-.132c.02-.042.021-.1.076-.107C1840.175,2710.964,1840.168,2711.11,1840.1,2711.153Z" transform="translate(-1836.552 -2709.839)" fill="#2a487a"/>
                <path id="Path_74148" data-name="Path 74148" d="M1844.159,2714.248a.058.058,0,0,1,.054.037.167.167,0,0,1,.009.069c0,.036,0,.078-.034.1a.111.111,0,0,1-.078.007.141.141,0,0,1-.076-.028.089.089,0,0,1-.022-.085.184.184,0,0,1,.045-.079.066.066,0,0,1,.027-.021.068.068,0,0,1,.029,0l.083,0Z" transform="translate(-1840.51 -2712.88)" fill="#2a487a"/>
                <path id="Path_74149" data-name="Path 74149" d="M1851.631,2706.206a.094.094,0,0,1,0-.044c.015-.116.021-.159.149-.135a.189.189,0,0,1,.154.112c.025.064,0,.1-.064.107S1851.655,2706.271,1851.631,2706.206Z" transform="translate(-1847.595 -2705.232)" fill="#2a487a"/>
                <path id="Path_74150" data-name="Path 74150" d="M1844.918,2694.91a.11.11,0,0,1-.12.037.074.074,0,0,1-.027-.01.078.078,0,0,1-.024-.038.125.125,0,0,1-.01-.1.085.085,0,0,1,.062-.041.344.344,0,0,1,.188.023c.028.027.017.082.021.117C1844.978,2694.9,1844.935,2694.878,1844.918,2694.91Z" transform="translate(-1841.18 -2694.756)" fill="#2a487a"/>
                <path id="Path_74151" data-name="Path 74151" d="M1803.3,2762.3a.114.114,0,0,0,.044.039.246.246,0,0,1,.125.2c0,.019,0,.037,0,.055a.364.364,0,0,0,.018.078.345.345,0,0,1,.012.106c0,.027-.01.06-.037.066a.069.069,0,0,1-.053-.018c-.022-.016-.044-.033-.065-.051a.051.051,0,0,1-.017-.022.074.074,0,0,1,0-.026.194.194,0,0,0-.048-.121.639.639,0,0,1-.1-.367c0-.044.024-.107.08-.082S1803.283,2762.262,1803.3,2762.3Z" transform="translate(-1802.534 -2757.442)" fill="#2a487a"/>
                <path id="Path_74152" data-name="Path 74152" d="M1829.459,2695.322a.232.232,0,0,1-.03.05c-.034.041-.09.055-.127.092-.02.02-.035.047-.062.058a.114.114,0,0,1-.054,0,.076.076,0,0,1-.047-.017.052.052,0,0,1-.012-.031.123.123,0,0,1,.074-.107.2.2,0,0,1,.047-.018.2.2,0,0,0,.045-.01c.038-.016.05-.062.071-.1a.116.116,0,0,1,.055-.052C1829.53,2695.146,1829.483,2695.275,1829.459,2695.322Z" transform="translate(-1826.669 -2695.152)" fill="#2a487a"/>
                <path id="Path_74153" data-name="Path 74153" d="M1830.657,2723.183c.016.032-.012.068-.042.088s-.065.038-.075.072a.028.028,0,0,1-.036-.006.072.072,0,0,1-.015-.037.377.377,0,0,1,0-.1.057.057,0,0,1,.013-.036.063.063,0,0,1,.055-.009l.112.018Z" transform="translate(-1827.932 -2721.171)" fill="#2a487a"/>
              </g>
            </g>
            <g id="Group_65155" data-name="Group 65155" transform="translate(4.715 12.242)">
              <g id="Group_65154" data-name="Group 65154" transform="translate(0)">
                <g id="Group_65152" data-name="Group 65152" transform="translate(1.987 4.376)">
                  <ellipse id="Ellipse_3543" data-name="Ellipse 3543" cx="1.909" cy="1.404" rx="1.909" ry="1.404" transform="translate(6.359)" fill="#2a487a"/>
                  <ellipse id="Ellipse_3544" data-name="Ellipse 3544" cx="1.909" cy="1.404" rx="1.909" ry="1.404" fill="#2a487a"/>
                </g>
                <g id="Group_65153" data-name="Group 65153" transform="translate(0 5.738)">
                  <rect id="Rectangle_12484" data-name="Rectangle 12484" width="0.354" height="9.214" transform="translate(7.611 0.25) rotate(-45)" fill="#2a487a"/>
                  <rect id="Rectangle_12485" data-name="Rectangle 12485" width="0.354" height="9.214" transform="translate(0.25 6.766) rotate(-135)" fill="#2a487a"/>
                </g>
                <circle id="Ellipse_3545" data-name="Ellipse 3545" cx="3.292" cy="3.292" r="3.292" transform="translate(3.896 0.487)" fill="#5576ab"/>
                <rect id="Rectangle_12486" data-name="Rectangle 12486" width="7.273" height="2.468" rx="1.234" transform="translate(3.552 6.406)" fill="#2f518a"/>
                <path id="Path_74154" data-name="Path 74154" d="M1640.563,2949.292l-2.3-.047-2.885-5.51,2.034,0Z" transform="translate(-1629.004 -2935.515)" fill="#2a487a"/>
                <path id="Path_74155" data-name="Path 74155" d="M1619.032,2827.715h-4.559l1.027-1.47h2.5Z" transform="translate(-1609.565 -2826.246)" fill="#5576ab"/>
                <path id="Path_74156" data-name="Path 74156" d="M1630.093,2835.762h-2.814l.634-.907h1.547Z" transform="translate(-1621.474 -2834.252)" fill="#2a487a"/>
              </g>
              <path id="Rectangle_12487" data-name="Rectangle 12487" d="M1.078,0h0A1.078,1.078,0,0,1,2.155,1.078V3.357a0,0,0,0,1,0,0H0a0,0,0,0,1,0,0V1.078A1.078,1.078,0,0,1,1.078,0Z" transform="translate(6.272 4.55)" fill="#2a487a"/>
              <path id="Path_74157" data-name="Path 74157" d="M1603.568,2861.977h-6.7a.2.2,0,0,1-.2-.2h0a.2.2,0,0,1,.2-.2h6.7a.2.2,0,0,1,.2.2h0A.2.2,0,0,1,1603.568,2861.977Z" transform="translate(-1593.005 -2859.11)" fill="#2a487a"/>
            </g>
            <g id="Group_65156" data-name="Group 65156" transform="translate(23.939 17.354)">
              <rect id="Rectangle_12488" data-name="Rectangle 12488" width="0.273" height="7.345" transform="translate(0)" fill="#2a487a"/>
              <rect id="Rectangle_12489" data-name="Rectangle 12489" width="0.273" height="5.038" transform="translate(5.038 0.41) rotate(90)" fill="#2a487a"/>
              <rect id="Rectangle_12490" data-name="Rectangle 12490" width="4.424" height="2.99" transform="translate(0.273 0.683)" fill="#2f518a"/>
            </g>
            <ellipse id="Ellipse_3546" data-name="Ellipse 3546" cx="4.387" cy="0.774" rx="4.387" ry="0.774" transform="translate(1.102 27.135)" fill="#2a487a"/>
            <ellipse id="Ellipse_3547" data-name="Ellipse 3547" cx="1.418" cy="0.25" rx="1.418" ry="0.25" transform="translate(22.794 26.543)" fill="#2a487a"/>
            <ellipse id="Ellipse_3548" data-name="Ellipse 3548" cx="1.418" cy="0.25" rx="1.418" ry="0.25" transform="translate(26.424 27.408)" fill="#2a487a"/>
            <path id="Path_74158" data-name="Path 74158" d="M1730.549,3041.042c0,.231-1.06.418-2.367.418s-2.367-.187-2.367-.418,1.06-.417,2.367-.417S1730.549,3040.812,1730.549,3041.042Z" transform="translate(-1708.401 -3013.384)" fill="#2a487a"/>
            <path id="Path_74159" data-name="Path 74159" d="M1711.341,2999.9c0,.088-.4.159-.9.159s-.9-.071-.9-.159.4-.159.9-.159S1711.341,2999.809,1711.341,2999.9Z" transform="translate(-1693.261 -2975.357)" fill="#2a487a"/>
            <path id="Path_74160" data-name="Path 74160" d="M1608.41,3010.069c0,.125-.574.226-1.283.226s-1.283-.1-1.283-.226.574-.227,1.283-.227S1608.41,3009.944,1608.41,3010.069Z" transform="translate(-1596.825 -2984.756)" fill="#2a487a"/>
            <path id="Path_74161" data-name="Path 74161" d="M1855.674,3008.009c0,.076-.35.138-.782.138s-.782-.062-.782-.138.35-.138.782-.138S1855.674,3007.933,1855.674,3008.009Z" transform="translate(-1827.721 -2982.922)" fill="#2a487a"/>
          </g>
          <rect id="Rectangle_12491" data-name="Rectangle 12491" width="90.223" height="3.043" transform="translate(45.938 30.272)" fill="#748bb5"/>
          <rect id="Rectangle_12492" data-name="Rectangle 12492" width="24.487" height="21.694" transform="translate(45.938 37.534)" fill="#748bb5"/>
          <rect id="Rectangle_12493" data-name="Rectangle 12493" width="31.814" height="12.157" transform="translate(10.348 63.042)" fill="#748bb5"/>
          <rect id="Rectangle_12494" data-name="Rectangle 12494" width="53.237" height="12.157" transform="translate(45.938 63.042)" fill="#748bb5"/>
          <rect id="Rectangle_12495" data-name="Rectangle 12495" width="24.487" height="21.694" transform="translate(74.689 37.599)" fill="#748bb5"/>
          <g id="Group_65158" data-name="Group 65158" transform="translate(104.328 48.296)">
            <rect id="Rectangle_12496" data-name="Rectangle 12496" width="31.834" height="26.904" fill="#748bb5"/>
            <path id="Path_74162" data-name="Path 74162" d="M2849.513,3120.419v11.39h-31.834v-12.158a80.8,80.8,0,0,1,7.971,1.427c3.227.834,12.477.537,16.636,0C2844.8,3120.754,2847.649,3120.539,2849.513,3120.419Z" transform="translate(-2817.679 -3104.906)" fill="#455d8a"/>
            <path id="Path_74163" data-name="Path 74163" d="M2849.513,3190.327v7.2h-31.834v-4.59a71.986,71.986,0,0,1,10.553-1.193c3.8.06,9.178,2.144,11.33.595s6.668-2.026,8.891-2.026C2848.865,3190.314,2849.216,3190.316,2849.513,3190.327Z" transform="translate(-2817.679 -3170.624)" fill="#334566"/>
            <path id="Path_74164" data-name="Path 74164" d="M3123.177,3091.923s1-2.39-.191-2.581-1.816.668-1.816-.6-.478-3.179.765-3.179,1.243.287,1,1.1-.1,2.055,1.1,1.2.382-2.008,1.052-3.681,2.581-2.677,2.1-1.1-1.721,2.008-.86,2.629-1.291,2.581.239,2.342,1.864.478.908.693-2.1-.6-1.816.6-.463,2.486-1.115,2.581A5.725,5.725,0,0,1,3123.177,3091.923Z" transform="translate(-3099.852 -3070.157)" fill="#334566"/>
            <path id="Path_74165" data-name="Path 74165" d="M2872.519,3100.82a7.958,7.958,0,0,0-.395,2.4c.108.789-.86,1.284-.968,1.252s-.287-2.4-.681-2.184a.872.872,0,0,0-.144,1.206c.251.336-.43,1.734.5,1.949s1.362-.645,1.506-.538a29.188,29.188,0,0,1-.072,3.513c0,.215.968.394,1.291.215s-.251-2.439,0-2.546,1.47.44,1.757-.479.573-2.774.179-2.115-.5,1.7-.789,1.77-1.076.251-1.112-.107a11.359,11.359,0,0,1-.323-2.4c.144-.323.25-.287.717-.9s.467-2.177.251-1.716a7.414,7.414,0,0,1-.932,1.25.77.77,0,0,1-.107-.538c.036-.359-.646-1.018-.789-.8S2872.519,3100.82,2872.519,3100.82Z" transform="translate(-2866.487 -3086.643)" fill="#334566"/>
          </g>
          <rect id="Rectangle_12497" data-name="Rectangle 12497" width="31.834" height="7.562" transform="translate(104.328 37.599)" fill="#748bb5"/>
        </g>
        <text id="Local_News" data-name="Local News" transform="translate(838.163 950.446)" fill="#c80880" font-size="14" font-family="NofexRegular, Nofex"><tspan x="0" y="0">Local News</tspan></text>
      </g>
    </g>
  </g>
</svg>
