<svg xmlns="http://www.w3.org/2000/svg" xmlns:xlink="http://www.w3.org/1999/xlink" width="128.333" height="128.333" viewBox="0 0 128.333 128.333">
  <defs>
    <linearGradient id="linear-gradient" x1="-0.045" y1="0.603" x2="0.446" y2="0.603" gradientUnits="objectBoundingBox">
      <stop offset="0" stop-color="#fff"/>
      <stop offset="1" stop-color="#d17918"/>
    </linearGradient>
    <linearGradient id="linear-gradient-2" x1="-0.291" y1="1.104" x2="0.2" y2="1.104" xlink:href="#linear-gradient"/>
    <linearGradient id="linear-gradient-3" x1="-0.537" y1="1.605" x2="-0.046" y2="1.605" xlink:href="#linear-gradient"/>
    <linearGradient id="linear-gradient-4" x1="2.94" y1="3.152" x2="3.696" y2="3.152" xlink:href="#linear-gradient"/>
  </defs>
  <g id="money" transform="translate(0.902 0.902)">
    <path id="Path_73073" data-name="Path 73073" d="M0,0H128.333V128.333H0Z" transform="translate(-0.902 -0.902)" fill="#fff" opacity="0"/>
    <g id="Group_66239" data-name="Group 66239" transform="translate(-190.543 -302.257)">
      <g id="Group_66217" data-name="Group 66217">
        <g id="Group_66216" data-name="Group 66216">
          <g id="Group_66215" data-name="Group 66215">
            <g id="Group_66214" data-name="Group 66214">
              <path id="Path_76370" data-name="Path 76370" d="M224.741,384.309c0,9.135,19.26,16.543,43.016,16.543s43.017-7.408,43.017-16.543v-7.816H224.741Z" fill="#ff931e"/>
              <g id="Group_66211" data-name="Group 66211">
                <path id="Path_76371" data-name="Path 76371" d="M263.664,380.51v20.264c1.348.049,2.712.078,4.093.078V380.51Z" fill="#d17918"/>
                <path id="Path_76372" data-name="Path 76372" d="M255.37,380.51v19.641c2.223.258,4.521.445,6.878.561v-20.2Z" fill="#d17918"/>
                <path id="Path_76373" data-name="Path 76373" d="M253.667,399.939V376.525H224.741v7.784C224.741,391.546,236.832,397.694,253.667,399.939Z" fill="#d17918"/>
                <path id="Path_76374" data-name="Path 76374" d="M283.081,380.51v19.257c.469-.07.939-.138,1.4-.212V380.51Z" fill="#d17918"/>
                <path id="Path_76375" data-name="Path 76375" d="M277.728,400.4q.707-.063,1.4-.136V380.51h-1.4Z" fill="#d17918"/>
                <path id="Path_76376" data-name="Path 76376" d="M270.945,380.51V400.8c.688-.02,1.368-.044,2.047-.075V380.51Z" fill="#d17918"/>
              </g>
              <g id="Group_66213" data-name="Group 66213">
                <path id="Path_76377" data-name="Path 76377" d="M267.757,393.037c-23.756,0-43.016-7.407-43.016-16.544S244,359.95,267.757,359.95s43.017,7.407,43.017,16.543S291.515,393.037,267.757,393.037Z" fill="#ff931e"/>
                <path id="Path_76378" data-name="Path 76378" d="M291.994,390.16c-1.22.04-2.45.066-3.7.066-23.757,0-43.016-7.407-43.016-16.543,0-5.679,7.444-10.688,18.779-13.667-22.023.72-39.317,7.82-39.317,16.477,0,9.137,19.26,16.544,43.016,16.544A97.047,97.047,0,0,0,291.994,390.16Z" opacity="0.4" fill="url(#linear-gradient)" style="mix-blend-mode: multiply;isolation: isolate"/>
                <path id="Path_76379" data-name="Path 76379" d="M310.74,377.008c-.708-8.9-19.673-16.031-42.983-16.031s-42.275,7.131-42.982,16.031c.707,8.9,19.673,16.029,42.982,16.029S310.032,385.9,310.74,377.008Zm-42.983,13.978c-19.308,0-35.015-6.041-35.015-13.465s15.707-13.466,35.015-13.466,35.015,6.04,35.015,13.466S287.064,390.986,267.757,390.986Z" fill="#d17918"/>
                <path id="Path_76380" data-name="Path 76380" d="M263.857,374.2l-16.637,4.782V382.3l17.028-5.25a17.314,17.314,0,0,0,7.235,3.07c.255.056.512.1.769.15v2.965h6.176v-2.279c1.346.061,2.6.065,3.691.043v2.236H288.3v-8.9h-6.176v4.3c-1.031.035-2.315.038-3.691-.05v-4.246h-6.176v3.03a7.747,7.747,0,0,1-3.569-2.537Z" fill="#d17918"/>
                <path id="Path_76381" data-name="Path 76381" d="M302.772,376.493c0,7.425-15.708,13.466-35.015,13.466s-35.015-6.041-35.015-13.466,15.707-13.466,35.015-13.466,35.015,6.041,35.015,13.466m8,0c0-9.136-19.259-16.543-43.017-16.543s-43.016,7.407-43.016,16.543,19.26,16.544,43.016,16.544,43.017-7.407,43.017-16.544Z" fill="#ffc022"/>
                <g id="Group_66212" data-name="Group 66212">
                  <path id="Path_76382" data-name="Path 76382" d="M237.371,376.493c0-6.444,13.633-11.685,30.386-11.685s30.387,5.241,30.387,11.685-13.631,11.687-30.387,11.687S237.371,382.938,237.371,376.493Zm59.439,0c0-6.16-13.034-11.173-29.053-11.173s-29.052,5.013-29.052,11.173,13.033,11.174,29.052,11.174S296.81,382.654,296.81,376.493Z" fill="#ffc022"/>
                </g>
                <path id="Path_76383" data-name="Path 76383" d="M263.857,371.973l-16.637,4.784v3.321l17.028-5.252a17.276,17.276,0,0,0,7.235,3.071c.255.056.512.1.769.152v2.966h6.176v-2.28c1.346.058,2.6.064,3.691.042v2.238H288.3v-8.9h-6.176v4.3c-1.031.035-2.315.039-3.691-.05v-4.246h-6.176v3.031a7.757,7.757,0,0,1-3.569-2.539Z" fill="#ffc022"/>
              </g>
            </g>
          </g>
        </g>
      </g>
      <g id="Group_66224" data-name="Group 66224">
        <g id="Group_66223" data-name="Group 66223">
          <g id="Group_66222" data-name="Group 66222">
            <g id="Group_66221" data-name="Group 66221">
              <path id="Path_76384" data-name="Path 76384" d="M224.741,367.766c0,9.134,19.26,16.543,43.016,16.543s43.017-7.409,43.017-16.543V359.95H224.741Z" fill="#ff931e"/>
              <g id="Group_66218" data-name="Group 66218">
                <path id="Path_76385" data-name="Path 76385" d="M263.664,363.967v20.264c1.348.049,2.712.078,4.093.078V363.967Z" fill="#d17918"/>
                <path id="Path_76386" data-name="Path 76386" d="M255.37,363.967v19.64c2.223.259,4.521.446,6.878.562v-20.2Z" fill="#d17918"/>
                <path id="Path_76387" data-name="Path 76387" d="M253.667,383.4V359.982H224.741v7.784C224.741,375,236.832,381.15,253.667,383.4Z" fill="#d17918"/>
                <path id="Path_76388" data-name="Path 76388" d="M283.081,363.967v19.257c.469-.07.939-.138,1.4-.212V363.967Z" fill="#d17918"/>
                <path id="Path_76389" data-name="Path 76389" d="M277.728,383.856q.707-.061,1.4-.137V363.967h-1.4Z" fill="#d17918"/>
                <path id="Path_76390" data-name="Path 76390" d="M270.945,363.967v20.29c.688-.019,1.368-.044,2.047-.075V363.967Z" fill="#d17918"/>
              </g>
              <g id="Group_66220" data-name="Group 66220">
                <path id="Path_76391" data-name="Path 76391" d="M267.757,376.493c-23.756,0-43.016-7.406-43.016-16.543s19.26-16.543,43.016-16.543,43.017,7.407,43.017,16.543S291.515,376.493,267.757,376.493Z" fill="#ff931e"/>
                <path id="Path_76392" data-name="Path 76392" d="M291.994,373.617c-1.22.04-2.45.065-3.7.065-23.757,0-43.016-7.406-43.016-16.542,0-5.68,7.444-10.689,18.779-13.667-22.023.72-39.317,7.82-39.317,16.477,0,9.137,19.26,16.543,43.016,16.543A97.049,97.049,0,0,0,291.994,373.617Z" opacity="0.4" fill="url(#linear-gradient-2)" style="mix-blend-mode: multiply;isolation: isolate"/>
                <path id="Path_76393" data-name="Path 76393" d="M310.74,360.464c-.708-8.9-19.673-16.03-42.983-16.03s-42.275,7.131-42.982,16.03c.707,8.9,19.673,16.029,42.982,16.029S310.032,369.36,310.74,360.464Zm-42.983,13.979c-19.308,0-35.015-6.041-35.015-13.465s15.707-13.466,35.015-13.466,35.015,6.04,35.015,13.466S287.064,374.443,267.757,374.443Z" fill="#d17918"/>
                <path id="Path_76394" data-name="Path 76394" d="M263.857,357.654l-16.637,4.782v3.323l17.028-5.249a17.34,17.34,0,0,0,7.235,3.07c.255.056.512.1.769.149V366.7h6.176v-2.279c1.346.06,2.6.065,3.691.043V366.7H288.3v-8.9h-6.176v4.3c-1.031.035-2.315.037-3.691-.051V357.8h-6.176v3.03a7.741,7.741,0,0,1-3.569-2.538Z" fill="#d17918"/>
                <path id="Path_76395" data-name="Path 76395" d="M302.772,359.95c0,7.425-15.708,13.466-35.015,13.466s-35.015-6.041-35.015-13.466,15.707-13.466,35.015-13.466,35.015,6.04,35.015,13.466m8,0c0-9.136-19.259-16.543-43.017-16.543s-43.016,7.407-43.016,16.543,19.26,16.543,43.016,16.543,43.017-7.406,43.017-16.543Z" fill="#ffc022"/>
                <g id="Group_66219" data-name="Group 66219">
                  <path id="Path_76396" data-name="Path 76396" d="M237.371,359.95c0-6.445,13.633-11.685,30.386-11.685s30.387,5.24,30.387,11.685-13.631,11.687-30.387,11.687S237.371,366.394,237.371,359.95Zm59.439,0c0-6.161-13.034-11.174-29.053-11.174s-29.052,5.013-29.052,11.174,13.033,11.173,29.052,11.173S296.81,366.11,296.81,359.95Z" fill="#ffc022"/>
                </g>
                <path id="Path_76397" data-name="Path 76397" d="M263.857,355.43l-16.637,4.783v3.322l17.028-5.253a17.263,17.263,0,0,0,7.235,3.072c.255.055.512.1.769.152v2.965h6.176v-2.279c1.346.058,2.6.064,3.691.042v2.237H288.3v-8.9h-6.176v4.3c-1.031.035-2.315.039-3.691-.051v-4.246h-6.176V358.6a7.763,7.763,0,0,1-3.569-2.538Z" fill="#ffc022"/>
              </g>
            </g>
          </g>
        </g>
      </g>
      <g id="Group_66231" data-name="Group 66231">
        <g id="Group_66230" data-name="Group 66230">
          <g id="Group_66229" data-name="Group 66229">
            <g id="Group_66228" data-name="Group 66228">
              <path id="Path_76398" data-name="Path 76398" d="M224.741,351.223c0,9.134,19.26,16.542,43.016,16.542s43.017-7.408,43.017-16.542v-7.816H224.741Z" fill="#ff931e"/>
              <g id="Group_66225" data-name="Group 66225">
                <path id="Path_76399" data-name="Path 76399" d="M263.664,347.424v20.265c1.348.047,2.712.076,4.093.076V347.424Z" fill="#d17918"/>
                <path id="Path_76400" data-name="Path 76400" d="M255.37,347.424v19.641c2.223.257,4.521.445,6.878.56v-20.2Z" fill="#d17918"/>
                <path id="Path_76401" data-name="Path 76401" d="M253.667,366.852V343.44H224.741v7.783C224.741,358.459,236.832,364.607,253.667,366.852Z" fill="#d17918"/>
                <path id="Path_76402" data-name="Path 76402" d="M283.081,347.424V366.68c.469-.069.939-.137,1.4-.211V347.424Z" fill="#d17918"/>
                <path id="Path_76403" data-name="Path 76403" d="M277.728,367.314c.471-.043.937-.088,1.4-.138V347.424h-1.4Z" fill="#d17918"/>
                <path id="Path_76404" data-name="Path 76404" d="M270.945,347.424v20.29c.688-.019,1.368-.044,2.047-.075V347.424Z" fill="#d17918"/>
              </g>
              <g id="Group_66227" data-name="Group 66227">
                <path id="Path_76405" data-name="Path 76405" d="M267.757,359.95c-23.756,0-43.016-7.406-43.016-16.543s19.26-16.543,43.016-16.543,43.017,7.407,43.017,16.543S291.515,359.95,267.757,359.95Z" fill="#ff931e"/>
                <path id="Path_76406" data-name="Path 76406" d="M291.994,357.074c-1.22.04-2.45.065-3.7.065-23.757,0-43.016-7.407-43.016-16.542,0-5.68,7.444-10.689,18.779-13.668-22.023.72-39.317,7.821-39.317,16.478,0,9.137,19.26,16.543,43.016,16.543A97.049,97.049,0,0,0,291.994,357.074Z" opacity="0.4" fill="url(#linear-gradient-3)" style="mix-blend-mode: multiply;isolation: isolate"/>
                <path id="Path_76407" data-name="Path 76407" d="M310.74,343.921c-.708-8.9-19.673-16.031-42.983-16.031s-42.275,7.132-42.982,16.031c.707,8.9,19.673,16.029,42.982,16.029S310.032,352.817,310.74,343.921ZM267.757,357.9c-19.308,0-35.015-6.041-35.015-13.465s15.707-13.466,35.015-13.466,35.015,6.041,35.015,13.466S287.064,357.9,267.757,357.9Z" fill="#d17918"/>
                <path id="Path_76408" data-name="Path 76408" d="M263.857,341.111l-16.637,4.782v3.323l17.028-5.249a17.34,17.34,0,0,0,7.235,3.07c.255.056.512.1.769.149v2.965h6.176v-2.278c1.346.06,2.6.066,3.691.042v2.236H288.3v-8.9h-6.176v4.295c-1.031.036-2.315.038-3.691-.05v-4.245h-6.176v3.03a7.749,7.749,0,0,1-3.569-2.538Z" fill="#d17918"/>
                <path id="Path_76409" data-name="Path 76409" d="M302.772,343.407c0,7.425-15.708,13.466-35.015,13.466s-35.015-6.041-35.015-13.466,15.707-13.466,35.015-13.466,35.015,6.04,35.015,13.466m8,0c0-9.136-19.259-16.543-43.017-16.543s-43.016,7.407-43.016,16.543S244,359.95,267.757,359.95s43.017-7.406,43.017-16.543Z" fill="#ffc022"/>
                <g id="Group_66226" data-name="Group 66226">
                  <path id="Path_76410" data-name="Path 76410" d="M237.371,343.407c0-6.445,13.633-11.686,30.386-11.686s30.387,5.241,30.387,11.686-13.631,11.686-30.387,11.686S237.371,349.851,237.371,343.407Zm59.439,0c0-6.161-13.034-11.174-29.053-11.174s-29.052,5.013-29.052,11.174,13.033,11.173,29.052,11.173S296.81,349.567,296.81,343.407Z" fill="#ffc022"/>
                </g>
                <path id="Path_76411" data-name="Path 76411" d="M263.857,338.887,247.22,343.67v3.322l17.028-5.253a17.289,17.289,0,0,0,7.235,3.072c.255.055.512.1.769.152v2.965h6.176v-2.279c1.346.057,2.6.064,3.691.041v2.238H288.3v-8.9h-6.176v4.3c-1.031.035-2.315.039-3.691-.051v-4.246h-6.176v3.032a7.758,7.758,0,0,1-3.569-2.539Z" fill="#ffc022"/>
              </g>
            </g>
          </g>
        </g>
      </g>
      <g id="Group_66238" data-name="Group 66238">
        <g id="Group_66237" data-name="Group 66237">
          <g id="Group_66236" data-name="Group 66236">
            <g id="Group_66235" data-name="Group 66235">
              <path id="Path_76412" data-name="Path 76412" d="M211.044,407.585c8.493,3.366,22.475-11.811,31.226-33.895s8.962-42.722.47-46.087l-7.266-2.878-31.7,79.981Z" fill="#ff931e"/>
              <g id="Group_66232" data-name="Group 66232">
                <path id="Path_76413" data-name="Path 76413" d="M221.852,370l18.839,7.466q.812-1.853,1.579-3.776L223.36,366.2Z" fill="#d17918"/>
                <path id="Path_76414" data-name="Path 76414" d="M218.8,377.711l18.259,7.235c1.058-1.97,2.079-4.038,3.055-6.186l-18.78-7.443Z" fill="#d17918"/>
                <path id="Path_76415" data-name="Path 76415" d="M236.23,386.452l-21.765-8.626-10.656,26.892,7.235,2.867C217.771,410.251,227.942,401.275,236.23,386.452Z" fill="#d17918"/>
                <path id="Path_76416" data-name="Path 76416" d="M229.006,351.949l17.9,7.094c.109-.46.219-.924.32-1.38l-17.706-7.016Z" fill="#d17918"/>
                <path id="Path_76417" data-name="Path 76417" d="M245.524,364.253c.134-.453.264-.9.388-1.353l-18.363-7.276-.515,1.3Z" fill="#d17918"/>
                <path id="Path_76418" data-name="Path 76418" d="M224.535,363.231l18.863,7.475c.236-.646.463-1.287.684-1.931l-18.793-7.446Z" fill="#d17918"/>
              </g>
              <g id="Group_66234" data-name="Group 66234">
                <path id="Path_76419" data-name="Path 76419" d="M235.005,370.81c-8.752,22.086-22.732,37.261-31.227,33.9s-8.283-24,.469-46.085,22.733-37.264,31.227-33.9S243.758,348.724,235.005,370.81Z" fill="#ff931e"/>
                <path id="Path_76420" data-name="Path 76420" d="M241.261,347.218c-.412,1.148-.843,2.3-1.3,3.464-8.752,22.085-22.733,37.26-31.226,33.895-5.28-2.093-7.194-10.858-5.788-22.493-7.444,20.738-7.214,39.433.834,42.622,8.495,3.365,22.475-11.81,31.227-33.9A97.046,97.046,0,0,0,241.261,347.218Z" opacity="0.4" fill="url(#linear-gradient-4)" style="mix-blend-mode: multiply;isolation: isolate"/>
                <path id="Path_76421" data-name="Path 76421" d="M235.939,324.944c-8.533-2.619-22.151,12.384-30.739,34.054s-8.943,41.929-.931,45.865c8.531,2.62,22.149-12.384,30.736-34.053S243.949,328.881,235.939,324.944Zm-2.84,45.111c-7.113,17.949-18.516,30.327-25.419,27.591s-6.732-19.564.381-37.513,18.517-30.327,25.419-27.592S240.212,352.1,233.1,370.055Z" fill="#d17918"/>
                <path id="Path_76422" data-name="Path 76422" d="M216.055,367.494l-1.684,17.23,3.089,1.224,1.393-17.764a17.333,17.333,0,0,0,5.52-5.6c.146-.217.284-.438.423-.659l2.756,1.092,2.275-5.742-2.118-.84c.552-1.229,1.02-2.4,1.4-3.416l2.079.825,2.275-5.743-8.271-3.277-2.275,5.742,3.993,1.582c-.346.972-.818,2.166-1.406,3.413L221.556,354l-2.275,5.741,2.817,1.116a7.745,7.745,0,0,1-3.674,2.383Z" fill="#d17918"/>
                <path id="Path_76423" data-name="Path 76423" d="M232.526,332.163c6.9,2.735,6.732,19.565-.382,37.514S213.628,400,206.726,397.268s-6.732-19.564.381-37.513,18.516-30.328,25.419-27.592m2.948-7.438c-8.494-3.368-22.475,11.809-31.227,33.9s-8.962,42.718-.469,46.085,22.475-11.81,31.227-33.9,8.963-42.72.469-46.085Z" fill="#ffc022"/>
                <g id="Group_66233" data-name="Group 66233">
                  <path id="Path_76424" data-name="Path 76424" d="M208.432,392.964c-5.993-2.374-5.842-16.98.33-32.553s16.067-26.319,22.059-23.945,5.842,16.977-.331,32.556S214.421,395.339,208.432,392.964Zm21.9-55.258c-5.728-2.268-15.19,8-21.092,22.893s-6.043,28.855-.315,31.126,15.189-8,21.09-22.893S236.057,339.976,230.33,337.706Z" fill="#ffc022"/>
                </g>
                <path id="Path_76425" data-name="Path 76425" d="M213.987,366.676,212.3,383.9l3.089,1.224,1.39-17.766a17.291,17.291,0,0,0,5.521-5.594c.145-.217.282-.439.424-.66l2.757,1.093,2.275-5.741-2.118-.84c.549-1.23,1.018-2.4,1.4-3.416l2.08.824,2.275-5.741-8.273-3.279-2.275,5.741,3.994,1.583c-.347.973-.817,2.168-1.407,3.413l-3.947-1.564-2.276,5.742,2.818,1.116a7.751,7.751,0,0,1-3.676,2.383Z" fill="#ffc022"/>
              </g>
            </g>
          </g>
        </g>
      </g>
    </g>
  </g>
</svg>
