<svg xmlns="http://www.w3.org/2000/svg" width="283.147" height="120.227" viewBox="0 0 283.147 120.227">
  <g id="congratulations" transform="translate(-46.426 -79.273)">
    <path id="Path_76111" data-name="Path 76111" d="M-57.9,164.777a10.19,10.19,0,0,0,4.975.023,21.4,21.4,0,0,0,5.5-2.059,26.2,26.2,0,0,0,5.094-3.551,19.238,19.238,0,0,0,3.83-4.577,11.646,11.646,0,0,0,1.67-5.095,7.816,7.816,0,0,0-1.366-4.99,3.873,3.873,0,0,0-2.175-1.569c-8.742-2.49-18.487,4.979-24.134,15.761-4.771,9.109-7.776,23.968-4,33.986,1.884,4.993,5.393,8.67,10.994,7.375,7.283-1.683,9.7-10.9,7.767-17.337a10.164,10.164,0,0,0-3.553-5.191,5.551,5.551,0,0,1,4.871-1.091c3.84,1.006,5.381,6.34,5.06,9.844-.81,8.818-8.4,16.687-17.177,17.916-6.139.86-12.254-1.722-14.957-9.5-3.883-11.176.774-28.353,6.689-37.982,7.045-11.468,18.467-19.191,28.508-16.916a8.4,8.4,0,0,1,4.567,3.022,10.255,10.255,0,0,1,2.424,5.234,13.437,13.437,0,0,1-.448,5.622,20.892,20.892,0,0,1-2.609,5.572,31.392,31.392,0,0,1-4.1,5.055,30.272,30.272,0,0,1-4.975,4.037,20.413,20.413,0,0,1-5.116,2.461,8.915,8.915,0,0,1-3.715.5,5.061,5.061,0,0,1-2.672-1.013,3.685,3.685,0,0,1-1.311-2.268,6.318,6.318,0,0,1,.365-3.265Zm169.97-20.686-4.193,14.988-.086.278a18.139,18.139,0,0,0-.795,3.588q-.073,1.162.759,1.016c1.73-.3,5.275-7.221,5.7-8.733h0l2.677-9.416-2.817.5.658-2.414,2.816-.5,2.066-7.167,5.65-2.493-2.467,8.737,4.491-.724-.54,2.328-4.609.81L117.768,157.8a5.767,5.767,0,0,0-.282,3.5q.439,1.072,1.335.914c2.878-.506,7.659-6.613,8.408-9.3l3.294-11.627,5.249-.923-4.279,15.265a20.6,20.6,0,0,0-.827,3.593q-.1,1.168.791,1.01c1.842-.324,4.245-5.911,4.941-8.044l.026-.084q.045-.15.091-.3l0-.007h0a36.013,36.013,0,0,1,2.769-6.731,22.108,22.108,0,0,1,3.4-4.768,10.519,10.519,0,0,1,3.537-2.526,5.428,5.428,0,0,1,3.338-.325,3.95,3.95,0,0,1,1.379.775,2.246,2.246,0,0,1,.822,1.4,4.043,4.043,0,0,0-2.414-.462,4.736,4.736,0,0,0-2.648,1.32,13.349,13.349,0,0,0-2.591,3.476,28.146,28.146,0,0,0-2.306,6.02,12.835,12.835,0,0,0-.608,5.328q.319,2.144,1.778,2.61a1.669,1.669,0,0,0,1.611-.415A8.6,8.6,0,0,0,146.4,155.5a20.032,20.032,0,0,0,1.7-3.058,23.716,23.716,0,0,0,1.3-3.544l.346-1.505a3.322,3.322,0,0,1-2.149-1.461,4.543,4.543,0,0,1-.744-2.332,4.076,4.076,0,0,1,.615-2.275,2.844,2.844,0,0,1,2.057-1.314,2.3,2.3,0,0,1,2.587,1.121,6.125,6.125,0,0,1,.65,3.76,16.545,16.545,0,0,0,2.893-1.231,7.547,7.547,0,0,0,2.124-1.576l1.63-5.616,5.185-.912-1.81,6.229a25.153,25.153,0,0,1,3.907-5.087,7.417,7.417,0,0,1,3.664-2.155,2.382,2.382,0,0,1,1.513.193,2.416,2.416,0,0,1,1.067,1.082,4.206,4.206,0,0,1,.4,1.866,6.633,6.633,0,0,1-.489,2.439c-1.091,2.983-1.968,5.4-2.633,7.238s-1.144,3.266-1.438,4.281a6.855,6.855,0,0,0-.4,2q.047.485.431.417,1.28-.225,2.652-2.7a28.035,28.035,0,0,0,2.22-5.543l-.039-.029,2.651-9.134a8.409,8.409,0,0,1,.022-3.878,11.2,11.2,0,0,1,1.856-3.938,4.321,4.321,0,0,1,2.218-1.736,1.635,1.635,0,0,1,1.737.351,2.519,2.519,0,0,1,.409,2.1,8.26,8.26,0,0,1-1.637,3.473,8.906,8.906,0,0,0-1.71,3.026,1.716,1.716,0,0,0,.486,1.556,9.938,9.938,0,0,0,1.771,1.363,7.576,7.576,0,0,1,2.2,2.371,5.929,5.929,0,0,1,1,3.5A10.44,10.44,0,0,1,182,151.544a5.917,5.917,0,0,1-2.447,1.744,9.7,9.7,0,0,0,2.75-1.5,15.99,15.99,0,0,0,1.439-1.216h0c.069-.069.138-.133.207-.2l.042-.042h0c10.645-10.264,20.892,1.331,6.726,13.749-26.658,23.368-95.239,21.379-130.373,25.26-18.754,2.072-37.119,6.146-52.8,15.6C18.911,189.256,37.6,183.82,58.9,181.231c33.437-4.066,104.118-.333,129.587-19.612,11.836-8.959,4.772-17.285-2.225-10.469q-.253.268-.513.525l0,0h0a19.824,19.824,0,0,1-2.408,2.028,17.022,17.022,0,0,1-5.275,2.57,10.92,10.92,0,0,1-3.061.417c-2.022.03-2.3-2.1-.4-2.618a4.725,4.725,0,0,0,2.266-1.464,10.3,10.3,0,0,0,2.166-3.861,12.925,12.925,0,0,0,.595-4.6,6.355,6.355,0,0,0-1.353-3.834q-.17-.232-.334-.434t-.335-.434l-2.007,6.822.035.026a32.485,32.485,0,0,1-3.486,8.461,7.352,7.352,0,0,1-4.932,3.658,3.624,3.624,0,0,1-2.451-.291,2.809,2.809,0,0,1-1.219-2.215,12.54,12.54,0,0,1,.5-4.586,47.326,47.326,0,0,1,2.715-7.34,22.928,22.928,0,0,0,1.456-3.769q.383-1.479-.321-1.355-.576.1-1.684,1.577a32.392,32.392,0,0,0-2.4,3.837q-1.292,2.361-2.634,5.421t-2.4,6.266L157.65,159.9l-5.313.934,4.534-15.626q-.568.371-1.151.68a14.987,14.987,0,0,1-3.309,1.3,4.762,4.762,0,0,1-.195,1.019,10.188,10.188,0,0,0-.259,1.031,31.925,31.925,0,0,1-2.063,5.288,22.383,22.383,0,0,1-3.021,4.668,12.58,12.58,0,0,1-3.683,3.045,5.569,5.569,0,0,1-4.1.492q-2.206-.6-3.1-3.46-.053-.17-.1-.345c-1.536,2.843-3.691,5.437-6.439,5.925q-2.688.477-3.631-1.66a5.669,5.669,0,0,1-.392-2.426c-3.034,3.815-7.476,7.217-11.043,5.9a3.323,3.323,0,0,1-1.713-1.406,5.247,5.247,0,0,1-.685-2.148c-1.775,2.695-4.039,5.076-6.3,5.474a2.976,2.976,0,0,1-3.81-2.35,12.866,12.866,0,0,1-3.438,3.33,3.866,3.866,0,0,1-3.653.413q-1.726-.742-2.173-3.554a13.772,13.772,0,0,1-2,2.779q-2.727,2.844-5.286,2.506a3.96,3.96,0,0,1-2.337-1.2,6.41,6.41,0,0,1-1.565-3.53,22.253,22.253,0,0,1-1.751,3.391,7.393,7.393,0,0,1-4.9,3.653,3.046,3.046,0,0,1-3.26-1q-1.019-1.4-.595-4.426a28.842,28.842,0,0,1-3.2,4.963,5.717,5.717,0,0,1-3.12,2.256,3.5,3.5,0,0,1-2.281-.255,2.944,2.944,0,0,1-1.359-1.862,7.367,7.367,0,0,1-.273-2.206c-2.248,3.053-5.27,5.838-8.052,6.327a4.491,4.491,0,0,1-2.366-.175,3.321,3.321,0,0,1-1.713-1.406,5.249,5.249,0,0,1-.685-2.148c-1.775,2.694-4.039,5.076-6.3,5.474a2.975,2.975,0,0,1-3.81-2.35,12.864,12.864,0,0,1-3.438,3.33,3.864,3.864,0,0,1-3.653.413q-1.842-.792-2.227-3.942l-.015-.127c-1.738,2.869-4.1,5.549-6.525,5.976q-2.688.473-3.6-1.665t.329-6.625q.41-1.517.754-2.628t.662-1.988q.317-.876.613-1.684t.661-1.791a2.636,2.636,0,0,0,.127-1.434,1.649,1.649,0,0,0-.8-1.074l-1.379,4.84c-1.893,7.584-4.6,11.376-10.6,16.049l-.076.342a44.739,44.739,0,0,1-2.51,6.778,26.869,26.869,0,0,1-3.156,5.25,10.7,10.7,0,0,1-3.549,3.054,4.223,4.223,0,0,1-3.7.126A3.9,3.9,0,0,1-6.328,198.5a4.209,4.209,0,0,1-.06-2.977,7.614,7.614,0,0,1,1.4-2.677,18.785,18.785,0,0,1,2.369-2.42A31.328,31.328,0,0,1,.432,188.12q1.662-1.113,3.435-2.344l.688-1.828a9.877,9.877,0,0,1-3.03,2.4,3.667,3.667,0,0,1-3.14.126q-1.715-.737-2.139-3.522c-1.481,2.667-3.488,4.977-6.057,5.429a3.621,3.621,0,0,1-2.451-.291,2.81,2.81,0,0,1-1.22-2.215,12.54,12.54,0,0,1,.5-4.586,47.293,47.293,0,0,1,2.715-7.34,22.919,22.919,0,0,0,1.456-3.769q.383-1.48-.321-1.355-.576.1-1.684,1.577a32.4,32.4,0,0,0-2.4,3.837q-1.292,2.361-2.634,5.421t-2.4,6.266l-1.131,3.942-5.313.935,4.472-15.412q-.587.386-1.189.705a14.99,14.99,0,0,1-3.309,1.3,4.762,4.762,0,0,1-.2,1.019c-.1.324-.162.674-.259,1.031a29.724,29.724,0,0,1-2.063,5.288,22.392,22.392,0,0,1-3.021,4.668,12.579,12.579,0,0,1-3.682,3.045,5.522,5.522,0,0,1-4.1.492c-1.473-.388-2.5-1.552-3.1-3.46s-.443-4.3.438-7.169a37.2,37.2,0,0,1,2.863-7.038,22.1,22.1,0,0,1,3.4-4.768,10.528,10.528,0,0,1,3.537-2.527,5.307,5.307,0,0,1,3.338-.324,3.649,3.649,0,0,1,1.379.775,2.245,2.245,0,0,1,.822,1.4,4.045,4.045,0,0,0-2.414-.462,4.733,4.733,0,0,0-2.648,1.32,13.343,13.343,0,0,0-2.591,3.476,29,29,0,0,0-2.306,6.02,13.082,13.082,0,0,0-.608,5.328,2.878,2.878,0,0,0,1.778,2.609,1.713,1.713,0,0,0,1.612-.415,8.6,8.6,0,0,0,1.813-1.993,19.986,19.986,0,0,0,1.7-3.058,18.716,18.716,0,0,0,1.3-3.544l.346-1.505a3.322,3.322,0,0,1-2.149-1.461,4.543,4.543,0,0,1-.745-2.332,4.077,4.077,0,0,1,.615-2.275,2.844,2.844,0,0,1,2.057-1.314,2.3,2.3,0,0,1,2.587,1.121,6.127,6.127,0,0,1,.65,3.76,16.552,16.552,0,0,0,2.893-1.231,7.409,7.409,0,0,0,2.169-1.629h0l1.684-5.8,5.185-.912-1.81,6.229a25.148,25.148,0,0,1,3.907-5.087,7.42,7.42,0,0,1,3.664-2.155,2.383,2.383,0,0,1,1.514.194A2.415,2.415,0,0,1-4.1,165.8a4.206,4.206,0,0,1,.4,1.866,6.628,6.628,0,0,1-.489,2.439c-1.091,2.983-1.968,5.4-2.633,7.238s-1.144,3.266-1.438,4.281a6.844,6.844,0,0,0-.4,2q.047.484.43.417c2.107-.371,4.5-6.145,5.256-8.512q.066-.225.136-.453A37.059,37.059,0,0,1-.072,168.18a21.065,21.065,0,0,1,3.09-4.45,8.9,8.9,0,0,1,3.088-2.251,4.739,4.739,0,0,1,2.816-.3,3.449,3.449,0,0,1,1.4.935l.162-.62,5.249-.923q-.96,3.386-2.026,6.923-.883,3.045-1.961,6.714t-2.08,7.2c4.761-4.278,5.966-7.728,7.8-13.85l.026.018,1.461-5.008a5.835,5.835,0,0,1-.931-2.266,4.776,4.776,0,0,1,.317-2.683,3.161,3.161,0,0,1,1.717-1.977,2.355,2.355,0,0,1,1.978.014,2.143,2.143,0,0,1,1.11,1.545,3.37,3.37,0,0,1-.824,2.608,1.88,1.88,0,0,0-.429.995.737.737,0,0,0,.265.61,1.96,1.96,0,0,0,.681.34q.416.124.756.2a3.59,3.59,0,0,1,2.154,1.492,2.664,2.664,0,0,1,.318,2.341l-2.135,7.862a18.141,18.141,0,0,0-.794,3.587q-.073,1.162.759,1.016c1.736-.306,4.914-6.683,5.344-8.226h0q.067-.228.138-.458a37.076,37.076,0,0,1,2.756-6.887,21.07,21.07,0,0,1,3.09-4.451,8.869,8.869,0,0,1,3.12-2.256,4.587,4.587,0,0,1,2.784-.292,2.4,2.4,0,0,1,1.415,1l.216-.695,5.185-.912-4.193,14.987-.086.278a18.126,18.126,0,0,0-.794,3.587q-.073,1.162.759,1.016c1.73-.3,5.275-7.221,5.7-8.733h0l2.677-9.416-2.816.5.658-2.414,2.817-.5L55.1,145.9l5.65-2.493L57.915,153.45l4.491-.724-.54,2.328-4.608.81-3.611,12.915a5.767,5.767,0,0,0-.283,3.5q.439,1.072,1.336.914c2.772-.488,6.51-6.009,7.4-8.751l.068-.225,0-.008h0q.907-2.98,1.713-5.172.865-2.352,1.531-3.914.752-1.839,1.278-3.048l5.185-.912q-.9,2.129-1.73,4.31-.752,1.84-1.51,4.042t-1.351,4.21q-2.156,7.734-.684,7.475.512-.09,1.67-2.067t2.509-4.775q1.352-2.8,2.683-5.922t2.192-5.508l.893-2.587,4.545-.8L76.813,164.8a18.128,18.128,0,0,0-.795,3.587q-.073,1.162.759,1.015,1.28-.225,2.412-2.558a37.444,37.444,0,0,0,2.167-6.047q.03-.3.066-.617a60.875,60.875,0,0,1,2.4-10.469q1.938-6.251,4.016-11.246a63.491,63.491,0,0,1,4.1-8.338,18.788,18.788,0,0,1,3.939-4.9q1.919-1.553,3.537-.918,1.555.646,1.637,3.357a21.741,21.741,0,0,1-1.478,7.254,81.316,81.316,0,0,1-4.842,10.833,145.286,145.286,0,0,1-8.476,13.968,22.258,22.258,0,0,0-.267,3.593,11.922,11.922,0,0,0,.254,2.352,3.606,3.606,0,0,0,.55,1.348,1.378,1.378,0,0,0,.612.516q.49.176,1.3-.492a9.937,9.937,0,0,0,1.7-1.907,22.674,22.674,0,0,0,1.752-2.968,19.9,19.9,0,0,0,1.014-2.4q.154-.582.341-1.187a37.038,37.038,0,0,1,2.756-6.887,21.051,21.051,0,0,1,3.09-4.451,8.869,8.869,0,0,1,3.12-2.256,4.586,4.586,0,0,1,2.784-.292,2.4,2.4,0,0,1,1.415,1l.215-.694,5.185-.912Zm-7.937,11.837q.443-1.72.82-3.231a17.76,17.76,0,0,0,.483-2.679,6.644,6.644,0,0,0-.048-1.9,1.173,1.173,0,0,0-.781-.946q-.564-.229-1.329.529a10.946,10.946,0,0,0-1.568,2.082,24.951,24.951,0,0,0-1.566,3.1,27.853,27.853,0,0,0-1.258,3.57,30.866,30.866,0,0,0-.74,3.118,21.117,21.117,0,0,0-.334,2.784,8.715,8.715,0,0,0,.111,2.082q.168.824.712.926.49.177,1.217-.608a11.555,11.555,0,0,0,1.493-2.134,31.628,31.628,0,0,0,1.529-3.126,27.85,27.85,0,0,0,1.258-3.57Zm33.427-20.311a4.138,4.138,0,0,1-1.14,2.488,4.1,4.1,0,0,1-2.375,1.381,2.337,2.337,0,0,1-2.138-.587,2.388,2.388,0,0,1-.685-2.167,4.289,4.289,0,0,1,1.135-2.52,4.017,4.017,0,0,1,2.369-1.413,2.227,2.227,0,0,1,2.111.625,2.668,2.668,0,0,1,.722,2.193Zm-39.19-5.993q-.287-.146-1.273,1.274a37.584,37.584,0,0,0-2.38,4.162q-1.394,2.741-3.043,6.741t-3.2,9l-.937,3.12q2.412-4.167,4.584-8.391t3.745-7.685a53.668,53.668,0,0,0,2.288-5.722q.716-2.26.215-2.5ZM40.014,166.9q.442-1.72.82-3.231A17.75,17.75,0,0,0,41.316,161a6.643,6.643,0,0,0-.048-1.9,1.172,1.172,0,0,0-.781-.946q-.564-.229-1.329.529a10.945,10.945,0,0,0-1.568,2.082,25,25,0,0,0-1.566,3.1,27.87,27.87,0,0,0-1.258,3.57,30.809,30.809,0,0,0-.74,3.118,21.12,21.12,0,0,0-.334,2.784,8.7,8.7,0,0,0,.111,2.082q.168.824.712.926.49.177,1.217-.608a11.543,11.543,0,0,0,1.494-2.134,31.6,31.6,0,0,0,1.529-3.125,27.855,27.855,0,0,0,1.258-3.57ZM7.736,172.421q.506-1.731.852-3.236a25.156,25.156,0,0,0,.483-2.679,6.129,6.129,0,0,0-.016-1.9,1.172,1.172,0,0,0-.781-.946q-.565-.229-1.329.529a10.956,10.956,0,0,0-1.568,2.082,24.985,24.985,0,0,0-1.566,3.1,27.853,27.853,0,0,0-1.258,3.57,30.851,30.851,0,0,0-.74,3.118,26.033,26.033,0,0,0-.366,2.79,6.912,6.912,0,0,0,.111,2.082q.2.818.68.931.49.177,1.249-.614a10.771,10.771,0,0,0,1.526-2.14,27.9,27.9,0,0,0,1.5-3.12,30.967,30.967,0,0,0,1.226-3.565ZM-3.959,196.28q-.206,1.153.518,1.551a1.234,1.234,0,0,0,1.408-.248,7.125,7.125,0,0,0,1.52-1.777,24.076,24.076,0,0,0,1.539-2.864q.778-1.68,1.53-3.52a49.87,49.87,0,0,0-4.415,3.6,6.167,6.167,0,0,0-2.1,3.259Z" transform="translate(151.125 -30.948) rotate(8)" opacity="0.11"/>
    <path id="Path_76112" data-name="Path 76112" d="M-57.9,164.777a10.19,10.19,0,0,0,4.975.023,21.4,21.4,0,0,0,5.5-2.059,26.2,26.2,0,0,0,5.094-3.551,19.238,19.238,0,0,0,3.83-4.577,11.646,11.646,0,0,0,1.67-5.095,7.816,7.816,0,0,0-1.366-4.99,3.873,3.873,0,0,0-2.175-1.569c-8.742-2.49-18.487,4.979-24.134,15.761-4.771,9.109-7.776,23.968-4,33.986,1.884,4.993,5.393,8.67,10.994,7.375,7.283-1.683,9.7-10.9,7.767-17.337a10.164,10.164,0,0,0-3.553-5.191,5.551,5.551,0,0,1,4.871-1.091c3.84,1.006,5.381,6.34,5.06,9.844-.81,8.818-8.4,16.687-17.177,17.916-6.139.86-12.254-1.722-14.957-9.5-3.883-11.176.774-28.353,6.689-37.982,7.045-11.468,18.467-19.191,28.508-16.916a8.4,8.4,0,0,1,4.567,3.022,10.255,10.255,0,0,1,2.424,5.234,13.437,13.437,0,0,1-.448,5.622,20.892,20.892,0,0,1-2.609,5.572,31.392,31.392,0,0,1-4.1,5.055,30.272,30.272,0,0,1-4.975,4.037,20.413,20.413,0,0,1-5.116,2.461,8.915,8.915,0,0,1-3.715.5,5.061,5.061,0,0,1-2.672-1.013,3.685,3.685,0,0,1-1.311-2.268,6.318,6.318,0,0,1,.365-3.265Zm169.97-20.686-4.193,14.988-.086.278a18.139,18.139,0,0,0-.795,3.588q-.073,1.162.759,1.016c1.73-.3,5.275-7.221,5.7-8.733h0l2.677-9.416-2.817.5.658-2.414,2.816-.5,2.066-7.167,5.65-2.493-2.467,8.737,4.491-.724-.54,2.328-4.609.81L117.768,157.8a5.767,5.767,0,0,0-.282,3.5q.439,1.072,1.335.914c2.878-.506,7.659-6.613,8.408-9.3l3.294-11.627,5.249-.923-4.279,15.265a20.6,20.6,0,0,0-.827,3.593q-.1,1.168.791,1.01c1.842-.324,4.245-5.911,4.941-8.044l.026-.084q.045-.15.091-.3l0-.007h0a36.013,36.013,0,0,1,2.769-6.731,22.108,22.108,0,0,1,3.4-4.768,10.519,10.519,0,0,1,3.537-2.526,5.428,5.428,0,0,1,3.338-.325,3.95,3.95,0,0,1,1.379.775,2.246,2.246,0,0,1,.822,1.4,4.043,4.043,0,0,0-2.414-.462,4.736,4.736,0,0,0-2.648,1.32,13.349,13.349,0,0,0-2.591,3.476,28.146,28.146,0,0,0-2.306,6.02,12.835,12.835,0,0,0-.608,5.328q.319,2.144,1.778,2.61a1.669,1.669,0,0,0,1.611-.415A8.6,8.6,0,0,0,146.4,155.5a20.032,20.032,0,0,0,1.7-3.058,23.716,23.716,0,0,0,1.3-3.544l.346-1.505a3.322,3.322,0,0,1-2.149-1.461,4.543,4.543,0,0,1-.744-2.332,4.076,4.076,0,0,1,.615-2.275,2.844,2.844,0,0,1,2.057-1.314,2.3,2.3,0,0,1,2.587,1.121,6.125,6.125,0,0,1,.65,3.76,16.545,16.545,0,0,0,2.893-1.231,7.547,7.547,0,0,0,2.124-1.576l1.63-5.616,5.185-.912-1.81,6.229a25.153,25.153,0,0,1,3.907-5.087,7.417,7.417,0,0,1,3.664-2.155,2.382,2.382,0,0,1,1.513.193,2.416,2.416,0,0,1,1.067,1.082,4.206,4.206,0,0,1,.4,1.866,6.633,6.633,0,0,1-.489,2.439c-1.091,2.983-1.968,5.4-2.633,7.238s-1.144,3.266-1.438,4.281a6.855,6.855,0,0,0-.4,2q.047.485.431.417,1.28-.225,2.652-2.7a28.035,28.035,0,0,0,2.22-5.543l-.039-.029,2.651-9.134a8.409,8.409,0,0,1,.022-3.878,11.2,11.2,0,0,1,1.856-3.938,4.321,4.321,0,0,1,2.218-1.736,1.635,1.635,0,0,1,1.737.351,2.519,2.519,0,0,1,.409,2.1,8.26,8.26,0,0,1-1.637,3.473,8.906,8.906,0,0,0-1.71,3.026,1.716,1.716,0,0,0,.486,1.556,9.938,9.938,0,0,0,1.771,1.363,7.576,7.576,0,0,1,2.2,2.371,5.929,5.929,0,0,1,1,3.5A10.44,10.44,0,0,1,182,151.544a5.917,5.917,0,0,1-2.447,1.744,9.7,9.7,0,0,0,2.75-1.5,15.99,15.99,0,0,0,1.439-1.216h0c.069-.069.138-.133.207-.2l.042-.042h0c10.645-10.264,20.892,1.331,6.726,13.749-26.658,23.368-95.239,21.379-130.373,25.26-18.754,2.072-37.119,6.146-52.8,15.6C18.911,189.256,37.6,183.82,58.9,181.231c33.437-4.066,104.118-.333,129.587-19.612,11.836-8.959,4.772-17.285-2.225-10.469q-.253.268-.513.525l0,0h0a19.824,19.824,0,0,1-2.408,2.028,17.022,17.022,0,0,1-5.275,2.57,10.92,10.92,0,0,1-3.061.417c-2.022.03-2.3-2.1-.4-2.618a4.725,4.725,0,0,0,2.266-1.464,10.3,10.3,0,0,0,2.166-3.861,12.925,12.925,0,0,0,.595-4.6,6.355,6.355,0,0,0-1.353-3.834q-.17-.232-.334-.434t-.335-.434l-2.007,6.822.035.026a32.485,32.485,0,0,1-3.486,8.461,7.352,7.352,0,0,1-4.932,3.658,3.624,3.624,0,0,1-2.451-.291,2.809,2.809,0,0,1-1.219-2.215,12.54,12.54,0,0,1,.5-4.586,47.326,47.326,0,0,1,2.715-7.34,22.928,22.928,0,0,0,1.456-3.769q.383-1.479-.321-1.355-.576.1-1.684,1.577a32.392,32.392,0,0,0-2.4,3.837q-1.292,2.361-2.634,5.421t-2.4,6.266L157.65,159.9l-5.313.934,4.534-15.626q-.568.371-1.151.68a14.987,14.987,0,0,1-3.309,1.3,4.762,4.762,0,0,1-.195,1.019,10.188,10.188,0,0,0-.259,1.031,31.925,31.925,0,0,1-2.063,5.288,22.383,22.383,0,0,1-3.021,4.668,12.58,12.58,0,0,1-3.683,3.045,5.569,5.569,0,0,1-4.1.492q-2.206-.6-3.1-3.46-.053-.17-.1-.345c-1.536,2.843-3.691,5.437-6.439,5.925q-2.688.477-3.631-1.66a5.669,5.669,0,0,1-.392-2.426c-3.034,3.815-7.476,7.217-11.043,5.9a3.323,3.323,0,0,1-1.713-1.406,5.247,5.247,0,0,1-.685-2.148c-1.775,2.695-4.039,5.076-6.3,5.474a2.976,2.976,0,0,1-3.81-2.35,12.866,12.866,0,0,1-3.438,3.33,3.866,3.866,0,0,1-3.653.413q-1.726-.742-2.173-3.554a13.772,13.772,0,0,1-2,2.779q-2.727,2.844-5.286,2.506a3.96,3.96,0,0,1-2.337-1.2,6.41,6.41,0,0,1-1.565-3.53,22.253,22.253,0,0,1-1.751,3.391,7.393,7.393,0,0,1-4.9,3.653,3.046,3.046,0,0,1-3.26-1q-1.019-1.4-.595-4.426a28.842,28.842,0,0,1-3.2,4.963,5.717,5.717,0,0,1-3.12,2.256,3.5,3.5,0,0,1-2.281-.255,2.944,2.944,0,0,1-1.359-1.862,7.367,7.367,0,0,1-.273-2.206c-2.248,3.053-5.27,5.838-8.052,6.327a4.491,4.491,0,0,1-2.366-.175,3.321,3.321,0,0,1-1.713-1.406,5.249,5.249,0,0,1-.685-2.148c-1.775,2.694-4.039,5.076-6.3,5.474a2.975,2.975,0,0,1-3.81-2.35,12.864,12.864,0,0,1-3.438,3.33,3.864,3.864,0,0,1-3.653.413q-1.842-.792-2.227-3.942l-.015-.127c-1.738,2.869-4.1,5.549-6.525,5.976q-2.688.473-3.6-1.665t.329-6.625q.41-1.517.754-2.628t.662-1.988q.317-.876.613-1.684t.661-1.791a2.636,2.636,0,0,0,.127-1.434,1.649,1.649,0,0,0-.8-1.074l-1.379,4.84c-1.893,7.584-4.6,11.376-10.6,16.049l-.076.342a44.739,44.739,0,0,1-2.51,6.778,26.869,26.869,0,0,1-3.156,5.25,10.7,10.7,0,0,1-3.549,3.054,4.223,4.223,0,0,1-3.7.126A3.9,3.9,0,0,1-6.328,198.5a4.209,4.209,0,0,1-.06-2.977,7.614,7.614,0,0,1,1.4-2.677,18.785,18.785,0,0,1,2.369-2.42A31.328,31.328,0,0,1,.432,188.12q1.662-1.113,3.435-2.344l.688-1.828a9.877,9.877,0,0,1-3.03,2.4,3.667,3.667,0,0,1-3.14.126q-1.715-.737-2.139-3.522c-1.481,2.667-3.488,4.977-6.057,5.429a3.621,3.621,0,0,1-2.451-.291,2.81,2.81,0,0,1-1.22-2.215,12.54,12.54,0,0,1,.5-4.586,47.293,47.293,0,0,1,2.715-7.34,22.919,22.919,0,0,0,1.456-3.769q.383-1.48-.321-1.355-.576.1-1.684,1.577a32.4,32.4,0,0,0-2.4,3.837q-1.292,2.361-2.634,5.421t-2.4,6.266l-1.131,3.942-5.313.935,4.472-15.412q-.587.386-1.189.705a14.99,14.99,0,0,1-3.309,1.3,4.762,4.762,0,0,1-.2,1.019c-.1.324-.162.674-.259,1.031a29.724,29.724,0,0,1-2.063,5.288,22.392,22.392,0,0,1-3.021,4.668,12.579,12.579,0,0,1-3.682,3.045,5.522,5.522,0,0,1-4.1.492c-1.473-.388-2.5-1.552-3.1-3.46s-.443-4.3.438-7.169a37.2,37.2,0,0,1,2.863-7.038,22.1,22.1,0,0,1,3.4-4.768,10.528,10.528,0,0,1,3.537-2.527,5.307,5.307,0,0,1,3.338-.324,3.649,3.649,0,0,1,1.379.775,2.245,2.245,0,0,1,.822,1.4,4.045,4.045,0,0,0-2.414-.462,4.733,4.733,0,0,0-2.648,1.32,13.343,13.343,0,0,0-2.591,3.476,29,29,0,0,0-2.306,6.02,13.082,13.082,0,0,0-.608,5.328,2.878,2.878,0,0,0,1.778,2.609,1.713,1.713,0,0,0,1.612-.415,8.6,8.6,0,0,0,1.813-1.993,19.986,19.986,0,0,0,1.7-3.058,18.716,18.716,0,0,0,1.3-3.544l.346-1.505a3.322,3.322,0,0,1-2.149-1.461,4.543,4.543,0,0,1-.745-2.332,4.077,4.077,0,0,1,.615-2.275,2.844,2.844,0,0,1,2.057-1.314,2.3,2.3,0,0,1,2.587,1.121,6.127,6.127,0,0,1,.65,3.76,16.552,16.552,0,0,0,2.893-1.231,7.409,7.409,0,0,0,2.169-1.629h0l1.684-5.8,5.185-.912-1.81,6.229a25.148,25.148,0,0,1,3.907-5.087,7.42,7.42,0,0,1,3.664-2.155,2.383,2.383,0,0,1,1.514.194A2.415,2.415,0,0,1-4.1,165.8a4.206,4.206,0,0,1,.4,1.866,6.628,6.628,0,0,1-.489,2.439c-1.091,2.983-1.968,5.4-2.633,7.238s-1.144,3.266-1.438,4.281a6.844,6.844,0,0,0-.4,2q.047.484.43.417c2.107-.371,4.5-6.145,5.256-8.512q.066-.225.136-.453A37.059,37.059,0,0,1-.072,168.18a21.065,21.065,0,0,1,3.09-4.45,8.9,8.9,0,0,1,3.088-2.251,4.739,4.739,0,0,1,2.816-.3,3.449,3.449,0,0,1,1.4.935l.162-.62,5.249-.923q-.96,3.386-2.026,6.923-.883,3.045-1.961,6.714t-2.08,7.2c4.761-4.278,5.966-7.728,7.8-13.85l.026.018,1.461-5.008a5.835,5.835,0,0,1-.931-2.266,4.776,4.776,0,0,1,.317-2.683,3.161,3.161,0,0,1,1.717-1.977,2.355,2.355,0,0,1,1.978.014,2.143,2.143,0,0,1,1.11,1.545,3.37,3.37,0,0,1-.824,2.608,1.88,1.88,0,0,0-.429.995.737.737,0,0,0,.265.61,1.96,1.96,0,0,0,.681.34q.416.124.756.2a3.59,3.59,0,0,1,2.154,1.492,2.664,2.664,0,0,1,.318,2.341l-2.135,7.862a18.141,18.141,0,0,0-.794,3.587q-.073,1.162.759,1.016c1.736-.306,4.914-6.683,5.344-8.226h0q.067-.228.138-.458a37.076,37.076,0,0,1,2.756-6.887,21.07,21.07,0,0,1,3.09-4.451,8.869,8.869,0,0,1,3.12-2.256,4.587,4.587,0,0,1,2.784-.292,2.4,2.4,0,0,1,1.415,1l.216-.695,5.185-.912-4.193,14.987-.086.278a18.126,18.126,0,0,0-.794,3.587q-.073,1.162.759,1.016c1.73-.3,5.275-7.221,5.7-8.733h0l2.677-9.416-2.816.5.658-2.414,2.817-.5L55.1,145.9l5.65-2.493L57.915,153.45l4.491-.724-.54,2.328-4.608.81-3.611,12.915a5.767,5.767,0,0,0-.283,3.5q.439,1.072,1.336.914c2.772-.488,6.51-6.009,7.4-8.751l.068-.225,0-.008h0q.907-2.98,1.713-5.172.865-2.352,1.531-3.914.752-1.839,1.278-3.048l5.185-.912q-.9,2.129-1.73,4.31-.752,1.84-1.51,4.042t-1.351,4.21q-2.156,7.734-.684,7.475.512-.09,1.67-2.067t2.509-4.775q1.352-2.8,2.683-5.922t2.192-5.508l.893-2.587,4.545-.8L76.813,164.8a18.128,18.128,0,0,0-.795,3.587q-.073,1.162.759,1.015,1.28-.225,2.412-2.558a37.444,37.444,0,0,0,2.167-6.047q.03-.3.066-.617a60.875,60.875,0,0,1,2.4-10.469q1.938-6.251,4.016-11.246a63.491,63.491,0,0,1,4.1-8.338,18.788,18.788,0,0,1,3.939-4.9q1.919-1.553,3.537-.918,1.555.646,1.637,3.357a21.741,21.741,0,0,1-1.478,7.254,81.316,81.316,0,0,1-4.842,10.833,145.286,145.286,0,0,1-8.476,13.968,22.258,22.258,0,0,0-.267,3.593,11.922,11.922,0,0,0,.254,2.352,3.606,3.606,0,0,0,.55,1.348,1.378,1.378,0,0,0,.612.516q.49.176,1.3-.492a9.937,9.937,0,0,0,1.7-1.907,22.674,22.674,0,0,0,1.752-2.968,19.9,19.9,0,0,0,1.014-2.4q.154-.582.341-1.187a37.038,37.038,0,0,1,2.756-6.887,21.051,21.051,0,0,1,3.09-4.451,8.869,8.869,0,0,1,3.12-2.256,4.586,4.586,0,0,1,2.784-.292,2.4,2.4,0,0,1,1.415,1l.215-.694,5.185-.912Zm-7.937,11.837q.443-1.72.82-3.231a17.76,17.76,0,0,0,.483-2.679,6.644,6.644,0,0,0-.048-1.9,1.173,1.173,0,0,0-.781-.946q-.564-.229-1.329.529a10.946,10.946,0,0,0-1.568,2.082,24.951,24.951,0,0,0-1.566,3.1,27.853,27.853,0,0,0-1.258,3.57,30.866,30.866,0,0,0-.74,3.118,21.117,21.117,0,0,0-.334,2.784,8.715,8.715,0,0,0,.111,2.082q.168.824.712.926.49.177,1.217-.608a11.555,11.555,0,0,0,1.493-2.134,31.628,31.628,0,0,0,1.529-3.126,27.85,27.85,0,0,0,1.258-3.57Zm33.427-20.311a4.138,4.138,0,0,1-1.14,2.488,4.1,4.1,0,0,1-2.375,1.381,2.337,2.337,0,0,1-2.138-.587,2.388,2.388,0,0,1-.685-2.167,4.289,4.289,0,0,1,1.135-2.52,4.017,4.017,0,0,1,2.369-1.413,2.227,2.227,0,0,1,2.111.625,2.668,2.668,0,0,1,.722,2.193Zm-39.19-5.993q-.287-.146-1.273,1.274a37.584,37.584,0,0,0-2.38,4.162q-1.394,2.741-3.043,6.741t-3.2,9l-.937,3.12q2.412-4.167,4.584-8.391t3.745-7.685a53.668,53.668,0,0,0,2.288-5.722q.716-2.26.215-2.5ZM40.014,166.9q.442-1.72.82-3.231A17.75,17.75,0,0,0,41.316,161a6.643,6.643,0,0,0-.048-1.9,1.172,1.172,0,0,0-.781-.946q-.564-.229-1.329.529a10.945,10.945,0,0,0-1.568,2.082,25,25,0,0,0-1.566,3.1,27.87,27.87,0,0,0-1.258,3.57,30.809,30.809,0,0,0-.74,3.118,21.12,21.12,0,0,0-.334,2.784,8.7,8.7,0,0,0,.111,2.082q.168.824.712.926.49.177,1.217-.608a11.543,11.543,0,0,0,1.494-2.134,31.6,31.6,0,0,0,1.529-3.125,27.855,27.855,0,0,0,1.258-3.57ZM7.736,172.421q.506-1.731.852-3.236a25.156,25.156,0,0,0,.483-2.679,6.129,6.129,0,0,0-.016-1.9,1.172,1.172,0,0,0-.781-.946q-.565-.229-1.329.529a10.956,10.956,0,0,0-1.568,2.082,24.985,24.985,0,0,0-1.566,3.1,27.853,27.853,0,0,0-1.258,3.57,30.851,30.851,0,0,0-.74,3.118,26.033,26.033,0,0,0-.366,2.79,6.912,6.912,0,0,0,.111,2.082q.2.818.68.931.49.177,1.249-.614a10.771,10.771,0,0,0,1.526-2.14,27.9,27.9,0,0,0,1.5-3.12,30.967,30.967,0,0,0,1.226-3.565ZM-3.959,196.28q-.206,1.153.518,1.551a1.234,1.234,0,0,0,1.408-.248,7.125,7.125,0,0,0,1.52-1.777,24.076,24.076,0,0,0,1.539-2.864q.778-1.68,1.53-3.52a49.87,49.87,0,0,0-4.415,3.6,6.167,6.167,0,0,0-2.1,3.259Z" transform="translate(151.125 -32.948) rotate(8)" fill="#c80880"/>
  </g>
</svg>
