<svg xmlns="http://www.w3.org/2000/svg" xmlns:xlink="http://www.w3.org/1999/xlink" width="709.311" height="687.421" viewBox="0 0 709.311 687.421">
  <defs>
    <clipPath id="clip-path">
      <circle id="Ellipse_3875" data-name="Ellipse 3875" cx="28.953" cy="28.953" r="28.953"/>
    </clipPath>
  </defs>
  <g id="Group_65708" transform="translate(-12.486 -47.979)">
    <g id="Group_65704" transform="translate(74.408 82.464)">
      <g id="Group_65702" transform="translate(150.719)">
        <g id="Group_65698" transform="translate(71.623)">
          <g id="Group_65697" transform="translate(0 26.496)">
            <path id="Path_75037" d="M241.5,138.655s-3.453-85.53-3.984-85.265S134.982,0,134.982,0L114.264,9.031C81.592,59.765-20.141,222.06,3.5,255c28.156,39.046,119.8,29.484,119.8,29.484l30.281,58.7,26.031-9.3L214.4,177.17s28.156,28.687,59.5,3.984C296.746,163.357,271.246,138.123,241.5,138.655Z" transform="translate(0.028 0)" fill="#f6ecc2"/>
            <g id="Group_65696" transform="translate(43.333 101.178)">
              <path id="Path_75038" d="M9.261,11.9C1.823,20.131-1.9,44.568,10.589,49.881,28.12,57.318,38.745,30.225,43.26,18.537c1.328-3.187-4.781-3.187-5.578-.8-3.187,8.234-12.75,35.593-25.234,27.093-7.7-5.578-3.187-25.5,1.859-31.078C16.7,10.834,11.12,9.772,9.261,11.9Z" transform="translate(4.02 17.76)" fill="#002f47"/>
              <path id="Path_75039" d="M28.9,15.65c-7.172,8.234-10.89,33.2,2.922,37.187C49.35,57.619,58.647,32.65,63.428,20.432c.8-1.859-5.312-1.062-5.844.8C54.663,28.4,42.444,60.009,31.554,46.463c-5.844-7.172-2.922-24.437,2.922-30.812,1.594-1.859-4.516-1.328-5.578,0Z" transform="translate(37.242 23.835)" fill="#002f47"/>
              <path id="Path_75040" d="M0,14.551S24.7-16.261,53.39,11.9" transform="translate(0 -0.035)" fill="#585756"/>
              <path id="Path_75041" d="M24.8,5.971S57.737-15.013,72.612,26.955" transform="translate(41.074 1.108)" fill="#585756"/>
              <g id="Group_65695" transform="translate(72.225 98.92)">
                <path id="Path_75042" d="M3.4,21.919,26.243,66.012C39.79,68.4,49.087,58.309,46.7,41.84,43.509,20.325,22.259,1.2,22.259,1.2S23.322,23.778,3.4,21.919Z" transform="translate(5.631 1.871)" fill="#002f47"/>
                <path id="Path_75043" d="M35.859,69.1A32,32,0,0,1,17.8,62.456L18.859,60.6c9.3,6.375,18.594,7.969,25.234,3.984,5.844-3.719,8.766-11.422,7.437-20.984-2.391-17.265-17.265-33.2-22.312-38.25-.266,3.984-1.594,11.687-7.437,16.2C16.469,25.268,9.3,25.8,0,22.612l.8-1.859c8.5,2.656,15.14,2.391,19.39-1.062,6.906-5.312,6.641-16.734,6.641-16.734V.3l1.859,1.859c.8.8,21.781,19.656,24.968,41.171,1.594,10.359-1.594,19.125-8.234,23.109A17.97,17.97,0,0,1,35.859,69.1Z" transform="translate(0 0.38)" fill="#002f47"/>
                <path id="Path_75044" d="M9.428,2.052,26.694,5.24S15.272-2.2,8.1.724Z" transform="translate(13.415 -0.044)" fill="#002f47"/>
                <path id="Path_75045" d="M5,22.056l4.781,8.766L27.843,9.572,20.937,2.4S19.344,20.2,5,22.056Z" transform="translate(8.281 3.858)" fill="#fff"/>
                <path id="Path_75046" d="M27.474,15.4s3.984,19.656-12.219,25.765C15.521,41.165,10.209,17.791,27.474,15.4Z" transform="translate(24.322 25.389)" fill="#ff5288"/>
              </g>
              <path id="Path_75047" d="M120.656,40.941s-5.312-17.265-23.64-20.453S65.938,24.206,68.86,34.831c2.922,10.359,35.062,19.922,25.5,1.062l9.828,1.859L90.641,32.972s9.562,12.484-4.25,11.422S66.2,30.581,73.641,25.534,104.188,16.238,120.656,40.941Z" transform="translate(113.356 32.544)" fill="#002f47"/>
              <path id="Path_75048" d="M58.049,92.24H11.3L35.206,9.1l3.984,1.062L16.878,88.255H52.471c-1.328-2.922-2.922-6.109-4.516-6.375-.8,0-1.859.8-3.187,2.656l-3.453-2.125c2.125-3.453,4.516-5.047,7.172-4.516,5.312.8,8.234,10.094,8.766,11.953Z" transform="translate(18.715 14.979)" fill="#002f47"/>
            </g>
          </g>
          <path id="Path_75049" d="M207.873,71.984,175.2,164.951a50.731,50.731,0,0,0-34.531,14.344l10.094-67.2S104.28,96.421,85.156,56.577c0,0-2.125,38.25-14.344,37.718C63.64,93.765,54.344,61.89,47.969,35.328,43.187,16.469,40,0,40,0Z" transform="translate(66.323)" fill="#ff8812"/>
        </g>
        <rect id="Rectangle_12539" width="2.922" height="1.062" transform="translate(224.116 370.228) rotate(-27.49)" fill="#002f47"/>
        <rect id="Rectangle_12540" width="2.391" height="2.922" transform="matrix(0.936, -0.351, 0.351, 0.936, 222.646, 368.899)" fill="#002f47"/>
        <g id="Group_65701" transform="translate(0 261.211)">
          <g id="Group_65699" transform="translate(0 0)">
            <path id="Path_75050" d="M84.733,66.934C81.28,89.512,58.968,107.84,59.5,87.121S92.171,42.5,98.014,58.7,77.03,103.59,77.03,103.59l3.984,26.562-17.265,6.375L59.5,114.746S33.468,135.73,26.031,82.34L62.421,66.4C62.421,66.668,0,20.185,0,4.779,0-17.268,68.53,42.5,76.765,71.981" transform="translate(0 -0.002)" fill="#ffd629"/>
            <path id="Path_75051" d="M43.323,97.74,39.339,70.647l.531-.531c.266-.266,26.031-27.89,20.719-43.031a6.279,6.279,0,0,0-7.969-4.25C41.2,24.694,25.261,41.162,25,54.975c0,2.656.266,7.172,2.922,7.437,5.312.531,16.734-12.484,19.125-27.89l3.187.531C47.573,51.522,35.355,66.131,27.652,65.6c-2.125-.266-6.109-1.859-5.844-10.625.266-15.406,17.531-32.937,30.281-35.062a9.408,9.408,0,0,1,11.422,6.109c5.578,15.937-17,41.437-20.718,45.687l3.719,25.765Z" transform="translate(36.098 32.411)" fill="#002f47"/>
            <path id="Path_75052" d="M24.322,57.881l-2.922-.8L27.775,36.1l2.922.8Z" transform="translate(35.443 59.785)" fill="#002f47"/>
            <rect id="Rectangle_12541" width="3.187" height="43.562" transform="translate(26.185 85.385) rotate(-47.809)" fill="#002f47"/>
            <rect id="Rectangle_12542" width="3.187" height="4.781" transform="matrix(0.869, -0.494, 0.494, 0.869, 61.25, 67.417)" fill="#002f47"/>
            <rect id="Rectangle_12543" width="3.187" height="24.437" transform="translate(40.371 76.883) rotate(-49.217)" fill="#002f47"/>
          </g>
          <path id="Path_75053" d="M63.921,69.359,57.281,42,18.5,69.359,32.047,92.2" transform="translate(30.64 69.557)" fill="#7678ed"/>
          <g id="Group_65700" transform="translate(54.715 58.544)">
            <path id="Path_75054" d="M30.9,188.857l74.64-143.7L91.727,19.922,160.523,0V34.265s80.749,78.624,98.546,180.888S30.9,188.857,30.9,188.857Z" transform="translate(51.177)" fill="#413ca5"/>
            <path id="Path_75055" d="M0,54.284S21.781,126.8,91.374,161.064l43.828,2.391,9.3-111.03L99.874,137.689,39.843,24.8Z" transform="translate(0 41.074)" fill="#413ca5"/>
            <path id="Path_75056" d="M70.131,19.922,138.4,0V34.265L123.521,251.544,44.1,232.95,83.678,45.156Z" transform="translate(73.039)" fill="#7678ed"/>
            <path id="Path_75057" d="M85.571,5.7,73.353,33.325l9.3,10.094L52.9,218.994l35.859,8.234L95.4,43.418,108.946,26.95Z" transform="translate(87.614 9.44)" fill="#002f47"/>
            <path id="Path_75058" d="M49.925,124.393H47.8V58.518L63.737,38.6l-4.25-8.5,1.859-.8,4.781,9.828L49.659,59.581Z" transform="translate(79.167 48.527)" fill="#002f47"/>
            <path id="Path_75059" d="M79.259,154.9l-1.859-.8,28.687-77.3L89.353,53.434l18.328-3.984L99.712,20.231l1.859-.531,8.5,31.343L92.54,55.028l15.406,21.781Z" transform="translate(128.191 32.627)" fill="#002f47"/>
          </g>
          <path id="Path_75060" d="M123.594,179.849,113.5,56.6l17.8,128.561Z" transform="translate(187.981 93.738)" fill="#002f47"/>
        </g>
      </g>
      <g id="Group_65703" transform="translate(0 509.765)">
        <path id="Path_75061" d="M563.65,143.17H12.219L0,0H575.071Z" fill="#c80880"/>
        <g id="Group_66206" data-name="Group 66206" transform="translate(78.624 42.499)">
          <path id="Path_76309" data-name="Path 76309" d="M65.725,55.712A14.275,14.275,0,0,1,64.4,61.29a16.528,16.528,0,0,1-3.719,5.047,19.9,19.9,0,0,1-5.312,3.984,67.919,67.919,0,0,1-6.375,2.922,40.842,40.842,0,0,1-13.812,2.391A39.627,39.627,0,0,1,29.6,75.1a252.972,252.972,0,0,0,6.109-28.156c1.594-9.562,2.922-18.859,4.25-28.422a83.538,83.538,0,0,1,17.8-2.125c5.578,0,9.3,1.859,11.422,5.578a10.172,10.172,0,0,1,1.328,5.047,15.141,15.141,0,0,1-1.062,5.844,13.928,13.928,0,0,1-2.656,4.781,18.789,18.789,0,0,1-7.7,6.109C63.6,46.415,65.725,50.4,65.725,55.712ZM45.272,59.7c4.781-.531,7.969-1.859,10.094-3.984a4.9,4.9,0,0,0,1.328-3.187,3.525,3.525,0,0,0-.8-2.656,11.553,11.553,0,0,0-1.859-1.594,10.987,10.987,0,0,0-5.047-1.328H47.662a18.28,18.28,0,0,0-.531,3.453,16.333,16.333,0,0,0-.8,2.922c-.266.8-.266,1.859-.531,2.922A22.09,22.09,0,0,1,45.272,59.7Zm3.984-22.312c6.375-1.328,9.828-3.187,9.828-5.312s-1.594-3.187-5.047-3.719a6.6,6.6,0,0,0-2.125-.266h-.8c0,.531-.266,1.328-.266,2.125a7.756,7.756,0,0,1-.531,2.391c-.266.8-.266,1.594-.531,2.656C49.522,35.79,49.522,36.587,49.256,37.384Z" transform="translate(-29.6 -15.338)" fill="#fff"/>
          <path id="Path_76310" data-name="Path 76310" d="M66.506,73.709C62.522,60.693,60.4,52.99,60.4,51.131l-1.062.266c-.531,2.391-1.062,5.578-1.859,10.094-.8,4.25-1.594,7.7-1.859,10.094L42.6,75.037c5.312-26.031,8.766-44.624,9.828-55.515A68.585,68.585,0,0,1,72.615,16.6c5.578,0,9.031,1.859,10.094,5.844a19.073,19.073,0,0,1,.531,4.516A16.063,16.063,0,0,1,82.178,32.8a24.067,24.067,0,0,1-2.922,5.844,29.981,29.981,0,0,1-9.562,8.766c2.125,4.25,3.719,8.5,5.312,12.219,1.594,3.984,2.922,7.172,3.984,9.828Zm.8-45.953H63.85l-2.656,12.75q3.187-.4,7.969-3.984c3.187-2.391,4.781-4.516,4.781-6.109s-1.328-2.391-4.25-2.656Z" transform="translate(-8.069 -15.006)" fill="#fff"/>
          <path id="Path_76311" data-name="Path 76311" d="M56,75.2,66.625,18.625,91.859,16.5c-.266,1.062-.8,2.391-1.062,3.453L90,23.141a13.706,13.706,0,0,0-.531,2.922,43.219,43.219,0,0,1-6.375.266H77.781L74.859,40.672c2.922-.266,5.312-.266,7.172-.266a12.073,12.073,0,0,0,3.719-.266,26.17,26.17,0,0,0-.531,4.516,23.393,23.393,0,0,0-.531,4.516H78.312a24.307,24.307,0,0,0-4.25.266L71.406,64.046l11.687-1.859-.8,9.031Z" transform="translate(14.124 -15.172)" fill="#fff"/>
          <path id="Path_76312" data-name="Path 76312" d="M82.3,61.821,79.112,73.243c-1.062.266-2.656.266-4.25.531a29.269,29.269,0,0,1-4.781.531,29.268,29.268,0,0,0-4.781.531c2.125-7.172,3.984-13.015,5.312-17.8s2.656-8.766,3.719-11.953,1.859-6.375,2.656-9.3c.8-3.187,1.859-6.109,2.656-9.031s1.594-5.578,2.391-7.969c9.562-.8,17-1.594,22.047-2.391-.531,5.047-.8,11.156-1.062,18.328-.8,14.078-1.328,26.828-1.594,38.515-1.594.266-3.187.531-4.516.8s-2.922.531-4.516.8-2.922.531-4.25.8q.8-7.57,1.594-13.547H82.3Zm1.859-7.969L90,53.587V51.993c0-.8.266-1.594.266-2.656.531-5.578.8-10.625,1.328-15.406l.531-6.906H90.8Z" transform="translate(29.527 -15.338)" fill="#fff"/>
          <path id="Path_76313" data-name="Path 76313" d="M117.35,73.474c-2.391,0-5.047-.266-7.7-.266s-5.578,0-8.5.266c-1.062-6.641-2.125-13.812-3.187-21.781l-1.594,1.594c-.266,1.594-.8,3.453-1.328,5.844s-.8,4.781-1.328,7.172-1.062,4.781-1.594,7.7L79.1,75.865c5.578-26.031,9.031-45.421,10.094-58.171a21.47,21.47,0,0,0,4.25.266c1.594,0,2.922.266,4.516.266,1.328,0,2.922.266,4.516.266a2.008,2.008,0,0,1-.266,1.062c0,.531-.266,1.328-.266,2.125a9.437,9.437,0,0,1-.531,2.656q-.4,1.594-.8,3.984c-.266,1.594-.8,3.984-1.328,6.906h.531c1.328-2.125,2.922-4.516,4.516-7.172,3.187-5.047,5.312-8.234,6.641-10.094,5.844-.531,11.156-1.062,15.937-1.859-9.031,12.219-15.14,20.984-18.594,26.3a93.768,93.768,0,0,0,4.25,15.406C114.162,63.381,115.756,68.427,117.35,73.474Z" transform="translate(52.383 -15.834)" fill="#fff"/>
          <path id="Path_76314" data-name="Path 76314" d="M116.606,16.9c-5.844,30.015-9.562,48.874-10.891,56.312a58.926,58.926,0,0,0-7.437.8q-5.18.8-5.578.8c1.594-6.109,3.187-12.484,4.516-19.656,3.187-16.2,5.578-28.156,6.906-36.125Z" transform="translate(74.907 -14.509)" fill="#fff"/>
          <path id="Path_76315" data-name="Path 76315" d="M111.053,17.594h2.125c1.062,0,3.984,0,8.766-.266.8,3.719,1.328,7.172,2.125,10.359,1.594,9.3,2.922,15.14,3.453,17.8.266-1.062.531-2.391.8-3.719s.531-2.922.8-4.516a30.884,30.884,0,0,1,1.062-4.781c.531-2.656,1.594-7.7,3.187-15.406L143.193,16c-5.578,26.3-9.3,44.89-10.625,56.312-.531,0-2.656.531-6.375,1.328s-5.844,1.328-6.641,1.594c-1.062-14.344-2.125-24.172-3.453-30.281-.266,1.062-.266,2.125-.531,3.453s-.531,2.656-.8,4.25c-1.062,5.578-2.391,12.484-3.984,20.453L99.1,75.765c5.844-28.156,9.3-47.812,10.359-58.7A1.952,1.952,0,0,0,111.053,17.594Z" transform="translate(85.507 -16)" fill="#fff"/>
          <path id="Path_76316" data-name="Path 76316" d="M144.778,31.872c-.8-3.984-2.391-5.844-4.516-5.844-1.328,0-2.922,1.062-4.516,2.922a30.285,30.285,0,0,0-4.516,7.172,52.559,52.559,0,0,0-5.047,20.187q0,4.781,1.594,7.172a3.9,3.9,0,0,0,3.453,2.125,9.375,9.375,0,0,0,3.719-.8,8.324,8.324,0,0,0,2.922-2.125,10.638,10.638,0,0,0,3.187-7.7l-8.5,1.328,1.594-7.969c7.437-1.062,13.812-1.859,19.656-2.922A37.846,37.846,0,0,1,150.621,59.5a41.116,41.116,0,0,1-6.375,10.094,24.641,24.641,0,0,1-7.969,6.109,18.779,18.779,0,0,1-7.7,2.125,14.757,14.757,0,0,1-6.109-1.328,10.729,10.729,0,0,1-4.516-3.984c-2.922-3.719-4.25-9.031-4.25-15.672a52.051,52.051,0,0,1,2.922-17.8,42.451,42.451,0,0,1,7.437-12.75,32.178,32.178,0,0,1,9.562-7.7,18.379,18.379,0,0,1,9.031-2.391,13.278,13.278,0,0,1,6.109,1.062,10.708,10.708,0,0,1,3.719,2.922,15.2,15.2,0,0,1,2.922,9.562Z" transform="translate(109.688 -15.669)" fill="#fff"/>
          <path id="Path_76317" data-name="Path 76317" d="M145.453,17.594h2.125c1.062,0,3.984,0,8.766-.266.8,3.719,1.328,7.172,2.125,10.359,1.594,9.3,2.922,15.14,3.453,17.8.266-1.062.531-2.391.8-3.719s.531-2.922.8-4.516a30.891,30.891,0,0,1,1.062-4.781c.531-2.656,1.594-7.7,3.187-15.406L177.593,16c-5.578,26.3-9.3,44.89-10.625,56.312-.531,0-2.656.531-6.375,1.328s-5.844,1.328-6.641,1.594c-1.062-14.344-2.125-24.172-3.453-30.281-.266,1.062-.266,2.125-.531,3.453s-.531,2.656-.8,4.25c-1.062,5.578-2.391,12.484-3.984,20.453L133.5,75.765c5.844-28.156,9.3-47.812,10.359-58.7A1.952,1.952,0,0,0,145.453,17.594Z" transform="translate(142.481 -16)" fill="#fff"/>
          <path id="Path_76318" data-name="Path 76318" d="M147.1,75.2l10.359-56.577L182.693,16.5c-.266,1.062-.8,2.391-1.062,3.453l-.8,3.187a13.705,13.705,0,0,0-.531,2.922,43.219,43.219,0,0,1-6.375.266h-5.312l-2.922,14.344c2.922-.266,5.312-.266,7.172-.266a12.073,12.073,0,0,0,3.719-.266,26.17,26.17,0,0,0-.531,4.516c0,1.594-.531,2.922-.531,4.516h-6.375a24.307,24.307,0,0,0-4.25.266L162.24,64.046l11.687-1.859-.8,9.031Z" transform="translate(165.006 -15.172)" fill="#fff"/>
          <path id="Path_76319" data-name="Path 76319" d="M177.79,17.794s-1.859,11.953-5.578,35.062h1.328c1.594-5.578,2.922-10.625,4.25-15.406s2.391-7.969,2.922-9.828c1.062-3.984,1.859-6.906,2.391-9.031h.8a33.781,33.781,0,0,0,8.5-1.062,27.663,27.663,0,0,0-.266,2.922,44.708,44.708,0,0,1-.531,5.312,56.092,56.092,0,0,0-.531,6.906c0,2.391-.531,5.047-.531,7.437-.266,4.516-.8,8.5-1.062,12.484h1.594l7.437-34.265c1.859-.266,3.453-.531,5.312-.8,4.25-.531,7.437-1.062,9.3-1.328-2.125,6.109-3.984,12.484-5.844,19.39-4.25,16.469-7.172,28.422-8.766,35.593l-18.062,2.922L183.9,43.293h-1.062l-7.969,28.953L158.4,75.168l6.109-56.577a32.97,32.97,0,0,0,7.172-.8C174.072,17.262,175.665,18.059,177.79,17.794Z" transform="translate(183.721 -15.669)" fill="#fff"/>
          <path id="Path_76320" data-name="Path 76320" d="M203.556,34.231a12.932,12.932,0,0,0,.266-3.187,3.966,3.966,0,0,0-.8-2.656,2.689,2.689,0,0,0-1.859-1.062,3.839,3.839,0,0,0-1.859.531,8.072,8.072,0,0,0-1.859,1.328,5.044,5.044,0,0,0-2.125,3.984,4.9,4.9,0,0,0,1.062,3.453,11.417,11.417,0,0,0,2.656,2.391,15.059,15.059,0,0,0,3.453,2.125c1.328.531,2.391,1.859,3.453,2.922,2.391,2.922,3.719,6.641,3.719,11.687A18.19,18.19,0,0,1,203.29,70.09c-3.984,3.719-9.031,5.578-15.406,5.578-4.516,0-8.766-2.391-12.484-7.172l5.844-11.687a12.436,12.436,0,0,0,4.25,3.984,9.986,9.986,0,0,0,4.781,1.859,8.189,8.189,0,0,0,2.656-.266,4.281,4.281,0,0,0,1.859-1.062,4.181,4.181,0,0,0,1.859-3.453,6.346,6.346,0,0,0-1.328-3.719,18.032,18.032,0,0,0-3.187-3.187c-1.328-1.062-2.656-1.859-3.984-2.922l-3.984-3.187c-2.922-2.656-4.25-5.312-4.25-8.234a14.054,14.054,0,0,1,2.391-7.969,22.29,22.29,0,0,1,6.109-6.109,37.948,37.948,0,0,1,7.969-4.25,22.068,22.068,0,0,1,7.437-1.594,24.448,24.448,0,0,1,5.047.531,6.059,6.059,0,0,1,3.187,1.594c2.125,1.594,2.922,3.984,2.922,7.437a5.178,5.178,0,0,1-.266,2.125,6.6,6.6,0,0,0-.266,2.391Z" transform="translate(211.877 -14.841)" fill="#fff"/>
        </g>
        <path id="Path_75062" d="M544.9,130.4,14.456,125.62,3.3,6.622,560.309,3.7ZM18.44,121.636l522.744,4.781L555.793,7.95,7.816,10.606Z" transform="translate(5.466 6.128)" fill="#fff"/>
        <path id="Path_75063" d="M526.3,107.046H14.178L8.6,13.281H9.662L538.781,8.5Zm-510.26-2.125H524.172l11.953-94.561-525.4,5.047Z" transform="translate(14.243 14.078)" fill="#fff"/>
      </g>
    </g>
    <g id="Group_65757" transform="translate(12.486 47.978)">
      <g id="Group_65756" transform="translate(0 0)">
        <g id="Group_65709" transform="translate(0 0)">
          <path id="Path_75064" d="M274.359,86.033,176.61,317.921a20.617,20.617,0,0,1-26.828,10.891L12.456,271.172a20.71,20.71,0,0,1-10.89-26.828L99.314,12.456a20.318,20.318,0,0,1,26.562-10.89L263.2,59.471A20.221,20.221,0,0,1,274.359,86.033Z" transform="translate(-0.017 -0.017)" fill="#1e2830"/>
        </g>
        <g id="Group_65710" transform="translate(0 0)">
          <path id="Path_75065" d="M274.359,86.033,176.61,317.921a20.617,20.617,0,0,1-26.828,10.891L12.456,271.172a20.71,20.71,0,0,1-10.89-26.828L99.314,12.456a20.318,20.318,0,0,1,26.562-10.89L263.2,59.471A20.221,20.221,0,0,1,274.359,86.033Z" transform="translate(-0.017 -0.017)" fill="#1e2830"/>
        </g>
        <g id="Group_65711" transform="translate(15.326 10.646)">
          <path id="Path_75066" d="M155.389,292.981,0,227.372,93.765,0,249.153,65.343Z" fill="#fff"/>
        </g>
        <g id="Group_65754" transform="translate(34.335 23.194)">
          <g id="Group_65716" transform="translate(73.358)">
            <g id="Group_65712">
              <path id="Path_75067" d="M0,32.937,13.812,0l8.766,3.719,1.859,14.875a77.091,77.091,0,0,1,.531,13.547h.266a126.531,126.531,0,0,1,5.047-14.078L34.265,8.5l6.906,2.922L27.359,44.359l-7.7-3.187L17.8,25.5A125.053,125.053,0,0,1,17,11.422h-.266c-1.594,4.516-3.453,9.031-5.844,14.609l-4.25,9.828Z" fill="#7f8787"/>
            </g>
            <g id="Group_65713" transform="translate(33.734 14.203)">
              <path id="Path_75068" d="M25.5,27.359,13.281,22.047l-3.187,7.7L23.64,35.328l-2.656,6.109L0,32.937,13.812,0,34.265,8.5l-2.656,6.109L18.859,9.3,15.937,16.2,28.156,21.25Z" fill="#7f8787"/>
            </g>
            <g id="Group_65714" transform="translate(65.516 24.288)">
              <path id="Path_75069" d="M0,36.125,6.109,0l7.969,3.453L10.89,18.062c-1.062,4.25-2.125,8.766-2.922,12.219h0c2.125-3.453,4.516-6.906,6.906-10.625l8.5-12.219,7.969,3.453L28.156,25.765c-.8,4.25-1.859,7.969-2.922,11.687h0C27.359,34,29.75,30.547,31.875,26.828l8.5-12.484,7.7,3.187L25.765,47.015,17.8,43.562l3.187-15.406c.8-3.719,1.594-6.906,2.656-10.89h0c-2.391,3.719-4.25,6.641-6.375,9.562L8.234,39.578Z" fill="#7f8787"/>
            </g>
            <g id="Group_65715" transform="translate(102.58 46.217)">
              <path id="Path_75070" d="M3.984,22.64a21.941,21.941,0,0,0,7.437,5.578c3.453,1.328,5.844.8,6.641-1.328s-.266-3.984-3.453-6.906C10.094,15.468,7.7,10.953,9.828,6.171,12.219.593,18.594-1.8,26.562,1.39A29.27,29.27,0,0,1,34,6.7l-4.25,5.312A17.466,17.466,0,0,0,23.64,7.5c-3.187-1.328-5.312-.531-6.109,1.062-.8,2.391.531,3.984,4.25,7.437,4.781,4.516,6.375,8.766,4.25,13.281-2.391,5.578-8.5,8.5-17.531,4.516A22.553,22.553,0,0,1,0,28.218Z" transform="translate(0 0.037)" fill="#7f8787"/>
            </g>
          </g>
          <g id="Group_65753" transform="translate(0 41.759)">
            <g id="Group_65717" transform="translate(51.936 15.839)">
              <rect id="Rectangle_12544" width="36.921" height="60.827" transform="translate(0 34.03) rotate(-67.171)" fill="#00a99d"/>
            </g>
            <g id="Group_65718" transform="translate(42.697 54.724)">
              <rect id="Rectangle_12545" width="18.594" height="60.827" transform="translate(0 17.138) rotate(-67.171)" fill="#f15a24"/>
            </g>
            <g id="Group_65719" transform="translate(18.055 98.385)">
              <rect id="Rectangle_12546" width="36.921" height="18.062" transform="translate(0 34.03) rotate(-67.171)" fill="#0071bc"/>
            </g>
            <g id="Group_65720" transform="translate(37.062 106.151)">
              <rect id="Rectangle_12547" width="37.187" height="18.062" transform="translate(0 34.275) rotate(-67.176)" fill="#ff931e"/>
            </g>
            <g id="Group_65721" transform="translate(56.073 114.156)">
              <rect id="Rectangle_12548" width="37.187" height="18.062" transform="translate(0 34.275) rotate(-67.176)" fill="#7ac943"/>
            </g>
            <g id="Group_65722" transform="translate(8.859 137.332)">
              <rect id="Rectangle_12549" width="18.594" height="60.827" transform="translate(0 17.138) rotate(-67.171)" fill="#fcee21"/>
            </g>
            <g id="Group_65723" transform="translate(39.885 75.802)">
              <rect id="Rectangle_12550" width="2.922" height="133.608" transform="translate(0 2.693) rotate(-67.171)" fill="#99a3a3"/>
            </g>
            <g id="Group_65724" transform="translate(36.941 82.851)">
              <rect id="Rectangle_12551" width="2.922" height="133.608" transform="translate(0 2.693) rotate(-67.176)" fill="#99a3a3"/>
            </g>
            <g id="Group_65725" transform="translate(34.468 88.726)">
              <rect id="Rectangle_12552" width="2.922" height="133.608" transform="translate(0 2.693) rotate(-67.176)" fill="#99a3a3"/>
            </g>
            <g id="Group_65726" transform="translate(66.653 0)">
              <rect id="Rectangle_12553" width="4.25" height="135.733" transform="translate(0 3.917) rotate(-67.171)" fill="#4d4d4d"/>
            </g>
            <g id="Group_65727" transform="translate(109.417 80.696)">
              <rect id="Rectangle_12554" width="2.922" height="66.405" transform="translate(0 2.693) rotate(-67.171)" fill="#99a3a3"/>
            </g>
            <g id="Group_65728" transform="translate(107.364 85.573)">
              <rect id="Rectangle_12555" width="2.922" height="66.405" transform="translate(0 2.693) rotate(-67.171)" fill="#99a3a3"/>
            </g>
            <g id="Group_65729" transform="translate(105.311 90.45)">
              <rect id="Rectangle_12556" width="2.922" height="66.405" transform="translate(0 2.693) rotate(-67.171)" fill="#99a3a3"/>
            </g>
            <g id="Group_65730" transform="translate(103.26 95.327)">
              <rect id="Rectangle_12557" width="2.922" height="66.405" transform="translate(0 2.693) rotate(-67.171)" fill="#99a3a3"/>
            </g>
            <g id="Group_65731" transform="translate(125.602 42.218)">
              <rect id="Rectangle_12558" width="2.922" height="65.609" transform="translate(0 2.693) rotate(-67.171)" fill="#99a3a3"/>
            </g>
            <g id="Group_65732" transform="translate(123.127 48.096)">
              <rect id="Rectangle_12559" width="2.922" height="65.609" transform="translate(0 2.693) rotate(-67.171)" fill="#99a3a3"/>
            </g>
            <g id="Group_65733" transform="translate(120.654 53.974)">
              <rect id="Rectangle_12560" width="2.922" height="65.609" transform="translate(0 2.693) rotate(-67.171)" fill="#99a3a3"/>
            </g>
            <g id="Group_65734" transform="translate(4.949 159.178)">
              <rect id="Rectangle_12561" width="2.922" height="62.421" transform="translate(0 2.693) rotate(-67.171)" fill="#99a3a3"/>
            </g>
            <g id="Group_65735" transform="translate(2.476 165.056)">
              <rect id="Rectangle_12562" width="2.922" height="62.421" transform="translate(0 2.693) rotate(-67.171)" fill="#99a3a3"/>
            </g>
            <g id="Group_65736" transform="translate(0 170.935)">
              <rect id="Rectangle_12563" width="2.922" height="62.421" transform="translate(0 2.693) rotate(-67.171)" fill="#99a3a3"/>
            </g>
            <g id="Group_65737" transform="translate(118.178 59.852)">
              <rect id="Rectangle_12564" width="2.922" height="65.609" transform="translate(0 2.693) rotate(-67.171)" fill="#99a3a3"/>
            </g>
            <g id="Group_65738" transform="translate(115.744 65.658)">
              <rect id="Rectangle_12565" width="2.922" height="65.609" transform="translate(0 2.693) rotate(-67.176)" fill="#99a3a3"/>
            </g>
            <g id="Group_65739" transform="translate(113.304 71.433)">
              <rect id="Rectangle_12566" width="2.922" height="65.609" transform="translate(0 2.693) rotate(-67.171)" fill="#99a3a3"/>
            </g>
            <g id="Group_65740" transform="translate(76.121 162.459)">
              <rect id="Rectangle_12567" width="2.922" height="66.405" transform="translate(0 2.693) rotate(-67.176)" fill="#99a3a3"/>
            </g>
            <g id="Group_65741" transform="translate(74.067 167.333)">
              <rect id="Rectangle_12568" width="2.922" height="66.405" transform="translate(0 2.693) rotate(-67.176)" fill="#99a3a3"/>
            </g>
            <g id="Group_65742" transform="translate(72.012 172.195)">
              <rect id="Rectangle_12569" width="2.922" height="66.405" transform="translate(0 2.693) rotate(-67.171)" fill="#99a3a3"/>
            </g>
            <g id="Group_65743" transform="translate(69.959 177.072)">
              <rect id="Rectangle_12570" width="2.922" height="66.405" transform="translate(0 2.693) rotate(-67.171)" fill="#99a3a3"/>
            </g>
            <g id="Group_65744" transform="translate(66.95 184.963)">
              <rect id="Rectangle_12571" width="2.922" height="66.405" transform="translate(0 2.693) rotate(-67.171)" fill="#99a3a3"/>
            </g>
            <g id="Group_65745" transform="translate(64.896 189.84)">
              <rect id="Rectangle_12572" width="2.922" height="66.405" transform="translate(0 2.693) rotate(-67.171)" fill="#99a3a3"/>
            </g>
            <g id="Group_65746" transform="translate(62.843 194.717)">
              <rect id="Rectangle_12573" width="2.922" height="66.405" transform="translate(0 2.693) rotate(-67.171)" fill="#99a3a3"/>
            </g>
            <g id="Group_65747" transform="translate(92.301 123.963)">
              <rect id="Rectangle_12574" width="2.922" height="65.609" transform="translate(0 2.693) rotate(-67.171)" fill="#99a3a3"/>
            </g>
            <g id="Group_65748" transform="translate(89.826 129.841)">
              <rect id="Rectangle_12575" width="2.922" height="65.609" transform="translate(0 2.693) rotate(-67.171)" fill="#99a3a3"/>
            </g>
            <g id="Group_65749" transform="translate(87.353 135.719)">
              <rect id="Rectangle_12576" width="2.922" height="65.609" transform="translate(0 2.693) rotate(-67.171)" fill="#99a3a3"/>
            </g>
            <g id="Group_65750" transform="translate(84.877 141.597)">
              <rect id="Rectangle_12577" width="2.922" height="65.609" transform="translate(0 2.693) rotate(-67.171)" fill="#99a3a3"/>
            </g>
            <g id="Group_65751" transform="translate(82.442 147.388)">
              <rect id="Rectangle_12578" width="2.922" height="65.609" transform="translate(0 2.693) rotate(-67.171)" fill="#99a3a3"/>
            </g>
            <g id="Group_65752" transform="translate(80.003 153.178)">
              <rect id="Rectangle_12579" width="2.922" height="65.609" transform="translate(0 2.693) rotate(-67.171)" fill="#99a3a3"/>
            </g>
          </g>
        </g>
        <g id="Group_65755" transform="translate(80.206 279.505)">
          <path id="Path_75071" d="M16.283,13.461A9.239,9.239,0,0,1,4.064,16.383,9.239,9.239,0,0,1,1.142,4.164,9.239,9.239,0,0,1,13.361,1.242a8.752,8.752,0,0,1,2.922,12.219Z" transform="translate(0.048 -0.052)" fill="#485966"/>
        </g>
      </g>
    </g>
    <g id="Group_65864" transform="translate(104.403 536.411)">
      <g id="Group_65760" transform="translate(0 137.917)">
        <g id="Group_65758" transform="translate(0 0.093)">
          <path id="Rectangle_12580" d="M11.949.262h0a1.62,1.62,0,0,1,.8,1.859L2.918,28.684a1.372,1.372,0,0,1-1.859.8h0a1.372,1.372,0,0,1-.8-1.859L10.09,1.059A1.372,1.372,0,0,1,11.949.262Z" transform="translate(-0.163 -0.163)" fill="#d6dada"/>
        </g>
        <g id="Group_65759" transform="translate(7.233 0)">
          <path id="Rectangle_12581" d="M4.592.427h0A2.328,2.328,0,0,1,5.92,3.083L4.327,7.6A2.328,2.328,0,0,1,1.67,8.927h0A2.328,2.328,0,0,1,.342,6.271L1.936,1.755C2.467.427,3.53-.1,4.592.427Z" transform="translate(-0.275 -0.223)" fill="#da984d"/>
        </g>
      </g>
      <g id="Group_65761" transform="translate(4.32 57.28)">
        <path id="Path_75072" d="M10.934,86.295,1.106,82.576A1.511,1.511,0,0,1,.043,80.717L26.074,1.03A1.407,1.407,0,0,1,28.2.233L41.48,5.015a1.372,1.372,0,0,1,.8,1.859L13.059,85.232A1.952,1.952,0,0,1,10.934,86.295Z" transform="translate(0.026 -0.019)" fill="#edb662"/>
      </g>
      <g id="Group_65762" transform="translate(29.455 45.112)">
        <path id="Rectangle_12582" d="M10.631,1.148,19.4,4.335A7.6,7.6,0,0,1,23.912,13.9h0a7.722,7.722,0,0,1-9.562,4.516L5.584,14.96a7.071,7.071,0,0,1-4.25-9.3h0A7.423,7.423,0,0,1,10.631,1.148Z" transform="translate(-0.798 -0.75)" fill="#d6dada"/>
      </g>
      <g id="Group_65763" transform="translate(21.485 0)">
        <circle id="Ellipse_3860" cx="28.953" cy="28.953" r="28.953" fill="#2c3740"/>
      </g>
      <g id="Group_65766" transform="translate(6.374 60.301)">
        <g id="Group_65764" transform="translate(0.133)">
          <path id="Path_75073" d="M47.812,11.953,12.75,0,0,34.8,47.812,11.953Z" fill="#4c7181"/>
        </g>
        <g id="Group_65765" transform="translate(0 11.993)">
          <path id="Path_75074" d="M.266,22.843,0,23.109,35.062,35.062,47.812,0Z" fill="#395360"/>
        </g>
      </g>
      <g id="Group_65859" transform="translate(21.485 0)">
        <g id="Group_66207" data-name="Group 66207">
          <g id="Group_65858" clip-path="url(#clip-path)">
            <g id="Group_65857" transform="translate(-7.372 -6.897)">
              <g id="Group_65776" transform="translate(17.439 0)">
                <g id="Group_65767" transform="translate(0)">
                  <rect id="Rectangle_12583" width="3.984" height="3.984" transform="translate(0 3.74) rotate(-69.86)" fill="#1e2830"/>
                </g>
                <g id="Group_65768" transform="translate(6.214 2.28)">
                  <rect id="Rectangle_12584" width="3.984" height="3.984" transform="translate(0 3.741) rotate(-69.88)" fill="#1e2830"/>
                </g>
                <g id="Group_65769" transform="translate(12.428 4.558)">
                  <rect id="Rectangle_12585" width="3.984" height="3.984" transform="matrix(0.344, -0.939, 0.939, 0.344, 0, 3.74)" fill="#1e2830"/>
                </g>
                <g id="Group_65770" transform="translate(18.641 6.837)">
                  <rect id="Rectangle_12586" width="3.984" height="3.984" transform="translate(0 3.74) rotate(-69.86)" fill="#1e2830"/>
                </g>
                <g id="Group_65771" transform="translate(24.858 9.117)">
                  <rect id="Rectangle_12587" width="3.984" height="3.984" transform="translate(0 3.741) rotate(-69.88)" fill="#1e2830"/>
                </g>
                <g id="Group_65772" transform="translate(31.071 11.399)">
                  <rect id="Rectangle_12588" width="3.984" height="3.984" transform="translate(0 3.741) rotate(-69.88)" fill="#1e2830"/>
                </g>
                <g id="Group_65773" transform="translate(37.287 13.678)">
                  <rect id="Rectangle_12589" width="3.984" height="3.984" transform="translate(0 3.741) rotate(-69.88)" fill="#1e2830"/>
                </g>
                <g id="Group_65774" transform="translate(43.5 15.957)">
                  <rect id="Rectangle_12590" width="3.984" height="3.984" transform="translate(0 3.741) rotate(-69.88)" fill="#1e2830"/>
                </g>
                <g id="Group_65775" transform="translate(49.715 18.236)">
                  <rect id="Rectangle_12591" width="3.984" height="3.984" transform="translate(0 3.741) rotate(-69.88)" fill="#1e2830"/>
                </g>
              </g>
              <g id="Group_65786" transform="translate(15.261 5.945)">
                <g id="Group_65777" transform="translate(0 0)">
                  <rect id="Rectangle_12592" width="3.984" height="3.984" transform="translate(0 3.74) rotate(-69.86)" fill="#1e2830"/>
                </g>
                <g id="Group_65778" transform="translate(6.213 2.279)">
                  <rect id="Rectangle_12593" width="3.984" height="3.984" transform="matrix(0.344, -0.939, 0.939, 0.344, 0, 3.74)" fill="#1e2830"/>
                </g>
                <g id="Group_65779" transform="translate(12.43 4.559)">
                  <rect id="Rectangle_12594" width="3.984" height="3.984" transform="translate(0 3.741) rotate(-69.88)" fill="#1e2830"/>
                </g>
                <g id="Group_65780" transform="translate(18.641 6.837)">
                  <rect id="Rectangle_12595" width="3.984" height="3.984" transform="translate(0 3.74) rotate(-69.86)" fill="#1e2830"/>
                </g>
                <g id="Group_65781" transform="translate(24.858 9.117)">
                  <rect id="Rectangle_12596" width="3.984" height="3.984" transform="translate(0 3.741) rotate(-69.88)" fill="#1e2830"/>
                </g>
                <g id="Group_65782" transform="translate(31.07 11.398)">
                  <rect id="Rectangle_12597" width="3.984" height="3.984" transform="matrix(0.344, -0.939, 0.939, 0.344, 0, 3.74)" fill="#1e2830"/>
                </g>
                <g id="Group_65783" transform="translate(37.285 13.677)">
                  <rect id="Rectangle_12598" width="3.984" height="3.984" transform="translate(0 3.74) rotate(-69.86)" fill="#1e2830"/>
                </g>
                <g id="Group_65784" transform="translate(43.5 15.957)">
                  <rect id="Rectangle_12599" width="3.984" height="3.984" transform="translate(0 3.741) rotate(-69.88)" fill="#1e2830"/>
                </g>
                <g id="Group_65785" transform="translate(49.715 18.236)">
                  <rect id="Rectangle_12600" width="3.984" height="3.984" transform="translate(0 3.741) rotate(-69.88)" fill="#1e2830"/>
                </g>
              </g>
              <g id="Group_65796" transform="translate(13.08 11.889)">
                <g id="Group_65787" transform="translate(0 0)">
                  <rect id="Rectangle_12601" width="3.984" height="3.984" transform="translate(0 3.74) rotate(-69.86)" fill="#1e2830"/>
                </g>
                <g id="Group_65788" transform="translate(6.214 2.28)">
                  <rect id="Rectangle_12602" width="3.984" height="3.984" transform="translate(0 3.741) rotate(-69.88)" fill="#1e2830"/>
                </g>
                <g id="Group_65789" transform="translate(12.43 4.559)">
                  <rect id="Rectangle_12603" width="3.984" height="3.984" transform="translate(0 3.741) rotate(-69.88)" fill="#1e2830"/>
                </g>
                <g id="Group_65790" transform="translate(18.641 6.837)">
                  <rect id="Rectangle_12604" width="3.984" height="3.984" transform="translate(0 3.74) rotate(-69.86)" fill="#1e2830"/>
                </g>
                <g id="Group_65791" transform="translate(24.857 9.116)">
                  <rect id="Rectangle_12605" width="3.984" height="3.984" transform="matrix(0.344, -0.939, 0.939, 0.344, 0, 3.74)" fill="#1e2830"/>
                </g>
                <g id="Group_65792" transform="translate(31.071 11.399)">
                  <rect id="Rectangle_12606" width="3.984" height="3.984" transform="translate(0 3.741) rotate(-69.88)" fill="#1e2830"/>
                </g>
                <g id="Group_65793" transform="translate(37.285 13.677)">
                  <rect id="Rectangle_12607" width="3.984" height="3.984" transform="translate(0 3.74) rotate(-69.86)" fill="#1e2830"/>
                </g>
                <g id="Group_65794" transform="translate(43.5 15.957)">
                  <rect id="Rectangle_12608" width="3.984" height="3.984" transform="translate(0 3.741) rotate(-69.88)" fill="#1e2830"/>
                </g>
                <g id="Group_65795" transform="translate(49.714 18.235)">
                  <rect id="Rectangle_12609" width="3.984" height="3.984" transform="matrix(0.344, -0.939, 0.939, 0.344, 0, 3.74)" fill="#1e2830"/>
                </g>
              </g>
              <g id="Group_65806" transform="translate(10.9 17.831)">
                <g id="Group_65797" transform="translate(0 0)">
                  <rect id="Rectangle_12610" width="3.984" height="3.984" transform="translate(0 3.74) rotate(-69.86)" fill="#1e2830"/>
                </g>
                <g id="Group_65798" transform="translate(6.214 2.28)">
                  <rect id="Rectangle_12611" width="3.984" height="3.984" transform="translate(0 3.741) rotate(-69.88)" fill="#1e2830"/>
                </g>
                <g id="Group_65799" transform="translate(12.43 4.559)">
                  <rect id="Rectangle_12612" width="3.984" height="3.984" transform="translate(0 3.741) rotate(-69.88)" fill="#1e2830"/>
                </g>
                <g id="Group_65800" transform="translate(18.641 6.837)">
                  <rect id="Rectangle_12613" width="3.984" height="3.984" transform="translate(0 3.74) rotate(-69.86)" fill="#1e2830"/>
                </g>
                <g id="Group_65801" transform="translate(24.858 9.117)">
                  <rect id="Rectangle_12614" width="3.984" height="3.984" transform="translate(0 3.741) rotate(-69.88)" fill="#1e2830"/>
                </g>
                <g id="Group_65802" transform="translate(31.071 11.399)">
                  <rect id="Rectangle_12615" width="3.984" height="3.984" transform="translate(0 3.741) rotate(-69.88)" fill="#1e2830"/>
                </g>
                <g id="Group_65803" transform="translate(37.285 13.677)">
                  <rect id="Rectangle_12616" width="3.984" height="3.984" transform="translate(0 3.74) rotate(-69.86)" fill="#1e2830"/>
                </g>
                <g id="Group_65804" transform="translate(43.498 15.956)">
                  <rect id="Rectangle_12617" width="3.984" height="3.984" transform="matrix(0.344, -0.939, 0.939, 0.344, 0, 3.74)" fill="#1e2830"/>
                </g>
                <g id="Group_65805" transform="translate(49.715 18.236)">
                  <rect id="Rectangle_12618" width="3.984" height="3.984" transform="translate(0 3.741) rotate(-69.88)" fill="#1e2830"/>
                </g>
              </g>
              <g id="Group_65816" transform="translate(8.719 23.776)">
                <g id="Group_65807" transform="translate(0 0)">
                  <rect id="Rectangle_12619" width="3.984" height="3.984" transform="translate(0 3.74) rotate(-69.86)" fill="#1e2830"/>
                </g>
                <g id="Group_65808" transform="translate(6.214 2.28)">
                  <rect id="Rectangle_12620" width="3.984" height="3.984" transform="translate(0 3.741) rotate(-69.88)" fill="#1e2830"/>
                </g>
                <g id="Group_65809" transform="translate(12.43 4.559)">
                  <rect id="Rectangle_12621" width="3.984" height="3.984" transform="translate(0 3.741) rotate(-69.88)" fill="#1e2830"/>
                </g>
                <g id="Group_65810" transform="translate(18.641 6.837)">
                  <rect id="Rectangle_12622" width="3.984" height="3.984" transform="translate(0 3.74) rotate(-69.86)" fill="#1e2830"/>
                </g>
                <g id="Group_65811" transform="translate(24.858 9.117)">
                  <rect id="Rectangle_12623" width="3.984" height="3.984" transform="translate(0 3.741) rotate(-69.88)" fill="#1e2830"/>
                </g>
                <g id="Group_65812" transform="translate(31.071 11.399)">
                  <rect id="Rectangle_12624" width="3.984" height="3.984" transform="translate(0 3.741) rotate(-69.88)" fill="#1e2830"/>
                </g>
                <g id="Group_65813" transform="translate(37.285 13.677)">
                  <rect id="Rectangle_12625" width="3.984" height="3.984" transform="translate(0 3.74) rotate(-69.86)" fill="#1e2830"/>
                </g>
                <g id="Group_65814" transform="translate(43.5 15.957)">
                  <rect id="Rectangle_12626" width="3.984" height="3.984" transform="translate(0 3.741) rotate(-69.88)" fill="#1e2830"/>
                </g>
                <g id="Group_65815" transform="translate(49.715 18.236)">
                  <rect id="Rectangle_12627" width="3.984" height="3.984" transform="translate(0 3.741) rotate(-69.88)" fill="#1e2830"/>
                </g>
              </g>
              <g id="Group_65826" transform="translate(6.538 29.72)">
                <g id="Group_65817" transform="translate(0 0)">
                  <rect id="Rectangle_12628" width="3.984" height="3.984" transform="translate(0 3.74) rotate(-69.86)" fill="#1e2830"/>
                </g>
                <g id="Group_65818" transform="translate(6.213 2.279)">
                  <rect id="Rectangle_12629" width="3.984" height="3.984" transform="matrix(0.344, -0.939, 0.939, 0.344, 0, 3.74)" fill="#1e2830"/>
                </g>
                <g id="Group_65819" transform="translate(12.43 4.559)">
                  <rect id="Rectangle_12630" width="3.984" height="3.984" transform="translate(0 3.741) rotate(-69.88)" fill="#1e2830"/>
                </g>
                <g id="Group_65820" transform="translate(18.641 6.837)">
                  <rect id="Rectangle_12631" width="3.984" height="3.984" transform="translate(0 3.74) rotate(-69.86)" fill="#1e2830"/>
                </g>
                <g id="Group_65821" transform="translate(24.858 9.117)">
                  <rect id="Rectangle_12632" width="3.984" height="3.984" transform="translate(0 3.741) rotate(-69.88)" fill="#1e2830"/>
                </g>
                <g id="Group_65822" transform="translate(31.071 11.399)">
                  <rect id="Rectangle_12633" width="3.984" height="3.984" transform="translate(0 3.741) rotate(-69.88)" fill="#1e2830"/>
                </g>
                <g id="Group_65823" transform="translate(37.285 13.677)">
                  <rect id="Rectangle_12634" width="3.984" height="3.984" transform="translate(0 3.74) rotate(-69.86)" fill="#1e2830"/>
                </g>
                <g id="Group_65824" transform="translate(43.5 15.957)">
                  <rect id="Rectangle_12635" width="3.984" height="3.984" transform="translate(0 3.741) rotate(-69.88)" fill="#1e2830"/>
                </g>
                <g id="Group_65825" transform="translate(49.715 18.236)">
                  <rect id="Rectangle_12636" width="3.984" height="3.984" transform="translate(0 3.741) rotate(-69.88)" fill="#1e2830"/>
                </g>
              </g>
              <g id="Group_65836" transform="translate(4.36 35.665)">
                <g id="Group_65827" transform="translate(0 0)">
                  <rect id="Rectangle_12637" width="3.984" height="3.984" transform="translate(0 3.74) rotate(-69.86)" fill="#1e2830"/>
                </g>
                <g id="Group_65828" transform="translate(6.214 2.28)">
                  <rect id="Rectangle_12638" width="3.984" height="3.984" transform="translate(0 3.741) rotate(-69.88)" fill="#1e2830"/>
                </g>
                <g id="Group_65829" transform="translate(12.43 4.559)">
                  <rect id="Rectangle_12639" width="3.984" height="3.984" transform="translate(0 3.741) rotate(-69.88)" fill="#1e2830"/>
                </g>
                <g id="Group_65830" transform="translate(18.641 6.837)">
                  <rect id="Rectangle_12640" width="3.984" height="3.984" transform="translate(0 3.74) rotate(-69.86)" fill="#1e2830"/>
                </g>
                <g id="Group_65831" transform="translate(24.857 9.116)">
                  <rect id="Rectangle_12641" width="3.984" height="3.984" transform="matrix(0.344, -0.939, 0.939, 0.344, 0, 3.74)" fill="#1e2830"/>
                </g>
                <g id="Group_65832" transform="translate(31.071 11.399)">
                  <rect id="Rectangle_12642" width="3.984" height="3.984" transform="translate(0 3.741) rotate(-69.88)" fill="#1e2830"/>
                </g>
                <g id="Group_65833" transform="translate(37.285 13.677)">
                  <rect id="Rectangle_12643" width="3.984" height="3.984" transform="translate(0 3.74) rotate(-69.86)" fill="#1e2830"/>
                </g>
                <g id="Group_65834" transform="translate(43.5 15.957)">
                  <rect id="Rectangle_12644" width="3.984" height="3.984" transform="translate(0 3.741) rotate(-69.88)" fill="#1e2830"/>
                </g>
                <g id="Group_65835" transform="translate(49.715 18.236)">
                  <rect id="Rectangle_12645" width="3.984" height="3.984" transform="translate(0 3.741) rotate(-69.88)" fill="#1e2830"/>
                </g>
              </g>
              <g id="Group_65846" transform="translate(2.179 41.607)">
                <g id="Group_65837" transform="translate(0 0)">
                  <rect id="Rectangle_12646" width="3.984" height="3.984" transform="translate(0 3.74) rotate(-69.86)" fill="#1e2830"/>
                </g>
                <g id="Group_65838" transform="translate(6.214 2.28)">
                  <rect id="Rectangle_12647" width="3.984" height="3.984" transform="translate(0 3.741) rotate(-69.88)" fill="#1e2830"/>
                </g>
                <g id="Group_65839" transform="translate(12.43 4.559)">
                  <rect id="Rectangle_12648" width="3.984" height="3.984" transform="translate(0 3.741) rotate(-69.88)" fill="#1e2830"/>
                </g>
                <g id="Group_65840" transform="translate(18.641 6.837)">
                  <rect id="Rectangle_12649" width="3.984" height="3.984" transform="translate(0 3.74) rotate(-69.86)" fill="#1e2830"/>
                </g>
                <g id="Group_65841" transform="translate(24.858 9.117)">
                  <rect id="Rectangle_12650" width="3.984" height="3.984" transform="translate(0 3.741) rotate(-69.88)" fill="#1e2830"/>
                </g>
                <g id="Group_65842" transform="translate(31.071 11.399)">
                  <rect id="Rectangle_12651" width="3.984" height="3.984" transform="translate(0 3.741) rotate(-69.88)" fill="#1e2830"/>
                </g>
                <g id="Group_65843" transform="translate(37.285 13.677)">
                  <rect id="Rectangle_12652" width="3.984" height="3.984" transform="translate(0 3.74) rotate(-69.86)" fill="#1e2830"/>
                </g>
                <g id="Group_65844" transform="translate(43.498 15.956)">
                  <rect id="Rectangle_12653" width="3.984" height="3.984" transform="matrix(0.344, -0.939, 0.939, 0.344, 0, 3.74)" fill="#1e2830"/>
                </g>
                <g id="Group_65845" transform="translate(49.715 18.236)">
                  <rect id="Rectangle_12654" width="3.984" height="3.984" transform="translate(0 3.741) rotate(-69.88)" fill="#1e2830"/>
                </g>
              </g>
              <g id="Group_65856" transform="translate(0 47.552)">
                <g id="Group_65847" transform="translate(0 0)">
                  <rect id="Rectangle_12655" width="3.984" height="3.984" transform="translate(0 3.741) rotate(-69.88)" fill="#1e2830"/>
                </g>
                <g id="Group_65848" transform="translate(6.213 2.279)">
                  <rect id="Rectangle_12656" width="3.984" height="3.984" transform="translate(0 3.741) rotate(-69.88)" fill="#1e2830"/>
                </g>
                <g id="Group_65849" transform="translate(12.428 4.558)">
                  <rect id="Rectangle_12657" width="3.984" height="3.984" transform="translate(0 3.741) rotate(-69.88)" fill="#1e2830"/>
                </g>
                <g id="Group_65850" transform="translate(18.64 6.836)">
                  <rect id="Rectangle_12658" width="3.984" height="3.984" transform="translate(0 3.74) rotate(-69.86)" fill="#1e2830"/>
                </g>
                <g id="Group_65851" transform="translate(24.857 9.116)">
                  <rect id="Rectangle_12659" width="3.984" height="3.984" transform="translate(0 3.741) rotate(-69.88)" fill="#1e2830"/>
                </g>
                <g id="Group_65852" transform="translate(31.07 11.398)">
                  <rect id="Rectangle_12660" width="3.984" height="3.984" transform="translate(0 3.741) rotate(-69.88)" fill="#1e2830"/>
                </g>
                <g id="Group_65853" transform="translate(37.284 13.676)">
                  <rect id="Rectangle_12661" width="3.984" height="3.984" transform="translate(0 3.74) rotate(-69.86)" fill="#1e2830"/>
                </g>
                <g id="Group_65854" transform="translate(43.498 15.956)">
                  <rect id="Rectangle_12662" width="3.984" height="3.984" transform="translate(0 3.741) rotate(-69.88)" fill="#1e2830"/>
                </g>
                <g id="Group_65855" transform="translate(49.714 18.235)">
                  <rect id="Rectangle_12663" width="3.984" height="3.984" transform="translate(0 3.741) rotate(-69.88)" fill="#1e2830"/>
                </g>
              </g>
            </g>
          </g>
        </g>
      </g>
      <g id="Group_65860" transform="translate(21.522 15.672)">
        <path id="Rectangle_12664" d="M3.794.341l52.859,19.39a2.763,2.763,0,0,1,1.594,3.453h0a2.763,2.763,0,0,1-3.453,1.594h0L1.935,5.388C.607,5.123.076,3.529.341,1.935h0A3.041,3.041,0,0,1,3.794.341Z" transform="translate(-0.275 -0.275)" fill="#d6dada"/>
      </g>
      <g id="Group_65863" transform="translate(16.85 69.742)">
        <g id="Group_65861">
          <path id="Path_75075" d="M4.516,4.516.266,3.187,1.328,0,13.812,4.25,12.75,7.437,8.234,5.844,3.719,18.859,0,17.8Z" fill="#fff"/>
        </g>
        <g id="Group_65862" transform="translate(14.508 4.752)">
          <path id="Path_75076" d="M0,18.062.531,0,4.516,1.328l-.531,7.7a51.581,51.581,0,0,1-.531,6.375h0a60.111,60.111,0,0,1,3.453-5.312l4.516-6.109,3.984,1.328L4.25,19.39Z" fill="#fff"/>
        </g>
      </g>
    </g>
    <g id="Group_65878" transform="translate(624.401 153.458)">
      <g id="Group_65865" transform="translate(5.081 11.484)">
        <path id="Rectangle_12665" d="M4.341.357h0A4.679,4.679,0,0,1,9.919,4.341v.266h0L.357,6.2h0V5.935A4.808,4.808,0,0,1,4.341.357Z" transform="translate(-0.266 -0.266)" fill="#1e2830"/>
      </g>
      <g id="Group_65869" transform="translate(0 6.436)">
        <g id="Group_65866" transform="translate(2.351 1.987)">
          <path id="Rectangle_12666" d="M19.671,5.452,43.046,1.468A22.366,22.366,0,0,1,68.545,19.8h0A22.366,22.366,0,0,1,50.217,45.3L27.108,49.014a22.366,22.366,0,0,1-25.5-18.328h0A21.779,21.779,0,0,1,19.671,5.452Z" transform="translate(-1.274 -1.199)" fill="#1e2830"/>
        </g>
        <g id="Group_65867" transform="translate(51.822 0)">
          <path id="Rectangle_12667" d="M6.957.582h0a7.422,7.422,0,0,1,8.766,6.375l4.516,28.422a7.422,7.422,0,0,1-6.375,8.766h0A7.422,7.422,0,0,1,5.1,37.769L.582,9.347A7.422,7.422,0,0,1,6.957.582Z" transform="translate(-0.451 -0.451)" fill="#283540"/>
        </g>
        <g id="Group_65868" transform="translate(0 8.735)">
          <path id="Rectangle_12668" d="M4.606.356h0a5.06,5.06,0,0,1,5.844,4.25L16.028,38.34a5.06,5.06,0,0,1-4.25,5.844h0a5.06,5.06,0,0,1-5.844-4.25L.356,6.2A5.06,5.06,0,0,1,4.606.356Z" transform="translate(-0.266 -0.266)" fill="#283540"/>
        </g>
      </g>
      <g id="Group_65870" transform="translate(18.973 17.206)">
        <circle id="Ellipse_3862" cx="15.672" cy="15.672" r="15.672" transform="translate(0 0)" fill="#283540"/>
      </g>
      <g id="Group_65871" transform="translate(20.631 18.863)">
        <circle id="Ellipse_3863" cx="14.078" cy="14.078" r="14.078" transform="translate(0 0)" fill="#00a99d"/>
      </g>
      <g id="Group_65872" transform="translate(22.589 20.821)">
        <circle id="Ellipse_3864" cx="12.219" cy="12.219" r="12.219" transform="translate(0 0)" fill="#788285"/>
      </g>
      <g id="Group_65873" transform="translate(26.847 25.081)">
        <circle id="Ellipse_3865" cx="7.969" cy="7.969" r="7.969" transform="translate(0 0)"/>
      </g>
      <g id="Group_65874" transform="translate(26.712 25.799)">
        <path id="Path_75077" d="M7.458,3.208a3.682,3.682,0,0,1-2.922,4.25A3.932,3.932,0,0,1,.021,4.271,3.816,3.816,0,0,1,3.208.021a3.973,3.973,0,0,1,4.25,3.187Z" transform="translate(0.013 0.013)" fill="#e6f9ff"/>
      </g>
      <g id="Group_65875" transform="translate(38.205 34.027)" opacity="0.49">
        <circle id="Ellipse_3866" cx="2.656" cy="2.656" r="2.656" fill="#e6f9ff"/>
      </g>
      <g id="Group_65876" transform="translate(21.426 0)">
        <path id="Rectangle_12669" d="M9.838.8h0a11.118,11.118,0,0,1,12.75,9.031l.266,1.594h0L1.072,15.145h0L.807,13.552A10.792,10.792,0,0,1,9.838.8Z" transform="translate(-0.635 -0.639)" fill="#1e2830"/>
      </g>
      <g id="Group_65877" transform="translate(23.599 1.484)">
        <path id="Rectangle_12670" d="M17.808,6.024v.8h0L.542,9.477h0C.011,5.493,2.667,1.508,6.651.977h0L10.1.446A6.964,6.964,0,0,1,17.808,6.024Z" transform="translate(-0.475 -0.372)" fill="#fff"/>
      </g>
    </g>
    <g id="Group_65943" transform="translate(577.466 378.544)">
      <g id="Group_65881" transform="translate(0 7.023)">
        <g id="Group_65879" transform="translate(0 18.269)">
          <rect id="Rectangle_12671" width="47.812" height="126.436" transform="translate(0 18.221) rotate(-22.403)" fill="#eaebea"/>
        </g>
        <g id="Group_65880" transform="translate(44.316 0)">
          <rect id="Rectangle_12672" width="47.812" height="126.436" transform="translate(0 18.221) rotate(-22.403)" fill="#dddedd"/>
        </g>
      </g>
      <g id="Group_65889" transform="translate(11.047 17.056)">
        <g id="Group_65882" transform="translate(0 27.402)">
          <path id="Path_75078" d="M6.932,2.151A3.6,3.6,0,0,1,5.073,6.932,3.6,3.6,0,0,1,.292,5.073,3.6,3.6,0,0,1,2.151.292h0A3.6,3.6,0,0,1,6.932,2.151Z" transform="translate(0.016 0.016)" fill="#99a3a3"/>
        </g>
        <g id="Group_65883" transform="translate(11.079 22.836)">
          <path id="Path_75079" d="M6.932,2.151A3.6,3.6,0,0,1,5.073,6.932,3.6,3.6,0,0,1,.292,5.073,3.6,3.6,0,0,1,2.151.292h0A3.6,3.6,0,0,1,6.932,2.151Z" transform="translate(0.016 0.016)" fill="#99a3a3"/>
        </g>
        <g id="Group_65884" transform="translate(22.158 18.306)">
          <path id="Path_75080" d="M6.932,2.128A3.6,3.6,0,0,1,5.073,6.91,3.6,3.6,0,0,1,.292,5.05,3.6,3.6,0,0,1,2.151.269h0A3.846,3.846,0,0,1,6.932,2.128Z" transform="translate(0.016 0.002)" fill="#99a3a3"/>
        </g>
        <g id="Group_65885" transform="translate(33.237 13.701)">
          <path id="Path_75081" d="M6.932,2.151A3.6,3.6,0,0,1,5.073,6.932,3.6,3.6,0,0,1,.292,5.073,3.6,3.6,0,0,1,2.151.292h0A3.6,3.6,0,0,1,6.932,2.151Z" transform="translate(0.016 0.016)" fill="#99a3a3"/>
        </g>
        <g id="Group_65886" transform="translate(44.332 9.15)">
          <circle id="Ellipse_3867" cx="3.719" cy="3.719" r="3.719" transform="translate(0 0)" fill="#99a3a3"/>
        </g>
        <g id="Group_65887" transform="translate(55.395 4.566)">
          <path id="Path_75082" d="M6.932,2.151A3.6,3.6,0,0,1,5.073,6.932,3.6,3.6,0,0,1,.292,5.073,3.6,3.6,0,0,1,2.151.292h0A3.6,3.6,0,0,1,6.932,2.151Z" transform="translate(0.016 0.016)" fill="#99a3a3"/>
        </g>
        <g id="Group_65888" transform="translate(66.475 0)">
          <path id="Path_75083" d="M6.932,2.151A3.6,3.6,0,0,1,5.073,6.932,3.6,3.6,0,0,1,.292,5.073,3.6,3.6,0,0,1,2.151.292h0A3.6,3.6,0,0,1,6.932,2.151Z" transform="translate(0.016 0.016)" fill="#99a3a3"/>
        </g>
      </g>
      <g id="Group_65892" transform="translate(4.894 27.402)">
        <g id="Group_65890" transform="translate(0 0)">
          <path id="Path_75084" d="M4.292,1.062A2.137,2.137,0,0,0,1.37.266,2.328,2.328,0,0,0,.042,2.922L3.5,11.687,7.48,10.094Z" transform="translate(0.025 0)" fill="#0071bc"/>
        </g>
        <g id="Group_65891" transform="translate(3.762 9.828)">
          <path id="Path_75085" d="M0,1.594l3.719,9.3a2.233,2.233,0,0,0,2.922,1.062A2.175,2.175,0,0,0,7.7,9.3L3.984,0Z" fill="#005c99"/>
        </g>
      </g>
      <g id="Group_65895" transform="translate(15.973 22.835)">
        <g id="Group_65893" transform="translate(0 0)">
          <path id="Path_75086" d="M4.292,1.062A2.137,2.137,0,0,0,1.37.266,2.328,2.328,0,0,0,.042,2.922L3.5,11.687,7.48,10.094Z" transform="translate(0.025 0)" fill="#0071bc"/>
        </g>
        <g id="Group_65894" transform="translate(3.762 9.828)">
          <path id="Path_75087" d="M0,1.594l3.719,9.3a2.233,2.233,0,0,0,2.922,1.062A2.175,2.175,0,0,0,7.7,9.3L3.984,0Z" fill="#005c99"/>
        </g>
      </g>
      <g id="Group_65898" transform="translate(27.052 18.267)">
        <g id="Group_65896" transform="translate(0 0)">
          <path id="Path_75088" d="M4.292,1.062A2.137,2.137,0,0,0,1.37.266,2.328,2.328,0,0,0,.042,2.922L3.5,11.687,7.48,10.094Z" transform="translate(0.025 0)" fill="#0071bc"/>
        </g>
        <g id="Group_65897" transform="translate(3.762 9.828)">
          <path id="Path_75089" d="M0,1.594l3.719,9.3a2.233,2.233,0,0,0,2.922,1.062A2.175,2.175,0,0,0,7.7,9.3L3.984,0Z" fill="#005c99"/>
        </g>
      </g>
      <g id="Group_65901" transform="translate(38.131 13.701)">
        <g id="Group_65899" transform="translate(0 0)">
          <path id="Path_75090" d="M4.292,1.062A2.137,2.137,0,0,0,1.37.266,2.328,2.328,0,0,0,.042,2.922L3.5,11.687,7.48,10.094Z" transform="translate(0.025 0)" fill="#0071bc"/>
        </g>
        <g id="Group_65900" transform="translate(3.762 9.828)">
          <path id="Path_75091" d="M0,1.594l3.719,9.3a2.233,2.233,0,0,0,2.922,1.062A2.175,2.175,0,0,0,7.7,9.3L3.984,0Z" fill="#005c99"/>
        </g>
      </g>
      <g id="Group_65904" transform="translate(49.21 9.135)">
        <g id="Group_65902" transform="translate(0 0)">
          <path id="Path_75092" d="M4.292,1.062A2.137,2.137,0,0,0,1.37.266,2.328,2.328,0,0,0,.042,2.922L3.5,11.687,7.48,10.094Z" transform="translate(0.025 0)" fill="#0071bc"/>
        </g>
        <g id="Group_65903" transform="translate(3.762 9.828)">
          <path id="Path_75093" d="M0,1.594l3.719,9.3a2.233,2.233,0,0,0,2.922,1.062A2.175,2.175,0,0,0,7.7,9.3L3.984,0Z" fill="#005c99"/>
        </g>
      </g>
      <g id="Group_65907" transform="translate(60.287 4.566)">
        <g id="Group_65905" transform="translate(0 0)">
          <path id="Path_75094" d="M4.292,1.062A2.137,2.137,0,0,0,1.37.266,2.328,2.328,0,0,0,.042,2.922L3.5,11.687,7.48,10.094Z" transform="translate(0.025 0)" fill="#0071bc"/>
        </g>
        <g id="Group_65906" transform="translate(3.762 9.828)">
          <path id="Path_75095" d="M0,1.594l3.719,9.3a2.233,2.233,0,0,0,2.922,1.062A2.175,2.175,0,0,0,7.7,9.3L3.984,0Z" fill="#005c99"/>
        </g>
      </g>
      <g id="Group_65910" transform="translate(71.366 0)">
        <g id="Group_65908" transform="translate(0 0)">
          <path id="Path_75096" d="M4.292,1.062A2.137,2.137,0,0,0,1.37.266,2.328,2.328,0,0,0,.042,2.922L3.5,11.687,7.48,10.094Z" transform="translate(0.025 0)" fill="#0071bc"/>
        </g>
        <g id="Group_65909" transform="translate(3.762 9.828)">
          <path id="Path_75097" d="M0,1.594l3.719,9.3a2.233,2.233,0,0,0,2.922,1.062A2.175,2.175,0,0,0,7.7,9.3L3.984,0Z" fill="#005c99"/>
        </g>
      </g>
      <g id="Group_65921" transform="translate(100.442 16.628)">
        <g id="Group_65911" transform="translate(5.081 33.197)">
          <rect id="Rectangle_12673" width="11.156" height="93.499" transform="translate(0 3.323) rotate(-17.331)" fill="#c76580"/>
        </g>
        <g id="Group_65912" transform="translate(11.217 33.221)">
          <path id="Path_75098" d="M32.671,89.249l-5.312,1.594L0,3.719,4.781,0Z" fill="#a63554"/>
        </g>
        <g id="Group_65913" transform="translate(2.234 24.076)">
          <rect id="Rectangle_12674" width="11.156" height="93.499" transform="translate(0 3.323) rotate(-17.331)" fill="#d4d4d4"/>
        </g>
        <g id="Group_65914" transform="translate(8.37 24.1)">
          <path id="Path_75099" d="M32.671,89.249l-5.312,1.594L0,3.719,4.781,0Z" fill="#a8a8a8"/>
        </g>
        <g id="Group_65915" transform="translate(0.712 19.196)">
          <rect id="Rectangle_12675" width="11.156" height="93.499" transform="translate(0 3.323) rotate(-17.331)" fill="#ffc013"/>
        </g>
        <g id="Group_65916" transform="translate(6.848 19.22)">
          <path id="Path_75100" d="M32.671,89.249l-5.312,1.594L0,3.719,4.781,0Z" fill="#d9a310"/>
        </g>
        <g id="Group_65917">
          <path id="Path_75101" d="M5.844,9.562,0,0,.531,12.219A5.629,5.629,0,0,0,5.844,9.562Z" fill="#403d3c"/>
        </g>
        <g id="Group_65918" transform="translate(0.462 9.647)">
          <path id="Path_75102" d="M0,2.656.266,7.7.531,12.75l5.844.531,4.781-3.719L8.234,4.781,5.312,0A8.084,8.084,0,0,1,3.187,2.125,13.333,13.333,0,0,1,0,2.656Z" fill="#ffe2cf"/>
        </g>
        <g id="Group_65919">
          <path id="Path_75103" d="M0,0,3.453,11.687A4.687,4.687,0,0,0,5.844,9.562Z"/>
        </g>
        <g id="Group_65920" transform="translate(3.469 9.647)">
          <path id="Path_75104" d="M0,2.125,3.453,13.281,7.969,9.562,2.391,0A6.271,6.271,0,0,1,0,2.125Z" fill="#ffcaa5"/>
        </g>
      </g>
      <g id="Group_65942" transform="translate(19.001 30.857)">
        <g id="Group_65922" transform="translate(22.942 69.359)">
          <rect id="Rectangle_12676" width="35.859" height="4.25" transform="translate(0 13.666) rotate(-22.403)" fill="#99a3a3"/>
        </g>
        <g id="Group_65923" transform="translate(56.239 55.284)">
          <rect id="Rectangle_12677" width="36.921" height="4.25" transform="translate(0 14.074) rotate(-22.408)" fill="#748282"/>
        </g>
        <g id="Group_65924" transform="translate(59.137 62.318)">
          <rect id="Rectangle_12678" width="36.921" height="4.25" transform="translate(0 14.074) rotate(-22.408)" fill="#748282"/>
        </g>
        <g id="Group_65925" transform="translate(25.842 76.393)">
          <rect id="Rectangle_12679" width="35.859" height="4.25" transform="translate(0 13.666) rotate(-22.403)" fill="#99a3a3"/>
        </g>
        <g id="Group_65926" transform="translate(28.74 83.426)">
          <rect id="Rectangle_12680" width="35.859" height="4.25" transform="translate(0 13.666) rotate(-22.403)" fill="#99a3a3"/>
        </g>
        <g id="Group_65927" transform="translate(62.038 69.352)">
          <rect id="Rectangle_12681" width="36.921" height="4.25" transform="translate(0 14.074) rotate(-22.408)" fill="#748282"/>
        </g>
        <g id="Group_65928" transform="translate(64.936 76.385)">
          <rect id="Rectangle_12682" width="36.921" height="4.25" transform="translate(0 14.074) rotate(-22.408)" fill="#748282"/>
        </g>
        <g id="Group_65929" transform="translate(31.641 90.46)">
          <rect id="Rectangle_12683" width="35.859" height="4.25" transform="translate(0 13.666) rotate(-22.403)" fill="#99a3a3"/>
        </g>
        <g id="Group_65930" transform="translate(33.237 0)">
          <rect id="Rectangle_12684" width="35.859" height="4.25" transform="translate(0 13.669) rotate(-22.408)" fill="#748282"/>
        </g>
        <g id="Group_65931" transform="translate(0 13.706)">
          <rect id="Rectangle_12685" width="35.859" height="4.25" transform="translate(0 13.666) rotate(-22.403)" fill="#99a3a3"/>
        </g>
        <g id="Group_65932" transform="translate(3.496 22.187)">
          <rect id="Rectangle_12686" width="35.859" height="4.25" transform="translate(0 13.666) rotate(-22.403)" fill="#99a3a3"/>
        </g>
        <g id="Group_65933" transform="translate(36.733 8.479)">
          <rect id="Rectangle_12687" width="35.859" height="4.25" transform="translate(0 13.669) rotate(-22.408)" fill="#748282"/>
        </g>
        <g id="Group_65934" transform="translate(6.991 30.666)">
          <rect id="Rectangle_12688" width="35.859" height="4.25" transform="translate(0 13.666) rotate(-22.403)" fill="#99a3a3"/>
        </g>
        <g id="Group_65935" transform="translate(40.226 16.968)">
          <rect id="Rectangle_12689" width="35.859" height="4.25" transform="translate(0 13.659) rotate(-22.39)" fill="#748282"/>
        </g>
        <g id="Group_65936" transform="translate(43.724 25.439)">
          <rect id="Rectangle_12690" width="35.859" height="4.25" transform="translate(0 13.669) rotate(-22.408)" fill="#748282"/>
        </g>
        <g id="Group_65937" transform="translate(10.487 39.144)">
          <rect id="Rectangle_12691" width="35.859" height="4.25" transform="translate(0 13.666) rotate(-22.403)" fill="#99a3a3"/>
        </g>
        <g id="Group_65938" transform="translate(47.166 33.792)">
          <rect id="Rectangle_12692" width="35.859" height="4.25" transform="translate(0 13.669) rotate(-22.408)" fill="#748282"/>
        </g>
        <g id="Group_65939" transform="translate(13.929 47.498)">
          <rect id="Rectangle_12693" width="35.859" height="4.25" transform="translate(0 13.666) rotate(-22.403)" fill="#99a3a3"/>
        </g>
        <g id="Group_65940" transform="translate(50.606 42.152)">
          <rect id="Rectangle_12694" width="35.859" height="4.25" transform="translate(0 13.659) rotate(-22.39)" fill="#748282"/>
        </g>
        <g id="Group_65941" transform="translate(17.374 55.849)">
          <rect id="Rectangle_12695" width="35.859" height="4.25" transform="translate(0 13.666) rotate(-22.403)" fill="#99a3a3"/>
        </g>
      </g>
    </g>
  </g>
</svg>
