<svg id="Group_62737" data-name="Group 62737" xmlns="http://www.w3.org/2000/svg" width="14.766" height="12.886" viewBox="0 0 14.766 12.886">
  <path id="Path_71244" data-name="Path 71244" d="M-3.374,5.82,2.8-1.748,2.772-1.78c-.246.212-.493.423-.738.636-2.3,2-4.6,3.991-6.886,6a.734.734,0,0,1-.868.168C-6.8,4.622-7.892,4.263-8.981,3.889c-.228-.078-.408-.2-.421-.464s.148-.387.354-.5Q-2.229-.688,4.587-4.313a.5.5,0,0,1,.6-.012.543.543,0,0,1,.159.571C5.177-2.636,5.025-1.515,4.862-.4c-.143.98-.294,1.959-.438,2.94C4.261,3.663,4.1,4.783,3.94,5.9c-.084.579-.162,1.159-.264,1.735-.072.412-.312.539-.7.4Q1.633,7.58.3,7.112l-3.589-1.25A.867.867,0,0,1-3.374,5.82Z" transform="translate(9.403 4.421)" fill="#fff"/>
  <path id="Path_71245" data-name="Path 71245" d="M107.38,230.433l1.59.543-.664.907c-.125.17-.249.34-.374.51a.291.291,0,0,1-.354.135.285.285,0,0,1-.2-.308C107.381,231.631,107.38,231.043,107.38,230.433Z" transform="translate(-101.589 -219.66)" fill="#fff"/>
</svg>
