<svg xmlns="http://www.w3.org/2000/svg" width="100" height="100" viewBox="0 0 100 100">
  <g id="location-check" transform="translate(-47 -47)">
    <path id="Path_73073" data-name="Path 73073" d="M0,0H100V100H0Z" transform="translate(47 47)" fill="#fff" opacity="0"/>
    <g id="Group_65992" data-name="Group 65992" transform="translate(-9103.911 -2296.019)">
      <path id="Path_76003" data-name="Path 76003" d="M9327.381,2756.715a34.207,34.207,0,0,1-3.9-14.616h-4.77c-.425,0-.85.01-1.271,0a1.122,1.122,0,0,1-1.222-1.1,1.11,1.11,0,0,1,1.229-1.158c1.841-.014,3.686-.005,5.527-.005h.432c.174-1.481.294-2.932.518-4.368a31.931,31.931,0,0,1,3.045-9.458,1.151,1.151,0,0,1,1.611-.688,1.164,1.164,0,0,1,.407,1.714,31.174,31.174,0,0,0-3.162,11.528c-.025.395-.046.791-.071,1.23h13.406c.2-1.5.463-1.922,1.192-1.926.755,0,1.023.426,1.2,1.93H9355c-.127-1.211-.208-2.423-.386-3.62a30.786,30.786,0,0,0-2.69-8.759c-.394-.825-.237-1.444.407-1.759s1.246-.03,1.656.837a33.467,33.467,0,0,1,3.227,12.745c.01.165.018.328.031.543h9.143a25.339,25.339,0,0,0-1.969-8.869,25.8,25.8,0,0,0-8.265-10.692,4.254,4.254,0,0,1-.436-.36,1.114,1.114,0,0,1-.109-1.535,1.036,1.036,0,0,1,1.463-.23,19.222,19.222,0,0,1,1.83,1.443,27.665,27.665,0,0,1,9.681,19.219,28.212,28.212,0,0,1-22.382,29.94c-15.661,3.392-31.357-7.252-33.755-23.086-1.7-11.267,2.156-20.446,11.129-27.474a1.964,1.964,0,0,1,.871-.4.981.981,0,0,1,1.1.7,1.214,1.214,0,0,1-.492,1.421,53.325,53.325,0,0,0-4.5,4.187,26.1,26.1,0,0,0-.174,33.71,1,1,0,0,0,1.2.364C9323.476,2757.624,9325.384,2757.192,9327.381,2756.715Zm11.823-14.563h-13.409c-.117,3.81,1.841,10.946,3.828,13.9a.791.791,0,0,0,.623.241c1.551-.137,3.095-.333,4.648-.463,1.428-.119,2.857-.177,4.31-.263Zm2.319,13.322c2.988.275,5.9.527,8.813.831a.773.773,0,0,0,.92-.49,30.864,30.864,0,0,0,3.116-8.768c.3-1.609.453-3.245.677-4.9h-13.526Zm15.718-13.352a34.307,34.307,0,0,1-3.892,14.59c2,.48,3.924.916,5.832,1.416a.941.941,0,0,0,1.137-.352,26.021,26.021,0,0,0,5.665-12.016c.224-1.186.312-2.4.468-3.637ZM9349.7,2758.4l-8.162-.6v9.007A32.372,32.372,0,0,0,9349.7,2758.4Zm-10.5-.61-8.165.617a32.114,32.114,0,0,0,8.165,8.4Zm18.883,2.305c-1.965-.41-3.742-.768-5.513-1.157-.414-.092-.566.113-.782.4-1.232,1.609-2.465,3.219-3.754,4.785-.673.814-1.459,1.536-2.224,2.331A26.076,26.076,0,0,0,9358.08,2760.1Zm-23.192,6.281a38.759,38.759,0,0,1-6.111-7.245.545.545,0,0,0-.453-.2c-1.838.359-3.672.745-5.676,1.158A25.3,25.3,0,0,0,9334.888,2766.381Z" transform="translate(-139.412 -343.421)" fill="#001968"/>
      <path id="Path_76004" data-name="Path 76004" d="M9749.991,2360.131c7.24-.006,12.36,5.185,12.077,11.544a18.884,18.884,0,0,1-1.972,7.114,54.893,54.893,0,0,1-8.374,12.561c-.581.677-1.293.744-1.827.117-4.114-4.817-7.8-9.9-9.766-16.021a11.459,11.459,0,0,1,.188-8.636A11,11,0,0,1,9749.991,2360.131Zm.793,28.949c1.338-1.833,2.642-3.509,3.827-5.261a32.51,32.51,0,0,0,4.865-10,8.984,8.984,0,0,0-11.033-11.141,8.8,8.8,0,0,0-6.4,11.19C9743.582,2379.647,9747.059,2384.316,9750.784,2389.08Z" transform="translate(-549.8 -0.001)" fill="#001968"/>
      <path id="Path_76005" data-name="Path 76005" d="M10596.444,2799.619a33.29,33.29,0,0,1-9.578,22.4c-.066.068-.131.138-.2.2a1.169,1.169,0,0,1-1.749.147,1.152,1.152,0,0,1,.093-1.7c.754-.847,1.543-1.662,2.248-2.548a31.8,31.8,0,0,0,.932-38.4c-.673-.941-.709-1.594-.11-2.047q.924-.709,1.958.729A35,35,0,0,1,10596.444,2799.619Z" transform="translate(-1361.514 -400.775)" fill="#001968"/>
      <path id="Path_76006" data-name="Path 76006" d="M9166.893,2711.284c.106-7.284,3.321-15.187,9.652-21.82a3.05,3.05,0,0,1,.514-.482,1.051,1.051,0,0,1,1.423.126,1.036,1.036,0,0,1,.142,1.417,4.507,4.507,0,0,1-.51.583,31.581,31.581,0,0,0-4.635,37.977c.166.287.354.56.5.855a1.123,1.123,0,1,1-1.937,1.137c-.705-1.225-1.417-2.454-2.012-3.732C9167.93,2722.858,9166.889,2718.125,9166.893,2711.284Z" transform="translate(-0.001 -315.61)" fill="#001968"/>
      <path id="Path_76007" data-name="Path 76007" d="M10572.423,2676.1a1.13,1.13,0,1,1-1.108-1.153A1.146,1.146,0,0,1,10572.423,2676.1Z" transform="translate(-1347.662 -302.346)" fill="#001968"/>
      <path id="Path_76008" data-name="Path 76008" d="M9369.374,3821.654a1.129,1.129,0,1,1,1.13-1.126A1.138,1.138,0,0,1,9369.374,3821.654Z" transform="translate(-193.377 -1401.438)" fill="#001968"/>
      <path id="Path_76010" data-name="Path 76010" d="M9894.605,2508.918a5.669,5.669,0,1,1-5.647-5.707A5.686,5.686,0,0,1,9894.605,2508.918Zm-5.676-3.439a3.4,3.4,0,1,0,3.406,3.428A3.419,3.419,0,0,0,9888.93,2505.479Z" transform="translate(-687.987 -137.411)" fill="#001968"/>
    </g>
  </g>
</svg>
