<svg xmlns="http://www.w3.org/2000/svg" width="784.997" height="444.447" viewBox="0 0 784.997 444.447">
  <g id="Group_65312" transform="translate(-28.469 -308.823)">
    <g id="Group_65306" transform="translate(28.469 379.333)">
      <g id="Group_65304">
        <path id="Path_74248" d="M36.8,77l49.624,6.237L79.1,140.725,54.426,152.656Z" transform="translate(62.99 131.801)" fill="#46ac02"/>
        <path id="Path_74249" d="M70.906,59.8l33.625,1.9L91.515,125.152,62.5,111.322" transform="translate(106.981 102.36)" fill="#46ac02"/>
        <path id="Path_74250" d="M190.9,155.38,178.159,229.41,0,225.613,52.336,0S74.3,90.571,190.9,155.38Z" fill="#ddd"/>
        <path id="Path_74251" d="M2.114,220.92,1.3,218.209a110.8,110.8,0,0,0,60.471-58.3c17.9-40.675,13.016-93.282-14.914-156.194L49.3,2.9C77.77,66.625,82.651,119.774,64.483,161.263A113.928,113.928,0,0,1,2.114,220.92Z" transform="translate(2.225 4.964)" fill="#002f47"/>
        <path id="Path_74252" d="M44.743,125.556,0,84.88,7.593,43.392,64,33.9C64,33.629,75.114,93.829,44.743,125.556Z" transform="translate(0 58.026)" fill="#f87c00"/>
        <path id="Path_74253" d="M8.179,38.9,1.4,74.966S29.6,62.221,8.179,38.9Z" transform="translate(2.396 66.585)" fill="#002f47"/>
        <rect id="Rectangle_12520" width="142.635" height="8.406" transform="translate(78.322 226.712) rotate(-81.645)" fill="#f87c00"/>
        <rect id="Rectangle_12521" width="91.927" height="8.406" transform="matrix(0.083, -0.997, 0.997, 0.083, 150.504, 229.031)" fill="#46ac02"/>
        <path id="Path_74254" d="M41.5,72.012V81.5l26.032,2.169L72.142,69.3,52.889,76.35Z" transform="translate(71.035 118.621)" fill="#053caa"/>
      </g>
      <g id="Group_65305" transform="translate(92.012 217.789)">
        <path id="Path_74255" d="M50.984,15.657H0s-1.9,85.961,57.488,39.32c0,0-5.152,73.758,23.863,77.555S147.249,15.657,147.249,15.657L142.1,12.674s-42.031,94.1-57.488,96.265S67.8,39.52,67.8,39.52,82.169,7.251,70.508,1.285,34.443,25.69,40.68,36.808,65.085,18.64,65.085,18.64" transform="translate(0.003 0.904)" fill="#d4c559"/>
        <path id="Path_74256" d="M59.718,111.463a6.649,6.649,0,0,1-4.339-1.627C43.448,99.8,42.363,42.857,42.092,40.417v-.542c3.8-8.677,11.931-32,3.525-36.608-3.525-1.9-10.033,1.085-16.541,7.593C21.212,18.723,14.7,31.2,17.958,36.892c.814,1.627,1.9,1.9,2.441,1.9h0c5.152,0,14.643-12.2,19.253-20.067l2.441,1.356C40.736,22.248,28.534,41.5,20.4,41.5h-.271a5.357,5.357,0,0,1-4.881-3.254c-4.068-7.322,2.983-20.609,11.66-29.286C34.5,1.368,41.821-1.615,46.973.826c12.2,6.237,0,35.252-2.169,39.862.271,16.27,3.254,59.386,12.2,66.979a4.078,4.078,0,0,0,2.983,1.085c10.847-1.627,39.591-58.03,56.4-95.452l2.441,1.085c-4.339,9.762-42.845,94.909-58.573,97.079Z" transform="translate(24.08 0.007)" fill="#002f47"/>
        <rect id="Rectangle_12522" width="29.829" height="2.712" transform="translate(51.238 59.248) rotate(-80.793)" fill="#002f47"/>
        <rect id="Rectangle_12523" width="42.574" height="2.712" transform="matrix(0.974, -0.228, 0.228, 0.974, 10.795, 58.057)" fill="#002f47"/>
        <rect id="Rectangle_12524" width="37.693" height="2.712" transform="translate(3.819 46.132) rotate(-14.898)" fill="#002f47"/>
        <rect id="Rectangle_12525" width="39.32" height="2.712" transform="translate(0.82 28.764)" fill="#002f47"/>
      </g>
    </g>
    <path id="Path_74257" d="M236.071,420.111s94.1-71.318,145.347,42.031c0,0-40.4,14.372-34.167,20.067s34.167-13.83,34.167-13.83-24.676,68.064-14.1,68.877c10.847,1.085,18.982-67.792,18.982-67.792s26.575,70.233,34.439,67.521-28.2-69.691-28.2-69.691,55.047,40.676,65.081,30.913-61.827-37.693-61.827-37.693,58.3,3.254,62.369-4.068-68.606-1.627-68.606-1.627S372.47,333.336,235.8,412.518" transform="translate(354.888 131.618)" fill="#d4c559"/>
    <g id="Group_65311" transform="translate(252.449 308.823)">
      <g id="Group_65307" transform="translate(0)">
        <path id="Path_74258" d="M281.695,433.6,3.2,443.363S-25.269,137.483,88.351,0l333,39.32S416.466,75.928,450.9,87.045C450.9,87.045,310.439,282.83,281.695,433.6Z" transform="translate(-0.03)" fill="#d4c559"/>
        <path id="Path_74259" d="M42.748,46,344.56,53.05,283,205.448,3.7,201.109Z" transform="translate(6.253 78.738)" fill="#fff" opacity="0.2"/>
        <path id="Path_74260" d="M52.4,219.707,62.7,112.323l132.06-5.423L164.935,225.944Z" transform="translate(89.613 182.98)" fill="#fff" opacity="0.2"/>
        <path id="Path_74261" d="M2.256,419.97.9,417.529c.814-.271,74.572-40.4,260.865-24.405,1.627-13.016,17.626-117.417,157.007-378.824l2.441,1.356c-148.33,278.763-156.736,378.282-156.736,379.1v1.356h-1.356C76.828,379.837,3.069,419.7,2.256,419.97Z" transform="translate(1.46 24.477)" fill="#002f47"/>
        <path id="Path_74262" d="M14.914,173.211,14.1,170.5c.814-.271,94.367-29.015,228.325-8.406l-.542,2.712C108.467,144.467,15.727,172.94,14.914,173.211Z" transform="translate(24.055 264.728)" fill="#002f47"/>
        <path id="Path_74263" d="M26.642,167.987l-.542-2.712c.814-.271,80.809-17.084,168.668-2.712l-.542,2.712C107.18,150.9,27.456,167.716,26.642,167.987Z" transform="translate(44.595 268.325)" fill="#002f47"/>
        <path id="Path_74264" d="M103.012,376.35l-2.712-.542c.271-1.627,35.252-158.634,145.618-351.707l2.44,1.356C138.264,217.986,103.283,374.722,103.012,376.35Z" transform="translate(171.603 41.252)" fill="#002f47"/>
        <path id="Path_74265" d="M104.412,369.893l-2.712-.542c.271-1.627,33.083-151.855,168.125-336.251l2.169,1.627C137.223,218.58,104.683,368.537,104.412,369.893Z" transform="translate(173.999 56.657)" fill="#002f47"/>
        <path id="Path_74266" d="M115.412,266.191l-2.712-1.085c.814-1.627,71.318-171.65,133.416-233.206l1.9,1.9C186.458,95.083,115.954,264.564,115.412,266.191Z" transform="translate(192.828 54.603)" fill="#002f47"/>
        <path id="Path_74267" d="M128.841,178.215l-2.441-1.356C160.025,107.982,206.666,29.614,206.937,28.8l2.44,1.356C209.107,30.969,162.466,109.609,128.841,178.215Z" transform="translate(216.278 49.297)" fill="#002f47"/>
        <path id="Path_74268" d="M6.683,108.8H124.642V219.437L3.7,242.215Z" transform="translate(6.253 186.233)" fill="#fff" opacity="0.2"/>
      </g>
      <g id="Group_65308" transform="translate(96.262 250.53)">
        <path id="Path_74269" d="M84.814,54.859c13.558,37.15,6.779,73.487-14.643,81.351s-49.9-16-63.183-53.149S-.062,9.3,21.631,1.439,71.526,17.709,84.814,54.859Z" transform="translate(-0.036 0.048)" fill="#002f47"/>
        <path id="Path_74270" d="M49.766,28.448s5.966,42.3-22.507,54.234C27.259,82.953,7.734,26.008,49.766,28.448Z" transform="translate(38.808 48.695)" fill="#ff5288"/>
        <path id="Path_74271" d="M3.9,16.111,62.473,31.839S29.661-23.48,3.9,16.111Z" transform="translate(6.577 3.273)" fill="#fff"/>
      </g>
      <g id="Group_65309" transform="translate(43.722 131.797)">
        <path id="Path_74272" d="M84.6,52.7A42.3,42.3,0,1,1,42.3,10.4h0A42.357,42.357,0,0,1,84.6,52.7Z" transform="translate(0 17.802)" fill="#fff"/>
        <path id="Path_74273" d="M146.942,60.471A60.471,60.471,0,1,1,86.471,0h0a60.353,60.353,0,0,1,60.471,60.471Z" transform="translate(44.504)" fill="#fff"/>
        <path id="Path_74274" d="M38.028,30.164A7.864,7.864,0,1,1,30.164,22.3a7.87,7.87,0,0,1,7.864,7.864Z" transform="translate(38.171 38.171)" fill="#002f47"/>
        <path id="Path_74275" d="M45.028,30.164A7.864,7.864,0,1,1,37.164,22.3a7.87,7.87,0,0,1,7.864,7.864Z" transform="translate(50.153 38.171)" fill="#002f47"/>
      </g>
      <g id="Group_65310" transform="translate(51.675 7.186)">
        <path id="Path_74276" d="M0,105.756l306.964,11.66,54.505-78.91L36.337,0Z" fill="#001968"/>
        <g id="Group_66205" data-name="Group 66205" transform="translate(42.574 20.778)">
          <path id="Path_76301" data-name="Path 76301" d="M53.935,48.44a15.691,15.691,0,0,1-1.9,5.695,17.759,17.759,0,0,1-4.068,4.881,20.159,20.159,0,0,1-5.695,3.525A28.85,28.85,0,0,1,35.5,64.981a41.4,41.4,0,0,1-14.1,1.085A42.1,42.1,0,0,1,15.7,64.981c3.254-9.22,6.237-18.711,8.677-27.93,2.441-9.491,4.61-18.982,6.779-28.473A116.5,116.5,0,0,1,49.6,7.764c5.423.542,9.22,2.712,11.118,6.779a8.888,8.888,0,0,1,.814,5.423,17.563,17.563,0,0,1-1.356,5.695,26.867,26.867,0,0,1-2.983,4.61,16.756,16.756,0,0,1-8.406,5.423C52.579,38.678,54.206,43.016,53.935,48.44ZM32.784,50.609q7.322,0,10.576-3.254a6.464,6.464,0,0,0,1.627-2.983c0-1.085,0-2.169-.542-2.712a6.336,6.336,0,0,0-1.9-1.9,8.928,8.928,0,0,0-5.152-1.627H36.038c-.271,1.356-.542,2.441-.814,3.525s-.542,1.9-.814,2.712-.542,1.9-.814,2.712C33.326,48.168,33.055,49.253,32.784,50.609Zm5.966-22.236c6.779-.814,10.3-2.441,10.3-4.61.271-2.169-1.356-3.525-4.61-4.339-.814-.271-1.627-.271-2.169-.542h-.814c-.271.542-.271,1.356-.542,2.169a7.918,7.918,0,0,0-.542,2.441,8.618,8.618,0,0,1-.814,2.441A4.374,4.374,0,0,0,38.749,28.373Z" transform="translate(-15.7 -7.663)" fill="#fff"/>
          <path id="Path_76302" data-name="Path 76302" d="M53.176,66.582c-2.983-13.83-4.339-21.422-4.339-23.321l-1.085.271c-.542,2.441-1.627,5.695-2.712,10.033s-2.169,7.593-2.983,10.3L28.5,66.04C36.364,40.007,41.245,21.3,43.414,10.45a74.34,74.34,0,0,1,20.88-1.085c5.695.542,8.949,2.712,9.762,6.779a13.063,13.063,0,0,1,0,4.61,22.51,22.51,0,0,1-1.627,5.695A32.477,32.477,0,0,1,68.9,32.144a30.781,30.781,0,0,1-10.576,8.135c1.627,4.61,3.254,8.949,4.339,13.016,1.356,4.068,2.441,7.593,3.254,10.3Zm4.61-46.641-3.525-.271-3.8,12.745c2.169,0,4.881-1.085,8.406-3.254s5.423-4.068,5.423-5.966c0-1.627-1.356-2.441-4.068-2.983C59.413,20.212,58.6,19.941,57.786,19.941Z" transform="translate(6.21 -5.196)" fill="#fff"/>
          <path id="Path_76303" data-name="Path 76303" d="M41.9,66.974,57.357,10.3H83.118c-.542,1.085-.814,2.441-1.356,3.525-.271,1.085-.814,2.169-1.085,3.254s-.542,2.169-.814,2.983a61.688,61.688,0,0,1-6.508-.271l-5.423-.542L63.865,33.621c2.983,0,5.423.271,7.322.271s3.254.271,3.8.271A20.313,20.313,0,0,1,73.9,38.5a25.388,25.388,0,0,1-1.085,4.339H70.1c-1.085,0-2.441-.271-3.8-.271a24.814,24.814,0,0,1-4.339-.271L57.9,56.941l11.931-.814L68.2,65.347Z" transform="translate(29.146 -3.148)" fill="#fff"/>
          <path id="Path_76304" data-name="Path 76304" d="M69.64,55.13,65.3,66.519a24.814,24.814,0,0,0-4.339.271,29.472,29.472,0,0,0-4.881.271c-1.627.271-3.254,0-4.881.271,2.712-7.05,5.152-13.016,7.05-17.626s3.525-8.677,4.61-11.931c1.356-2.983,2.441-6.237,3.525-9.22s2.441-5.966,3.525-8.949,2.169-5.423,2.983-7.864A178.7,178.7,0,0,0,95.4,11.2c-.814,5.152-1.9,11.389-2.712,18.44-1.9,14.1-3.525,27.117-5.152,39.048-1.627,0-3.254.271-4.61.271-1.627,0-2.983.271-4.61.271s-2.983.271-4.339.271c1.085-4.881,1.9-9.491,2.712-13.558Zm2.712-7.864h5.966a4.771,4.771,0,0,1,.271-1.627c.271-.814.271-1.627.542-2.712.814-5.695,1.9-10.847,2.712-15.728l1.085-7.05H81.571Z" transform="translate(45.065 -1.607)" fill="#fff"/>
          <path id="Path_76305" data-name="Path 76305" d="M103.777,70.815c-2.441-.271-5.152-.542-7.864-.814s-5.695-.542-8.677-.542c-.542-6.779-.814-14.372-1.356-22.236L84.253,48.85a59.046,59.046,0,0,0-1.627,5.966c-.542,2.441-1.356,4.61-1.9,7.05s-1.356,4.881-2.169,7.593L65,70c7.864-26.032,13.016-45.285,15.186-58.3,1.356.271,2.712.542,4.339.814a26.717,26.717,0,0,0,4.61.542,23.881,23.881,0,0,0,4.61.542c0,.271-.271.542-.271,1.085-.271.542-.271,1.356-.542,2.169s-.542,1.627-.814,2.712S91.575,22,91.032,23.631s-1.085,4.068-1.9,6.779h.542c1.627-2.169,3.525-4.339,5.152-6.779,3.525-4.61,6.237-8.135,7.593-9.762a147.457,147.457,0,0,0,16.27-.542Q103.235,30.817,97.54,38.546c.814,5.423,1.627,10.847,2.983,16.27C101.337,59.968,102.693,65.392,103.777,70.815Z" transform="translate(68.687 -0.752)" fill="#fff"/>
          <path id="Path_76306" data-name="Path 76306" d="M107.686,13.4c-8.677,30.1-13.83,48.811-15.728,56.132H84.095c-3.8.271-5.695.271-5.695.271,2.169-5.966,4.339-12.474,6.237-19.524,4.61-16.27,8.135-28.2,10.033-36.066Z" transform="translate(91.623 2.158)" fill="#fff"/>
          <path id="Path_76307" data-name="Path 76307" d="M102.326,13.3l2.169.271c1.085,0,4.068.271,8.949.542.542,3.8.814,7.593,1.085,10.847.814,9.491,1.627,15.728,1.9,18.44a27.818,27.818,0,0,1,1.085-3.8,26.654,26.654,0,0,1,1.356-4.339c.542-1.627.814-2.983,1.356-4.61.814-2.441,2.169-7.593,4.61-15.186l10.033-.271c-8.135,26.032-13.287,45.014-15.728,56.4-.542,0-2.983.271-6.779.814S106.394,73.5,105.58,73.5q.407-21.965-.814-30.913c-.271,1.085-.542,2.169-.814,3.525s-.814,2.712-1.085,4.339c-1.356,5.695-3.525,12.474-5.695,20.609L84.7,72.144c8.406-28.2,13.558-47.726,15.728-58.844Z" transform="translate(102.407 1.987)" fill="#fff"/>
          <path id="Path_76308" data-name="Path 76308" d="M133.369,30.742q-.813-6.1-4.068-6.508c-1.356,0-2.983.814-4.61,2.441a29.643,29.643,0,0,0-5.152,7.05c-3.8,6.779-6.237,13.558-6.779,20.338q-.407,4.881.814,7.322t3.254,2.441a8.618,8.618,0,0,0,3.8-.542,20.224,20.224,0,0,0,3.254-1.9,13.942,13.942,0,0,0,4.068-7.593l-8.677.542,2.169-7.864c7.593-.271,14.372-.814,20.338-1.356a50.689,50.689,0,0,1-4.339,14.1,39.939,39.939,0,0,1-7.322,9.762,27.193,27.193,0,0,1-8.677,5.423,17.782,17.782,0,0,1-7.864,1.356,14.065,14.065,0,0,1-5.966-1.9,13.263,13.263,0,0,1-4.339-4.339c-2.441-4.068-3.525-9.491-2.983-16.27a51.058,51.058,0,0,1,4.61-17.9,42.6,42.6,0,0,1,8.677-12.2,28.144,28.144,0,0,1,10.576-6.779,21.212,21.212,0,0,1,9.491-1.627,17.3,17.3,0,0,1,6.237,1.627,8.242,8.242,0,0,1,3.525,3.254c1.9,2.712,2.441,5.966,2.169,10.033Z" transform="translate(128.852 4.341)" fill="#fff"/>
        </g>
      </g>
    </g>
  </g>
</svg>
