<svg id="Group_65313" data-name="Group 65313" xmlns="http://www.w3.org/2000/svg" width="12.399" height="10.519" viewBox="0 0 12.399 10.519">
  <path id="Path_74277" data-name="Path 74277" d="M-60.7,241.35a3.066,3.066,0,0,1,.345.115,1.12,1.12,0,0,1,.691,1.074q.011,3.14,0,6.28a1.146,1.146,0,0,1-1.2,1.174c-.258,0-.517.008-.775,0-.144-.006-.192.042-.19.186.007.484,0,.969,0,1.454,0,.07,0,.139,0,.239l-1.247-.477q-1.785-.684-3.571-1.365a.707.707,0,0,0-.246-.033q-1.987,0-3.973,0a1.141,1.141,0,0,1-1.194-1.155q-.012-3.159,0-6.318a1.135,1.135,0,0,1,.93-1.128.724.724,0,0,0,.106-.042Zm-1.45,8.338a.371.371,0,0,1,.071-.027c.381,0,.764-.024,1.143,0a.877.877,0,0,0,.944-.949c-.015-2-.006-4.007-.006-6.01,0-.7-.307-1-1-1h-9.772a.849.849,0,0,0-.95.958q0,3.054,0,6.107a.825.825,0,0,0,.892.893q2.007,0,4.013,0a.812.812,0,0,1,.281.048q1.677.638,3.352,1.283l1.031.392Z" transform="translate(72.056 -241.35)" fill="#001968"/>
  <path id="Path_74278" data-name="Path 74278" d="M-43.093,268.441l-3.107-.952c.088.359.172.672.239.988a1.215,1.215,0,0,1,.038.45.557.557,0,0,1-.538.447.574.574,0,0,1-.544-.42c-.121-.44-.231-.883-.339-1.327-.032-.132-.068-.218-.232-.25a.614.614,0,0,1-.467-.6c-.008-.258-.009-.517,0-.775a.624.624,0,0,1,.648-.636,7.518,7.518,0,0,0,2.815-.573c.492-.143.98-.3,1.487-.455Zm-.332-3.644c-.916.281-1.8.553-2.684.823-.091.028-.139.064-.138.172.006.4.006.8,0,1.2a.152.152,0,0,0,.133.173c.493.145.984.3,1.475.448.4.122.794.247,1.213.377Zm-3.153,2.272c0-.435,0-.841-.006-1.247a.177.177,0,0,0-.126-.117c-.219-.012-.439-.012-.659,0a.333.333,0,0,0-.343.346c-.008.232-.009.465,0,.7a.294.294,0,0,0,.275.319C-47.159,267.08-46.882,267.069-46.577,267.069Zm-.475.338c.127.511.239.985.366,1.455a.207.207,0,0,0,.271.157.23.23,0,0,0,.175-.3c-.1-.4-.2-.8-.3-1.195a.187.187,0,0,0-.123-.113A2.872,2.872,0,0,0-47.052,267.406Z" transform="translate(48.981 -263.451)" fill="#001968"/>
  <path id="Path_74279" data-name="Path 74279" d="M132.085,389.957c-.133.195-.257.353-.354.525a.318.318,0,0,1-.42.18v-1.776h.327v1.029l.05.016a1.669,1.669,0,0,0,.135-.2c.15-.3.4-.278.519-.005a.415.415,0,0,0,.179.185v-1.025h.335v1.775a.3.3,0,0,1-.4-.151C132.353,390.328,132.222,390.16,132.085,389.957Z" transform="translate(-123.422 -383.163)" fill="#001968"/>
  <path id="Path_74280" data-name="Path 74280" d="M49.253,389.515v-1h.31v1.775a.271.271,0,0,1-.373-.145,6.3,6.3,0,0,0-.572-.834v1.007h-.34v-1.786a.284.284,0,0,1,.4.154c.164.288.352.562.53.842Z" transform="translate(-43.61 -382.792)" fill="#001968"/>
  <path id="Path_74281" data-name="Path 74281" d="M92.811,390.5h.767v.316H92.463v-1.773h1.111v.329h-.469c-.355,0-.357,0-.3.383h.77v.342h-.467C92.749,390.093,92.745,390.1,92.811,390.5Z" transform="translate(-86.082 -383.31)" fill="#001968"/>
  <path id="Path_74282" data-name="Path 74282" d="M181.786,390.38v-.331c.21,0,.415,0,.619,0,.145,0,.251-.057.25-.2s-.106-.2-.24-.2a1.285,1.285,0,0,0-.155,0,.523.523,0,0,1-.569-.5.544.544,0,0,1,.552-.57c.18-.007.362,0,.542,0,.131,0,.125.083.123.168s.015.178-.115.178c-.174,0-.349,0-.523,0-.139,0-.25.049-.242.209s.115.18.247.181a1.47,1.47,0,0,1,.344.036.515.515,0,0,1,.374.543.52.52,0,0,1-.47.485C182.286,390.39,182.047,390.38,181.786,390.38Z" transform="translate(-171.849 -382.864)" fill="#001968"/>
  <path id="Path_74283" data-name="Path 74283" d="M93.72,276.184l-.22-.253.8-.709.228.246Z" transform="translate(-87.078 -273.908)" fill="#001968"/>
  <path id="Path_74284" data-name="Path 74284" d="M94.285,335.347l-.808-.716.225-.247.8.707Z" transform="translate(-87.056 -330.775)" fill="#001968"/>
  <path id="Path_74285" data-name="Path 74285" d="M105.331,312.942v.307h-1.01v-.307Z" transform="translate(-97.48 -310.165)" fill="#001968"/>
</svg>
