<svg xmlns="http://www.w3.org/2000/svg" width="100" height="100" viewBox="0 0 100 100">
  <g id="location-check" transform="translate(-47 -47)">
    <path id="Path_73073" data-name="Path 73073" d="M0,0H100V100H0Z" transform="translate(47 47)" fill="#fff" opacity="0"/>
    <g id="Group_65990" data-name="Group 65990" transform="translate(2041.381 -8.194)">
      <path id="Path_75999" data-name="Path 75999" d="M-1980.34,745.369a12.573,12.573,0,0,1,2.352-5.411,21.547,21.547,0,0,1,7.153-5.692,48.819,48.819,0,0,1,14.52-4.656c.135-.024.269-.054.514-.1-.162-.305-.3-.562-.435-.818a74.809,74.809,0,0,1-5.878-12.965,16.675,16.675,0,0,1-.217-9.56,2.091,2.091,0,0,1,1.985-1.6,1.977,1.977,0,0,1,2,1.371,3.423,3.423,0,0,1,.005,1.578,12.262,12.262,0,0,0,.213,6.8c.5,1.46.985,2.934,1.609,4.343a151.382,151.382,0,0,0,12.058,21.321,1.865,1.865,0,0,0,.142.159c.2-.274.38-.536.579-.784a2.074,2.074,0,0,1,2.826-.489,2.039,2.039,0,0,1,.662,2.783c-.753,1.241-1.545,2.465-2.417,3.625a2.087,2.087,0,0,1-3.5-.275c-2.025-3.1-4.013-6.222-6.01-9.339-.379-.591-.71-1.214-1.107-1.793a.774.774,0,0,0-.579-.329c-6.073.878-11.941,2.382-17.171,5.768a13.739,13.739,0,0,0-3.667,3.352,5.941,5.941,0,0,0,.025,7.713,17.558,17.558,0,0,0,6.532,4.992,46.894,46.894,0,0,0,14.866,4.215,68.6,68.6,0,0,0,13.265.443,58.585,58.585,0,0,0,14.551-2.63,4.38,4.38,0,0,1,1.43-.287,2.073,2.073,0,0,1,1.937,1.821,2.025,2.025,0,0,1-1.42,2.242c-2.175.646-4.349,1.331-6.567,1.781a70.4,70.4,0,0,1-30.409-.426,38.007,38.007,0,0,1-13.32-5.614,15.062,15.062,0,0,1-5.861-6.922c-.287-.76-.444-1.57-.661-2.357Z" transform="translate(0 -623.084)" fill="#001968"/>
      <path id="Path_76000" data-name="Path 76000" d="M-762.224,69.234a34.082,34.082,0,0,1,4.434,1.015A18.3,18.3,0,0,1-745.321,85.3c.621,3.694-.36,7.143-1.8,10.451-1.459,3.343-3.149,6.587-4.74,9.872-.119.246-.26.481-.415.766,1.584.338,3.1.622,4.588.986a39.455,39.455,0,0,1,13.4,5.61,14.94,14.94,0,0,1,5.8,6.711c1.585,4.043.612,7.664-2.141,10.833a27.8,27.8,0,0,1-3.648,3.28,2.039,2.039,0,0,1-2.986-.4,2.164,2.164,0,0,1,.5-2.992,26.387,26.387,0,0,0,3.226-3.007c2.122-2.574,2.078-5.314.053-7.975a14.816,14.816,0,0,0-4-3.507,38.259,38.259,0,0,0-12.475-4.743c-1.349-.294-2.721-.482-4.078-.736a.66.66,0,0,0-.8.34,2.1,2.1,0,0,1-3.016.807,2.126,2.126,0,0,1-.56-3.028,117.549,117.549,0,0,0,6.8-12.926,23.109,23.109,0,0,0,2.184-7.015,14.3,14.3,0,0,0-11.556-14.892,14.308,14.308,0,0,0-12,3.043,2.135,2.135,0,0,1-2.832.145,2.069,2.069,0,0,1-.594-2.475,2.913,2.913,0,0,1,.741-.914,18.386,18.386,0,0,1,9.815-4.173,2.082,2.082,0,0,0,.389-.124Z" transform="translate(-1180.544 0)" fill="#001968"/>
      <path id="Path_76001" data-name="Path 76001" d="M-546.959,590.093a8.792,8.792,0,0,1-8.72,8.755,8.77,8.77,0,0,1-8.78-8.761,8.767,8.767,0,0,1,8.753-8.784A8.765,8.765,0,0,1-546.959,590.093Zm-13.279-.043a4.546,4.546,0,0,0,4.538,4.576,4.541,4.541,0,0,0,4.519-4.524,4.548,4.548,0,0,0-4.54-4.576A4.543,4.543,0,0,0-560.239,590.049Z" transform="translate(-1388.594 -502.2)" fill="#001968"/>
    </g>
  </g>
</svg>
