<svg xmlns="http://www.w3.org/2000/svg" width="119" height="119" viewBox="0 0 119 119">
  <g id="location-check" transform="translate(-46.887 -46.887)">
    <path id="Path_73073" data-name="Path 73073" d="M0,0H119V119H0Z" transform="translate(46.887 46.887)" fill="#fff" opacity="0"/>
    <g id="Group_66204" data-name="Group 66204" transform="translate(134.752 55.004) rotate(50)">
      <path id="Path_76220" data-name="Path 76220" d="M2.388,47.626c1.065-3.018,1.374-4.993-.033-8.076S-.7,27.956.31,20.047,4.934,7.716,8.889,3.963s12-4.288,13.538-3.819,3.217,6.235,5.295,9.988,4.356,9.521,4.557,12.135-1.5,9.375-3.709,15.675c-1.935,5.512-3.781,6.844-4.15,7.1a.4.4,0,0,0-.139.172c-.61,1.44-1,4.156-1.2,10.4-.112,3.584-.433,9.142-.7,13.364H.921C1.239,60.658,1.655,49.7,2.388,47.626Z" transform="translate(6.525 44.657)" fill="#ffd9c0"/>
      <path id="Path_76221" data-name="Path 76221" d="M4.64,4.228A76.378,76.378,0,0,1,12.37,0l7.516,3.7a11.271,11.271,0,0,1-2.042,4.165s6.9,2.6,6.879,2.941-1.4,2.131-3.784,4.052l5.4,4.819a15.337,15.337,0,0,1-5.868,4.718l6.034,3.152s-3.643,4.892-6.969,7.215-8.858.533-8.728-2.079a4.5,4.5,0,0,1,1.872-3.647s-5.674,3.368-8.132.571,3.664-7.042,3.664-7.042-4.066,2.494-6.032-.183,2.189-7.524,2.189-7.524-3.172,1.2-4.2-1.288S2.987,5.506,4.64,4.228Z" transform="translate(15.085 44.003)" fill="#f7c5a9"/>
      <path id="Path_76222" data-name="Path 76222" d="M.71,15.294c.434-6.527,1.206-7.406,1.395-8.413a10.677,10.677,0,0,0-.256-4.664C1.345,1.153,4.1,0,4.1,0a5.991,5.991,0,0,1,2.39,4.4c.089,2.815-.531,3.693-.754,10.931-.139,4.5.377,9.338.611,15.011H0C.264,24.511.437,19.4.71,15.294Z" transform="translate(7.456 83.288)" fill="#f7c5a9"/>
      <path id="Path_76223" data-name="Path 76223" d="M1.73,4.471C4.916,2.46,13.256,0,13.256,0S3.079,7.04,2.526,11.023,3.71,20.65,3.71,20.65A5.6,5.6,0,0,0,.734,18.456S-1.456,6.481,1.73,4.471Z" transform="translate(12.625 45.186)" fill="#f7c5a9"/>
      <path id="Path_76224" data-name="Path 76224" d="M7.765,14.009C9,22.741,8.3,24.833,8.3,24.833S4.645,19.579,1.631,14.3.7,0,.7,0,6.336,3.947,7.765,14.009Z" transform="translate(12.809 61.834)" fill="#ffe3d4"/>
      <path id="Path_76225" data-name="Path 76225" d="M.461,25.468c.3-9.785,1.273-11.159,1.273-11.159s1.374-.637,3.82-4.524A42.149,42.149,0,0,0,9.1,3l3.361-3S9.4,9.4,7.59,12.583s-3.135,3.983-3.135,3.983A46.373,46.373,0,0,0,3.292,25.23c-.17,3.381-.439,8.989-.778,15.088H0C.214,35.227.281,31.283.461,25.468Z" transform="translate(26.347 73.316)" fill="#ffe3d4"/>
      <path id="Path_76226" data-name="Path 76226" d="M6.346,6.132a8.109,8.109,0,0,0,5-1.285C11.329,9.664,5.542,9.93,5,10.6s-1.45,4.866-1.45,4.866S1.61,6.489,1.455,6.168,0,0,0,0,3.755,5.775,6.346,6.132Z" transform="translate(9.76 80.532)" fill="#f7c5a9"/>
      <path id="Path_76227" data-name="Path 76227" d="M4.725,2.111a4.39,4.39,0,0,1-3.083.369A2.363,2.363,0,0,1,0,.838L.6,0A3.854,3.854,0,0,0,4.725,2.111Z" transform="translate(20.507 86.321)" fill="#f7c5a9"/>
      <path id="Path_76228" data-name="Path 76228" d="M4.507,57.794a67.346,67.346,0,0,1,.716-8.407,19.635,19.635,0,0,1,.916-2.933A9.434,9.434,0,0,0,5.471,40.9c-1.161-2.453-3.187-6-4.1-8.035S0,30.186,0,26.3.566,15.106.71,12.992A14.2,14.2,0,0,1,1.792,7.369,15.44,15.44,0,0,1,5.006,3.244,33.058,33.058,0,0,0,7.556,0c.107.573.161.557.171.547C7.684.6,5.411,3.36,4.017,4.887a10.506,10.506,0,0,0-2.748,5.448C.934,12.43.7,22.751.767,25.747S.934,30.16,3.1,34.507s4.6,7.255,4.568,10.707S6.8,47.976,6.5,53.606c-.2,3.658-.191,9.929-.326,16.329H4.056C4.329,64.169,4.473,59.531,4.507,57.794Z" transform="translate(3.421 43.7)" fill="#e8ae91"/>
      <path id="Path_76229" data-name="Path 76229" d="M0,0,0,0Z" transform="translate(11.148 46.738)" fill="#e8ae91"/>
      <path id="Path_76230" data-name="Path 76230" d="M4.234,4.977c2.446.724,5.043-.858,5.043-.858-2.58,2.337-5.948,2.3-6.853,2.4S1.034,8.224,1.034,8.224a18.761,18.761,0,0,0,.251-2.53A34.149,34.149,0,0,0,0,0S1.788,4.253,4.234,4.977Z" transform="translate(9.32 84.143)" fill="#e8ae91"/>
      <path id="Path_76231" data-name="Path 76231" d="M12.394,2.663c9.7,1.117,11.751.492,11.751.492l-.313,6.657a116.74,116.74,0,0,1-11.93,0C4.262,9.5.107,7.419.018,7.186S.2.3.267.027,2.7,1.546,12.394,2.663Z" transform="translate(7.018 91.776)" fill="#f2f2f2"/>
      <path id="Path_76232" data-name="Path 76232" d="M.628,0A115.026,115.026,0,0,0,26.1,2.5L25.5,16.872H0Z" transform="translate(5.596 96.762)" fill="#202023"/>
      <path id="Path_76233" data-name="Path 76233" d="M1.344,5.177C1.344.988,0,0,0,0L8.475.192c.2.331-.138,7.449-.536,14.37H1.21A62.981,62.981,0,0,0,1.344,5.177Z" transform="translate(23.224 99.073)" fill="#36363f"/>
      <path id="Path_76234" data-name="Path 76234" d="M.568,0C.752.034,2.321.467,3.537.7s3.7.619,3.756.627A56.17,56.17,0,0,0,6.93,9.254a50.313,50.313,0,0,0,.6,7.741H0C.249,9.172.44-.023.568,0Z" transform="translate(5.53 96.639)"/>
      <path id="Path_76235" data-name="Path 76235" d="M1.149,3C1.149-1.559,0,.434,0,.434L3.44.546S3.629-.62,3.495,2.91c-.077,2.022-.333,7.57-.537,11.939H.323C.712,10.729,1.149,5.531,1.149,3Z" transform="translate(27.031 98.786)" fill="#4e4e54"/>
      <path id="Path_76236" data-name="Path 76236" d="M2.646,0s3.535.369,9.275.462l-.09,4.166s-4.092.037-8.849-.3S-.037-.148,2.646,0Z" transform="translate(18.216 94.595)" fill="#fff"/>
      <path id="Path_76237" data-name="Path 76237" d="M.3,0C.386.024,5.893,1.6,5.893,1.6a2.358,2.358,0,0,0-1.3,2.144,3.044,3.044,0,0,0,1.3,2.429C2.774,5.748.037,5.069.037,5.069S-.147-.121.3,0Z" transform="translate(6.981 91.801)" fill="#e2e2e2"/>
      <path id="Path_76238" data-name="Path 76238" d="M.34.006C.5.051,2.273.6,2.273.6a2.637,2.637,0,0,0-1.2,2.522A2.95,2.95,0,0,0,2.086,5.569C1.246,5.422.037,5.1.037,5.1S0,3.168,0,1.669.181-.04.34.006Z" transform="translate(6.981 91.77)" fill="#d1d1d1"/>
      <g id="Group_66196" data-name="Group 66196" transform="translate(0 0)">
        <path id="Path_76239" data-name="Path 76239" d="M29.9,0S14.168,6.476,11.687,6.867,0,6.444,0,6.444,12.943,1.48,13.873,1.207,29.9,0,29.9,0Z" transform="translate(3.684 25.304)" fill="#2c5600"/>
        <g id="Group_66195" data-name="Group 66195">
          <path id="Path_76240" data-name="Path 76240" d="M22.649,40.281S18.209,46.2,11.884,43.37L0,4.81,16.854,0Z" transform="translate(12.289 34.364)" fill="#2b2b2b"/>
          <path id="Path_76241" data-name="Path 76241" d="M11.8.5A15.331,15.331,0,0,1,30.589,11.285a16.812,16.812,0,0,1-3,14.811c-5.063,6.839-17.909,4.8-18.483,4.615S3.09,28.3.553,19.949C-1.346,13.694,1.465,3.116,11.8.5Z" transform="translate(0.542)" fill="#2b2b2b"/>
          <path id="Path_76242" data-name="Path 76242" d="M16.1,6.891C29.9,3.108,31.091,0,31.091,0A22.292,22.292,0,0,1,32.6,5.447c-.16.414-5.033,5-15.01,7.367-9.94,2.359-15.355,2.438-16.427,1.009C.589,13.056,0,8.516,0,8.516S1.992,10.76,16.1,6.891Z" transform="translate(0 8.716)" fill="#9295a0"/>
          <path id="Path_76243" data-name="Path 76243" d="M11.83.452A16.752,16.752,0,0,1,22.3,1.368C13.951-.647,3.838,4.455,6.289,11.4c1.888,5.353,12.236,2.1,17.607-.291S28.858,7.1,28.858,7.1l1.16,2.279s-2.495,2.606-14.424,6.181S.114,17.5.114,17.5s-.494-1.772.57-6.174A15.907,15.907,0,0,1,11.83.452Z" transform="translate(0.509 0.048)"/>
          <path id="Path_76244" data-name="Path 76244" d="M15.9,5.749C21.809,6.1,26.707,2,26.707,2,21.8,8.058,12.139,9.961,7.287,7.9S0,.405,0,.405C2.734,1,9.052,0,9.052,0A7.245,7.245,0,0,0,15.9,5.749Z" transform="translate(2.363 22.811)"/>
          <path id="Path_76245" data-name="Path 76245" d="M.047,0,0,.01A.449.449,0,0,1,.047,0Z" transform="translate(22.239 39.236)"/>
          <path id="Path_76246" data-name="Path 76246" d="M9.248,15.747c3.465,15.084,5.565,18.672,13.4,19.725,0,0-5.148,6.3-10.764,3.089L0,0S2.926,1.716,9.949.073C9.5.2,6,1.61,9.248,15.747Z" transform="translate(12.289 39.174)"/>
          <path id="Path_76247" data-name="Path 76247" d="M15.919,7.028C27.6,3.842,31.091,0,31.091,0,31.774.828,32.6,5.447,32.6,5.447a15.664,15.664,0,0,0-1.66-4.391S28.253,4.2,16.035,7.392C2.122,11.024.069,9.018.069,9.018L0,8.516C.224,8.77,4.033,10.271,15.919,7.028Z" transform="translate(0 8.716)" fill="#dce0ea"/>
          <path id="Path_76248" data-name="Path 76248" d="M6.93,2.729c.023,1.3,1.39,2.825,4.045,1.672A34.43,34.43,0,0,1,3.339,7.719S2.081,3.5,0,2.8C0,2.8,4.722,1.117,7.753,0A6.2,6.2,0,0,0,6.93,2.729Z" transform="translate(17.421 12.939)" fill="#dce0ea"/>
          <path id="Path_76249" data-name="Path 76249" d="M.746,0S1.57,4.106,2.59,4.573a7.346,7.346,0,0,0,2.951.264c-.669.117-4.229.489-4.229.489A9.321,9.321,0,0,1,.02.151Z" transform="translate(5.875 17.974)" fill="#dce0ea"/>
          <path id="Path_76250" data-name="Path 76250" d="M1.951.507A21.644,21.644,0,0,0,5.826.39,15.426,15.426,0,0,1,2.045.823C1.008.639.613.765.56.9s.893,3.989,3.45,4.76L2.294,5.482A1.494,1.494,0,0,1,.872,4.334C.555,3.165,0,0,0,0S.056.364,1.951.507Z" transform="translate(0.069 17.734)" fill="#7a7f8c"/>
          <path id="Path_76251" data-name="Path 76251" d="M1.5.1c3.073-.84,4.073,3.725,1.095,4.385S-.865.749,1.5.1Z" transform="translate(24.764 47.794)" fill="#656666"/>
          <path id="Path_76252" data-name="Path 76252" d="M.392.027A.591.591,0,1,1,.678,1.173C-.1,1.345-.226.2.392.027Z" transform="translate(25.12 44.447)" fill="#cc1717"/>
          <path id="Path_76253" data-name="Path 76253" d="M1.5.1A2.078,2.078,0,0,1,4.216,1.913a2.142,2.142,0,0,1-1.752,2.6c1.805-1.3.5-4.226-.868-4.034S0,1.486,0,1.486C.129.689,1.006.266,1.5.1Z" transform="translate(24.895 47.77)" fill="#757575"/>
        </g>
        <path id="Path_76254" data-name="Path 76254" d="M3.042.008C5.133.177,6.854,2.3,7.7,3.4,7.7,3.4,2.255,6.59.609,4.4A2.734,2.734,0,0,1,3.042.008Z" transform="translate(18.189 3.094)" fill="#3a3a3a"/>
        <path id="Path_76255" data-name="Path 76255" d="M.389.255C1.9-.479,4.229.473,3.511,1.787,2.154,4.27-1.119.989.389.255Z" transform="translate(14.007 6.483)" fill="#3a3a3a"/>
        <path id="Path_76256" data-name="Path 76256" d="M11.461,1.87s5.275-2.019,5.5-1.861c.685.481,3.9,15.571,3.928,16.335s-15.925,6.115-16.2,5.985S-.426,6.247.03,5.848,11.461,1.87,11.461,1.87Z" transform="translate(16.622 25.295)" fill="#db3529"/>
        <path id="Path_76257" data-name="Path 76257" d="M17.623,16.481S4.872,17.054,4.7,16.71,0,.605,0,.605L12.969,0C13.3.469,17.623,16.481,17.623,16.481Z" transform="translate(3.684 31.143)" fill="#db3529"/>
        <path id="Path_76258" data-name="Path 76258" d="M20.362,0c1.044.042-1.171,1.479-1.171,1.479L8.686,5.154l-7.643.357L0,4.121s2.668.89,8.785.124A32.014,32.014,0,0,0,20.362,0Z" transform="translate(7.966 25.989)" fill="#2c5600"/>
        <path id="Path_76259" data-name="Path 76259" d="M18.305,5.714c.88,3.837,1.014,10.529-4.141,12.012S2.045,13.21,0,5.739C0,5.739,16.127.124,16.642,0A39.086,39.086,0,0,1,18.305,5.714Z" transform="translate(16.941 25.304)" fill="#b3281f"/>
        <path id="Path_76260" data-name="Path 76260" d="M10.752,12.565C7.81,14.89,1.761,9.2,0,3.9,0,3.9,10.947.169,11.373,0,11.373,0,13.693,10.24,10.752,12.565Z" transform="translate(22.21 25.304)" fill="#db3529"/>
        <path id="Path_76261" data-name="Path 76261" d="M8.722,9.78C8.742,5.988,5.3.162,5.3.162L8.768,0l4.654,16.481s-4.821.239-7.975.289S.665,16.857.5,16.71L0,15.1a7.8,7.8,0,0,0,3.813.666C6.387,15.715,8.7,13.573,8.722,9.78Z" transform="translate(7.884 31.143)" fill="#b4271e"/>
      </g>
      <g id="Group_66197" data-name="Group 66197" transform="translate(16.352 46.966)" opacity="0.13">
        <path id="Path_76262" data-name="Path 76262" d="M.44,10.57c0-.039,0-.078.008-.116A5.355,5.355,0,0,1,1.615,7.967l.009-.012.077-.1.04-.054.044-.055q.086-.11.176-.221l.063-.078A30.14,30.14,0,0,1,7.843,2.322c.085-.059.167-.115.25-.171l.02-.014c2.648-1.871,4.6-2.4,5.643-2.024l.021.009a4.879,4.879,0,0,1,1.729,1.211h0l.074.076c.074.077.126.134.154.165a3.371,3.371,0,0,1,.553.722c.037.06.072.12.1.179-.009-.021-.017-.042-.026-.062A2.275,2.275,0,0,1,16.5,4.776a4.147,4.147,0,0,1-.664,1.046l-.082.1a8.257,8.257,0,0,1-1.508,1.5l-.14.121-.007.006a47.427,47.427,0,0,1-7.838,5.317l-.122.082A6.522,6.522,0,0,1,3.55,13.955s0,.073,0,.073h0c-.8.2-1.548.741-2.609-.426a2.737,2.737,0,0,1-.9-2.464A1.861,1.861,0,0,1,.44,10.57Z"/>
        <path id="Path_76263" data-name="Path 76263" d="M.2,11.472H.32c0-.006.06-.012.061-.018s.03,0,.03-.007C.578,10.057,1.9,8.781,3.866,7.238,4.986,6.329,6.4,5.283,8.156,3.986c.152-.118.309-.238.463-.36C12.564.517,13.893.078,15.024,0a4.1,4.1,0,0,1,.415.013h0C17-.187,17.9,1.478,18.109,1.869a3.313,3.313,0,0,1,.319.491.135.135,0,0,1-.007-.022,2.4,2.4,0,0,1-.031,2.476,4.615,4.615,0,0,1-.734.848,12.186,12.186,0,0,1-1.513,1.273q-.35.275-.745.576c.141-.062.281-.116.42-.162l.012-.005a2.113,2.113,0,0,1,.47-.118,2.045,2.045,0,0,1,.642-.015l.019,0a3.708,3.708,0,0,1,1.17.312,3.378,3.378,0,0,1,1.381,1.052l.008.01q.08.1.157.214c.009.013.019.025.028.038l.013.022.017.025,0,0c.02.031.039.063.059.095-.013-.029-.021-.045-.021-.045a4.2,4.2,0,0,1,.51,1.073V10s.006.019.015.053a3.63,3.63,0,0,1,.044,1.906,3,3,0,0,1-.4.962l0,.005-.042.063q-.04.06-.081.114l-.025.032c-.02.025-.039.048-.059.071l-.024.028h0a15.2,15.2,0,0,1-2.085,1.831,2.212,2.212,0,0,1,1.819.437l.012.009a3.232,3.232,0,0,1,.75.808c-.012-.015-.026-.029-.039-.044a4.108,4.108,0,0,1,.361.6l-.01-.025c.03.061.058.121.083.181a3.317,3.317,0,0,1,.2,2.143l-.007.031,0,.012c-.017.065-.036.129-.057.193.028-.043.041-.065.041-.065s-.019.037-.055.1a3.086,3.086,0,0,1-.431.815,6.517,6.517,0,0,1-.557.644c-.08.09-.168.183-.259.276a5.958,5.958,0,0,1-.709.65l-.145.11a20.04,20.04,0,0,1-2.119,1.472,19.147,19.147,0,0,1-1.824,1c-.178.085-.355.159-.53.226l-.02.009a4.744,4.744,0,0,1-.567.192,6.249,6.249,0,0,1-1.38.256c-.025,0-.049.024-.073.024h-.006c-.193,0-.379.013-.557,0-.044,0-.086,0-.126,0h0a.482.482,0,0,0-.487-.092s0-.013,0-.014a1.756,1.756,0,0,1-.158.077,1.721,1.721,0,0,1-1.809-.963,2.536,2.536,0,0,1-.128-2.256c.01,0-.042-.074.366-.183h0s-.1,0-.1-.005a4.846,4.846,0,0,1,.691-1.426c-.021.01-.067.019-.087.029-.069.033-.149.064-.216.094l-.026.009H9.444a7.656,7.656,0,0,1-1.216.456,5.359,5.359,0,0,1-2.52.211l-.022,0h0a1.542,1.542,0,0,1-2.206-.578A2.485,2.485,0,0,1,2.8,18.2a.867.867,0,0,1,.129-.2h0s-.571-.927,1.19-2.652l0,0,.07-.067.016-.015.029-.027c.184-.173.407-.366.659-.574a5.6,5.6,0,0,1-1.083.21H3.8l-.049,0a2.872,2.872,0,0,1-.81-.031h0a.908.908,0,0,1-.1.054,2.336,2.336,0,0,1-2.3-.935C-.287,12.711.029,11.7.225,11.542.238,11.532.2,11.507.2,11.472Z" transform="translate(2.612 6.459)"/>
        <path id="Path_76264" data-name="Path 76264" d="M0,0A1.517,1.517,0,0,1,.173.31,3.228,3.228,0,0,0,0,0Z" transform="translate(22.947 23.001)"/>
      </g>
      <g id="Group_66198" data-name="Group 66198" transform="translate(3.397 38.624)">
        <path id="Path_76265" data-name="Path 76265" d="M0,1.224C.159.492.288,0,.288,0S.177.5,0,1.224Z" transform="translate(7.835 15.789)" fill="#f7c5a9"/>
        <path id="Path_76266" data-name="Path 76266" d="M0,0H0Z" transform="translate(9.56 27.932)" fill="#f7c5a9"/>
        <path id="Path_76267" data-name="Path 76267" d="M1.759,0C1.345,1.907.729,5.442,1.678,6.133c1.351.984,1.714,3.134,1.806,4.786C2.675,6.536.634,5.706,0,5.553A4.147,4.147,0,0,0,.269,5.03,39.215,39.215,0,0,0,1.759,0Z" transform="translate(6.076 17.013)" fill="#f7c5a9"/>
        <path id="Path_76268" data-name="Path 76268" d="M0,4.693C.57,2.518,1.224,0,1.224,0,.724,2.165.315,3.665,0,4.693Z" transform="translate(6.898 15.789)" fill="#e8ae91"/>
        <path id="Path_76269" data-name="Path 76269" d="M.774,0C.559.821.356,1.593.2,2.162.127,2.133.059,2.113,0,2.1l0,0A11.2,11.2,0,0,0,.774,0Z" transform="translate(6.125 20.482)" fill="#e8ae91"/>
        <path id="Path_76270" data-name="Path 76270" d="M5.663,8.96A94.481,94.481,0,0,0,11.338.72s.71-1.43,2.183-.26,2.725,3.954.651,9.623-3.789,7.2-3.789,7.2-.225,3.593-.369,6.846c0,0,.216,3.5,1.052,2.591.63.364,2.1-.853,1.983,3.712-.143,5.407-4.329,18.161-6.761,20.88,0-.034,0-.068,0-.1a1.746,1.746,0,0,0-.017-.18c.309-1.5-.49-3.1-1.387-4.511a66.909,66.909,0,0,1-4.321-8.94C-.134,35.877.04,32.357,0,30.319s.579-9.66.863-13.3S3.708,11.206,5.663,8.96Z" transform="translate(0.063 0.137)" fill="#ffd9c0"/>
        <path id="Path_76271" data-name="Path 76271" d="M.863,11.3A9.027,9.027,0,0,1,2.146,6.754C3.553,4.236,5.661,3.032,7.522.039L7.546,0s-.151.323.43.717A1.186,1.186,0,0,0,9.063.89a21.766,21.766,0,0,1-2.54,3.127A10.046,10.046,0,0,0,3.416,9.108C2.4,12.1,2.978,16.948,3.128,22.572s2.678,13.408,5.786,17.6c.374.5-.423-.254-.1.262a17.356,17.356,0,0,1-2.461,4.338c0-.021,0-.042,0-.063a1.754,1.754,0,0,0-.036-.323A6.059,6.059,0,0,0,5.4,40.735c-1.575-2.825-2.6-5.092-3.807-7.458A12.7,12.7,0,0,1,.1,27.539a36.767,36.767,0,0,1,.009-5.458C.224,19.976.863,11.3.863,11.3Z" transform="translate(0 6.681)" fill="#f7c5a9"/>
        <path id="Path_76272" data-name="Path 76272" d="M4.357,10.905C6.63,6.167,5.3,2.663,5.3,2.663L6.852,0S8.924,2.641,7.5,7.023s-2.918,7.7-4.412,9.169L2.757,22.3a4.035,4.035,0,0,0,1.314,2.339c.6.338,2.268.195,2.145,4.825-.044.286-.093.555-.142.8-.608,3.072-1.472,7.2-1.74,7.25-.428.087-5.987-10.429-3.845-21.56C.489,15.959,2.084,15.644,4.357,10.905Z" transform="translate(7.36 1.224)" fill="#ffe3d4"/>
        <path id="Path_76273" data-name="Path 76273" d="M4.267.137c.756-.559,2.419.752,2.419,1.087s.079.1-1.505,2.583S2.249,7.428,1.459,7.59-.089,7.114.008,6.727A31.78,31.78,0,0,1,4.267.137Z" transform="translate(7.525)" fill="#fff3e9"/>
        <path id="Path_76274" data-name="Path 76274" d="M.173,0a1.278,1.278,0,0,1,.81,1.313A1.641,1.641,0,0,1,.214.938.618.618,0,0,1,.007.394Z" transform="translate(7.539 6.287)" fill="#fffefd"/>
      </g>
      <g id="Group_66203" data-name="Group 66203" transform="translate(18.439 42.381)">
        <g id="Group_66199" data-name="Group 66199" transform="translate(0 0)">
          <path id="Path_76275" data-name="Path 76275" d="M9.119,1.806C13.385-.456,15.062-.01,15.571.131a5.684,5.684,0,0,1,2.535,2.55,2.871,2.871,0,0,1,.077,2.747C17.175,7.749,9.22,11.87,5.059,13.3S-.392,11.867.1,9.586,4.645,4.179,9.119,1.806Z" transform="translate(0.534 0.038)" fill="#ffd9c0"/>
          <path id="Path_76276" data-name="Path 76276" d="M2.7,1.727C5.38.182,7.157-.179,7.947.073A2.968,2.968,0,0,1,9.419,3.243C8.988,4.582,5.082,6.527,3.981,6.934S1.912,8.017.762,6.394.105,3.7.105,3.7.382,3.058,2.7,1.727Z" transform="translate(0 6.602)" fill="#fff3e9"/>
          <path id="Path_76277" data-name="Path 76277" d="M1.313,1.371A2.308,2.308,0,0,1,1.549,3.06,2.782,2.782,0,0,1,.046,0,3.043,3.043,0,0,1,1.313,1.371Z" transform="translate(7.902 6.676)" fill="#fffefd"/>
          <path id="Path_76278" data-name="Path 76278" d="M14.692,2.144A2.842,2.842,0,0,0,14.715,0a3.491,3.491,0,0,1,.747,2.579c-.227,1.447-1.807,2.651-3.279,3.634S8.894,7.892,7.015,8.872,2.9,10.984,2.9,10.984a8.774,8.774,0,0,1-2.9.667s2.052-.48,6.7-3.274S14.266,3.636,14.692,2.144Z" transform="translate(3.521 2.066)" fill="#f7c5a9"/>
          <path id="Path_76279" data-name="Path 76279" d="M9.295,1.68C12.388.014,14.553-.3,15.631.242a6.321,6.321,0,0,1,1.962,1.866,4.8,4.8,0,0,0-3.352-.76c-1.983.279-6.09,2.266-9.141,4.309C1.774,7.883,1.4,8.449,1.4,8.449L2.984,7.8A20.027,20.027,0,0,0,0,9.693S.047,8.628,1.7,6.938A33.731,33.731,0,0,1,9.295,1.68Z" transform="translate(0.673)" fill="#ffe3d4"/>
          <path id="Path_76280" data-name="Path 76280" d="M12.6,4.572C14.081,3.533,15.881,1.8,15.289,0a2.646,2.646,0,0,1-.637,3.186,10.561,10.561,0,0,1-3.424,2.537C10.566,6.131,2.9,9.992,2.9,9.992a7.444,7.444,0,0,1-2.9.667A19.618,19.618,0,0,0,3.193,9.538C4.746,8.815,11.116,5.611,12.6,4.572Z" transform="translate(3.521 3.059)" fill="#e8ae91"/>
        </g>
        <g id="Group_66200" data-name="Group 66200" transform="translate(1.934 7.546)">
          <path id="Path_76281" data-name="Path 76281" d="M1.963,8.031C3.958,6.4,7.233,4.65,12.763,1.508s6.739-.54,7.285.339a3.447,3.447,0,0,1,.414,3.545c-.741,1.286-4.054,2.8-9,5.9S2.189,15.835.574,13.042C-.528,11.136-.032,9.658,1.963,8.031Z" transform="translate(0.416 0.006)" fill="#ffd9c0"/>
          <path id="Path_76282" data-name="Path 76282" d="M.4,3.146C.636,3,5.841.234,6.15.129a1.919,1.919,0,0,1,2.444,1.06,2.257,2.257,0,0,1-.365,2.95C7.2,4.856,2.811,7.05,2.666,7.08A2.442,2.442,0,0,1,.376,5.78C-.361,4.329.173,3.288.4,3.146Z" transform="translate(0 7.38)" fill="#fff3e9"/>
          <path id="Path_76283" data-name="Path 76283" d="M1.408,1.269a2.7,2.7,0,0,1,.26,1.656A2.286,2.286,0,0,1,.288,1.758,2.151,2.151,0,0,1,.105,0,2.376,2.376,0,0,1,1.408,1.269Z" transform="translate(7.27 7.457)" fill="#fffefd"/>
          <path id="Path_76284" data-name="Path 76284" d="M18.037,2.109A2.485,2.485,0,0,0,17.932,0,2.871,2.871,0,0,1,18.1,3.124a9.171,9.171,0,0,1-2.487,2.006c-.61.385-3.745,2.1-6.519,3.617s-4.355,2.571-4.355,2.571C1.737,12.8,0,12.14,0,12.14c1.472-.223,5.577-2.4,10.087-4.937S17.523,3.077,18.037,2.109Z" transform="translate(2.773 2.275)" fill="#f7c5a9"/>
          <path id="Path_76285" data-name="Path 76285" d="M9.835,3.094C15.063-.085,16.3-.1,17.65.048c1.929.216,2.662,2.476,2.662,2.476a4.93,4.93,0,0,0-2.119-.713c-1.459-.01-3.179.261-7.613,2.618C5.394,7.187,1.415,8.954,1.452,9.165s2.027-.556,2.027-.556L0,10.462C.584,7.979,4.606,6.273,9.835,3.094Z" transform="translate(0.516)" fill="#ffe3d4"/>
          <path id="Path_76286" data-name="Path 76286" d="M3.327,10.771C5.26,9.836,6.141,9.2,8.913,7.73s7.769-4.136,8.8-5.214A2.68,2.68,0,0,0,18.289,0a2.593,2.593,0,0,1-.407,2.718,11.866,11.866,0,0,1-2.768,2S13,5.832,9.991,7.479s-5.248,3.129-5.248,3.129a8.6,8.6,0,0,1-3.823.964A5.074,5.074,0,0,1,0,11.43,5.736,5.736,0,0,0,3.327,10.771Z" transform="translate(2.773 2.985)" fill="#e8ae91"/>
        </g>
        <g id="Group_66201" data-name="Group 66201" transform="translate(3.973 15.515)">
          <path id="Path_76287" data-name="Path 76287" d="M1.545,7.205C3.448,5.65,14.079.371,15.277.067a3.852,3.852,0,0,1,3.972,2.117,4.081,4.081,0,0,1-.4,4.551c-.966,1.108-8.127,5.083-11.525,6.32S1.631,13.715.6,11.879C-.285,10.313-.359,8.76,1.545,7.205Z" transform="translate(0.302 0.002)" fill="#ffd9c0"/>
          <path id="Path_76288" data-name="Path 76288" d="M2.614,1.292C5.15.041,6.787-.175,7.492.113A2.806,2.806,0,0,1,8.64,3.155C8.168,4.369,4.5,5.91,3.471,6.213s-1.947.865-2.9-.719A2.693,2.693,0,0,1,.138,2.952S.429,2.371,2.614,1.292Z" transform="translate(0 7.085)" fill="#fff3e9"/>
          <path id="Path_76289" data-name="Path 76289" d="M1.011,1.193A2.6,2.6,0,0,1,1.218,2.67,2.291,2.291,0,0,1,.281,1.61,1.824,1.824,0,0,1,.106,0,2.346,2.346,0,0,1,1.011,1.193Z" transform="translate(7.51 7.263)" fill="#fffefd"/>
          <path id="Path_76290" data-name="Path 76290" d="M2.21,10.671c1.61-.559,10.636-4.86,12.937-6.852S16.738,0,16.738,0A3.892,3.892,0,0,1,16.1,4.62a30.922,30.922,0,0,1-4.483,2.83,54.658,54.658,0,0,1-7.49,3.523A7.84,7.84,0,0,1,0,11.2,6.924,6.924,0,0,0,2.21,10.671Z" transform="translate(2.87 2.295)" fill="#f7c5a9"/>
          <path id="Path_76291" data-name="Path 76291" d="M0,.1C.163.036.258,0,.258,0Z" transform="translate(4.356 7.529)" fill="#ffe3d4"/>
          <path id="Path_76292" data-name="Path 76292" d="M1.677,7.14C3.8,5.515,11.041,1.917,12.3,1.3S15.3-.27,16.539.071a4,4,0,0,1,2.785,2.168,3.848,3.848,0,0,0-3.485-.874c-1.893.6-12.666,5.289-13.893,6.381s-.859,1.071-.859,1.071L4.1,7.631A16.832,16.832,0,0,0,.05,9.838S-.443,8.765,1.677,7.14Z" transform="translate(0.254)" fill="#ffe3d4"/>
          <path id="Path_76293" data-name="Path 76293" d="M6.144,8.665A64.043,64.043,0,0,0,15.9,3.142,4.234,4.234,0,0,0,17.071,0a3.961,3.961,0,0,1-1.045,3.405,40.57,40.57,0,0,1-5.781,3.517A42.6,42.6,0,0,1,4.052,9.758,6.651,6.651,0,0,1,0,9.966C1.212,10.3,3.066,10.022,6.144,8.665Z" transform="translate(2.945 3.51)" fill="#e8ae91"/>
        </g>
        <g id="Group_66202" data-name="Group 66202" transform="translate(9.725 24.117)">
          <path id="Path_76294" data-name="Path 76294" d="M4.269,2.277C8.393-.089,11.277-.782,12.634,1.014a3.711,3.711,0,0,1,0,4.918A18.442,18.442,0,0,1,6.056,9.659c-2.75.916-4.974.079-5.554-.769C-.7,7.131.145,4.644,4.269,2.277Z" transform="translate(0.279 0.018)" fill="#ffd9c0"/>
          <path id="Path_76295" data-name="Path 76295" d="M.274,2.207A47.887,47.887,0,0,1,4.611.117a1.732,1.732,0,0,1,2.269.927c.567.994.47,1.894-.854,2.895A20.257,20.257,0,0,1,2.044,5.931a1.86,1.86,0,0,1-1.82-1.27A2.984,2.984,0,0,1,.274,2.207Z" transform="translate(0 3.957)" fill="#fff3e9"/>
          <path id="Path_76296" data-name="Path 76296" d="M1.129,1.112A1.621,1.621,0,0,1,1.32,2.477,2.208,2.208,0,0,1,.337,1.463,2.986,2.986,0,0,1,0,0,2.17,2.17,0,0,1,1.129,1.112Z" transform="translate(5.826 4.027)" fill="#fffefd"/>
          <path id="Path_76297" data-name="Path 76297" d="M.157.4A3.481,3.481,0,0,0,0,0,1.7,1.7,0,0,1,.157.4Z" transform="translate(13.468 1.953)" fill="#f7c5a9"/>
          <path id="Path_76298" data-name="Path 76298" d="M9.535,3.755C11.647,2.142,11.588.677,11.4,0a4.055,4.055,0,0,1-.024,2.53A6.3,6.3,0,0,1,9.19,4.857a21.742,21.742,0,0,1-5.7,2.652A7.475,7.475,0,0,1,0,7.47C1.285,7.639,6.638,5.968,9.535,3.755Z" transform="translate(2.225 2.348)" fill="#f7c5a9"/>
          <path id="Path_76299" data-name="Path 76299" d="M3.785,2.379A16,16,0,0,1,10.061.018a2.823,2.823,0,0,1,2.7,1.68C12.166.7,9.249.905,6.42,2.109A26.746,26.746,0,0,0,1.2,5.014c.063.027,2.337-.76,2.337-.76L0,6A10.468,10.468,0,0,1,3.785,2.379Z" transform="translate(0.584)" fill="#ffe3d4"/>
          <path id="Path_76300" data-name="Path 76300" d="M7.931,2.545A11.675,11.675,0,0,0,11.336,0a8.9,8.9,0,0,1-2.49,2.413A22.451,22.451,0,0,1,3.181,4.9,6.234,6.234,0,0,1,0,4.793C2.243,5.151,5.3,4.042,7.931,2.545Z" transform="translate(2.225 5.025)" fill="#e8ae91"/>
        </g>
      </g>
    </g>
  </g>
</svg>
