<svg id="alphabet" xmlns="http://www.w3.org/2000/svg" width="100" height="100" viewBox="0 0 100 100">
  <path id="Path_73073" data-name="Path 73073" d="M0,0H100V100H0Z" fill="rgba(255,255,255,0)"/>
  <g id="Group_63228" data-name="Group 63228">
    <g id="Group_66242" data-name="Group 66242" style="isolation: isolate">
      <path id="Path_76428" data-name="Path 76428" d="M54.1,66H47.4l-1.9-6.1H35.8L33.9,66H27.2l9.9-27.3h7.3Zm-10-10.8L41.2,46a13.749,13.749,0,0,1-.5-2.5h-.2a10.267,10.267,0,0,1-.5,2.4l-3,9.3Z"/>
    </g>
    <g id="Group_66243" data-name="Group 66243" style="isolation: isolate">
      <path id="Path_76429" data-name="Path 76429" d="M73.2,66H68.6l-1.3-4.2H60.6L59.3,66H54.7l6.9-18.9h5Zm-7-7.5-2-6.4a7.435,7.435,0,0,1-.3-1.7h-.1a7.58,7.58,0,0,1-.3,1.6l-2.1,6.4h4.8Z"/>
    </g>
  </g>
</svg>
