<svg xmlns="http://www.w3.org/2000/svg" width="212.496" height="171.962" viewBox="0 0 212.496 171.962">
  <g id="request_id" transform="translate(-555.545 -371.809)">
    <g id="Group_66182" data-name="Group 66182" transform="translate(558.912 361.364)">
      <g id="Group_66174" data-name="Group 66174" transform="translate(93.655 10.446)">
        <g id="Group_66173" data-name="Group 66173">
          <path id="Path_76113" data-name="Path 76113" d="M2389.534,655.459a43.344,43.344,0,0,1-27.131-9.584,45.382,45.382,0,0,1-11.394-13.7,48.5,48.5,0,0,1-5.556-17.351,50.664,50.664,0,0,1,1.3-19.122c1.622-6.207,5.4-12.324,11.226-18.179a79.681,79.681,0,0,1,19.837-14.182c15.673-8.071,32.618-11.2,44.219-8.169a22.281,22.281,0,0,1,13.339,9.085c2.69,3.988,4.32,9.23,4.845,15.579,1.056,12.776-2.5,28.329-5.268,38.917a50.674,50.674,0,0,1-8.224,17.313,48.51,48.51,0,0,1-13.335,12.414,45.379,45.379,0,0,1-16.642,6.376A43.463,43.463,0,0,1,2389.534,655.459ZM2412.321,554.9c-10.226,0-22.507,3.241-34.107,9.214-16.14,8.311-27.587,20.2-30.62,31.807-6.626,25.354,7.387,51.053,31.24,57.288a42.5,42.5,0,0,0,10.756,1.388,43.828,43.828,0,0,0,23.341-6.854,48.76,48.76,0,0,0,21.179-29.209c2.751-10.526,6.288-25.983,5.243-38.626-1.1-13.281-6.834-21.1-17.537-23.895A37.734,37.734,0,0,0,2412.321,554.9Z" transform="translate(-2345.072 -554.03)" fill="#6883e6"/>
        </g>
      </g>
      <g id="Group_66177" data-name="Group 66177" transform="translate(147.035 54.968)">
        <g id="Group_66176" data-name="Group 66176">
          <path id="Path_76115" data-name="Path 76115" d="M3333.24,1382.456a3.623,3.623,0,1,1,3.623-3.623A3.628,3.628,0,0,1,3333.24,1382.456Zm0-6.377a2.754,2.754,0,1,0,2.753,2.754A2.757,2.757,0,0,0,3333.24,1376.079Z" transform="translate(-3329.617 -1375.209)" fill="#6883e6"/>
        </g>
      </g>
      <g id="Group_66179" data-name="Group 66179" transform="translate(10.873 83.786)">
        <g id="Group_66178" data-name="Group 66178">
          <path id="Path_76116" data-name="Path 76116" d="M825.219,1914.374a.805.805,0,0,1-.169-.018l-6.225-1.34a.787.787,0,0,1-.418-1.3l4.273-4.72a.787.787,0,0,1,1.332.287l1.952,6.061a.788.788,0,0,1-.745,1.029Zm-6.071-2.178,5.944,1.28-1.864-5.787Zm4.177-4.614h0Z" transform="translate(-818.203 -1906.738)" fill="#6883e6"/>
        </g>
      </g>
      <g id="Group_66181" data-name="Group 66181" transform="translate(188.105 143.779)">
        <g id="Group_66180" data-name="Group 66180">
          <path id="Path_76117" data-name="Path 76117" d="M4091.631,3021.018a1.508,1.508,0,0,1-.757-.2h0l-2.979-1.72a1.52,1.52,0,0,1-.556-2.075l1.72-2.979a1.521,1.521,0,0,1,2.075-.556l2.979,1.72a1.518,1.518,0,0,1,.556,2.075l-1.72,2.979A1.52,1.52,0,0,1,4091.631,3021.018Zm-.322-.957a.65.65,0,0,0,.887-.237l1.72-2.979a.649.649,0,0,0-.238-.887l-2.979-1.72a.65.65,0,0,0-.887.238l-1.72,2.979a.649.649,0,0,0,.238.887Z" transform="translate(-4087.135 -3013.281)" fill="#6883e6"/>
        </g>
      </g>
    </g>
    <g id="Group_66187" data-name="Group 66187" transform="translate(555.545 466.533)">
      <g id="Group_66183" data-name="Group 66183" transform="translate(14.676 0)">
        <path id="Path_76118" data-name="Path 76118" d="M829.292,2323.563a114.748,114.748,0,0,1,.748-14.343,4.039,4.039,0,1,0-.646-.091,115.416,115.416,0,0,0-.755,14.422,111.787,111.787,0,0,0,1.928,19.828,91.6,91.6,0,0,0,7.165,22.215l.589-.281C831.047,2350.047,829.4,2334.183,829.292,2323.563Z" transform="translate(-826.236 -2301.156)" fill="#c6d7f4"/>
      </g>
      <g id="Group_66184" data-name="Group 66184" transform="translate(151.592 26.092)">
        <path id="Path_76119" data-name="Path 76119" d="M3378.385,2798.6a74.82,74.82,0,0,0,6.07-9.873c-1.8-1.15-2.6-3.271-1.789-4.819.837-1.6,3.073-1.98,4.993-.857s2.8,3.328,1.959,4.924c-.78,1.487-2.772,1.921-4.594,1.066a75.243,75.243,0,0,1-6.1,9.928,73.283,73.283,0,0,1-10.81,11.937,64.265,64.265,0,0,1-16.2,10.482l-.35-.525C3364.615,2815.017,3373.353,2805.529,3378.385,2798.6Z" transform="translate(-3351.567 -2782.408)" fill="#c6d7f4"/>
      </g>
      <g id="Group_66185" data-name="Group 66185" transform="translate(154.025 19.061)">
        <path id="Path_76120" data-name="Path 76120" d="M3396.463,2680.467c-.057-1.524-.086-4.9,1.894-5.4,1.859-.473,2.622,2.7,3.141,3.947.448,1.08,1.416,2.4,1.885.9.4-1.3.009-3.565,0-4.944-.009-2.457-.1-4.921-.2-7.376-.055-1.278-.48-3.8,1.215-4.361.874-.288,1.492.868,1.821,1.545a13.109,13.109,0,0,1,1.1,5.378c.011,1,.778,3.912,2.025,1.817,1.013-1.7.9-3.749,1.145-5.636.291-2.222.61-4.476.892-6.717.173-1.372-.191-7.3,2.292-6.873,1.532.263,1.862,3.223,2.015,4.409a24.5,24.5,0,0,1-.764,8.5c-.464,2.043-2.5,4.661-1.742,6.8a2.083,2.083,0,0,0,1.661-.753,8.554,8.554,0,0,0,.7-1.008c.759-1.023,4.065-4.162,4.214-1.122.092,1.892-1.732,3.3-2.9,4.5a53.459,53.459,0,0,0-4.625,6.188c-.606.836-1.96,2.958-1.128,4,1.569,1.966,4.033-1.71,5.226-.78,2.079,1.622-1.921,5.334-2.953,6.31-3.674,3.472-9.066,7.095-13.531,2.7-1.009-.992-1.291-3.062-1.782-4.4a23.491,23.491,0,0,1-1.547-6.731C3396.494,2681.086,3396.475,2680.786,3396.463,2680.467Z" transform="translate(-3396.446 -2652.723)" fill="#c6d7f4"/>
      </g>
      <g id="Group_66186" data-name="Group 66186" transform="translate(0 1.635)">
        <path id="Path_76121" data-name="Path 76121" d="M595.119,2370.969c-.289-2.423-1.082-7.763-4.338-8.066-3.057-.285-3.474,4.914-3.983,7.022-.439,1.819-1.64,4.15-2.756,1.888-.963-1.951-.9-5.635-1.236-7.816-.6-3.887-1.075-7.8-1.52-11.711-.232-2.033-.188-6.13-3.007-6.592-1.453-.237-2.143,1.744-2.5,2.9a20.983,20.983,0,0,0-.4,8.777c.231,1.584-.258,6.378-2.75,3.377-2.026-2.44-2.352-5.7-3.213-8.625-1.014-3.441-2.079-6.924-3.083-10.4-.614-2.126-1.514-11.587-5.333-10.3-2.357.8-2.142,5.559-2.089,7.472.127,4.58,1.641,9.032,3.324,13.248,1.243,3.113,5.109,6.747,4.446,10.311a3.332,3.332,0,0,1-2.814-.777,13.53,13.53,0,0,1-1.351-1.42c-1.455-1.428-7.462-5.568-6.941-.725.325,3.015,3.56,4.786,5.711,6.387,3.237,2.409,5.994,5.759,8.852,8.631,1.166,1.172,3.835,4.189,2.779,6.044-1.991,3.5-6.8-1.7-8.455.067-2.884,3.082,4.364,7.955,6.239,9.24,6.673,4.576,16.1,8.961,22.065.908,1.348-1.82,1.279-5.162,1.722-7.4a37.611,37.611,0,0,0,.77-11.028C595.225,2371.956,595.18,2371.478,595.119,2370.969Z" transform="translate(-555.545 -2331.306)" fill="#c6d7f4"/>
      </g>
    </g>
    <path id="Path_76122" data-name="Path 76122" d="M939.782,3369.859c0,2.527-9.321,4.833-24.667,6.584-17.915,2.044-44.04,3.333-73.13,3.333-30.338,0-57.45-1.4-75.389-3.6-14-1.715-22.952-3.916-22.952-6.317,0-1.84,5.482-3.562,14.089-5.04,17.019-2.919,48.38-4.877,84.252-4.877,34.632,0,65.058,1.826,82.435,4.58C934.145,3366.061,939.782,3367.893,939.782,3369.859Z" transform="translate(-177.901 -2836.004)" fill="#9fb6e3" opacity="0.22"/>
    <g id="Group_66220" data-name="Group 66220" transform="translate(623.057 397.044)">
      <g id="Group_66212" data-name="Group 66212" transform="translate(0)">
        <g id="Group_66188" data-name="Group 66188" transform="translate(1.82)">
          <rect id="Rectangle_13068" data-name="Rectangle 13068" width="65.076" height="135.494" rx="4" fill="#6883e6"/>
        </g>
        <g id="Group_66189" data-name="Group 66189" transform="translate(5.417 7.85)">
          <path id="Path_76123" data-name="Path 76123" d="M1958.558,1167.109v117.438a3.74,3.74,0,0,1-3.74,3.74h-50.4a3.74,3.74,0,0,1-3.74-3.74V1167.109a2.869,2.869,0,0,1,2.869-2.869h52.144A2.869,2.869,0,0,1,1958.558,1167.109Z" transform="translate(-1900.676 -1164.24)" fill="#fff"/>
        </g>
        <g id="Group_66190" data-name="Group 66190" transform="translate(0 22.911)">
          <path id="Path_76124" data-name="Path 76124" d="M1802.15,1464.118h0a1.387,1.387,0,0,1-1.387-1.387v-19.305a1.387,1.387,0,0,1,1.387-1.387h0a1.387,1.387,0,0,1,1.387,1.387v19.305A1.387,1.387,0,0,1,1802.15,1464.118Z" transform="translate(-1800.763 -1442.039)" fill="#6883e6"/>
        </g>
        <g id="Group_66191" data-name="Group 66191" transform="translate(65.509 22.911)">
          <path id="Path_76125" data-name="Path 76125" d="M3010.431,1454.332h0a1.387,1.387,0,0,1-1.387-1.387v-9.52a1.387,1.387,0,0,1,1.387-1.387h0a1.387,1.387,0,0,1,1.387,1.387v9.52A1.387,1.387,0,0,1,3010.431,1454.332Z" transform="translate(-3009.044 -1442.039)" fill="#6883e6"/>
        </g>
        <g id="Group_66192" data-name="Group 66192" transform="translate(65.509 38.499)">
          <path id="Path_76126" data-name="Path 76126" d="M3010.431,1741.845h0a1.387,1.387,0,0,1-1.387-1.387v-9.52a1.387,1.387,0,0,1,1.387-1.387h0a1.387,1.387,0,0,1,1.387,1.387v9.52A1.387,1.387,0,0,1,3010.431,1741.845Z" transform="translate(-3009.044 -1729.552)" fill="#6883e6"/>
        </g>
        <g id="Group_66193" data-name="Group 66193" transform="translate(5.417 79.288)">
          <path id="Path_76127" data-name="Path 76127" d="M1958.558,2481.87v49.044a3.569,3.569,0,0,1-3.565,3.565h-50.752a3.569,3.569,0,0,1-3.565-3.565V2481.87Z" transform="translate(-1900.676 -2481.87)" fill="#f1f0e9"/>
        </g>
        <g id="Group_66194" data-name="Group 66194" transform="translate(5.417 79.179)">
          <rect id="Rectangle_13069" data-name="Rectangle 13069" width="57.882" height="2.636" fill="#c6d7f4"/>
        </g>
        <g id="Group_66205" data-name="Group 66205" transform="translate(10.93 42.471)">
          <g id="Group_66195" data-name="Group 66195" transform="translate(0 33.546)">
            <path id="Path_76128" data-name="Path 76128" d="M2049.211,2424.732h-46.856a3.186,3.186,0,0,1,3.186-3.186h40.485a3.186,3.186,0,0,1,3.185,3.186Z" transform="translate(-2002.355 -2421.547)" fill="#6883e6"/>
          </g>
          <g id="Group_66196" data-name="Group 66196" transform="translate(4.856 14.75)">
            <rect id="Rectangle_13070" data-name="Rectangle 13070" width="37.145" height="18.796" fill="#c6d7f4"/>
          </g>
          <g id="Group_66197" data-name="Group 66197" transform="translate(4.856 14.75)">
            <rect id="Rectangle_13071" data-name="Rectangle 13071" width="4.451" height="18.796" fill="#4054c4"/>
          </g>
          <g id="Group_66198" data-name="Group 66198" transform="translate(21.203 14.75)">
            <rect id="Rectangle_13072" data-name="Rectangle 13072" width="4.451" height="18.796" fill="#4054c4"/>
          </g>
          <g id="Group_66199" data-name="Group 66199" transform="translate(37.549 14.75)">
            <rect id="Rectangle_13073" data-name="Rectangle 13073" width="4.451" height="18.796" fill="#4054c4"/>
          </g>
          <g id="Group_66200" data-name="Group 66200" transform="translate(3.561 17.693)">
            <rect id="Rectangle_13074" data-name="Rectangle 13074" width="7.041" height="2.671" fill="#4054c4"/>
          </g>
          <g id="Group_66201" data-name="Group 66201" transform="translate(19.907 17.693)">
            <rect id="Rectangle_13075" data-name="Rectangle 13075" width="7.041" height="2.671" fill="#4054c4"/>
          </g>
          <g id="Group_66202" data-name="Group 66202" transform="translate(36.254 17.693)">
            <rect id="Rectangle_13076" data-name="Rectangle 13076" width="7.041" height="2.671" fill="#4054c4"/>
          </g>
          <g id="Group_66203" data-name="Group 66203" transform="translate(0 14.508)">
            <rect id="Rectangle_13077" data-name="Rectangle 13077" width="46.856" height="3.186" fill="#6883e6"/>
          </g>
          <g id="Group_66204" data-name="Group 66204">
            <path id="Path_76129" data-name="Path 76129" d="M2025.2,1802.96l-22.844,14.364h23.428l23.877.282-22.845-14.364C2026.01,1802.736,2025.556,1802.736,2025.2,1802.96Z" transform="translate(-2002.355 -1802.817)" fill="#4054c4"/>
          </g>
        </g>
        <g id="Group_66206" data-name="Group 66206" transform="translate(26.763 3.35)">
          <path id="Path_76130" data-name="Path 76130" d="M2308.976,1082.463h-13.964a.613.613,0,0,1-.613-.613h0a.613.613,0,0,1,.613-.613h13.964a.613.613,0,0,1,.613.613h0A.613.613,0,0,1,2308.976,1082.463Z" transform="translate(-2294.399 -1081.237)" fill="#fff"/>
        </g>
        <g id="Group_66207" data-name="Group 66207" transform="translate(25.061 15.952)">
          <path id="Path_76131" data-name="Path 76131" d="M2282.036,1323.2a9.483,9.483,0,0,1-1.273,4.761q-.245.422-.53.815a9.523,9.523,0,0,1-15.438,0,9.337,9.337,0,0,1-.53-.815,9.523,9.523,0,1,1,17.77-4.761Z" transform="translate(-2262.993 -1313.675)" fill="#c6d7f4"/>
        </g>
        <g id="Group_66208" data-name="Group 66208" transform="translate(26.863 27.105)">
          <path id="Path_76132" data-name="Path 76132" d="M2311.681,1523.335a9.523,9.523,0,1,1-7.719-3.946A9.508,9.508,0,0,1,2311.681,1523.335Z" transform="translate(-2296.243 -1519.389)" fill="#6883e6"/>
        </g>
        <g id="Group_66209" data-name="Group 66209" transform="translate(31.286 18.723)">
          <circle id="Ellipse_3893" data-name="Ellipse 3893" cx="3.296" cy="3.296" r="3.296" fill="#6883e6"/>
        </g>
        <g id="Group_66210" data-name="Group 66210" transform="translate(9.41 13.523)">
          <path id="Path_76133" data-name="Path 76133" d="M1979.077,1269.932h-4.234a.527.527,0,0,1-.527-.527h0a.527.527,0,0,1,.527-.527h4.234a.527.527,0,0,1,.527.527h0A.527.527,0,0,1,1979.077,1269.932Z" transform="translate(-1974.316 -1268.878)" fill="#c6d7f4"/>
        </g>
        <g id="Group_66211" data-name="Group 66211" transform="translate(9.41 15.642)">
          <path id="Path_76134" data-name="Path 76134" d="M1979.077,1309.018h-4.234a.527.527,0,0,1-.527-.527h0a.527.527,0,0,1,.527-.527h4.234a.527.527,0,0,1,.527.527h0A.527.527,0,0,1,1979.077,1309.018Z" transform="translate(-1974.316 -1307.964)" fill="#c6d7f4"/>
        </g>
      </g>
      <g id="Group_66213" data-name="Group 66213" transform="translate(11.821 89.655)">
        <rect id="Rectangle_13078" data-name="Rectangle 13078" width="45.073" height="35.225" rx="3" fill="#4054c4"/>
      </g>
      <g id="Group_66214" data-name="Group 66214" transform="translate(26.866 96.467)">
        <path id="Path_76135" data-name="Path 76135" d="M2320.5,2800.29h-23.437a.781.781,0,0,1-.781-.781h0a.781.781,0,0,1,.781-.781H2320.5a.781.781,0,0,1,.781.781h0A.781.781,0,0,1,2320.5,2800.29Z" transform="translate(-2296.282 -2798.729)" fill="#fff"/>
      </g>
      <g id="Group_66215" data-name="Group 66215" transform="translate(26.866 106.355)">
        <path id="Path_76136" data-name="Path 76136" d="M2320.5,2982.681h-23.437a.781.781,0,0,1-.781-.781h0a.781.781,0,0,1,.781-.781H2320.5a.781.781,0,0,1,.781.781h0A.781.781,0,0,1,2320.5,2982.681Z" transform="translate(-2296.282 -2981.12)" fill="#fff"/>
      </g>
      <g id="Group_66216" data-name="Group 66216" transform="translate(26.866 116.244)">
        <path id="Path_76137" data-name="Path 76137" d="M2320.5,3165.071h-23.437a.781.781,0,0,1-.781-.781h0a.781.781,0,0,1,.781-.781H2320.5a.781.781,0,0,1,.781.781h0A.781.781,0,0,1,2320.5,3165.071Z" transform="translate(-2296.282 -3163.51)" fill="#fff"/>
      </g>
      <g id="Group_66217" data-name="Group 66217" transform="translate(14.257 92.554)">
        <circle id="Ellipse_3894" data-name="Ellipse 3894" cx="3.319" cy="3.319" r="3.319" transform="translate(0 4.693) rotate(-45)" fill="#fff"/>
      </g>
      <g id="Group_66218" data-name="Group 66218" transform="translate(14.958 103.144)">
        <circle id="Ellipse_3895" data-name="Ellipse 3895" cx="3.319" cy="3.319" r="3.319" transform="translate(0 1.525) rotate(-13.283)" fill="#c6d7f4"/>
      </g>
      <g id="Group_66219" data-name="Group 66219" transform="translate(15.143 113.217)">
        <circle id="Ellipse_3896" data-name="Ellipse 3896" cx="3.319" cy="3.319" r="3.319" transform="translate(0 6.552) rotate(-80.783)" fill="#fff"/>
      </g>
    </g>
    <g id="Group_66232" data-name="Group 66232" transform="translate(681.895 494.259)">
      <g id="Group_66224" data-name="Group 66224" transform="translate(21.307 23.348)">
        <g id="Group_66221" data-name="Group 66221" transform="translate(3.06 11.801)">
          <rect id="Rectangle_13079" data-name="Rectangle 13079" width="29.693" height="5.901" rx="2.95" fill="#c29628"/>
        </g>
        <g id="Group_66222" data-name="Group 66222" transform="translate(0 5.901)">
          <rect id="Rectangle_13080" data-name="Rectangle 13080" width="29.693" height="5.901" rx="2.95" fill="#b18828"/>
        </g>
        <g id="Group_66223" data-name="Group 66223" transform="translate(3.935)">
          <rect id="Rectangle_13081" data-name="Rectangle 13081" width="29.693" height="5.901" rx="2.95" fill="#c29628"/>
        </g>
      </g>
      <g id="Group_66225" data-name="Group 66225" transform="translate(3.498 35.149)">
        <rect id="Rectangle_13082" data-name="Rectangle 13082" width="29.693" height="5.901" rx="2.95" fill="#ebb631"/>
      </g>
      <g id="Group_66226" data-name="Group 66226" transform="translate(0 29.248)">
        <rect id="Rectangle_13083" data-name="Rectangle 13083" width="29.693" height="5.901" rx="2.95" fill="#daa730"/>
      </g>
      <g id="Group_66227" data-name="Group 66227" transform="translate(0 23.348)">
        <rect id="Rectangle_13084" data-name="Rectangle 13084" width="29.693" height="5.901" rx="2.95" fill="#ebb631"/>
      </g>
      <g id="Group_66228" data-name="Group 66228" transform="translate(3.498 17.447)">
        <rect id="Rectangle_13085" data-name="Rectangle 13085" width="29.693" height="5.901" rx="2.95" fill="#daa730"/>
      </g>
      <g id="Group_66229" data-name="Group 66229" transform="translate(3.498 11.801)">
        <rect id="Rectangle_13086" data-name="Rectangle 13086" width="29.693" height="5.901" rx="2.95" fill="#ebb631"/>
      </g>
      <g id="Group_66230" data-name="Group 66230" transform="translate(0.437 5.901)">
        <rect id="Rectangle_13087" data-name="Rectangle 13087" width="29.693" height="5.901" rx="2.95" fill="#daa730"/>
      </g>
      <g id="Group_66231" data-name="Group 66231" transform="translate(4.372)">
        <rect id="Rectangle_13088" data-name="Rectangle 13088" width="29.693" height="5.901" rx="2.95" fill="#ebb631"/>
      </g>
    </g>
    <g id="Group_66244" data-name="Group 66244" transform="translate(698.01 436.253)">
      <g id="Group_66233" data-name="Group 66233">
        <rect id="Rectangle_13089" data-name="Rectangle 13089" width="70.031" height="44.028" rx="6" fill="#c80880"/>
      </g>
      <g id="Group_66234" data-name="Group 66234" transform="translate(46.984 31.977)">
        <path id="Path_76138" data-name="Path 76138" d="M4065.6,2338.6h-12.7a3.072,3.072,0,0,1-3.072-3.072h0a3.072,3.072,0,0,1,3.072-3.072h12.7a3.072,3.072,0,0,1,3.072,3.072h0A3.072,3.072,0,0,1,4065.6,2338.6Z" transform="translate(-4049.832 -2332.456)" fill="#e227ad"/>
      </g>
      <g id="Group_66235" data-name="Group 66235" transform="translate(57.677 7.381)">
        <rect id="Rectangle_13090" data-name="Rectangle 13090" width="8.15" height="3.674" rx="1.837" fill="#e227ad"/>
      </g>
      <g id="Group_66236" data-name="Group 66236" transform="translate(5.192 22.29)">
        <path id="Path_76139" data-name="Path 76139" d="M3288.667,2156.655h-8.239a1.433,1.433,0,0,1-1.434-1.434h0a1.433,1.433,0,0,1,1.434-1.433h8.239a1.433,1.433,0,0,1,1.434,1.433h0A1.433,1.433,0,0,1,3288.667,2156.655Z" transform="translate(-3278.994 -2153.788)" fill="#fff"/>
      </g>
      <g id="Group_66237" data-name="Group 66237" transform="translate(19.235 22.29)">
        <path id="Path_76140" data-name="Path 76140" d="M3547.687,2156.655h-8.239a1.433,1.433,0,0,1-1.434-1.434h0a1.433,1.433,0,0,1,1.434-1.433h8.239a1.434,1.434,0,0,1,1.434,1.433h0A1.434,1.434,0,0,1,3547.687,2156.655Z" transform="translate(-3538.014 -2153.788)" fill="#fff"/>
      </g>
      <g id="Group_66238" data-name="Group 66238" transform="translate(33.278 22.29)">
        <path id="Path_76141" data-name="Path 76141" d="M3806.707,2156.655h-8.24a1.434,1.434,0,0,1-1.434-1.434h0a1.434,1.434,0,0,1,1.434-1.433h8.24a1.433,1.433,0,0,1,1.433,1.433h0A1.433,1.433,0,0,1,3806.707,2156.655Z" transform="translate(-3797.033 -2153.788)" fill="#fff"/>
      </g>
      <g id="Group_66239" data-name="Group 66239" transform="translate(47.322 22.29)">
        <path id="Path_76142" data-name="Path 76142" d="M4065.728,2156.655h-8.24a1.433,1.433,0,0,1-1.433-1.434h0a1.433,1.433,0,0,1,1.433-1.433h8.24a1.433,1.433,0,0,1,1.434,1.433h0A1.433,1.433,0,0,1,4065.728,2156.655Z" transform="translate(-4056.055 -2153.788)" fill="#fff"/>
      </g>
      <g id="Group_66240" data-name="Group 66240" transform="translate(5.192 5.78)">
        <rect id="Rectangle_13091" data-name="Rectangle 13091" width="14.043" height="9.999" rx="5" fill="#e227ad"/>
      </g>
      <g id="Group_66243" data-name="Group 66243" transform="translate(7.691 3.526)">
        <g id="Group_66241" data-name="Group 66241">
          <rect id="Rectangle_13092" data-name="Rectangle 13092" width="1.115" height="14.508" fill="#d12898"/>
        </g>
        <g id="Group_66242" data-name="Group 66242" transform="translate(7.929)">
          <rect id="Rectangle_13093" data-name="Rectangle 13093" width="1.115" height="14.508" fill="#d12898"/>
        </g>
      </g>
    </g>
    <g id="Group_66265" data-name="Group 66265" transform="translate(581.961 433.03)">
      <g id="Group_66245" data-name="Group 66245" transform="translate(3.726 88.641)">
        <path id="Path_76143" data-name="Path 76143" d="M1115.79,3319.073l-.533,5.831-1.159,1.8-2.6-1.317.661-7.258Z" transform="translate(-1111.494 -3318.131)" fill="#f4bd93"/>
      </g>
      <g id="Group_66246" data-name="Group 66246" transform="translate(32.017 24.673)">
        <path id="Path_76144" data-name="Path 76144" d="M1634,2142.023a6.562,6.562,0,0,0,.652-2.387,2.238,2.238,0,0,1,.366-1.031c.089-.119.294-.379.478-.321.333.105.022.658-.007.85a1.709,1.709,0,0,0,.338,1.225,4.69,4.69,0,0,0,.885.687c.5.348,1.162.645,1.414,1.235.263.616-.4,1.152-.851,1.44a5.42,5.42,0,0,1-1.22.6,12.412,12.412,0,0,1-1.34.14,4.111,4.111,0,0,1-.749.2c-.277-.015-.243-.088-.359-.379-.187-.475-.483-1.048-.182-1.513C1633.625,2142.468,1633.839,2142.286,1634,2142.023Z" transform="translate(-1633.298 -2138.276)" fill="#f4bd93"/>
      </g>
      <g id="Group_66247" data-name="Group 66247" transform="translate(33.416 22.371)">
        <path id="Path_76145" data-name="Path 76145" d="M1659.491,2101.667h2.784a.822.822,0,0,0,.736-.455l2.405-4.827a.39.39,0,0,0-.349-.563h-2.8a.8.8,0,0,0-.718.444l-2.411,4.838A.39.39,0,0,0,1659.491,2101.667Z" transform="translate(-1659.101 -2095.821)" fill="#19162b"/>
      </g>
      <g id="Group_66248" data-name="Group 66248" transform="translate(34.055 22.915)">
        <path id="Path_76146" data-name="Path 76146" d="M1670.888,2110.605l2.3-4.615a.257.257,0,0,1,.231-.143h2.548l-2.294,4.6a.277.277,0,0,1-.249.154Z" transform="translate(-1670.888 -2105.847)" fill="#fff"/>
      </g>
      <g id="Group_66249" data-name="Group 66249" transform="translate(35.219 23.889)">
        <path id="Path_76147" data-name="Path 76147" d="M1692.458,2130.42c.662-.442,1.863-.919,2.153-1.753.207-.6.011-1.176.312-1.795.281-.576,1.052-1.248.739-1.938-.082-.181-.686-1.294-.955-1.092-.169.127-.076.639-.031.8.068.243.159.481.227.723.147.519-.054.508-.349.094-.148-.208-.368-.521-.643-.571-.251-.046-.384.173-.389.4a1.319,1.319,0,0,0,.368.722c.16.222.527.8.135.923-.429.134-.877-.085-1.315.091-.506.2-.429.58.068.7.369.091.708.035.848.441a.586.586,0,0,1-.113.671c-.182.2-.427.337-.622.525-.041.039-.44.684-.316.671C1692.664,2130.024,1692.657,2129.973,1692.458,2130.42Z" transform="translate(-1692.367 -2123.817)" fill="#f4bd93"/>
      </g>
      <g id="Group_66251" data-name="Group 66251" transform="translate(20.083 88.641)">
        <g id="Group_66250" data-name="Group 66250">
          <path id="Path_76148" data-name="Path 76148" d="M1417.156,3319.073l.337,5.831-1.159,1.8-2.6-1.317-.536-7.258Z" transform="translate(-1413.195 -3318.131)" fill="#f4bd93"/>
        </g>
      </g>
      <g id="Group_66252" data-name="Group 66252" transform="translate(9.071 1.564)">
        <path id="Path_76149" data-name="Path 76149" d="M1224.114,1712.839a5.778,5.778,0,0,1,.817,2.848,13.947,13.947,0,0,1-.5,3.028,23.266,23.266,0,0,1-1.253,4.465,8.466,8.466,0,0,1-3.031,3.695,3.933,3.933,0,0,1-2.047.471,11.074,11.074,0,0,1-2.554.118,27.615,27.615,0,0,1-3.247-.721c-.93-.228-1.66-.3-2.053-1.279-.577-1.441.479-2.459,1.067-3.722.273-.587.542-1.14.858-1.7.45-.8.577-1.7,1.1-2.474a19.087,19.087,0,0,1,3.928-4.367,6.8,6.8,0,0,1,3.979-1.132c.9,0,1.938-.218,2.668.463A2.056,2.056,0,0,1,1224.114,1712.839Z" transform="translate(-1210.08 -1712.038)" fill="#19162b"/>
      </g>
      <g id="Group_66253" data-name="Group 66253" transform="translate(17.047 16.598)">
        <path id="Path_76150" data-name="Path 76150" d="M1361.017,1989.606c.291.764.7,1.5.948,2.276.252.81.348,1.671.523,2.5.288,1.364.612,2.721.945,4.075.161.658.307,1.323.489,1.975a2.307,2.307,0,0,0,1.168,1.343c.683.22,1.884-.234,2.6-.3a19.461,19.461,0,0,0,2.041-.278c.664-.134,1.368-.561,2.012-.644,1.05-.134,1.64,1.887,1.867,2.7a2.8,2.8,0,0,1,.207.869c-.094.53-1.053.837-1.484,1.084-.488.279-1.008.511-1.514.753a31.168,31.168,0,0,1-3.505,1.467c-2.032.683-4.973,1.368-6.592-.521q-.111-.13-.208-.27a6.729,6.729,0,0,1-.876-1.9c-.4-1.36-.836-2.706-1.244-4.062a23.978,23.978,0,0,1-1.06-3.669,18.782,18.782,0,0,1-.133-2.472c.005-1.824.25-5.643,2.922-5.163A3.094,3.094,0,0,1,1361.017,1989.606Z" transform="translate(-1357.197 -1989.329)" fill="#c80880"/>
      </g>
      <g id="Group_66254" data-name="Group 66254" transform="translate(3.768 36.662)">
        <path id="Path_76151" data-name="Path 76151" d="M1112.483,2413.018h4.616s10-25.049,12.376-48.572v-5.04h-12.625s-.979,12.219-.979,25.355a126.8,126.8,0,0,0-3.6,28.041A.216.216,0,0,0,1112.483,2413.018Z" transform="translate(-1112.268 -2359.406)" fill="#19162b"/>
      </g>
      <g id="Group_66255" data-name="Group 66255" transform="translate(10.938 36.662)">
        <path id="Path_76152" data-name="Path 76152" d="M1244.524,2359.406h12.283s3.83,27.341,1.189,53.612h-4.885a105.369,105.369,0,0,1-3.188-24.549Z" transform="translate(-1244.524 -2359.406)" fill="#19162b"/>
      </g>
      <g id="Group_66256" data-name="Group 66256" transform="translate(7.527 14.362)">
        <path id="Path_76153" data-name="Path 76153" d="M1197.293,1970.395l-15.695.647,1.577-22.147,3.485-.8,4.336.241,3.789,3.274,2.507,5Z" transform="translate(-1181.598 -1948.095)" fill="#fff"/>
      </g>
      <g id="Group_66257" data-name="Group 66257" transform="translate(4.323 14.362)">
        <path id="Path_76154" data-name="Path 76154" d="M1130.766,1948.095l-3.485.8a4.23,4.23,0,0,0-3.282,3.964c-.218,5.8-.743,17.883-1.5,23.346a23.887,23.887,0,0,0,11-.661,1.673,1.673,0,0,0,1.2-1.444l1.321-13.755a13.173,13.173,0,0,0-.815-5.98l-1.469-3.826Z" transform="translate(-1122.499 -1948.095)" fill="#c80880"/>
      </g>
      <g id="Group_66258" data-name="Group 66258" transform="translate(16.926 14.604)">
        <path id="Path_76155" data-name="Path 76155" d="M1354.958,1952.551c1.273,1.886,1.978,3.4,3.4,5.352,1.5,2.057,1.838,2.317,1.628,4.231-.219,2-.382,3.863-.481,5.895-.1,2.1-.289,4.139-.31,6.273-.006.635-.184,3.261-.184,3.261a23,23,0,0,0,3.189-.191c.347-.045.337-4.5.337-5.875,0-2.114-.136-4.241-.223-6.354-.066-1.6.314-3.566-.359-4.989-.32-.677-.964-1.246-1.34-1.892a19.929,19.929,0,0,1-1.045-2.085,5.322,5.322,0,0,0-1.436-2.291A11.11,11.11,0,0,0,1354.958,1952.551Z" transform="translate(-1354.958 -1952.551)" fill="#d12898"/>
      </g>
      <g id="Group_66259" data-name="Group 66259" transform="translate(12.589 8.875)">
        <path id="Path_76156" data-name="Path 76156" d="M1274.975,1852.382a16.842,16.842,0,0,0,2.785-5.487l2.347,2.743a8.715,8.715,0,0,0-.458,3.082s1.029,1.883-.338,1.994A4.4,4.4,0,0,1,1274.975,1852.382Z" transform="translate(-1274.975 -1846.895)" fill="#f4bd93"/>
      </g>
      <g id="Group_66260" data-name="Group 66260" transform="translate(14.884 1.928)">
        <path id="Path_76157" data-name="Path 76157" d="M1319.391,1728.3l-.157-.145a5.507,5.507,0,0,1-1.674-2.47,5.887,5.887,0,0,1,1.125-5.628c1.2-1.285,3.52-1.9,4.795-.445a4.351,4.351,0,0,1,.995,4.533c-.5,1.536-.914,3.522-2.145,4.655C1321.259,1729.782,1320.247,1729.08,1319.391,1728.3Z" transform="translate(-1317.29 -1718.767)" fill="#f4bd93"/>
      </g>
      <g id="Group_66261" data-name="Group 66261" transform="translate(0 15.938)">
        <path id="Path_76158" data-name="Path 76158" d="M1049.165,1978.026c-.264.468-.836,1.53-1.205,2.056a38.456,38.456,0,0,0-4.561,8.52c-2.479,5.609,2.937,11.511,6.506,15.278.717.756,1.348,2.158,2.516,2.235,1.2.079,2.4-1.368,3.456-1.81.121-1.4-.737-2.52-1.445-3.6-1.432-2.191-3.337-4.551-4.083-7.1-.616-2.1,1.081-3.145,2.022-4.9,1.108-2.07,2.5-4.027,2.446-6.4-.036-1.711-.143-3.067-1.375-4.187a3.019,3.019,0,0,0-1.375-.886A3.354,3.354,0,0,0,1049.165,1978.026Z" transform="translate(-1042.771 -1977.157)" fill="#e227ad"/>
      </g>
      <g id="Group_66262" data-name="Group 66262" transform="translate(3.541 0)">
        <path id="Path_76159" data-name="Path 76159" d="M1119.035,1695.053c-1.55,2.421-3.895,5.06-7.138,4.4-2.275-.464-4.794-3.343-3.413-5.686,1.275-2.165,3.261-3.139,5.265-4.409,2.111-1.338,3.157-3.772,5.324-5.08a6.874,6.874,0,0,1,6.613-.407c.8.444,1.941,1.209,2.167,2.145a1.975,1.975,0,0,1-.45,1.936c-.413.291-1.068.142-1.556.218a22.074,22.074,0,0,0-2.541.855c-.455.128-1.322,1.023-1.721.716-.339-.26-.272-.81-.844-.811-1.156,0-1.354,2.232-.32,2.614a6.891,6.891,0,0,1-.446,1.809A7.428,7.428,0,0,1,1119.035,1695.053Z" transform="translate(-1108.09 -1683.198)" fill="#19162b"/>
      </g>
      <g id="Group_66263" data-name="Group 66263" transform="translate(2.67 93.834)">
        <path id="Path_76160" data-name="Path 76160" d="M1096.2,3414.887l.057-.062a3.078,3.078,0,0,1,.859-.817c.7-.338.9.213,1.132.783.946,2.323,4.308,2.418,6.236,3.434.8.422,1.681,2.267.174,2.278a9.351,9.351,0,0,1-1.517.044,16.832,16.832,0,0,0-2.453.089c-1.186,0-2.372-.1-3.552-.045-1.211.062-2.38-.09-3.589-.089-.357,0-1.128.046-1.364-.285-.375-.526,0-1.585.06-2.156.088-.9.17-1.8.309-2.7.091-.587.258-.571.83-.471.516.09,1,.336,1.525.392A1.32,1.32,0,0,0,1096.2,3414.887Z" transform="translate(-1092.022 -3413.904)" fill="#19162b"/>
      </g>
      <g id="Group_66264" data-name="Group 66264" transform="translate(19.317 93.834)">
        <path id="Path_76161" data-name="Path 76161" d="M1403.246,3414.887l.057-.062a3.08,3.08,0,0,1,.858-.817c.7-.338.9.213,1.132.783.946,2.323,4.308,2.418,6.236,3.434.8.422,1.681,2.267.174,2.278a9.348,9.348,0,0,1-1.517.044,16.831,16.831,0,0,0-2.453.089c-1.186,0-2.372-.1-3.552-.045-1.211.062-2.38-.09-3.589-.089-.357,0-1.128.046-1.364-.285-.375-.526,0-1.585.06-2.156.088-.9.17-1.8.308-2.7.091-.587.259-.571.831-.471.516.09,1,.336,1.525.392A1.32,1.32,0,0,0,1403.246,3414.887Z" transform="translate(-1399.064 -3413.904)" fill="#19162b"/>
      </g>
    </g>
    <g id="Group_66271" data-name="Group 66271" transform="translate(578.583 407.647)">
      <g id="Group_66266" data-name="Group 66266" transform="translate(0 0)">
        <rect id="Rectangle_13094" data-name="Rectangle 13094" width="36.457" height="16.239" rx="3" fill="#6883e6"/>
      </g>
      <g id="Group_66267" data-name="Group 66267" transform="translate(3.297 6.268)">
        <circle id="Ellipse_3897" data-name="Ellipse 3897" cx="1.417" cy="1.417" r="1.417" transform="translate(0 1.084) rotate(-22.5)" fill="#c6d7f4"/>
      </g>
      <g id="Group_66268" data-name="Group 66268" transform="translate(8.843 6.54)">
        <circle id="Ellipse_3898" data-name="Ellipse 3898" cx="1.417" cy="1.417" r="1.417" transform="matrix(0.122, -0.993, 0.993, 0.122, 0, 2.813)" fill="#c6d7f4"/>
      </g>
      <g id="Group_66269" data-name="Group 66269" transform="translate(13.693 6.116)">
        <circle id="Ellipse_3899" data-name="Ellipse 3899" cx="1.417" cy="1.417" r="1.417" transform="translate(0 2.004) rotate(-45)" fill="#c6d7f4"/>
      </g>
      <g id="Group_66270" data-name="Group 66270" transform="translate(18.77 0.764)">
        <circle id="Ellipse_3900" data-name="Ellipse 3900" cx="5.201" cy="5.201" r="5.201" transform="translate(0 7.356) rotate(-45)" fill="#4054c4"/>
      </g>
    </g>
  </g>
</svg>
