<svg xmlns="http://www.w3.org/2000/svg" width="699.74" height="714.528" viewBox="0 0 699.74 714.528">
  <g id="location-check-3" transform="translate(-11.07 -10.306)">
    <path id="Path_76363" data-name="Path 76363" d="M179.637,66.472s-69.3-27-132.3,44.1c0,0-82.8,81,1.8,205.194,0,0,17.1-38.7,49.5-40.5s164.7-40.5,159.3-127.8Z" transform="translate(0 409.07)" fill="#7c5748"/>
    <path id="Path_76364" data-name="Path 76364" d="M60.325,65.4s24.3,9,30.6,72,72,56.7,72,56.7-9,27,.9,31.5c0,0-51.3,21.6-63.9,16.2,0,0-35.1,6.3-49.5,40.5,0,0-60.3-64.8-31.5-159.3C18.927,124.8,35.126,84.3,60.325,65.4Z" transform="translate(0.515 440.741)" fill="#db1f16"/>
    <path id="Path_76365" data-name="Path 76365" d="M204.358,92.571l-1.8,6.3c-200.694,90-153.9,214.194-153.9,214.194l-.9.9c-81.9-123.3-.9-203.394-.9-203.394,63-71.1,132.3-44.1,132.3-44.1Z" transform="translate(0.478 409.07)" fill="#050505" opacity="0.2"/>
    <path id="Path_76366" data-name="Path 76366" d="M35.4,412.173s4.5-60.3,144.9-197.994c0,0,276.292-250.192,328.49-196.194,0,0,37.8,26.1-57.6,157.5,0,0-209.694,297.891-333.89,314.091Z" transform="translate(194.636 0.371)" fill="#f89e00"/>
    <path id="Path_76367" data-name="Path 76367" d="M505.086,15.656c-62.1,16.2-173.695,123.3-173.695,123.3C145.1,295.547,74.9,402.644,57.8,434.143l-22.5-21.6s4.5-60.3,144.9-197.994C179.3,214.55,447.488-28.443,505.086,15.656Z" transform="translate(193.836 0)" fill="#d38302"/>
    <path id="Path_76368" data-name="Path 76368" d="M94.553,57.669l93.6,93.6s18,14.4,3.6,26.1l-38.7,38.7s-7.2,15.3-27.9.9l-86.4-88.2s-21.6-17.1-5.4-31.5l36-38.7C70.254,58.569,81.054,46.869,94.553,57.669Z" transform="translate(130.082 342.276)" fill="#a6aeba"/>
    <path id="Path_76369" data-name="Path 76369" d="M160.323,146.276l-38.7,38.7s-7.2,15.3-27.9.9l-61.2-62.1c-1.8-6.3-2.7-12.6,4.5-18.9l42.3-42.3s7.2-6.3,15.3-5.4l63,63C156.724,120.176,174.723,134.576,160.323,146.276Z" transform="translate(161.509 374.265)" fill="#c0c9d2"/>
  </g>
</svg>
