<svg xmlns="http://www.w3.org/2000/svg" width="100" height="100" viewBox="0 0 100 100">
  <g id="Camera" transform="translate(-47 -47)">
    <rect id="Rectangle_1" data-name="Rectangle 1" width="100" height="100" transform="translate(47 47)" fill="#fff" opacity="0"/>
    <g id="Group_62423" data-name="Group 62423" transform="translate(57.423 35.958)">
      <path id="Path_70768" data-name="Path 70768" d="M39.973,100.809q-18.429,0-36.859,0c-7.734,0-12.7-4.938-12.708-12.624q-.011-20.365.006-40.731A11.635,11.635,0,0,1,1.756,35.409,59.088,59.088,0,0,1,9.8,35.373a4.144,4.144,0,0,0,4.431-2.41,67.408,67.408,0,0,1,4.545-6.81,10.946,10.946,0,0,1,9.038-4.585q12.156-.132,24.314,0a11.409,11.409,0,0,1,9.7,5.436c1.577,2.354,3.171,4.7,4.676,7.1a2.3,2.3,0,0,0,2.236,1.241c3.3-.041,6.613-.094,9.906.1A11.422,11.422,0,0,1,89.488,46.68q.177,21.37,0,42.743A11.61,11.61,0,0,1,77.606,100.8C65.062,100.836,52.517,100.809,39.973,100.809ZM66.63,64.552A26.685,26.685,0,1,0,39.951,91.107,26.534,26.534,0,0,0,66.63,64.552Zm7.245-19.527V45.02c-.775,0-1.55-.029-2.323.006a3.456,3.456,0,0,0-3.414,3.139,3.311,3.311,0,0,0,3.046,3.76,28.58,28.58,0,0,0,5.248,0,3.182,3.182,0,0,0,2.941-3.672,3.425,3.425,0,0,0-3.33-3.218C75.321,45,74.6,45.026,73.875,45.026Z" transform="translate(0 0)" fill="#001968"/>
      <path id="Path_70769" data-name="Path 70769" d="M117.3,141.979a14.7,14.7,0,0,1-14.822-14.8,14.85,14.85,0,1,1,14.822,14.8Z" transform="translate(-77.357 -62.768)" fill="#001968"/>
    </g>
  </g>
</svg>
