<svg xmlns="http://www.w3.org/2000/svg" width="100" height="100" viewBox="0 0 100 100">
  <g id="chat-icon" transform="translate(-47 -47)">
    <rect id="Rectangle_1" data-name="Rectangle 1" width="100" height="100" transform="translate(47 47)" fill="#fff" opacity="0"/>
    <g id="Group_62756" data-name="Group 62756" transform="translate(69.125 70.446)">
      <path id="Path_71252" data-name="Path 71252" d="M27.821,63.921a40.119,40.119,0,0,1-17.516-4.665,2.37,2.37,0,0,0-2.073-.193C3.833,60.529-.587,61.929-5,63.369A3.161,3.161,0,0,1-8.554,62.8c-1.042-1.058-.936-2.275-.513-3.568,1.441-4.407,2.881-8.815,4.247-13.246a2.79,2.79,0,0,0-.169-1.925A37.8,37.8,0,0,1-9.4,25.4,37.263,37.263,0,1,1,35.963,62.746C33.29,63.328,30.537,63.539,27.821,63.921Zm-29.8-7.647c3.418-1.1,6.629-2.076,9.794-3.182A4.646,4.646,0,0,1,12,53.534a30.787,30.787,0,0,0,23.852,3.32c16.679-4.219,26.909-21.828,22.446-38.49A31.454,31.454,0,0,0,22.7-4.568C12.114-2.728,4.442,3.177-.4,12.682a29.942,29.942,0,0,0-2.753,18.86A31.326,31.326,0,0,0,.945,42.684a3.61,3.61,0,0,1,.393,3.2C.219,49.255-.828,52.648-1.981,56.274Z" transform="translate(0 0)" fill="#001968"/>
      <path id="Path_71253" data-name="Path 71253" d="M72.592,137.021a3.606,3.606,0,1,1,3.66,3.6A3.67,3.67,0,0,1,72.592,137.021Z" transform="translate(-62.895 -110.547)" fill="#001968"/>
      <path id="Path_71254" data-name="Path 71254" d="M197.612,136.873a3.607,3.607,0,1,1,3.508,3.749A3.665,3.665,0,0,1,197.612,136.873Z" transform="translate(-158.789 -110.552)" fill="#001968"/>
      <path id="Path_71255" data-name="Path 71255" d="M142.2,136.976a3.655,3.655,0,1,1-3.648-3.662A3.786,3.786,0,0,1,142.2,136.976Z" transform="translate(-110.68 -110.55)" fill="#001968"/>
    </g>
  </g>
</svg>
