<svg xmlns="http://www.w3.org/2000/svg" width="114.651" height="100" viewBox="0 0 114.651 100">
  <g id="closed" transform="translate(-25.349 -47)">
    <rect id="Rectangle_1" data-name="Rectangle 1" width="100" height="100" transform="translate(40 47)" fill="#fff" opacity="0"/>
    <g id="Group_62601" data-name="Group 62601" transform="matrix(0.899, -0.438, 0.438, 0.899, 329.128, -110.744)">
      <path id="Path_70899" data-name="Path 70899" d="M-312.94,101.239q-21.1,0-42.2,0c-3.862,0-5.39-1.538-5.391-5.411q0-11.033,0-22.066c0-3.462,1.681-5.42,5.065-5.065,5.594.586,10.223-1.14,14.815-4.246,7.221-4.884,14.792-9.25,22.182-13.887a5.522,5.522,0,0,0,1.708-1.884,4.336,4.336,0,0,1,4.1-2.444,4.314,4.314,0,0,1,3.878,2.56A4.3,4.3,0,0,0-307.4,50.39q14.2,8.859,28.463,17.623a4.363,4.363,0,0,0,2.071.589c2.434.071,4.871.01,7.306.033A4.271,4.271,0,0,1-265.082,73q.067,11.927,0,23.855c-.016,2.746-1.915,4.378-4.909,4.38Q-291.466,101.248-312.94,101.239Zm29.013-32.61.13-.34-25.063-15.5c-2.908,2.9-4.818,2.9-7.9.021L-341.8,68.3l.1.329h45.554c.447,0,.99-.151,1.32.048.524.315,1.253.868,1.25,1.316S-294.3,71-294.82,71.32c-.329.2-.872.048-1.32.048q-29.524,0-59.047,0c-2.156,0-2.621.461-2.622,2.616q-.007,10.958,0,21.915c0,2.152.445,2.58,2.639,2.58q42.421,0,84.842,0c2.074,0,2.537-.456,2.539-2.531q.009-11.032,0-22.064c0-2.042-.492-2.514-2.573-2.515q-9.021-.006-18.042,0c-.943,0-1.731-.191-1.769-1.311-.042-1.212.766-1.454,1.783-1.439C-286.9,68.646-285.415,68.63-283.927,68.63ZM-311,50.9q0-.357-.01-.714c-.615-.4-1.2-1.045-1.852-1.13a1.239,1.239,0,0,0-1.415,1.587c.156.6.939,1.408,1.465,1.427C-312.223,52.086-311.606,51.32-311,50.9Z" transform="translate(0 0)" fill="#001968"/>
      <text id="Closed-2" data-name="Closed" transform="translate(-346.361 89.426) rotate(1)" fill="#001968" font-size="16" font-family="Poppins-Bold, Poppins" font-weight="700"><tspan x="0" y="0">Closed</tspan></text>
    </g>
  </g>
</svg>
