<svg xmlns="http://www.w3.org/2000/svg" width="100" height="100" viewBox="0 0 100 100">
  <g id="connection-group" transform="translate(-47 -47)">
    <rect id="Rectangle_1" data-name="Rectangle 1" width="100" height="100" transform="translate(47 47)" fill="#fff" opacity="0"/>
    <g id="Group_62315" data-name="Group 62315" transform="translate(-399.004 -998.324)">
      <path id="Path_70589" data-name="Path 70589" d="M468.559,1184.309c-5.381-5.941-4.129-13.49.295-17.6a12.165,12.165,0,0,1,16.685.079c4.38,4.162,5.548,11.585.247,17.481.9.573,1.821,1.09,2.668,1.709a19.413,19.413,0,0,1,8.4,15.6,7.218,7.218,0,0,1-3.343,6.486,19.485,19.485,0,0,1-8.338,3.134,44.332,44.332,0,0,1-18.127-.475,22.9,22.9,0,0,1-4.276-1.527c-4.456-2.1-5.966-5.029-5.165-9.892a19.635,19.635,0,0,1,9.823-14.334Zm8.631,22.174a28.658,28.658,0,0,0,11.559-1.893c2.724-1.176,3.034-1.742,2.635-4.6a14.4,14.4,0,0,0-28.424-.195c-.513,3.025-.194,3.591,2.669,4.823C469.321,1206.2,473.236,1206.485,477.19,1206.482Zm6.729-30.826a6.765,6.765,0,1,0-6.75,6.791A6.819,6.819,0,0,0,483.919,1175.656Z" transform="translate(0 -77.983)"/>
      <path id="Path_70590" data-name="Path 70590" d="M608.649,1077.61c-5.5-6.092-4-13.666.293-17.608a12.128,12.128,0,0,1,16.587,0c4.281,3.911,5.811,11.495.38,17.517,1.306.912,2.682,1.732,3.9,2.747a19.335,19.335,0,0,1,7.131,14.2,7.475,7.475,0,0,1-3.79,7.191,21.5,21.5,0,0,1-8.823,2.968c-6.727.972-13.385.819-19.88-1.45a14.681,14.681,0,0,1-1.842-.8c-4.231-2.167-5.674-4.981-4.928-9.664a19.715,19.715,0,0,1,10.071-14.6C608.01,1077.957,608.281,1077.813,608.649,1077.61Zm8.595,22.263c1.475-.086,2.957-.105,4.423-.272a21.775,21.775,0,0,0,8.457-2.349,2.4,2.4,0,0,0,1.453-2.335,14.392,14.392,0,0,0-13.339-13.834c-7.626-.363-14.292,4.99-15.238,12.237-.367,2.811-.077,3.355,2.562,4.532C609.282,1099.51,613.268,1099.664,617.244,1099.873Zm-.022-37.722a6.758,6.758,0,1,0,6.775,6.67A6.665,6.665,0,0,0,617.222,1062.15Z" transform="translate(-102.364 0)"/>
      <path id="Path_70591" data-name="Path 70591" d="M480.494,1062.248c-4.214,0-8.428-.014-12.642,0-3.214.014-4.882,1.679-4.9,4.877-.022,3.273.006,6.547-.024,9.82-.019,2.053-1.092,3.211-2.838,3.155a2.383,2.383,0,0,1-2.479-2.324c-.046-4.124-.163-8.258.058-12.372a9.414,9.414,0,0,1,8.826-8.465c9.278-.117,18.558-.059,27.838-.048a2.48,2.48,0,0,1,2.593,2.218,2.516,2.516,0,0,1-2.061,2.974,6.34,6.34,0,0,1-1.458.152Q486.95,1062.258,480.494,1062.248Z" transform="translate(-0.097 -0.11)"/>
      <path id="Path_70592" data-name="Path 70592" d="M637.18,1280.231c-3.32,0-6.639.009-9.959,0-1.895-.007-3.1-1.009-3.141-2.58-.047-1.591,1.226-2.766,3.148-2.774,6.146-.025,12.292-.006,18.438-.011,3.744,0,5.319-1.564,5.332-5.279.011-3.141-.01-6.283.028-9.423.024-2.023,1.029-3.153,2.7-3.157a2.4,2.4,0,0,1,2.6,2.343c.047,4.172.186,8.357-.09,12.512-.3,4.436-4.5,8.2-8.961,8.329-3.362.1-6.728.019-10.093.019Z" transform="translate(-121.796 -146.355)"/>
    </g>
  </g>
</svg>
