<svg xmlns="http://www.w3.org/2000/svg" width="100" height="100" viewBox="0 0 100 100">
  <g id="connection" transform="translate(-47 -47)">
    <rect id="Rectangle_1" data-name="Rectangle 1" width="100" height="100" transform="translate(47 47)" fill="#fff" opacity="0"/>
    <g id="Group_62341" data-name="Group 62341" transform="translate(-250.259 -1196.783)">
      <path id="Path_70679" data-name="Path 70679" d="M349.678,1286.949h1.33q4.053,0,8.106,0c1.948,0,2.656-.724,2.66-2.7,0-1.209.075-2.428-.037-3.628a11.024,11.024,0,0,0-4.86-8.257,12.954,12.954,0,0,1-18.814.017,11.432,11.432,0,0,0-4.157,5.161c-1.006,2.317-.718,4.745-.737,7.147a2.065,2.065,0,0,0,2.243,2.257c2.581.021,5.162.007,7.743.007h2.1c0,3.188.022,6.206-.033,9.222-.006.307-.412.717-.734.889a6.728,6.728,0,0,0-3.712,5.059,1.165,1.165,0,0,1-1.011,1.089c-2.578.764-5.158,1.531-7.7,2.407-.931.321-1.353.225-1.883-.681a8.216,8.216,0,0,0-10.745-3.14,8.284,8.284,0,0,0,4.1,15.706,8.13,8.13,0,0,0,7.516-5.95,1.684,1.684,0,0,1,1.3-1.331c2.887-.851,5.757-1.76,8.621-2.688a1.5,1.5,0,0,1,1.767.457,6.541,6.541,0,0,0,9.416.03,1.592,1.592,0,0,1,1.871-.47c2.749.89,5.5,1.783,8.27,2.6a2.059,2.059,0,0,1,1.642,1.586,8.284,8.284,0,0,0,15.865-4.769,8.035,8.035,0,0,0-6.664-5.924,8.162,8.162,0,0,0-8.451,3.943c-.357.609-.588,1.054-1.443.77-2.742-.91-5.514-1.729-8.256-2.636a1.332,1.332,0,0,1-.759-.843,7.067,7.067,0,0,0-3.964-5.3,1.207,1.207,0,0,1-.565-.878C349.661,1293.115,349.678,1290.134,349.678,1286.949ZM332.61,1318.1c-7.72,5.461-11.472,5.462-18.952.006a10.857,10.857,0,0,0-3.905,4.628c-1.2,2.539-1.089,5.254-.959,7.945a2.185,2.185,0,0,0,2.457,1.995q11.855.021,23.71,0a2.379,2.379,0,0,0,2.566-2.571c.026-.967.051-1.938-.01-2.9A11.473,11.473,0,0,0,332.61,1318.1Zm48.686-.007c-7.487,5.475-11.18,5.475-19.008-.015-.522.46-1.09.907-1.6,1.415-3.135,3.138-3.558,7.087-3.222,11.21a2.193,2.193,0,0,0,2.382,1.969q11.975.026,23.951,0a2.233,2.233,0,0,0,2.374-2.348,31.913,31.913,0,0,0-.021-3.627A11.15,11.15,0,0,0,381.3,1318.09Zm-25.573-54.512a8.228,8.228,0,0,0-8.207-8.333,8.327,8.327,0,1,0,8.207,8.333Z" transform="translate(0 0)" fill="#fff"/>
      <path id="Path_70680" data-name="Path 70680" d="M368.761,1340.566c0,3.185-.017,6.166.025,9.146a1.207,1.207,0,0,0,.565.878,7.067,7.067,0,0,1,3.964,5.3,1.331,1.331,0,0,0,.759.843c2.742.908,5.515,1.726,8.257,2.636.855.284,1.086-.161,1.443-.77a8.162,8.162,0,0,1,8.451-3.942,8.034,8.034,0,0,1,6.664,5.923,8.284,8.284,0,0,1-15.865,4.769,2.06,2.06,0,0,0-1.642-1.586c-2.771-.816-5.521-1.709-8.27-2.6a1.592,1.592,0,0,0-1.871.47,6.542,6.542,0,0,1-9.416-.03,1.5,1.5,0,0,0-1.767-.457c-2.864.927-5.734,1.837-8.621,2.688a1.684,1.684,0,0,0-1.3,1.331,8.13,8.13,0,0,1-7.516,5.95,8.285,8.285,0,1,1,6.647-12.567c.53.906.952,1,1.883.681,2.541-.876,5.12-1.644,7.7-2.407a1.165,1.165,0,0,0,1.011-1.089,6.73,6.73,0,0,1,3.712-5.059c.322-.172.728-.582.734-.889.055-3.016.033-6.035.033-9.222h-2.1c-2.581,0-5.162.014-7.743-.007a2.065,2.065,0,0,1-2.243-2.257c.019-2.4-.269-4.831.737-7.147a11.431,11.431,0,0,1,4.158-5.161,12.953,12.953,0,0,0,18.814-.017,11.025,11.025,0,0,1,4.86,8.257c.111,1.2.039,2.418.037,3.627,0,1.979-.712,2.7-2.66,2.7q-4.053.008-8.106,0Z" transform="translate(-19.083 -53.616)"/>
      <path id="Path_70681" data-name="Path 70681" d="M332.61,1515a11.473,11.473,0,0,1,4.906,9.1c.06.964.036,1.936.01,2.9a2.379,2.379,0,0,1-2.566,2.571q-11.855.023-23.71,0a2.185,2.185,0,0,1-2.457-1.995c-.13-2.691-.243-5.406.959-7.945a10.858,10.858,0,0,1,3.905-4.628C321.138,1520.458,324.89,1520.457,332.61,1515Z" transform="translate(0 -196.899)"/>
      <path id="Path_70682" data-name="Path 70682" d="M533.722,1514.922a11.15,11.15,0,0,1,4.856,8.6,31.884,31.884,0,0,1,.021,3.627,2.233,2.233,0,0,1-2.373,2.348q-11.975.034-23.951,0a2.193,2.193,0,0,1-2.382-1.969c-.336-4.123.087-8.071,3.222-11.21.507-.508,1.075-.955,1.6-1.415C522.542,1520.4,526.235,1520.4,533.722,1514.922Z" transform="translate(-152.426 -196.832)"/>
      <path id="Path_70683" data-name="Path 70683" d="M451.164,1263.578a8.269,8.269,0,1,1-8.207-8.333A8.263,8.263,0,0,1,451.164,1263.578Z" transform="translate(-95.441 0)"/>
    </g>
  </g>
</svg>
