<svg xmlns="http://www.w3.org/2000/svg" width="100" height="100" viewBox="0 0 100 100">
  <g id="Camera" transform="translate(-47 -47)">
    <rect id="Rectangle_1" data-name="Rectangle 1" width="100" height="100" transform="translate(47 47)" fill="#fff" opacity="0"/>
    <g id="Group_43532" data-name="Group 43532" transform="translate(52 52)">
      <path id="Path_57201" data-name="Path 57201" d="M-22.791-66a44.67,44.67,0,0,1,43.96,37.274,44.6,44.6,0,0,1-34.623,50.91c-12.078,2.6-23.357.322-33.734-6.37a1.977,1.977,0,0,0-1.939-.278c-5.266,1.8-10.555,3.525-15.832,5.291a1.78,1.78,0,0,1-1.994-.177c-.654-.617-.485-1.321-.237-2.06,1.878-5.6,3.735-11.2,5.623-16.8a1.74,1.74,0,0,0-.14-1.553,44.435,44.435,0,0,1,19.62-61.87A44.623,44.623,0,0,1-22.791-66ZM-42.176-21.456a4.465,4.465,0,0,0,4.435,4.511,4.515,4.515,0,0,0,4.472-4.406,4.511,4.511,0,0,0-4.459-4.509A4.461,4.461,0,0,0-42.176-21.456Zm29.73.015a4.466,4.466,0,0,0,4.451,4.5,4.514,4.514,0,0,0,4.458-4.42A4.511,4.511,0,0,0-8.011-25.86,4.461,4.461,0,0,0-12.446-21.442Zm-5.931.068a4.492,4.492,0,0,0-4.38-4.486,4.5,4.5,0,0,0-4.533,4.427,4.5,4.5,0,0,0,4.381,4.487A4.493,4.493,0,0,0-18.376-21.374Z" transform="translate(67.411 66)" fill="#001968"/>
    </g>
  </g>
</svg>
