<svg xmlns="http://www.w3.org/2000/svg" width="100" height="100" viewBox="0 0 100 100">
  <g id="Camera" transform="translate(-47 -47)">
    <rect id="Rectangle_1" data-name="Rectangle 1" width="100" height="100" transform="translate(47 47)" fill="#fff" opacity="0"/>
    <g id="Group_62757" data-name="Group 62757" transform="translate(58.5 58.454)">
      <path id="Path_71256" data-name="Path 71256" d="M63.264,85.546V69.835H61.238c-17.569,0-35.139.055-52.707-.061A21.73,21.73,0,0,1,.887,68.405C-10.792,63.821-13.085,48-3.335,40.092c.411-.334.81-.681,1.3-1.092A16.555,16.555,0,0,1-8.59,30.363,16.308,16.308,0,0,1-5.507,14.236C.392,7.047,6.4-.054,12.357-7.19a2.5,2.5,0,0,1,.407-.264V8.124c.777.04,1.394.1,2.012.1q26.428.008,52.856,0a18.217,18.217,0,0,1,11.723,3.8c8.021,6.317,8.238,19.2.369,25.728-.488.4-.987.8-1.387,1.117a48.52,48.52,0,0,1,4.25,4.7,16.455,16.455,0,0,1-.95,20.209c-5.9,7.19-11.9,14.292-17.86,21.429A2.938,2.938,0,0,1,63.264,85.546ZM68.8,69.889l.4.171c3.05-3.737,6.223-7.381,9.1-11.245a9.579,9.579,0,0,0,1.418-8.081,11.249,11.249,0,0,0-11.492-8.981q-30.209-.016-60.417.007a14.9,14.9,0,0,0-2.5.247A11.209,11.209,0,0,0-3.447,56.178c1.48,4.941,5.826,8.065,11.316,8.069q29.54.016,59.081,0H68.8ZM7.282,8.169,6.88,8C3.829,11.741.655,15.386-2.227,19.249a9.584,9.584,0,0,0-1.417,8.084A11.234,11.234,0,0,0,7.7,36.307q30.357.03,60.714,0a14.611,14.611,0,0,0,2.355-.247A11.208,11.208,0,0,0,79.64,22.309c-1.416-5.249-5.745-8.489-11.427-8.492q-29.541-.015-59.081,0H7.282Z" transform="translate(0 0)" fill="#001968"/>
      <path id="Path_71257" data-name="Path 71257" d="M38,187.159h5.4v5.292H38Z" transform="translate(-33.39 -136.812)" fill="#001968"/>
      <path id="Path_71258" data-name="Path 71258" d="M75.679,192.547v-5.192h5.383v5.192Z" transform="translate(-59.88 -136.95)" fill="#001968"/>
      <path id="Path_71259" data-name="Path 71259" d="M113.277,187.115h5.333V192.4h-5.333Z" transform="translate(-86.312 -136.781)" fill="#001968"/>
      <path id="Path_71260" data-name="Path 71260" d="M150.963,187.016h5.4v5.349h-5.4Z" transform="translate(-112.805 -136.712)" fill="#001968"/>
      <path id="Path_71261" data-name="Path 71261" d="M132,92.934h5.4v5.342H132Z" transform="translate(-99.475 -70.572)" fill="#001968"/>
      <path id="Path_71262" data-name="Path 71262" d="M175.269,93.159V98.42h-5.4V93.159Z" transform="translate(-126.096 -70.731)" fill="#001968"/>
      <path id="Path_71263" data-name="Path 71263" d="M207.265,98.431V93.179h5.385v5.252Z" transform="translate(-152.385 -70.745)" fill="#001968"/>
      <path id="Path_71264" data-name="Path 71264" d="M250.447,93.223v5.256h-5.412V93.223Z" transform="translate(-178.937 -70.776)" fill="#001968"/>
    </g>
  </g>
</svg>
