<svg xmlns="http://www.w3.org/2000/svg" width="93.898" height="93.895" viewBox="0 0 93.898 93.895">
  <g id="Group_63037" data-name="Group 63037" transform="translate(-6814.522 -3413.522)">
    <path id="Path_71338" data-name="Path 71338" d="M6908.414,3460.512a46.949,46.949,0,1,1-46.906-46.988A47,47,0,0,1,6908.414,3460.512Zm-47.008,42.664a42.692,42.692,0,1,0-42.633-42.73A42.647,42.647,0,0,0,6861.406,3503.176Z" transform="translate(0.006 -0.001)" fill="#001968"/>
    <path id="Path_71340" data-name="Path 71340" d="M6938.8,3552.258a3.06,3.06,0,0,1,2.422-3.344c2.664-.789,5.258-1.715,8.117-1.586,4.406.2,7.172,3.027,6.469,7.324-.586,3.629-1.75,7.168-2.633,10.75-.414,1.7-.852,3.4-1.148,5.133-.4,2.332.7,3.664,3.1,3.691a32.634,32.634,0,0,0,4.016-.449c.117,1.793-.219,2.328-1.875,2.926-2.609.941-5.187,1.887-8.062,1.816-5.344-.137-8.3-3.6-7.1-8.766.938-4.07,2.18-8.07,3.227-12.121a13.591,13.591,0,0,0,.414-3.031c.063-2.215-1.18-3.312-3.437-3.043C6941.164,3551.7,6940.039,3552,6938.8,3552.258Z" transform="translate(-87.803 -94.53)" fill="#001968"/>
    <path id="Path_71341" data-name="Path 71341" d="M6976,3504.43c-3.383-.008-6.016-2.43-5.977-5.516a5.739,5.739,0,0,1,5.984-5.375c3.391,0,5.953,2.387,5.93,5.527C6981.922,3502.117,6979.359,3504.434,6976,3504.43Z" transform="translate(-109.865 -56.534)" fill="#001968"/>
  </g>
</svg>
