<svg xmlns="http://www.w3.org/2000/svg" width="100" height="100" viewBox="0 0 100 100">
  <g id="Post-icon" transform="translate(-47 -47)">
    <rect id="Rectangle_1" data-name="Rectangle 1" width="100" height="100" transform="translate(47 47)" fill="#fff" opacity="0"/>
    <g id="Group_62737" data-name="Group 62737" transform="translate(64.403 68.444)">
      <path id="Path_71244" data-name="Path 71244" d="M20.52,45.556,51.168,8.623l-.143-.154C49.8,9.5,48.577,10.533,47.36,11.574c-11.4,9.751-22.833,19.474-34.175,29.3a3.685,3.685,0,0,1-4.308.821c-5.348-1.983-10.782-3.736-16.188-5.56-1.131-.382-2.023-.971-2.088-2.265-.062-1.237.734-1.886,1.756-2.42Q26.2,13.8,60.03-3.893c1.012-.529,1.988-.835,2.983-.057A2.621,2.621,0,0,1,63.8-1.166c-.84,5.457-1.593,10.928-2.4,16.39-.708,4.784-1.461,9.561-2.173,14.345-.813,5.461-1.6,10.927-2.4,16.389-.418,2.824-.805,5.655-1.308,8.464-.359,2.008-1.548,2.632-3.5,1.972Q45.37,54.14,38.733,51.859q-8.907-3.047-17.811-6.1A4.331,4.331,0,0,1,20.52,45.556Z" transform="translate(0 1)"/>
      <path id="Path_71245" data-name="Path 71245" d="M107.385,230.433l12.363,4.226c-1.753,2.393-3.459,4.723-5.166,7.052-.969,1.322-1.935,2.646-2.912,3.962a2.263,2.263,0,0,1-2.756,1.048,2.215,2.215,0,0,1-1.536-2.393C107.394,239.751,107.385,235.173,107.385,230.433Z" transform="translate(-90.013 -186.329)"/>
    </g>
  </g>
</svg>
