<svg xmlns="http://www.w3.org/2000/svg" width="100" height="100" viewBox="0 0 100 100">
  <g id="Report" transform="translate(-47 -47)">
    <rect id="Rectangle_1" data-name="Rectangle 1" width="100" height="100" transform="translate(47 47)" fill="#fff" opacity="0"/>
    <g id="Group_62580" data-name="Group 62580" transform="translate(54.462 53.074)">
      <path id="Path_70889" data-name="Path 70889" d="M163.239,209.764c-9.673,0-19.347.018-29.02-.007-5.467-.014-9.3-3.135-9.9-8.521a9.783,9.783,0,0,1,1.183-5.772q14.779-24.419,29.884-48.641c3.763-6.041,12.283-5.887,16.13.237,6.14,9.775,12.132,19.642,18.186,29.471,3.741,6.073,7.449,12.168,11.234,18.214,2.082,3.325,2.356,6.714.438,10.118s-5.024,4.908-8.9,4.9Q177.854,209.755,163.239,209.764Zm.053-8.419c9.393,0,18.786.015,28.179-.025a12.3,12.3,0,0,0,2.54-.547,10.257,10.257,0,0,0-.757-2.431q-14.042-22.906-28.156-45.767c-1.454-2.359-2.006-2.367-3.425-.049q-14.132,23.089-28.232,46.2a8.847,8.847,0,0,0-.645,2.046,8.64,8.64,0,0,0,2.105.55C144.366,201.358,153.829,201.345,163.293,201.345Z" transform="translate(-120.726 -132.452)" fill="#001968"/>
      <path id="Path_70890" data-name="Path 70890" d="M215.755,205.539c0,1.75.061,3.5-.016,5.251-.125,2.822-1.965,4.718-4.375,4.629s-3.962-1.872-3.985-4.7q-.042-5.147,0-10.293c.025-2.771,1.66-4.617,4.051-4.667,2.306-.048,4.111,1.841,4.32,4.525.011.139.006.28.006.42Q215.757,203.123,215.755,205.539Z" transform="translate(-168.847 -163.367)" fill="#001968"/>
      <path id="Path_70891" data-name="Path 70891" d="M211.606,264.109a3.916,3.916,0,0,1-4.177-4,4.163,4.163,0,0,1,4.157-4.332,4.422,4.422,0,0,1,4.178,4.21A4.18,4.18,0,0,1,211.606,264.109Z" transform="translate(-168.888 -198.121)" fill="#001968"/>
    </g>
  </g>
</svg>
