<svg xmlns="http://www.w3.org/2000/svg" width="100" height="100" viewBox="0 0 100 100">
  <g id="soldout" transform="translate(-40 -47)">
    <rect id="Rectangle_1" data-name="Rectangle 1" width="100" height="100" transform="translate(40 47)" fill="#fff" opacity="0"/>
    <g id="Group_62601" data-name="Group 62601" transform="matrix(0.899, -0.438, 0.438, 0.899, 346.779, -105.5)">
      <path id="Path_70899" data-name="Path 70899" d="M-319.485,93.675q-18.2,0-36.4,0c-3.331,0-4.649-1.327-4.649-4.667q0-9.516,0-19.032c0-2.986,1.45-4.675,4.368-4.368,4.825.506,8.817-.983,12.777-3.662,6.228-4.213,12.758-7.978,19.132-11.977a4.763,4.763,0,0,0,1.473-1.625,3.74,3.74,0,0,1,3.537-2.108,3.721,3.721,0,0,1,3.345,2.208,3.71,3.71,0,0,0,1.2,1.375q12.248,7.641,24.548,15.2a3.763,3.763,0,0,0,1.786.508c2.1.061,4.2.008,6.3.029a3.684,3.684,0,0,1,3.86,3.765q.058,10.287,0,20.575c-.014,2.368-1.652,3.776-4.234,3.777Q-300.964,93.682-319.485,93.675Zm25.023-28.125.112-.293-21.616-13.371c-2.508,2.5-4.155,2.5-6.815.018l-21.592,13.361.087.284H-305c.386,0,.854-.13,1.138.041.452.272,1.081.749,1.078,1.135s-.625.87-1.076,1.144c-.284.172-.752.041-1.138.041q-25.463,0-50.927,0c-1.86,0-2.26.4-2.261,2.256q-.006,9.451,0,18.9c0,1.856.383,2.225,2.276,2.225q36.587,0,73.175,0c1.789,0,2.188-.393,2.189-2.183q.007-9.514,0-19.03c0-1.761-.424-2.168-2.219-2.169q-7.781-.005-15.561,0c-.814,0-1.493-.165-1.526-1.131-.036-1.046.66-1.254,1.537-1.241C-297.029,65.564-295.745,65.55-294.462,65.55Zm-23.351-15.295q0-.308-.009-.616c-.53-.342-1.032-.9-1.6-.975a1.069,1.069,0,0,0-1.22,1.369c.135.514.81,1.215,1.264,1.231C-318.867,51.281-318.335,50.62-317.813,50.255Z" transform="translate(0 0)" fill="#001968"/>
      <path id="Path_70900" data-name="Path 70900" d="M-288.479,160.084a5.377,5.377,0,0,1-5.312,5.305,5.434,5.434,0,0,1-5.36-5.284,5.5,5.5,0,0,1,5.4-5.4A5.455,5.455,0,0,1-288.479,160.084Zm-2.438.031a2.828,2.828,0,0,0-2.87-2.936,2.829,2.829,0,0,0-2.908,2.755,2.825,2.825,0,0,0,2.794,3A2.8,2.8,0,0,0-290.916,160.115Z" transform="translate(-45.597 -80.575)" fill="#001968"/>
      <path id="Path_70901" data-name="Path 70901" d="M-167.772,160.106a5.287,5.287,0,0,1-5.316,5.287,5.349,5.349,0,0,1-5.262-5.367,5.4,5.4,0,0,1,5.343-5.318A5.354,5.354,0,0,1-167.772,160.106Zm-2.353-.037a2.868,2.868,0,0,0-2.94-2.886,2.946,2.946,0,0,0-2.94,2.935,2.934,2.934,0,0,0,2.92,2.824A2.871,2.871,0,0,0-170.125,160.069Z" transform="translate(-135.332 -80.578)" fill="#001968"/>
      <path id="Path_70902" data-name="Path 70902" d="M-223.158,160.538c0-1.156.014-2.312,0-3.467s.443-1.8,1.679-1.707a6.267,6.267,0,0,0,.9,0c1.926-.14,3.618.306,4.584,2.131a6.031,6.031,0,0,1-.078,6.122,4.12,4.12,0,0,1-3.851,2.092c-3.2-.009-3.2.027-3.211-3.116,0-.685,0-1.37,0-2.055Zm2.536,2.725c1.033.16,1.951.1,2.5-.857a3.637,3.637,0,0,0,.016-3.77,2.108,2.108,0,0,0-2.511-.862Z" transform="translate(-102.045 -81.048)" fill="#001968"/>
      <path id="Path_70903" data-name="Path 70903" d="M-130.4,160.2c0-.941-.008-1.883,0-2.823.009-.8.4-1.346,1.219-1.349.852,0,1.15.563,1.137,1.376-.023,1.5-.008,2.994,0,4.492,0,1.685.463,2.285,1.726,2.268,1.225-.016,1.631-.556,1.635-2.185,0-1.412.006-2.823,0-4.235,0-.884.151-1.719,1.244-1.712,1.006.006,1.221.8,1.207,1.631a58.787,58.787,0,0,1-.191,5.882,3.975,3.975,0,0,1-4.114,3.119,4.091,4.091,0,0,1-3.844-3.641c-.061-.937-.011-1.881-.011-2.823Z" transform="translate(-170.94 -81.557)" fill="#001968"/>
      <path id="Path_70904" data-name="Path 70904" d="M-332.91,157.983c.985.4,1.805.721,2.618,1.062,1.919.805,2.8,2.272,2.357,3.881a3.6,3.6,0,0,1-4.166,2.4,9.742,9.742,0,0,1-2.864-1.294,1.041,1.041,0,0,1-.29-1.733c.378-.3,1.2-.179,1.786-.071.766.14,1.487.542,2.254.65.286.04.643-.429.968-.667-.234-.275-.415-.649-.712-.806-.638-.338-1.336-.561-2.007-.837-1.692-.7-2.436-1.981-2.031-3.5a3.346,3.346,0,0,1,3.6-2.3,7.244,7.244,0,0,1,2.692,1.075c.344.23.279,1.07.4,1.633-.565.094-1.229.426-1.675.239C-331.586,157.044-331.858,156.979-332.91,157.983Z" transform="translate(-18.511 -80.595)" fill="#001968"/>
      <path id="Path_70905" data-name="Path 70905" d="M-90,158.31c-1.107-.129-2.372-.025-2.25-1.439.112-1.3,1.311-1.08,2.229-1.1.94-.016,1.88,0,2.821-.005.869-.008,1.757.113,1.8,1.171s-.794,1.288-1.689,1.3c-.127,0-.253.028-.574.066v5.422c0,.342-.023.685,0,1.025.07.884-.233,1.64-1.157,1.669-.953.03-1.2-.727-1.193-1.611C-89.979,162.679-90,160.548-90,158.31Z" transform="translate(-199.285 -81.366)" fill="#001968"/>
      <path id="Path_70906" data-name="Path 70906" d="M-248.345,162.966a5.341,5.341,0,0,1,1.8.175,1.854,1.854,0,0,1,.964,1.222c.022.34-.6.98-1,1.041a9.613,9.613,0,0,1-3.059-.013,1.63,1.63,0,0,1-1.016-1.185c-.094-2.691-.1-5.389,0-8.079.017-.449.711-.872,1.092-1.307.405.462,1.133.906,1.161,1.389C-248.274,158.419-248.345,160.641-248.345,162.966Z" transform="translate(-81.568 -80.661)" fill="#001968"/>
    </g>
  </g>
</svg>
