<svg xmlns="http://www.w3.org/2000/svg" width="100" height="100" viewBox="0 0 100 100">
  <g id="visible-everyone" transform="translate(-47 -47)">
    <rect id="Rectangle_1" data-name="Rectangle 1" width="100" height="100" transform="translate(47 47)" fill="#fff" opacity="0"/>
    <g id="Group_62313" data-name="Group 62313" transform="translate(-357.835 -1016.441)">
      <path id="Path_70587" data-name="Path 70587" d="M477.951,1134.908c4.426,6.835,3.927,14.523,3.758,22.248H427.973c-.154-7.69-.688-15.376,3.775-22.272-9.428-8.08-14.1-18.236-13.479-30.579.5-9.921,4.641-18.248,11.892-25.038,14.111-13.212,36.741-12.594,50.633,1.2C495.046,1094.609,495.893,1120.223,477.951,1134.908Zm-35.22-7.14a24.462,24.462,0,0,0-10.206,11.688c-1.835,4.3-1.812,8.826-1.814,13.374,0,1.282.373,1.6,1.626,1.595,10.512-.049,21.024-.028,31.536-.028,4.59,0,9.181-.03,13.771.022,1.043.012,1.365-.319,1.315-1.336-.075-1.511-.015-3.029-.025-4.543a23.562,23.562,0,0,0-5.026-14.663,22.373,22.373,0,0,0-7.118-6.14L454.754,1147Zm2.084-18.5a16.537,16.537,0,0,0,5.288,11.969,6.336,6.336,0,0,0,8.309.747c4.447-2.955,8.243-11.642,5.156-18.069-3.013-6.273-10.338-7.991-15.175-3.426A11.315,11.315,0,0,0,444.815,1109.264Zm20.945,14.8a27.8,27.8,0,0,1,10.626,8.389,33.486,33.486,0,0,0,8.389-10.413,2.3,2.3,0,0,0-.408-.108c-6.975-.008-13.95-.028-20.924.016a2.487,2.487,0,0,0-1.485.754c-4.5,4.351-9.872,4.365-14.415.072a3.239,3.239,0,0,0-2-.823c-6.47-.061-12.94-.038-19.411-.033-.39,0-.779.046-1.2.072,1.26,3.153,4.73,7.467,8.382,10.435a27.332,27.332,0,0,1,10.452-8.314l6.577,10.535c.378-1,.642-1.728.924-2.448.43-1.093.583-2.612,1.389-3.153.831-.557,2.305-.107,3.491-.2a1.233,1.233,0,0,1,1.462,1.018c.47,1.457,1.035,2.883,1.651,4.57Zm-27.1-33.346h14.683V1072.7C447.164,1073.409,440.89,1081.141,438.663,1090.717Zm17.62.025h14.832c-.318-1.01-.569-1.928-.894-2.82-1.579-4.336-3.621-8.41-6.992-11.661a12.009,12.009,0,0,0-6.946-3.613Zm-21.464,28.3-1.237-11.229H421.054a31.2,31.2,0,0,0,2.146,10.513,1.5,1.5,0,0,0,1.127.682c1.6.078,3.21.033,4.816.034Zm40.073,0c3.03,0,6.092.019,9.155-.006,2.653-.022,2.1.426,2.981-2.181a29.014,29.014,0,0,0,1.579-9.051H476.1Zm-41.325-14.206,1.247-11.229c-3.546,0-7.167-.012-10.787.026a1.069,1.069,0,0,0-.751.593,31.87,31.87,0,0,0-2.22,10.609Zm52.632-11.125H474.866c.426,3.765.84,7.434,1.254,11.092h12.528A32.384,32.384,0,0,0,486.2,1093.711Zm-41.92-19.381a33.442,33.442,0,0,0-19.481,16.429h10.9C437.428,1084.664,439.966,1079.05,444.279,1074.33Zm40.636,16.439c-4.491-8.114-10.858-13.6-19.5-16.414,4.327,4.715,6.843,10.348,8.587,16.414Zm-12.854,2.9H456.326v1.47a13.269,13.269,0,0,1,10.282,8.69c.164.406.545,1.012.851,1.028,1.859.1,3.724.048,5.857.048C472.884,1101.038,472.478,1097.406,472.061,1093.672Zm-35.69,11.189h6.16c1.812-5.254,5.217-8.723,10.817-9.736v-1.455H437.627Zm28.4,14.216h4.111c2.893,0,3.017.02,3.465-2.8.441-2.772.594-5.591.88-8.463H467.48A20.761,20.761,0,0,1,464.77,1119.077Zm-20.083-.113a22.02,22.02,0,0,1-2.771-11.154h-5.527c.432,3.8.848,7.451,1.269,11.154Zm10.068,22.727c.864-1.372,1.658-2.589,2.394-3.839a1.207,1.207,0,0,0,.032-.889c-.529-1.551-1.082-3.1-1.679-4.621-.108-.274-.458-.453-.7-.676-.22.253-.532.471-.646.766q-.883,2.293-1.667,4.625a1.419,1.419,0,0,0,.016,1.029C453.182,1139.26,453.934,1140.392,454.754,1141.692Z" transform="translate(0 0)"/>
    </g>
  </g>
</svg>
