<svg xmlns="http://www.w3.org/2000/svg" width="100" height="100" viewBox="0 0 100 100">
  <g id="Website" transform="translate(-47 -47)">
    <rect id="Rectangle_1" data-name="Rectangle 1" width="100" height="100" transform="translate(47 47)" fill="#fff" opacity="0"/>
    <g id="Group_62579" data-name="Group 62579" transform="translate(70.905 71.453)">
      <path id="Path_70886" data-name="Path 70886" d="M137.256-10.453A16.884,16.884,0,0,1,154.032,3.292a15.735,15.735,0,0,1-4.007,14.162c-5.389,5.679-10.91,11.247-16.6,16.625a16.646,16.646,0,0,1-22.807-.363,4.742,4.742,0,1,1,6.289-7.1,8.208,8.208,0,0,0,4.457,2.146,6.917,6.917,0,0,0,5.851-1.947c5.171-5.11,10.338-10.225,15.428-15.416A7.2,7.2,0,0,0,132.434,1.261c-2.915,2.807-5.758,5.69-8.594,8.577a1.9,1.9,0,0,1-2.37.568,19.109,19.109,0,0,0-7.01-1.323,1.974,1.974,0,0,1-1.531-.767,1.9,1.9,0,0,1,.52-1.6Q119.517.541,125.68-5.54A16.586,16.586,0,0,1,137.256-10.453Z" transform="translate(-92.169 0)" fill="#001968"/>
      <path id="Path_70887" data-name="Path 70887" d="M23.21,92.513a16.3,16.3,0,0,1,10.437,4.5c2.174,1.991,2.421,4.9.608,6.9a4.844,4.844,0,0,1-6.942.2c-2.593-2.217-5.674-2.69-8.4-1.214a8.732,8.732,0,0,0-1.964,1.476Q9.451,111.823,2,119.319a7.149,7.149,0,0,0,3.389,12.234,6.877,6.877,0,0,0,6.779-2.011c2.816-2.8,5.637-5.6,8.41-8.441a1.968,1.968,0,0,1,2.463-.574,19.167,19.167,0,0,0,6.9,1.289,2.167,2.167,0,0,1,1.62.816c.187.322-.192,1.2-.569,1.586q-5.988,6.093-12.069,12.1a16.7,16.7,0,0,1-27.924-6.706,15.544,15.544,0,0,1,3.5-16.19c5.364-5.75,11.028-11.225,16.656-16.722C13.958,93.965,18.164,92.52,23.21,92.513Z" transform="translate(0 -79.809)" fill="#001968"/>
    </g>
  </g>
</svg>
