<svg xmlns="http://www.w3.org/2000/svg" width="16.19" height="8.642" viewBox="0 0 16.19 8.642">
  <g id="flag" transform="translate(-141.238 -218.305)">
    <rect id="Rectangle_11640" data-name="Rectangle 11640" width="16.19" height="2.881" transform="translate(141.238 221.185)" fill="#fff"/>
    <rect id="Rectangle_11641" data-name="Rectangle 11641" width="16.19" height="2.881" transform="translate(141.238 218.305)" fill="#f08523"/>
    <rect id="Rectangle_11642" data-name="Rectangle 11642" width="16.19" height="2.881" transform="translate(141.238 224.066)" fill="#3e7a1f"/>
    <g id="Group_59588" data-name="Group 59588" transform="translate(148.169 221.461)">
      <g id="Group_59587" data-name="Group 59587" transform="translate(0.099 0.067)">
        <g id="Group_59586" data-name="Group 59586">
          <path id="Path_68518" data-name="Path 68518" d="M470.091,350.783l-.04-.192.04-.68.04.68Z" transform="translate(-469.025 -349.91)" fill="#003887"/>
          <path id="Path_68519" data-name="Path 68519" d="M479.563,393.118l.192-.04.68.04-.68.04Z" transform="translate(-478.304 -392.021)" fill="#003887"/>
          <path id="Path_68520" data-name="Path 68520" d="M479.563,384.674l.179-.08.673-.105-.656.183Z" transform="translate(-478.304 -383.641)" fill="#003887"/>
          <path id="Path_68521" data-name="Path 68521" d="M478.867,373.354l.15-.127.617-.289-.578.359Z" transform="translate(-477.626 -372.373)" fill="#003887"/>
          <path id="Path_68522" data-name="Path 68522" d="M477.828,363.588l.107-.165.507-.455-.45.511Z" transform="translate(-476.612 -362.649)" fill="#003887"/>
          <path id="Path_68523" data-name="Path 68523" d="M475.895,357.34l.067-.185.391-.558-.323.6Z" transform="translate(-474.726 -356.434)" fill="#003887"/>
          <path id="Path_68524" data-name="Path 68524" d="M473.949,352.764l.015-.2.226-.642-.15.664Z" transform="translate(-472.828 -351.876)" fill="#003887"/>
          <path id="Path_68525" data-name="Path 68525" d="M429.068,393.118l-.192-.04-.68.04.68.04Z" transform="translate(-428.195 -392.021)" fill="#003887"/>
          <path id="Path_68526" data-name="Path 68526" d="M429.857,384.674l-.18-.08-.673-.105.656.183Z" transform="translate(-428.984 -383.641)" fill="#003887"/>
          <path id="Path_68527" data-name="Path 68527" d="M433.955,373.354l-.151-.127-.617-.289.579.359Z" transform="translate(-433.065 -372.373)" fill="#003887"/>
          <path id="Path_68528" data-name="Path 68528" d="M441.083,363.588l-.107-.165-.507-.455.45.511Z" transform="translate(-440.168 -362.649)" fill="#003887"/>
          <path id="Path_68529" data-name="Path 68529" d="M449.235,357.34l-.067-.185-.391-.558.323.6Z" transform="translate(-448.273 -356.434)" fill="#003887"/>
          <path id="Path_68530" data-name="Path 68530" d="M459.823,352.764l-.015-.2-.226-.642.149.664Z" transform="translate(-458.813 -351.876)" fill="#003887"/>
          <path id="Path_68531" data-name="Path 68531" d="M470.091,403.867l.04.192-.04.68-.04-.68Z" transform="translate(-469.025 -402.545)" fill="#003887"/>
          <path id="Path_68532" data-name="Path 68532" d="M429.857,397.344l-.18.08-.673.106.656-.183Z" transform="translate(-428.984 -396.182)" fill="#003887"/>
          <path id="Path_68533" data-name="Path 68533" d="M433.955,399.453l-.151.127-.617.29.579-.36Z" transform="translate(-433.065 -398.239)" fill="#003887"/>
          <path id="Path_68534" data-name="Path 68534" d="M441.083,401.125l-.107.165-.507.455.45-.511Z" transform="translate(-440.168 -399.87)" fill="#003887"/>
          <path id="Path_68535" data-name="Path 68535" d="M449.235,402.484l-.067.185-.391.558.323-.6Z" transform="translate(-448.273 -401.197)" fill="#003887"/>
          <path id="Path_68536" data-name="Path 68536" d="M459.823,403.234l-.015.2-.226.642.149-.665Z" transform="translate(-458.813 -401.928)" fill="#003887"/>
          <path id="Path_68537" data-name="Path 68537" d="M479.563,397.344l.179.08.673.106-.656-.183Z" transform="translate(-478.304 -396.182)" fill="#003887"/>
          <path id="Path_68538" data-name="Path 68538" d="M478.867,399.453l.15.127.617.29-.578-.36Z" transform="translate(-477.626 -398.239)" fill="#003887"/>
          <path id="Path_68539" data-name="Path 68539" d="M477.828,401.125l.107.165.507.455-.45-.511Z" transform="translate(-476.612 -399.87)" fill="#003887"/>
          <path id="Path_68540" data-name="Path 68540" d="M475.895,402.484l.067.185.391.558-.323-.6Z" transform="translate(-474.726 -401.197)" fill="#003887"/>
          <path id="Path_68541" data-name="Path 68541" d="M473.949,403.234l.015.2.226.642-.15-.665Z" transform="translate(-472.828 -401.928)" fill="#003887"/>
        </g>
        <path id="Path_68542" data-name="Path 68542" d="M462.89,385.672a.227.227,0,1,1-.227-.227A.226.226,0,0,1,462.89,385.672Z" transform="translate(-461.598 -384.575)" fill="#003887"/>
      </g>
      <path id="Path_68543" data-name="Path 68543" d="M425.32,347.164a1.164,1.164,0,1,0,1.164,1.164A1.166,1.166,0,0,0,425.32,347.164Zm.729,1.972a.072.072,0,0,0-.059-.031.073.073,0,0,0-.073.073.071.071,0,0,0,.018.047,1.137,1.137,0,0,1-.11.066.073.073,0,0,0-.134.059,1.035,1.035,0,0,1-.145.042.073.073,0,0,0-.146.012.044.044,0,0,0,0,.008c-.027,0-.054,0-.082,0l-.078,0s0-.006,0-.008a.073.073,0,0,0-.145-.012,1.062,1.062,0,0,1-.145-.041.075.075,0,0,0,.007-.03.073.073,0,0,0-.141-.029,1.035,1.035,0,0,1-.11-.066.072.072,0,0,0,.019-.049.073.073,0,0,0-.134-.041,1.1,1.1,0,0,1-.089-.09.073.073,0,0,0-.089-.116,1.1,1.1,0,0,1-.075-.132.073.073,0,0,0-.028-.141.077.077,0,0,0-.027,0,1.08,1.08,0,0,1-.033-.126.073.073,0,0,0-.014-.145h0c0-.022,0-.043,0-.065s0-.03,0-.044h.005a.073.073,0,0,0,.01-.145,1.1,1.1,0,0,1,.035-.141.075.075,0,0,0,.028.005.073.073,0,0,0,.025-.142,1.1,1.1,0,0,1,.08-.14.072.072,0,0,0,.042.013.073.073,0,0,0,.048-.128,1.124,1.124,0,0,1,.091-.091.074.074,0,0,0,.056.027.073.073,0,0,0,.073-.073.072.072,0,0,0-.014-.043,1.064,1.064,0,0,1,.106-.063.073.073,0,0,0,.139-.032.072.072,0,0,0-.005-.027,1.069,1.069,0,0,1,.144-.04.073.073,0,0,0,.146-.006.094.094,0,0,0,0-.014c.026,0,.052,0,.079,0s.055,0,.082,0a.064.064,0,0,0,0,.014.073.073,0,0,0,.146.006,1.092,1.092,0,0,1,.144.041.076.076,0,0,0,0,.026.073.073,0,0,0,.138.033,1.16,1.16,0,0,1,.106.063.072.072,0,0,0-.013.042.073.073,0,0,0,.128.048,1.073,1.073,0,0,1,.085.085.073.073,0,1,0,.09.115,1.079,1.079,0,0,1,.084.146.073.073,0,0,0,.028.141.07.07,0,0,0,.026,0,1.119,1.119,0,0,1,.034.139h-.006a.073.073,0,0,0,0,.146.065.065,0,0,0,.021,0c0,.016,0,.032,0,.048s0,.045,0,.068a.067.067,0,0,0-.02,0,.073.073,0,0,0,0,.147h0a1.148,1.148,0,0,1-.032.124.074.074,0,0,0-.024,0,.073.073,0,0,0-.03.14,1.119,1.119,0,0,1-.074.13.073.073,0,0,0-.089.116A1.182,1.182,0,0,1,426.049,349.136Z" transform="translate(-424.156 -347.164)" fill="#003887"/>
    </g>
  </g>
</svg>
