<?xml version="1.0" encoding="utf-8"?>
<!-- Generator: Adobe Illustrator 26.0.1, SVG Export Plug-In . SVG Version: 6.00 Build 0)  -->
<svg version="1.1" id="Layer_1" xmlns="http://www.w3.org/2000/svg" xmlns:xlink="http://www.w3.org/1999/xlink" x="0px" y="0px"
	 viewBox="0 0 7390 6628" style="enable-background:new 0 0 7390 6628;" xml:space="preserve">
<style type="text/css">
	.st0{fill:#FED0EA;}
	.st1{fill:#001969;}
	.st2{fill:#E2047F;}
	.st3{fill:#001968;}
</style>
<g>
	<path class="st0" d="M3458.2,5442H961.8c-74.4,0-134.8-60.3-134.8-134.8v-614.5c0-74.4,60.3-134.8,134.8-134.8h2496.5
		c74.4,0,134.8,60.3,134.8,134.8v614.5C3593,5381.7,3532.7,5442,3458.2,5442z"/>
	<g>
		<g>
			<path class="st1" d="M2262.1,1916c20.6,5.7,41.2,11.7,61.9,17.1c148.3,38.8,296.6,77.5,444.9,116.3c1.3,0.3,2.5,1.1,4.7,2.1
				c-46.6,29-92.5,57.6-139.2,86.7c332.7,531.3,664.9,1061.8,998,1593.7c66.8-118.1,130.5-236.2,190.3-356.3
				c59.7-119.9,117.3-240.8,176.1-361.7c18.2,13.8,37.6,28.5,57,43.2c75.2,57,150.3,114,225.5,170.9c1.7,1.3,3.8,2.2,5.7,3.2
				c0,0.6,0,1.1,0,1.7c-7.1,13.8-14.4,27.5-21.4,41.3c-70.2,140.6-149,276.6-227.3,412.8c-129.5,225.2-258.7,450.6-388,676
				c-1.5,2.6-3.2,5.2-5.3,8.6c-439.2-681.4-877.7-1361.9-1316.6-2042.9c-56.9,35.4-113.2,70.4-171.3,106.6c3-15.7,5.5-29.4,8.3-43.2
				c16.9-84.6,33.8-169.2,50.8-253.8c14.6-72.7,29.3-145.3,43.9-218c0.3-1.4,0.2-2.8,0.2-4.2C2260.9,1916,2261.5,1916,2262.1,1916z"
				/>
			<g>
				<path class="st2" d="M3199.1,2886.1c14.7-41.1,28.3-80.1,42.6-118.8c2.8-7.6,1.9-11.7-4.2-17.3
					c-68.3-62.7-122.5-136.3-167.1-217.2c-59-107.2-98.5-221.5-123.1-341.1c-11.1-53.9-19-108.3-20.3-163.3
					c-1.1-46.5-2.8-93.3,0.6-139.7c15.3-207.3,80.8-396.6,208.7-562.1c107-138.4,242.4-237.8,410.8-289.6
					c47.7-14.7,96.4-25.3,146.3-28.3c37.7-2.3,75.6-4.7,113.2-2.9c92.4,4.5,181.3,26.1,266.1,63.3c146,64.1,264.1,162.9,359.2,289.9
					c89.6,119.7,149.1,253.5,182.7,398.9c10.8,46.9,19.3,94.3,22.6,142.4c2.5,35.7,3.4,71.4,5.6,107.1c2.4,39.6-2.7,78.7-7.2,117.8
					c-5.6,49.2-10.6,98.6-19.5,147.3c-12.6,68.9-26.4,137.8-43.3,205.7c-63.3,254.1-159.9,495.8-273.9,730.9
					c-3.7,7.6-7.5,15.2-11.8,23.9c-96.7-73.3-192.7-146.2-288.9-219.2c14.6-33.7,29.2-66.9,43.4-100.2
					c57.9-136,111.2-273.7,153.4-415.5c20.7-69.4,38.3-139.6,50-211.1c4.7-28.8,8.5-57.8,10.3-86.9c2.5-39.8,4.5-79.8,3.6-119.7
					c-4.1-164.7-45.7-318.4-139.2-455.9c-51.8-76.1-116.3-138.6-198.7-181.4c-44.7-23.2-92.1-38.1-142.3-42.7
					c-92.4-8.6-176.4,15.3-252.4,67.8c-78.2,54-133.7,127.2-175,211.7c-32.3,66-53.2,135.7-65.4,208.2
					c-9.8,58.5-13.7,117.3-11.3,176.4c3,73.5,12.4,146.2,35.5,216.4c11.8,35.8,28.7,69.1,52.5,98.6c2.7,3.3,5.6,6.4,8.5,9.6
					c0.9,1,2.1,1.8,4.1,3.6c10.2-28.3,20.1-55.8,30.5-84.9c91.2,132.5,181.6,263.7,272.7,395.9
					C3518.8,2764.5,3360,2824.9,3199.1,2886.1z"/>
			</g>
		</g>
		<g>
			<path class="st1" d="M3860.3,1929.8c-4.7,87.3-41.7,162.2-128.2,205.8c-79.8,40.2-176.6,20.1-237.9-47
				c-37.5-41-58.5-89.3-62.5-144.7c-5.8-79.6,19.5-147.6,79-201.4c32.2-29.1,70.5-45.8,114-50.3c102-10.6,183.9,56.2,216.6,136.7
				C3853.6,1859.2,3859.3,1890.8,3860.3,1929.8z M3788.7,1935.5c0-40.9-7.9-69.8-23.9-96.1c-50.1-82.6-156.7-93.7-222.6-23.2
				c-53.6,57.4-54.8,156.6-2.5,215.2c48.5,54.5,121.3,65.9,179.6,26.8C3766.1,2027,3786.7,1981.1,3788.7,1935.5z"/>
		</g>
		<g>
			<path class="st2" d="M3650.5,2025.2c-29.2-26.5-55.8-54.2-73.1-89.7c-23-47.1,5.9-94.4,55.3-104.4c22.8-4.6,44.2,0,63.3,12.8
				c29.3,19.6,39.5,52.7,26.5,86c-13.5,34.4-37.4,61.3-63,87C3656.9,2019.5,3654.1,2021.9,3650.5,2025.2z M3646.2,1874.5
				c-15.3,0-26.9,12.3-26.9,28.8c0,16.3,11.7,29.3,26.6,29.5c14.5,0.1,27.1-13.3,27.2-29.2
				C3673.1,1887.5,3661.2,1874.5,3646.2,1874.5z"/>
		</g>
	</g>
	<g>
		<path class="st3" d="M976.5,5283.2V5148c58.2,25.7,133.2,42.4,196.4,42.4c79,0,117.4-8.9,117.4-58.2s-38.5-61.2-148-92.8
			C1012,5001,966.6,4952.6,966.6,4852c0-121.4,87.8-187.5,257.6-187.5c73,0,149,12.8,192.4,27.6v136.2
			c-57.2-22.7-115.5-32.6-168.8-32.6c-71.1,0-119.4,7.9-119.4,55.3c0,41.5,30.6,52.3,132.2,79c155.9,42.4,192.4,107.6,192.4,202.3
			c0,112.5-85.9,187.5-264.5,187.5C1104.8,5319.8,1028.8,5306.9,976.5,5283.2z"/>
		<path class="st3" d="M1534.1,4674.3h136.2l270.4,380v-380h159.9v635.6h-137.2l-270.4-379v379h-158.9V4674.3z"/>
		<path class="st3" d="M2424.3,4674.3H2596l242.8,635.6H2673l-57.2-144.1h-212.2l-56.3,144.1h-165.8L2424.3,4674.3z M2594,5048.4
			l-84.9-221.1l-83.9,221.1H2594z"/>
		<path class="st3" d="M2919.7,4674.3h312.8c152,0,223,98.7,223,227c0,131.3-87.8,222.1-227,222.1h-150v186.5h-158.9V4674.3z
			 M3193.1,5001c67.1,0,100.7-40.5,100.7-100.7c0-65.1-30.6-103.6-95.7-103.6h-119.4V5001H3193.1z"/>
	</g>
	<g>
		<path class="st3" d="M3702.4,4674.3h158.9v513.2h300v122.4h-458.9V4674.3z"/>
		<path class="st3" d="M4138.6,4995.1c0-234.9,109.5-330.6,316.8-330.6c206.3,0,316.8,95.7,316.8,330.6
			c0,223-110.5,324.7-316.8,324.7C4248.1,5319.8,4138.6,5218.1,4138.6,4995.1z M4609.4,4995.1c0-142.1-47.4-194.4-154-194.4
			c-107.6,0-154.9,52.3-154.9,194.4c0,130.3,47.4,189.5,154.9,189.5C4562,5184.6,4609.4,5125.3,4609.4,4995.1z"/>
		<path class="st3" d="M4808.7,4997c0-212.2,113.5-332.6,340.5-332.6c78,0,136.2,12.8,192.4,32.6v139.2
			c-57.2-23.7-115.5-35.5-180.6-35.5c-132.2,0-190.5,61.2-190.5,196.4c0,129.3,65.1,187.5,192.4,187.5c62.2,0,122.4-10.9,179.6-34.5
			v140.1c-55.3,18.8-114.5,29.6-192.4,29.6C4928.1,5319.8,4808.7,5199.4,4808.7,4997z"/>
		<path class="st3" d="M5621.9,4674.3h171.7l242.8,635.6h-165.8l-57.2-144.1h-212.2l-56.3,144.1h-165.8L5621.9,4674.3z
			 M5791.7,5048.4l-84.9-221.1l-83.9,221.1H5791.7z"/>
		<path class="st3" d="M6117.4,4674.3h158.9v513.2h300v122.4h-458.9V4674.3z"/>
	</g>
	<g>
		<path class="st3" d="M866.5,5573.4h128.7v24.4h-97.5v55.9h86.9v24.1h-86.9v56.2h97.5v24.1H866.5V5573.4z"/>
		<path class="st3" d="M1074.6,5688.9l-49.9-66.8h33.5l33.2,45.3l33.2-45.3h33.5l-49.6,66.8l51.6,69.1h-33.8l-35-47.3l-35,47.3
			h-33.8L1074.6,5688.9z"/>
		<path class="st3" d="M1202.5,5622.1h26.9l1.7,13.5c12.3-10.9,26.1-16.3,45.9-16.3c39,0,61.9,19.5,61.9,68.5
			c0,49-24.1,73.1-63.1,73.1c-16.6,0-30.4-3.7-42.1-11.5v70.5h-31.2V5622.1z M1307.4,5687.5c0-32.1-10.9-44.4-38.7-44.4
			c-14,0-25.5,4.6-35,14.3v67.9c8.6,7.5,19.2,12,34.1,12C1294.5,5737.4,1307.4,5721.3,1307.4,5687.5z"/>
		<path class="st3" d="M1380.7,5725.6v-160.8h31.2v157.9c0,10.6,3.7,13.8,11.5,13.8c4.3,0,8.9-0.6,13.2-1.7v22.6
			c-7.2,2.6-13.5,3.4-22.1,3.4C1392.2,5760.9,1380.7,5750.8,1380.7,5725.6z"/>
		<path class="st3" d="M1453.8,5690.1c0-45.3,22.1-70.8,70.8-70.8c49,0,71.1,25.5,71.1,70.8c0,45.6-21.8,70.8-71.1,70.8
			C1475.6,5760.9,1453.8,5735.6,1453.8,5690.1z M1564.2,5690.1c0-31.2-10.9-44.1-39.6-44.1c-28.4,0-39.3,12.9-39.3,44.1
			c0,31.5,10.9,44.4,39.3,44.4C1553.3,5734.5,1564.2,5721.6,1564.2,5690.1z"/>
		<path class="st3" d="M1637.6,5622.1h28.7l1.7,15.8c12.9-8.3,32.1-15.8,49.9-18.6v23.8c-16.1,2.9-37.8,10-49,16.9v98h-31.2V5622.1z
			"/>
		<path class="st3" d="M1739.9,5689.8c0-43.6,21.8-70.5,67.1-70.5c41.3,0,62.2,24.1,62.2,57.9v25.2h-99.5
			c3.2,26.4,18.1,34.7,51,34.7c13.8,0,29.2-2.9,40.1-7.2v22.9c-12.3,5.4-28.4,8-46.4,8C1766.8,5760.9,1739.9,5737.9,1739.9,5689.8z
			 M1841.6,5682v-9.5c0-18.6-9.5-29.8-33.8-29.8c-29,0-38.1,12.3-38.1,39.3H1841.6z"/>
		<path class="st3" d="M2089,5689.5l-66.2-116.1h32.4l49.3,89.7l49.3-89.7h32.4l-66.2,116.1v68.5h-31V5689.5z"/>
		<path class="st3" d="M2192.2,5690.1c0-45.3,22.1-70.8,70.8-70.8c49,0,71.1,25.5,71.1,70.8c0,45.6-21.8,70.8-71.1,70.8
			C2214,5760.9,2192.2,5735.6,2192.2,5690.1z M2302.5,5690.1c0-31.2-10.9-44.1-39.6-44.1c-28.4,0-39.3,12.9-39.3,44.1
			c0,31.5,10.9,44.4,39.3,44.4C2291.7,5734.5,2302.5,5721.6,2302.5,5690.1z"/>
		<path class="st3" d="M2374.5,5707.8v-85.7h31.2v85.7c0,20.4,9.7,29.5,30.4,29.5c15.2,0,28.7-6.3,38.1-15.8v-99.5h31V5758h-28.4
			l-1.4-14c-12.3,9.7-29.2,16.9-50.4,16.9C2392.5,5760.9,2374.5,5742.5,2374.5,5707.8z"/>
		<path class="st3" d="M2553.1,5622.1h28.7l1.7,15.8c12.9-8.3,32.1-15.8,49.9-18.6v23.8c-16.1,2.9-37.8,10-49,16.9v98h-31.2V5622.1z
			"/>
		<path class="st3" d="M2787.2,5573.4h27.5l96.3,135.9v-135.9h31V5758h-27.5l-96-135.6V5758h-31.2V5573.4z"/>
		<path class="st3" d="M2984.2,5689.8c0-43.6,21.8-70.5,67.1-70.5c41.3,0,62.2,24.1,62.2,57.9v25.2H3014c3.2,26.4,18.1,34.7,51,34.7
			c13.8,0,29.2-2.9,40.1-7.2v22.9c-12.3,5.4-28.4,8-46.4,8C3011.1,5760.9,2984.2,5737.9,2984.2,5689.8z M3085.9,5682v-9.5
			c0-18.6-9.5-29.8-33.8-29.8c-29,0-38.1,12.3-38.1,39.3H3085.9z"/>
		<path class="st3" d="M3161.6,5645.9h-20.6l2.9-23.8h49V5758h-31.2V5645.9z M3159,5568h34.1v25.8H3159V5568z"/>
		<path class="st3" d="M3239.5,5801v-24.1c15.2,5.2,36.7,7.7,54.7,7.7c27.5,0,39.6-2,39.6-12.6c0-8-4.9-10.9-22.1-10.9h-36.7
			c-24.4,0-37-9.2-37-26.1c0-11.2,6.3-21.5,20.4-26.4c-15.8-7.7-22.9-21.2-22.9-39.8c0-34.7,20.9-49.6,62.5-49.6
			c8.6,0,19.5,1.7,24.9,2.9h49.9l-0.9,20.4H3349c7.2,6.3,10.6,15.8,10.6,26.4c0,29.2-17.5,46.7-53,46.7c-6.3,0-10.9-0.6-16.9-1.4
			c-11.5,1.1-22.4,6.3-22.4,14.6c0,5.7,4,8,14.9,8h38.1c27.2,0,42.4,12,42.4,34.1c0,26.9-23.8,37.5-67.1,37.5
			C3275.4,5808.4,3253.6,5805.9,3239.5,5801z M3331.3,5668c0-20.4-8.6-29-33.2-29c-23.5,0-33.5,8-33.5,29c0,19.5,8.9,27.8,33.5,27.8
			C3323,5695.8,3331.3,5688.3,3331.3,5668z"/>
		<path class="st3" d="M3410.9,5564.8h31.2v70.5c11.8-9.5,28.4-16.1,49-16.1c34.4,0,50.4,16.1,50.4,50.7v88h-31v-86.6
			c0-20.9-8-28.4-30.1-28.4c-13.8,0-29.2,6.6-38.4,16.1v98.9h-31.2V5564.8z"/>
		<path class="st3" d="M3616.7,5744.5l-1.7,13.5h-26.9v-193.2h31.2v66.2c12-8,26.4-11.8,42.7-11.8c38.7,0,62.5,20.9,62.5,69.7
			c0,49.3-23.8,71.9-61.9,71.9C3642.8,5760.9,3629.1,5755.7,3616.7,5744.5z M3693,5688.9c0-33.5-12-45.9-39.3-45.9
			c-14,0-26.1,4.3-34.4,11.8v68.2c8.9,9.5,21.2,14.3,35,14.3C3682.4,5737.4,3693,5721.3,3693,5688.9z"/>
		<path class="st3" d="M3753.5,5690.1c0-45.3,22.1-70.8,70.8-70.8c49,0,71.1,25.5,71.1,70.8c0,45.6-21.8,70.8-71.1,70.8
			C3775.3,5760.9,3753.5,5735.6,3753.5,5690.1z M3863.8,5690.1c0-31.2-10.9-44.1-39.6-44.1c-28.4,0-39.3,12.9-39.3,44.1
			c0,31.5,10.9,44.4,39.3,44.4C3852.9,5734.5,3863.8,5721.6,3863.8,5690.1z"/>
		<path class="st3" d="M3937.2,5622.1h28.7l1.7,15.8c12.9-8.3,32.1-15.8,49.9-18.6v23.8c-16.1,2.9-37.8,10-49,16.9v98h-31.2V5622.1z
			"/>
		<path class="st3" d="M4053.9,5564.8h31.2v70.5c11.8-9.5,28.4-16.1,49-16.1c34.4,0,50.4,16.1,50.4,50.7v88h-31v-86.6
			c0-20.9-8-28.4-30.1-28.4c-13.8,0-29.2,6.6-38.4,16.1v98.9h-31.2V5564.8z"/>
		<path class="st3" d="M4225.3,5690.1c0-45.3,22.1-70.8,70.8-70.8c49,0,71.1,25.5,71.1,70.8c0,45.6-21.8,70.8-71.1,70.8
			C4247,5760.9,4225.3,5735.6,4225.3,5690.1z M4335.6,5690.1c0-31.2-10.9-44.1-39.6-44.1c-28.4,0-39.3,12.9-39.3,44.1
			c0,31.5,10.9,44.4,39.3,44.4C4324.7,5734.5,4335.6,5721.6,4335.6,5690.1z"/>
		<path class="st3" d="M4396.1,5690.1c0-45.3,22.1-70.8,70.8-70.8c49,0,71.1,25.5,71.1,70.8c0,45.6-21.8,70.8-71.1,70.8
			C4417.9,5760.9,4396.1,5735.6,4396.1,5690.1z M4506.4,5690.1c0-31.2-10.9-44.1-39.6-44.1c-28.4,0-39.3,12.9-39.3,44.1
			c0,31.5,10.9,44.4,39.3,44.4C4495.6,5734.5,4506.4,5721.6,4506.4,5690.1z"/>
		<path class="st3" d="M4569.8,5694.4c0-48.7,27.2-75.1,64.8-75.1c16.3,0,28.7,3.7,40.4,11.8v-66.2h31.2V5758h-26.7l-2-13.5
			c-12.3,11.2-26.1,16.3-45.9,16.3C4594.7,5760.9,4569.8,5743.7,4569.8,5694.4z M4675,5723v-67.9c-8.6-7.7-20.1-12-33.8-12
			c-26.4,0-39.8,18.1-39.8,51.6c0,32.4,12,42.7,38.7,42.7C4654.4,5737.4,4665.5,5732.8,4675,5723z"/>
		<path class="st3" d="M4892,5645.9h-20.6l2.9-23.8h49V5758H4892V5645.9z M4889.4,5568h34.1v25.8h-34.1V5568z"/>
		<path class="st3" d="M4971.1,5622.1h28.7l1.4,14.3c12-9.5,29.5-17.2,50.2-17.2c35.3,0,50.4,16.1,50.4,50.7v88h-31v-86.6
			c0-20.9-7.2-28.4-30.7-28.4c-14.3,0-28.7,6.3-37.8,15.5v99.5h-31.2V5622.1z"/>
		<path class="st3" d="M5260,5666.3c0-67.1,29-95.7,87.4-95.7c58.8,0,87.4,28.7,87.4,95.7c0,64.8-28.7,94.6-87.4,94.6
			C5288.9,5760.9,5260,5731,5260,5666.3z M5403.6,5666.3c0-51-17.8-69.1-56.2-69.1c-38.1,0-55.9,18.1-55.9,69.1
			c0,48.4,17.8,68.2,55.9,68.2C5385.8,5734.5,5403.6,5714.7,5403.6,5666.3z"/>
		<path class="st3" d="M5477,5622.1h28.7l1.4,14.3c12-9.5,29.5-17.2,50.2-17.2c35.3,0,50.4,16.1,50.4,50.7v88h-31v-86.6
			c0-20.9-7.2-28.4-30.7-28.4c-14.3,0-28.7,6.3-37.8,15.5v99.5H5477V5622.1z"/>
		<path class="st3" d="M5648.4,5689.8c0-43.6,21.8-70.5,67.1-70.5c41.3,0,62.2,24.1,62.2,57.9v25.2h-99.5
			c3.2,26.4,18.1,34.7,51,34.7c13.8,0,29.2-2.9,40.1-7.2v22.9c-12.3,5.4-28.4,8-46.4,8C5675.3,5760.9,5648.4,5737.9,5648.4,5689.8z
			 M5750.1,5682v-9.5c0-18.6-9.5-29.8-33.8-29.8c-29,0-38.1,12.3-38.1,39.3H5750.1z"/>
		<path class="st3" d="M5931.3,5668.6c0-60.5,29-98,92-98c21.5,0,38.7,3.4,54.2,8.9v27.2c-15.5-6-33-9.5-51.9-9.5
			c-45.9,0-62.8,25.2-62.8,71.4c0,43.3,20.1,65.9,63.3,65.9c17.5,0,35.8-2.9,51.6-8.9v27.5c-15.5,4.9-32.7,7.7-54.2,7.7
			C5962.8,5760.9,5931.3,5725,5931.3,5668.6z"/>
		<path class="st3" d="M6119.6,5725.6v-160.8h31.2v157.9c0,10.6,3.7,13.8,11.5,13.8c4.3,0,8.9-0.6,13.2-1.7v22.6
			c-7.2,2.6-13.5,3.4-22.1,3.4C6131.1,5760.9,6119.6,5750.8,6119.6,5725.6z"/>
		<path class="st3" d="M6219.1,5645.9h-20.6l2.9-23.8h49V5758h-31.2V5645.9z M6216.5,5568h34.1v25.8h-34.1V5568z"/>
		<path class="st3" d="M6292.4,5690.1c0-47.6,29.2-70.8,74.2-70.8c18.6,0,30.1,2.6,42.1,8.3v23.2c-9.7-4.9-22.1-7.5-36.1-7.5
			c-31.5,0-48.7,12.3-48.7,46.7c0,32.7,13.8,47,48.2,47c12.9,0,25.8-2.6,37-7.7v23.8c-12.6,5.2-26.7,7.7-44.1,7.7
			C6317.1,5760.9,6292.4,5735.9,6292.4,5690.1z"/>
		<path class="st3" d="M6450.9,5564.8h31.2v111.8l57-54.5h35.8l-55.3,54.7l58.5,81.1h-33l-45-64.5l-18.1,17.2v47.3h-31.2V5564.8z"/>
	</g>
</g>
</svg>
