<svg xmlns="http://www.w3.org/2000/svg" width="25.259" height="27.32" viewBox="0 0 25.259 27.32">
  <g id="Group_62553" data-name="Group 62553" transform="translate(-2.478 10.663)">
    <path id="Path_70878" data-name="Path 70878" d="M3.316-4.429H7.09c0-.522-.018-1.014,0-1.5a4.628,4.628,0,0,1,2.581-4.208,4.669,4.669,0,0,1,6.793,4.148c0,.5,0,.995,0,1.543h3.788c.157,2.668.312,5.288.467,7.913.519.047,1.014.064,1.5.139a6.566,6.566,0,0,1,.464,12.871,6.388,6.388,0,0,1-6.326-1.92.916.916,0,0,0-.738-.3c-2.987.008-5.974.014-8.961,0A4.016,4.016,0,0,1,2.93,12.065,4.454,4.454,0,0,1,2.5,9.543c.12-1.858.209-3.717.321-5.576.127-2.113.268-4.226.4-6.339C3.256-3.038,3.281-3.7,3.316-4.429ZM4.827-2.8c-.047.758-.1,1.479-.137,2.2-.07,1.249-.13,2.5-.2,3.748-.132,2.285-.257,4.57-.41,6.854a2.5,2.5,0,0,0,2.575,2.65c2.675-.038,5.35-.011,8.025-.012.119,0,.238-.016.385-.026-.042-.132-.068-.225-.1-.317a6.585,6.585,0,0,1,3.8-8.339c.293-.114.385-.238.366-.542-.1-1.646-.186-3.293-.282-4.939-.025-.421-.073-.841-.112-1.273H16.466V-.861h-1.6V-2.789H8.693V-.858H7.088V-2.8Zm16.309,17.84a4.973,4.973,0,1,0-4.953-4.987A4.955,4.955,0,0,0,21.136,15.043ZM8.621-4.457h6.247c0-.548.009-1.071,0-1.593A3.092,3.092,0,0,0,12.31-9.025,3,3,0,0,0,8.915-7.013,15.027,15.027,0,0,0,8.621-4.457Z" transform="translate(0 0)" fill="#fff"/>
    <path id="Path_70879" data-name="Path 70879" d="M180.767,205.109l1.183-1.055,1.464,1.627,3.021-3.117,1.062,1.19-4.138,4.283Z" transform="translate(-163.069 -195.025)" fill="#fff"/>
  </g>
</svg>
