<svg xmlns="http://www.w3.org/2000/svg" width="17.712" height="17.715" viewBox="0 0 17.712 17.715">
  <g id="Group_63252" data-name="Group 63252" transform="translate(15.706 -119.946)">
    <path id="Path_72598" data-name="Path 72598" d="M61.132,127.867c0,.277,0,.553,0,.83-.006.3-.117.414-.422.421s-.59,0-.885,0a.906.906,0,0,0-.882.589c-.125.286-.237.577-.358.865a.919.919,0,0,0,.213,1.064c.2.214.419.415.623.628s.216.341,0,.564q-.6.612-1.213,1.212a.339.339,0,0,1-.568,0q-1.041-1.032-2.073-2.073a.548.548,0,0,1,.072-.788,3.932,3.932,0,0,0,1.6-4.206,3.841,3.841,0,0,0-3.183-3.136,3.932,3.932,0,0,0-4.15,1.61.547.547,0,0,1-.788.07q-1.041-1.033-2.072-2.074a.339.339,0,0,1,0-.568q.6-.612,1.212-1.213c.222-.218.34-.215.564,0,.2.191.39.392.588.586a.955.955,0,0,0,1.182.222c.253-.108.509-.21.762-.318a.92.92,0,0,0,.613-.9c0-.3,0-.59,0-.885s.12-.417.423-.42q.844-.007,1.687,0c.3,0,.413.117.418.423s0,.59,0,.885a.9.9,0,0,0,.569.868c.293.132.594.245.889.37a.909.909,0,0,0,1.043-.2c.216-.2.414-.42.626-.624.24-.232.366-.231.608.006q.592.582,1.173,1.173c.237.241.236.367,0,.608-.192.2-.39.391-.586.586a.95.95,0,0,0-.219,1.136c.112.262.218.526.33.787a.931.931,0,0,0,.922.617c.295,0,.59,0,.885,0a.353.353,0,0,1,.394.393C61.134,127.277,61.132,127.572,61.132,127.867Z" transform="translate(-59.127)" fill="#001968"/>
    <path id="Path_72599" data-name="Path 72599" d="M-5.43,236.6a1.8,1.8,0,0,1-.2.277c-.643.6-.5,1.072-.106,1.723a.86.86,0,0,0,.785.383c.591,0,.635.051.635.652,0,.267,0,.535,0,.8-.006.331-.1.441-.431.426-.915-.043-1.15.514-1.309,1.17a.912.912,0,0,0,.322.842c.384.4.381.442-.017.842-.2.2-.4.408-.6.607s-.407.22-.595-.007a1.11,1.11,0,0,0-1.509-.247.963.963,0,0,0-.6.935c0,.083,0,.166,0,.249a.34.34,0,0,1-.365.365c-.387.007-.775.011-1.162,0-.269-.008-.355-.128-.357-.443a1.2,1.2,0,0,0-1.456-1.26,1.392,1.392,0,0,0-.6.351c-.316.273-.422.288-.716-.005q-.323-.322-.645-.646c-.265-.268-.274-.407.006-.668a1.047,1.047,0,0,0,.277-1.295,1.058,1.058,0,0,0-1.178-.787c-.341,0-.441-.1-.445-.441,0-.323,0-.645,0-.968,0-.371.1-.472.478-.476A1.2,1.2,0,0,0-14,237.506a1.475,1.475,0,0,0-.37-.591c-.243-.282-.256-.413.005-.678.22-.223.44-.445.663-.666.264-.263.389-.255.671.006a1.705,1.705,0,0,0,.438.326,1.231,1.231,0,0,0,1.645-1.071c.007-.555.048-.6.6-.6.286,0,.572,0,.857,0,.318.007.445.121.426.441a1.1,1.1,0,0,0,.879,1.226.98.98,0,0,0,1.091-.224c.081-.075.147-.192.241-.221.123-.038.316-.063.394,0,.326.283.623.6.925.912A.906.906,0,0,1-5.43,236.6Zm-4.569.484a2.812,2.812,0,0,0-2.864,2.847,2.778,2.778,0,0,0,2.871,2.84,2.719,2.719,0,0,0,2.82-2.836A2.822,2.822,0,0,0-10,237.083Z" transform="translate(0 -107.964)" fill="#001968"/>
    <path id="Path_72600" data-name="Path 72600" d="M49.454,301.684a2.207,2.207,0,1,1,2.229-2.218A2.217,2.217,0,0,1,49.454,301.684Z" transform="translate(-59.493 -167.512)" fill="#001968"/>
  </g>
</svg>
