<svg xmlns="http://www.w3.org/2000/svg" width="16.001" height="16" viewBox="0 0 16.001 16">
  <g id="Group_63250" data-name="Group 63250" transform="translate(15.662 -120.023)">
    <path id="Path_72581" data-name="Path 72581" d="M-5.995,280.131a2.779,2.779,0,0,0-.829,1.1c-.026.067-.153.111-.242.136A2.479,2.479,0,0,0-8.919,283.2a2.872,2.872,0,0,0-.085.689c-.011.682,0,1.364,0,2.068-.095,0-.175.011-.255.011h-5.748c-.467,0-.65-.183-.651-.648q0-1.062,0-2.124a3.183,3.183,0,0,1,2.529-3.16,3.158,3.158,0,0,1,.669-.064q2.774-.008,5.548,0c.3,0,.606.052.91.079Z" transform="translate(0 -151.951)" fill="#001968"/>
    <path id="Path_72582" data-name="Path 72582" d="M41.072,126.676a3.327,3.327,0,1,1,3.334-3.323A3.325,3.325,0,0,1,41.072,126.676Z" transform="translate(-50.738 0)" fill="#001968"/>
    <path id="Path_72583" data-name="Path 72583" d="M144.325,359.755c.3.151.568.287.838.428.934.488,1.87.973,2.8,1.47a.708.708,0,0,0,.729,0c1.136-.6,2.279-1.194,3.419-1.789.058-.03.118-.056.2-.1,0,.09.01.159.01.229q0,1.249,0,2.5a1.187,1.187,0,0,1-1.28,1.274q-2.723,0-5.446,0a1.187,1.187,0,0,1-1.274-1.28C144.324,361.588,144.325,360.69,144.325,359.755Z" transform="translate(-151.987 -227.744)" fill="#001968"/>
    <path id="Path_72584" data-name="Path 72584" d="M157,301.615c.58.062,1.18-.121,1.651.374l-2.284,1.191c-.4.207-.791.423-1.193.62a.38.38,0,0,1-.295.019c-1.174-.6-2.342-1.212-3.528-1.829.466-.5,1.065-.313,1.654-.374a5.2,5.2,0,0,1,0-.583,1.077,1.077,0,0,1,.981-1.032,12.01,12.01,0,0,1,2.065.012,1.084,1.084,0,0,1,.944,1.115C157,301.283,157,301.439,157,301.615Zm-1,.005a3.348,3.348,0,0,1,0-.35c.028-.246-.08-.322-.317-.312-.373.016-.748,0-1.122,0-.591.006-.579-.115-.556.606,0,.014.016.027.031.05Z" transform="translate(-158.659 -170.94)" fill="#001968"/>
  </g>
</svg>
