<svg xmlns="http://www.w3.org/2000/svg" width="100" height="100" viewBox="0 0 100 100">
  <g id="location-check" transform="translate(-47 -47)">
    <path id="Path_73073" data-name="Path 73073" d="M0,0H100V100H0Z" transform="translate(47 47)" fill="#fff" opacity="0"/>
    <g id="Group_66037" data-name="Group 66037" transform="translate(326.562 -49.063)">
      <path id="Path_74254" data-name="Path 74254" d="M-220.678,263.175a14.892,14.892,0,0,0-4.511,6,1.634,1.634,0,0,1-1.047.684,13.693,13.693,0,0,0-10.805,13.75c-.014,3.7,0,7.4,0,11.209-.532.024-.969.061-1.406.061q-15.6,0-31.208,0c-2.6,0-3.534-.921-3.536-3.49,0-3.981-.024-7.96,0-11.94a17.186,17.186,0,0,1,17.045-17.135c10.221-.056,20.443-.034,30.664.006,1.593.007,3.185.288,4.777.441Z" transform="translate(0 -116.453)" fill="#001968"/>
      <path id="Path_74255" data-name="Path 74255" d="M-201.858,138.552a18.028,18.028,0,0,1-18-18.018,18.042,18.042,0,0,1,18.21-18.112,18.014,18.014,0,0,1,17.992,18.189A17.986,17.986,0,0,1-201.858,138.552Z" transform="translate(-38.861 0)" fill="#001968"/>
      <path id="Path_74256" data-name="Path 74256" d="M-113.2,341.9l12.452,6.495c2.48,1.293,4.982,2.549,7.433,3.9a3.567,3.567,0,0,0,3.7-.007c6.143-3.25,12.313-6.446,18.474-9.659.39-.2.791-.387,1.328-.648.022.479.05.817.05,1.156,0,4.615.013,9.229,0,13.844-.012,4.052-2.665,6.753-6.673,6.759q-15.065.024-30.131,0a6.337,6.337,0,0,1-6.63-6.663C-113.211,352.1-113.2,347.126-113.2,341.9Z" transform="translate(-116.555 -174.453)" fill="#001968"/>
      <path id="Path_74257" data-name="Path 74257" d="M-75.355,290.95c2.563.364,4.916.64,7.241,1.066.6.111,1.12.689,1.9,1.2-2.036,1.055-3.856,1.99-5.67,2.938-4.435,2.318-8.857,4.66-13.313,6.935a2.188,2.188,0,0,1-1.714.126c-6.222-3.181-12.408-6.429-18.6-9.665a4.225,4.225,0,0,1-.458-.327,5.655,5.655,0,0,1,4.208-1.891c1.516-.1,3.044-.021,4.58-.021a34.679,34.679,0,0,1,.33-4.043,6.058,6.058,0,0,1,5.941-4.973q4.677-.1,9.357,0a6.289,6.289,0,0,1,6.2,6.253C-75.333,289.393-75.355,290.246-75.355,290.95Zm-5.428.27c0-.841-.017-1.516,0-2.19.028-.894-.35-1.337-1.277-1.332-2.8.015-5.6-.035-8.393.051a1.572,1.572,0,0,0-1.132.968,11.6,11.6,0,0,0-.053,2.5Z" transform="translate(-121.821 -130.991)" fill="#001968"/>
    </g>
  </g>
</svg>
