<svg xmlns="http://www.w3.org/2000/svg" width="36.621" height="36.623" viewBox="0 0 36.621 36.623">
  <g id="Group_62606" data-name="Group 62606" transform="translate(434.538 -34.445)">
    <path id="Path_70908" data-name="Path 70908" d="M-415,95.478h-8.544c0-.711,0-1.413,0-2.116,0-.758-.166-.92-.932-.922-1.037,0-2.075-.005-3.112,0-.645,0-.83.189-.836.832-.007.71,0,1.42,0,2.125-2.716.406-4.968-.28-5.869-2.872a4.472,4.472,0,0,1-.224-1.37c-.027-1.545-.016-3.092-.009-4.637a1.851,1.851,0,0,1,2.013-2.011q13.242-.005,26.483,0a1.852,1.852,0,0,1,2.012,2.013c.007,1.546.014,3.092,0,4.638a4.277,4.277,0,0,1-4.329,4.331c-.566.007-1.132,0-1.77,0,0-.768.005-1.493,0-2.218-.006-.641-.192-.827-.838-.831-1.078-.006-2.156.008-3.234-.005-.563-.007-.822.24-.811.806C-414.993,93.97-415,94.7-415,95.478Z" transform="translate(0 -43.95)" fill="#001968"/>
    <path id="Path_70909" data-name="Path 70909" d="M-406.309,177.987c.155.627.313,1.186.42,1.755a.7.7,0,0,1-.15.517,10.315,10.315,0,0,0-2.451,8.549c.062.437.19.864.3,1.342h-.642q-6.131,0-12.262,0a3.091,3.091,0,0,1-3.39-3.41c0-3.192,0-6.384,0-9.706a7.615,7.615,0,0,0,4.818.9c.294,2.2,1.1,3.122,2.609,3.063,1.454-.057,2.232-1.032,2.367-3.007Z" transform="translate(-8.824 -125.184)" fill="#001968"/>
    <path id="Path_70910" data-name="Path 70910" d="M-275.318,184.5a9.173,9.173,0,0,1,9.125,9.226,9.178,9.178,0,0,1-9.212,9.081,9.178,9.178,0,0,1-9.095-9.2A9.173,9.173,0,0,1-275.318,184.5Zm3.678,3.6c-2.445-1.909-6.35-1.453-8.672,1.037a6.538,6.538,0,0,0-.569,8.2Zm-7.45,11.1A6.651,6.651,0,0,0-270.227,198a6.509,6.509,0,0,0,.391-8.045Z" transform="translate(-131.725 -131.741)" fill="#001968"/>
    <path id="Path_70911" data-name="Path 70911" d="M-347.653,39.306h-2.415V36.939H-357.4v2.366h-2.5a27.8,27.8,0,0,1,.2-3.179,2.231,2.231,0,0,1,2.226-1.664c2.479-.021,4.959-.026,7.438,0a2.359,2.359,0,0,1,2.36,2.191C-347.6,37.519-347.653,38.393-347.653,39.306Z" transform="translate(-65.532)" fill="#001968"/>
    <path id="Path_70912" data-name="Path 70912" d="M-374.51,159.687h2.423c0,1.293.037,2.567-.016,3.837a1.172,1.172,0,0,1-1.247,1.019,1.247,1.247,0,0,1-1.156-1.2c-.013-.182,0-.366,0-.549C-374.51,161.781-374.51,160.767-374.51,159.687Z" transform="translate(-52.699 -109.955)" fill="#001968"/>
    <path id="Path_70913" data-name="Path 70913" d="M-263.88,159.728h2.364c0,.852.008,1.678-.01,2.5a.466.466,0,0,1-.211.314c-.685.425-1.381.832-2.143,1.287Z" transform="translate(-149.828 -109.991)" fill="#001968"/>
  </g>
</svg>
