<svg xmlns="http://www.w3.org/2000/svg" width="100" height="100" viewBox="0 0 100 100">
  <g id="location-check" transform="translate(-47 -47)">
    <path id="Path_73073" data-name="Path 73073" d="M0,0H100V100H0Z" transform="translate(47 47)" fill="#fff" opacity="0"/>
    <g id="Group_66036" data-name="Group 66036" transform="translate(-49.082 -121.955)">
      <path id="Path_74250" data-name="Path 74250" d="M171.853,207.723a4.478,4.478,0,0,0-3.141-4.259q-10.087-3.839-20.18-7.663a4.438,4.438,0,0,0-5.957,2.394c-.86,2.3.383,4.727,2.951,5.711q8.169,3.13,16.346,6.241c.262.1.513.23,1.018.459-3.945,1.185-7.723,2.093-11.323,3.466a14.247,14.247,0,0,1-9.972.006c-12.825-4.083-25.742-7.878-38.618-11.8a3.485,3.485,0,0,1-1.508-.8c-.835-.893-.264-2.01,1.193-2.451q6.347-1.923,12.7-3.837,15.073-4.553,30.153-9.082a3.845,3.845,0,0,1,2.088-.017q21.364,6.416,42.706,12.9c.806.244,1.661.415,1.673,1.51.011,1.066-.768,1.331-1.6,1.583C184.242,203.944,178.112,205.817,171.853,207.723Z" transform="translate(0 0)" fill="#001968"/>
      <path id="Path_74251" data-name="Path 74251" d="M138.243,260.376c7.93,2.409,15.642,4.754,23.355,7.095,3.255.988,6.5,2.03,9.779,2.916a5.892,5.892,0,0,0,2.979.011c5-1.4,9.972-2.914,15.1-4.431.043.488.109.893.109,1.3.006,6.251-.033,12.5.038,18.752.013,1.176-.48,1.462-1.455,1.663a78.353,78.353,0,0,1-22.116,1.412,69.8,69.8,0,0,1-26.6-7.144,2.18,2.18,0,0,1-1.134-1.452C138.218,273.859,138.243,267.222,138.243,260.376Z" transform="translate(-26.271 -52.618)" fill="#001968"/>
      <path id="Path_74252" data-name="Path 74252" d="M275.257,253.175c0,4.785.017,9.571-.015,14.355a1.527,1.527,0,0,0,1.071,1.742,5.352,5.352,0,0,1,3.433,5.145c.062,2.2-.006,4.394.023,6.591.018,1.3-.572,1.853-1.863,1.839q-4.247-.047-8.5,0c-1.233.015-1.825-.539-1.822-1.74.006-2.343-.031-4.688.067-7.028a5.278,5.278,0,0,1,3.474-4.815,1.454,1.454,0,0,0,1.086-1.574q-.045-13.916,0-27.832c0-.97-.371-1.315-1.22-1.623-6.033-2.19-12.041-4.448-18.069-6.655-1.005-.368-1.933-.818-1.51-2.043s1.436-1.038,2.446-.66c6.512,2.437,13.018,4.891,19.559,7.249a2.433,2.433,0,0,1,1.852,2.692C275.222,243.6,275.256,248.39,275.257,253.175Z" transform="translate(-106.221 -30.147)" fill="#001968"/>
      <path id="Path_74253" data-name="Path 74253" d="M342.238,285.992v-3.215c0-5.9.017-11.8-.018-17.7-.005-.915.207-1.375,1.173-1.631,2.713-.718,5.392-1.569,8.2-2.4.027.554.065.979.065,1.4,0,6-.032,11.994.029,17.989a2.243,2.243,0,0,1-1.68,2.493C347.463,283.852,344.971,284.907,342.238,285.992Z" transform="translate(-170.493 -53.093)" fill="#001968"/>
    </g>
  </g>
</svg>
