<svg xmlns="http://www.w3.org/2000/svg" width="10.019" height="11.5" viewBox="0 0 10.019 11.5">
  <g id="Group_63245" data-name="Group 63245" transform="translate(319.065 -154.253)">
    <path id="Path_72570" data-name="Path 72570" d="M-272.487,312.152c-.182.166-.368.326-.544.5q-1.113,1.084-2.219,2.174a2.246,2.246,0,0,1-1.856.607c-.8-.062-1.6-.135-2.4-.161a1.833,1.833,0,0,0-.665.218,1.333,1.333,0,0,0-.253.184c-.09-.509-.177-.993-.262-1.478a2.052,2.052,0,0,0-.064-.374c-.083-.217.026-.337.181-.451a2.13,2.13,0,0,1,1.93-.395,3.924,3.924,0,0,0,1.883-.029,7.481,7.481,0,0,1,.842-.125.807.807,0,0,1,.85.57l-1.915.337c-.073.013-.145.036-.219.045-.135.016-.233.094-.179.218a.316.316,0,0,0,.26.13c.26-.022.517-.08.774-.126.493-.088.985-.182,1.479-.262.2-.033.279-.133.212-.323a.224.224,0,0,1,.105-.3q.647-.468,1.278-.957a.793.793,0,0,1,.784-.1Z" transform="translate(-36.559 -150.637)" fill="#001968"/>
    <path id="Path_72571" data-name="Path 72571" d="M-318.513,337.888l-.552-3.156,1.238-.216.548,3.138-1.144.235Z" transform="translate(0 -172.135)" fill="#001968"/>
    <path id="Path_72572" data-name="Path 72572" d="M-233.424,174.9a2.5,2.5,0,0,1,2.51,2.515,2.505,2.505,0,0,1-2.54,2.512,2.5,2.5,0,0,1-2.484-2.539A2.5,2.5,0,0,1-233.424,174.9Zm.364,1.761.029-.079a.768.768,0,0,0,.264-.007c.068-.027.154-.111.157-.173a.229.229,0,0,0-.147-.173q-.674-.021-1.349,0c-.054,0-.149.119-.145.177a.253.253,0,0,0,.165.167c.113.028.241-.006.357.015a1.857,1.857,0,0,1,.318.116l-.024.071h-.537c-.142,0-.292.008-.287.2,0,.173.149.182.281.184.181,0,.362,0,.6,0-.211.224-.427.12-.614.16a.386.386,0,0,0-.246.144c-.028.053.032.185.091.244.258.261.531.508.8.762.1.1.209.2.341.057s.018-.231-.078-.321l-.454-.428a5.317,5.317,0,0,0,.49-.47c.07-.086.11-.157.237-.153s.251-.046.212-.19c-.021-.077-.143-.13-.226-.184A2.347,2.347,0,0,0-233.06,176.664Z" transform="translate(-79.379 -19.72)" fill="#001968"/>
    <path id="Path_72573" data-name="Path 72573" d="M-174.963,155.507a3.017,3.017,0,0,0-1.718-.7v-.551a3.4,3.4,0,0,1,2.133.868Z" transform="translate(-135.964)" fill="#001968"/>
    <path id="Path_72574" data-name="Path 72574" d="M-130.79,179.907a3.5,3.5,0,0,1,.861,2.084h-.533a7.381,7.381,0,0,0-.25-.9,7.385,7.385,0,0,0-.451-.813Z" transform="translate(-179.43 -24.497)" fill="#001968"/>
    <path id="Path_72575" data-name="Path 72575" d="M-132.1,237.091a3.045,3.045,0,0,0,.709-1.7h.565a3.413,3.413,0,0,1-.881,2.077Z" transform="translate(-178.532 -77.48)" fill="#001968"/>
    <path id="Path_72576" data-name="Path 72576" d="M-176.684,280.458V279.9a2.975,2.975,0,0,0,1.725-.695l.379.408A3.4,3.4,0,0,1-176.684,280.458Z" transform="translate(-135.962 -119.321)" fill="#001968"/>
    <path id="Path_72577" data-name="Path 72577" d="M-231.19,155.553l-.395-.39a3.444,3.444,0,0,1,2.088-.893,4.3,4.3,0,0,1-.006.454.18.18,0,0,1-.122.12A2.976,2.976,0,0,0-231.19,155.553Z" transform="translate(-83.536 -0.016)" fill="#001968"/>
    <path id="Path_72578" data-name="Path 72578" d="M-256.18,181.972h-.57a3.469,3.469,0,0,1,.865-2.09l.379.412A2.871,2.871,0,0,0-256.18,181.972Z" transform="translate(-59.505 -24.473)" fill="#001968"/>
    <path id="Path_72579" data-name="Path 72579" d="M-231.329,279.238l.4-.4a2.933,2.933,0,0,0,1.665.705v.548A3.36,3.36,0,0,1-231.329,279.238Z" transform="translate(-83.78 -118.971)" fill="#001968"/>
    <path id="Path_72580" data-name="Path 72580" d="M-255.439,237.163l-.4.391a3.511,3.511,0,0,1-.873-2.063h.565A2.943,2.943,0,0,0-255.439,237.163Z" transform="translate(-59.54 -77.575)" fill="#001968"/>
  </g>
</svg>
