<svg xmlns="http://www.w3.org/2000/svg" width="16.001" height="15.802" viewBox="0 0 16.001 15.802">
  <g id="Group_63251" data-name="Group 63251" transform="translate(7.929 -129.652)">
    <path id="Path_72585" data-name="Path 72585" d="M-2.133,143.058a6.678,6.678,0,0,1-5.77-7.27,6.69,6.69,0,0,1,7.358-6.1,6.679,6.679,0,0,1,6.065,7.251,3.73,3.73,0,0,0-.662-.369,3.766,3.766,0,0,0-.764-.092c-.027-.306-.041-.627-.087-.943A5.3,5.3,0,0,0-.281,131.2a5.273,5.273,0,0,0-5.962,3.739,5.269,5.269,0,0,0,3.552,6.5.794.794,0,0,1,.558.748C-2.132,142.48-2.133,142.768-2.133,143.058Z" transform="translate(0)" fill="#001968"/>
    <path id="Path_72586" data-name="Path 72586" d="M131.156,367.581c0,.966,0,1.892,0,2.819a.476.476,0,0,1-.465.475c-.078.007-.157.005-.236.005h-7.3c-.566,0-.713-.148-.714-.712,0-.848,0-1.7,0-2.555.389.11.756.246,1.134.315.6.109,1.205.18,1.81.252.153.018.225.054.261.218a1.161,1.161,0,0,0,1.1.887,1.187,1.187,0,0,0,1.207-.853c.032-.111.028-.237.206-.248A9.123,9.123,0,0,0,131.156,367.581Z" transform="translate(-123.519 -225.426)" fill="#001968"/>
    <path id="Path_72587" data-name="Path 72587" d="M121.788,305.086c.594,0,1.135,0,1.677,0,.143,0,.2.06.2.206,0,.6,0,1.19-.007,1.785a.845.845,0,0,1-.477.679,3.667,3.667,0,0,1-1.474.5c-.5.081-1,.126-1.505.189a.256.256,0,0,1-.288-.153,1.2,1.2,0,0,0-2.092-.007.323.323,0,0,1-.223.153,7.924,7.924,0,0,1-2.707-.514,1.56,1.56,0,0,1-.558-.373,1.04,1.04,0,0,1-.242-.577c-.032-.55-.01-1.1-.012-1.654,0-.126.012-.233.173-.233h1.712c0,.309,0,.595,0,.881a.758.758,0,0,0,.84.842q2.075,0,4.149,0a.745.745,0,0,0,.827-.777C121.8,305.728,121.788,305.423,121.788,305.086Z" transform="translate(-115.596 -166.214)" fill="#001968"/>
    <path id="Path_72588" data-name="Path 72588" d="M160.331,305.246h4.724c0,.341.005.678-.006,1.015,0,.046-.08.106-.135.128a.593.593,0,0,1-.208.015q-2.009,0-4.017,0c-.343,0-.357-.016-.357-.35C160.33,305.792,160.331,305.531,160.331,305.246Z" transform="translate(-159.417 -166.367)" fill="#001968"/>
    <path id="Path_72589" data-name="Path 72589" d="M172.156,271.233h-.678c-.007-.064-.018-.121-.019-.178-.011-.442-.011-.442-.44-.442-.594,0-1.189.013-1.782-.006-.261-.008-.379.058-.336.332a1.945,1.945,0,0,1,0,.282h-.675a5.054,5.054,0,0,1,.006-.705.75.75,0,0,1,.741-.586q1.193-.012,2.385,0a.8.8,0,0,1,.794.784C172.169,270.876,172.156,271.042,172.156,271.233Z" transform="translate(-166.889 -132.9)" fill="#001968"/>
    <path id="Path_72590" data-name="Path 72590" d="M115.252,216.673c0-.306,0-.612,0-.918,0-.187.081-.319.267-.318s.26.138.258.324c-.005.49.01.98-.007,1.469a.409.409,0,0,0,.253.449c.305.149.59.339.887.5.164.091.242.221.149.385s-.257.145-.411.056c-.4-.232-.808-.45-1.195-.7a.531.531,0,0,1-.191-.358C115.233,217.27,115.252,216.971,115.252,216.673Z" transform="translate(-116.702 -81.277)" fill="#001968"/>
    <path id="Path_72591" data-name="Path 72591" d="M193.33,364.744a.679.679,0,0,1,.681.653.7.7,0,0,1-.668.673.686.686,0,0,1-.677-.66A.663.663,0,0,1,193.33,364.744Z" transform="translate(-190.054 -222.738)" fill="#001968"/>
    <path id="Path_72592" data-name="Path 72592" d="M115.843,174.2c0,.21.037.477-.253.481s-.274-.256-.268-.471-.046-.469.259-.475S115.839,174,115.843,174.2Z" transform="translate(-116.771 -41.77)" fill="#001968"/>
    <path id="Path_72593" data-name="Path 72593" d="M36.341,253.5c-.2-.007-.448.054-.492-.248-.028-.192.134-.277.492-.277.035,0,.07,0,.1,0,.2-.011.366.061.361.277s-.174.259-.36.248C36.411,253.5,36.376,253.5,36.341,253.5Z" transform="translate(-41.475 -116.84)" fill="#001968"/>
    <path id="Path_72594" data-name="Path 72594" d="M187.264,252.972c.035,0,.07,0,.1,0,.2-.01.37.044.371.264s-.18.268-.372.261c-.1,0-.191,0-.287,0-.173,0-.293-.083-.292-.261s.122-.257.293-.262C187.142,252.971,187.2,252.972,187.264,252.972Z" transform="translate(-184.484 -116.838)" fill="#001968"/>
    <path id="Path_72595" data-name="Path 72595" d="M166.474,196.975a.238.238,0,0,1,.211.369,1.919,1.919,0,0,1-.406.4.3.3,0,0,1-.267,0,.3.3,0,0,1-.112-.218C165.889,197.381,166.326,196.974,166.474,196.975Z" transform="translate(-164.694 -63.785)" fill="#001968"/>
    <path id="Path_72596" data-name="Path 72596" d="M59.875,305.005c-.116-.082-.215-.116-.241-.179a.318.318,0,0,1,.013-.263,1.394,1.394,0,0,1,.368-.369.336.336,0,0,1,.32.021.32.32,0,0,1,.019.314A4.348,4.348,0,0,1,59.875,305.005Z" transform="translate(-63.991 -165.341)" fill="#001968"/>
    <path id="Path_72597" data-name="Path 72597" d="M60.378,197.667c-.027.043-.056.145-.12.175a.31.31,0,0,1-.265,0,2.057,2.057,0,0,1-.4-.4.3.3,0,0,1,0-.26.3.3,0,0,1,.213-.109C59.957,197.061,60.369,197.475,60.378,197.667Z" transform="translate(-63.943 -63.879)" fill="#001968"/>
  </g>
</svg>
