<svg xmlns="http://www.w3.org/2000/svg" width="32" height="32" viewBox="0 0 32 32">
  <g id="camer" transform="translate(182 -2038)">
    <rect id="Rectangle_11708" data-name="Rectangle 11708" width="32" height="32" transform="translate(-182 2038)" fill="none"/>
    <g id="Group_59992" data-name="Group 59992" transform="translate(-420.1 1900.721)">
      <path id="Path_68513" data-name="Path 68513" d="M254.1,164.656h-9.789a3.2,3.2,0,0,1-3.334-3.341q0-6.289,0-12.578a3.2,3.2,0,0,1,3.343-3.332c1.121,0,2.242,0,3.363,0,.186,0,.273-.047.328-.231.119-.4.255-.8.4-1.19a3.155,3.155,0,0,1,2.96-2.081q2.734-.014,5.469,0a3.15,3.15,0,0,1,2.957,2.085c.139.375.269.755.381,1.139a.324.324,0,0,0,.377.28c1.13-.015,2.26-.008,3.391-.006a3.194,3.194,0,0,1,3.282,3.282q0,6.344,0,12.688a3.2,3.2,0,0,1-3.284,3.281Q259.019,164.658,254.1,164.656Zm-.011-1.75h9.787a1.46,1.46,0,0,0,1.6-1.589q0-6.288,0-12.575a1.456,1.456,0,0,0-1.576-1.587c-1.394,0-2.788,0-4.183,0a.871.871,0,0,1-.922-.661c-.2-.594-.6-1.785-.6-1.785s-.738-1.052-1.459-1.053q-2.638,0-5.276,0A1.438,1.438,0,0,0,250,144.709c-.2.577-.383,1.157-.579,1.735a.9.9,0,0,1-1,.71h-4.1a1.462,1.462,0,0,0-1.6,1.615q0,6.247,0,12.493a1.473,1.473,0,0,0,1.657,1.643Z" transform="translate(0)" fill="#001968"/>
      <path id="Path_68514" data-name="Path 68514" d="M330.8,232.363a6.563,6.563,0,1,1,6.556,6.555A6.566,6.566,0,0,1,330.8,232.363Zm6.57,4.8a4.812,4.812,0,1,0-4.818-4.812A4.824,4.824,0,0,0,337.372,237.167Z" transform="translate(-83.265 -77.762)" fill="#001968"/>
      <path id="Path_68515" data-name="Path 68515" d="M529.3,237.777a.874.874,0,1,1-.868.872A.88.88,0,0,1,529.3,237.777Z" transform="translate(-266.452 -88.871)" fill="#001968"/>
    </g>
  </g>
</svg>
