<svg xmlns="http://www.w3.org/2000/svg" width="100" height="100" viewBox="0 0 100 100">
  <g id="chat-fill-icon" transform="translate(6137 3259)">
    <g id="Rectangle_12142" data-name="Rectangle 12142" transform="translate(-6137 -3259)" fill="#fff" stroke="#707070" stroke-width="1" opacity="0">
      <rect width="100" height="100" stroke="none"/>
      <rect x="0.5" y="0.5" width="99" height="99" fill="none"/>
    </g>
    <g id="Group_62920" data-name="Group 62920" transform="translate(-6126 -3248)">
      <path id="Path_57201" data-name="Path 57201" d="M-28.512-66A38.943,38.943,0,0,1,9.812-33.505,38.879,38.879,0,0,1-20.372,10.877,37.814,37.814,0,0,1-49.781,5.323a1.724,1.724,0,0,0-1.691-.242c-4.59,1.567-9.2,3.073-13.8,4.612a1.552,1.552,0,0,1-1.738-.154c-.57-.538-.423-1.152-.206-1.8,1.637-4.88,3.256-9.767,4.9-14.644a1.517,1.517,0,0,0-.122-1.354,38.738,38.738,0,0,1,17.1-53.937A38.9,38.9,0,0,1-28.512-66Zm-16.9,38.832a3.892,3.892,0,0,0,3.867,3.933,3.936,3.936,0,0,0,3.9-3.841,3.933,3.933,0,0,0-3.887-3.931A3.889,3.889,0,0,0-45.411-27.168Zm25.918.013a3.893,3.893,0,0,0,3.88,3.92,3.935,3.935,0,0,0,3.886-3.854,3.933,3.933,0,0,0-3.9-3.918A3.889,3.889,0,0,0-19.493-27.155Zm-5.17.059a3.916,3.916,0,0,0-3.819-3.911,3.919,3.919,0,0,0-3.952,3.859,3.921,3.921,0,0,0,3.819,3.912A3.917,3.917,0,0,0-24.663-27.1Z" transform="translate(67.411 66)" fill="#001968"/>
    </g>
  </g>
</svg>
