<svg xmlns="http://www.w3.org/2000/svg" width="100" height="100" viewBox="0 0 100 100">
  <g id="gift-box" transform="translate(-47 -47)">
    <rect id="Rectangle_1" data-name="Rectangle 1" width="100" height="100" transform="translate(47 47)" fill="#fff" opacity="0"/>
    <g id="Group_62504" data-name="Group 62504" transform="translate(-78.652 -117.652)">
      <circle id="Ellipse_3435" data-name="Ellipse 3435" cx="48" cy="48" r="48" transform="translate(127.652 166.652)" fill="#eef2ff"/>
      <g id="Group_62502" data-name="Group 62502" transform="translate(153.503 192.798)">
        <path id="Path_70849" data-name="Path 70849" d="M-7.046,9.7a4.013,4.013,0,0,1-2.593-4.23c.025-.636-.01-1.274.008-1.91a3.847,3.847,0,0,1,3.9-3.89c1.455-.031,2.91-.007,4.366-.007h.636a22.738,22.738,0,0,1-.938-2.358,6.433,6.433,0,0,1,7.117-7.827,6.278,6.278,0,0,1,4.822,3.665c.7,1.361,1.283,2.779,1.939,4.216C12.819-4,13.379-5.348,14.025-6.655a6.622,6.622,0,0,1,3.281-3.4,6.513,6.513,0,0,1,7.433,1.738,6.379,6.379,0,0,1,.57,7.484c-.081.131-.156.266-.3.5h2.85c.773,0,1.547-.019,2.319.007a3.767,3.767,0,0,1,3.8,3.463,17.041,17.041,0,0,1,0,3.336A3.744,3.744,0,0,1,31.448,9.7v.8c0,6.139-.052,12.279.026,18.417a4.044,4.044,0,0,1-4.221,4.2c-10.05-.037-20.1-.013-30.15-.017a3.816,3.816,0,0,1-4.024-2.887,5.138,5.138,0,0,1-.119-1.347q-.011-9.175,0-18.349ZM7.06,9.953H-4.46a.806.806,0,0,0-.055.176q-.008,9.511,0,19.022c0,.954.494,1.364,1.477,1.365q4.739,0,9.477,0c.2,0,.395-.023.624-.037Zm21.871-.014H17.35V30.518h9.783c1.454,0,1.8-.342,1.8-1.806q0-9,0-18ZM9.668,2.273v28.2h5.074V2.273ZM7.043,7.317V2.257c-4.365,0-8.677-.007-12.99.007a1.129,1.129,0,0,0-1.1,1.159c-.019.817-.009,1.635-.006,2.452,0,1.019.422,1.44,1.442,1.441q4.053,0,8.106,0ZM17.358,2.253v5.06c4.364,0,8.676.007,12.989-.007a1.129,1.129,0,0,0,1.1-1.157c.02-.817.009-1.635.006-2.452,0-1.02-.422-1.441-1.44-1.443q-3.917,0-7.834,0ZM10.44-.368c-1-2.1-1.858-4.148-2.934-6.072-.907-1.622-2.3-1.77-3.845-1.452A3.771,3.771,0,0,0,.718-3.739,3.715,3.715,0,0,0,4.043-.4C6.095-.265,8.162-.368,10.44-.368Zm3.535.035h5.557c.182,0,.364,0,.545-.009a3.9,3.9,0,0,0,3.587-3.181A3.8,3.8,0,0,0,21.2-7.747a3.43,3.43,0,0,0-4.5,1.575C15.757-4.3,14.922-2.373,13.975-.333Z" transform="translate(9.645 10.589)" fill="#001968"/>
      </g>
    </g>
  </g>
</svg>
