<svg id="location-check" xmlns="http://www.w3.org/2000/svg" width="209.913" height="209.913" viewBox="0 0 209.913 209.913">
  <path id="Path_73073" data-name="Path 73073" d="M0,0H209.913V209.913H0Z" transform="translate(0 0)" fill="#fff" opacity="0"/>
  <g id="Group_66006" data-name="Group 66006" transform="translate(29.392 32.392)">
    <path id="Path_76024" data-name="Path 76024" d="M-2927.7,2550.121c1.68-1.71,3.236-3.311,4.811-4.893,1.764-1.778,2.153-1.769,3.981.056q3.884,3.873,7.756,7.744c1.422,1.429,1.467,2.723.021,4.2-2.362,2.416-4.8,4.766-7.13,7.21a2.059,2.059,0,0,0-.487,1.638c2.882,12.051-.546,22.243-9.417,30.557-10.443,9.79-25.388,11.179-37.647,3.812a2.459,2.459,0,0,0-2.563-.15c-3.086,1.373-6.207,2.66-9.3,4.007-.937.4-1.992.923-2.61-.166a3.274,3.274,0,0,1-.108-2.493c1.289-3.292,2.786-6.5,4.091-9.79a2.836,2.836,0,0,0-.15-2.2c-12.784-21.083,2.292-45.681,24.176-47.718a31,31,0,0,1,23.647,7.453C-2928.384,2549.593-2928.126,2549.785-2927.7,2550.121Zm-21.2,39.592c11.467-11.835,22.681-23.405,34-35.081-1.767-1.849-3.964-4.152-6.3-6.6-2.657,2.711-5.138,5.319-7.69,7.85q-9.072,8.973-18.18,17.894c-1.362,1.333-1.952,1.333-3.309.056-1.118-1.047-2.2-2.125-3.3-3.182-1.755-1.685-3.51-3.374-5.115-4.916-2.427,2.42-4.693,4.682-6.542,6.516C-2960,2577.924-2954.592,2583.669-2948.9,2589.712Z" transform="translate(3060.877 -2534.887)" fill="#001968"/>
    <path id="Path_76025" data-name="Path 76025" d="M-3890.482,3217.495c1.457,5.331,2.634,10.507-2.625,14.521,1.364,5.195,2.573,10.385-2.381,14.178a80,80,0,0,1,.689,8.034c-.052,4.426-2.615,6.8-7.043,6.8-17.672.017-35.348-.009-53.025.021-3.449.01-6.106-1.34-8.342-4.557a8.374,8.374,0,0,1-.82,1.3,9.981,9.981,0,0,1-7.432,3.236c-2.179,0-4.363.021-6.542,0-6.42-.052-10.792-4.356-10.821-10.788-.038-11.292-.01-22.581-.01-33.865,0-1.858-.047-3.719.047-5.565a10.289,10.289,0,0,1,10.038-9.719c1.954-.052,3.922-.026,5.891-.021,4.621,0,6.35.764,9.536,4.215,2.343-3.391,5.694-4.5,9.654-4.227a22.505,22.505,0,0,0,2.779-.012,6.938,6.938,0,0,0,6.069-3.538c1.462-2.549,3.116-5,4.424-7.625,1.617-3.271,1.5-6.868,1.476-10.422-.023-4.407,2.69-6.863,7.081-6.5a14.978,14.978,0,0,1,13.356,15.673,19.7,19.7,0,0,1-3.069,9.534c-.614.951-1.153,1.949-1.907,3.236h1.95q13.412,0,26.838,0c5.038.009,7.995,2.948,8.061,8.037C-3886.569,3212.78-3887.385,3215.728-3890.482,3217.495Zm-38.24,40.217h26.009c3.032,0,4.307-1.052,4.593-4.051a13.37,13.37,0,0,0-.23-3.887c-.426-2.095-1.429-2.8-3.58-2.8q-4.569-.025-9.152,0c-1.2,0-2.3-.15-2.315-1.643-.01-1.469,1.04-1.7,2.259-1.7q5.806.031,11.613,0c2.395-.007,3.683-1.026,4-3.393a14.821,14.821,0,0,0,0-4.072c-.328-2.357-1.514-3.264-3.9-3.278-3.215-.012-6.434-.019-9.644.009-1.219,0-2.306-.192-2.32-1.65s1.04-1.706,2.263-1.7c3.763.031,7.531.007,11.294.007,3.341,0,4.522-1.071,4.752-4.389a13.938,13.938,0,0,0-.08-2.934c-.309-2.409-1.49-3.421-3.937-3.435-3.163-.021-6.326-.028-9.49.007-1.2.007-2.128-.344-2.114-1.67s.933-1.673,2.137-1.661c3.487.033,6.978.01,10.464.01,4.663,0,5.619-.994,5.469-5.687-.009-.328-.052-.654-.089-.977-.394-3.245-1.359-4.1-4.672-4.1-10.146,0-20.291.021-30.432-.047a3.038,3.038,0,0,1-2.254-1.054c-.3-.506.066-1.628.436-2.311.806-1.479,1.856-2.823,2.713-4.285a17.762,17.762,0,0,0,2.676-10.757,11.318,11.318,0,0,0-10.933-10.017,2.4,2.4,0,0,0-2.709,2.573,19.473,19.473,0,0,0-.019,1.959c.206,5.569-1.565,10.485-4.237,15.352-3.318,6.057-7.859,8.946-14.846,8.33-4.11-.363-6.345,2.125-6.35,6.313q-.021,20.283,0,40.569c0,4.046,2.376,6.357,6.444,6.362Q-3941.822,3257.717-3928.722,3257.712Zm-46.38-36.916a5.6,5.6,0,0,0,5.685-5.691,5.624,5.624,0,0,0-5.586-5.64,5.883,5.883,0,0,0-5.82,5.656A5.649,5.649,0,0,0-3975.1,3220.8Z" transform="translate(3988.844 -3116.097)" fill="#001968"/>
    <path id="Path_76026" data-name="Path 76026" d="M-3897.78,2775.7c.417-2.42.843-5.169,1.364-7.894a2.8,2.8,0,0,0-.961-3c-1.982-1.71-3.861-3.543-5.68-5.415-.464-.476-.933-1.467-.726-1.926a2.7,2.7,0,0,1,1.851-1.2c2.68-.455,5.394-.773,8.093-1.085a2.189,2.189,0,0,0,1.973-1.4c1.045-2.334,2.132-4.658,3.355-6.9.384-.712,1.265-1.6,1.907-1.6.675,0,1.546.879,1.954,1.584,1.293,2.212,2.47,4.492,3.547,6.812a2.468,2.468,0,0,0,2.25,1.525c2.657.307,5.3.619,7.943,1.057a2.458,2.458,0,0,1,1.725,1.134,2.465,2.465,0,0,1-.651,2c-1.893,1.961-3.885,3.833-5.891,5.673a2.1,2.1,0,0,0-.787,2.252c.539,2.608.918,5.258,1.35,7.892a5.817,5.817,0,0,1,.084,1.141,1.508,1.508,0,0,1-2.428,1.38c-2.6-1.38-5.183-2.793-7.835-4.058a2.928,2.928,0,0,0-2.212.026c-2.61,1.226-5.126,2.653-7.718,3.925C-3896.9,2778.416-3897.855,2777.765-3897.78,2775.7Z" transform="translate(3910.56 -2722.281)" fill="#001968"/>
    <path id="Path_76027" data-name="Path 76027" d="M-3592.144,2454.645a9.6,9.6,0,0,1,1.752,1.757c1,1.879,1.886,3.808,2.749,5.748a2.331,2.331,0,0,0,2.146,1.622,46.618,46.618,0,0,1,6.292,1.019,4.445,4.445,0,0,1,2.174,1.479c.145.173-.586,1.244-1.069,1.757-1.38,1.474-2.9,2.816-4.229,4.328a3.109,3.109,0,0,0-.708,2.116c.208,2.165.7,4.3.935,6.469.08.733-.03,1.928-.466,2.172a3.209,3.209,0,0,1-2.385-.171c-1.958-.815-3.868-1.762-5.748-2.751a2.4,2.4,0,0,0-2.57.075c-2.043,1.148-4.128,2.221-6.237,3.229-.513.246-1.462.394-1.741.112a2.706,2.706,0,0,1-.717-1.97c.248-2.271.773-4.51,1.021-6.781a3.026,3.026,0,0,0-.663-2.118c-1.488-1.668-3.172-3.149-4.677-4.8a2.482,2.482,0,0,1-.7-1.935,2.483,2.483,0,0,1,1.689-1.188c2.245-.457,4.529-.68,6.769-1.146a2.725,2.725,0,0,0,1.643-1.23c1.068-1.961,1.912-4.035,2.966-6.005A9.886,9.886,0,0,1-3592.144,2454.645Z" transform="translate(3637.232 -2454.645)" fill="#001968"/>
    <path id="Path_76028" data-name="Path 76028" d="M-3380.225,2847.964a40.611,40.611,0,0,1,.729-4.51,2.856,2.856,0,0,0-1.174-3.374,30.23,30.23,0,0,1-2.995-2.772c-1.165-1.186-.761-2.568.86-2.88,1.71-.335,3.458-.469,5.159-.851a2.635,2.635,0,0,0,1.54-1.146c.8-1.413,1.352-2.969,2.153-4.391.3-.544,1.033-1.216,1.528-1.186a2.579,2.579,0,0,1,1.694,1.214c.82,1.4,1.366,2.971,2.174,4.377a2.622,2.622,0,0,0,1.554,1.132c1.586.366,3.24.44,4.822.82a2.65,2.65,0,0,1,1.694,1.26c.183.45-.291,1.338-.712,1.814a15.3,15.3,0,0,1-2.758,2.549c-1.4.972-1.546,2.172-1.188,3.674a18.268,18.268,0,0,1,.532,3.552c.021.731-.11,1.809-.581,2.135s-1.532.054-2.2-.246c-1.293-.57-2.444-1.453-3.735-2.006a2.822,2.822,0,0,0-2.052-.031c-1.6.682-3.086,1.61-4.661,2.362C-3379.222,2850.129-3380.225,2849.461-3380.225,2847.964Z" transform="translate(3432.165 -2797.402)" fill="#001968"/>
    <path id="Path_76029" data-name="Path 76029" d="M-3265.065,3274.069c-.309.335-.743,1.165-1.387,1.4a1.651,1.651,0,0,1-2.214-1.369,6.358,6.358,0,0,0-2.926-4.815,2.128,2.128,0,0,1-.366-2.06,2.462,2.462,0,0,1,2.233-.537C-3266.942,3268.064-3265.5,3270.463-3265.065,3274.069Z" transform="translate(3328.81 -3202.346)" fill="#001968"/>
  </g>
</svg>
