<svg xmlns="http://www.w3.org/2000/svg" width="14.297" height="14.273" viewBox="0 0 14.297 14.273">
  <g id="languages" transform="translate(-18 -105.93)">
    <path id="Path_68769" data-name="Path 68769" d="M32.3,112.12c-.017.062-.034.123-.052.185a1.468,1.468,0,0,1-1.016,1.038c-.04.013-.08.022-.133.037v.818c0,.214,0,.427,0,.641a.292.292,0,0,1-.513.238q-.938-.8-1.88-1.6a.353.353,0,0,0-.2-.073c-.181-.01-.363,0-.567,0v.164q0,1.644,0,3.288a1.483,1.483,0,0,1-1.565,1.566c-1.521,0-3.043,0-4.564,0a.394.394,0,0,0-.233.086c-.62.52-1.234,1.046-1.85,1.57-.052.045-.11.083-.165.124H19.4a.371.371,0,0,1-.2-.378c.01-.3,0-.594,0-.89V118.4c-.055-.015-.1-.024-.135-.037a1.477,1.477,0,0,1-1.008-1.011c-.022-.07-.039-.141-.058-.212v-4.906a3.2,3.2,0,0,1,.134-.406,1.435,1.435,0,0,1,1.361-.874c.9-.01,1.8,0,2.694,0h.167v-.159q0-1.651,0-3.3a1.482,1.482,0,0,1,1.561-1.555h2.136a.282.282,0,0,1,.295.272.279.279,0,0,1-.3.284c-.386,0-.772,0-1.159,0-.354,0-.707,0-1.061,0a.914.914,0,0,0-.916.913q-.006,2.264,0,4.529a.915.915,0,0,0,.947.911q2.366,0,4.732,0a.569.569,0,0,1,.4.147c.466.406.94.8,1.411,1.2.034.029.07.056.127.1v-.909c0-.074,0-.149,0-.223a.284.284,0,0,1,.305-.318.922.922,0,0,0,.884-.784,1.178,1.178,0,0,0,.011-.194q0-2.195,0-4.389a.924.924,0,0,0-.985-.987c-.7,0-1.405,0-2.108,0a.475.475,0,0,1-.264-.093.227.227,0,0,1-.057-.28.272.272,0,0,1,.272-.18c.437,0,.875,0,1.312,0a9.777,9.777,0,0,1,1.128.026,1.43,1.43,0,0,1,1.235,1.193.341.341,0,0,0,.025.062Zm-12.537,7.2c.539-.46,1.05-.892,1.556-1.329a.5.5,0,0,1,.353-.132q2.359.005,4.717,0a.925.925,0,0,0,1-.99q0-1.658,0-3.316V113.4c-1.324-.006-2.628.006-3.931-.007.007.019.021.062.037.1q.492,1.3.984,2.6a.282.282,0,1,1-.522.2c-.061-.156-.12-.312-.175-.469a.116.116,0,0,0-.129-.092c-.451,0-.9,0-1.354.005a.16.16,0,0,0-.117.08c-.071.161-.126.329-.192.492a.278.278,0,0,1-.367.184.275.275,0,0,1-.155-.378c.411-1.082.825-2.164,1.242-3.257a1.758,1.758,0,0,1-.345-1.362H19.572c-.051,0-.1,0-.153,0a.915.915,0,0,0-.857.9q-.007,2.278,0,4.556a.915.915,0,0,0,.849.894c.276.022.349.1.35.374C19.76,118.584,19.76,118.935,19.76,119.32Zm3.766-4.14-.551-1.456-.554,1.456Z" fill="#001968"/>
    <path id="Path_68770" data-name="Path 68770" d="M213.2,145.649h.177c.47,0,.94,0,1.41,0a.27.27,0,0,1,.283.266.277.277,0,0,1-.267.284,1.111,1.111,0,0,1-.125,0h-.656c-.045,0-.091,0-.146.007a3.121,3.121,0,0,1-.585,1.78,2.514,2.514,0,0,0,1.34.678,1.23,1.23,0,0,1,.137.026.268.268,0,0,1,.2.309.256.256,0,0,1-.271.228,2.726,2.726,0,0,1-.452-.08,3.042,3.042,0,0,1-1.318-.736c-.085.069-.165.139-.248.2a2.99,2.99,0,0,1-1.433.607c-.212.029-.344-.055-.367-.223s.08-.3.3-.329a2.5,2.5,0,0,0,1.326-.632c.017-.015.031-.034.051-.057a3.111,3.111,0,0,1-.583-1.783c-.261,0-.51,0-.76,0a1.265,1.265,0,0,1-.208-.012.269.269,0,0,1-.225-.277.272.272,0,0,1,.242-.263,1.081,1.081,0,0,1,.139-.005h1.489c0-.233,0-.45,0-.667s.108-.338.286-.334.271.126.272.334S213.2,145.416,213.2,145.649Zm-.671.566a2.468,2.468,0,0,0,.392,1.323,2.444,2.444,0,0,0,.389-1.323Z" transform="translate(-185.596 -37.276)" fill="#001968"/>
    <path id="Path_68771" data-name="Path 68771" d="M261.584,106.291a.278.278,0,1,1-.275-.274A.281.281,0,0,1,261.584,106.291Z" transform="translate(-233.98 -0.085)" fill="#001968"/>
  </g>
</svg>
