<svg xmlns="http://www.w3.org/2000/svg" xmlns:xlink="http://www.w3.org/1999/xlink" width="165.962" height="144.696" viewBox="0 0 165.962 144.696">
  <defs>
    <linearGradient id="linear-gradient" x1="0.5" x2="0.5" y2="1" gradientUnits="objectBoundingBox">
      <stop offset="0" stop-color="#f6f6f6"/>
      <stop offset="1" stop-color="#d3d3d3"/>
    </linearGradient>
    <linearGradient id="linear-gradient-2" x1="0.5" x2="0.5" y2="1" gradientUnits="objectBoundingBox">
      <stop offset="0" stop-color="#ffdf13"/>
      <stop offset="1" stop-color="#ffb300"/>
    </linearGradient>
    <linearGradient id="linear-gradient-3" x1="0.5" x2="0.5" y2="1" gradientUnits="objectBoundingBox">
      <stop offset="0" stop-color="#afecff"/>
      <stop offset="1" stop-color="#2bc7f9"/>
    </linearGradient>
    <linearGradient id="linear-gradient-4" x1="0.5" x2="0.5" y2="1" gradientUnits="objectBoundingBox">
      <stop offset="0" stop-color="#001968"/>
      <stop offset="1" stop-color="#c80880"/>
    </linearGradient>
    <linearGradient id="linear-gradient-5" x1="0.5" x2="0.5" y2="1" gradientUnits="objectBoundingBox">
      <stop offset="0" stop-color="#e9e9e9"/>
      <stop offset="1" stop-color="#aaa"/>
    </linearGradient>
    <linearGradient id="linear-gradient-6" x1="0.5" x2="0.5" y2="1" gradientUnits="objectBoundingBox">
      <stop offset="0" stop-color="#ffdb11"/>
      <stop offset="1" stop-color="#ffb501"/>
    </linearGradient>
    <linearGradient id="linear-gradient-7" x1="0.5" x2="0.5" y2="1" gradientUnits="objectBoundingBox">
      <stop offset="0" stop-color="#a1e8fe"/>
      <stop offset="1" stop-color="#34cafa"/>
    </linearGradient>
    <linearGradient id="linear-gradient-8" x1="0.5" x2="0.5" y2="1" gradientUnits="objectBoundingBox">
      <stop offset="0" stop-color="#001969"/>
      <stop offset="1" stop-color="#e2047f"/>
    </linearGradient>
    <linearGradient id="linear-gradient-9" x1="0.5" x2="0.5" y2="1" gradientUnits="objectBoundingBox">
      <stop offset="0" stop-color="#ffbd22"/>
      <stop offset="1" stop-color="#ffe21c"/>
    </linearGradient>
  </defs>
  <g id="Group_66140" data-name="Group 66140" transform="translate(-103 -333.304)">
    <rect id="Rectangle_13065" data-name="Rectangle 13065" width="33" height="35" transform="translate(103 429)" fill="url(#linear-gradient)"/>
    <rect id="Rectangle_13066" data-name="Rectangle 13066" width="33" height="49" transform="translate(147 415)" fill="url(#linear-gradient-2)"/>
    <rect id="Rectangle_13067" data-name="Rectangle 13067" width="33" height="69" transform="translate(191 395)" fill="url(#linear-gradient-3)"/>
    <rect id="Rectangle_13068" data-name="Rectangle 13068" width="33" height="92" transform="translate(234 372)" fill="url(#linear-gradient-4)"/>
    <text id="Silver" transform="translate(120 476)" font-size="7" font-family="Poppins-Medium, Poppins" font-weight="500"><tspan x="-9.482" y="0">Silver</tspan></text>
    <text id="Gold" transform="translate(164 476)" font-size="7" font-family="Poppins-Medium, Poppins" font-weight="500"><tspan x="-8.236" y="0">Gold</tspan></text>
    <text id="Diamond" transform="translate(207 476)" font-size="7" font-family="Poppins-Medium, Poppins" font-weight="500"><tspan x="-16.292" y="0">Diamond</tspan></text>
    <text id="Prime" transform="translate(251 476)" font-size="7" font-family="Poppins-Medium, Poppins" font-weight="500"><tspan x="-10.147" y="0">Prime</tspan></text>
    <g id="Group_65998" data-name="Group 65998" transform="translate(-198.096 193.215)">
      <g id="Group_66137" data-name="Group 66137">
        <path id="Path_76001" data-name="Path 76001" d="M318.065,38.434h-10.34l-7.311,7.311v10.34l7.311,7.311h10.34l7.311-7.311V45.746Z" transform="translate(4.682 165.87)" fill="url(#linear-gradient-5)"/>
        <g id="Group_65992" data-name="Group 65992" transform="translate(309.941 207.546)">
          <g id="Group_65993" data-name="Group 65993">
            <path id="Path_76001-2" data-name="Path 76001" d="M2157.807,1916c.115.032.229.065.344.095l2.472.646a.179.179,0,0,1,.026.012l-.773.482,5.545,8.855c.371-.656.725-1.312,1.057-1.98s.652-1.338.978-2.01l.317.24,1.253.95a.288.288,0,0,0,.032.018v.009c-.04.077-.08.153-.119.23-.39.781-.828,1.537-1.263,2.293q-1.079,1.878-2.156,3.756c-.008.015-.018.029-.03.048l-7.315-11.352-.952.592c.017-.087.031-.164.046-.24l.282-1.41q.122-.606.244-1.211a.186.186,0,0,0,0-.023Z" transform="translate(-2157.224 -1910.939)" fill="#7e7e7e"/>
            <g id="Group_65992-2" data-name="Group 65992" transform="translate(4.27 0)">
              <path id="Path_76002" data-name="Path 76002" d="M2927.152,1015.681c.082-.229.157-.445.237-.66a.073.073,0,0,0-.023-.1,4.685,4.685,0,0,1-.928-1.207,6.7,6.7,0,0,1-.684-1.9,5.167,5.167,0,0,1-.113-.908c-.006-.259-.016-.519,0-.776a5.662,5.662,0,0,1,1.16-3.123,4.512,4.512,0,0,1,2.283-1.609,3.5,3.5,0,0,1,.813-.157,5.756,5.756,0,0,1,.629-.016,4.158,4.158,0,0,1,1.479.352,4.959,4.959,0,0,1,2,1.611,5.841,5.841,0,0,1,1.015,2.216,5.068,5.068,0,0,1,.126.791c.014.2.019.4.031.6a3.764,3.764,0,0,1-.04.655c-.031.273-.059.548-.108.818-.07.383-.146.766-.24,1.143a20.909,20.909,0,0,1-1.522,4.062l-.066.133-1.605-1.218c.081-.187.162-.372.241-.557a21.852,21.852,0,0,0,.853-2.309,9.355,9.355,0,0,0,.278-1.173c.026-.16.047-.321.057-.483.014-.221.025-.444.02-.665a4.6,4.6,0,0,0-.774-2.533,3.009,3.009,0,0,0-1.1-1.008,2.136,2.136,0,0,0-.791-.237,2.067,2.067,0,0,0-1.4.377,2.974,2.974,0,0,0-.973,1.176,4.205,4.205,0,0,0-.364,1.157,4.727,4.727,0,0,0-.062.98,4.38,4.38,0,0,0,.2,1.2,1.717,1.717,0,0,0,.292.548c.015.018.031.036.047.053s.012.01.023.02l.17-.472,1.515,2.2Z" transform="translate(-2925.632 -1005.229)" fill="#7e7e7e"/>
            </g>
          </g>
          <g id="Group_65994" data-name="Group 65994" transform="translate(7.077 3.811)">
            <path id="Path_76003" data-name="Path 76003" d="M3433.279,1692.4a1.272,1.272,0,0,1-.712,1.143,1.114,1.114,0,0,1-1.322-.261,1.366,1.366,0,0,1,.092-1.923,1.091,1.091,0,0,1,.634-.279,1.184,1.184,0,0,1,1.2.76A1.552,1.552,0,0,1,3433.279,1692.4Zm-.4.031a.97.97,0,0,0-.133-.534.763.763,0,0,0-1.237-.129.921.921,0,0,0-.014,1.2.748.748,0,0,0,1,.149A.846.846,0,0,0,3432.881,1692.434Z" transform="translate(-3430.893 -1691.076)" fill="#7e7e7e"/>
          </g>
          <g id="Group_65995" data-name="Group 65995" transform="translate(7.847 4.58)">
            <path id="Path_76004" data-name="Path 76004" d="M3569.864,1830.47a1.678,1.678,0,0,1-.406-.5.4.4,0,0,1,.307-.58.453.453,0,0,1,.352.071.384.384,0,0,1,.147.478,1.45,1.45,0,0,1-.35.483C3569.9,1830.438,3569.884,1830.452,3569.864,1830.47Zm-.024-.837a.151.151,0,0,0-.149.16.156.156,0,0,0,.148.164.159.159,0,0,0,.151-.162A.155.155,0,0,0,3569.84,1829.632Z" transform="translate(-3569.414 -1829.382)" fill="#7e7e7e"/>
          </g>
        </g>
      </g>
    </g>
    <g id="Group_66095" data-name="Group 66095" transform="translate(-154.077 178.696)">
      <path id="Path_76001-3" data-name="Path 76001" d="M318.065,38.434h-10.34l-7.311,7.311v10.34l7.311,7.311h10.34l7.311-7.311V45.746Z" transform="translate(4.682 165.87)" fill="url(#linear-gradient-6)"/>
      <g id="Group_65992-3" data-name="Group 65992" transform="translate(309.941 207.546)">
        <g id="Group_65993-2" data-name="Group 65993">
          <path id="Path_76001-4" data-name="Path 76001" d="M2157.807,1916c.115.032.229.065.344.095l2.472.646a.179.179,0,0,1,.026.012l-.773.482,5.545,8.855c.371-.656.725-1.312,1.057-1.98s.652-1.338.978-2.01l.317.24,1.253.95a.288.288,0,0,0,.032.018v.009c-.04.077-.08.153-.119.23-.39.781-.828,1.537-1.263,2.293q-1.079,1.878-2.156,3.756c-.008.015-.018.029-.03.048l-7.315-11.352-.952.592c.017-.087.031-.164.046-.24l.282-1.41q.122-.606.244-1.211a.186.186,0,0,0,0-.023Z" transform="translate(-2157.224 -1910.939)" fill="#323232"/>
          <g id="Group_65992-4" data-name="Group 65992" transform="translate(4.27 0)">
            <path id="Path_76002-2" data-name="Path 76002" d="M2927.152,1015.681c.082-.229.157-.445.237-.66a.073.073,0,0,0-.023-.1,4.685,4.685,0,0,1-.928-1.207,6.7,6.7,0,0,1-.684-1.9,5.167,5.167,0,0,1-.113-.908c-.006-.259-.016-.519,0-.776a5.662,5.662,0,0,1,1.16-3.123,4.512,4.512,0,0,1,2.283-1.609,3.5,3.5,0,0,1,.813-.157,5.756,5.756,0,0,1,.629-.016,4.158,4.158,0,0,1,1.479.352,4.959,4.959,0,0,1,2,1.611,5.841,5.841,0,0,1,1.015,2.216,5.068,5.068,0,0,1,.126.791c.014.2.019.4.031.6a3.764,3.764,0,0,1-.04.655c-.031.273-.059.548-.108.818-.07.383-.146.766-.24,1.143a20.909,20.909,0,0,1-1.522,4.062l-.066.133-1.605-1.218c.081-.187.162-.372.241-.557a21.852,21.852,0,0,0,.853-2.309,9.355,9.355,0,0,0,.278-1.173c.026-.16.047-.321.057-.483.014-.221.025-.444.02-.665a4.6,4.6,0,0,0-.774-2.533,3.009,3.009,0,0,0-1.1-1.008,2.136,2.136,0,0,0-.791-.237,2.067,2.067,0,0,0-1.4.377,2.974,2.974,0,0,0-.973,1.176,4.205,4.205,0,0,0-.364,1.157,4.727,4.727,0,0,0-.062.98,4.38,4.38,0,0,0,.2,1.2,1.717,1.717,0,0,0,.292.548c.015.018.031.036.047.053s.012.01.023.02l.17-.472,1.515,2.2Z" transform="translate(-2925.632 -1005.229)" fill="#323232"/>
          </g>
        </g>
        <g id="Group_65994-2" data-name="Group 65994" transform="translate(7.077 3.811)">
          <path id="Path_76003-2" data-name="Path 76003" d="M3433.279,1692.4a1.272,1.272,0,0,1-.712,1.143,1.114,1.114,0,0,1-1.322-.261,1.366,1.366,0,0,1,.092-1.923,1.091,1.091,0,0,1,.634-.279,1.184,1.184,0,0,1,1.2.76A1.552,1.552,0,0,1,3433.279,1692.4Zm-.4.031a.97.97,0,0,0-.133-.534.763.763,0,0,0-1.237-.129.921.921,0,0,0-.014,1.2.748.748,0,0,0,1,.149A.846.846,0,0,0,3432.881,1692.434Z" transform="translate(-3430.893 -1691.076)" fill="#323232"/>
        </g>
        <g id="Group_65995-2" data-name="Group 65995" transform="translate(7.847 4.58)">
          <path id="Path_76004-2" data-name="Path 76004" d="M3569.864,1830.47a1.678,1.678,0,0,1-.406-.5.4.4,0,0,1,.307-.58.453.453,0,0,1,.352.071.384.384,0,0,1,.147.478,1.45,1.45,0,0,1-.35.483C3569.9,1830.438,3569.884,1830.452,3569.864,1830.47Zm-.024-.837a.151.151,0,0,0-.149.16.156.156,0,0,0,.148.164.159.159,0,0,0,.151-.162A.155.155,0,0,0,3569.84,1829.632Z" transform="translate(-3569.414 -1829.382)" fill="#323232"/>
        </g>
      </g>
    </g>
    <g id="Group_66096" data-name="Group 66096" transform="translate(-110.577 159.696)">
      <path id="Path_76001-5" data-name="Path 76001" d="M318.065,38.434h-10.34l-7.311,7.311v10.34l7.311,7.311h10.34l7.311-7.311V45.746Z" transform="translate(4.682 165.87)" fill="url(#linear-gradient-7)"/>
      <g id="Group_65992-5" data-name="Group 65992" transform="translate(309.941 207.546)">
        <g id="Group_65993-3" data-name="Group 65993">
          <path id="Path_76001-6" data-name="Path 76001" d="M2157.807,1916c.115.032.229.065.344.095l2.472.646a.179.179,0,0,1,.026.012l-.773.482,5.545,8.855c.371-.656.725-1.312,1.057-1.98s.652-1.338.978-2.01l.317.24,1.253.95a.288.288,0,0,0,.032.018v.009c-.04.077-.08.153-.119.23-.39.781-.828,1.537-1.263,2.293q-1.079,1.878-2.156,3.756c-.008.015-.018.029-.03.048l-7.315-11.352-.952.592c.017-.087.031-.164.046-.24l.282-1.41q.122-.606.244-1.211a.186.186,0,0,0,0-.023Z" transform="translate(-2157.224 -1910.939)" fill="#323232"/>
          <g id="Group_65992-6" data-name="Group 65992" transform="translate(4.27 0)">
            <path id="Path_76002-3" data-name="Path 76002" d="M2927.152,1015.681c.082-.229.157-.445.237-.66a.073.073,0,0,0-.023-.1,4.685,4.685,0,0,1-.928-1.207,6.7,6.7,0,0,1-.684-1.9,5.167,5.167,0,0,1-.113-.908c-.006-.259-.016-.519,0-.776a5.662,5.662,0,0,1,1.16-3.123,4.512,4.512,0,0,1,2.283-1.609,3.5,3.5,0,0,1,.813-.157,5.756,5.756,0,0,1,.629-.016,4.158,4.158,0,0,1,1.479.352,4.959,4.959,0,0,1,2,1.611,5.841,5.841,0,0,1,1.015,2.216,5.068,5.068,0,0,1,.126.791c.014.2.019.4.031.6a3.764,3.764,0,0,1-.04.655c-.031.273-.059.548-.108.818-.07.383-.146.766-.24,1.143a20.909,20.909,0,0,1-1.522,4.062l-.066.133-1.605-1.218c.081-.187.162-.372.241-.557a21.852,21.852,0,0,0,.853-2.309,9.355,9.355,0,0,0,.278-1.173c.026-.16.047-.321.057-.483.014-.221.025-.444.02-.665a4.6,4.6,0,0,0-.774-2.533,3.009,3.009,0,0,0-1.1-1.008,2.136,2.136,0,0,0-.791-.237,2.067,2.067,0,0,0-1.4.377,2.974,2.974,0,0,0-.973,1.176,4.205,4.205,0,0,0-.364,1.157,4.727,4.727,0,0,0-.062.98,4.38,4.38,0,0,0,.2,1.2,1.717,1.717,0,0,0,.292.548c.015.018.031.036.047.053s.012.01.023.02l.17-.472,1.515,2.2Z" transform="translate(-2925.632 -1005.229)" fill="#323232"/>
          </g>
        </g>
        <g id="Group_65994-3" data-name="Group 65994" transform="translate(7.077 3.811)">
          <path id="Path_76003-3" data-name="Path 76003" d="M3433.279,1692.4a1.272,1.272,0,0,1-.712,1.143,1.114,1.114,0,0,1-1.322-.261,1.366,1.366,0,0,1,.092-1.923,1.091,1.091,0,0,1,.634-.279,1.184,1.184,0,0,1,1.2.76A1.552,1.552,0,0,1,3433.279,1692.4Zm-.4.031a.97.97,0,0,0-.133-.534.763.763,0,0,0-1.237-.129.921.921,0,0,0-.014,1.2.748.748,0,0,0,1,.149A.846.846,0,0,0,3432.881,1692.434Z" transform="translate(-3430.893 -1691.076)" fill="#323232"/>
        </g>
        <g id="Group_65995-3" data-name="Group 65995" transform="translate(7.847 4.58)">
          <path id="Path_76004-3" data-name="Path 76004" d="M3569.864,1830.47a1.678,1.678,0,0,1-.406-.5.4.4,0,0,1,.307-.58.453.453,0,0,1,.352.071.384.384,0,0,1,.147.478,1.45,1.45,0,0,1-.35.483C3569.9,1830.438,3569.884,1830.452,3569.864,1830.47Zm-.024-.837a.151.151,0,0,0-.149.16.156.156,0,0,0,.148.164.159.159,0,0,0,.151-.162A.155.155,0,0,0,3569.84,1829.632Z" transform="translate(-3569.414 -1829.382)" fill="#323232"/>
        </g>
      </g>
    </g>
    <g id="Group_65996" data-name="Group 65996" transform="translate(-71.096 129)">
      <path id="Path_76001-7" data-name="Path 76001" d="M325.136,38.434H310.654l-10.24,10.24V63.156l10.24,10.24h14.482l10.24-10.24V48.675Z" transform="translate(4.682 165.87)" fill="url(#linear-gradient-8)"/>
      <g id="Group_65992-7" data-name="Group 65992" transform="translate(-1845.342 -796.384)">
        <g id="Group_65993-4" data-name="Group 65993" transform="translate(2157.224 1005.229)">
          <path id="Path_76001-8" data-name="Path 76001" d="M2158.04,1916c.161.044.321.091.482.133l3.462.9a.257.257,0,0,1,.036.017l-1.083.675,7.767,12.4c.52-.919,1.016-1.838,1.481-2.773s.913-1.874,1.37-2.815l.444.336,1.755,1.33a.4.4,0,0,0,.045.025v.013c-.055.107-.112.214-.166.322-.547,1.094-1.16,2.152-1.769,3.212q-1.511,2.63-3.02,5.261c-.011.021-.024.04-.042.067l-10.246-15.9-1.333.829c.023-.122.043-.229.064-.336q.2-.987.4-1.975.17-.849.342-1.7a.21.21,0,0,0,0-.033Z" transform="translate(-2157.224 -1908.912)" fill="url(#linear-gradient-9)"/>
          <g id="Group_65992-8" data-name="Group 65992" transform="translate(5.98 0)">
            <path id="Path_76002-4" data-name="Path 76002" d="M2927.76,1019.867c.115-.32.22-.624.332-.925a.1.1,0,0,0-.032-.135,6.555,6.555,0,0,1-1.3-1.69,9.379,9.379,0,0,1-.958-2.655,7.192,7.192,0,0,1-.158-1.271c-.008-.362-.022-.726,0-1.087a7.932,7.932,0,0,1,1.625-4.374,6.32,6.32,0,0,1,3.2-2.253,4.9,4.9,0,0,1,1.138-.22,8.069,8.069,0,0,1,.881-.022,5.824,5.824,0,0,1,2.071.493,6.946,6.946,0,0,1,2.8,2.256,8.186,8.186,0,0,1,1.422,3.1,7.084,7.084,0,0,1,.176,1.108c.02.278.026.556.043.834a5.283,5.283,0,0,1-.056.917c-.044.383-.083.768-.152,1.146-.1.536-.2,1.072-.336,1.6a29.29,29.29,0,0,1-2.132,5.689l-.092.186-2.249-1.706c.114-.263.228-.52.338-.779a30.566,30.566,0,0,0,1.194-3.234,13.14,13.14,0,0,0,.389-1.643c.036-.224.066-.45.08-.676.02-.31.036-.621.028-.931a6.441,6.441,0,0,0-1.084-3.548,4.215,4.215,0,0,0-1.546-1.412,2.992,2.992,0,0,0-1.107-.332,2.9,2.9,0,0,0-1.965.528,4.165,4.165,0,0,0-1.362,1.647,5.881,5.881,0,0,0-.509,1.62,6.616,6.616,0,0,0-.087,1.373,6.133,6.133,0,0,0,.276,1.684,2.409,2.409,0,0,0,.409.767c.021.026.044.05.066.075.007.008.016.014.032.028l.238-.661,2.122,3.081Z" transform="translate(-2925.632 -1005.229)" fill="url(#linear-gradient-9)"/>
          </g>
        </g>
        <g id="Group_65994-4" data-name="Group 65994" transform="translate(2167.137 1010.567)">
          <path id="Path_76003-4" data-name="Path 76003" d="M3434.235,1692.934a1.782,1.782,0,0,1-1,1.6,1.561,1.561,0,0,1-1.852-.366,1.913,1.913,0,0,1,.128-2.694,1.528,1.528,0,0,1,.887-.391,1.658,1.658,0,0,1,1.686,1.064A2.167,2.167,0,0,1,3434.235,1692.934Zm-.557.044a1.354,1.354,0,0,0-.186-.748,1.068,1.068,0,0,0-1.732-.181,1.291,1.291,0,0,0-.02,1.675,1.047,1.047,0,0,0,1.4.209A1.185,1.185,0,0,0,3433.677,1692.978Z" transform="translate(-3430.893 -1691.076)" fill="url(#linear-gradient-9)"/>
        </g>
        <g id="Group_65995-4" data-name="Group 65995" transform="translate(2168.215 1011.643)">
          <path id="Path_76004-4" data-name="Path 76004" d="M3570.045,1830.906a2.348,2.348,0,0,1-.569-.7.564.564,0,0,1,.43-.812.635.635,0,0,1,.493.1.537.537,0,0,1,.206.669,2.03,2.03,0,0,1-.49.677C3570.094,1830.861,3570.073,1830.88,3570.045,1830.906Zm-.034-1.173a.212.212,0,0,0-.209.224.218.218,0,0,0,.207.229.223.223,0,0,0,.211-.227A.217.217,0,0,0,3570.011,1829.733Z" transform="translate(-3569.413 -1829.382)" fill="url(#linear-gradient-9)"/>
        </g>
      </g>
    </g>
  </g>
</svg>
