<svg xmlns="http://www.w3.org/2000/svg" width="100" height="100" viewBox="0 0 100 100">
  <g id="men-icon" transform="translate(6137 3259)">
    <g id="Rectangle_12142" data-name="Rectangle 12142" transform="translate(-6137 -3259)" fill="#fff" stroke="#707070" stroke-width="1" opacity="0">
      <rect width="100" height="100" stroke="none"/>
      <rect x="0.5" y="0.5" width="99" height="99" fill="none"/>
    </g>
    <g id="Group_62918" data-name="Group 62918" transform="translate(-6645.038 -4337.339)">
      <path id="Path_70684" data-name="Path 70684" d="M570.61,1105.563c.456.153.824.259,1.179.4a5.292,5.292,0,0,1,3.408,5.225,5.107,5.107,0,0,1-3.942,4.8,1.644,1.644,0,0,0-1.429,1.406,11.847,11.847,0,0,1-4.252,6.583,3.449,3.449,0,0,0-.863,3.737,2.83,2.83,0,0,0,2.681,1.946,27.63,27.63,0,0,1,5.175.607,13.5,13.5,0,0,1,9.67,9.467c2.3,7.548,4.476,15.136,6.635,22.728a5.988,5.988,0,0,1-6.252,7.79c-2.35-.132-4.689-.465-7.033-.7-.6-.061-1.206-.092-1.935-.148a5.462,5.462,0,0,1-.16,1.727c-.215.474-.74.807-1.129,1.2-.4-.4-.94-.726-1.15-1.2-.274-.624-.06-1.592-.468-1.987s-1.318-.265-2.01-.342c-2-.221-3.987-.5-5.989-.621a6.472,6.472,0,0,1-4.645-1.932c-2.669,2.593-6.15,1.856-9.308,2.406-1.325.229-2.674.317-4.151.485a5.689,5.689,0,0,1-.046,1.9c-.2.509-.78.869-1.193,1.293a6.738,6.738,0,0,1-1.091-1.362,4.5,4.5,0,0,1-.035-1.573c-2.582.263-5,.479-7.406.764a7.083,7.083,0,0,1-5.271-.934,5.917,5.917,0,0,1-2.426-6.548c2.218-7.755,4.408-15.522,6.786-23.229a14.063,14.063,0,0,1,13.48-9.782c.437,0,.874.005,1.311-.01a2.714,2.714,0,0,0,2.649-1.972,3.142,3.142,0,0,0-.929-3.581,12.038,12.038,0,0,1-4.445-6.757,1.532,1.532,0,0,0-1.334-1.329,5.17,5.17,0,0,1-4.088-5.085,5.327,5.327,0,0,1,3.926-5.126c1.465-.392,1.53-.563.817-1.948a14.385,14.385,0,0,1,.078-14.044c.966-1.825,1.637-1.812,2.743-.05.538.858,1.239.886,1.644-.055.441-1.026,1.113-1.131,2.094-1.034a29.342,29.342,0,0,1,10.477,3.111,1.916,1.916,0,0,0,1.414-.006,6.232,6.232,0,0,1,8.7,5.3,14.163,14.163,0,0,1-1.2,6.76C571.063,1104.384,570.854,1104.944,570.61,1105.563Zm11.777,43.738a4.637,4.637,0,0,0-.064-.787c-.832-2.845-1.548-5.732-2.543-8.52a11.371,11.371,0,0,0-9.383-7.765,29.5,29.5,0,0,0-4.175-.274,3.821,3.821,0,0,0-1.8.268,13.893,13.893,0,0,1-12.608.614,9.762,9.762,0,0,0-4.269-.81,12.024,12.024,0,0,0-11.495,8.684c-.732,2.466-1.443,4.937-2.156,7.408-.094.323-.136.661-.238,1.172,2.285,0,4.453.032,6.618-.042.27-.008.62-.539.764-.9.652-1.617,1.236-3.26,1.86-4.889.3-.771.7-1.549,1.7-1.179,1.063.395.8,1.265.542,2.1a8.012,8.012,0,0,0-.465,2.141c-.047,3.842-.024,7.684-.02,11.527,0,.419.044.839.071,1.332,1.646-.08,3.173-.084,4.676-.277a1.61,1.61,0,0,0,1.053-1.049c.831-4.138,3.446-7.06,6.424-9.776a1.5,1.5,0,0,1,2.37,0c3.014,2.748,5.643,5.72,6.411,9.92.063.345.345.888.588.924,1.653.255,3.323.4,5.136.6,0-.875,0-1.52,0-2.164,0-3.581.02-7.161-.024-10.74a10.267,10.267,0,0,0-.4-2.418c-.213-.82-.377-1.622.584-2,1.01-.4,1.4.36,1.7,1.136.625,1.627,1.22,3.267,1.887,4.877.144.349.529.839.817.848C578.066,1149.335,580.2,1149.3,582.387,1149.3ZM548.1,1105.968a92.976,92.976,0,0,0,.068,9.773,9.739,9.739,0,0,0,8.192,8.379,9.874,9.874,0,0,0,10.427-5.383c1.876-3.806.695-7.864,1.067-11.663a23.865,23.865,0,0,1-4.483-1.364,8.651,8.651,0,0,0-6.327-.572A77.141,77.141,0,0,1,548.1,1105.968Zm8.677,46.317-.5-.252a32.392,32.392,0,0,0-2.432,3.729,28.38,28.38,0,0,0-1.447,4.333,1.8,1.8,0,0,1-1.9,1.436c-1.176.024-2.351.124-3.527.193-3.048.182-6.094.39-9.144.537-1.153.054-1.633-.678-1.288-1.812.114-.376.272-.736.409-1.1l2.845-7.646c-2.062,0-3.921.06-5.774-.025-.945-.043-1.29.345-1.523,1.175q-1.322,4.72-2.737,9.414c-1.123,3.732.793,5.992,4.689,5.539,3.162-.368,6.33-.674,9.495-1.011,3.3-.35,6.593-.684,9.884-1.064,1.734-.2,2.9-1.108,2.926-2.475C556.824,1159.6,556.775,1155.941,556.775,1152.285Zm8.421-58.336c.248.836.523,1.571.675,2.329.155.78.053,1.561-.915,1.73-.928.162-1.321-.4-1.447-1.268a3.564,3.564,0,0,0-2.143-2.77,27.394,27.394,0,0,0-8.548-2.77c-.351-.048-.9-.029-1.067.185-1.3,1.665-2.9,1.725-4.741.909a2.74,2.74,0,0,0-.223.357,7.772,7.772,0,0,0-.269.736,11.783,11.783,0,0,0-.018,6.958c.795,2.654.887,2.9,3.615,2.942,4.18.069,8.375-.012,12.025-2.585a1.357,1.357,0,0,1,1.3.063,2.058,2.058,0,0,1,.361,1.373c0,.293-.308.586-.617,1.123,1.585.412,3.04.818,4.513,1.145a.966.966,0,0,0,.832-.381,11.842,11.842,0,0,0,1.557-6.787C569.748,1094.573,567.69,1093.2,565.2,1093.949Zm11.3,57.763c.189.618.288,1.027.438,1.415,1,2.606,2.021,5.2,3.02,7.811.568,1.481-.092,2.3-1.628,2.113-4.2-.513-8.4-1.035-12.61-1.475a2.091,2.091,0,0,1-2.078-1.618c-.416-1.422-.853-2.842-1.357-4.234a7.982,7.982,0,0,0-2.946-3.735c0,3.913-.052,7.614.029,11.313a2.338,2.338,0,0,0,2.065,2.235c.935.2,1.9.25,2.853.354,6.073.666,12.142,1.366,18.221,1.975a3.641,3.641,0,0,0,4.049-4.768c-.943-3.539-2.025-7.039-3.082-10.546-.1-.319-.441-.794-.683-.8C580.758,1151.685,578.724,1151.712,576.5,1151.712Zm-23.683-21.026a11.263,11.263,0,0,0,10.13-.5c-.354-1.467-.663-2.75-.914-3.793h-7.858C553.745,1127.749,553.307,1129.133,552.816,1130.687Zm24.307,29.712c-1.09-2.85-2.068-5.412-3.048-7.974l-.217.078v7.569Zm-31.59-52.188a2.708,2.708,0,0,0,0,5.4Zm-3.333,44.856-.288-.1-2.558,6.8,2.846-.257Zm28.092-39.448a2.637,2.637,0,0,0,2.487-2.887,2.546,2.546,0,0,0-2.487-2.5Z" transform="translate(0 0)" fill="#001968"/>
      <path id="Path_70687" data-name="Path 70687" d="M619.9,1165.961a1.249,1.249,0,0,1-.1.523,12.305,12.305,0,0,1-.8,1.029c-.252-.322-.5-.647-.756-.964a3.579,3.579,0,0,0-.791-.891c-.652-.379-.767-.769-.266-1.336a2.684,2.684,0,0,1,3.742-.022c.193.223.372.766.259.888A5.493,5.493,0,0,1,619.9,1165.961Z" transform="translate(-66.371 -55.428)" fill="#001968"/>
      <path id="Path_70688" data-name="Path 70688" d="M659.911,1166.282c-.34.5-.7,1.027-1.068,1.558l-1.279-1.763-.95-.846c.41-.4.757-1,1.245-1.152a3.438,3.438,0,0,1,1.987.044,1.809,1.809,0,0,1,1.065,1.11C660.97,1165.493,660.274,1165.924,659.911,1166.282Z" transform="translate(-95.689 -55.725)" fill="#001968"/>
      <path id="Path_70689" data-name="Path 70689" d="M637.087,1202.112c.418-.134.96-.494,1.2-.35a1.89,1.89,0,0,0,2.28.013.935.935,0,0,1,.9.168c.162.186.167.823.038.894a4.945,4.945,0,0,1-2.17.878c-.673-.005-1.344-.595-2-.95C637.242,1202.721,637.235,1202.535,637.087,1202.112Z" transform="translate(-81.279 -83.593)" fill="#001968"/>
    </g>
  </g>
</svg>
