<svg xmlns="http://www.w3.org/2000/svg" width="399" height="401.028" viewBox="0 0 399 401.028">
  <g id="refer-earn-bg" transform="translate(-22 -333)">
    <rect id="Rectangle_7024" data-name="Rectangle 7024" width="399" height="394" rx="16" transform="translate(22 334)" fill="#0c53a6"/>
    <g id="Group_37739" data-name="Group 37739" transform="translate(79.861 426.87)">
      <path id="Path_30772" data-name="Path 30772" d="M213.273,242.52s-3.634-9.871-22.638-11.04c-12.192-.749-20.694-.155-26.3,1.3-11.784,3.054-18.727,14.081-9.606,24.956C164.381,269.241,211.139,250.965,213.273,242.52Z" transform="translate(-119.117 -104.725)" fill="#fff" fill-rule="evenodd"/>
      <path id="Path_30773" data-name="Path 30773" d="M208.836,240.183s19.213,5.69,52.046,5.057,53.874-3.391,72.82-3.38,31.153,7.38,30.732,21.27-67.818,5.474-67.818,5.474l-9.214-5.054-2.945,3.579s-50.812,14.911-53.249,15.572S198.3,258.021,208.836,240.183Z" transform="translate(-116.317 -104.275)" fill="#fff" fill-rule="evenodd"/>
      <path id="Path_30774" data-name="Path 30774" d="M337.688,242.769c4.675,1.113,12.914,3.34,18.7,9.8s5.119,8.46,3.562,8.906-21.822-8.016-21.822-8.016S327.891,249.448,337.688,242.769Z" transform="translate(-109.987 -104.146)" fill="#ed9072" fill-rule="evenodd"/>
      <path id="Path_30775" data-name="Path 30775" d="M208.836,240.183s8.262,1.813,15.39,3.01c12.43,29.857,48.066,22.695,70.358.623,15.275-.943,27.586-1.962,39.119-1.955a57.832,57.832,0,0,1,11.321,1.042c-1.964,1.58-2.841,4.942.979,12.014,4.086,7.565-5.852,12.767-16.879,16.129-16.475-.44-32.506-2.44-32.506-2.44l-9.214-5.054-2.945,3.579s-50.812,14.911-53.249,15.572S198.3,258.021,208.836,240.183Z" transform="translate(-116.317 -104.275)" fill="#f3e3da" fill-rule="evenodd"/>
      <path id="Path_30776" data-name="Path 30776" d="M299.243,252.83l-4.9-4.354c-20.1,14.993-46.461,41.347-72.376,38.3,0,0-.659,14,9.207,18.3s39.525,2.056,46.2-2.463S301.4,258.753,299.243,252.83Z" transform="translate(-115.552 -103.861)" fill="#1c213c" fill-rule="evenodd"/>
      <path id="Path_30777" data-name="Path 30777" d="M299.243,252.719l-2.108-1.871a25.144,25.144,0,0,0-6.148.076c-5.666,4.4-11.771,9.472-18.177,14.4-.8,27.076-26.225,52.267-29.957,18.2-6.907,2.642-13.912,3.952-20.885,3.132,0,0-.659,14,9.207,18.3s39.525,2.056,46.2-2.463S301.4,258.642,299.243,252.719Z" transform="translate(-115.552 -103.75)" fill="#070d26" fill-rule="evenodd"/>
      <path id="Path_30778" data-name="Path 30778" d="M344.877,398.285a4.029,4.029,0,0,0-2.433-1.866c-12.731-1.221-51.506-7.271-72.909,1.866Z" transform="translate(-113.177 -96.631)" fill="#03061e" fill-rule="evenodd"/>
      <path id="Path_30779" data-name="Path 30779" d="M337.953,215.166l-1.075,8.612s-1.509,18.4-1.673,20.394.609,2.735,2.612,4.542c2.371,5.339-7.322,26.731-13.011,27.138s-31.4-3.932-33.089-5.638c-1.183-1.194,13.713-19.3,13.225-22.516a6.868,6.868,0,0,0,3.15-1.261c5.938-4.746,6.454-19.054,2.905-24.42C308.35,218.012,337.953,215.166,337.953,215.166Z" transform="translate(-112.073 -105.523)" fill="#e37b64" fill-rule="evenodd"/>
      <path id="Path_30780" data-name="Path 30780" d="M285.34,275.014c4.946-2.571,7.437.068,12.093,6s9.541,5.791,12.264,7.232-1.552,52.494-20.649,58.8c-7.065,2.333-11.059-1.017-13.2-7.31C272.02,328.437,272.478,281.7,285.34,275.014Z" transform="translate(-112.967 -102.585)" fill="#f5f4f4" fill-rule="evenodd"/>
      <path id="Path_30781" data-name="Path 30781" d="M256.068,405.683c2.748-6.944,8.247-2.875,9.979-43.266,1.828-42.651-.157-115.9,41.22-117.307,0,0-.527,1-1.367,2.839l1.693.237s-5.1,12.535,2.089,17.487,16.2-.221,20.376-4.8a2.276,2.276,0,0,1,1.948-.848q4.414-5.1,9.667-10.256c8.508,2.332,21.474,10.767,21.474,10.767,6.566,4.067,14.583,11.034,15.085,18.894.708,11.155-14.654,48.334-24.142,71.646C343.423,377.28,351.8,393.308,356,405.683Z" transform="translate(-113.85 -104.029)" fill="#fffbfa" fill-rule="evenodd"/>
      <path id="Path_30782" data-name="Path 30782" d="M307.457,405.683c.037-2.163.028-4.479-.024-6.971-.476-22.239,2.828-55.295,7.194-81.536s-1.848-37.361-14.55-40.776-18.757,3.648-18.757,3.648a72.2,72.2,0,0,1-3.717-13.542c5.9-12.544,14.856-20.929,28.588-21.4,0,0-.527,1-1.367,2.839l1.694.237s-5.1,12.535,2.089,17.487,16.2-.221,20.376-4.8a2.276,2.276,0,0,1,1.948-.848q4.414-5.1,9.667-10.256c8.509,2.332,21.474,10.767,21.474,10.767,30.952,19.182,2.687,54.623-8.833,82.924-11.143,27.372-1.618,47.389,2.265,62.225Z" transform="translate(-112.775 -104.029)" fill="#e9dfd6" fill-rule="evenodd"/>
      <path id="Path_30783" data-name="Path 30783" d="M300.644,245.629s4.043-2.329,7.151-.652c0,0-8.433,13.286-.5,20.5s26.62-6.685,30.229-18.224a9.025,9.025,0,0,1,5.932,3.872s-7.206,18.03-25.682,22.314S293.279,259.345,300.644,245.629Z" transform="translate(-111.777 -104.066)" fill="#010518" fill-rule="evenodd"/>
      <path id="Path_30784" data-name="Path 30784" d="M342.933,250.807s-23.013,37.957-31.4,103c-2.782,21.6-4.219,38.274-3.2,51.595h49.026c-2.111-26.633-3.07-59.465,11.07-91.481C383.391,280.063,376.859,261.663,342.933,250.807Z" transform="translate(-111.257 -103.744)" fill="#010518" fill-rule="evenodd"/>
      <path id="Path_30785" data-name="Path 30785" d="M302.769,245.57s-11.138,20.1-14.415,61.854c-2.925,37.253-8.2,79.176-11.59,98.236H255.025c4.12-13.872,8.474-31.623,8.349-52.306C263.135,313.755,269.123,248.382,302.769,245.57Z" transform="translate(-113.902 -104.006)" fill="#010518" fill-rule="evenodd"/>
      <path id="Path_30786" data-name="Path 30786" d="M313.428,339.467s26.322-80.9,38.029-85.428c0,0-5.455-4.75-6.622-5S319.037,281.9,313.428,339.467Z" transform="translate(-110.986 -103.833)" fill="#fff" fill-rule="evenodd"/>
      <path id="Path_30787" data-name="Path 30787" d="M301.343,245.559c-7.424,35.533-12.255,36.311-17.089,90.354,1.47-10.582.2-41.1,4.989-62.87,1.862-8.464.805-18.925,3.962-24.214C294.708,246.312,297.167,244.965,301.343,245.559Z" transform="translate(-112.443 -104.013)" fill="#fff" fill-rule="evenodd"/>
      <path id="Path_30788" data-name="Path 30788" d="M328.784,374.482a2.263,2.263,0,0,0-4.471.71c.008.053,2.186,14.009,8.034,24.129h5.294C331.263,390.336,328.792,374.535,328.784,374.482Z" transform="translate(-110.444 -97.666)" fill="#fff" fill-rule="evenodd"/>
      <path id="Path_30789" data-name="Path 30789" d="M262.661,374.285a2.03,2.03,0,0,1,4.011.636c-.009.052-2.395,15.363-8.986,24.4h-5.344C259.833,392.369,262.652,374.34,262.661,374.285Z" transform="translate(-114.036 -97.666)" fill="#fff" fill-rule="evenodd"/>
      <path id="Path_30790" data-name="Path 30790" d="M289.565,161.631l-.383,6.393s1.97,2.908,10.458,3.368,78.446,14.155,78.446,14.155.9.547,2.1-.652-1.083-20.333-1.083-20.333Z" transform="translate(-112.197 -108.196)" fill="#050a25" fill-rule="evenodd"/>
      <path id="Path_30791" data-name="Path 30791" d="M293.2,180.725a11.933,11.933,0,1,1-13.612,9.975A11.933,11.933,0,0,1,293.2,180.725Z" transform="translate(-112.682 -107.25)" fill="#e37b64" fill-rule="evenodd"/>
      <path id="Path_30792" data-name="Path 30792" d="M376.611,193.658c9.349,1.442,4.664,24.748-10.1,22.472a11.934,11.934,0,0,1-9.973-13.611C357.546,196.008,370.1,192.651,376.611,193.658Z" transform="translate(-108.841 -106.606)" fill="#e37b64" fill-rule="evenodd"/>
      <path id="Path_30793" data-name="Path 30793" d="M339.728,129.477h0A40.991,40.991,0,0,1,373.892,176.1l-5.663,36.71A40.989,40.989,0,0,1,321.6,246.976h0a40.988,40.988,0,0,1-34.162-46.626l5.661-36.709A40.993,40.993,0,0,1,339.728,129.477Z" transform="translate(-112.307 -109.824)" fill="#f4ad85" fill-rule="evenodd"/>
      <path id="Path_30794" data-name="Path 30794" d="M374.064,165.984a40.726,40.726,0,0,1-.374,9.076l.1,19.564c-3.015,8.968-8.586,29.256-13.507,35.826-8.926,11.927-23.293,17.888-38.879,15.485,44.489-1.858,39.045-58.688,26.492-65.5s-40.593-12.293-48.5-12.038c-6.612.213-8.092,5-8.4,6.564L292.9,162.6a40.515,40.515,0,0,1,4.184-12.705c8.275.067,37.841,1.271,53.171,3.636s16.224,8.965,23.809,12.455ZM321.4,245.935" transform="translate(-112.106 -108.781)" fill="#ed9072" fill-rule="evenodd"/>
      <path id="Path_30795" data-name="Path 30795" d="M358.452,156.31c-2.312,6.9.975,33.5,4.112,36.964a48.168,48.168,0,0,1,3.086,15.283s5.379-12.836,9.158-13.594l5.438-15.6L372.1,160.844Z" transform="translate(-108.778 -108.461)" fill="#010518" fill-rule="evenodd"/>
      <path id="Path_30796" data-name="Path 30796" d="M380.556,187.434s23.653-37.155-12.2-48.917c0,0-7.126-20.538-27.281-18.362s-32.345.385-39.918-9.42c0,0-6.3,8.762-1.326,17.84a13.963,13.963,0,0,0-9.014,8.514c-2.751,7.053-9.15,5.835-9.15,5.835a10.077,10.077,0,0,0,8.71,3.765s-5.754,15.181-.819,23.874c0,0,1.842-6.38,16.157-3.976s25.585,6,34.054-2.888a15.715,15.715,0,0,1-8.909,8.349s18.494,2.863,25.273-10.2C354.278,180.814,374.695,178.8,380.556,187.434Z" transform="translate(-112.572 -110.736)" fill="#1c213c" fill-rule="evenodd"/>
      <path id="Path_30797" data-name="Path 30797" d="M383.31,149.564a22.274,22.274,0,0,0-3.068-3.789c-13.243-.568-36.08-4.713-46.09-25.445-10.9.8-19.2.125-25.552-2.853C315.572,131.74,336.853,163.628,383.31,149.564Z" transform="translate(-111.227 -110.399)" fill="#2d334f" fill-rule="evenodd"/>
      <path id="Path_30798" data-name="Path 30798" d="M378.218,185.269s5.99-9.419,7.37-20.269c-8.223,4.586-20.578,6.963-30-10.859,0,0-6.172,14.751-27.068,15.743,0,0,18.494,2.861,25.276-10.2C351.939,178.647,372.355,176.635,378.218,185.269Z" transform="translate(-110.233 -108.569)" fill="#070d26" fill-rule="evenodd"/>
      <path id="Path_30799" data-name="Path 30799" d="M301.63,182.532h0a4.011,4.011,0,0,1,3.348,4.559l-.791,5.157a4.009,4.009,0,0,1-4.558,3.349h0a4.012,4.012,0,0,1-3.349-4.56l.791-5.158A4.01,4.01,0,0,1,301.63,182.532Z" transform="translate(-111.845 -107.155)" fill="#010518" fill-rule="evenodd"/>
      <path id="Path_30800" data-name="Path 30800" d="M340.3,188.912h0a4.01,4.01,0,0,1,3.348,4.559l-.791,5.158a4.009,4.009,0,0,1-4.558,3.348h0a4.011,4.011,0,0,1-3.348-4.559l.79-5.157A4.012,4.012,0,0,1,340.3,188.912Z" transform="translate(-109.914 -106.836)" fill="#010518" fill-rule="evenodd"/>
      <path id="Path_30801" data-name="Path 30801" d="M298.576,168.416l11.072,2.283a2.177,2.177,0,0,1,1.689,2.569h0a2.179,2.179,0,0,1-2.567,1.689L297.7,172.675a2.179,2.179,0,0,1-1.689-2.569h0A2.179,2.179,0,0,1,298.576,168.416Z" transform="translate(-111.858 -107.859)" fill="#010518" fill-rule="evenodd"/>
      <path id="Path_30802" data-name="Path 30802" d="M337.133,174.367l11.152,1.863a2.182,2.182,0,0,1,1.786,2.5h0a2.18,2.18,0,0,1-2.5,1.786l-11.151-1.862a2.181,2.181,0,0,1-1.787-2.5h0A2.181,2.181,0,0,1,337.133,174.367Z" transform="translate(-109.93 -107.561)" fill="#010518" fill-rule="evenodd"/>
      <path id="Path_30803" data-name="Path 30803" d="M297.164,197.306a5.914,5.914,0,1,1-6.741,4.95A5.92,5.92,0,0,1,297.164,197.306Z" transform="translate(-112.138 -106.418)" fill="#e37b64" fill-rule="evenodd"/>
      <path id="Path_30804" data-name="Path 30804" d="M340.749,204.44a5.913,5.913,0,1,1-6.74,4.949A5.917,5.917,0,0,1,340.749,204.44Z" transform="translate(-109.963 -106.062)" fill="#e37b64" fill-rule="evenodd"/>
      <path id="Path_30805" data-name="Path 30805" d="M337.467,265.153a.6.6,0,0,1,1.032.611c-8.67,14.67-4.342,29.485-.363,43.1,3.911,13.38,7.492,25.633-1.563,35.754a.6.6,0,1,1-.891-.8c8.609-9.626,5.117-21.575,1.305-34.622C332.937,295.343,328.531,280.272,337.467,265.153Z" transform="translate(-110.047 -103.043)" fill="#fff" fill-rule="evenodd"/>
      <path id="Path_30806" data-name="Path 30806" d="M291.83,267.424a.748.748,0,1,1,1.437.418c-.018.065-6.659,22.961-12.753,34.719a34.845,34.845,0,0,0-3.944,13.822,32.761,32.761,0,0,0,2.12,13.937.75.75,0,0,1-1.4.546,34.216,34.216,0,0,1-2.217-14.576,36.276,36.276,0,0,1,4.105-14.413C285.212,290.237,291.809,267.491,291.83,267.424Z" transform="translate(-112.904 -102.942)" fill="#fff" fill-rule="evenodd"/>
      <path id="Path_30807" data-name="Path 30807" d="M280.049,324.746v0a1.91,1.91,0,0,1-1.039,2.486l-1.746.715a1.911,1.911,0,0,1-2.488-1.038h0a1.911,1.911,0,0,1,1.043-2.486l1.745-.716A1.909,1.909,0,0,1,280.049,324.746Z" transform="translate(-112.923 -100.113)" fill="#fff" fill-rule="evenodd"/>
      <path id="Path_30808" data-name="Path 30808" d="M303.484,321.483c-1.224-3.229-.555-5.455-2.116-9.684s-4.787-7.348-6.124-7.792-2.116.89-1.224,4.228-3.9.446-8.348-1.891-9.019-2.783-10.467-1,2.339,3.563,2.339,3.563-1.335,2.451-.558,3.452,2.005,2.894,2.005,2.894a9.591,9.591,0,0,0,2.67,7.46c3.229,3.229,15.366,7.347,17.813,10.8S303.484,321.483,303.484,321.483Z" transform="translate(-112.911 -101.093)" fill="#f4ad85" fill-rule="evenodd"/>
      <path id="Path_30809" data-name="Path 30809" d="M302.785,321.26c-1.224-3.228-.555-5.455-2.116-9.684a17.115,17.115,0,0,0-1.584-3.2c1.039,3.645,2.012,7.513-1.421,13.884-2.119,3.931-5.286,5.232-8.775,4.905,4.158,2.066,8.524,4.2,9.887,6.118C301.225,336.737,302.785,321.26,302.785,321.26Z" transform="translate(-112.211 -100.871)" fill="#ed9072" fill-rule="evenodd"/>
      <path id="Path_30810" data-name="Path 30810" d="M339.575,340.611h0a1.91,1.91,0,0,1-2.673.346l-1.495-1.152a1.913,1.913,0,0,1-.344-2.674h0a1.909,1.909,0,0,1,2.673-.343l1.493,1.15A1.912,1.912,0,0,1,339.575,340.611Z" transform="translate(-109.926 -99.472)" fill="#fff" fill-rule="evenodd"/>
      <g id="Group_37738" data-name="Group 37738" transform="translate(193.78 102.043)">
        <path id="Path_30811" data-name="Path 30811" d="M324.887,213.592a9.972,9.972,0,0,1-19.471-4.318l.018,0a1.727,1.727,0,0,1,2.053-1.308l16.075,3.565a1.729,1.729,0,0,1,1.31,2.056Z" transform="translate(-305.178 -207.927)" fill="#010518" fill-rule="evenodd"/>
        <path id="Path_30812" data-name="Path 30812" d="M319.437,219.98a9.981,9.981,0,0,1-11.406-1.81,6.208,6.208,0,0,1,6.365-2.357A6.288,6.288,0,0,1,319.437,219.98Z" transform="translate(-305.036 -207.54)" fill="#d64341" fill-rule="evenodd"/>
        <path id="Path_30813" data-name="Path 30813" d="M307.19,207.937l15.11,3.351c-.131,1.724-1.28,3.24-2.486,3.358-1.467.143-12.337-2.565-12.919-3.6C306.614,210.55,306.858,209.2,307.19,207.937Z" transform="translate(-305.098 -207.927)" fill="#fff" fill-rule="evenodd"/>
      </g>
      <path id="Path_30814" data-name="Path 30814" d="M163.387,391.37a4.029,4.029,0,0,1,2.433-1.866c12.731-1.22,51.506-7.271,72.909,1.866Z" transform="translate(-118.476 -96.976)" fill="#03061e" fill-rule="evenodd"/>
      <path id="Path_30815" data-name="Path 30815" d="M168.942,208.252l1.077,8.613s1.507,18.4,1.671,20.393-.608,2.737-2.612,4.542c-2.371,5.339,5.838,7.712,11.525,8.119a24.868,24.868,0,0,1,5.839,1.8c9.967,3.958,13.221,16.919,14.561,15.566,1.183-1.195.462-23.282.95-26.5a6.865,6.865,0,0,1-3.151-1.261c-5.936-4.746-6.452-19.054-2.9-24.42C198.548,211.1,168.942,208.252,168.942,208.252Z" transform="translate(-118.213 -105.868)" fill="#e37b64" fill-rule="evenodd"/>
      <path id="Path_30816" data-name="Path 30816" d="M221.087,268.1c-4.947-2.572-7.439.067-12.094,6s-9.54,5.79-12.265,7.231,1.554,52.495,20.649,58.8c7.066,2.332,11.06-1.017,13.2-7.311C234.407,321.521,233.949,274.783,221.087,268.1Z" transform="translate(-116.849 -102.93)" fill="#f5f4f4" fill-rule="evenodd"/>
      <path id="Path_30817" data-name="Path 30817" d="M203.788,239.237c1.071,6.852.252,10.311-.308,15.878-.294,2.912-.643,10.622-.643,10.622-2.916-.137-3.038-5.157-8.474-9.969-6.367-5.636-18.229-11.44-23.451-15.515-12.287,3.932-26.912,12.725-32.293,19.01-9.477,11.07-8.68,26.378.86,47.974,2.68,6.07,6.755,14.044,8.675,20.125,8.211,25.99,11.864,54.53,6.353,71.354,19.794,1.72,86.838,13.881,101.025,0-17.664-43.073-.717-99.033-24.039-142.225C223.349,241.407,218.283,240.451,203.788,239.237Z" transform="translate(-120.047 -104.322)" fill="#e53b3b" fill-rule="evenodd"/>
      <path id="Path_30818" data-name="Path 30818" d="M146.268,322.421c.442,1.143.838,2.251,1.171,3.3,8.211,25.99,11.864,54.529,6.353,71.354l40.167,3.487s-20.634-8.262-27.926-53.1,2.347-58.107-8.1-75.161a.784.784,0,0,0-.871-.171c-.487.232,6.634,15.818-3.013,33.26A118.217,118.217,0,0,0,146.268,322.421Z" transform="translate(-119.33 -102.684)" fill="#c72a2c" fill-rule="evenodd"/>
      <path id="Path_30819" data-name="Path 30819" d="M194.975,259.51a.6.6,0,0,0-1.033.612c8.671,14.674,4.342,29.485.363,43.1-3.91,13.38-7.49,25.634,1.563,35.755a.6.6,0,0,0,.893-.8c-8.611-9.625-5.118-21.574-1.306-34.624C199.5,289.7,203.909,274.63,194.975,259.51Z" transform="translate(-117.138 -103.325)" fill="#f6ebe1" fill-rule="evenodd"/>
      <path id="Path_30820" data-name="Path 30820" d="M202.077,257.256a.749.749,0,0,0-1.438.419c.019.064,6.658,22.961,12.753,34.72a34.793,34.793,0,0,1,3.942,13.819,32.735,32.735,0,0,1-2.12,13.939.75.75,0,0,0,1.4.546,34.244,34.244,0,0,0,2.22-14.577,36.311,36.311,0,0,0-4.107-14.413C208.692,280.07,202.095,257.323,202.077,257.256Z" transform="translate(-116.618 -103.449)" fill="#f6ebe1" fill-rule="evenodd"/>
      <path id="Path_30821" data-name="Path 30821" d="M213.25,314.579v0a1.911,1.911,0,0,0,1.04,2.486l1.745.715a1.908,1.908,0,0,0,2.486-1.041h0a1.91,1.91,0,0,0-1.039-2.486l-1.746-.716A1.911,1.911,0,0,0,213.25,314.579Z" transform="translate(-115.994 -100.62)" fill="#f6ebe1" fill-rule="evenodd"/>
      <path id="Path_30822" data-name="Path 30822" d="M192.643,334.971h0a1.912,1.912,0,0,0,2.673.345l1.494-1.154a1.91,1.91,0,0,0,.344-2.672v0a1.914,1.914,0,0,0-2.674-.343l-1.493,1.153A1.91,1.91,0,0,0,192.643,334.971Z" transform="translate(-117.035 -99.754)" fill="#f6ebe1" fill-rule="evenodd"/>
      <path id="Path_30823" data-name="Path 30823" d="M217.657,151.456,204.509,153l6.7,29.8,6.428.3Z" transform="translate(-116.423 -108.703)" fill="#070d26" fill-rule="evenodd"/>
      <path id="Path_30824" data-name="Path 30824" d="M210.69,176.242a10.782,10.782,0,1,0,12.387,8.894A10.782,10.782,0,0,0,210.69,176.242Z" transform="translate(-116.566 -107.473)" fill="#e37b64" fill-rule="evenodd"/>
      <path id="Path_30825" data-name="Path 30825" d="M134.527,187.634c-5.51.964-7.385,6.51-4.19,12.385s10.253,9.86,15.764,8.894,7.385-6.508,4.19-12.385S140.037,186.67,134.527,187.634Z" transform="translate(-120.203 -106.905)" fill="#e37b64" fill-rule="evenodd"/>
      <path id="Path_30826" data-name="Path 30826" d="M170.927,130.326h0a37.039,37.039,0,0,0-30.463,42.423L145.9,205.87a37.038,37.038,0,0,0,42.424,30.463h0a37.038,37.038,0,0,0,30.464-42.424l-5.435-33.121A37.039,37.039,0,0,0,170.927,130.326Z" transform="translate(-119.644 -109.782)" fill="#f4ad85" fill-rule="evenodd"/>
      <path id="Path_30827" data-name="Path 30827" d="M156.567,135.677a37.055,37.055,0,0,0-16.1,36.782l5.435,33.124a37.038,37.038,0,0,0,42.425,30.461h0A36.584,36.584,0,0,0,201,231.455c-35.6,6.123-43.532-17.463-46.861-37.744s3-23.7,10.527-24.939l27.642-4.536s.692-27.4-29.208-28.529C160.776,135.619,158.606,135.609,156.567,135.677Z" transform="translate(-119.644 -109.493)" fill="#ed9072" fill-rule="evenodd"/>
      <path id="Path_30828" data-name="Path 30828" d="M204.447,171.912l-10.08,1.656a1.968,1.968,0,0,0-1.621,2.255h0A1.971,1.971,0,0,0,195,177.444l10.081-1.655a1.971,1.971,0,0,0,1.621-2.256h0A1.973,1.973,0,0,0,204.447,171.912Z" transform="translate(-117.012 -107.684)" fill="#010518" fill-rule="evenodd"/>
      <path id="Path_30829" data-name="Path 30829" d="M168.05,177.885l-10.081,1.654a1.971,1.971,0,0,0-1.62,2.257h0a1.968,1.968,0,0,0,2.256,1.62l10.08-1.654a1.969,1.969,0,0,0,1.62-2.257h0A1.97,1.97,0,0,0,168.05,177.885Z" transform="translate(-118.828 -107.386)" fill="#010518" fill-rule="evenodd"/>
      <path id="Path_30830" data-name="Path 30830" d="M174.679,205.523a11.747,11.747,0,0,0,23.183-3.8l-.019,0a2.035,2.035,0,0,0-2.331-1.675l-19.141,3.141a2.036,2.036,0,0,0-1.674,2.33Z" transform="translate(-117.912 -106.279)" fill="#fff" fill-rule="evenodd"/>
      <path id="Path_30831" data-name="Path 30831" d="M205.11,194.237a5.343,5.343,0,1,0,6.138,4.406A5.342,5.342,0,0,0,205.11,194.237Z" transform="translate(-116.617 -106.572)" fill="#e37b64" fill-rule="evenodd"/>
      <path id="Path_30832" data-name="Path 30832" d="M161.9,201.327a5.343,5.343,0,1,0,6.139,4.406A5.342,5.342,0,0,0,161.9,201.327Z" transform="translate(-118.773 -106.218)" fill="#e37b64" fill-rule="evenodd"/>
      <path id="Path_30833" data-name="Path 30833" d="M169.639,193.387a1.456,1.456,0,1,0,2.874-.471,7.022,7.022,0,0,0-13.858,2.275,1.456,1.456,0,0,0,2.874-.474,4.11,4.11,0,1,1,8.111-1.33Z" transform="translate(-118.717 -106.928)" fill="#010518" fill-rule="evenodd"/>
      <path id="Path_30834" data-name="Path 30834" d="M207.537,187.168a1.456,1.456,0,1,0,2.874-.471,7.022,7.022,0,0,0-13.858,2.274,1.456,1.456,0,1,0,2.874-.471,4.11,4.11,0,1,1,8.111-1.331Z" transform="translate(-116.825 -107.238)" fill="#010518" fill-rule="evenodd"/>
      <path id="Path_30835" data-name="Path 30835" d="M148.175,179.558c.722,4.4-1.28,6.474-3.218,8.436,0,0,2.048,4.032-.238,5.433,0,0-.845-5.146-7.152-2.426,0,0-23.617-27.206-3.085-40.5-.054.77,11.268-3.054,16.191,7.84C143.738,159.483,146.663,170.345,148.175,179.558Z" transform="translate(-120.337 -108.754)" fill="#1c213c" fill-rule="evenodd"/>
      <path id="Path_30836" data-name="Path 30836" d="M148.175,179.263c.722,4.4-1.28,6.474-3.218,8.436,0,0,4.72,19.173,2.434,20.574,0,0-4.853-6.038-9.824-17.567,0,0-17.586-20.263-9.207-34.355-.029,11.6,11.908,18.8,18.3,13.948C147.064,173.207,147.692,176.319,148.175,179.263Z" transform="translate(-120.337 -108.459)" fill="#070d26" fill-rule="evenodd"/>
      <path id="Path_30837" data-name="Path 30837" d="M146.067,173.084l2.923-1.306s-1.917-8.308,7.812-9.375c0,0,8.572-7.359,18.5-1.487,0,0-9.548-7.84-10.073-8.326s-10.883,2.231-10.883,2.231-6.075,5.572-6.251,6.046S145.769,165.316,146.067,173.084Z" transform="translate(-119.342 -108.65)" fill="#010518" fill-rule="evenodd"/>
      <path id="Path_30838" data-name="Path 30838" d="M140.889,186.832c3.832,10.81,17.3,8.378,11.631-6.731-1.842-4.907-7.184-22.772,4.891-15.762,0,0,.363-18.128,18.581,1.5,21.44,23.094,59.926,10.25,48.662-25.031-6.014-18.841-31.844-29.855-55.936-26.411s-40.175,20.481-33.243,44.809Z" transform="translate(-119.95 -110.585)" fill="#1c213c" fill-rule="evenodd"/>
      <path id="Path_30839" data-name="Path 30839" d="M224.244,140.009c-2.322-6.954-7.353-12.825-13.99-17.274-.293,4.547-2.806,9.188-10.739,11.472-16.046,4.623-42.237.141-56.419-8.886a32.544,32.544,0,0,0-3.346,3.74c12.127,6.765,38.022,19.329,63.688,19.755C213.528,148.983,220.056,145.317,224.244,140.009Z" transform="translate(-119.656 -110.137)" fill="#2d334f" fill-rule="evenodd"/>
      <path id="Path_30840" data-name="Path 30840" d="M140.68,185.3c3.832,10.81,17.3,8.378,11.631-6.731-1.064-2.834-3.294-9.989-2.664-14.179h0c-1.381,7.224-6.6,9.127-11.6,7.491l2.63,13.419ZM157.2,162.806c-.215-26.934,25.729-8.9,47.782-4.639,22.012,4.253,20.764-13.635,20.759-13.7,7.039,38.852-32.62,38.513-49.959,19.836C157.565,144.678,157.2,162.806,157.2,162.806Z" transform="translate(-119.74 -109.052)" fill="#070d26" fill-rule="evenodd"/>
      <path id="Path_30841" data-name="Path 30841" d="M374.3,271.862s9.487,19.939.227,52.77-18.786,53.347-31.149,55.984-47.355-38.3-50.512-46.932c5.574-4.3,10.281-9.052,10.087-13.133-.192-4.042,37.616,34.868,38.672,30.012,5.384-24.772,4.131-59.6,10.809-73.17C357.627,266.823,365.129,260.121,374.3,271.862Z" transform="translate(-112.013 -103.003)" fill="#1c213c" fill-rule="evenodd"/>
      <path id="Path_30842" data-name="Path 30842" d="M135.338,264.3c-1.9,4.247-7.032,17.168-10.241,39.126-4,27.36-6.8,50.452-1.817,60.825s33.215,29.536,33.215,29.536l20.332,1.148s-25.633-24.161-31.526-42.469c-.825-2.565,5.854-25.644,13.74-46.323C171.544,273.362,144.091,244.753,135.338,264.3Z" transform="translate(-120.611 -103.389)" fill="#fff" fill-rule="evenodd"/>
      <path id="Path_30843" data-name="Path 30843" d="M120.612,343.5c.035,6.97.81,12.611,2.668,16.481,4.981,10.373,33.215,29.536,33.215,29.536l20.332,1.148c-21.543-2.847-42.841-22.693-49.892-29.93C121.6,355.261,120.723,347.132,120.612,343.5Z" transform="translate(-120.611 -99.117)" fill="#f3e3da" fill-rule="evenodd"/>
      <path id="Path_30844" data-name="Path 30844" d="M177.13,394.644c-16.305,4.961,55.651,21.667,79.4-.593,0,0,.487-.512.092-2.251s-2.085-7-3.476-8.3-3.991-7.607-4.455-13.823-1.575-7.146-4.358-7.236c-2.643-.088-24.841,4.921-42.482,4-3.636-.188-11.359-.4-13.554,6.2C186.9,376.845,190.432,392.566,177.13,394.644Z" transform="translate(-117.909 -98.172)" fill="#fff" fill-rule="evenodd"/>
      <path id="Path_30845" data-name="Path 30845" d="M177.13,394.274c-16.305,4.961,55.651,21.667,79.4-.593,0,0,.487-.512.092-2.251-.372-1.64-1.9-6.417-3.238-8.043-9.418,7.775-32.186,4.258-50.475-1.621-9.773-3.14-12.835-7.848-13.371-11.91a8.567,8.567,0,0,0-1.242,2.42C186.9,376.475,190.432,392.2,177.13,394.274Z" transform="translate(-117.909 -97.802)" fill="#f3e3da" fill-rule="evenodd"/>
      <path id="Path_30846" data-name="Path 30846" d="M165.272,232.5c-1.737.883-10.8,5.925-.782,9.2.345.112,2.188,3.007,2.56,3.117,1.336-.514,9.113.832,10.409.417-7.009-2.649-3.484-5.18-5.706-13.752a53.854,53.854,0,0,0-6.224.889Z" transform="translate(-118.652 -104.709)" fill="#f3e3da" fill-rule="evenodd"/>
      <path id="Path_30847" data-name="Path 30847" d="M160.151,235.181l5.833-2.846c.586-.287-12.317,5.639-1.038,9.328,9.77,3.2,31.229,4.82,38.114,25.849,0,0-.093,1.067-.51.79-3.654-2.435-16.54-25.809-51.844-18.762,0,0,.629-1.24.706-1.356l1.5-2.049Z" transform="translate(-119.109 -104.667)" fill="#fff" fill-rule="evenodd"/>
      <path id="Path_30848" data-name="Path 30848" d="M201.712,236.2l-2.426,2.921s2.561,1.071.869,9.974a51.8,51.8,0,0,0-.671,16.792,2.644,2.644,0,0,0,1.085,1.849,10.935,10.935,0,0,1,2.511-10.292c4.349-4.786,8.514-11.212,6.808-16.876Z" transform="translate(-116.693 -104.473)" fill="#fff" fill-rule="evenodd"/>
      <path id="Path_30849" data-name="Path 30849" d="M149.194,330.862c.613-1.979,1.269-4.041,1.961-6.155,2.027-6.2,4.358-12.848,6.807-19.267a45.394,45.394,0,0,0,.168-33.138.784.784,0,0,0-.871-.171c-.487.232,6.634,15.818-3.013,33.26-1.515,2.736-2.961,5.592-4.291,8.505-1.283,2.806-2.459,5.666-3.485,8.523-4.7,13.079-6.264,26.083-.6,33.568a39.955,39.955,0,0,1-1.649-4.224C143.739,350.266,145.814,341.781,149.194,330.862Z" transform="translate(-119.531 -102.684)" fill="#f3e3da" fill-rule="evenodd"/>
      <path id="Path_30850" data-name="Path 30850" d="M186.093,375.051c-.232,5.983-2.362,13.409-7.14,8.072,1.189,1.724.415,3.02,1.543,4.329.243.28,2.431.761,2.669,1.024.08.091.163.181.244.269l1.857.191c.127-.223.247-.449.36-.678q.145-.294.275-.6c2.375-5.49,1.31-12.666,2.186-15.3a8.082,8.082,0,0,1,3.012-4.15S186.326,369.067,186.093,375.051Z" transform="translate(-117.699 -97.884)" fill="#921e23" fill-rule="evenodd"/>
      <path id="Path_30851" data-name="Path 30851" d="M338.44,248.081c5.456,6.123,8.574,11.022,10.689,8.572s-.556-8.014-3.9-10.352S338.44,248.081,338.44,248.081Z" transform="translate(-109.738 -104.005)" fill="#ed9072" fill-rule="evenodd"/>
    </g>
    <g id="Group_37737" data-name="Group 37737" transform="translate(29.232 381.974)">
      <path id="Path_30760" data-name="Path 30760" d="M89.091,183.889a5.817,5.817,0,1,0,5.817,5.817A5.818,5.818,0,0,0,89.091,183.889Z" transform="translate(-76.998 -123.187)" fill="#fff"/>
      <path id="Path_30761" data-name="Path 30761" d="M343.974,365.441a5.817,5.817,0,1,0,5.817,5.819A5.818,5.818,0,0,0,343.974,365.441Z" transform="translate(-66.826 -155.805)" fill="#fff"/>
      <path id="Path_30762" data-name="Path 30762" d="M329.069,133.029a5.818,5.818,0,1,0,5.816,5.819A5.819,5.819,0,0,0,329.069,133.029Z" transform="translate(25.341 -98.678)" fill="#fff"/>
      <path id="Path_30763" data-name="Path 30763" d="M181.21,404.982a5.818,5.818,0,1,0,5.817,5.819A5.819,5.819,0,0,0,181.21,404.982Z" transform="translate(-24.321 -146.476)" fill="#fff"/>
      <path id="Path_30764" data-name="Path 30764" d="M321.334,223.052a2.909,2.909,0,1,0,2.907,2.909A2.909,2.909,0,0,0,321.334,223.052Z" transform="translate(43.637 -86.211)" fill="#fff"/>
      <path id="Path_30765" data-name="Path 30765" d="M108.388,389.687a2.908,2.908,0,1,0,2.908,2.908A2.908,2.908,0,0,0,108.388,389.687Z" transform="translate(-38.684 -114.661)" fill="#fff"/>
      <path id="Path_30766" data-name="Path 30766" d="M55.977,351.767a2.909,2.909,0,1,0,2.91,2.909A2.91,2.91,0,0,0,55.977,351.767Z" transform="translate(-53.068 -93.52)" fill="#fff"/>
      <path id="Path_30767" data-name="Path 30767" d="M196.665,101.3a2.909,2.909,0,1,0,2.91,2.909A2.908,2.908,0,0,0,196.665,101.3Z" transform="translate(-18.138 -72.65)" fill="#fff"/>
      <path id="Path_30769" data-name="Path 30769" d="M173.565,148.984l-2.729-.4-1.22-2.473a1.39,1.39,0,0,0-2.492,0l-1.22,2.473-2.729.4a1.389,1.389,0,0,0-.77,2.369l1.975,1.925L163.913,156a1.389,1.389,0,0,0,2.016,1.465l2.441-1.284,2.441,1.284A1.389,1.389,0,0,0,172.826,156l-.466-2.718,1.975-1.925A1.389,1.389,0,0,0,173.565,148.984Z" transform="translate(109.348 -139.198)" fill="#fdcb46"/>
      <path id="Path_30770" data-name="Path 30770" d="M173.565,148.984l-2.729-.4-1.22-2.473a1.39,1.39,0,0,0-2.492,0l-1.22,2.473-2.729.4a1.389,1.389,0,0,0-.77,2.369l1.975,1.925L163.913,156a1.389,1.389,0,0,0,2.016,1.465l2.441-1.284,2.441,1.284A1.389,1.389,0,0,0,172.826,156l-.466-2.718,1.975-1.925A1.389,1.389,0,0,0,173.565,148.984Z" transform="translate(-71.088 -145.34)" fill="#fdcb46"/>
    </g>
    <g id="Group_38427" data-name="Group 38427" transform="translate(49.936 333)" opacity="0.13">
      <path id="Path_30743" data-name="Path 30743" d="M310.674,0a44.639,44.639,0,1,0,87.914,0Z" transform="translate(-153.492 0)"/>
      <path id="Path_30745" data-name="Path 30745" d="M240.806,339.981a44.629,44.629,0,0,0-28.5,78.983h57.006a44.637,44.637,0,0,0-28.51-78.983Z" transform="translate(65.056 -26.554)"/>
      <circle id="Ellipse_481" data-name="Ellipse 481" cx="21.36" cy="21.36" r="21.36" transform="translate(0 19.47) rotate(-9.247)"/>
      <path id="Path_30747" data-name="Path 30747" d="M82.239,409.461a16.1,16.1,0,1,0,16.1,16.1A16.1,16.1,0,0,0,82.239,409.461Z" transform="translate(-21.268 -282.823)"/>
      <path id="Path_37573" data-name="Path 37573" d="M672.71,283.275a16.1,16.1,0,1,0,16.1,16.1A16.1,16.1,0,0,0,672.71,283.275Z" transform="translate(-343.488 -213.631)"/>
    </g>
  </g>
</svg>
