<svg xmlns="http://www.w3.org/2000/svg" width="17.421" height="17.383" viewBox="0 0 17.421 17.383">
  <g id="setting" transform="translate(-29.875 -117.893)">
    <path id="Path_68704" data-name="Path 68704" d="M45.669,131.072a1.672,1.672,0,0,1-.487,1.208c-.295.3-.592.6-.9.894a1.691,1.691,0,0,1-2.371,0,.579.579,0,0,0-.671-.172.591.591,0,0,0-.342.6,1.684,1.684,0,0,1-1.654,1.657,10.983,10.983,0,0,1-1.573-.036,1.637,1.637,0,0,1-1.408-1.635.568.568,0,0,0-1-.428,1.693,1.693,0,0,1-2.411-.024q-.429-.416-.846-.844a1.686,1.686,0,0,1-.017-2.406.561.561,0,0,0,.165-.654.574.574,0,0,0-.584-.341,1.69,1.69,0,0,1-1.684-1.7,11.277,11.277,0,0,1,.034-1.5,1.647,1.647,0,0,1,1.658-1.427.567.567,0,0,0,.572-.331.557.557,0,0,0-.149-.657,1.642,1.642,0,0,1-.37-1.836,1.853,1.853,0,0,1,.362-.555c.28-.308.581-.6.882-.885a1.692,1.692,0,0,1,2.411.006.56.56,0,0,0,.983-.4,1.693,1.693,0,0,1,1.747-1.714,11.3,11.3,0,0,1,1.447.031,1.649,1.649,0,0,1,1.443,1.662.581.581,0,0,0,.3.556.554.554,0,0,0,.69-.137,1.649,1.649,0,0,1,1.823-.373,2.121,2.121,0,0,1,.612.4c.285.251.544.531.812.8a1.69,1.69,0,0,1,.029,2.446.549.549,0,0,0-.153.64.563.563,0,0,0,.566.341,1.692,1.692,0,0,1,1.7,1.721,11.278,11.278,0,0,1-.023,1.427,1.662,1.662,0,0,1-1.706,1.481.544.544,0,0,0-.527.314.53.53,0,0,0,.13.658A1.694,1.694,0,0,1,45.669,131.072Zm-4.146.728a1.727,1.727,0,0,1,1.158.51.544.544,0,0,0,.832,0q.4-.392.8-.792a.552.552,0,0,0,.013-.846,1.715,1.715,0,0,1,1.229-2.929.546.546,0,0,0,.576-.581q0-.579,0-1.158a.546.546,0,0,0-.579-.578,1.714,1.714,0,0,1-1.235-2.917.555.555,0,0,0,0-.859c-.25-.253-.5-.5-.756-.755a.56.56,0,0,0-.9-.011,1.715,1.715,0,0,1-2.908-1.217.553.553,0,0,0-.619-.61c-.369,0-.737,0-1.106,0a.547.547,0,0,0-.6.579,1.719,1.719,0,0,1-2.938,1.218.549.549,0,0,0-.833.007q-.4.394-.794.793a.55.55,0,0,0-.009.845,1.715,1.715,0,0,1-1.234,2.926.545.545,0,0,0-.572.584q0,.579,0,1.158a.543.543,0,0,0,.564.574,1.715,1.715,0,0,1,1.237,2.933.547.547,0,0,0,.007.832q.394.4.795.793a.552.552,0,0,0,.847.008,1.716,1.716,0,0,1,2.931,1.226.546.546,0,0,0,.58.577c.356,0,.713,0,1.069,0,.469,0,.661-.185.673-.648A1.735,1.735,0,0,1,41.523,131.8Z" transform="translate(0 0)" fill="#001968"/>
    <path id="Path_68705" data-name="Path 68705" d="M126,217.895a4.061,4.061,0,1,1,4.1,4.046A4.061,4.061,0,0,1,126,217.895Zm6.962-.007a2.9,2.9,0,1,0-2.873,2.9A2.9,2.9,0,0,0,132.962,217.888Z" transform="translate(-91.478 -91.305)" fill="#001968"/>
  </g>
</svg>
