<svg xmlns="http://www.w3.org/2000/svg" width="100" height="100" viewBox="0 0 100 100">
  <g id="women-icon" transform="translate(6137 3259)">
    <g id="Rectangle_12142" data-name="Rectangle 12142" transform="translate(-6137 -3259)" fill="#fff" stroke="#707070" stroke-width="1" opacity="0">
      <rect width="100" height="100" stroke="none"/>
      <rect x="0.5" y="0.5" width="99" height="99" fill="none"/>
    </g>
    <g id="Group_62919" data-name="Group 62919" transform="translate(-6632.328 -4381.737)">
      <path id="Path_70690" data-name="Path 70690" d="M513.565,1199.793c.65-2.209,1.129-4.488,1.992-6.61a14.82,14.82,0,0,1,5.827-6.778,2.57,2.57,0,0,0,1.257-2.52c-.029-9.716-.093-19.433.025-29.148.124-10.224,9.062-19.663,19.186-21.132,12.019-1.744,23.1,6.195,25.527,17.139a30,30,0,0,1,.64,6.243c.064,9.013.034,18.028,0,27.042a2.366,2.366,0,0,0,1.11,2.27,17.3,17.3,0,0,1,7.7,12.724c.057.476.171.945.259,1.418v10.048a1.916,1.916,0,0,1-2.127,1.311q-29.632-.031-59.266,0a1.951,1.951,0,0,1-2.133-1.314Zm51.917-15.553a3.362,3.362,0,0,0,.132-.6c-.026-9.608.16-19.225-.146-28.826-.34-10.652-9.422-18.981-20.161-18.969s-19.779,8.315-20.123,19.007c-.309,9.6-.117,19.215-.135,28.825a1.766,1.766,0,0,0,.194.551c3.233-.728,6.386-1.4,9.516-2.172.628-.155,1.523-.576,1.669-1.062a2.2,2.2,0,0,0-1.028-2.73,17.122,17.122,0,0,1-6.684-8.5c-1.385-3.644-1.118-7.431-1.142-11.2-.013-2.121.266-2.413,2.422-2.47a15.218,15.218,0,0,0,9.254-3.373,16.059,16.059,0,0,0,4.743-6.445c.26-.6.941-1.024,1.428-1.53a17.185,17.185,0,0,1,1.428,1.579,14.215,14.215,0,0,1,.668,1.461,15.039,15.039,0,0,0,13.33,8.3c1.1.044,2.226.151,2.194,1.535a67.42,67.42,0,0,1-.542,9.986,16.309,16.309,0,0,1-7.529,10.881c-1.03.683-.878,1.543-.774,2.4a1.519,1.519,0,0,0,.946,1.017C558.535,1182.724,561.947,1183.455,565.483,1184.24Zm-20-34.751c-.271.137-.4.159-.449.234a17.789,17.789,0,0,1-13.794,8.776c-.92.1-1.171.549-1.149,1.383.04,1.51-.054,3.026.05,4.531a15.188,15.188,0,0,0,28.822,6.015c1.841-3.5,1.7-7.295,1.521-11.068-.014-.312-.793-.712-1.28-.857-1.694-.5-3.48-.747-5.116-1.384A17.5,17.5,0,0,1,545.479,1149.488Zm-6.837,59.723c.951.063,1.459.125,1.967.125q10.043,0,20.086-.025c3.7-.01,3.7-.024,3.7-3.792,0-2.08,0-4.16,0-6.19h2.378c0,1.377-.053,2.619.032,3.852.026.364.432,1,.681,1,2.3.078,4.6.046,7,.046,0-1.488.043-2.726-.008-3.96a15.378,15.378,0,0,0-9.892-13.6c-1.465-.553-2.172-.251-2.991,1.025a63.024,63.024,0,0,1-21.611,20.556C539.647,1208.455,539.341,1208.711,538.642,1209.211Zm14.647-24.9a2.576,2.576,0,0,0-.486.3,10.648,10.648,0,0,1-14.9.076,1.828,1.828,0,0,0-1.436-.407,99.709,99.709,0,0,0-10.666,2.58c-6.751,2.311-11.025,10.393-9.365,17.388,2.152,0,4.354.048,6.55-.053.317-.015.818-.729.859-1.155.117-1.214.041-2.448.041-3.828,6.156,1.258,11.5-.932,16.7-3.291A27.321,27.321,0,0,0,553.289,1184.309Zm6.74,1.439c-3.072-1.338-3.179-1.307-4.964,1.141a33.946,33.946,0,0,1-15.549,12.241,87.364,87.364,0,0,1-11.048,2.992c-1.617.375-2.51.908-2.237,2.739.157,1.056-.025,2.16.058,3.232.031.4.387,1.115.582,1.111,2.185-.052,4.564.3,6.513-.448a50.67,50.67,0,0,0,14.232-8.831A61.169,61.169,0,0,0,560.028,1185.748Zm-20.787-5.388-.539.357a8.37,8.37,0,0,0,1.183,2.323,7.785,7.785,0,0,0,11.128-.254,6.64,6.64,0,0,0,.859-2.207A21.835,21.835,0,0,1,539.241,1180.36Zm-22.873,26.345c-.365,2.187-.3,2.555.583,2.586,2.042.072,4.092.075,6.131-.034.283-.015.732-.819.726-1.251s-.467-1.23-.757-1.245C520.813,1206.658,518.567,1206.705,516.368,1206.705Zm54.184,2.619v.012c.916,0,1.832-.031,2.745.008.9.039,1.249-.307,1.217-1.227-.029-.839-.058-1.479-1.174-1.444-1.667.053-3.338.038-5.006-.008-1.023-.028-1.577.192-1.58,1.415,0,1.373.806,1.271,1.7,1.249C569.152,1209.309,569.852,1209.324,570.552,1209.324Z" transform="translate(0 0)" fill="#bf1598"/>
      <path id="Path_70691" data-name="Path 70691" d="M513.565,1371.29a1.951,1.951,0,0,0,2.133,1.314q29.633-.037,59.266,0a1.915,1.915,0,0,0,2.127-1.311v1.618H513.565Z" transform="translate(0 -160.801)" fill="#bf1598"/>
      <path id="Path_70692" data-name="Path 70692" d="M596.615,1250.551c1.273-.274,2.1-.241,2.758,1.155a2.288,2.288,0,0,0,4.165-.024c.655-1.433,1.515-1.392,2.668-1.15a4.5,4.5,0,0,1-4.434,4.859A4.727,4.727,0,0,1,596.615,1250.551Z" transform="translate(-56.129 -79.099)" fill="#bf1598"/>
      <path id="Path_70693" data-name="Path 70693" d="M586.931,1224.4H584.8v-4.739h2.136Z" transform="translate(-48.141 -58.324)" fill="#bf1598"/>
      <path id="Path_70694" data-name="Path 70694" d="M631.7,1219.593h2.169v4.736H631.7Z" transform="translate(-79.842 -58.277)" fill="#bf1598"/>
      <path id="Path_70695" data-name="Path 70695" d="M608.805,1199.528c1.064-.187,1.368.261,1.385,1.227.016,1-.363,1.291-1.312,1.278-.874-.012-1.263-.275-1.22-1.2C607.7,1200,607.732,1199.272,608.805,1199.528Z" transform="translate(-63.59 -44.681)" fill="#bf1598"/>
    </g>
  </g>
</svg>
