<svg xmlns="http://www.w3.org/2000/svg" width="313" height="467.868" viewBox="0 0 313 467.868">
  <g id="i_agree" transform="translate(-32 -221.629)">
    <g id="Group_43123" data-name="Group 43123" transform="translate(0 34)">
      <g id="Group_43122" data-name="Group 43122" transform="translate(-95.548 102.886)">
        <g id="Group_43102" data-name="Group 43102" transform="translate(270.506 84.744)">
          <circle id="Ellipse_3146" data-name="Ellipse 3146" cx="12.011" cy="12.011" r="12.011" transform="translate(0 443.847)" fill="#fff"/>
          <circle id="Ellipse_3147" data-name="Ellipse 3147" cx="12.011" cy="12.011" r="12.011" transform="translate(0 354.833)" fill="#fff"/>
          <circle id="Ellipse_3148" data-name="Ellipse 3148" cx="12.011" cy="12.011" r="12.011" transform="translate(0 265.819)" fill="#fff"/>
          <circle id="Ellipse_3149" data-name="Ellipse 3149" cx="12.011" cy="12.011" r="12.011" transform="translate(0 183.24)" fill="#fff"/>
          <circle id="Ellipse_3150" data-name="Ellipse 3150" cx="12.011" cy="12.011" r="12.011" transform="translate(0 85.147)" fill="#fff"/>
          <circle id="Ellipse_3151" data-name="Ellipse 3151" cx="12.011" cy="12.011" r="12.011" fill="#fff"/>
          <rect id="Rectangle_10900" data-name="Rectangle 10900" width="449.707" height="14.45" transform="translate(4.785 460.927) rotate(-90)" fill="#fff"/>
          <g id="Group_43101" data-name="Group 43101" transform="translate(8.341 10.494)">
            <rect id="Rectangle_10901" data-name="Rectangle 10901" width="7.339" height="89.301" transform="translate(0 88.824)" fill="#f6972a"/>
            <rect id="Rectangle_10902" data-name="Rectangle 10902" width="7.339" height="89.301" fill="#f9918e"/>
            <rect id="Rectangle_10903" data-name="Rectangle 10903" width="7.339" height="89.301" transform="translate(0 178.125)" fill="#fccb70"/>
            <rect id="Rectangle_10904" data-name="Rectangle 10904" width="7.339" height="89.301" transform="translate(0 266.694)" fill="#66d88b"/>
            <rect id="Rectangle_10905" data-name="Rectangle 10905" width="7.339" height="89.301" transform="translate(0 355.995)" fill="#73bfff"/>
          </g>
          <g id="Ellipse_3152" data-name="Ellipse 3152" transform="translate(4.908 90.267)" fill="#f9918e" stroke="#f24f4a" stroke-width="1">
            <circle cx="7.102" cy="7.102" r="7.102" stroke="none"/>
            <circle cx="7.102" cy="7.102" r="7.602" fill="none"/>
          </g>
          <path id="Path_56413" data-name="Path 56413" d="M7.1,0A7.1,7.1,0,1,1,0,7.1,7.1,7.1,0,0,1,7.1,0Z" transform="translate(4.908 4.306)" fill="#f9918e" stroke="#f9918e" stroke-width="1"/>
          <circle id="Ellipse_3154" data-name="Ellipse 3154" cx="7.102" cy="7.102" r="7.102" transform="translate(4.908 188.181)" fill="#f6972a" stroke="#ce6f02" stroke-width="1"/>
          <path id="Path_56414" data-name="Path 56414" d="M7.1,0A7.1,7.1,0,1,1,0,7.1,7.1,7.1,0,0,1,7.1,0Z" transform="translate(4.908 270.005)" fill="#fccb70" stroke="#f6b63f" stroke-width="1"/>
          <circle id="Ellipse_3156" data-name="Ellipse 3156" cx="7.102" cy="7.102" r="7.102" transform="translate(4.908 359.644)" fill="#66d88b" stroke="#51bb72" stroke-width="1"/>
          <circle id="Ellipse_3157" data-name="Ellipse 3157" cx="7.102" cy="7.102" r="7.102" transform="translate(4.908 448.824)" fill="#73bfff" stroke="#58ade7" stroke-width="1"/>
        </g>
        <g id="Group_43104" data-name="Group 43104" transform="translate(288.906 204.017)">
          <path id="Path_56401" data-name="Path 56401" d="M302.478,170.256c-21.415,8.772-50.5,65.965-50.5,65.965s60.847,20.358,82.262,11.586a41.9,41.9,0,0,0-31.765-77.552Z" transform="translate(-251.981 -167.118)" fill="#feedda"/>
          <circle id="Ellipse_3158" data-name="Ellipse 3158" cx="37.425" cy="37.425" r="37.425" transform="translate(29.232 4.375)" fill="#f6972a"/>
          <circle id="Ellipse_3159" data-name="Ellipse 3159" cx="33.433" cy="33.433" r="33.433" transform="translate(33.224 8.367)" fill="#fff"/>
        </g>
        <g id="Group_43115" data-name="Group 43115" transform="translate(288.906 375.27)">
          <path id="Path_56402" data-name="Path 56402" d="M302.478,288.53c-21.415,8.772-50.5,65.965-50.5,65.965s60.847,20.358,82.262,11.586a41.9,41.9,0,1,0-31.765-77.552Z" transform="translate(-251.981 -285.391)" fill="#eefff3"/>
          <circle id="Ellipse_3160" data-name="Ellipse 3160" cx="37.425" cy="37.425" r="37.425" transform="translate(29.232 4.375)" fill="#66d88b"/>
          <circle id="Ellipse_3161" data-name="Ellipse 3161" cx="33.433" cy="33.433" r="33.433" transform="translate(33.224 8.367)" fill="#fff"/>
          <g id="Group_43114" data-name="Group 43114" transform="translate(52.619 26.938)">
            <circle id="Ellipse_3162" data-name="Ellipse 3162" cx="14.875" cy="14.875" r="14.875" fill="none" stroke="#66d88b" stroke-width="1.416"/>
            <g id="Group_43107" data-name="Group 43107" transform="translate(3.242 3.242)">
              <g id="Group_43105" data-name="Group 43105" transform="translate(11.633)">
                <line id="Line_72" data-name="Line 72" y2="2.861" fill="none" stroke="#66d88b" stroke-width="1.416"/>
                <line id="Line_73" data-name="Line 73" y2="2.861" transform="translate(0 20.406)" fill="none" stroke="#66d88b" stroke-width="1.416"/>
              </g>
              <g id="Group_43106" data-name="Group 43106" transform="translate(0 11.633)">
                <line id="Line_74" data-name="Line 74" x2="2.861" fill="none" stroke="#66d88b" stroke-width="1.416"/>
                <line id="Line_75" data-name="Line 75" x2="2.861" transform="translate(20.406)" fill="none" stroke="#66d88b" stroke-width="1.416"/>
              </g>
            </g>
            <g id="Group_43110" data-name="Group 43110" transform="translate(4.801 4.801)">
              <g id="Group_43108" data-name="Group 43108" transform="translate(4.258)">
                <line id="Line_76" data-name="Line 76" x2="1.43" y2="2.477" fill="none" stroke="#66d88b" stroke-width="0.708"/>
                <line id="Line_77" data-name="Line 77" x2="1.43" y2="2.477" transform="translate(10.203 17.672)" fill="none" stroke="#66d88b" stroke-width="0.708"/>
              </g>
              <g id="Group_43109" data-name="Group 43109" transform="translate(0 4.258)">
                <line id="Line_78" data-name="Line 78" y1="1.43" x2="2.477" transform="translate(0 10.203)" fill="none" stroke="#66d88b" stroke-width="0.708"/>
                <line id="Line_79" data-name="Line 79" y1="1.43" x2="2.477" transform="translate(17.672)" fill="none" stroke="#66d88b" stroke-width="0.708"/>
              </g>
            </g>
            <g id="Group_43113" data-name="Group 43113" transform="translate(4.801 4.801)">
              <g id="Group_43111" data-name="Group 43111" transform="translate(0 4.258)">
                <line id="Line_80" data-name="Line 80" x2="2.477" y2="1.43" fill="none" stroke="#66d88b" stroke-width="0.708"/>
                <line id="Line_81" data-name="Line 81" x2="2.477" y2="1.43" transform="translate(17.672 10.203)" fill="none" stroke="#66d88b" stroke-width="0.708"/>
              </g>
              <g id="Group_43112" data-name="Group 43112" transform="translate(4.258)">
                <line id="Line_82" data-name="Line 82" y1="2.477" x2="1.43" transform="translate(0 17.672)" fill="none" stroke="#66d88b" stroke-width="0.708"/>
                <line id="Line_83" data-name="Line 83" y1="2.477" x2="1.43" transform="translate(10.203)" fill="none" stroke="#66d88b" stroke-width="0.708"/>
              </g>
            </g>
            <path id="Path_56403" data-name="Path 56403" d="M304.472,310.384l-6.225,5.566,4.7,6.83" transform="translate(-283.875 -301.134)" fill="none" stroke="#66d88b" stroke-width="1.062"/>
          </g>
        </g>
        <g id="Group_43117" data-name="Group 43117" transform="translate(169.548 103.531)">
          <path id="Path_56404" data-name="Path 56404" d="M227.344,100.857c21.415,8.773,50.5,65.965,50.5,65.965s-60.847,20.36-82.262,11.588a41.9,41.9,0,0,1,31.765-77.553Z" transform="translate(-169.548 -97.719)" fill="#fee"/>
          <path id="Path_56412" data-name="Path 56412" d="M37.425,0A37.425,37.425,0,1,1,0,37.425,37.425,37.425,0,0,1,37.425,0Z" transform="translate(4.211 4.375)" fill="#f9918e"/>
          <circle id="Ellipse_3164" data-name="Ellipse 3164" cx="33.433" cy="33.433" r="33.433" transform="translate(8.203 8.368)" fill="#fff"/>
          <g id="Group_43116" data-name="Group 43116" transform="translate(22.597 24.844)">
            <path id="Path_56405" data-name="Path 56405" d="M210.248,134.881v-4.428h-2.134a10.553,10.553,0,0,0-1.488-3.579l1.513-1.513-3.132-3.132-1.512,1.513a10.607,10.607,0,0,0-3.579-1.488v-2.133h-4.429v2.133a10.594,10.594,0,0,0-3.579,1.488l-1.512-1.513-3.132,3.132,1.512,1.513a10.551,10.551,0,0,0-1.487,3.579h-2.134v4.428h2.134a10.551,10.551,0,0,0,1.487,3.579l-1.512,1.513,3.132,3.13,1.512-1.512a10.594,10.594,0,0,0,3.579,1.488v2.133h4.429v-2.133a10.607,10.607,0,0,0,3.579-1.488l1.512,1.512,3.132-3.13-1.513-1.513a10.554,10.554,0,0,0,1.488-3.579ZM197.7,140.175a7.508,7.508,0,1,1,7.509-7.508A7.508,7.508,0,0,1,197.7,140.175Z" transform="translate(-185.154 -112.528)" fill="#f9918e"/>
            <path id="Path_56406" data-name="Path 56406" d="M215.639,123.375v-2.548h-1.229a6.1,6.1,0,0,0-.856-2.062l.87-.87-1.8-1.8-.87.87a6.1,6.1,0,0,0-2.06-.856v-1.229h-2.55v1.229a6.075,6.075,0,0,0-2.06.856l-.872-.87-1.8,1.8.87.87a6.1,6.1,0,0,0-.856,2.062h-1.229v2.548h1.229a6.1,6.1,0,0,0,.856,2.062l-.87.87,1.8,1.8.87-.87a6.1,6.1,0,0,0,2.062.856v1.229h2.55V128.1a6.1,6.1,0,0,0,2.06-.856l.87.87,1.8-1.8-.87-.87a6.1,6.1,0,0,0,.856-2.062Zm-7.224,1.051a2.326,2.326,0,1,1,2.327-2.325A2.325,2.325,0,0,1,208.415,124.426Z" transform="translate(-177.97 -114.877)" fill="#f9918e"/>
          </g>
        </g>
        <g id="Group_43119" data-name="Group 43119" transform="translate(169.548 284.704)">
          <path id="Path_56407" data-name="Path 56407" d="M227.344,225.982c21.415,8.772,50.5,65.965,50.5,65.965s-60.847,20.358-82.262,11.586a41.9,41.9,0,1,1,31.765-77.552Z" transform="translate(-169.548 -222.843)" fill="#feeccb"/>
          <circle id="Ellipse_3165" data-name="Ellipse 3165" cx="37.425" cy="37.425" r="37.425" transform="translate(4.211 4.375)" fill="#fccb70"/>
          <circle id="Ellipse_3166" data-name="Ellipse 3166" cx="33.433" cy="33.433" r="33.433" transform="translate(8.203 8.367)" fill="#fff"/>
          <g id="Group_43118" data-name="Group 43118" transform="translate(30.795 33.082)">
            <circle id="Ellipse_3167" data-name="Ellipse 3167" cx="3.894" cy="3.894" r="3.894" transform="translate(0.767)" fill="#fccb70"/>
            <path id="Path_56408" data-name="Path 56408" d="M199.816,263.184h-9V255.73a4.661,4.661,0,0,1,9.322,0Z" transform="translate(-190.816 -243.282)" fill="#fccb70"/>
            <circle id="Ellipse_3168" data-name="Ellipse 3168" cx="3.894" cy="3.894" r="3.894" transform="translate(12.189)" fill="#fccb70"/>
            <path id="Path_56409" data-name="Path 56409" d="M207.7,263.184h-9V255.73a4.66,4.66,0,1,1,9.32,0Z" transform="translate(-187.282 -243.282)" fill="#fccb70"/>
          </g>
        </g>
        <g id="Group_43121" data-name="Group 43121" transform="translate(169.548 462.786)">
          <path id="Path_56410" data-name="Path 56410" d="M227.344,348.971c21.415,8.772,50.5,65.965,50.5,65.965s-60.847,20.359-82.262,11.586a41.9,41.9,0,0,1,31.765-77.552Z" transform="translate(-169.548 -345.833)" fill="#d8ecfe"/>
          <circle id="Ellipse_3169" data-name="Ellipse 3169" cx="37.425" cy="37.425" r="37.425" transform="translate(4.211 4.375)" fill="#73bfff"/>
          <circle id="Ellipse_3170" data-name="Ellipse 3170" cx="33.433" cy="33.433" r="33.433" transform="translate(8.203 8.367)" fill="#fff"/>
          <g id="Group_43120" data-name="Group 43120" transform="translate(30.743 25.728)">
            <rect id="Rectangle_10910" data-name="Rectangle 10910" width="20.371" height="33.635" rx="1.07" fill="#73bfff"/>
            <rect id="Rectangle_10911" data-name="Rectangle 10911" width="16.074" height="27.112" rx="1.049" transform="translate(2.148 2.303)" fill="#fff"/>
            <rect id="Rectangle_10912" data-name="Rectangle 10912" width="3.79" height="2.132" rx="0.392" transform="translate(8.29 30.319)" fill="#fff"/>
          </g>
        </g>
      </g>
      <text id="Be_yourself" data-name="Be yourself" transform="translate(278 232)" fill="#051242" font-size="18" font-family="Poppins-Regular, Poppins"><tspan x="-48" y="0">Be yourself</tspan></text>
      <text id="Grow_Together" data-name="Grow Together" transform="translate(278 422)" fill="#051242" font-size="18" font-family="Poppins-Regular, Poppins"><tspan x="-66" y="0">Grow Together</tspan></text>
      <text id="Be_Respectful" data-name="Be Respectful" transform="translate(100 319)" fill="#051242" font-size="18" font-family="Poppins-Regular, Poppins"><tspan x="-60" y="0">Be Respectful</tspan></text>
      <text id="Keep_it_positive" data-name="Keep it positive" transform="translate(100 502)" fill="#051242" font-size="18" font-family="Poppins-Regular, Poppins"><tspan x="-67" y="0">Keep it positive</tspan></text>
      <text id="Speak_up" data-name="Speak up" transform="translate(275 599)" fill="#051242" font-size="18" font-family="Poppins-Regular, Poppins"><tspan x="-41" y="0">Speak up</tspan></text>
      <text id="Make_sure_your_posts_are_true_to_who_you_are" data-name="Make sure your posts are
 true to who you are" transform="translate(279 249)" fill="#6e6f70" font-size="10" font-family="Poppins-Light, Poppins" font-weight="300"><tspan x="-61" y="0">Make sure your posts are</tspan><tspan x="-49" y="16" xml:space="preserve"> true to who you are</tspan></text>
      <text id="Make_your_Neighborhood_a_better_Place_by_sharing_thoughts_Ideas" data-name="Make your Neighborhood
 a better Place by sharing 
thoughts &amp; Ideas" transform="translate(279 439)" fill="#6e6f70" font-size="9" font-family="Poppins-Light, Poppins" font-weight="300"><tspan x="-56" y="0">Make your Neighborhood</tspan><tspan x="-58" y="13" xml:space="preserve"> a better Place by sharing </tspan><tspan x="-37" y="26">thoughts &amp; Ideas</tspan></text>
      <text id="Respect_your_Neighbours_and_keep_the_conversation_friendly" data-name="Respect your Neighbours 
and keep the conversation 
friendly" transform="translate(103 339)" fill="#6e6f70" font-size="10" font-family="Poppins-Light, Poppins" font-weight="300"><tspan x="-63" y="0">Respect your Neighbours </tspan><tspan x="-67" y="16">and keep the conversation </tspan><tspan x="-18" y="32">friendly</tspan></text>
      <text id="Create_a_space_where_Neighbours_Feels_Welcome" data-name="Create a space where 
Neighbours Feels 
Welcome" transform="translate(103 522)" fill="#6e6f70" font-size="10" font-family="Poppins-Light, Poppins" font-weight="300"><tspan x="-56" y="0">Create a space where </tspan><tspan x="-43" y="16">Neighbours Feels </tspan><tspan x="-23" y="32">Welcome</tspan></text>
      <text id="Report_Inappropriate_Content_at_ease" data-name="Report Inappropriate 
Content at ease" transform="translate(278 619)" fill="#6e6f70" font-size="10" font-family="Poppins-Light, Poppins" font-weight="300"><tspan x="-53" y="0">Report Inappropriate </tspan><tspan x="-40" y="16">Content at ease</tspan></text>
    </g>
    <g id="Group_43125" data-name="Group 43125" transform="translate(133.705 84.158)">
      <path id="Path_56411" data-name="Path 56411" d="M106,301.635c.153-.835.319-1.668.457-2.506q1.018-6.163,2.026-12.327a.779.779,0,0,1,1.226-.625q3,1.587,5.988,3.2a.8.8,0,0,1,.409,1.137c-.1.277-.217.551-.365.924.479.114.928.259,1.388.322a4.679,4.679,0,0,0,2.217-.245,8.3,8.3,0,0,1,6.35.231.6.6,0,0,0,.428-.016,8.252,8.252,0,0,1,6.2-.252,5.119,5.119,0,0,0,3.126.129c.183-.051.36-.125.572-.2-.13-.334-.249-.63-.36-.93a.775.775,0,0,1,.387-1.08q3.007-1.616,6.022-3.217a.779.779,0,0,1,1.226.625q1.091,6.623,2.176,13.246.135.823.274,1.646a.806.806,0,0,1-.608,1.048c-1,.364-1.993.721-2.991,1.079-.777.279-1.041.164-1.359-.583-.025-.059-.056-.115-.1-.205l-2.005,1.065c.379,2.21-.251,3.174-2.366,3.657a2.686,2.686,0,0,1-3.02,2.533,2.649,2.649,0,0,1-1.284,1.834,2.69,2.69,0,0,1-2.271.167,2.631,2.631,0,0,1-4.5.917,2.669,2.669,0,0,1-4.026-1.718,6.884,6.884,0,0,1-1.151-.148,2.422,2.422,0,0,1-1.792-1.992c-.06-.326-.144-.461-.5-.51a2.52,2.52,0,0,1-2.073-2.045c-.026-.14-.049-.28-.077-.441-.2-.038-.4-.062-.594-.116a2.554,2.554,0,0,1-1.9-1.995,1.085,1.085,0,0,0-.33-.526c-.469-.4-.967-.777-1.5-1.2-.111.256-.215.483-.309.714-.3.734-.586.868-1.317.606-.974-.348-1.945-.7-2.922-1.041a1.174,1.174,0,0,1-.754-.615Zm20.388,6.866c.452-.581.889-.608,1.419-.081.7.694,1.383,1.4,2.094,2.08a1.518,1.518,0,0,0,.654.376.966.966,0,0,0,1.1-.538,1.032,1.032,0,0,0-.235-1.243c-.909-.922-1.829-1.833-2.744-2.749-.156-.156-.318-.306-.461-.472a.755.755,0,0,1,.023-1.082.78.78,0,0,1,1.058-.016c.1.082.187.179.278.271q1.676,1.675,3.351,3.35a1.026,1.026,0,0,0,1.1.276.978.978,0,0,0,.692-.858,1.153,1.153,0,0,0-.429-.992q-2.023-2.014-4.038-4.036c-.293-.293-.6-.577-.871-.886a.741.741,0,0,1,.024-1.051.764.764,0,0,1,1.054-.042,3.3,3.3,0,0,1,.252.242l4.587,4.586a3.518,3.518,0,0,0,.31.293,1.034,1.034,0,0,0,1.681-.684,1.161,1.161,0,0,0-.43-.992q-3.038-3.031-6.068-6.071a1.885,1.885,0,0,0-2.191-.483q-1.993.758-4,1.466a2.911,2.911,0,0,1-2.376-5.306c.507-.285,1.018-.564,1.526-.848.095-.053.182-.118.315-.2a6.72,6.72,0,0,0-4.181.163,5.665,5.665,0,0,1-2.516.356c-.736-.079-1.462-.251-2.231-.389L111.893,301l1.548,1.225c.463-.433.893-.843,1.331-1.245a2.582,2.582,0,0,1,4.056.732l.172.334a2.653,2.653,0,0,1,3.765,2.314,2.668,2.668,0,0,1,2.067,1.114,2.708,2.708,0,0,1,.367,2.308Zm13.734-6.931-3.5-8.712a6.678,6.678,0,0,1-4.969.024,5.839,5.839,0,0,0-4.221.04c-1.614.713-3.152,1.6-4.7,2.463a1.165,1.165,0,0,0-.517,1.325,1.354,1.354,0,0,0,1.919.972q1.988-.714,3.969-1.448a3.308,3.308,0,0,1,3.765.84q2.042,2.049,4.09,4.092c.567.567,1.132,1.135,1.708,1.713Zm-30.391.635,4.718-11.735-4.595-2.458-2.2,13.445Zm27.6-11.734,4.719,11.736,2.081-.752-2.206-13.44ZM121.241,304.44a1.161,1.161,0,0,0-.678-.988.977.977,0,0,0-1.146.214c-.641.623-1.276,1.252-1.895,1.9a1.018,1.018,0,0,0-.016,1.466A1.043,1.043,0,0,0,119,307c.632-.613,1.26-1.231,1.863-1.872A3.057,3.057,0,0,0,121.241,304.44Zm2.51,2.677a1.076,1.076,0,0,0-.594-1.084.985.985,0,0,0-1.18.208c-.631.614-1.257,1.234-1.869,1.867a1.025,1.025,0,0,0-.028,1.5,1.044,1.044,0,0,0,1.5-.037c.622-.6,1.242-1.212,1.834-1.846A2.4,2.4,0,0,0,123.751,307.117Zm-7.98-2.354a.992.992,0,0,0,.415-.145,10.453,10.453,0,0,0,1.22-1.228.957.957,0,0,0-.21-1.289,1.006,1.006,0,0,0-1.315-.018,10.437,10.437,0,0,0-1.01,1.012.935.935,0,0,0-.125,1.086A1.039,1.039,0,0,0,115.771,304.763Zm8.64,4.546c-.069.018-.258.01-.358.1a9.029,9.029,0,0,0-1.164,1.164.944.944,0,0,0,.216,1.2.964.964,0,0,0,1.245.106,6.382,6.382,0,0,0,1-1.011.888.888,0,0,0,.027-1.023A1.024,1.024,0,0,0,124.411,309.309Zm2.734.619-.1.027a2.652,2.652,0,0,1-.65,2.14,1.03,1.03,0,1,0,1.58-1.3C127.705,310.5,127.421,310.215,127.144,309.928Z" transform="translate(0 0)" fill="#f6972a"/>
    </g>
  </g>
</svg>
