<svg xmlns="http://www.w3.org/2000/svg" width="100" height="100" viewBox="0 0 100 100">
  <g id="add-review" transform="translate(-47 -47)">
    <rect id="Rectangle_1" data-name="Rectangle 1" width="100" height="100" transform="translate(47 47)" fill="#fff" opacity="0"/>
    <g id="Group_62552" data-name="Group 62552" transform="translate(64.168 65.014)">
      <path id="Path_70872" data-name="Path 70872" d="M31.392,35.683c4.3,0,8.41.163,12.506-.043a6.187,6.187,0,0,1,6.175,8.66,2.218,2.218,0,0,0-.081.465c2.627,1.094,4.238,3.058,4.195,5.94a5.965,5.965,0,0,1-3.96,5.6,6.748,6.748,0,0,1,.386,5.218,6.326,6.326,0,0,1-3.557,3.631,17.952,17.952,0,0,1,.375,3.82,5.813,5.813,0,0,1-5.984,5.382c-7.73.049-15.466.156-23.189-.083-2.886-.089-5.744-1.073-8.832-1.693-1.056,1.441-2.861,1.858-4.912,1.815-2.958-.063-5.919,0-8.879-.02-3.259-.019-5.217-1.937-5.223-5.167q-.025-14.18,0-28.36c.005-3.252,1.943-5.15,5.207-5.159,3.225-.009,6.455-.107,9.671.052a14.681,14.681,0,0,1,3.543,1.128c.332.108.767.344,1.007.225,3.014-1.495,6.137-2.971,7.735-6.139,1.222-2.421,2.075-5.031,3.06-7.569.6-1.558,1.126-3.148,1.731-4.706.519-1.336,1.191-1.611,2.586-1.26,3.43.862,6.327,2.405,7.893,5.819.133.29.785.48,1.2.484,3.755.037,7.511-.032,11.263.065a3.872,3.872,0,0,1,2.3.955c1.694,1.541,3.247,3.237,4.923,4.94,1.713-1.726,3.273-3.415,4.974-4.948a3.917,3.917,0,0,1,2.3-.947c3.221-.1,6.448-.037,9.673-.047,1.869-.005,2.449-.569,2.452-2.462q.017-12.987,0-25.975c0-1.909-.541-2.451-2.448-2.452q-32.2-.01-64.407,0c-1.894,0-2.466.583-2.467,2.448Q2.6,8.284,2.61,21.272c0,1.807.663,2.449,2.48,2.468.8.008,1.592-.023,2.385.024A1.441,1.441,0,0,1,8.909,25.35a1.429,1.429,0,0,1-1.458,1.562,31.161,31.161,0,0,1-3.972-.035A4.663,4.663,0,0,1-.557,22.459q-.06-14.18,0-28.36a4.78,4.78,0,0,1,4.548-4.516c.438-.043.882-.028,1.324-.029H69.194c4.184,0,6.033,1.858,6.033,6.062,0,8.526-.069,17.052.035,25.577.04,3.285-2.043,6-5.8,5.775-2.773-.166-5.565,0-8.347-.053a2.553,2.553,0,0,0-2.07.88c-1.587,1.659-3.228,3.268-4.865,4.878-1.268,1.247-1.992,1.244-3.256-.006-1.7-1.677-3.362-3.384-5.073-5.045a2.069,2.069,0,0,0-1.2-.656c-3.617-.051-7.234-.03-10.7-.03ZM10.5,54.7c0,4.416-.016,8.831.025,13.247,0,.437.265,1.169.56,1.259,2.176.664,4.378,1.63,6.6,1.7,7.809.234,15.627.163,23.441.165,2,0,3.119-1.105,3.093-2.834-.025-1.675-1.114-2.641-3.084-2.681-1.456-.03-2.914,0-4.371-.011a8.731,8.731,0,0,1-1.188-.059c-1-.142-1.705-.691-1.6-1.738a1.664,1.664,0,0,1,1.839-1.537c3,0,6.005.017,9.008-.013a2.751,2.751,0,0,0,2.819-3.33A2.955,2.955,0,0,0,44.6,56.635c-2.6-.026-5.21-.008-7.816-.008-.353,0-.706,0-1.06,0a1.539,1.539,0,0,1-1.749-1.575c-.006-1.078.689-1.644,1.817-1.641q5.829.016,11.657,0c2.166,0,3.4-1.042,3.4-2.825-.005-1.814-1.151-2.74-3.424-2.744-3.577-.006-7.153,0-10.73,0a6.616,6.616,0,0,1-1.188-.045c-.923-.171-1.7-.753-1.5-1.672.135-.605.917-1.123,1.505-1.546.269-.193.771-.076,1.167-.077,2.429,0,4.861-.082,7.285.02a2.928,2.928,0,0,0,3.383-2.731c.073-1.71-1.28-2.844-3.4-2.877-1.369-.021-2.738,0-4.107,0-3.488,0-6.977.015-10.465-.008-1.783-.011-2.365-.866-1.8-2.566.831-2.5,1.758-4.978,2.486-7.51a6.171,6.171,0,0,0-3.992-7.614c-.722-.247-1.141-.141-1.392.631-.434,1.338-.922,2.658-1.4,3.98-.617,1.694-1.17,3.417-1.894,5.064a14.4,14.4,0,0,1-7.581,7.781c-2.753,1.161-3.594,2.831-3.361,5.713C10.708,47.8,10.5,51.259,10.5,54.7ZM-1.194,38.9H-3.6c-2.322,0-2.7.372-2.7,2.667q0,13.439,0,26.877c0,.353-.006.707.02,1.059A1.444,1.444,0,0,0-4.8,71.045c3.485.032,6.972.038,10.457,0,1-.011,1.488-.636,1.451-1.662-.028-.749,0-1.5,0-2.251,0-8.738-.011-17.477.014-26.215,0-1.011-.223-1.829-1.317-1.929-1.206-.11-2.429-.025-3.728-.025v1.6q0,8.871,0,17.741c0,.309.006.618,0,.927a1.548,1.548,0,0,1-1.62,1.7,1.447,1.447,0,0,1-1.608-1.538c-.033-.439-.034-.882-.035-1.323q0-8.738,0-17.477Z" transform="translate(0)" fill="#001968"/>
      <path id="Path_70873" data-name="Path 70873" d="M68.457,43.442a5.953,5.953,0,0,1-1.567-.647,2.706,2.706,0,0,0-3.678-.007,3.363,3.363,0,0,1-.823.415c-2.025.866-4.191-.51-3.751-2.627A5,5,0,0,0,56.9,35.24c-1.614-1.461-.637-3.835,1.531-4.26a.705.705,0,0,1,.131-.014,3.809,3.809,0,0,0,4.049-2.936,2.332,2.332,0,0,1,2.368-1.587,2.378,2.378,0,0,1,2.478,1.626,3.674,3.674,0,0,0,3.816,2.872,2.472,2.472,0,0,1,2.462,1.837A2.515,2.515,0,0,1,72.679,35.8c-1.621,1.154-1.795,2.55-1.264,4.347C71.938,41.913,70.642,43.454,68.457,43.442Zm-.581-3.957c-.809-2.323.047-3.985,1.791-5.5-2.535.2-3.789-1.227-4.58-3.314-1.8,2.719-1.8,2.719-4.6,3.416a9.825,9.825,0,0,1,1.716,2.4,10.99,10.99,0,0,1,.065,3.152A4.288,4.288,0,0,1,67.876,39.485Z" transform="translate(-48.281 -27.111)" fill="#001968"/>
      <path id="Path_70874" data-name="Path 70874" d="M144.6,25.4a2.989,2.989,0,0,1,2.573,1.872,3.8,3.8,0,0,0,3.933,2.915,2.617,2.617,0,0,1,1.535,4.65,3.705,3.705,0,0,0-1.527,4.521,2.445,2.445,0,0,1-1.035,2.911,2.81,2.81,0,0,1-3.118-.058,8.26,8.26,0,0,1-.932-.494,1.92,1.92,0,0,0-2.506-.013,7.717,7.717,0,0,1-1.4.73,2.283,2.283,0,0,1-2.811-.346,8.035,8.035,0,0,1-.958-2.557.875.875,0,0,1,.08-.516,3.037,3.037,0,0,0-1.244-3.87A2.73,2.73,0,0,1,136.064,32a2.622,2.622,0,0,1,2.6-1.872,6.683,6.683,0,0,1,.9-.173,2.039,2.039,0,0,0,2.237-1.609,3.537,3.537,0,0,1,.729-1.391A19.945,19.945,0,0,1,144.6,25.4Zm4.9,8.018a10.36,10.36,0,0,1-2.951-.974,10.148,10.148,0,0,1-1.81-2.36,9.141,9.141,0,0,1-1.682,2.306,11.036,11.036,0,0,1-2.964,1.022,4.133,4.133,0,0,1,1.723,5.272,11.208,11.208,0,0,1,3.043-.921,10.352,10.352,0,0,1,2.934.961A4.085,4.085,0,0,1,149.5,33.415Z" transform="translate(-106.953 -26.342)" fill="#001968"/>
      <path id="Path_70875" data-name="Path 70875" d="M217.638,40.249c1.148-2.018-.11-3.5-1.754-5.07A2.5,2.5,0,0,1,217.321,31a1.32,1.32,0,0,1,.263-.027,3.82,3.82,0,0,0,4.07-2.91,2.34,2.34,0,0,1,2.476-1.617,2.61,2.61,0,0,1,2.389,1.588,3.528,3.528,0,0,1,.236.472,2.9,2.9,0,0,0,3.036,2.317,2.856,2.856,0,0,1,2.79,1.438,2.506,2.506,0,0,1-.348,3.046,3.121,3.121,0,0,1-.552.567,3.11,3.11,0,0,0-1.287,3.95,2.623,2.623,0,0,1-.964,3.172,2.564,2.564,0,0,1-3.2-.078c-1.594-1.2-2.945-.8-4.522.116C219.634,44.239,217.563,42.916,217.638,40.249Zm3.392-.431c2.11-1.643,3.95-1.652,5.931-.3-.845-2.343.072-4.027,2.065-5.687-2.854.279-4.137-1.068-4.984-3.507-.719,2.592-2.232,3.7-4.7,3.771C221.449,35.445,221.743,37.292,221.03,39.818Z" transform="translate(-165.184 -27.11)" fill="#001968"/>
      <path id="Path_70876" data-name="Path 70876" d="M77.785,120.141a1.489,1.489,0,0,1-1.53,1.608,1.552,1.552,0,0,1-1.663-1.625,1.509,1.509,0,0,1,1.617-1.538A1.474,1.474,0,0,1,77.785,120.141Z" transform="translate(-61.869 -94.827)" fill="#001968"/>
      <path id="Path_70877" data-name="Path 70877" d="M23.977,269.362a1.525,1.525,0,0,1,1.52,1.5,1.624,1.624,0,0,1-1.57,1.733,1.551,1.551,0,0,1-1.63-1.645A1.532,1.532,0,0,1,23.977,269.362Z" transform="translate(-23.442 -205.633)" fill="#001968"/>
    </g>
  </g>
</svg>
