<svg xmlns="http://www.w3.org/2000/svg" width="100" height="100" viewBox="0 0 100 100">
  <g id="application-submitted" transform="translate(6137 3259)">
    <g id="Rectangle_12142" data-name="Rectangle 12142" transform="translate(-6137 -3259)" fill="#fff" stroke="#707070" stroke-width="1" opacity="0">
      <rect width="100" height="100" stroke="none"/>
      <rect x="0.5" y="0.5" width="99" height="99" fill="none"/>
    </g>
    <g id="Group_62939" data-name="Group 62939" transform="translate(-6127.343 -3239.293)">
      <path id="Path_70878" data-name="Path 70878" d="M4.992,8.027H16.308c0-1.564-.053-3.041.009-4.512.237-5.633,2.668-10,7.74-12.615A14,14,0,0,1,44.422,3.337c.009,1.491,0,2.982,0,4.625H55.78c.472,8,.936,15.854,1.4,23.724,1.557.14,3.04.193,4.5.416a19.685,19.685,0,0,1,1.392,38.589c-7.36,1.638-13.725-.337-18.965-5.756a2.745,2.745,0,0,0-2.213-.911c-8.956.024-17.911.041-26.866,0A12.039,12.039,0,0,1,3.834,57.48a13.354,13.354,0,0,1-1.3-7.562c.359-5.57.627-11.145.963-16.717.382-6.336.8-12.67,1.194-19.007C4.813,12.2,4.887,10.2,4.992,8.027Zm4.529,4.891c-.142,2.273-.289,4.434-.41,6.6-.209,3.745-.389,7.493-.605,11.238-.4,6.85-.771,13.7-1.228,20.549A7.481,7.481,0,0,0,15,59.245c8.019-.114,16.04-.032,24.06-.037.357,0,.714-.047,1.154-.078-.125-.395-.205-.675-.3-.95a19.744,19.744,0,0,1,11.39-25c.879-.341,1.155-.714,1.1-1.626-.311-4.934-.558-9.872-.846-14.808-.074-1.263-.22-2.522-.336-3.818h-6.8v5.8h-4.81V12.943h-18.5v5.79H16.3V12.918Zm48.9,53.488A14.91,14.91,0,1,0,43.569,51.454,14.856,14.856,0,0,0,58.419,66.406ZM20.9,7.943H39.624c0-1.643.027-3.21-.005-4.776a9.27,9.27,0,0,0-7.663-8.92C27.492-6.438,23.013-3.984,21.779.281,21.087,2.673,21.174,5.289,20.9,7.943Z" transform="translate(0 0)" fill="#001968"/>
      <path id="Path_70879" data-name="Path 70879" d="M180.767,210.194l3.546-3.163,4.388,4.879,9.059-9.344,3.183,3.569-12.407,12.841Z" transform="translate(-132.656 -158.651)" fill="#001968"/>
    </g>
  </g>
</svg>
