<svg xmlns="http://www.w3.org/2000/svg" width="42" height="42" viewBox="0 0 42 42">
  <g id="new_icon" transform="translate(-0.29 -0.29)">
    <circle id="Ellipse_3913" data-name="Ellipse 3913" cx="21" cy="21" r="21" transform="translate(0.29 0.29)" fill="#fff"/>
    <path id="Path_76481" data-name="Path 76481" d="M30.28,26.31s-2.14,6.04-5.04,6.04c-1.33,0-2.36-.9-3.77-.9-1.43,0-2.85.93-3.77.93-2.64,0-5.99-5.72-5.99-10.33,0-4.53,2.83-6.9,5.48-6.9,1.72,0,3.06.99,3.96.99.77,0,2.2-1.06,4.06-1.06a5.083,5.083,0,0,1,4.46,2.28,4.944,4.944,0,0,0-2.46,4.31A5.062,5.062,0,0,0,30.28,26.31Z" transform="translate(0.29 0.356)"/>
    <path id="Path_76482" data-name="Path 76482" d="M24.36,13.26a3.825,3.825,0,0,1-3.39,1.59,4.216,4.216,0,0,1,.99-3.25,4.887,4.887,0,0,1,3.58-1.98A4.857,4.857,0,0,1,24.36,13.26Z" transform="translate(0.325 0.15)"/>
  </g>
</svg>
