<svg xmlns="http://www.w3.org/2000/svg" width="18.19" height="17.984" viewBox="0 0 18.19 17.984">
  <g id="female" transform="translate(-598.245 -562.285)">
    <path id="Path_68973" data-name="Path 68973" d="M609.934,566.864l2.035-2.054c-.4,0-.786.009-1.168,0a1.235,1.235,0,1,1,.023-2.448l4.112-.075a1.309,1.309,0,0,1,1.493,1.446q.013,2.091,0,4.18a1.258,1.258,0,0,1-1.232,1.425,1.287,1.287,0,0,1-1.255-1.414c-.013-.412,0-.823,0-1.264l-2.116,2.179a7.353,7.353,0,0,1,.748,6.516,7.11,7.11,0,0,1-3.221,3.9,7.384,7.384,0,0,1-9.408-11.1A7.477,7.477,0,0,1,609.934,566.864Zm-9.217,6.041a4.832,4.832,0,0,0,4.9,4.86,4.882,4.882,0,0,0,4.933-4.845,4.973,4.973,0,0,0-4.921-4.961A4.919,4.919,0,0,0,600.717,572.905Z" transform="translate(0 0)" fill="#3a3939"/>
  </g>
</svg>
