<svg xmlns="http://www.w3.org/2000/svg" width="233.581" height="168.779" viewBox="0 0 233.581 168.779">
  <g id="Group_64205" data-name="Group 64205" transform="translate(0 -54.953)">
    <g id="Background_Complete" data-name="Background Complete" transform="translate(0 54.953)">
      <g id="Group_64186" data-name="Group 64186">
        <rect id="Rectangle_12312" data-name="Rectangle 12312" width="233.581" height="0.117" transform="translate(0 152.97)" fill="#ebebeb"/>
        <rect id="Rectangle_12313" data-name="Rectangle 12313" width="11.893" height="0.117" transform="translate(135.574 156.151)" fill="#ebebeb"/>
        <rect id="Rectangle_12314" data-name="Rectangle 12314" width="28.185" height="0.117" transform="translate(184.581 158.679)" fill="#ebebeb"/>
        <rect id="Rectangle_12315" data-name="Rectangle 12315" width="29.12" height="0.117" transform="translate(103.924 156.21)" fill="#ebebeb"/>
        <rect id="Rectangle_12316" data-name="Rectangle 12316" width="6.092" height="0.117" transform="translate(78.95 159.705)" fill="#ebebeb"/>
        <rect id="Rectangle_12317" data-name="Rectangle 12317" width="27.738" height="0.117" transform="translate(90.96 159.705)" fill="#ebebeb"/>
        <rect id="Rectangle_12318" data-name="Rectangle 12318" width="17.964" height="0.117" transform="translate(24.507 157.732)" fill="#ebebeb"/>
        <path id="Path_72975" data-name="Path 72975" d="M131.082,187.088H40.874a2.67,2.67,0,0,1-2.667-2.667V57.619a2.669,2.669,0,0,1,2.667-2.666h90.209a2.669,2.669,0,0,1,2.666,2.666v126.8A2.67,2.67,0,0,1,131.082,187.088ZM40.874,55.07a2.552,2.552,0,0,0-2.55,2.549v126.8a2.552,2.552,0,0,0,2.55,2.55h90.209a2.552,2.552,0,0,0,2.549-2.55V57.619a2.552,2.552,0,0,0-2.549-2.549Z" transform="translate(-20.358 -54.953)" fill="#ebebeb"/>
        <path id="Path_72976" data-name="Path 72976" d="M347.379,187.088H257.171a2.669,2.669,0,0,1-2.666-2.667V57.619a2.669,2.669,0,0,1,2.666-2.666h90.208a2.67,2.67,0,0,1,2.667,2.666v126.8A2.67,2.67,0,0,1,347.379,187.088ZM257.171,55.07a2.552,2.552,0,0,0-2.549,2.549v126.8a2.552,2.552,0,0,0,2.549,2.55h90.208a2.553,2.553,0,0,0,2.55-2.55V57.619a2.553,2.553,0,0,0-2.55-2.549Z" transform="translate(-135.61 -54.953)" fill="#ebebeb"/>
      </g>
      <g id="Group_64195" data-name="Group 64195" transform="translate(25.383 11.427)">
        <g id="Group_64189" data-name="Group 64189" transform="translate(10.755 79.302)">
          <g id="Group_64187" data-name="Group 64187" transform="translate(22.505)">
            <path id="Path_72977" data-name="Path 72977" d="M158.433,270.89h-31.02l-1.883-21.723h31.02Z" transform="translate(-125.53 -249.167)" fill="#e6e6e6"/>
            <path id="Path_72978" data-name="Path 72978" d="M161.873,270.89h-31.02l-1.883-21.723h31.02Z" transform="translate(-127.363 -249.167)" fill="#f0f0f0"/>
            <path id="Path_72979" data-name="Path 72979" d="M140.9,271.545l-1.034-12.393h21.69l1.034,12.393Z" transform="translate(-133.167 -254.487)" fill="#fff"/>
          </g>
          <g id="Group_64188" data-name="Group 64188" transform="translate(0 21.723)">
            <rect id="Rectangle_12319" data-name="Rectangle 12319" width="3.64" height="40.517" transform="translate(58.742)" fill="#e6e6e6"/>
            <rect id="Rectangle_12320" data-name="Rectangle 12320" width="2.528" height="40.517" transform="translate(61.002)" fill="#f0f0f0"/>
            <rect id="Rectangle_12321" data-name="Rectangle 12321" width="35.228" height="4.472" transform="translate(63.53 4.472) rotate(180)" fill="#f0f0f0"/>
            <rect id="Rectangle_12322" data-name="Rectangle 12322" width="3.64" height="36.045" transform="translate(25.908 4.472)" fill="#e6e6e6"/>
            <rect id="Rectangle_12323" data-name="Rectangle 12323" width="2.528" height="36.045" transform="translate(28.168 4.472)" fill="#f0f0f0"/>
            <rect id="Rectangle_12324" data-name="Rectangle 12324" width="3.64" height="36.045" transform="translate(0 4.472)" fill="#e6e6e6"/>
            <rect id="Rectangle_12325" data-name="Rectangle 12325" width="2.528" height="36.045" transform="translate(2.261 4.472)" fill="#f0f0f0"/>
            <rect id="Rectangle_12326" data-name="Rectangle 12326" width="3.64" height="36.045" transform="translate(35.709 4.472)" fill="#e6e6e6"/>
            <rect id="Rectangle_12327" data-name="Rectangle 12327" width="2.528" height="36.045" transform="translate(37.97 4.472)" fill="#f0f0f0"/>
            <rect id="Rectangle_12328" data-name="Rectangle 12328" width="28.302" height="4.472" fill="#e6e6e6"/>
          </g>
        </g>
        <g id="Group_64191" data-name="Group 64191" transform="translate(35.119)">
          <g id="Group_64190" data-name="Group 64190">
            <rect id="Rectangle_12329" data-name="Rectangle 12329" width="109.47" height="60.944" fill="#e0e0e0"/>
            <rect id="Rectangle_12330" data-name="Rectangle 12330" width="114.929" height="60.944" transform="translate(0.553)" fill="#f5f5f5"/>
            <rect id="Rectangle_12331" data-name="Rectangle 12331" width="57.189" height="111.173" transform="translate(113.604 1.878) rotate(90)" fill="#fff"/>
            <path id="Path_72980" data-name="Path 72980" d="M191.556,140.621l20.99-57.189h-34.64l-20.99,57.189Z" transform="translate(-144.112 -81.555)" fill="#f5f5f5"/>
            <path id="Path_72981" data-name="Path 72981" d="M272.636,140.621l20.989-57.189H267.494L246.5,140.621Z" transform="translate(-191.848 -81.555)" fill="#f5f5f5"/>
          </g>
        </g>
        <g id="Group_64193" data-name="Group 64193" transform="translate(84.183 83.337)">
          <g id="Group_64192" data-name="Group 64192">
            <rect id="Rectangle_12332" data-name="Rectangle 12332" width="9.305" height="58.206" transform="translate(85.798)" fill="#e6e6e6"/>
            <path id="Path_72982" data-name="Path 72982" d="M429.947,377.287h2.447V372.8h-5.012Z" transform="translate(-337.291 -319.08)" fill="#fafafa"/>
            <rect id="Rectangle_12333" data-name="Rectangle 12333" width="9.306" height="58.206" fill="#e6e6e6"/>
            <rect id="Rectangle_12334" data-name="Rectangle 12334" width="87.933" height="56.997" transform="translate(7.17)" fill="#fafafa"/>
            <path id="Path_72983" data-name="Path 72983" d="M338.05,278.808h-84.6v-16.1h84.6Zm-84.137-.467h83.67V263.178h-83.67Z" transform="translate(-244.611 -260.418)" fill="#e6e6e6"/>
            <path id="Path_72984" data-name="Path 72984" d="M334.4,272.826H281.222c-2.469,0-4.847-1.992-6.522-5.465l-.162-.335h66.54l-.162.335C339.243,270.834,336.865,272.826,334.4,272.826Zm-59.108-5.333c1.58,3.1,3.73,4.865,5.935,4.865H334.4c2.205,0,4.354-1.768,5.935-4.865Z" transform="translate(-255.851 -262.717)" fill="#e6e6e6"/>
            <path id="Path_72985" data-name="Path 72985" d="M252.33,377.287h-2.447V372.8H254.9Z" transform="translate(-242.713 -319.08)" fill="#fafafa"/>
            <path id="Path_72986" data-name="Path 72986" d="M338.05,317.675h-84.6v-16.1h84.6Zm-84.137-.467h83.67V302.044h-83.67Z" transform="translate(-244.611 -281.128)" fill="#e6e6e6"/>
            <path id="Path_72987" data-name="Path 72987" d="M334.4,311.692H281.222c-2.469,0-4.847-1.992-6.522-5.465l-.162-.335h66.54l-.162.335C339.243,309.7,336.865,311.692,334.4,311.692Zm-59.108-5.333c1.58,3.1,3.73,4.865,5.935,4.865H334.4c2.206,0,4.354-1.768,5.935-4.865Z" transform="translate(-255.851 -283.427)" fill="#e6e6e6"/>
            <path id="Path_72988" data-name="Path 72988" d="M338.05,356.541h-84.6v-16.1h84.6Zm-84.137-.467h83.67V340.91h-83.67Z" transform="translate(-244.611 -301.837)" fill="#e6e6e6"/>
            <path id="Path_72989" data-name="Path 72989" d="M334.4,350.558H281.222c-2.469,0-4.847-1.992-6.522-5.464l-.162-.335h66.54l-.162.335C339.243,348.566,336.865,350.558,334.4,350.558Zm-59.108-5.333c1.58,3.1,3.73,4.865,5.935,4.865H334.4c2.206,0,4.354-1.768,5.935-4.865Z" transform="translate(-255.851 -304.136)" fill="#e6e6e6"/>
          </g>
        </g>
        <g id="Group_64194" data-name="Group 64194" transform="translate(0 58.84)">
          <path id="Path_72990" data-name="Path 72990" d="M107.936,274.283v1.13h-.723l-.6,8.86h-8.8l-.6-8.86H96.5v-1.13Z" transform="translate(-76.8 -242.087)" fill="#e6e6e6"/>
          <path id="Path_72991" data-name="Path 72991" d="M82.574,215.571c-.724-5.278-7.846-6.785-16.884-6.978-8.6-.184-11.356-3.227-11.356-3.227s.027,12.323,12.42,16.785C78.523,226.387,83.3,220.857,82.574,215.571Z" transform="translate(-54.334 -205.365)" fill="#e6e6e6"/>
          <path id="Path_72992" data-name="Path 72992" d="M105.356,245.8c.151-2.171,3.617-6.16,11.953-4.346,6.028,1.311,8.269-1.814,8.269-1.814a13.363,13.363,0,0,1-9.624,11.471C107.345,253.627,105.09,249.616,105.356,245.8Z" transform="translate(-81.509 -223.627)" fill="#e6e6e6"/>
          <path id="Path_72993" data-name="Path 72993" d="M106.748,251.1a.321.321,0,0,0,.246-.114c.6-.714.11-2.425-.574-4.792-.878-3.038-1.971-6.82-1.046-9.565a38.577,38.577,0,0,1,1.793-4.239c1.309-2.767,2.439-5.157,1.5-7.653a.322.322,0,1,0-.6.227c.846,2.241-.178,4.408-1.476,7.151a39.622,39.622,0,0,0-1.821,4.308c-.99,2.937.134,6.825,1.037,9.949.533,1.842,1.083,3.747.7,4.2a.322.322,0,0,0,.245.529Z" transform="translate(-81 -215.575)" fill="#e6e6e6"/>
        </g>
      </g>
    </g>
    <g id="Login" transform="translate(46.804 87.954)">
      <g id="Group_64198" data-name="Group 64198">
        <path id="Path_72994" data-name="Path 72994" d="M170.156,239.365H103.819l-3.631-106.684h66.337Z" transform="translate(-100.188 -129.37)" fill="#de6ab3"/>
        <g id="Group_64196" data-name="Group 64196" transform="translate(3.311)">
          <path id="Path_72995" data-name="Path 72995" d="M177.242,232.279H110.905l-3.631-106.684h66.337Z" transform="translate(-107.274 -125.594)" fill="#407bff"/>
          <path id="Path_72996" data-name="Path 72996" d="M177.242,232.279H110.905l-3.631-106.684h66.337Z" transform="translate(-107.274 -125.594)" fill="#dfe8fd"/>
        </g>
        <g id="Group_64197" data-name="Group 64197" transform="translate(11.125 4.21)">
          <ellipse id="Ellipse_3502" data-name="Ellipse 3502" cx="18.345" cy="18.98" rx="18.345" ry="18.98" transform="matrix(0.701, -0.713, 0.713, 0.701, 0, 26.163)" fill="#c90780"/>
          <path id="Path_72997" data-name="Path 72997" d="M178.328,173.523a14.948,14.948,0,0,1-1.612,7.336,14.764,14.764,0,0,1-13.265,8.065,16.019,16.019,0,0,1-13.814-8.065,15.686,15.686,0,0,1-2.111-7.336,14.783,14.783,0,0,1,14.876-15.4A16.049,16.049,0,0,1,178.328,173.523Z" transform="translate(-136.531 -147.137)" fill="#fff"/>
          <path id="Path_72998" data-name="Path 72998" d="M179.134,202.113a14.763,14.763,0,0,1-13.265,8.065,16.019,16.019,0,0,1-13.814-8.065,23.618,23.618,0,0,1,13.4-4.1A24.959,24.959,0,0,1,179.134,202.113Z" transform="translate(-138.949 -168.391)" fill="#c90780" opacity="0.6"/>
          <ellipse id="Ellipse_3503" data-name="Ellipse 3503" cx="6.744" cy="6.978" rx="6.744" ry="6.978" transform="matrix(0.701, -0.713, 0.713, 0.701, 16.513, 21.035)" fill="#c90780" opacity="0.6"/>
        </g>
        <path id="Path_72999" data-name="Path 72999" d="M179.931,261.67H137.613l-.286-8.409h42.318Z" transform="translate(-119.977 -193.62)" fill="#fff"/>
        <path id="Path_73000" data-name="Path 73000" d="M181.026,293.843H138.708l-.286-8.409H180.74Z" transform="translate(-120.56 -210.763)" fill="#fff"/>
        <path id="Path_73001" data-name="Path 73001" d="M182.31,287.9l-10.2,1.387a.712.712,0,0,0-.615.844l1.339,6.834a.819.819,0,0,0,.906.638l10.2-1.387a.71.71,0,0,0,.615-.844l-1.339-6.834A.82.82,0,0,0,182.31,287.9Zm-2.93,6.923-1.846.251-.186-2.206a1.3,1.3,0,0,1-.758-.932,1.161,1.161,0,0,1,1.006-1.38,1.336,1.336,0,0,1,1.478,1.043,1.137,1.137,0,0,1-.363,1.085Z" transform="translate(-138.177 -212.073)" fill="#c90780"/>
        <path id="Path_73002" data-name="Path 73002" d="M181.782,280.69h0a.725.725,0,0,1-.8-.566l-.131-.669a3.845,3.845,0,0,0-4.026-3.065,3.289,3.289,0,0,0-3.022,3.921l.151.768a.629.629,0,0,1-.546.749h0a.724.724,0,0,1-.8-.565l-.128-.652a4.6,4.6,0,0,1,3.725-5.487,5.229,5.229,0,0,1,5.979,4.048l.15.768A.63.63,0,0,1,181.782,280.69Z" transform="translate(-138.655 -205.23)" fill="#c90780"/>
        <path id="Path_73003" data-name="Path 73003" d="M183.036,322.4H155.491l-.186-5.474H182.85Z" transform="translate(-129.556 -227.541)" fill="#c90780"/>
        <path id="Path_73004" data-name="Path 73004" d="M182.708,260.507a1.476,1.476,0,0,1-1.486,1.538,1.6,1.6,0,0,1-1.591-1.538,1.477,1.477,0,0,1,1.486-1.538A1.6,1.6,0,0,1,182.708,260.507Z" transform="translate(-142.518 -196.661)" fill="#263238"/>
        <path id="Path_73005" data-name="Path 73005" d="M168.535,260.507a1.476,1.476,0,0,1-1.486,1.538,1.6,1.6,0,0,1-1.591-1.538,1.476,1.476,0,0,1,1.486-1.538A1.6,1.6,0,0,1,168.535,260.507Z" transform="translate(-134.966 -196.661)" fill="#263238"/>
        <path id="Path_73006" data-name="Path 73006" d="M154.362,260.507a1.477,1.477,0,0,1-1.486,1.538,1.6,1.6,0,0,1-1.59-1.538,1.476,1.476,0,0,1,1.486-1.538A1.6,1.6,0,0,1,154.362,260.507Z" transform="translate(-127.414 -196.661)" fill="#263238"/>
        <path id="Path_73007" data-name="Path 73007" d="M196.882,260.507a1.476,1.476,0,0,1-1.486,1.538,1.6,1.6,0,0,1-1.59-1.538,1.477,1.477,0,0,1,1.486-1.538A1.6,1.6,0,0,1,196.882,260.507Z" transform="translate(-150.07 -196.661)" fill="#263238"/>
        <path id="Path_73008" data-name="Path 73008" d="M211.055,260.507a1.477,1.477,0,0,1-1.486,1.538,1.6,1.6,0,0,1-1.59-1.538,1.476,1.476,0,0,1,1.486-1.538A1.6,1.6,0,0,1,211.055,260.507Z" transform="translate(-157.622 -196.661)" fill="#263238"/>
      </g>
    </g>
    <g id="Character" transform="translate(129.099 88.869)">
      <g id="Group_64203" data-name="Group 64203">
        <path id="Path_73009" data-name="Path 73009" d="M329.047,174.28c.623,1,1.138,1.955,1.672,2.949s1.014,2,1.486,3.016a43.4,43.4,0,0,1,2.383,6.415c.083.277.147.57.216.857l.1.433.051.216.06.356a6.244,6.244,0,0,1-.146,2.406,13.626,13.626,0,0,1-1.453,3.484,27.807,27.807,0,0,1-4.151,5.453l-1.967-1.489a52.282,52.282,0,0,0,2.633-5.623,11.866,11.866,0,0,0,.713-2.631,2.08,2.08,0,0,0-.038-.825l-.185-.571c-.077-.234-.144-.468-.237-.7a51.652,51.652,0,0,0-2.462-5.645c-.919-1.86-1.937-3.753-2.94-5.52Z" transform="translate(-302.156 -152.45)" fill="#ff8b7b"/>
        <path id="Path_73010" data-name="Path 73010" d="M328.789,224.425l-2.145,1.139,2.466,2.887a3.824,3.824,0,0,0,1.608-2.632Z" transform="translate(-303.147 -179.17)" fill="#ff8b7b"/>
        <path id="Path_73011" data-name="Path 73011" d="M320.466,228.643l2.642,2.1,2.71-.989-2.466-2.887Z" transform="translate(-299.855 -180.468)" fill="#ff8b7b"/>
        <path id="Path_73012" data-name="Path 73012" d="M300.433,140.952c-.053.26-.233.442-.4.407s-.264-.273-.212-.533.233-.442.4-.408S300.486,140.692,300.433,140.952Z" transform="translate(-288.846 -134.406)" fill="#263238"/>
        <path id="Path_73013" data-name="Path 73013" d="M298.773,142.522a9.486,9.486,0,0,1-1.693,1.969,1.528,1.528,0,0,0,1.194.485Z" transform="translate(-287.394 -135.529)" fill="#ff5652"/>
        <path id="Path_73014" data-name="Path 73014" d="M298.9,158.646l.02-3.062,4.055.49s-.07,2.633-2.334,3.407Z" transform="translate(-288.365 -142.488)" fill="#ff8b7b"/>
        <path id="Path_73015" data-name="Path 73015" d="M300.09,150.864l2.855.82.055,1.875-4.055-.49Z" transform="translate(-288.388 -139.973)" fill="#ff8b7b"/>
        <path id="Path_73016" data-name="Path 73016" d="M303.62,151.682l-2.854-.822-.556,1.065a4.547,4.547,0,0,0,2.635,3.962,4.466,4.466,0,0,0,.827-2.331Z" transform="translate(-289.062 -139.971)" opacity="0.2"/>
        <path id="Path_73017" data-name="Path 73017" d="M302.286,137.993a.154.154,0,0,0,.106-.042.155.155,0,0,0,.009-.22,1.545,1.545,0,0,0-1.324-.515.156.156,0,0,0,.051.307h0a1.234,1.234,0,0,1,1.044.42A.156.156,0,0,0,302.286,137.993Z" transform="translate(-289.455 -132.696)" fill="#263238"/>
        <path id="Path_73018" data-name="Path 73018" d="M308.354,151.683c-.471,2.4-.756,5.734.926,7.339,0,0-.657,2.439-5.124,2.439-4.912,0-2.363-2.14-2.363-2.14,2.042-.634,2.024-2.959,1.557-4.827Z" transform="translate(-289.553 -140.41)" fill="#ff8b7b"/>
        <path id="Path_73019" data-name="Path 73019" d="M310.386,167.011c.437-.619.419-2.576-.047-2.922-.754-.558-3.979-.686-8.323.313a3.064,3.064,0,0,1-.534,2.889Z" transform="translate(-289.74 -146.792)" fill="#407bff"/>
        <path id="Path_73020" data-name="Path 73020" d="M350.751,407.444a1.058,1.058,0,0,1-.818-.045.318.318,0,0,1-.075-.362.36.36,0,0,1,.2-.229c.444-.212,1.463.2,1.507.221a.079.079,0,0,1,.048.07.077.077,0,0,1-.044.072A4.137,4.137,0,0,1,350.751,407.444Zm-.534-.525a.424.424,0,0,0-.092.03.208.208,0,0,0-.118.133c-.042.14.01.184.028.2.177.15.832.012,1.295-.173A2.565,2.565,0,0,0,350.216,406.919Z" transform="translate(-315.504 -276.318)" fill="#407bff"/>
        <path id="Path_73021" data-name="Path 73021" d="M352.123,406.159a.074.074,0,0,1-.038,0c-.371-.108-1.166-.673-1.176-1.046a.254.254,0,0,1,.2-.252.424.424,0,0,1,.345.028c.439.224.717,1.134.728,1.173a.079.079,0,0,1-.019.078A.081.081,0,0,1,352.123,406.159Zm-.93-1.161-.034.009c-.1.034-.095.081-.094.1.006.221.53.663.915.843a1.878,1.878,0,0,0-.6-.924A.277.277,0,0,0,351.193,405Z" transform="translate(-316.077 -275.299)" fill="#407bff"/>
        <path id="Path_73022" data-name="Path 73022" d="M298.706,408.514c-.421,0-.829-.058-.965-.248a.294.294,0,0,1,.007-.34.387.387,0,0,1,.247-.182c.547-.149,1.695.505,1.744.534a.078.078,0,0,1-.024.144A5.786,5.786,0,0,1,298.706,408.514Zm-.521-.637a.582.582,0,0,0-.15.018.235.235,0,0,0-.152.109c-.055.1-.035.145-.015.172.153.212.983.217,1.594.131A3.513,3.513,0,0,0,298.185,407.877Z" transform="translate(-287.72 -276.838)" fill="#407bff"/>
        <path id="Path_73023" data-name="Path 73023" d="M300.669,407.526a.077.077,0,0,1-.032-.007c-.4-.178-1.182-.889-1.122-1.26.014-.087.076-.2.29-.218a.567.567,0,0,1,.432.134,2.222,2.222,0,0,1,.51,1.266.077.077,0,0,1-.032.071A.08.08,0,0,1,300.669,407.526Zm-.8-1.332-.047,0c-.14.014-.149.069-.152.087-.036.223.5.782.9,1.024a1.825,1.825,0,0,0-.434-1.013A.414.414,0,0,0,299.868,406.194Z" transform="translate(-288.69 -275.94)" fill="#407bff"/>
        <path id="Path_73024" data-name="Path 73024" d="M305.6,400.377h-3.286l-.327-7.609h3.286Z" transform="translate(-290.01 -268.869)" fill="#ff8b7b"/>
        <path id="Path_73025" data-name="Path 73025" d="M354.009,397.716l-3.211.7-3.224-7.088,3.211-.7Z" transform="translate(-314.299 -267.729)" fill="#ff8b7b"/>
        <path id="Path_73026" data-name="Path 73026" d="M348.493,405.7l3.608-.781a.287.287,0,0,1,.321.16l1.252,2.717a.483.483,0,0,1-.347.673c-1.264.251-1.892.31-3.479.653-.976.211-3.18.748-4.528,1.04-1.318.285-1.813-1-1.287-1.243a9.119,9.119,0,0,0,3.98-2.909A.8.8,0,0,1,348.493,405.7Z" transform="translate(-312.303 -275.34)" fill="#263238"/>
        <path id="Path_73027" data-name="Path 73027" d="M293.685,408.242h3.589a.286.286,0,0,1,.279.224l.649,2.921a.478.478,0,0,1-.473.584c-1.295-.022-3.165-.1-4.792-.1-1.9,0-3.546.1-5.776.1-1.349,0-1.723-1.364-1.159-1.487,2.57-.562,4.669-.622,6.891-1.992A1.519,1.519,0,0,1,293.685,408.242Z" transform="translate(-281.357 -277.114)" fill="#263238"/>
        <g id="Group_64199" data-name="Group 64199" transform="translate(21.455 19.266)">
          <path id="Path_73028" data-name="Path 73028" d="M326.428,168.881c3.08.706,5.619,8.568,5.619,8.568l-6.184,4.714a13.494,13.494,0,0,1-3.28-6.073C321.524,171.97,323.279,168.159,326.428,168.881Z" transform="translate(-322.274 -168.793)" fill="#1d3ea7"/>
          <path id="Path_73029" data-name="Path 73029" d="M326.428,168.881c3.08.706,5.619,8.568,5.619,8.568l-6.184,4.714a13.494,13.494,0,0,1-3.28-6.073C321.524,171.97,323.279,168.159,326.428,168.881Z" transform="translate(-322.274 -168.793)" fill="#1d3ea7" opacity="0.4"/>
        </g>
        <path id="Path_73030" data-name="Path 73030" d="M285.763,173.1c-.769.829-1.535,1.567-2.329,2.326q-.591.565-1.208,1.11l-.62.543-.156.135c-.076.065-.168.142-.266.218a3.92,3.92,0,0,1-.9.533,2.971,2.971,0,0,1-1.136.235,2.756,2.756,0,0,1-.981-.174,2.727,2.727,0,0,1-.935-.594,2.822,2.822,0,0,1-.733-1.209,3.382,3.382,0,0,1-.133-.695,4.5,4.5,0,0,1,.009-.835c.022-.224.052-.418.087-.6a11.757,11.757,0,0,1,.542-1.883,17.511,17.511,0,0,1,.726-1.689c.3-.595.583-1.026.868-1.524a38.124,38.124,0,0,1,3.948-5.352,36.053,36.053,0,0,1,4.789-4.54l1.719,1.77c-1.208,1.615-2.4,3.348-3.493,5.055a54.983,54.983,0,0,0-2.989,5.254c-.2.44-.45.922-.59,1.29a12.936,12.936,0,0,0-.438,1.26,8.944,8.944,0,0,0-.265,1.18,1.711,1.711,0,0,0-.015.185c0,.036.008.056,0-.043a1.326,1.326,0,0,0-.06-.306,2.025,2.025,0,0,0-.539-.868,2.238,2.238,0,0,0-1.556-.631,1.971,1.971,0,0,0-.754.144,1.928,1.928,0,0,0-.231.115l.179-.164.561-.514,1.117-1.046c.74-.7,1.483-1.439,2.185-2.128Z" transform="translate(-276.347 -144.364)" fill="#ff8b7b"/>
        <path id="Path_73031" data-name="Path 73031" d="M323.956,181.358c1.673,1.655,2.219,4.67,2.348,7.291l-.273.21a13.506,13.506,0,0,1-3.283-6.074c-.063-.246-.116-.492-.161-.734Z" transform="translate(-300.986 -156.222)" opacity="0.2"/>
        <g id="Group_64200" data-name="Group 64200" transform="translate(5.587 18.502)">
          <path id="Path_73032" data-name="Path 73032" d="M288.868,171.3c-.671,3.55-1.092,10.84.858,25.276H307.3c.121-2.7-1.574-15.859,1.028-28.571a45.844,45.844,0,0,0-5.883-.743,64.563,64.563,0,0,0-7.471,0c-.824.076-1.633.194-2.354.322A4.651,4.651,0,0,0,288.868,171.3Z" transform="translate(-288.307 -167.157)" fill="#1d3ea7"/>
          <path id="Path_73033" data-name="Path 73033" d="M288.868,171.3c-.671,3.55-1.092,10.84.858,25.276H307.3c.121-2.7-1.574-15.859,1.028-28.571a45.844,45.844,0,0,0-5.883-.743,64.563,64.563,0,0,0-7.471,0c-.824.076-1.633.194-2.354.322A4.651,4.651,0,0,0,288.868,171.3Z" transform="translate(-288.307 -167.157)" fill="#1d3ea7" opacity="0.4"/>
        </g>
        <path id="Path_73034" data-name="Path 73034" d="M291.56,186.4l-3.176-.761c-.1,1.923-.107,4.308.036,7.255C289.883,191.229,291.748,188.635,291.56,186.4Z" transform="translate(-282.722 -158.502)" opacity="0.2"/>
        <g id="Group_64201" data-name="Group 64201" transform="translate(11.98 122.901)">
          <path id="Path_73035" data-name="Path 73035" d="M301.991,392.772l.168,3.922h3.287l-.168-3.922Z" transform="translate(-301.991 -391.772)" opacity="0.2"/>
          <path id="Path_73036" data-name="Path 73036" d="M350.786,390.632l-3.213.7,1.664,3.653,3.213-.7Z" transform="translate(-326.279 -390.632)" opacity="0.2"/>
        </g>
        <path id="Path_73037" data-name="Path 73037" d="M308.75,137.709c-.844,3.15-1.178,5.036-3.122,6.346a4.332,4.332,0,0,1-6.678-3.63c-.1-3,1.295-7.651,4.675-8.286A4.448,4.448,0,0,1,308.75,137.709Z" transform="translate(-288.388 -129.952)" fill="#ff8b7b"/>
        <path id="Path_73038" data-name="Path 73038" d="M303.59,138.8c-.156-.423-.884-3.678-.2-4.523s8.461-.237,9.611.895c1.908,1.878.584,3.553-1.5,5.715-1.571,1.625-1.631,3.458-2.424,3.727-1.388.471-3.541.029-3.973-1.454S303.59,138.8,303.59,138.8Z" transform="translate(-290.603 -130.927)" fill="#263238"/>
        <path id="Path_73039" data-name="Path 73039" d="M310.077,128.1c-2.749-1.17-7.9.124-10.686-.547a4.288,4.288,0,0,0,3.553,4.374,36.651,36.651,0,0,0,7.007.646C313.008,132.447,312.411,129.093,310.077,128.1Z" transform="translate(-288.621 -127.552)" fill="#263238"/>
        <path id="Path_73040" data-name="Path 73040" d="M323.194,136.225a5.215,5.215,0,0,0,2.907-.558C326.617,136.909,323.791,137.25,323.194,136.225Z" transform="translate(-301.309 -131.876)" fill="#263238"/>
        <path id="Path_73041" data-name="Path 73041" d="M304.456,143.132a3.686,3.686,0,0,1-.923,2.179c-.716.79-1.464.3-1.591-.663-.114-.865.121-2.318,1-2.753S304.514,142.157,304.456,143.132Z" transform="translate(-289.971 -135.125)" fill="#ff8b7b"/>
        <path id="Path_73042" data-name="Path 73042" d="M304.69,230.14s3.729,25.112,5.776,34.519c2.242,10.3,14.263,44.387,14.263,44.387l5.882-1.273S322.206,280,320.324,265.593c-1.445-11.063-4.293-35.453-4.293-35.453Z" transform="translate(-291.449 -182.215)" fill="#407bff"/>
        <path id="Path_73043" data-name="Path 73043" d="M344.571,393.364c-.025.005,1.1,2.127,1.1,2.127l6.618-1.433-.558-1.99Z" transform="translate(-312.699 -268.497)" fill="#263238"/>
        <path id="Path_73044" data-name="Path 73044" d="M308.628,249.254c4.312.846,3.856,16.925,3.337,25.2-1.244-5.846-3.064-17.1-4.307-25.08A1.474,1.474,0,0,1,308.628,249.254Z" transform="translate(-293.031 -192.381)" opacity="0.3"/>
        <path id="Path_73045" data-name="Path 73045" d="M291.08,230.14s-.453,24.568-.1,34.589c.372,10.422,4.012,44.55,4.012,44.55h5.566s.2-33.518.452-43.754c.27-11.159,1.617-35.384,1.617-35.384Z" transform="translate(-284.073 -182.215)" fill="#407bff"/>
        <path id="Path_73046" data-name="Path 73046" d="M297.435,394.8c-.026,0,.314,2.311.314,2.311h6.772l.183-2.063Z" transform="translate(-287.583 -269.95)" fill="#263238"/>
        <g id="Group_64202" data-name="Group 64202" transform="translate(1.348 18.958)">
          <path id="Path_73047" data-name="Path 73047" d="M290.92,172.9c1.575,4.246-7.681,9.247-7.681,9.247L279.232,177s2.673-5.321,5.954-7.72C289.239,166.315,289.721,169.67,290.92,172.9Z" transform="translate(-279.232 -168.133)" fill="#1d3ea7"/>
          <path id="Path_73048" data-name="Path 73048" d="M290.92,172.9c1.575,4.246-7.681,9.247-7.681,9.247L279.232,177s2.673-5.321,5.954-7.72C289.239,166.315,289.721,169.67,290.92,172.9Z" transform="translate(-279.232 -168.133)" fill="#1d3ea7" opacity="0.4"/>
        </g>
      </g>
    </g>
    <g id="Thinking" transform="translate(153.584 58.868)">
      <g id="Group_64204" data-name="Group 64204">
        <ellipse id="Ellipse_3504" data-name="Ellipse 3504" cx="16.858" cy="10.745" rx="16.858" ry="10.745" transform="translate(7.955)" fill="#c90780"/>
        <path id="Path_73049" data-name="Path 73049" d="M363.48,87.094a4.724,4.724,0,0,1-4.638-3.921,4.774,4.774,0,0,1,3.6-5.4h0a4.7,4.7,0,0,1,5.056,2.11l10.823-2.234a1.694,1.694,0,0,1,1.984,1.167,1.63,1.63,0,0,1-1.247,2.011l-.284.059a.284.284,0,0,0-.2.144.287.287,0,0,0-.016.242l.191.5a.741.741,0,0,1-.288.9.911.911,0,0,0-.42.661.723.723,0,0,1-.562.648l-.222.046a.726.726,0,0,1-.773-.372.909.909,0,0,0-1.686.348.725.725,0,0,1-.563.647l-.218.045a.726.726,0,0,1-.773-.372.913.913,0,0,0-.65-.44.741.741,0,0,1-.621-.711l-.022-.531a.281.281,0,0,0-.11-.216.285.285,0,0,0-.237-.056l-3.449.712a4.709,4.709,0,0,1-3.714,3.921A4.774,4.774,0,0,1,363.48,87.094Zm-.933-8.868a4.3,4.3,0,0,0-3.244,4.868,4.252,4.252,0,0,0,8.415-.242l.019-.168,3.777-.78a.756.756,0,0,1,.909.71l.022.531a.277.277,0,0,0,.222.268,1.368,1.368,0,0,1,.986.668.266.266,0,0,0,.275.149l.218-.045a.266.266,0,0,0,.193-.246,1.376,1.376,0,0,1,2.554-.527.262.262,0,0,0,.274.149l.223-.046a.263.263,0,0,0,.192-.244,1.363,1.363,0,0,1,.637-1,.276.276,0,0,0,.1-.334l-.191-.5a.756.756,0,0,1,.554-1.012l.284-.059a1.162,1.162,0,0,0,.89-1.436,1.221,1.221,0,0,0-1.438-.826l-11.151,2.3-.084-.147a4.23,4.23,0,0,0-4.635-2.033Zm.939,7.141a3,3,0,1,1,.61-.062h0A3.042,3.042,0,0,1,363.486,85.367Zm.014-5.519a2.58,2.58,0,0,0-.519.054A2.525,2.525,0,0,0,364,84.847h0a2.525,2.525,0,0,0-.5-5Z" transform="translate(-344.754 -70.941)" fill="#fff"/>
        <ellipse id="Ellipse_3505" data-name="Ellipse 3505" cx="5.541" cy="3.532" rx="5.541" ry="3.532" transform="translate(5.547 20.726)" fill="#c90780" opacity="0.6"/>
        <ellipse id="Ellipse_3506" data-name="Ellipse 3506" cx="2.275" cy="1.45" rx="2.275" ry="1.45" transform="translate(0 26.339)" fill="#c90780" opacity="0.3"/>
      </g>
    </g>
  </g>
</svg>
