<svg id="goolge" xmlns="http://www.w3.org/2000/svg" width="22.912" height="23.234" viewBox="0 0 22.912 23.234">
  <path id="Path_68497" data-name="Path 68497" d="M1832.076,1773.854s.154,1.625.154,2.163c0,.568-.154,2.26-.154,2.26v.007a10.4,10.4,0,0,1-3.213,6.466l-3.786-2.823a7.151,7.151,0,0,0,.817-.622,4.964,4.964,0,0,0,1.56-3.02h-6.389v-4.431h11.011Z" transform="translate(-1809.318 -1764.358)" fill="#0086fa"/>
  <path id="Path_68498" data-name="Path 68498" d="M1635.525,1590.81l-3.368,3.283a6.919,6.919,0,0,0-4.4-1.738,7.138,7.138,0,0,0-6.746,4.752l-3.844-2.867a11.724,11.724,0,0,1,18.348-3.437Z" transform="translate(-1615.928 -1587.772)" fill="#ff3f2c"/>
  <path id="Path_68499" data-name="Path 68499" d="M1635.169,1867.64l-.037.033a11.946,11.946,0,0,1-18.282-3.6l3.85-2.872a7.177,7.177,0,0,0,10.683,3.616Z" transform="translate(-1615.625 -1847.248)" fill="#00aa49"/>
  <path id="Path_68500" data-name="Path 68500" d="M1598.145,1722.017l-3.851,2.872a11.485,11.485,0,0,1,.017-10.356l3.844,2.867a7.05,7.05,0,0,0-.01,4.618Z" transform="translate(-1593.069 -1708.064)" fill="#ffbe00"/>
</svg>
