<svg xmlns="http://www.w3.org/2000/svg" width="10.052" height="15" viewBox="0 0 10.052 15">
  <g id="male" transform="translate(-660.004 -592.513)">
    <path id="Path_68972" data-name="Path 68972" d="M664.117,605.715c-.457,0-.846.005-1.235,0a.843.843,0,1,1-.05-1.682c.4-.025.807,0,1.271,0,0-.477.021-.909-.016-1.337-.008-.1-.2-.22-.332-.258a5.04,5.04,0,1,1,6.3-5.1,4.966,4.966,0,0,1-3.98,5.138,2.3,2.3,0,0,0-.259.094v1.463c.464,0,.912-.027,1.355.006a.807.807,0,0,1,.706,1.273,1.237,1.237,0,0,1-.749.39,9.018,9.018,0,0,1-1.331.017c0,.314.006.608,0,.9a.837.837,0,1,1-1.671.07C664.1,606.389,664.117,606.086,664.117,605.715Zm-2.414-8.171a3.346,3.346,0,0,0,3.34,3.367,3.4,3.4,0,0,0,3.359-3.37,3.353,3.353,0,0,0-3.338-3.328A3.311,3.311,0,0,0,661.7,597.544Z" transform="translate(0 0)" fill="#fff"/>
  </g>
</svg>
