<svg xmlns="http://www.w3.org/2000/svg" width="21.165" height="21.165" viewBox="0 0 21.165 21.165">
  <g id="other" transform="translate(-598.24 -553.234)">
    <path id="Path_68974" data-name="Path 68974" d="M611.052,557.319a5.289,5.289,0,0,1,5.247.865l3.761-3.668c-.154-.017-.252-.036-.35-.037-.606,0-1.212.008-1.818-.005a.623.623,0,0,1-.643-.617.609.609,0,0,1,.6-.612c1.253-.013,2.507-.017,3.76,0a.574.574,0,0,1,.59.62q.017,1.86,0,3.72a.612.612,0,0,1-.606.609.619.619,0,0,1-.623-.636c-.013-.7,0-1.4,0-2.2l-3.8,3.7a5.5,5.5,0,0,1,1.038,4.93,5.435,5.435,0,0,1-2.184,3.111,5.5,5.5,0,0,1-7.1-.623,5.4,5.4,0,0,1-.869-6.711l.84.666a12.93,12.93,0,0,0-.391,2.042,4.33,4.33,0,1,0,3.706-4.243.581.581,0,0,1-.411-.147C611.534,557.849,611.3,557.579,611.052,557.319Z" transform="translate(-2.804)"/>
    <path id="Path_68975" data-name="Path 68975" d="M603.183,572.326v-2.584a5.67,5.67,0,0,1-3.749-2.1,5.376,5.376,0,0,1-1.183-3.068,5.59,5.59,0,0,1,3.6-5.57,5.523,5.523,0,0,1,6.314,1.75,5.425,5.425,0,0,1,.436,6.242c-.273-.222-.554-.427-.8-.667a.387.387,0,0,1-.023-.35,4.364,4.364,0,0,0-4.121-6.1,4.417,4.417,0,0,0-4.164,3.962,4.336,4.336,0,0,0,3.488,4.631,12.459,12.459,0,0,0,1.515.041.516.516,0,0,1,.315.113c.268.256.515.532.825.858l-1.162.282v2.568c.512,0,1.018,0,1.524,0a2.143,2.143,0,0,1,.453.028.554.554,0,0,1,.468.593.547.547,0,0,1-.529.581c-.439.03-.881.017-1.321.021-.19,0-.381,0-.621,0,0,.6,0,1.159,0,1.718,0,.509-.233.809-.619.809s-.618-.3-.619-.809c0-.55,0-1.1,0-1.718h-1.033c-.234,0-.468,0-.7,0-.459-.012-.734-.237-.741-.6s.279-.615.761-.621c.427-.007.854,0,1.281,0Z" transform="translate(0 -1.679)"/>
  </g>
</svg>
