<svg xmlns="http://www.w3.org/2000/svg" width="168.258" height="170.103" viewBox="0 0 168.258 170.103">
  <g id="reset_password" transform="translate(-97.871 -241.097)">
    <g id="Group_13863" data-name="Group 13863" transform="translate(-161.64 107.677)">
      <g id="Group_13635" data-name="Group 13635" transform="translate(272.292 152.291)">
        <g id="Group_13599" data-name="Group 13599" transform="translate(80.171 71.424)">
          <g id="Group_13595" data-name="Group 13595" transform="translate(4.088)">
            <path id="Path_41043" data-name="Path 41043" d="M367.649,193.335a1.076,1.076,0,0,1-.151-.011l-53.78-8.3a.974.974,0,1,1,.3-1.925l53.782,8.3a.974.974,0,0,1-.147,1.936Z" transform="translate(-312.892 -183.091)" fill="#c80880"/>
          </g>
          <g id="Group_13596" data-name="Group 13596" transform="translate(3.307 2.982)">
            <path id="Path_41044" data-name="Path 41044" d="M347.62,199.428a.975.975,0,0,1-.34-.062L313.1,186.618a.974.974,0,1,1,.68-1.825l34.185,12.751a.974.974,0,0,1-.342,1.885Z" transform="translate(-312.462 -184.731)" fill="#c80880"/>
          </g>
          <g id="Group_13597" data-name="Group 13597" transform="translate(1.931 5.756)">
            <path id="Path_41045" data-name="Path 41045" d="M355.334,214.968a.969.969,0,0,1-.516-.147l-42.656-26.765a.974.974,0,0,1,1.034-1.651l42.656,26.765a.973.973,0,0,1-.518,1.8Z" transform="translate(-311.705 -186.257)" fill="#c80880"/>
          </g>
          <g id="Group_13598" data-name="Group 13598" transform="translate(0 8.232)">
            <path id="Path_41046" data-name="Path 41046" d="M343.637,220.132a.972.972,0,0,1-.673-.269L310.945,189.3a.973.973,0,1,1,1.345-1.407l32.02,30.564a.973.973,0,0,1-.673,1.678Z" transform="translate(-310.643 -187.619)" fill="#c80880"/>
          </g>
        </g>
        <g id="Group_13604" data-name="Group 13604" transform="translate(69.391 81.481)">
          <g id="Group_13600" data-name="Group 13600" transform="translate(8.709)">
            <path id="Path_41047" data-name="Path 41047" d="M342.621,234.481a.968.968,0,0,1-.785-.4l-32.144-43.909a.974.974,0,1,1,1.571-1.151l32.144,43.911a.975.975,0,0,1-.785,1.549Z" transform="translate(-309.503 -188.623)" fill="#c80880"/>
          </g>
          <g id="Group_13601" data-name="Group 13601" transform="translate(6.022 1.573)">
            <path id="Path_41048" data-name="Path 41048" d="M324.18,224.611a.974.974,0,0,1-.885-.567l-15.181-33.176a.974.974,0,0,1,1.771-.811l15.181,33.176a.972.972,0,0,1-.885,1.378Z" transform="translate(-308.025 -189.488)" fill="#c80880"/>
          </g>
          <g id="Group_13602" data-name="Group 13602" transform="translate(3.108 2.561)">
            <path id="Path_41049" data-name="Path 41049" d="M318.634,241.066a.975.975,0,0,1-.949-.756l-11.238-49.086a.973.973,0,1,1,1.9-.434l11.24,49.086a.976.976,0,0,1-.733,1.167A.991.991,0,0,1,318.634,241.066Z" transform="translate(-306.422 -190.031)" fill="#c80880"/>
          </g>
          <g id="Group_13603" data-name="Group 13603" transform="translate(0 2.945)">
            <path id="Path_41050" data-name="Path 41050" d="M306.7,236.445a.974.974,0,0,1-.973-.951l-1.018-44.254a.974.974,0,1,1,1.947-.046l1.018,44.254a.973.973,0,0,1-.951,1Z" transform="translate(-304.713 -190.243)" fill="#c80880"/>
          </g>
        </g>
        <g id="Group_13609" data-name="Group 13609" transform="translate(27.818 80.173)">
          <g id="Group_13605" data-name="Group 13605" transform="translate(30.501 4.088)">
            <path id="Path_41051" data-name="Path 41051" d="M299.6,245.879a1.055,1.055,0,0,1-.151-.011.974.974,0,0,1-.813-1.111l8.3-53.782a.973.973,0,0,1,1.923.3l-8.3,53.78A.972.972,0,0,1,299.6,245.879Z" transform="translate(-298.623 -190.152)" fill="#c80880"/>
          </g>
          <g id="Group_13606" data-name="Group 13606" transform="translate(23.066 3.306)">
            <path id="Path_41052" data-name="Path 41052" d="M295.506,225.853a.971.971,0,0,1-.913-1.313l12.751-34.185a.973.973,0,1,1,1.823.682L296.419,225.22A.974.974,0,0,1,295.506,225.853Z" transform="translate(-294.532 -189.722)" fill="#c80880"/>
          </g>
          <g id="Group_13607" data-name="Group 13607" transform="translate(6.277 1.929)">
            <path id="Path_41053" data-name="Path 41053" d="M286.27,233.567a.959.959,0,0,1-.516-.149.972.972,0,0,1-.307-1.342l26.765-42.656a.974.974,0,1,1,1.649,1.036l-26.765,42.655A.972.972,0,0,1,286.27,233.567Z" transform="translate(-285.297 -188.964)" fill="#c80880"/>
          </g>
          <g id="Group_13608" data-name="Group 13608">
            <path id="Path_41054" data-name="Path 41054" d="M282.818,221.87a.974.974,0,0,1-.705-1.647L312.679,188.2a.973.973,0,1,1,1.409,1.343l-30.566,32.02A.971.971,0,0,1,282.818,221.87Z" transform="translate(-281.844 -187.903)" fill="#c80880"/>
          </g>
        </g>
        <g id="Group_13614" data-name="Group 13614" transform="translate(4.911 69.39)">
          <g id="Group_13610" data-name="Group 13610" transform="translate(7.738 8.71)">
            <path id="Path_41055" data-name="Path 41055" d="M274.474,220.854a.974.974,0,0,1-.576-1.76l43.909-32.144a.974.974,0,1,1,1.151,1.571l-43.909,32.144A.966.966,0,0,1,274.474,220.854Z" transform="translate(-273.5 -186.763)" fill="#c80880"/>
          </g>
          <g id="Group_13611" data-name="Group 13611" transform="translate(16.899 6.024)">
            <path id="Path_41056" data-name="Path 41056" d="M279.513,202.413a.974.974,0,0,1-.405-1.86l33.176-15.179a.974.974,0,1,1,.811,1.771l-33.176,15.179A.978.978,0,0,1,279.513,202.413Z" transform="translate(-278.539 -185.285)" fill="#c80880"/>
          </g>
          <g id="Group_13612" data-name="Group 13612" transform="translate(0 3.108)">
            <path id="Path_41057" data-name="Path 41057" d="M270.215,196.868a.973.973,0,0,1-.216-1.922l49.088-11.24a.973.973,0,0,1,.434,1.9l-49.088,11.24A.991.991,0,0,1,270.215,196.868Z" transform="translate(-269.243 -183.681)" fill="#c80880"/>
          </g>
          <g id="Group_13613" data-name="Group 13613" transform="translate(4.449)">
            <path id="Path_41058" data-name="Path 41058" d="M272.664,184.939a.974.974,0,0,1-.022-1.947l44.255-1.02a.974.974,0,0,1,.045,1.947l-44.256,1.018Z" transform="translate(-271.691 -181.972)" fill="#c80880"/>
          </g>
        </g>
        <g id="Group_13619" data-name="Group 13619" transform="translate(0 27.818)">
          <g id="Group_13615" data-name="Group 13615" transform="translate(0 30.501)">
            <path id="Path_41059" data-name="Path 41059" d="M321.3,186.126a1.032,1.032,0,0,1-.149-.011l-53.782-8.3a.974.974,0,0,1,.3-1.925l53.78,8.3a.974.974,0,0,1-.147,1.936Z" transform="translate(-266.542 -175.882)" fill="#c80880"/>
          </g>
          <g id="Group_13616" data-name="Group 13616" transform="translate(20.377 23.066)">
            <path id="Path_41060" data-name="Path 41060" d="M312.909,186.49a.975.975,0,0,1-.34-.062l-34.185-12.751a.973.973,0,0,1,.682-1.823L313.249,184.6a.974.974,0,0,1-.34,1.887Z" transform="translate(-277.751 -171.792)" fill="#c80880"/>
          </g>
          <g id="Group_13617" data-name="Group 13617" transform="translate(13.282 6.277)">
            <path id="Path_41061" data-name="Path 41061" d="M317.477,191.267a.959.959,0,0,1-.516-.149L274.3,164.356a.974.974,0,0,1,1.034-1.651l42.656,26.765a.973.973,0,0,1-.518,1.8Z" transform="translate(-273.848 -162.556)" fill="#c80880"/>
          </g>
          <g id="Group_13618" data-name="Group 13618" transform="translate(25.848)">
            <path id="Path_41062" data-name="Path 41062" d="M313.754,191.616a.972.972,0,0,1-.673-.269l-32.02-30.566a.973.973,0,1,1,1.345-1.407l32.02,30.564a.974.974,0,0,1-.673,1.678Z" transform="translate(-280.76 -159.103)" fill="#c80880"/>
          </g>
        </g>
        <g id="Group_13624" data-name="Group 13624" transform="translate(27.797 4.911)">
          <g id="Group_13620" data-name="Group 13620" transform="translate(0 7.739)">
            <path id="Path_41063" data-name="Path 41063" d="M314.95,196.616a.972.972,0,0,1-.785-.4l-32.144-43.911a.973.973,0,1,1,1.571-1.149l32.144,43.909a.975.975,0,0,1-.785,1.549Z" transform="translate(-281.832 -150.759)" fill="#c80880"/>
          </g>
          <g id="Group_13621" data-name="Group 13621" transform="translate(19.649 16.899)">
            <path id="Path_41064" data-name="Path 41064" d="M308.8,190.923a.973.973,0,0,1-.885-.569L292.73,157.178a.974.974,0,1,1,1.771-.811l15.181,33.176a.975.975,0,0,1-.885,1.38Z" transform="translate(-292.641 -155.798)" fill="#c80880"/>
          </g>
          <g id="Group_13622" data-name="Group 13622" transform="translate(26.505)">
            <path id="Path_41065" data-name="Path 41065" d="M308.626,197.537a.975.975,0,0,1-.949-.756l-11.24-49.086a.974.974,0,0,1,1.9-.434l11.238,49.086a.975.975,0,0,1-.731,1.167A1,1,0,0,1,308.626,197.537Z" transform="translate(-296.412 -146.502)" fill="#c80880"/>
          </g>
          <g id="Group_13623" data-name="Group 13623" transform="translate(39.834 4.449)">
            <path id="Path_41066" data-name="Path 41066" d="M305.736,195.152a.974.974,0,0,1-.973-.951l-1.018-44.254a.974.974,0,1,1,1.947-.045l1.018,44.254a.973.973,0,0,1-.951,1Z" transform="translate(-303.745 -148.95)" fill="#c80880"/>
          </g>
        </g>
        <g id="Group_13629" data-name="Group 13629" transform="translate(71.424)">
          <g id="Group_13625" data-name="Group 13625">
            <path id="Path_41067" data-name="Path 41067" d="M306.807,199.53a1.079,1.079,0,0,1-.151-.013.973.973,0,0,1-.813-1.111l8.3-53.78a.973.973,0,1,1,1.923.3l-8.3,53.78A.974.974,0,0,1,306.807,199.53Z" transform="translate(-305.832 -143.801)" fill="#c80880"/>
          </g>
          <g id="Group_13626" data-name="Group 13626" transform="translate(2.981 20.378)">
            <path id="Path_41068" data-name="Path 41068" d="M308.445,191.142a.974.974,0,0,1-.911-1.314l12.749-34.183a.974.974,0,0,1,1.825.68l-12.751,34.185A.973.973,0,0,1,308.445,191.142Z" transform="translate(-307.472 -155.01)" fill="#c80880"/>
          </g>
          <g id="Group_13627" data-name="Group 13627" transform="translate(5.756 13.283)">
            <path id="Path_41069" data-name="Path 41069" d="M309.97,195.71a.964.964,0,0,1-.516-.149.974.974,0,0,1-.307-1.342l26.765-42.655a.973.973,0,0,1,1.649,1.034L310.8,195.254A.968.968,0,0,1,309.97,195.71Z" transform="translate(-308.998 -151.108)" fill="#c80880"/>
          </g>
          <g id="Group_13628" data-name="Group 13628" transform="translate(8.232 25.849)">
            <path id="Path_41070" data-name="Path 41070" d="M311.334,191.987a.974.974,0,0,1-.705-1.645l30.566-32.022a.974.974,0,0,1,1.409,1.345l-30.566,32.02A.971.971,0,0,1,311.334,191.987Z" transform="translate(-310.36 -158.02)" fill="#c80880"/>
          </g>
        </g>
        <g id="Group_13634" data-name="Group 13634" transform="translate(81.48 27.797)">
          <g id="Group_13630" data-name="Group 13630">
            <path id="Path_41071" data-name="Path 41071" d="M312.339,193.183a.974.974,0,0,1-.576-1.76l43.909-32.144a.974.974,0,1,1,1.151,1.572L312.913,193A.985.985,0,0,1,312.339,193.183Z" transform="translate(-311.363 -159.092)" fill="#c80880"/>
          </g>
          <g id="Group_13631" data-name="Group 13631" transform="translate(1.572 19.649)">
            <path id="Path_41072" data-name="Path 41072" d="M313.2,187.029a.974.974,0,0,1-.405-1.86l33.176-15.181a.973.973,0,0,1,.809,1.771L313.608,186.94A.97.97,0,0,1,313.2,187.029Z" transform="translate(-312.228 -169.9)" fill="#c80880"/>
          </g>
          <g id="Group_13632" data-name="Group 13632" transform="translate(2.561 26.506)">
            <path id="Path_41073" data-name="Path 41073" d="M313.746,186.859a.974.974,0,0,1-.218-1.923L362.616,173.7a.973.973,0,0,1,.434,1.9l-49.086,11.24A1.014,1.014,0,0,1,313.746,186.859Z" transform="translate(-312.772 -173.672)" fill="#c80880"/>
          </g>
          <g id="Group_13633" data-name="Group 13633" transform="translate(2.944 39.833)">
            <path id="Path_41074" data-name="Path 41074" d="M313.957,183.971a.974.974,0,0,1-.024-1.947L358.19,181a.974.974,0,1,1,.044,1.947l-44.254,1.018Z" transform="translate(-312.983 -181.004)" fill="#c80880"/>
          </g>
        </g>
      </g>
      <g id="Group_13637" data-name="Group 13637" transform="translate(333.073 140.413)">
        <g id="Group_13636" data-name="Group 13636">
          <circle id="Ellipse_495" data-name="Ellipse 495" cx="1.367" cy="1.367" r="1.367" fill="#c80880"/>
        </g>
      </g>
      <g id="Group_13638" data-name="Group 13638" transform="translate(350.416 139.289)">
        <path id="Path_41075" data-name="Path 41075" d="M312.137,136.648l.809,1.64,1.81.263-1.31,1.277.309,1.8-1.619-.851-1.619.851.309-1.8-1.31-1.277,1.81-.263Z" transform="translate(-309.517 -136.648)" fill="#c80880"/>
      </g>
      <g id="Group_13639" data-name="Group 13639" transform="translate(360.515 154.39)">
        <path id="Path_41076" data-name="Path 41076" d="M319.259,144.956l1.294,2.621,2.893.42-2.093,2.041.494,2.881-2.588-1.36-2.587,1.36.494-2.881L315.072,148l2.893-.42Z" transform="translate(-315.072 -144.956)" fill="#c80880"/>
      </g>
      <g id="Group_13640" data-name="Group 13640" transform="translate(382.298 154.879)">
        <path id="Path_41077" data-name="Path 41077" d="M329.675,145.224l.809,1.64,1.81.263-1.31,1.277.309,1.8-1.619-.851-1.619.851.309-1.8-1.31-1.277,1.81-.263Z" transform="translate(-327.055 -145.224)" fill="#c80880"/>
      </g>
      <g id="Group_13641" data-name="Group 13641" transform="translate(390.988 169.037)">
        <path id="Path_41078" data-name="Path 41078" d="M334.455,153.013l.81,1.64,1.81.263-1.31,1.277.309,1.8-1.619-.851-1.619.851.309-1.8-1.31-1.277,1.81-.263Z" transform="translate(-331.835 -153.013)" fill="#c80880"/>
      </g>
      <g id="Group_13642" data-name="Group 13642" transform="translate(409.361 165.315)">
        <path id="Path_41079" data-name="Path 41079" d="M347.182,150.965l1.619,3.281,3.62.526-2.62,2.554.618,3.606-3.238-1.7-3.238,1.7.618-3.606-2.62-2.554,3.621-.526Z" transform="translate(-341.942 -150.965)" fill="#c80880"/>
      </g>
      <g id="Group_13643" data-name="Group 13643" transform="translate(399.4 193.433)">
        <path id="Path_41080" data-name="Path 41080" d="M339.082,166.433l.81,1.64,1.81.263-1.31,1.277.309,1.8-1.619-.851-1.619.851.309-1.8-1.31-1.277,1.81-.263Z" transform="translate(-336.463 -166.433)" fill="#c80880"/>
      </g>
      <g id="Group_13644" data-name="Group 13644" transform="translate(414.174 203.919)">
        <path id="Path_41081" data-name="Path 41081" d="M347.209,172.2l.81,1.64,1.81.263-1.31,1.277.309,1.8-1.619-.851-1.619.851.309-1.8-1.31-1.277,1.81-.263Z" transform="translate(-344.589 -172.201)" fill="#c80880"/>
      </g>
      <g id="Group_13645" data-name="Group 13645" transform="translate(408.934 217.252)">
        <path id="Path_41082" data-name="Path 41082" d="M344.327,179.535l.81,1.64,1.81.263-1.31,1.277.309,1.8-1.619-.851-1.619.851.309-1.8-1.31-1.277,1.81-.263Z" transform="translate(-341.707 -179.535)" fill="#c80880"/>
      </g>
      <g id="Group_13646" data-name="Group 13646" transform="translate(417.887 231.516)">
        <path id="Path_41083" data-name="Path 41083" d="M349.252,187.382l.809,1.64,1.81.263-1.31,1.277.309,1.8-1.619-.851-1.619.851.309-1.8-1.31-1.277,1.81-.263Z" transform="translate(-346.632 -187.382)" fill="#c80880"/>
      </g>
      <g id="Group_13647" data-name="Group 13647" transform="translate(396.78 239.226)">
        <path id="Path_41084" data-name="Path 41084" d="M337.641,191.623l.809,1.64,1.81.263-1.31,1.277.309,1.8-1.619-.851-1.619.851.309-1.8-1.31-1.277,1.81-.263Z" transform="translate(-335.022 -191.623)" fill="#c80880"/>
      </g>
      <g id="Group_13648" data-name="Group 13648" transform="translate(402.118 256.096)">
        <path id="Path_41085" data-name="Path 41085" d="M343.208,200.9l1.622,3.287,3.628.527-2.625,2.559.62,3.613-3.244-1.706-3.245,1.706.62-3.613-2.625-2.559,3.628-.527Z" transform="translate(-337.958 -200.903)" fill="#c80880"/>
      </g>
      <g id="Group_13649" data-name="Group 13649" transform="translate(388.368 266.082)">
        <path id="Path_41086" data-name="Path 41086" d="M333.014,206.4l.81,1.64,1.81.263-1.31,1.277.309,1.8-1.619-.851-1.619.851.309-1.8-1.31-1.277,1.81-.263Z" transform="translate(-330.394 -206.396)" fill="#c80880"/>
      </g>
      <g id="Group_13650" data-name="Group 13650" transform="translate(383.641 280.692)">
        <path id="Path_41087" data-name="Path 41087" d="M332.52,214.433l1.461,2.959,3.266.475-2.363,2.3.558,3.253-2.921-1.536-2.921,1.536.558-3.253-2.363-2.3,3.266-.475Z" transform="translate(-327.794 -214.433)" fill="#c80880"/>
      </g>
      <g id="Group_13651" data-name="Group 13651" transform="translate(365.088 274.51)">
        <path id="Path_41088" data-name="Path 41088" d="M320.208,211.033l.81,1.64,1.81.263-1.31,1.277.309,1.8-1.619-.851-1.619.851.309-1.8-1.31-1.277,1.81-.263Z" transform="translate(-317.588 -211.033)" fill="#c80880"/>
      </g>
      <g id="Group_13652" data-name="Group 13652" transform="translate(356.351 290.415)">
        <path id="Path_41089" data-name="Path 41089" d="M317.533,219.782,319,222.757l3.283.477-2.375,2.315.561,3.269-2.936-1.544-2.936,1.544.561-3.269-2.375-2.315,3.283-.477Z" transform="translate(-312.782 -219.782)" fill="#c80880"/>
      </g>
      <g id="Group_13653" data-name="Group 13653" transform="translate(342.286 286.562)">
        <path id="Path_41090" data-name="Path 41090" d="M307.664,217.662l.81,1.64,1.81.263-1.31,1.277.309,1.8-1.619-.851-1.619.851.309-1.8-1.31-1.277,1.81-.263Z" transform="translate(-305.044 -217.662)" fill="#c80880"/>
      </g>
      <g id="Group_13654" data-name="Group 13654" transform="translate(327.775 294.974)">
        <path id="Path_41091" data-name="Path 41091" d="M299.682,222.29l.809,1.64,1.81.263-1.31,1.277.309,1.8-1.619-.851-1.619.851.309-1.8-1.31-1.277,1.81-.263Z" transform="translate(-297.062 -222.29)" fill="#c80880"/>
      </g>
      <g id="Group_13655" data-name="Group 13655" transform="translate(318.311 274.51)">
        <path id="Path_41092" data-name="Path 41092" d="M294.476,211.033l.81,1.64,1.81.263-1.31,1.277.309,1.8-1.619-.851-1.619.851.309-1.8-1.31-1.277,1.81-.263Z" transform="translate(-291.856 -211.033)" fill="#c80880"/>
      </g>
      <g id="Group_13656" data-name="Group 13656" transform="translate(299.654 282.696)">
        <path id="Path_41093" data-name="Path 41093" d="M284.213,215.536l.809,1.64,1.81.263-1.31,1.277.309,1.8-1.619-.851-1.619.851.309-1.8-1.31-1.277,1.81-.263Z" transform="translate(-281.593 -215.536)" fill="#c80880"/>
      </g>
      <g id="Group_13657" data-name="Group 13657" transform="translate(294.414 268.337)">
        <path id="Path_41094" data-name="Path 41094" d="M281.331,207.637l.809,1.64,1.81.263-1.31,1.277.309,1.8-1.619-.851-1.619.851.309-1.8-1.31-1.277,1.81-.263Z" transform="translate(-278.711 -207.637)" fill="#c80880"/>
      </g>
      <g id="Group_13658" data-name="Group 13658" transform="translate(274.982 263.735)">
        <path id="Path_41095" data-name="Path 41095" d="M272.155,205.105l1.277,2.589,2.857.415-2.067,2.015.488,2.845-2.555-1.343-2.555,1.343.488-2.845-2.067-2.015,2.857-.415Z" transform="translate(-268.021 -205.105)" fill="#c80880"/>
      </g>
      <g id="Group_13659" data-name="Group 13659" transform="translate(284.941 242.567)">
        <path id="Path_41096" data-name="Path 41096" d="M276.986,193.461l1.077,2.183,2.409.35-1.743,1.7.411,2.4-2.154-1.133-2.155,1.133.411-2.4-1.743-1.7,2.409-.35Z" transform="translate(-273.5 -193.461)" fill="#c80880"/>
      </g>
      <g id="Group_13660" data-name="Group 13660" transform="translate(268.005 235.274)">
        <path id="Path_41097" data-name="Path 41097" d="M266.8,189.449l.81,1.64,1.81.263-1.31,1.277.309,1.8-1.619-.851-1.619.851.309-1.8-1.31-1.277,1.81-.263Z" transform="translate(-264.183 -189.449)" fill="#c80880"/>
      </g>
      <g id="Group_13661" data-name="Group 13661" transform="translate(273.244 220.954)">
        <path id="Path_41098" data-name="Path 41098" d="M269.685,181.572l.81,1.64,1.81.263L271,184.752l.309,1.8-1.619-.851-1.619.851.309-1.8-1.31-1.277,1.81-.263Z" transform="translate(-267.065 -181.572)" fill="#c80880"/>
      </g>
      <g id="Group_13662" data-name="Group 13662" transform="translate(259.511 206.539)">
        <path id="Path_41099" data-name="Path 41099" d="M263.988,173.642l1.384,2.8,3.094.45-2.239,2.182.528,3.081-2.767-1.455-2.767,1.455.528-3.081-2.239-2.182,3.094-.45Z" transform="translate(-259.511 -173.642)" fill="#c80880"/>
      </g>
      <g id="Group_13663" data-name="Group 13663" transform="translate(285.022 198.985)">
        <path id="Path_41100" data-name="Path 41100" d="M276.164,169.487l.81,1.64,1.81.263-1.31,1.277.309,1.8-1.619-.851-1.619.851.309-1.8-1.31-1.277,1.81-.263Z" transform="translate(-273.544 -169.487)" fill="#c80880"/>
      </g>
      <g id="Group_13664" data-name="Group 13664" transform="translate(277.583 179.691)">
        <path id="Path_41101" data-name="Path 41101" d="M272.072,158.874l.81,1.64,1.81.263-1.31,1.277.309,1.8-1.619-.851-1.619.851.309-1.8-1.31-1.277,1.81-.263Z" transform="translate(-269.452 -158.874)" fill="#c80880"/>
      </g>
      <g id="Group_13665" data-name="Group 13665" transform="translate(291.043 169.594)">
        <path id="Path_41102" data-name="Path 41102" d="M280.786,153.319l1.215,2.46,2.715.395-1.965,1.916.464,2.7-2.429-1.277-2.429,1.277.464-2.7-1.965-1.916,2.715-.395Z" transform="translate(-276.856 -153.319)" fill="#c80880"/>
      </g>
      <g id="Group_13666" data-name="Group 13666" transform="translate(296.282 154.879)">
        <path id="Path_41103" data-name="Path 41103" d="M282.358,145.224l.809,1.64,1.81.263-1.31,1.277.309,1.8-1.619-.851-1.619.851.309-1.8-1.31-1.277,1.81-.263Z" transform="translate(-279.738 -145.224)" fill="#c80880"/>
      </g>
      <g id="Group_13667" data-name="Group 13667" transform="translate(314.483 162.354)">
        <path id="Path_41104" data-name="Path 41104" d="M292.37,149.336l.81,1.64,1.81.263-1.31,1.277.309,1.8-1.619-.851-1.619.851.309-1.8-1.31-1.277,1.81-.263Z" transform="translate(-289.75 -149.336)" fill="#c80880"/>
      </g>
      <g id="Group_13668" data-name="Group 13668" transform="translate(316.786 140.413)">
        <path id="Path_41105" data-name="Path 41105" d="M296.252,137.267l1.618,3.278,3.617.526-2.617,2.551.618,3.6-3.235-1.7-3.235,1.7.618-3.6-2.617-2.551,3.617-.526Z" transform="translate(-291.017 -137.267)" fill="#c80880"/>
      </g>
      <g id="Group_13669" data-name="Group 13669" transform="translate(336.973 149.407)">
        <path id="Path_41106" data-name="Path 41106" d="M304.742,142.214l.81,1.64,1.81.263-1.31,1.277.309,1.8-1.619-.851-1.619.851.309-1.8-1.31-1.277,1.81-.263Z" transform="translate(-302.122 -142.214)" fill="#c80880"/>
      </g>
      <g id="Group_13862" data-name="Group 13862" transform="translate(261.255 133.42)">
        <g id="Group_13672" data-name="Group 13672" transform="translate(69.047 16.634)">
          <g id="Group_13671" data-name="Group 13671">
            <g id="Group_13670" data-name="Group 13670">
              <path id="Path_41107" data-name="Path 41107" d="M301.186,143.937a1.367,1.367,0,1,1-1.367-1.367A1.368,1.368,0,0,1,301.186,143.937Z" transform="translate(-298.452 -142.57)" fill="#c80880"/>
            </g>
          </g>
        </g>
        <g id="Group_13675" data-name="Group 13675" transform="translate(54.611 20.036)">
          <g id="Group_13674" data-name="Group 13674">
            <g id="Group_13673" data-name="Group 13673">
              <circle id="Ellipse_496" data-name="Ellipse 496" cx="1.367" cy="1.367" r="1.367" fill="#c80880"/>
            </g>
          </g>
        </g>
        <g id="Group_13678" data-name="Group 13678" transform="translate(44.438 14.216)">
          <g id="Group_13677" data-name="Group 13677">
            <g id="Group_13676" data-name="Group 13676">
              <circle id="Ellipse_497" data-name="Ellipse 497" cx="1.367" cy="1.367" r="1.367" fill="#c80880"/>
            </g>
          </g>
        </g>
        <g id="Group_13681" data-name="Group 13681" transform="translate(45.253 27.022)">
          <g id="Group_13680" data-name="Group 13680">
            <g id="Group_13679" data-name="Group 13679">
              <circle id="Ellipse_498" data-name="Ellipse 498" cx="1.367" cy="1.367" r="1.367" fill="#c80880"/>
            </g>
          </g>
        </g>
        <g id="Group_13684" data-name="Group 13684" transform="translate(27.493 29.733)">
          <g id="Group_13683" data-name="Group 13683">
            <g id="Group_13682" data-name="Group 13682">
              <circle id="Ellipse_499" data-name="Ellipse 499" cx="1.367" cy="1.367" r="1.367" fill="#c80880"/>
            </g>
          </g>
        </g>
        <g id="Group_13687" data-name="Group 13687" transform="translate(24.627 44.523)">
          <g id="Group_13686" data-name="Group 13686">
            <g id="Group_13685" data-name="Group 13685">
              <path id="Path_41108" data-name="Path 41108" d="M276.751,159.279a1.367,1.367,0,1,1-1.367-1.367A1.368,1.368,0,0,1,276.751,159.279Z" transform="translate(-274.017 -157.912)" fill="#c80880"/>
            </g>
          </g>
        </g>
        <g id="Group_13690" data-name="Group 13690" transform="translate(16.485 33.011)">
          <g id="Group_13689" data-name="Group 13689">
            <g id="Group_13688" data-name="Group 13688">
              <path id="Path_41109" data-name="Path 41109" d="M274.621,154.12a2.541,2.541,0,1,1-2.541-2.541A2.542,2.542,0,0,1,274.621,154.12Z" transform="translate(-269.538 -151.579)" fill="#c80880"/>
            </g>
          </g>
        </g>
        <g id="Group_13693" data-name="Group 13693" transform="translate(19.8 57.329)">
          <g id="Group_13692" data-name="Group 13692">
            <g id="Group_13691" data-name="Group 13691">
              <path id="Path_41110" data-name="Path 41110" d="M274.1,166.323a1.367,1.367,0,1,1-1.367-1.367A1.368,1.368,0,0,1,274.1,166.323Z" transform="translate(-271.362 -164.956)" fill="#c80880"/>
            </g>
          </g>
        </g>
        <g id="Group_13696" data-name="Group 13696" transform="translate(5.966 55.229)">
          <g id="Group_13695" data-name="Group 13695">
            <g id="Group_13694" data-name="Group 13694">
              <circle id="Ellipse_500" data-name="Ellipse 500" cx="1.367" cy="1.367" r="1.367" fill="#c80880"/>
            </g>
          </g>
        </g>
        <g id="Group_13699" data-name="Group 13699" transform="translate(15.821 70.127)">
          <g id="Group_13698" data-name="Group 13698">
            <g id="Group_13697" data-name="Group 13697">
              <circle id="Ellipse_501" data-name="Ellipse 501" cx="1.367" cy="1.367" r="1.367" fill="#c80880"/>
            </g>
          </g>
        </g>
        <g id="Group_13702" data-name="Group 13702" transform="translate(9.498 63.852)">
          <g id="Group_13701" data-name="Group 13701">
            <g id="Group_13700" data-name="Group 13700">
              <circle id="Ellipse_502" data-name="Ellipse 502" cx="1.367" cy="1.367" r="1.367" fill="#c80880"/>
            </g>
          </g>
        </g>
        <g id="Group_13705" data-name="Group 13705" transform="translate(0.825 67.354)">
          <g id="Group_13704" data-name="Group 13704">
            <g id="Group_13703" data-name="Group 13703">
              <circle id="Ellipse_503" data-name="Ellipse 503" cx="1.367" cy="1.367" r="1.367" fill="#c80880"/>
            </g>
          </g>
        </g>
        <g id="Group_13708" data-name="Group 13708" transform="translate(9.43 83.379)">
          <g id="Group_13707" data-name="Group 13707">
            <g id="Group_13706" data-name="Group 13706">
              <circle id="Ellipse_504" data-name="Ellipse 504" cx="1.367" cy="1.367" r="1.367" fill="#c80880"/>
            </g>
          </g>
        </g>
        <g id="Group_13711" data-name="Group 13711" transform="translate(0 89.272)">
          <g id="Group_13710" data-name="Group 13710">
            <g id="Group_13709" data-name="Group 13709">
              <path id="Path_41111" data-name="Path 41111" d="M263.2,183.9a1.367,1.367,0,1,1-1.367-1.367A1.368,1.368,0,0,1,263.2,183.9Z" transform="translate(-260.47 -182.528)" fill="#c80880"/>
            </g>
          </g>
        </g>
        <g id="Group_13714" data-name="Group 13714" transform="translate(13.331 97.289)">
          <g id="Group_13713" data-name="Group 13713">
            <g id="Group_13712" data-name="Group 13712">
              <circle id="Ellipse_505" data-name="Ellipse 505" cx="1.367" cy="1.367" r="1.367" fill="#c80880"/>
            </g>
          </g>
        </g>
        <g id="Group_13717" data-name="Group 13717" transform="translate(3.107 96.28)">
          <g id="Group_13716" data-name="Group 13716">
            <g id="Group_13715" data-name="Group 13715">
              <path id="Path_41112" data-name="Path 41112" d="M264.913,187.75a1.367,1.367,0,1,1-1.367-1.367A1.368,1.368,0,0,1,264.913,187.75Z" transform="translate(-262.179 -186.383)" fill="#c80880"/>
            </g>
          </g>
        </g>
        <g id="Group_13720" data-name="Group 13720" transform="translate(16.924 108.217)">
          <g id="Group_13719" data-name="Group 13719">
            <g id="Group_13718" data-name="Group 13718">
              <path id="Path_41113" data-name="Path 41113" d="M272.514,194.316a1.367,1.367,0,1,1-1.367-1.367A1.368,1.368,0,0,1,272.514,194.316Z" transform="translate(-269.78 -192.949)" fill="#c80880"/>
            </g>
          </g>
        </g>
        <g id="Group_13723" data-name="Group 13723" transform="translate(4.257 117.131)">
          <g id="Group_13722" data-name="Group 13722">
            <g id="Group_13721" data-name="Group 13721">
              <circle id="Ellipse_506" data-name="Ellipse 506" cx="1.367" cy="1.367" r="1.367" fill="#c80880"/>
            </g>
          </g>
        </g>
        <g id="Group_13726" data-name="Group 13726" transform="translate(16.881 117.373)">
          <g id="Group_13725" data-name="Group 13725">
            <g id="Group_13724" data-name="Group 13724">
              <circle id="Ellipse_507" data-name="Ellipse 507" cx="1.367" cy="1.367" r="1.367" fill="#c80880"/>
            </g>
          </g>
        </g>
        <g id="Group_13729" data-name="Group 13729" transform="translate(25.138 120.282)">
          <g id="Group_13728" data-name="Group 13728">
            <g id="Group_13727" data-name="Group 13727">
              <path id="Path_41114" data-name="Path 41114" d="M277.032,200.953a1.367,1.367,0,1,1-1.367-1.367A1.368,1.368,0,0,1,277.032,200.953Z" transform="translate(-274.298 -199.586)" fill="#c80880"/>
            </g>
          </g>
        </g>
        <g id="Group_13732" data-name="Group 13732" transform="translate(8.15 127.244)">
          <g id="Group_13731" data-name="Group 13731">
            <g id="Group_13730" data-name="Group 13730">
              <path id="Path_41115" data-name="Path 41115" d="M267.687,204.783a1.367,1.367,0,1,1-1.367-1.367A1.368,1.368,0,0,1,267.687,204.783Z" transform="translate(-264.953 -203.416)" fill="#c80880"/>
            </g>
          </g>
        </g>
        <g id="Group_13735" data-name="Group 13735" transform="translate(22.971 142.356)">
          <g id="Group_13734" data-name="Group 13734">
            <g id="Group_13733" data-name="Group 13733">
              <path id="Path_41116" data-name="Path 41116" d="M275.84,213.094a1.367,1.367,0,1,1-1.367-1.365A1.365,1.365,0,0,1,275.84,213.094Z" transform="translate(-273.106 -211.729)" fill="#c80880"/>
            </g>
          </g>
        </g>
        <g id="Group_13738" data-name="Group 13738" transform="translate(27.677 132.88)">
          <g id="Group_13737" data-name="Group 13737">
            <g id="Group_13736" data-name="Group 13736">
              <path id="Path_41117" data-name="Path 41117" d="M278.429,207.883a1.367,1.367,0,1,1-1.367-1.367A1.368,1.368,0,0,1,278.429,207.883Z" transform="translate(-275.695 -206.516)" fill="#c80880"/>
            </g>
          </g>
        </g>
        <g id="Group_13741" data-name="Group 13741" transform="translate(41.015 137.475)">
          <g id="Group_13740" data-name="Group 13740">
            <g id="Group_13739" data-name="Group 13739">
              <path id="Path_41118" data-name="Path 41118" d="M285.766,210.411a1.367,1.367,0,1,1-1.367-1.367A1.367,1.367,0,0,1,285.766,210.411Z" transform="translate(-283.032 -209.044)" fill="#c80880"/>
            </g>
          </g>
        </g>
        <g id="Group_13744" data-name="Group 13744" transform="translate(29.044 148.444)">
          <g id="Group_13743" data-name="Group 13743">
            <g id="Group_13742" data-name="Group 13742">
              <circle id="Ellipse_508" data-name="Ellipse 508" cx="1.367" cy="1.367" r="1.367" fill="#c80880"/>
            </g>
          </g>
        </g>
        <g id="Group_13747" data-name="Group 13747" transform="translate(51.141 145.089)">
          <g id="Group_13746" data-name="Group 13746">
            <g id="Group_13745" data-name="Group 13745">
              <circle id="Ellipse_509" data-name="Ellipse 509" cx="1.367" cy="1.367" r="1.367" fill="#c80880"/>
            </g>
          </g>
        </g>
        <g id="Group_13750" data-name="Group 13750" transform="translate(47.526 153.918)">
          <g id="Group_13749" data-name="Group 13749">
            <g id="Group_13748" data-name="Group 13748">
              <circle id="Ellipse_510" data-name="Ellipse 510" cx="1.367" cy="1.367" r="1.367" fill="#c80880"/>
            </g>
          </g>
        </g>
        <g id="Group_13753" data-name="Group 13753" transform="translate(64.168 148.481)">
          <g id="Group_13752" data-name="Group 13752">
            <g id="Group_13751" data-name="Group 13751">
              <circle id="Ellipse_511" data-name="Ellipse 511" cx="1.367" cy="1.367" r="1.367" fill="#c80880"/>
            </g>
          </g>
        </g>
        <g id="Group_13756" data-name="Group 13756" transform="translate(58.177 161.565)">
          <g id="Group_13755" data-name="Group 13755">
            <g id="Group_13754" data-name="Group 13754">
              <circle id="Ellipse_512" data-name="Ellipse 512" cx="1.367" cy="1.367" r="1.367" fill="#c80880"/>
            </g>
          </g>
        </g>
        <g id="Group_13759" data-name="Group 13759" transform="translate(55.689 151.949)">
          <g id="Group_13758" data-name="Group 13758">
            <g id="Group_13757" data-name="Group 13757">
              <circle id="Ellipse_513" data-name="Ellipse 513" cx="2.435" cy="2.435" r="2.435" fill="#c80880"/>
            </g>
          </g>
        </g>
        <g id="Group_13762" data-name="Group 13762" transform="translate(83.648 167.368)">
          <g id="Group_13761" data-name="Group 13761">
            <g id="Group_13760" data-name="Group 13760">
              <path id="Path_41119" data-name="Path 41119" d="M309.218,226.855a1.367,1.367,0,1,1-1.367-1.367A1.367,1.367,0,0,1,309.218,226.855Z" transform="translate(-306.484 -225.488)" fill="#c80880"/>
            </g>
          </g>
        </g>
        <g id="Group_13765" data-name="Group 13765" transform="translate(75.932 159.297)">
          <g id="Group_13764" data-name="Group 13764">
            <g id="Group_13763" data-name="Group 13763">
              <circle id="Ellipse_514" data-name="Ellipse 514" cx="1.367" cy="1.367" r="1.367" fill="#c80880"/>
            </g>
          </g>
        </g>
        <g id="Group_13768" data-name="Group 13768" transform="translate(89.7 158.78)">
          <g id="Group_13767" data-name="Group 13767">
            <g id="Group_13766" data-name="Group 13766">
              <circle id="Ellipse_515" data-name="Ellipse 515" cx="1.367" cy="1.367" r="1.367" fill="#c80880"/>
            </g>
          </g>
        </g>
        <g id="Group_13771" data-name="Group 13771" transform="translate(101.25 150.437)">
          <g id="Group_13770" data-name="Group 13770">
            <g id="Group_13769" data-name="Group 13769">
              <circle id="Ellipse_516" data-name="Ellipse 516" cx="1.367" cy="1.367" r="1.367" fill="#c80880"/>
            </g>
          </g>
        </g>
        <g id="Group_13774" data-name="Group 13774" transform="translate(109.073 154.267)">
          <g id="Group_13773" data-name="Group 13773">
            <g id="Group_13772" data-name="Group 13772">
              <path id="Path_41120" data-name="Path 41120" d="M323.2,219.648a1.367,1.367,0,1,1-1.367-1.367A1.368,1.368,0,0,1,323.2,219.648Z" transform="translate(-320.47 -218.281)" fill="#c80880"/>
            </g>
          </g>
        </g>
        <g id="Group_13777" data-name="Group 13777" transform="translate(114.45 144.655)">
          <g id="Group_13776" data-name="Group 13776">
            <g id="Group_13775" data-name="Group 13775">
              <circle id="Ellipse_517" data-name="Ellipse 517" cx="1.367" cy="1.367" r="1.367" fill="#c80880"/>
            </g>
          </g>
        </g>
        <g id="Group_13780" data-name="Group 13780" transform="translate(133.351 145.905)">
          <g id="Group_13779" data-name="Group 13779">
            <g id="Group_13778" data-name="Group 13778">
              <path id="Path_41121" data-name="Path 41121" d="M336.559,215.048a1.367,1.367,0,1,1-1.367-1.367A1.365,1.365,0,0,1,336.559,215.048Z" transform="translate(-333.825 -213.681)" fill="#c80880"/>
            </g>
          </g>
        </g>
        <g id="Group_13783" data-name="Group 13783" transform="translate(124.954 140.114)">
          <g id="Group_13782" data-name="Group 13782">
            <g id="Group_13781" data-name="Group 13781">
              <circle id="Ellipse_518" data-name="Ellipse 518" cx="1.367" cy="1.367" r="1.367" fill="#c80880"/>
            </g>
          </g>
        </g>
        <g id="Group_13786" data-name="Group 13786" transform="translate(133.176 127.619)">
          <g id="Group_13785" data-name="Group 13785">
            <g id="Group_13784" data-name="Group 13784">
              <path id="Path_41122" data-name="Path 41122" d="M336.463,204.989a1.367,1.367,0,1,1-1.367-1.367A1.368,1.368,0,0,1,336.463,204.989Z" transform="translate(-333.729 -203.622)" fill="#c80880"/>
            </g>
          </g>
        </g>
        <g id="Group_13789" data-name="Group 13789" transform="translate(139.411 136.83)">
          <g id="Group_13788" data-name="Group 13788">
            <g id="Group_13787" data-name="Group 13787">
              <path id="Path_41123" data-name="Path 41123" d="M339.893,210.054a1.367,1.367,0,1,1-1.367-1.365A1.365,1.365,0,0,1,339.893,210.054Z" transform="translate(-337.159 -208.689)" fill="#c80880"/>
            </g>
          </g>
        </g>
        <g id="Group_13792" data-name="Group 13792" transform="translate(152.28 119.942)">
          <g id="Group_13791" data-name="Group 13791">
            <g id="Group_13790" data-name="Group 13790">
              <path id="Path_41124" data-name="Path 41124" d="M346.972,200.766a1.367,1.367,0,1,1-1.367-1.367A1.367,1.367,0,0,1,346.972,200.766Z" transform="translate(-344.238 -199.399)" fill="#c80880"/>
            </g>
          </g>
        </g>
        <g id="Group_13795" data-name="Group 13795" transform="translate(160.726 110.523)">
          <g id="Group_13794" data-name="Group 13794">
            <g id="Group_13793" data-name="Group 13793">
              <path id="Path_41125" data-name="Path 41125" d="M351.618,195.585a1.367,1.367,0,1,1-1.367-1.367A1.367,1.367,0,0,1,351.618,195.585Z" transform="translate(-348.884 -194.218)" fill="#c80880"/>
            </g>
          </g>
        </g>
        <g id="Group_13798" data-name="Group 13798" transform="translate(145.708 105.651)">
          <g id="Group_13797" data-name="Group 13797">
            <g id="Group_13796" data-name="Group 13796">
              <path id="Path_41126" data-name="Path 41126" d="M343.357,192.905a1.367,1.367,0,1,1-1.367-1.367A1.367,1.367,0,0,1,343.357,192.905Z" transform="translate(-340.623 -191.538)" fill="#c80880"/>
            </g>
          </g>
        </g>
        <g id="Group_13801" data-name="Group 13801" transform="translate(142.22 115.079)">
          <g id="Group_13800" data-name="Group 13800">
            <g id="Group_13799" data-name="Group 13799">
              <path id="Path_41127" data-name="Path 41127" d="M341.438,198.091a1.367,1.367,0,1,1-1.367-1.367A1.367,1.367,0,0,1,341.438,198.091Z" transform="translate(-338.704 -196.724)" fill="#c80880"/>
            </g>
          </g>
        </g>
        <g id="Group_13804" data-name="Group 13804" transform="translate(151.658 92.587)">
          <g id="Group_13803" data-name="Group 13803">
            <g id="Group_13802" data-name="Group 13802">
              <circle id="Ellipse_519" data-name="Ellipse 519" cx="1.367" cy="1.367" r="1.367" fill="#c80880"/>
            </g>
          </g>
        </g>
        <g id="Group_13807" data-name="Group 13807" transform="translate(163.78 90.254)">
          <g id="Group_13806" data-name="Group 13806">
            <g id="Group_13805" data-name="Group 13805">
              <path id="Path_41128" data-name="Path 41128" d="M353.3,184.435a1.367,1.367,0,1,1-1.367-1.367A1.368,1.368,0,0,1,353.3,184.435Z" transform="translate(-350.564 -183.068)" fill="#c80880"/>
            </g>
          </g>
        </g>
        <g id="Group_13810" data-name="Group 13810" transform="translate(160.242 77.009)">
          <g id="Group_13809" data-name="Group 13809">
            <g id="Group_13808" data-name="Group 13808">
              <path id="Path_41129" data-name="Path 41129" d="M353.623,178.283a2.5,2.5,0,1,1-2.5-2.5A2.5,2.5,0,0,1,353.623,178.283Z" transform="translate(-348.618 -175.782)" fill="#c80880"/>
            </g>
          </g>
        </g>
        <g id="Group_13813" data-name="Group 13813" transform="translate(160.484 59.457)">
          <g id="Group_13812" data-name="Group 13812">
            <g id="Group_13811" data-name="Group 13811">
              <path id="Path_41130" data-name="Path 41130" d="M351.485,167.494a1.367,1.367,0,1,1-1.367-1.367A1.367,1.367,0,0,1,351.485,167.494Z" transform="translate(-348.751 -166.127)" fill="#c80880"/>
            </g>
          </g>
        </g>
        <g id="Group_13816" data-name="Group 13816" transform="translate(147.085 56.863)">
          <g id="Group_13815" data-name="Group 13815">
            <g id="Group_13814" data-name="Group 13814">
              <path id="Path_41131" data-name="Path 41131" d="M344.114,166.067a1.367,1.367,0,1,1-1.367-1.367A1.368,1.368,0,0,1,344.114,166.067Z" transform="translate(-341.38 -164.7)" fill="#c80880"/>
            </g>
          </g>
        </g>
        <g id="Group_13819" data-name="Group 13819" transform="translate(153.346 46.933)">
          <g id="Group_13818" data-name="Group 13818">
            <g id="Group_13817" data-name="Group 13817">
              <circle id="Ellipse_520" data-name="Ellipse 520" cx="1.367" cy="1.367" r="1.367" fill="#c80880"/>
            </g>
          </g>
        </g>
        <g id="Group_13822" data-name="Group 13822" transform="translate(142 34.144)">
          <g id="Group_13821" data-name="Group 13821">
            <g id="Group_13820" data-name="Group 13820">
              <circle id="Ellipse_521" data-name="Ellipse 521" cx="1.367" cy="1.367" r="1.367" fill="#c80880"/>
            </g>
          </g>
        </g>
        <g id="Group_13825" data-name="Group 13825" transform="translate(142.1 23.001)">
          <g id="Group_13824" data-name="Group 13824">
            <g id="Group_13823" data-name="Group 13823">
              <circle id="Ellipse_522" data-name="Ellipse 522" cx="1.367" cy="1.367" r="1.367" fill="#c80880"/>
            </g>
          </g>
        </g>
        <g id="Group_13828" data-name="Group 13828" transform="translate(129.986 26.367)">
          <g id="Group_13827" data-name="Group 13827">
            <g id="Group_13826" data-name="Group 13826">
              <circle id="Ellipse_523" data-name="Ellipse 523" cx="1.367" cy="1.367" r="1.367" fill="#c80880"/>
            </g>
          </g>
        </g>
        <g id="Group_13831" data-name="Group 13831" transform="translate(130.442 17.517)">
          <g id="Group_13830" data-name="Group 13830">
            <g id="Group_13829" data-name="Group 13829">
              <circle id="Ellipse_524" data-name="Ellipse 524" cx="1.367" cy="1.367" r="1.367" fill="#c80880"/>
            </g>
          </g>
        </g>
        <g id="Group_13834" data-name="Group 13834" transform="translate(111.342 21.747)">
          <g id="Group_13833" data-name="Group 13833">
            <g id="Group_13832" data-name="Group 13832">
              <circle id="Ellipse_525" data-name="Ellipse 525" cx="1.367" cy="1.367" r="1.367" fill="#c80880"/>
            </g>
          </g>
        </g>
        <g id="Group_13837" data-name="Group 13837" transform="translate(98.847 14.13)">
          <g id="Group_13836" data-name="Group 13836">
            <g id="Group_13835" data-name="Group 13835">
              <path id="Path_41132" data-name="Path 41132" d="M317.579,142.56a1.367,1.367,0,1,1-1.367-1.367A1.367,1.367,0,0,1,317.579,142.56Z" transform="translate(-314.845 -141.193)" fill="#c80880"/>
            </g>
          </g>
        </g>
        <g id="Group_13840" data-name="Group 13840" transform="translate(102.856 3.858)">
          <g id="Group_13839" data-name="Group 13839">
            <g id="Group_13838" data-name="Group 13838">
              <path id="Path_41133" data-name="Path 41133" d="M319.784,136.909a1.367,1.367,0,1,1-1.367-1.367A1.368,1.368,0,0,1,319.784,136.909Z" transform="translate(-317.05 -135.542)" fill="#c80880"/>
            </g>
          </g>
        </g>
        <g id="Group_13843" data-name="Group 13843" transform="translate(112.708 9.104)">
          <g id="Group_13842" data-name="Group 13842">
            <g id="Group_13841" data-name="Group 13841">
              <path id="Path_41134" data-name="Path 41134" d="M326.664,140.526a2.1,2.1,0,1,1-2.1-2.1A2.1,2.1,0,0,1,326.664,140.526Z" transform="translate(-322.47 -138.428)" fill="#c80880"/>
            </g>
          </g>
        </g>
        <g id="Group_13846" data-name="Group 13846" transform="translate(62.161)">
          <g id="Group_13845" data-name="Group 13845">
            <g id="Group_13844" data-name="Group 13844">
              <path id="Path_41135" data-name="Path 41135" d="M297.4,134.787a1.367,1.367,0,1,1-1.367-1.367A1.368,1.368,0,0,1,297.4,134.787Z" transform="translate(-294.664 -133.42)" fill="#c80880"/>
            </g>
          </g>
        </g>
        <g id="Group_13849" data-name="Group 13849" transform="translate(79.478 0.776)">
          <g id="Group_13848" data-name="Group 13848">
            <g id="Group_13847" data-name="Group 13847">
              <path id="Path_41136" data-name="Path 41136" d="M306.924,135.214a1.367,1.367,0,1,1-1.367-1.367A1.368,1.368,0,0,1,306.924,135.214Z" transform="translate(-304.19 -133.847)" fill="#c80880"/>
            </g>
          </g>
        </g>
        <g id="Group_13852" data-name="Group 13852" transform="translate(50.116 4.027)">
          <g id="Group_13851" data-name="Group 13851">
            <g id="Group_13850" data-name="Group 13850">
              <circle id="Ellipse_526" data-name="Ellipse 526" cx="1.367" cy="1.367" r="1.367" fill="#c80880"/>
            </g>
          </g>
        </g>
        <g id="Group_13855" data-name="Group 13855" transform="translate(26.989 20.132)">
          <g id="Group_13854" data-name="Group 13854">
            <g id="Group_13853" data-name="Group 13853">
              <circle id="Ellipse_527" data-name="Ellipse 527" cx="1.367" cy="1.367" r="1.367" fill="#c80880"/>
            </g>
          </g>
        </g>
        <g id="Group_13858" data-name="Group 13858" transform="translate(117.626 156.758)">
          <g id="Group_13857" data-name="Group 13857">
            <g id="Group_13856" data-name="Group 13856">
              <path id="Path_41137" data-name="Path 41137" d="M327.909,221.018a1.367,1.367,0,1,1-1.367-1.367A1.367,1.367,0,0,1,327.909,221.018Z" transform="translate(-325.175 -219.651)" fill="#c80880"/>
            </g>
          </g>
        </g>
        <g id="Group_13861" data-name="Group 13861" transform="translate(4.615 39.239)">
          <g id="Group_13860" data-name="Group 13860">
            <g id="Group_13859" data-name="Group 13859">
              <circle id="Ellipse_528" data-name="Ellipse 528" cx="1.367" cy="1.367" r="1.367" fill="#c80880"/>
            </g>
          </g>
        </g>
      </g>
    </g>
    <circle id="Ellipse_494" data-name="Ellipse 494" cx="69" cy="69" r="69" transform="translate(113 257)" fill="#c80880"/>
    <path id="Icon_awesome-lock" data-name="Icon awesome-lock" d="M43.937,24.6H41.3V16.7a16.7,16.7,0,1,0-33.392,0V24.6H5.272A5.274,5.274,0,0,0,0,29.877v21.09a5.274,5.274,0,0,0,5.272,5.272H43.937a5.274,5.274,0,0,0,5.272-5.272V29.877A5.274,5.274,0,0,0,43.937,24.6Zm-11.424,0H16.7V16.7a7.909,7.909,0,1,1,15.817,0Z" transform="translate(157.396 297.881)" fill="#fff"/>
  </g>
</svg>
