<svg xmlns="http://www.w3.org/2000/svg" width="15.693" height="17.453" viewBox="0 0 15.693 17.453">
  <g id="Group_63255" data-name="Group 63255" transform="translate(-24.369 -146.853)">
    <path id="Path_72601" data-name="Path 72601" d="M69.6,157.322a5.234,5.234,0,1,1,5.249-5.215A5.262,5.262,0,0,1,69.6,157.322Zm3.5-5.241a3.5,3.5,0,1,0-3.478,3.5A3.493,3.493,0,0,0,73.093,152.081Z" transform="translate(-37.36 0)" fill="#8b8b8b"/>
    <path id="Path_72602" data-name="Path 72602" d="M31.865,319.792a10.752,10.752,0,0,1,5.912,1.519,4.7,4.7,0,0,1,2.21,2.884,3.149,3.149,0,0,1,.042,1.153.848.848,0,0,1-1.611-.052c-.138-1.857-1.445-2.658-2.953-3.192a9.251,9.251,0,0,0-7.126.275,3.67,3.67,0,0,0-2.1,2,4.484,4.484,0,0,0-.146.766.843.843,0,0,1-.967.756.867.867,0,0,1-.755-.947,4.087,4.087,0,0,1,1.228-2.738,7.793,7.793,0,0,1,4.149-2.133C30.565,319.915,31.405,319.853,31.865,319.792Z" transform="translate(0 -161.602)" fill="#8b8b8b"/>
  </g>
</svg>
