<svg xmlns="http://www.w3.org/2000/svg" width="884" height="294.384" viewBox="0 0 884 294.384">
  <g id="Group_66181" data-name="Group 66181" transform="translate(-172 -6131.057)">
    <g id="Group_66179" data-name="Group 66179" transform="translate(134 6027.327)">
      <g id="Group_64214" data-name="Group 64214" transform="translate(38 103.73)">
        <path id="Path_73059" data-name="Path 73059" d="M68.181,234.337a9.728,9.728,0,0,1,1.868,7.9c8.656-1.233,14-3.107,21.7-6.334.051-5.085-1.106-7.863-2.135-9.757C82.348,231.357,76.8,232.876,68.181,234.337Z" transform="translate(-68.181 -158.743)" fill="#ff0e41"/>
        <path id="Path_73060" data-name="Path 73060" d="M1956.125,209.476c1.66,3.279,4.444,4.778,9.357,6.02,2.834-7.483,5.358-11.562,10.622-17.078-3.536-1.1-5.555-2.97-8.837-7.405C1961.966,196.676,1959.047,202.017,1956.125,209.476Z" transform="translate(-1092.103 -139.689)" fill="#ffaf00"/>
        <path id="Path_73061" data-name="Path 73061" d="M725.656,126.846c-3.5.113-5.395.571-8.13,3.161a63.5,63.5,0,0,1,2.359,14.8,9.467,9.467,0,0,1,4.737-.9C724.039,137.367,724.512,133.281,725.656,126.846Z" transform="translate(-420.352 -104.888)" fill="#ff41aa"/>
        <path id="Path_73062" data-name="Path 73062" d="M352.05,132.774a69.124,69.124,0,0,0-10.568,21.7c6.419,1.466,10.7,1.238,14.674.1.312-5.115,2.463-8.479,6.249-13.4C356.979,139.5,354.623,137.287,352.05,132.774Z" transform="translate(-216.405 -108.103)" fill="#ffaf00"/>
        <path id="Path_73063" data-name="Path 73063" d="M1734.526,325.791c5.749,1.266,9.033,1.306,14.559-1.781a106.765,106.765,0,0,1,2.289-25.092,15.9,15.9,0,0,1-8.092-.5C1741.522,309.314,1739.056,315.778,1734.526,325.791Z" transform="translate(-971.92 -197.942)" fill="#ff0e41"/>
        <path id="Path_73064" data-name="Path 73064" d="M1221.842,394.171c-4.589-.131-9.594.156-13.979,3.146a33.928,33.928,0,0,1-3.908,9.587c3.328-.724,5.385.423,8.721,3.935C1214.306,405.211,1217.483,400.507,1221.842,394.171Z" transform="translate(-684.165 -249.858)" fill="#00d339"/>
        <path id="Path_73065" data-name="Path 73065" d="M1069.077,171.369a50.755,50.755,0,0,0,7.687-15.978c-4.72-1.058-7.864-.874-10.781-.021-.212,3.763-1.78,6.239-4.544,9.869C1065.43,166.448,1067.17,168.062,1069.077,171.369Z" transform="translate(-606.872 -119.975)" fill="#ff0e41"/>
        <path id="Path_73066" data-name="Path 73066" d="M1555.482,358.983c-2.57,5.337-4.085,9.881-3.7,14.814,3.448,1.911,5.98,2.41,9.019,2.077a26.064,26.064,0,0,1,3.768-14.554C1560.509,361.782,1558.062,361.444,1555.482,358.983Z" transform="translate(-872.776 -230.787)" fill="#00d339"/>
        <path id="Path_73067" data-name="Path 73067" d="M1241.308,83.614c-4.2,1.077-8.851.425-18.039-4.747-1.567,4.29-1.753,8.437-.355,13.965,7.366,2.9,11.988,4.03,19.655,3.515C1240.632,92.083,1240.61,89.158,1241.308,83.614Z" transform="translate(-693.936 -78.867)" fill="#00d339"/>
        <path id="Path_73068" data-name="Path 73068" d="M502.1,454.156c1.469.61,2.687.319,4.664-.223-1.349-4.269-1.506-9.2-1.156-14.935a6.8,6.8,0,0,1-4.4-.45A36.929,36.929,0,0,0,502.1,454.156Z" transform="translate(-302.796 -273.939)" fill="#ff41aa"/>
        <path id="Path_73069" data-name="Path 73069" d="M854.665,418.247c-1.854,4.546-1.593,7.912,1.086,12.582,5.113.841,8.911.747,12.448-1.072.51-5.5,2.417-9,6.229-14.636C867.133,417.408,862.552,418.6,854.665,418.247Z" transform="translate(-494.081 -261.233)" fill="#ff41aa"/>
        <path id="Path_73070" data-name="Path 73070" d="M301.853,387.2c1.271-8.014,2.4-12.058,6.665-17.467-2.922-1.364-4.523-2.653-5.231-4.618-5,5.53-7.012,10.364-9.109,18.751A15.975,15.975,0,0,0,301.853,387.2Z" transform="translate(-190.75 -234.115)" fill="#008df0"/>
        <path id="Path_73071" data-name="Path 73071" d="M1433.3,161.475a7.639,7.639,0,0,1,1.2,6.259,61.649,61.649,0,0,0,17.23-4.254,14.6,14.6,0,0,0-1.353-7.725C1444.513,159.6,1440.114,160.613,1433.3,161.475Z" transform="translate(-808.551 -120.567)" fill="#ff41aa"/>
        <path id="Path_73072" data-name="Path 73072" d="M1883.78,99.053a5.044,5.044,0,0,0-1.634,4.769,7.618,7.618,0,0,0,4.717,1.617c1.075-1.927,2.335-2.894,4.637-4.338A19.9,19.9,0,0,1,1883.78,99.053Z" transform="translate(-1051.951 -89.815)" fill="#ff41aa"/>
      </g>
    </g>
    <g id="Group_66186" data-name="Group 66186" transform="translate(882.018 5813.705)">
      <path id="Path_76177" data-name="Path 76177" d="M105.824,525.815c-.85,3.617-1.488,7.3-2.586,10.84-5.732,18.49-21.433,30.525-40.716,32.564-17.2,1.818-32.383-2.209-45.136-13.794C4.088,543.343.17,527.945,4.886,510.913,9.7,493.536,21.528,482.85,39.427,479.78c17.682-3.033,34.251-.333,48.931,10.882,9.159,7,14.877,15.891,16.547,27.345a21.711,21.711,0,0,0,.919,3.093Zm-20.594,0-.8-.155c0-1.256.036-2.513-.006-3.769-.8-24.462-18.8-32.71-38.139-31.09a19.447,19.447,0,0,0-8.2,3.156c-10.517,6.568-13.111,16.543-12.677,28.375.784,21.381,17.757,36.052,38.768,32.565,8.41-1.4,15.084-5.681,17.913-14.066C83.711,536.022,84.219,530.834,85.229,525.816Z" transform="translate(-35.143 -4.489)" fill="#c80880"/>
      <path id="Path_76178" data-name="Path 76178" d="M-414.006,507.068a7.191,7.191,0,0,1-.543-1.109c-.595-2.416.119-6.029-3.968-5.623-3.809.379-5.668,3-5.723,6.829-.016,1.1-.026,2.2-.018,3.3.046,6.1,2.085,9.343,6.622,10.535,5.633,1.48,11.719-.77,14.095-5.767a27.531,27.531,0,0,0,1.191-21.449c-2.4-6.806-8.311-9.186-14.984-9.259-16.328-.177-32.658-.012-48.988-.091-3.887-.019-4.752,1.027-3.644,5.065a172.609,172.609,0,0,1,5.163,24.283c1.528,12.313-2.731,22.983-11.927,31.283-10.811,9.759-22.9,17.258-37.342,20.8-25.563,6.275-50.6-6.261-60.816-23.5-1.987-3.353-4.517-1.659-5.421.425-2.266,5.218-4.614,10.627-5.425,16.179-.655,4.485.591,9.35,1.525,13.938,1.07,5.251,4.857,8.23,10.238,8.875,1.053.127,2.1.273,3.325.433.323,4.41-1.707,7.38-4.892,9.659-7.369,5.274-18.711,3.576-24-3.787-7.969-11.085-9.57-22.927-3.429-35.424a87.664,87.664,0,0,1,19.638-26.206,28.436,28.436,0,0,1,4.889-3.648c3.589-2.08,6.344-1.987,9.806,1.476,6.377,6.378,13.149,12.713,20.775,17.412,13.932,8.583,28.22,6.481,41.754-1.8,15.153-9.266,21.584-22.6,18.1-40.314-.6-3.067-1.337-6.12-1.729-9.215-.463-3.651-2.546-4.481-5.861-4.3-23.8,1.268-47.592,2.543-71.4,3.567a61.105,61.105,0,0,1-15.854-1.011c-7.64-1.717-10.6-6.767-9.64-14.259.965-7.546,4.789-10.892,12.988-11.363,3.143,8.771,4.65,10.161,14.185,10.238,21.821.176,43.644.042,65.467,0a20.949,20.949,0,0,0,3.212-.59c-3.479-7.966-8.783-13.98-14.907-19.323-2.948-2.572-6.241-4.743-9.271-7.227-6.653-5.454-7.258-11.566-1.153-17.656,4.162-4.152,9.084-7.544,14.172-11.687,1.352,1.908,2.307,3.059,3.049,4.332q11.711,20.112,23.362,40.257c.709,1.222,1.783,2.38,2.035,3.693,1.544,8.062,6.971,8.542,13.869,8.362q25.654-.674,51.337,0a78.182,78.182,0,0,1,19.373,3.087c17.6,5.041,19.6,22.412,12.811,33.508-12.111,19.8-33.742,26.377-54.064,15.834-8.252-4.282-12.209-11.274-11.022-18.418,1.546-9.3,10.007-16.509,20.191-17.115,5.2-.309,10.373-.471,14.734,3.242,2.656,2.261,4.344,4.8,3.98,8.521C-408.493,505.619-409.85,507.7-414.006,507.068Z" transform="translate(0 -0.923)" fill="#c80880"/>
      <path id="Path_76179" data-name="Path 76179" d="M-119.415,518.8c1.234,0,2.472-.054,3.7.009,3.92.2,6.889-1.292,7.886-5.2.873-3.421,1.119-7.237-2.448-9.31a9,9,0,0,0-10.558.937c-5.822,4.586-7.886,15.644-4.629,23.969a35.258,35.258,0,0,0,20.015,20.149c19.385,8.043,38.58,7.988,56.312-4.467,11.8-8.293,13.355-25.429,7.654-37.033-2.872-5.846-8.223-8.008-14.243-8.539-5.2-.458-10.032,4.457-10.422,10.08-.4,5.707,2.627,9.88,8.087,10.015,2.622.066,5.285-1.515,8.521-2.539,2.974,2.746,3.137,6.964-.642,10.87-5.264,5.441-11.849,6.287-18.645,4.155-7.467-2.344-12.345-7.64-13.109-15.6C-83.063,504.55-77,496.5-65.5,493.564c1-.255,1.97-.64,2.953-.964q.161-.715.321-1.432c-3.475-1.21-6.87-3.037-10.442-3.506-7.9-1.036-15.88-1.53-23.843-1.985-10.684-.611-20.329-3.52-27.855-11.607-7.912-8.5-8.131-20.283-.515-28.958,9.588-10.923,21.833-16.521,36.145-17.855,6.7-.625,13.457-.851,20.125-1.729,5.045-.663,6.791-3.3,6.338-8.072-.39-4.121-2.55-5.745-7.581-5.625-2.145.052-4.642.89-4.714-2.706-.065-3.276,1.811-4.309,4.728-4.524,6.241-.459,10.926,2.338,14.639,6.986a27.237,27.237,0,0,1,5.858,20.276c-.765,7.969-7.05,14.18-16.786,16.076-9.362,1.823-18.893,2.815-28.212,4.815a47.018,47.018,0,0,0-12.908,5.293,8.328,8.328,0,0,0-4.335,9.589c.939,3.955,4.063,5.524,7.637,5.923,9.642,1.077,19.343,1.661,28.965,2.876,16.372,2.068,31.779,6.947,45.3,16.816C-14.951,504.009-13.7,523.206-24.1,538.1c-9.445,13.532-23.308,20.833-38.878,24.616a96.884,96.884,0,0,1-55.975-2.724,61.683,61.683,0,0,1-24.162-14.984c-12.715-13.067-10.959-31.788,3.857-42.4,10.215-7.316,21.391-10.254,33.708-7.329,12.212,2.9,17.65,15.963,10.879,25.524-3.946,5.571-13.788,8.933-19.719,5.95-2.514-1.265-4.052-4.475-6.033-6.8Z" transform="translate(-26.232 -0.219)" fill="#c80880"/>
      <path id="Path_76180" data-name="Path 76180" d="M-255.985,478.438c-1.848-2.4-3.429-4.327-4.875-6.351-8.579-12.01-5.714-27.828,6.138-36.613,12.24-9.074,26.193-11.279,40.845-11.436a30.78,30.78,0,0,0,7.888-1.014c4.076-1.138,5.92-4.626,5.182-8.744s-3.141-5.729-7.3-5.558c-2.081.086-5.457,1.8-5.534-2.674-.069-3.989,2.623-5.026,5.838-5.269,6.9-.522,15.732,5.4,18.126,12.047,2.755,7.646.517,15.121-7.084,19.385-5.5,3.088-11.906,4.532-17.778,7.016-8.621,3.646-17.161,7.488-25.651,11.432a19.666,19.666,0,0,0-4.795,3.749c-3.238,3.041-5.431,6.577-4.135,11.276,1.3,4.723,5.275,6.7,9.39,7.534,6.881,1.389,14.036,1.48,20.87,3.023,21.644,4.884,49.571,30.449,46.769,60.1-1.25,13.221-8.5,24.512-19.718,27.508-7.88,2.1-15.324.9-20.879-5.848-1.19-1.444-1.75-3.408-2.666-5.267,12.925-3.286,18.435-13.362,18.345-29.108-.1-17.544-13.026-33.437-29.9-36.809-11.863-2.372-20.445,3.346-28.186,11.4-13.016,13.539-16.25,35.294-6.956,49.348a13.773,13.773,0,0,0,5.779,5.188c4.3,1.7,3.491,4.164,1.833,6.933-2.954,4.932-10.286,6.588-17.909,4.227-12.324-3.817-19.894-13.875-20.51-27.342-1.144-25.021,11.878-41.932,31.55-55C-259.747,480.537-258.084,479.668-255.985,478.438Z" transform="translate(-18.087)" fill="#c80880"/>
      <path id="Path_76181" data-name="Path 76181" d="M-327.22,514.353a23.438,23.438,0,0,0-.287-2.571c-1.05-4.508-4-6.735-8.442-6.414-3.93.285-6.363,3.092-6.8,7.61-.83,8.588,3.087,15.588,7.747,22.14,3.99,5.61,8.72,10.686,12.954,16.13,7.4,9.509,12.624,19.771,11.377,32.411-1.3,13.152-12.669,30.8-27.385,32.774-8.019,1.074-13.853-2.116-18.6-7.668-3.232-3.776-5.691-3.92-9.318-.779a44.287,44.287,0,0,1-9.682,6.568c-8.661,4.136-18.2,1.909-23.287-4.966a20.7,20.7,0,0,1,1.234-26.018c7.446-8.065,16.583-10.935,27.311-8.133a11.492,11.492,0,0,1,8.5,13.737c-.706,3.432-2.7,5.55-6.311,6-3.51.433-6.16-.658-7.614-4.046-.618-1.439-.95-3.116-1.915-4.259-1.1-1.305-2.907-3.116-4.154-2.938a7.384,7.384,0,0,0-4.946,3.338c-2.344,4.663-1.014,9.291,2.062,13.176a9,9,0,0,0,11.158,2.515,35.213,35.213,0,0,0,11.139-8.078c4.766-5.282,6.123-5.708,11.087-.489.541.568,1.044,1.173,1.578,1.748,7.945,8.56,18.29,6.5,22.3-4.607,4.421-12.25,1.97-23.921-4.231-34.8-4.1-7.2-9.12-13.888-13.735-20.8-5.484-8.214-9.559-16.915-9.261-27.1.319-10.883,7.358-20.508,16.506-22.651,10.605-2.485,21.944,8.121,19.9,18.826C-319.2,509.556-321.7,513.075-327.22,514.353Z" transform="translate(-11.745 -4.903)" fill="#c80880"/>
    </g>
  </g>
</svg>
