<svg xmlns="http://www.w3.org/2000/svg" width="884" height="308.277" viewBox="0 0 884 308.277">
  <g id="Group_65009" data-name="Group 65009" transform="translate(-38 -103.73)">
    <g id="Group_64213" data-name="Group 64213" transform="translate(111.913 203.455)">
      <path id="Path_73053" data-name="Path 73053" d="M568.727,803.106a35.959,35.959,0,0,0,8.884,6.344,31.849,31.849,0,0,0,10.659,3.112,2.246,2.246,0,0,1-2.539,2.54,24.193,24.193,0,0,1-9.768-2.308,62.9,62.9,0,0,1-8.758-4.614,399.566,399.566,0,0,1-15.351,38.293q-9.01,19.618-19.8,38.068t-22.587,34.836A279.41,279.41,0,0,1,486,948.1a131.634,131.634,0,0,1-22.713,19.61q-11.037,7.27-20.174,7.5-10.408,0-14.72-6.229t-4.314-17.3a88.3,88.3,0,0,1,1.9-17.3,201.279,201.279,0,0,1,5.075-19.724q3.169-10.264,7.106-20.761t7.993-20.187q-6.6,11.54-14.212,23.877t-15.607,24.109q-7.992,11.765-16.113,22.378a208.763,208.763,0,0,1-15.86,18.57,96.794,96.794,0,0,1-14.72,12.686q-6.983,4.731-12.816,4.73a15.072,15.072,0,0,1-11.672-5.419q-4.823-5.427-4.823-19.263a109.53,109.53,0,0,1,2.792-22.839q2.79-12.922,7.106-26.765T360,877.969q5.453-13.956,10.911-25.956t10.15-21.109a127.91,127.91,0,0,1,7.741-13.5q-11.677,2.3-24.741,5.075t-25.887,6.689a174.564,174.564,0,0,0-24.362,9.457,86.215,86.215,0,0,0-20.426,13.5,62.62,62.62,0,0,0-14.212,18.454q-5.335,10.505-5.331,24.341a77.987,77.987,0,0,0,2.539,19.378H275.37q-1.52,0-2.409-2.422A36.554,36.554,0,0,1,271.438,906a64.278,64.278,0,0,1-.888-7.15q-.256-3.692-.256-6.229,0-14.3,5.584-25.147a61.855,61.855,0,0,1,14.843-18.8,91.535,91.535,0,0,1,21.573-13.614,197.953,197.953,0,0,1,25.758-9.686,278.669,278.669,0,0,1,27.154-6.69q13.7-2.651,25.884-4.962,10.147-13.73,19.542-21.516,9.379-7.782,19.54-7.781,5.831,0,8.5,2.532a7.773,7.773,0,0,1,2.662,5.76,11.481,11.481,0,0,1-4.566,9.1,43.706,43.706,0,0,1-10.659,6.454,79.655,79.655,0,0,1-12.563,4.263q-6.47,1.617-10.276,2.307-2.283,3.686-6.979,12.9t-10.276,21.775q-5.585,12.563-11.546,27.188t-10.915,29.15q-4.945,14.519-8.245,27.764a124.416,124.416,0,0,0-3.809,22.7q0,10.833,2.287,14.635a7.27,7.27,0,0,0,6.6,3.8q5.073,0,11.8-5.307a107.975,107.975,0,0,0,14.467-14.3q7.735-9,16.112-20.648t16.622-24.338q8.247-12.686,15.989-25.491t14.338-24.109q6.594-11.3,11.42-20.184t7.358-13.5a73.28,73.28,0,0,1,6.6,4.73,5.4,5.4,0,0,1,2.027,4.27q0,1.843-3.171,9.225t-7.867,18q-4.7,10.614-10.279,23.3T445.523,911.88q-4.694,12.8-7.867,24.57a79.125,79.125,0,0,0-3.171,20.071q0,6.686,2.409,10.727t8.249,4.037q7.864,0,17.891-7.037A129.155,129.155,0,0,0,484.1,944.986a291.13,291.13,0,0,0,22.46-28.607Q517.973,900,528.509,881.542t19.536-38.064A387.119,387.119,0,0,0,563.4,804.952a41.215,41.215,0,0,1-9.389-11.42,24.214,24.214,0,0,1-3.3-11.42,11.171,11.171,0,0,1,2.662-7.5q2.662-3.112,8.246-3.113,6.091,0,8.375,3.577a16.656,16.656,0,0,1,2.286,9.113,43.245,43.245,0,0,1-1.27,10.266Q569.739,799.645,568.727,803.106Zm-137.542-15.69q-5.329.7-11.8,7.038a124.3,124.3,0,0,0-13.83,16.724,77.593,77.593,0,0,0,8.5-1.959,86.58,86.58,0,0,0,10.911-3.809,37.859,37.859,0,0,0,9.393-5.535q3.932-3.226,3.932-7.379,0-5.078-6.345-5.078Zm133.993,11.768q.757-2.54,2.027-7.27a35.055,35.055,0,0,0,1.27-9.112,12.552,12.552,0,0,0-1.27-5.884q-1.27-2.416-4.819-2.42a4.58,4.58,0,0,0-4.061,1.846,8.394,8.394,0,0,0-1.27,4.843,22.522,22.522,0,0,0,1.9,8.191A36.371,36.371,0,0,0,565.178,799.184Z" transform="translate(-270.295 -771.498)" fill="#c80880"/>
      <path id="Path_73054" data-name="Path 73054" d="M916.3,1019.371a12.4,12.4,0,0,0,1.27,1.038.986.986,0,0,1,.5.805,3.573,3.573,0,0,1-.122.926,9.426,9.426,0,0,1-1.4,2.075l-4.567,6.229a129.349,129.349,0,0,1-8.754,10.843,91.461,91.461,0,0,1-10.658,10.154,55.83,55.83,0,0,1-12.437,7.611,33.614,33.614,0,0,1-13.829,3,22.552,22.552,0,0,1-9.9-1.962,19.646,19.646,0,0,1-6.6-4.959,17.43,17.43,0,0,1-3.553-6.693,27.728,27.728,0,0,1-1.017-7.379,32.937,32.937,0,0,1,2.669-12.342,46.173,46.173,0,0,1,7.228-12.116,40.114,40.114,0,0,1,10.663-9.113,24.708,24.708,0,0,1,12.686-3.574q5.837,0,9.01,2.884a8.925,8.925,0,0,1,3.17,6.805,8.65,8.65,0,0,1-3.427,6.805,28.824,28.824,0,0,1-8.119,4.731,68.79,68.79,0,0,1-9.642,3q-4.951,1.156-7.993,1.618a90.088,90.088,0,0,0-3.556,8.3,29.49,29.49,0,0,0-2.027,10.611,12.089,12.089,0,0,0,2.283,7.154q2.283,3.235,8.372,3.229a29.739,29.739,0,0,0,13.706-3.229,56.493,56.493,0,0,0,11.925-8.191,87.562,87.562,0,0,0,10.28-10.843q4.689-5.882,8.754-10.959Zm-33.5-10.15q-5.079,0-10.277,4.959a55.829,55.829,0,0,0-9.515,12.342c1.522-.3,3.679-.809,6.471-1.5a54.6,54.6,0,0,0,8.246-2.772,36.962,36.962,0,0,0,7.106-3.918,6.317,6.317,0,0,0,3.044-5.194,3.837,3.837,0,0,0-3.805-3.918Z" transform="translate(-572.443 -893.637)" fill="#c80880"/>
      <path id="Path_73055" data-name="Path 73055" d="M988.1,914.4q-2.283,4.376-6.47,12.32T973.379,943.2q-4.06,8.524-7.106,16.239T963.228,971.3v1.617c0,1.222.765,1.844,2.287,1.844q7.1,0,15.986-6a138.248,138.248,0,0,0,17.638-14.3,212.583,212.583,0,0,0,16.239-17.188q7.485-8.876,11.549-14.42L1032,916.4c1.352.771,2.034,1.46,2.034,2.075l-1.526,2.768-4.566,6.228q-4.315,6-11.8,14.533a219.954,219.954,0,0,1-16.116,16.5,121.141,121.141,0,0,1-17.638,13.611q-9.01,5.652-16.621,5.651a8.473,8.473,0,0,1-5.457-1.727,14.748,14.748,0,0,1-3.553-4.15,16.431,16.431,0,0,1-1.9-4.949,23.106,23.106,0,0,1-.5-4.379,41,41,0,0,1,2.54-12.785,156.867,156.867,0,0,1,6.088-15.208q3.553-7.716,7.358-14.973t6.6-12.1q9.384-17.042,20.048-34.784a302.041,302.041,0,0,1,22.075-32.14,145.68,145.68,0,0,1,22.84-23.5q11.421-9.1,22.334-9.1,7.351,0,10.532,3.454a12.166,12.166,0,0,1,3.167,8.525q0,6.681-5.072,15.324a122.041,122.041,0,0,1-12.942,17.737,236.776,236.776,0,0,1-17.638,18.2q-9.772,9.1-19.287,17.044t-17.764,14.055q-8.252,6.1-13.068,9.1Zm79.682-103.44q-6.6,0-14.334,6.348a111.194,111.194,0,0,0-15.611,16.034,246.468,246.468,0,0,0-15.477,21.454q-7.614,11.764-13.956,22.491t-10.915,19.262q-4.566,8.54-6.341,11.768,4.311-3,12.307-9t17.382-13.727q9.384-7.73,19.034-16.727t17.635-18a118.9,118.9,0,0,0,12.946-17.187q4.946-8.181,4.945-14.649a9.313,9.313,0,0,0-1.778-5.652Q1071.846,810.966,1067.781,810.964Z" transform="translate(-629.779 -790.663)" fill="#c80880"/>
      <path id="Path_73056" data-name="Path 73056" d="M1174.333,1019.936l-1.526,2.771-4.57,6.225q-5.323,6.921-11.8,13.843a123.489,123.489,0,0,1-13.45,12.458,77.879,77.879,0,0,1-14.334,9.113,33.385,33.385,0,0,1-14.72,3.577q-11.934,0-16.495-5.884t-4.567-14.648a44.182,44.182,0,0,1,3.044-15.341,57.655,57.655,0,0,1,8.12-14.877,49.829,49.829,0,0,1,11.675-11.191,23.621,23.621,0,0,1,13.447-4.5,17.9,17.9,0,0,1,11.673,4.154,12.655,12.655,0,0,1,5.079,10.15v3.461a5.238,5.238,0,0,1-2.539-1.037,1.862,1.862,0,0,1-.506-1.27v-1.847a9.606,9.606,0,0,0-1.652-5.307,6.893,6.893,0,0,0-5.2-3q-4.32,0-10.027,4.826a64.7,64.7,0,0,0-10.785,11.948,90.055,90.055,0,0,0-8.75,15.28,36.859,36.859,0,0,0-3.683,15.051,11.745,11.745,0,0,0,2.666,7.929q2.663,3.107,9.01,3.1a29.882,29.882,0,0,0,14.212-3.808,75.475,75.475,0,0,0,13.956-9.8,135.909,135.909,0,0,0,13.068-13.154q6.215-7.146,11.55-13.843l5.071-6.457C1173.65,1018.633,1174.333,1019.325,1174.333,1019.936Z" transform="translate(-702.577 -892.359)" fill="#c80880"/>
      <path id="Path_73057" data-name="Path 73057" d="M1448.609,1014.493c1.351.771,2.031,1.461,2.031,2.075a9.75,9.75,0,0,1-1.521,2.768q-2.54,3.456-6.6,9t-9.137,11.765q-5.083,6.23-10.532,12.689t-10.659,11.536a79.483,79.483,0,0,1-9.645,8.191q-4.438,3.113-7.481,3.113a9.924,9.924,0,0,1-7.741-3.229,14.06,14.06,0,0,1-3.426-8.307q0-4.607,3.3-12.689t7.74-16.607q4.439-8.535,8.758-16.15t6.594-11.536a25.146,25.146,0,0,1,1.4-2.652,5.41,5.41,0,0,0,.887-2.651c0-1.229-.935-1.925-2.792-2.079q-2.8,0-7.489,3.46a103.282,103.282,0,0,0-10.4,9q-5.713,5.534-11.928,12.342t-11.928,13.611q-5.708,6.809-10.4,12.805t-7.489,9.686q-3.8-1.608-6.218-2.652a4.682,4.682,0,0,1-2.914-3.573q0-2.539,2.914-8.191t6.348-12q3.425-6.338,6.471-12.11t3.3-8.536q0-1.612-1.774-1.614-2.795,0-6.724,2.768a58.753,58.753,0,0,0-8.375,7.382q-4.443,4.618-9.136,10.267t-9.137,11.42q-4.443,5.77-8.375,11.188t-6.723,9.113a50.533,50.533,0,0,1-6.723-3.344,5.151,5.151,0,0,1-2.413-4.731,14.776,14.776,0,0,1,1.269-4.034q1.265-3.117,3.17-7.385t4.314-9.229q2.411-4.956,4.7-9.8-3.3,3.691-7.232,7.382a79.554,79.554,0,0,1-8.12,6.689,52.534,52.534,0,0,1-8.375,4.959,19.306,19.306,0,0,1-8.246,1.962,19.909,19.909,0,0,1-2.287-.116c-.676-.075-1.441-.19-2.283-.344q-2.033,3-4.693,6.341a39.529,39.529,0,0,1-6.092,6.116,37.528,37.528,0,0,1-7.231,4.614,18.369,18.369,0,0,1-8.124,1.843q-10.914,0-15.481-6.109a23.066,23.066,0,0,1-4.567-14.191,42.387,42.387,0,0,1,2.539-13.959,51.893,51.893,0,0,1,6.853-13.263,40.705,40.705,0,0,1,10.021-9.918,20.954,20.954,0,0,1,12.054-3.925h1.522a26.34,26.34,0,0,1,4.823-6.69q2.79-2.769,7.866-2.768,4.055,0,7.741,3.689t3.679,13.154a57.028,57.028,0,0,1-2.792,16.839,74.764,74.764,0,0,1-6.089,14.764,3.13,3.13,0,0,1,.887.117,3,3,0,0,0,.888.115,22.357,22.357,0,0,0,11.549-3.6,72.308,72.308,0,0,0,11.42-8.594,91.731,91.731,0,0,0,9.894-10.563q4.439-5.575,6.98-9.525,4.567,3.021,6.724,4.3a4.367,4.367,0,0,1,2.157,4.061,16.357,16.357,0,0,1-1.522,4.761q-1.521,3.6-3.68,8.25t-4.566,9.508q-2.417,4.863-3.935,8.327,4.818-6.46,10.533-13.659t11.293-13.239a84.831,84.831,0,0,1,10.785-9.99q5.2-3.942,9.263-3.949a16.033,16.033,0,0,1,7.488,2.092q3.927,2.089,3.932,8.126,0,3.486-3.175,10.338t-6.976,13.815q6.087-7.146,13.194-15.222t14.082-15a121.045,121.045,0,0,1,13.072-11.42q6.092-4.5,9.9-4.5,5.58,0,7.74,3.355a13.653,13.653,0,0,1,2.157,7.519,31.027,31.027,0,0,1-.252,3.823,21.193,21.193,0,0,1-.764,3.583,132.821,132.821,0,0,1-5.836,12.963q-4.065,8.1-8.246,16.545t-7.488,15.734q-3.3,7.289-3.3,10.3c0,1.079.417,1.622,1.27,1.622q2.785,0,6.85-3.119a91.244,91.244,0,0,0,8.884-7.959q4.812-4.844,9.894-11.072t10.023-12.458q4.945-6.226,9.137-11.768t7.231-9.457Zm-196.671,47.522q6.343,0,12.433-5.344a59.555,59.555,0,0,0,10.406-11.86,19.972,19.972,0,0,1-10.15-11.74,47.512,47.512,0,0,1-2.791-15.7,40.767,40.767,0,0,1,.761-7.672,32.966,32.966,0,0,0-6.853,6.976,76.289,76.289,0,0,0-6.6,10.348,68.166,68.166,0,0,0-4.945,11.74,37.978,37.978,0,0,0-1.9,11.393,16.331,16.331,0,0,0,2.027,8.368Q1246.351,1062.018,1251.938,1062.014Zm24.362-20.3q1.52-2.775,3.171-6.577a76.546,76.546,0,0,0,2.921-7.958,72.169,72.169,0,0,0,2.028-8.42,46.585,46.585,0,0,0,.764-8.191q0-7.383-2.157-10.382t-4.191-3q-4.991,0-7.44,7.843l-.983,3a23.028,23.028,0,0,0-1.226,6q-.25,3.235-.246,6.457a39.394,39.394,0,0,0,1.963,12.574Q1272.869,1038.946,1276.3,1041.714Z" transform="translate(-775.366 -888.527)" fill="#c80880"/>
      <path id="Path_73058" data-name="Path 73058" d="M1739.393,1019.371a12.806,12.806,0,0,0,1.27,1.038.983.983,0,0,1,.508.805,3.576,3.576,0,0,1-.125.926,9.5,9.5,0,0,1-1.4,2.075l-4.57,6.229a129.368,129.368,0,0,1-8.75,10.843,91.551,91.551,0,0,1-10.662,10.154,55.81,55.81,0,0,1-12.434,7.611,33.629,33.629,0,0,1-13.833,3,22.543,22.543,0,0,1-9.894-1.962,19.608,19.608,0,0,1-6.6-4.959,17.43,17.43,0,0,1-3.556-6.693,27.863,27.863,0,0,1-1.014-7.379,32.991,32.991,0,0,1,2.666-12.342,46.186,46.186,0,0,1,7.232-12.116,40.1,40.1,0,0,1,10.659-9.113,24.723,24.723,0,0,1,12.69-3.574q5.835,0,9.01,2.884a8.933,8.933,0,0,1,3.167,6.805,8.656,8.656,0,0,1-3.423,6.805,28.868,28.868,0,0,1-8.119,4.731,68.825,68.825,0,0,1-9.645,3q-4.945,1.156-7.993,1.618-1.526,3-3.553,8.3a29.5,29.5,0,0,0-2.03,10.611,12.092,12.092,0,0,0,2.286,7.154q2.283,3.235,8.372,3.229a29.735,29.735,0,0,0,13.7-3.229,56.623,56.623,0,0,0,11.929-8.191,87.839,87.839,0,0,0,10.276-10.843q4.695-5.882,8.757-10.959Zm-33.495-10.15q-5.078,0-10.28,4.959a55.829,55.829,0,0,0-9.515,12.342c1.521-.3,3.679-.809,6.471-1.5a54.485,54.485,0,0,0,8.246-2.772,36.767,36.767,0,0,0,7.106-3.918q3.051-2.191,3.047-5.194a3.842,3.842,0,0,0-3.805-3.918Z" transform="translate(-1004.997 -893.637)" fill="#c80880"/>
    </g>
    <g id="Group_64214" data-name="Group 64214" transform="translate(38 103.73)">
      <path id="Path_73059" data-name="Path 73059" d="M68.181,234.337a9.728,9.728,0,0,1,1.868,7.9c8.656-1.233,14-3.107,21.7-6.334.051-5.085-1.106-7.863-2.135-9.757C82.348,231.357,76.8,232.876,68.181,234.337Z" transform="translate(-68.181 -158.743)" fill="#ff0e41"/>
      <path id="Path_73060" data-name="Path 73060" d="M1956.125,209.476c1.66,3.279,4.444,4.778,9.357,6.02,2.834-7.483,5.358-11.562,10.622-17.078-3.536-1.1-5.555-2.97-8.837-7.405C1961.966,196.676,1959.047,202.017,1956.125,209.476Z" transform="translate(-1092.103 -139.689)" fill="#ffaf00"/>
      <path id="Path_73061" data-name="Path 73061" d="M725.656,126.846c-3.5.113-5.395.571-8.13,3.161a63.5,63.5,0,0,1,2.359,14.8,9.467,9.467,0,0,1,4.737-.9C724.039,137.367,724.512,133.281,725.656,126.846Z" transform="translate(-420.352 -104.888)" fill="#ff41aa"/>
      <path id="Path_73062" data-name="Path 73062" d="M352.05,132.774a69.124,69.124,0,0,0-10.568,21.7c6.419,1.466,10.7,1.238,14.674.1.312-5.115,2.463-8.479,6.249-13.4C356.979,139.5,354.623,137.287,352.05,132.774Z" transform="translate(-216.405 -108.103)" fill="#ffaf00"/>
      <path id="Path_73063" data-name="Path 73063" d="M1734.526,325.791c5.749,1.266,9.033,1.306,14.559-1.781a106.765,106.765,0,0,1,2.289-25.092,15.9,15.9,0,0,1-8.092-.5C1741.522,309.314,1739.056,315.778,1734.526,325.791Z" transform="translate(-971.92 -197.942)" fill="#ff0e41"/>
      <path id="Path_73064" data-name="Path 73064" d="M1221.842,394.171c-4.589-.131-9.594.156-13.979,3.146a33.928,33.928,0,0,1-3.908,9.587c3.328-.724,5.385.423,8.721,3.935C1214.306,405.211,1217.483,400.507,1221.842,394.171Z" transform="translate(-684.165 -249.858)" fill="#00d339"/>
      <path id="Path_73065" data-name="Path 73065" d="M1069.077,171.369a50.755,50.755,0,0,0,7.687-15.978c-4.72-1.058-7.864-.874-10.781-.021-.212,3.763-1.78,6.239-4.544,9.869C1065.43,166.448,1067.17,168.062,1069.077,171.369Z" transform="translate(-606.872 -119.975)" fill="#ff0e41"/>
      <path id="Path_73066" data-name="Path 73066" d="M1555.482,358.983c-2.57,5.337-4.085,9.881-3.7,14.814,3.448,1.911,5.98,2.41,9.019,2.077a26.064,26.064,0,0,1,3.768-14.554C1560.509,361.782,1558.062,361.444,1555.482,358.983Z" transform="translate(-872.776 -230.787)" fill="#00d339"/>
      <path id="Path_73067" data-name="Path 73067" d="M1241.308,83.614c-4.2,1.077-8.851.425-18.039-4.747-1.567,4.29-1.753,8.437-.355,13.965,7.366,2.9,11.988,4.03,19.655,3.515C1240.632,92.083,1240.61,89.158,1241.308,83.614Z" transform="translate(-693.936 -78.867)" fill="#00d339"/>
      <path id="Path_73068" data-name="Path 73068" d="M502.1,454.156c1.469.61,2.687.319,4.664-.223-1.349-4.269-1.506-9.2-1.156-14.935a6.8,6.8,0,0,1-4.4-.45A36.929,36.929,0,0,0,502.1,454.156Z" transform="translate(-302.796 -273.939)" fill="#ff41aa"/>
      <path id="Path_73069" data-name="Path 73069" d="M854.665,418.247c-1.854,4.546-1.593,7.912,1.086,12.582,5.113.841,8.911.747,12.448-1.072.51-5.5,2.417-9,6.229-14.636C867.133,417.408,862.552,418.6,854.665,418.247Z" transform="translate(-494.081 -261.233)" fill="#ff41aa"/>
      <path id="Path_73070" data-name="Path 73070" d="M301.853,387.2c1.271-8.014,2.4-12.058,6.665-17.467-2.922-1.364-4.523-2.653-5.231-4.618-5,5.53-7.012,10.364-9.109,18.751A15.975,15.975,0,0,0,301.853,387.2Z" transform="translate(-190.75 -234.115)" fill="#008df0"/>
      <path id="Path_73071" data-name="Path 73071" d="M1433.3,161.475a7.639,7.639,0,0,1,1.2,6.259,61.649,61.649,0,0,0,17.23-4.254,14.6,14.6,0,0,0-1.353-7.725C1444.513,159.6,1440.114,160.613,1433.3,161.475Z" transform="translate(-808.551 -120.567)" fill="#ff41aa"/>
      <path id="Path_73072" data-name="Path 73072" d="M1883.78,99.053a5.044,5.044,0,0,0-1.634,4.769,7.618,7.618,0,0,0,4.717,1.617c1.075-1.927,2.335-2.894,4.637-4.338A19.9,19.9,0,0,1,1883.78,99.053Z" transform="translate(-1051.951 -89.815)" fill="#ff41aa"/>
    </g>
  </g>
</svg>
