<svg xmlns="http://www.w3.org/2000/svg" width="100" height="100" viewBox="0 0 100 100">
  <g id="rating-4" transform="translate(-47 -47)">
    <rect id="Rectangle_1" data-name="Rectangle 1" width="100" height="100" transform="translate(47 47)" fill="#fff" opacity="0"/>
    <path id="Path_57227" data-name="Path 57227" d="M-13.065-79.775a7.884,7.884,0,0,1-2.67,3.609c-5.885,5.116-11.732,10.276-17.613,15.4a1.35,1.35,0,0,0-.511,1.536c1.835,7.953,3.63,15.915,5.447,23.873a4.651,4.651,0,0,1-1.706,5.171,4.619,4.619,0,0,1-5.51.133C-42.61-34.233-49.6-38.4-56.564-42.61a1.461,1.461,0,0,0-1.772.033Q-68.757-36.3-79.208-30.085a4.731,4.731,0,0,1-6.446-.96,4.785,4.785,0,0,1-.848-4.179q2.717-11.938,5.454-23.871a1.54,1.54,0,0,0-.56-1.759Q-90.829-68.868-100-76.944a4.585,4.585,0,0,1-1.578-5.13,4.49,4.49,0,0,1,4.139-3.289c4.886-.462,9.775-.9,14.662-1.346,3.393-.309,6.785-.62,10.18-.908a1.056,1.056,0,0,0,.993-.764c3.2-7.538,6.437-15.061,9.636-22.6a4.8,4.8,0,0,1,4.192-3.263,4.711,4.711,0,0,1,4.831,3.206c2.948,6.894,5.984,13.752,8.778,20.708a3.964,3.964,0,0,0,3.971,2.951c7.286.494,14.55,1.3,21.831,1.878,2.7.216,4.525,1.341,5.294,3.993Z" transform="translate(154.443 168.736)" fill="none" stroke="#707070" stroke-width="1" opacity="0.09"/>
    <g id="Group_44921" data-name="Group 44921" transform="translate(80.59 90.152)">
      <g id="Group_44861" data-name="Group 44861" transform="translate(0 0)">
        <g id="Group_44860" data-name="Group 44860">
          <g id="Group_44858" data-name="Group 44858">
            <path id="Path_58990" data-name="Path 58990" d="M90.28,34.427a1.14,1.14,0,0,1-1.141-1.135,2.666,2.666,0,1,0-5.331,0,1.141,1.141,0,0,1-2.281,0,4.949,4.949,0,0,1,9.9,0A1.144,1.144,0,0,1,90.28,34.427Z" transform="translate(-81.527 -28.342)" fill="#182226"/>
          </g>
          <g id="Group_44859" data-name="Group 44859" transform="translate(24.839)">
            <path id="Path_58991" data-name="Path 58991" d="M95.093,34.427a1.144,1.144,0,0,1-1.146-1.135,2.666,2.666,0,1,0-5.331,0,1.138,1.138,0,0,1-2.276,0,4.949,4.949,0,1,1,9.9,0A1.144,1.144,0,0,1,95.093,34.427Z" transform="translate(-86.34 -28.342)" fill="#182226"/>
          </g>
        </g>
      </g>
      <g id="Group_44863" data-name="Group 44863" transform="translate(5.137 16.984)">
        <g id="Group_44862" data-name="Group 44862">
          <path id="Path_58992" data-name="Path 58992" d="M94.751,42.042c-5.512,0-11.483-3.133-12.221-9.129a1.141,1.141,0,1,1,2.266-.274c.573,4.624,5.553,7.127,9.955,7.127s9.387-2.5,9.95-7.127a1.144,1.144,0,0,1,2.271.274C106.233,38.909,100.268,42.042,94.751,42.042Z" transform="translate(-82.523 -31.633)" fill="#182226"/>
        </g>
      </g>
    </g>
  </g>
</svg>
