<svg xmlns="http://www.w3.org/2000/svg" width="31" height="31" viewBox="0 0 31 31">
  <g id="chat" transform="translate(-323 -208)">
    <circle id="bg" cx="15.5" cy="15.5" r="15.5" transform="translate(323 208)" fill="#f1f4fe"/>
    <g id="chat_icon" transform="translate(326 121.608)">
      <path id="Path_68723" data-name="Path 68723" d="M5,102.833c.04-.228.068-.46.123-.684a4.421,4.421,0,0,1,1.769-2.576.411.411,0,0,0,.191-.3A5.349,5.349,0,0,1,9.43,95.5a5.884,5.884,0,0,1,2.977-1.084,6.087,6.087,0,0,1,5.415,2.162A5.022,5.022,0,0,1,19,100.574a1.255,1.255,0,0,1-.046.255.545.545,0,0,1-1.057-.189c0-.191.042-.382.046-.574a4.147,4.147,0,0,0-1.2-3.051,4.809,4.809,0,0,0-2.714-1.44,5.117,5.117,0,0,0-4.444,1.2,4.144,4.144,0,0,0-1.423,2.66,3.892,3.892,0,0,0,.555,2.536,4.788,4.788,0,0,0,2.747,2.163,4.948,4.948,0,0,0,2.438.161,9.552,9.552,0,0,0,1.171-.325.762.762,0,0,1,.582.023c.553.25,1.11.492,1.666.736l.153.064c-.024-.069-.037-.114-.055-.157-.189-.47-.383-.938-.568-1.41a.544.544,0,0,1,.39-.764.55.55,0,0,1,.629.365c.162.392.319.787.478,1.18.214.529.431,1.057.642,1.587a.543.543,0,0,1-.383.785.752.752,0,0,1-.395-.064c-.914-.394-1.824-.8-2.733-1.2a.365.365,0,0,0-.284-.014c-.3.1-.606.168-.909.256a.268.268,0,0,0-.138.092,4.962,4.962,0,0,1-4.777,2.2,7.52,7.52,0,0,1-1.161-.25.351.351,0,0,0-.247.011c-.692.309-1.386.614-2.079.919l-.225.1h-.22A.666.666,0,0,1,5,107.992v-.22c.263-.65.525-1.3.792-1.948a.229.229,0,0,0-.028-.249,4.1,4.1,0,0,1-.687-1.641c-.026-.147-.051-.295-.077-.442Zm2.089-1.987a.047.047,0,0,0-.02.013,3.185,3.185,0,0,0-.928,2.792,3.124,3.124,0,0,0,.71,1.55.61.61,0,0,1,.1.677c-.07.164-.133.33-.2.5l-.184.455c.075-.03.116-.046.156-.063.313-.138.632-.265.938-.417a.928.928,0,0,1,.788-.026,4.056,4.056,0,0,0,3.666-.371,7.468,7.468,0,0,0,.6-.456A6.008,6.008,0,0,1,7.089,100.846Z" transform="translate(0 0)" fill="#001968"/>
      <path id="Path_68724" data-name="Path 68724" d="M158.869,240.237a.548.548,0,1,1-.542.557A.551.551,0,0,1,158.869,240.237Z" transform="translate(-148.057 -140.833)" fill="#001968"/>
      <path id="Path_68725" data-name="Path 68725" d="M223.3,240.792a.548.548,0,1,1-.545-.554A.551.551,0,0,1,223.3,240.792Z" transform="translate(-209.737 -140.834)" fill="#001968"/>
      <path id="Path_68726" data-name="Path 68726" d="M287.173,240.792a.548.548,0,1,1-.545-.554A.551.551,0,0,1,287.173,240.792Z" transform="translate(-271.417 -140.834)" fill="#001968"/>
    </g>
  </g>
</svg>
