<svg xmlns="http://www.w3.org/2000/svg" xmlns:xlink="http://www.w3.org/1999/xlink" width="204.602" height="176.122" viewBox="0 0 204.602 176.122">
  <defs>
    <filter id="Ellipse_3316" x="119.75" y="101.8" width="72.226" height="72.227" filterUnits="userSpaceOnUse">
      <feOffset dx="4" dy="4" input="SourceAlpha"/>
      <feGaussianBlur stdDeviation="2.5" result="blur"/>
      <feFlood flood-opacity="0.149"/>
      <feComposite operator="in" in2="blur"/>
      <feComposite in="SourceGraphic"/>
    </filter>
  </defs>
  <g id="no_business" transform="translate(-85.199 -233.111)">
    <g id="Group_47437" data-name="Group 47437" transform="translate(-448.101 -220.629)">
      <g id="Group_47434" data-name="Group 47434" transform="translate(545.829 453.74)">
        <g id="Group_47433" data-name="Group 47433" transform="translate(0 7.731)">
          <circle id="Ellipse_3303" data-name="Ellipse 3303" cx="80.508" cy="80.508" r="80.508" fill="#e7eaef"/>
        </g>
        <rect id="Rectangle_11265" data-name="Rectangle 11265" width="103.79" height="171.679" rx="9.36" transform="translate(30.39 2.222)" fill="#fff"/>
        <path id="Path_64132" data-name="Path 64132" d="M652.929,629.862H576.864a16.1,16.1,0,0,1-16.084-16.084V469.824a16.1,16.1,0,0,1,16.084-16.084h76.065a16.1,16.1,0,0,1,16.084,16.084V613.779A16.1,16.1,0,0,1,652.929,629.862ZM576.864,458.183a11.654,11.654,0,0,0-11.641,11.641V613.779a11.654,11.654,0,0,0,11.641,11.641h76.065a11.654,11.654,0,0,0,11.641-11.641V469.824a11.654,11.654,0,0,0-11.641-11.641Z" transform="translate(-532.611 -453.74)" fill="#001968"/>
      </g>
      <circle id="Ellipse_3305" data-name="Ellipse 3305" cx="5.398" cy="5.398" r="5.398" transform="translate(727.106 495.594)" fill="#e7eaef"/>
      <circle id="Ellipse_3306" data-name="Ellipse 3306" cx="3.799" cy="3.799" r="3.799" transform="translate(712.977 483.597)" fill="#2dd4bf"/>
      <circle id="Ellipse_3307" data-name="Ellipse 3307" cx="3.199" cy="3.199" r="3.199" transform="translate(534.633 492.395)" fill="#ffd9a9"/>
      <circle id="Ellipse_3308" data-name="Ellipse 3308" cx="3.199" cy="3.199" r="3.199" transform="translate(533.3 619.288)" fill="#ff8999"/>
    </g>
    <g id="Group_61996" data-name="Group 61996" transform="translate(-251.948 -116.875)">
      <path id="Path_69952" data-name="Path 69952" d="M471,402.018v54.094a2.731,2.731,0,0,0-.138.327,5.047,5.047,0,0,1-4.77,3.968c-.6.049-1.2.007-1.817.007v7.6c1.571,0,3.108.035,4.643-.013A2.053,2.053,0,0,1,471,469.048v1.911H396.786c-.134-.1-.269-.2-.4-.3a1.435,1.435,0,0,1,.509-2.567,4.009,4.009,0,0,1,.874-.071c1.56-.006,3.121,0,4.7,0v-7.5a18.859,18.859,0,0,1-2.746-.241,5.079,5.079,0,0,1-3.962-5.3q-.007-16.094,0-32.188c0-6.492-.035-12.983.033-19.474a8.38,8.38,0,0,1,.741-3.393,7.091,7.091,0,0,1,6.9-4.218q29.94-.011,59.88,0c.245,0,.491-.008.734.013a7.522,7.522,0,0,1,5.177,2.583A9.647,9.647,0,0,1,471,402.018Zm-6.76,55.49h1.028c2.031,0,2.793-.764,2.793-2.792q0-22.306,0-44.612v-.846H398.7v.824q0,22.343,0,44.686c0,.245-.009.491.015.734a2.091,2.091,0,0,0,1.589,1.9,18.409,18.409,0,0,0,2.216.129c0-1.326,0-2.523,0-3.719,0-1.451.5-1.958,1.936-1.959q4.188,0,8.377,0c1.551,0,2.031.475,2.031,2.011q0,6.651,0,13.3v.808h4.115v-.916q0-14.7,0-29.4c0-1.584.475-2.065,2.055-2.067q4.078-.005,8.156,0c1.683,0,2.133.454,2.133,2.136q0,14.7,0,29.4v.835h4.115v-.938q0-8.526,0-17.051c0-1.438.507-1.941,1.952-1.942q4.189,0,8.377,0c1.539,0,2.014.479,2.014,2.028q0,8.562,0,17.125v.785H451.9V456.9c0-1.494-.008-2.989,0-4.483a1.485,1.485,0,0,1,1.1-1.619c1.054-.279,1.836.451,1.838,1.742q.008,7.313,0,14.626v.81h6.429V436.4h-6.429c0,.318,0,.584,0,.85,0,1.641.017,3.283-.008,4.924a1.488,1.488,0,0,1-1.487,1.582,1.513,1.513,0,0,1-1.441-1.559c-.008-.146,0-.294,0-.441q0-3.16,0-6.321c0-1.541.478-2.028,2.011-2.031q4.152-.007,8.3,0c1.55,0,2.029.481,2.03,2.012q0,10.547,0,21.094Zm3.821-51.252c0-.906,0-1.736,0-2.566,0-3.314-1.75-5.053-5.085-5.053h-59.2c-.343,0-.687,0-1.027.029a4.159,4.159,0,0,0-3.837,3.218,33.508,33.508,0,0,0-.283,4.371Zm-46.1,32.321v29.39h6.394v-29.39ZM444.813,451h-6.4V467.97h6.4Zm-39.306,3.819v13.137h6.377V454.823Z" fill="#ea8ac6"/>
      <path id="Path_69953" data-name="Path 69953" d="M444.681,521.074c2.809-2.816,5.6-5.6,8.358-8.414.135-.138.08-.57-.019-.811a5.163,5.163,0,0,1,.627-5.406,5,5,0,0,1,5.121-2,5.286,5.286,0,0,1,3.975,7.123c-.079.2-.172.4-.273.633l5.1,5.093c1.559,1.558,3.124,3.11,4.668,4.683a.768.768,0,0,0,.959.214,5.155,5.155,0,0,1,3.932.09.771.771,0,0,0,.681-.1q4.7-4.653,9.358-9.344c.031-.031.034-.089.066-.177a5.288,5.288,0,1,1,9.626-3.053,5.239,5.239,0,0,1-4.406,5.188,7.43,7.43,0,0,1-2.245-.109,1,1,0,0,0-1.026.3q-4.556,4.587-9.142,9.144a.769.769,0,0,0-.183,1.007,5.268,5.268,0,1,1-9.654-.236.725.725,0,0,0-.154-1q-4.617-4.578-9.2-9.193a.758.758,0,0,0-1.005-.222,4.8,4.8,0,0,1-3.783.083.782.782,0,0,0-.965.214q-3.984,4.016-8,8a.667.667,0,0,0-.146.883,5.268,5.268,0,1,1-9.979,3.261,5,5,0,0,1,1.509-5.025,5.129,5.129,0,0,1,5.378-1.159C444.11,520.825,444.354,520.942,444.681,521.074Zm46.958-13.789a2.347,2.347,0,1,0,2.28,2.39A2.359,2.359,0,0,0,491.639,507.285ZM477.317,527.17a2.345,2.345,0,1,0-2.364,2.305A2.356,2.356,0,0,0,477.317,527.17Zm-17.162-17.562a2.326,2.326,0,0,0-2.329-2.325,2.348,2.348,0,1,0,2.329,2.325Zm-15.727,16.139a2.322,2.322,0,0,0-2.287-2.367,2.337,2.337,0,1,0-.052,4.672A2.3,2.3,0,0,0,444.427,525.748Z" transform="translate(-33.504 -88.655)" fill="#fdb8e3"/>
      <path id="Path_69954" data-name="Path 69954" d="M437.568,499.253c-1.1,0-2.2.012-3.306,0a1.479,1.479,0,1,1,.013-2.932q3.306-.021,6.611,0a1.479,1.479,0,1,1-.013,2.931C439.772,499.264,438.67,499.253,437.568,499.253Z" transform="translate(-30.061 -82.092)" fill="#fdb8e3"/>
      <path id="Path_69955" data-name="Path 69955" d="M437.535,537.591c-1.077,0-2.155.009-3.232,0a1.53,1.53,0,0,1-1.715-1.43c-.026-.875.663-1.5,1.716-1.5q3.269-.019,6.538,0c1.053.006,1.742.63,1.715,1.5a1.53,1.53,0,0,1-1.716,1.429C439.739,537.6,438.637,537.591,437.535,537.591Z" transform="translate(-30.059 -113.374)" fill="#fdb8e3"/>
      <path id="Path_69956" data-name="Path 69956" d="M503.557,497.86a1.465,1.465,0,0,1-1.438,1.462,1.459,1.459,0,1,1-.006-2.918A1.463,1.463,0,0,1,503.557,497.86Z" transform="translate(-85.599 -82.172)" fill="#fdb8e3"/>
      <path id="Path_69957" data-name="Path 69957" d="M702.341,672.394a1.443,1.443,0,1,1,1.441-1.466A1.48,1.48,0,0,1,702.341,672.394Z" transform="translate(-248.956 -223.413)" fill="#fdb8e3"/>
      <path id="Path_69958" data-name="Path 69958" d="M583.225,424.436h15.719c.171,0,.343,0,.514,0,1.123.012,1.824.583,1.816,1.48s-.7,1.458-1.836,1.458q-16.233,0-32.467,0c-1.356,0-2.164-.987-1.682-2.046a1.636,1.636,0,0,1,1.7-.9c3.428.009,6.856,0,10.284,0Z" transform="translate(-138.221 -23.446)" fill="#fdb8e3"/>
      <path id="Path_69959" data-name="Path 69959" d="M440.429,424.519a1.458,1.458,0,1,1-1.45,1.465A1.518,1.518,0,0,1,440.429,424.519Z" transform="translate(-35.274 -23.517)" fill="#fdb8e3"/>
      <path id="Path_69960" data-name="Path 69960" d="M472.374,424.519a1.458,1.458,0,1,1-1.457,1.459A1.52,1.52,0,0,1,472.374,424.519Z" transform="translate(-61.334 -23.517)" fill="#fdb8e3"/>
      <path id="Path_69961" data-name="Path 69961" d="M504.278,424.517a1.458,1.458,0,1,1-1.425,1.49A1.513,1.513,0,0,1,504.278,424.517Z" transform="translate(-87.391 -23.515)" fill="#fdb8e3"/>
    </g>
    <g transform="matrix(1, 0, 0, 1, 85.2, 233.11)" filter="url(#Ellipse_3316)">
      <circle id="Ellipse_3316-2" data-name="Ellipse 3316" cx="28.613" cy="28.613" r="28.613" transform="translate(123.25 105.3)" fill="#fff"/>
    </g>
    <g id="Group_61994" data-name="Group 61994" transform="translate(-170.066 -63.012)">
      <path id="Path_69946" data-name="Path 69946" d="M419.139,423.753v15.41a.238.238,0,0,0-.029.062,2.078,2.078,0,0,1-2.128,1.765q-9.516-.009-19.033-.006a2.314,2.314,0,0,1-.608-.072,2.044,2.044,0,0,1-1.546-2.121q0-7.374,0-14.747c0-.592.249-.837.85-.837h6.035c0-.235,0-.432,0-.629a2.054,2.054,0,0,1,2.107-2.1c1.785-.009,3.571-.013,5.356.007a2.346,2.346,0,0,1,.942.211,1.982,1.982,0,0,1,1.168,1.882c.006.209,0,.418,0,.633h.31c1.9,0,3.8.007,5.7-.006A.784.784,0,0,1,419.139,423.753Zm-15.09,9.027h-3.7a2.07,2.07,0,0,1-2.134-1.54q-.461-1.381-.921-2.763c-.028-.083-.06-.164-.09-.245l-.036.007v.218q0,5.151,0,10.3c0,.624.24.86.872.86h18.871c.626,0,.865-.24.865-.868q0-5.139,0-10.279v-.234a.332.332,0,0,0-.1.161q-.476,1.424-.952,2.848a2.068,2.068,0,0,1-2.117,1.533h-3.719c0,.234,0,.438,0,.642a.681.681,0,0,1-.71.723q-2.712.006-5.424,0a.677.677,0,0,1-.7-.708C404.045,433.227,404.049,433.016,404.049,432.78Zm-6.607-8.2c.013.048.021.084.032.119q1.028,3.087,2.058,6.173a.7.7,0,0,0,.774.537q1.778,0,3.555,0c.058,0,.116-.009.187-.015,0-.21,0-.407,0-.6a.69.69,0,0,1,.756-.748q2.666,0,5.333,0a.69.69,0,0,1,.75.754c0,.2,0,.4,0,.613h3.657a.765.765,0,0,0,.9-.65q.723-2.169,1.447-4.338c.2-.61.4-1.22.611-1.841Zm6.606-1.39h6.838c0-.222,0-.433,0-.644a.686.686,0,0,0-.722-.711c-.25,0-.5,0-.751,0q-2.3,0-4.6,0a.693.693,0,0,0-.764.761C404.047,422.79,404.049,422.979,404.049,423.194Zm1.378,9.571H409.5v-1.341h-4.075Z" transform="translate(0 0)" fill="#c80880"/>
    </g>
  </g>
</svg>
