<svg xmlns="http://www.w3.org/2000/svg" xmlns:xlink="http://www.w3.org/1999/xlink" width="204.602" height="176.122" viewBox="0 0 204.602 176.122">
  <defs>
    <filter id="Ellipse_3316" x="119.75" y="101.8" width="72.226" height="72.227" filterUnits="userSpaceOnUse">
      <feOffset dx="4" dy="4" input="SourceAlpha"/>
      <feGaussianBlur stdDeviation="2.5" result="blur"/>
      <feFlood flood-opacity="0.149"/>
      <feComposite operator="in" in2="blur"/>
      <feComposite in="SourceGraphic"/>
    </filter>
  </defs>
  <g id="no_groups" transform="translate(-85.199 -233.111)">
    <g id="Group_47437" data-name="Group 47437" transform="translate(-448.101 -220.629)">
      <g id="Group_47434" data-name="Group 47434" transform="translate(545.829 453.74)">
        <g id="Group_47433" data-name="Group 47433" transform="translate(0 7.731)">
          <circle id="Ellipse_3303" data-name="Ellipse 3303" cx="80.508" cy="80.508" r="80.508" fill="#e7eaef"/>
        </g>
        <rect id="Rectangle_11265" data-name="Rectangle 11265" width="103.79" height="171.679" rx="9.36" transform="translate(30.39 2.222)" fill="#fff"/>
        <path id="Path_64132" data-name="Path 64132" d="M652.929,629.862H576.864a16.1,16.1,0,0,1-16.084-16.084V469.824a16.1,16.1,0,0,1,16.084-16.084h76.065a16.1,16.1,0,0,1,16.084,16.084V613.779A16.1,16.1,0,0,1,652.929,629.862ZM576.864,458.183a11.654,11.654,0,0,0-11.641,11.641V613.779a11.654,11.654,0,0,0,11.641,11.641h76.065a11.654,11.654,0,0,0,11.641-11.641V469.824a11.654,11.654,0,0,0-11.641-11.641Z" transform="translate(-532.611 -453.74)" fill="#001968"/>
        <g id="Group_47453" data-name="Group 47453" transform="translate(-911.248 -472.239)">
          <rect id="Rectangle_11268" data-name="Rectangle 11268" width="67.37" height="101.88" rx="4.86" transform="translate(960.44 509.36)" fill="#ffd6f0"/>
          <g id="Group_47450" data-name="Group 47450">
            <rect id="Rectangle_11269" data-name="Rectangle 11269" width="82.62" height="28.957" rx="4.86" transform="translate(952.52 514.76)" fill="#fdb8e3"/>
            <rect id="Rectangle_11270" data-name="Rectangle 11270" width="4.23" height="4.23" rx="2.115" transform="translate(1012.64 534.11)" fill="#fdb8e3"/>
            <rect id="Rectangle_11271" data-name="Rectangle 11271" width="4.23" height="4.23" rx="2.115" transform="translate(1018.11 534.11)" fill="#fdb8e3"/>
            <rect id="Rectangle_11272" data-name="Rectangle 11272" width="4.23" height="4.23" rx="2.115" transform="translate(1023.58 534.11)" fill="#fdb8e3"/>
          </g>
          <g id="Group_47451" data-name="Group 47451">
            <rect id="Rectangle_11273" data-name="Rectangle 11273" width="82.62" height="28.957" rx="4.86" transform="translate(952.52 545.76)" fill="#fdb8e3"/>
            <rect id="Rectangle_11274" data-name="Rectangle 11274" width="4.23" height="4.23" rx="2.115" transform="translate(1012.64 565.11)" fill="#fdb8e3"/>
            <rect id="Rectangle_11275" data-name="Rectangle 11275" width="4.23" height="4.23" rx="2.115" transform="translate(1018.11 565.11)" fill="#fdb8e3"/>
            <rect id="Rectangle_11276" data-name="Rectangle 11276" width="4.23" height="4.23" rx="2.115" transform="translate(1023.58 565.11)" fill="#fdb8e3"/>
          </g>
          <g id="Group_47452" data-name="Group 47452">
            <rect id="Rectangle_11277" data-name="Rectangle 11277" width="82.62" height="28.957" rx="4.86" transform="translate(952.52 578.76)" fill="#fdb8e3"/>
            <rect id="Rectangle_11278" data-name="Rectangle 11278" width="4.23" height="4.23" rx="2.115" transform="translate(1012.64 598.11)" fill="#fdb8e3"/>
            <rect id="Rectangle_11279" data-name="Rectangle 11279" width="4.23" height="4.23" rx="2.115" transform="translate(1018.11 598.11)" fill="#fdb8e3"/>
            <rect id="Rectangle_11280" data-name="Rectangle 11280" width="4.23" height="4.23" rx="2.115" transform="translate(1023.58 598.11)" fill="#fdb8e3"/>
          </g>
        </g>
      </g>
      <circle id="Ellipse_3305" data-name="Ellipse 3305" cx="5.398" cy="5.398" r="5.398" transform="translate(727.106 495.594)" fill="#e7eaef"/>
      <circle id="Ellipse_3306" data-name="Ellipse 3306" cx="3.799" cy="3.799" r="3.799" transform="translate(712.977 483.597)" fill="#2dd4bf"/>
      <circle id="Ellipse_3307" data-name="Ellipse 3307" cx="3.199" cy="3.199" r="3.199" transform="translate(534.633 492.395)" fill="#ffd9a9"/>
      <circle id="Ellipse_3308" data-name="Ellipse 3308" cx="3.199" cy="3.199" r="3.199" transform="translate(533.3 619.288)" fill="#ff8999"/>
    </g>
    <g transform="matrix(1, 0, 0, 1, 85.2, 233.11)" filter="url(#Ellipse_3316)">
      <circle id="Ellipse_3316-2" data-name="Ellipse 3316" cx="28.613" cy="28.613" r="28.613" transform="translate(123.25 105.3)" fill="#fff"/>
    </g>
    <g id="Group_61916" data-name="Group 61916" transform="translate(-139.393 -8.383)">
      <path id="Path_69897" data-name="Path 69897" d="M360,363.954v-.621c.02-.079.042-.157.059-.237a2.636,2.636,0,1,1,4.348,2.482.264.264,0,0,0-.064.369c.415.855.82,1.714,1.229,2.571.043.091.091.179.143.28a6.28,6.28,0,0,1,4.472.013,6.386,6.386,0,0,1,3.377,2.973l5.828-2.469a6.207,6.207,0,0,1-.079-3.672l-1.7-.626c-.043.054-.076.092-.107.133a2.625,2.625,0,1,1,.491-1.359c0,.088.029.237.084.259.523.209,1.054.4,1.578.587a6.362,6.362,0,1,1,4.1,8.842l-2.579,7.153a6.524,6.524,0,0,1,2.365,1.873l2.872-1.864c.043-.028.111-.047.125-.086a.53.53,0,0,0,.057-.3,2.644,2.644,0,0,1,2.239-3.374,2.674,2.674,0,0,1,2.564,1.291,2.633,2.633,0,0,1-3.979,3.336c-.135-.109-.227-.133-.373-.026-.25.182-.517.343-.777.512l-2.138,1.389c.064.141.118.262.173.382a6.328,6.328,0,0,1-3.557,8.564c-.509.185-1.051.28-1.577.416H377.94a1.026,1.026,0,0,0-.173-.054,6.071,6.071,0,0,1-4.178-2.356,20.122,20.122,0,0,1-1.182-1.932c.044,0,0-.008-.036,0-.714.167-1.429.327-2.138.514-.081.021-.166.185-.176.29a2.641,2.641,0,1,1-5.051-1.245,2.544,2.544,0,0,1,2.316-1.554,2.507,2.507,0,0,1,2.366,1.309.273.273,0,0,0,.371.147c.408-.112.824-.2,1.235-.294.317-.076.633-.157.959-.238a6.409,6.409,0,0,1,1.635-5.272l-2.074-2.278a6.388,6.388,0,0,1-6.482.755c-.289.518-.563,1.025-.856,1.521a.285.285,0,0,0,.06.4,3.232,3.232,0,0,1,.393.515,2.61,2.61,0,0,1-.77,3.464,2.672,2.672,0,0,1-3.47-.4,3.162,3.162,0,0,1-.69-1.492V384c.018-.068.039-.134.053-.2a2.65,2.65,0,0,1,3.39-2.039l.958-1.727a6.406,6.406,0,0,1,.336-10.8l-1.45-3.044a2.575,2.575,0,0,1-2.749-1.012A6.319,6.319,0,0,1,360,363.954Zm20.192,16.315,2.586-7.17a6.505,6.505,0,0,1-2.968-2.792c-.061.017-.091.023-.118.035-1.835.776-3.667,1.557-5.506,2.325-.212.089-.175.2-.131.361a6.168,6.168,0,0,1-.628,4.9c-.236.405-.533.775-.81,1.172l2.059,2.26A6.327,6.327,0,0,1,380.192,380.268Zm2.336,9.578a5.281,5.281,0,1,0-8.266-6.559,5.139,5.139,0,0,0,.3,6.5,3.849,3.849,0,0,1,2.067-2.074,2.657,2.657,0,0,1,.095-3.768,2.624,2.624,0,0,1,3.6-.015,2.661,2.661,0,0,1,.112,3.785A3.888,3.888,0,0,1,382.528,389.847Zm6.89-19.092a5.273,5.273,0,1,0-8.024-.062,5.328,5.328,0,0,1,2.083-2.092,2.648,2.648,0,0,1,3.479-3.954,2.614,2.614,0,0,1,1.049,1.595,2.67,2.67,0,0,1-.683,2.41A3.874,3.874,0,0,1,389.418,370.755Zm-17.473,7.408a5.274,5.274,0,1,0-7.987-.011,3.817,3.817,0,0,1,2.062-2.081,2.679,2.679,0,0,1,.075-3.748,2.645,2.645,0,0,1,3.337-.283,2.578,2.578,0,0,1,1.064,1.55,2.666,2.666,0,0,1-.648,2.463C371.031,376.729,371.031,376.729,371.945,378.163Zm-.9.838a2.592,2.592,0,0,0-2.29-2.1,7.333,7.333,0,0,0-1.761.023,2.524,2.524,0,0,0-2.11,1.857.265.265,0,0,0,.113.359A5.23,5.23,0,0,0,371.044,379Zm7.456,9.53c-.208,0-.446-.011-.683,0a2.651,2.651,0,0,0-2.328,1.846.339.339,0,0,0,.167.452,5.22,5.22,0,0,0,5.833-.066.344.344,0,0,0,.1-.3,2.55,2.55,0,0,0-.923-1.392A2.942,2.942,0,0,0,378.5,388.531Zm6.951-19.057c-.268,0-.538-.014-.805,0a2.646,2.646,0,0,0-2.281,1.9.281.281,0,0,0,.135.357,5.3,5.3,0,0,0,5.87-.011.257.257,0,0,0,.122-.33,2.68,2.68,0,0,0-.96-1.407A2.859,2.859,0,0,0,385.45,369.474ZM375.36,365.2a1.585,1.585,0,1,0-1.581-1.576A1.585,1.585,0,0,0,375.36,365.2Zm11.648,1.589a1.584,1.584,0,1,0-1.567,1.587A1.574,1.574,0,0,0,387.008,366.793Zm-24.354,15.9a1.584,1.584,0,1,0,1.576,1.58A1.6,1.6,0,0,0,362.654,382.7Zm3.179,6.351a1.584,1.584,0,0,0,3.168.012,1.584,1.584,0,1,0-3.168-.012Zm-1.6-25.427a1.585,1.585,0,1,0-1.571,1.584A1.577,1.577,0,0,0,364.23,363.619Zm24.9,17.473a1.585,1.585,0,1,0-1.579-1.576A1.593,1.593,0,0,0,389.133,381.092Zm-10.6,3.191a1.586,1.586,0,1,0,1.586,1.574A1.586,1.586,0,0,0,378.528,384.283Zm-9.012-10.075a1.575,1.575,0,0,0-1.58-1.574,1.584,1.584,0,1,0,1.58,1.574Z" fill="#c80880"/>
    </g>
  </g>
</svg>
