<svg xmlns="http://www.w3.org/2000/svg" xmlns:xlink="http://www.w3.org/1999/xlink" width="204.602" height="176.122" viewBox="0 0 204.602 176.122">
  <defs>
    <filter id="Path_69981" x="119.75" y="101.8" width="72.226" height="72.227" filterUnits="userSpaceOnUse">
      <feOffset dx="4" dy="4" input="SourceAlpha"/>
      <feGaussianBlur stdDeviation="2.5" result="blur"/>
      <feFlood flood-opacity="0.149"/>
      <feComposite operator="in" in2="blur"/>
      <feComposite in="SourceGraphic"/>
    </filter>
  </defs>
  <g id="no_commection" transform="translate(-85.199 -233.111)">
    <g id="Group_47437" data-name="Group 47437" transform="translate(-448.101 -220.629)">
      <g id="Group_47434" data-name="Group 47434" transform="translate(545.829 453.74)">
        <g id="Group_47433" data-name="Group 47433" transform="translate(0 7.731)">
          <circle id="Ellipse_3303" data-name="Ellipse 3303" cx="80.508" cy="80.508" r="80.508" fill="#e7eaef"/>
        </g>
        <rect id="Rectangle_11265" data-name="Rectangle 11265" width="103.79" height="171.679" rx="9.36" transform="translate(30.39 2.222)" fill="#fff"/>
        <path id="Path_64132" data-name="Path 64132" d="M652.929,629.862H576.864a16.1,16.1,0,0,1-16.084-16.084V469.824a16.1,16.1,0,0,1,16.084-16.084h76.065a16.1,16.1,0,0,1,16.084,16.084V613.779A16.1,16.1,0,0,1,652.929,629.862ZM576.864,458.183a11.654,11.654,0,0,0-11.641,11.641V613.779a11.654,11.654,0,0,0,11.641,11.641h76.065a11.654,11.654,0,0,0,11.641-11.641V469.824a11.654,11.654,0,0,0-11.641-11.641Z" transform="translate(-532.611 -453.74)" fill="#001968"/>
      </g>
      <circle id="Ellipse_3305" data-name="Ellipse 3305" cx="5.398" cy="5.398" r="5.398" transform="translate(727.106 495.594)" fill="#e7eaef"/>
      <circle id="Ellipse_3306" data-name="Ellipse 3306" cx="3.799" cy="3.799" r="3.799" transform="translate(712.977 483.597)" fill="#2dd4bf"/>
      <circle id="Ellipse_3307" data-name="Ellipse 3307" cx="3.199" cy="3.199" r="3.199" transform="translate(534.633 492.395)" fill="#ffd9a9"/>
      <circle id="Ellipse_3308" data-name="Ellipse 3308" cx="3.199" cy="3.199" r="3.199" transform="translate(533.3 619.288)" fill="#ff8999"/>
    </g>
    <g transform="matrix(1, 0, 0, 1, 85.2, 233.11)" filter="url(#Path_69981)">
      <path id="Path_69981-2" data-name="Path 69981" d="M28.613,0A28.613,28.613,0,1,1,0,28.613,28.613,28.613,0,0,1,28.613,0Z" transform="translate(123.25 105.3)" fill="#fff"/>
    </g>
    <g id="Group_47436" data-name="Group 47436" transform="translate(147.265 283.201)">
      <g id="Group_47435" data-name="Group 47435">
        <path id="Path_64134" data-name="Path 64134" d="M580.873,495.143a12.348,12.348,0,0,1,1.683,1.2q27.123,27.083,54.207,54.2a12.948,12.948,0,0,1,1.243,1.726v.936a2.772,2.772,0,0,1-1.874,1.874H635.2a13.04,13.04,0,0,1-1.728-1.242q-9.481-9.434-18.909-18.92a8.461,8.461,0,0,0-4.05-2.184c-3.837-1-7.139.2-10.122,2.591-.274.221-.518.475-.792.7a2.311,2.311,0,0,1-3.219-.2,2.233,2.233,0,0,1,.116-3.252,29.074,29.074,0,0,1,3.851-2.827,14.433,14.433,0,0,1,6.3-1.977c.174-.013.345-.056.583-.1-.143-.161-.247-.294-.365-.412-2.234-2.236-4.477-4.463-6.7-6.714a.691.691,0,0,0-.9-.159,25.359,25.359,0,0,0-8.428,5.58,2.47,2.47,0,0,1-2.362.848,2.235,2.235,0,0,1-1.758-1.618,2.165,2.165,0,0,1,.669-2.393c1.439-1.255,2.87-2.531,4.414-3.647,1.349-.976,2.847-1.745,4.211-2.565l-6.367-6.369a24.257,24.257,0,0,0-2.208,1.505c-1.786,1.509-3.532,3.062-5.267,4.631a2.349,2.349,0,0,1-3.592-.109,6.562,6.562,0,0,1-.519-.973v-.936a14.4,14.4,0,0,1,1.2-1.683,38.275,38.275,0,0,1,6.5-5.484c.186-.125.362-.266.574-.422-.187-.2-.33-.352-.478-.5-2.189-2.189-4.394-4.362-6.556-6.576a13.79,13.79,0,0,1-1.24-1.725v-.936a2.773,2.773,0,0,1,1.874-1.874Z" transform="translate(-578.063 -495.143)" fill="#ea8ac6"/>
        <path id="Path_64135" data-name="Path 64135" d="M630.374,513.182a2.011,2.011,0,0,0-.108.206,2.334,2.334,0,0,1-4,.871c-1.232-1.164-2.423-2.384-3.738-3.449a34.387,34.387,0,0,0-17.324-7.479,36.964,36.964,0,0,0-12.618.511,2.333,2.333,0,0,1-2.921-1.887,2.4,2.4,0,0,1,2.072-2.709,41.274,41.274,0,0,1,12.8-.715,39.339,39.339,0,0,1,17.536,6.15,37.837,37.837,0,0,1,7.107,5.877,14.458,14.458,0,0,1,1.2,1.688Z" transform="translate(-570.431 -493.046)" fill="#ea8ac6"/>
        <path id="Path_64136" data-name="Path 64136" d="M579.937,495.143a2.773,2.773,0,0,0-1.874,1.874v-1.874Z" transform="translate(-578.063 -495.143)" fill="#ea8ac6"/>
        <path id="Path_64137" data-name="Path 64137" d="M613.048,532a2.772,2.772,0,0,0,1.874-1.874V532Z" transform="translate(-554.979 -472.059)" fill="#ea8ac6"/>
        <path id="Path_64138" data-name="Path 64138" d="M597.588,531.078a3.859,3.859,0,1,1,3.856-3.834A3.889,3.889,0,0,1,597.588,531.078Z" transform="translate(-567.729 -476.525)" fill="#ea8ac6"/>
        <path id="Path_64139" data-name="Path 64139" d="M600.146,506.765c.619.139,1.539.31,2.438.558a30.017,30.017,0,0,1,13.269,7.773,2.342,2.342,0,0,1,.181,3.354,2.293,2.293,0,0,1-3.348.073,29.81,29.81,0,0,0-5.7-4.355,24.5,24.5,0,0,0-7.132-2.686,6.749,6.749,0,0,1-.793-.2,2.337,2.337,0,0,1-1.565-2.573A2.423,2.423,0,0,1,600.146,506.765Z" transform="translate(-565.265 -487.475)" fill="#ea8ac6"/>
      </g>
    </g>
    <path id="Path_64133" data-name="Path 64133" d="M643.251,536.347l.541,9.333a.943.943,0,0,0,.942.889h3.984a.942.942,0,0,1,.714,1.558l-11.4,13.225a.943.943,0,0,1-1.657-.616v-10.13a.943.943,0,0,0-.834-.936l-5.533-.647a.943.943,0,0,1-.542-1.617l12.187-11.685A.943.943,0,0,1,643.251,536.347Z" transform="translate(-401.982 -180.321)" fill="none" stroke="#c80880" stroke-width="1.5"/>
  </g>
</svg>
