<svg xmlns="http://www.w3.org/2000/svg" xmlns:xlink="http://www.w3.org/1999/xlink" width="204.602" height="176.122" viewBox="0 0 204.602 176.122">
  <defs>
    <clipPath id="clip-path">
      <circle id="Ellipse_3323" data-name="Ellipse 3323" cx="15.071" cy="15.071" r="15.071" transform="translate(0 21.314) rotate(-45)" fill="#008a36"/>
    </clipPath>
    <clipPath id="clip-path-2">
      <path id="Path_69910" data-name="Path 69910" d="M696.007,1553.3l-24.506,2.405s-.455-2.769-.652-5.546c-.212-2.972,2.681-5.412,3.66-5.733a13.963,13.963,0,0,1,16.357-1.6c1.022.125,4.334,1.956,4.7,4.913C695.915,1550.5,696.007,1553.3,696.007,1553.3Z" transform="translate(-670.837 -1540.908)" fill="#fff" clip-rule="evenodd"/>
    </clipPath>
    <clipPath id="clip-path-3">
      <path id="Path_69915" data-name="Path 69915" d="M824.4,1484.677l-3.016.3s.061,2.753.083,3.8a.838.838,0,0,0,.324.644h0a2.247,2.247,0,0,0,3.072-.3h0a.838.838,0,0,0,.193-.694Z" transform="translate(-821.387 -1484.677)" fill="#f5b5a3" clip-rule="evenodd"/>
    </clipPath>
    <clipPath id="clip-path-4">
      <ellipse id="Ellipse_3320" data-name="Ellipse 3320" cx="1.622" cy="1.418" rx="1.622" ry="1.418" transform="translate(0 2.779) rotate(-58.957)" fill="#f5b5a3"/>
    </clipPath>
    <clipPath id="clip-path-5">
      <ellipse id="Ellipse_3322" data-name="Ellipse 3322" cx="1.418" cy="1.622" rx="1.418" ry="1.622" transform="matrix(0.74, -0.672, 0.672, 0.74, 0, 1.906)" fill="#f5b5a3"/>
    </clipPath>
    <filter id="Ellipse_3316" x="119.75" y="101.8" width="72.226" height="72.227" filterUnits="userSpaceOnUse">
      <feOffset dx="4" dy="4" input="SourceAlpha"/>
      <feGaussianBlur stdDeviation="2.5" result="blur"/>
      <feFlood flood-opacity="0.149"/>
      <feComposite operator="in" in2="blur"/>
      <feComposite in="SourceGraphic"/>
    </filter>
  </defs>
  <g id="no_jobs" transform="translate(-85.199 -233.111)">
    <g id="Group_47437" data-name="Group 47437" transform="translate(-448.101 -220.629)">
      <g id="Group_47434" data-name="Group 47434" transform="translate(545.829 453.74)">
        <g id="Group_47433" data-name="Group 47433" transform="translate(0 7.731)">
          <circle id="Ellipse_3303" data-name="Ellipse 3303" cx="80.508" cy="80.508" r="80.508" fill="#e7eaef"/>
        </g>
        <rect id="Rectangle_11265" data-name="Rectangle 11265" width="103.79" height="171.679" rx="9.36" transform="translate(30.39 2.222)" fill="#fff"/>
        <path id="Path_64132" data-name="Path 64132" d="M652.929,629.862H576.864a16.1,16.1,0,0,1-16.084-16.084V469.824a16.1,16.1,0,0,1,16.084-16.084h76.065a16.1,16.1,0,0,1,16.084,16.084V613.779A16.1,16.1,0,0,1,652.929,629.862ZM576.864,458.183a11.654,11.654,0,0,0-11.641,11.641V613.779a11.654,11.654,0,0,0,11.641,11.641h76.065a11.654,11.654,0,0,0,11.641-11.641V469.824a11.654,11.654,0,0,0-11.641-11.641Z" transform="translate(-532.611 -453.74)" fill="#001968"/>
      </g>
      <circle id="Ellipse_3305" data-name="Ellipse 3305" cx="5.398" cy="5.398" r="5.398" transform="translate(727.106 495.594)" fill="#e7eaef"/>
      <circle id="Ellipse_3306" data-name="Ellipse 3306" cx="3.799" cy="3.799" r="3.799" transform="translate(712.977 483.597)" fill="#2dd4bf"/>
      <circle id="Ellipse_3307" data-name="Ellipse 3307" cx="3.199" cy="3.199" r="3.199" transform="translate(534.633 492.395)" fill="#ffd9a9"/>
      <circle id="Ellipse_3308" data-name="Ellipse 3308" cx="3.199" cy="3.199" r="3.199" transform="translate(533.3 619.288)" fill="#ff8999"/>
    </g>
    <g id="OBJECT" transform="matrix(0.978, 0.208, -0.208, 0.978, 294.458, -700.768)">
      <g id="Group_61993" data-name="Group 61993" transform="translate(50.295 960.704)">
        <g id="Group_61992" data-name="Group 61992" transform="translate(0 0)">
          <g id="Group_61991" data-name="Group 61991">
            <g id="Group_61919" data-name="Group 61919" transform="translate(70.099 62.022)">
              <g id="Group_61918" data-name="Group 61918">
                <g id="Group_61917" data-name="Group 61917">
                  <path id="Path_69898" data-name="Path 69898" d="M1168.332,1967.389s4.264,1.89,5.384,5.466l.105,1.075a28.089,28.089,0,0,1-5.845,6.307s-4.2-1.258-6.279-4.386a3.117,3.117,0,0,1-.635-2.554Z" transform="translate(-1159.744 -1964.93)" fill="#e48182" fill-rule="evenodd"/>
                  <path id="Path_69899" data-name="Path 69899" d="M1149.227,1931.005c3.978,2.9,4.356,3.612,6.409,7.282.365.579-4.543,6.24-5.839,6.367,0,0-6.151-3.082-7.805-6.614C1140.8,1935.31,1141.76,1925.482,1149.227,1931.005Z" transform="translate(-1141.564 -1929.348)" fill="#fdd5d5" fill-rule="evenodd"/>
                </g>
              </g>
            </g>
            <g id="Group_61922" data-name="Group 61922">
              <g id="Group_61920" data-name="Group 61920">
                <path id="Path_69900" data-name="Path 69900" d="M65.855,986.347l-2.928.583a7.3,7.3,0,0,0-5.731,8.581l17.595,88.353a7.3,7.3,0,0,0,8.581,5.731l64.41-12.826a13.373,13.373,0,0,0,6.5-11.159l-8.372-85.316a2.693,2.693,0,0,0-.942-1.794l-9.555-8.071a2.692,2.692,0,0,0-2-.623l-61.263,6.012a7.3,7.3,0,0,0-6.549,7.974Zm2.919,2.165-5.32,1.06a4.6,4.6,0,0,0-3.615,5.413l17.595,88.353a4.6,4.6,0,0,0,5.413,3.616l64.41-12.826a13.155,13.155,0,0,0,4.35-8.255l-8.372-85.316-9.555-8.071L72.416,978.5a4.6,4.6,0,0,0-4.132,5.031Z" transform="translate(-57.056 -969.792)" fill="#fff" fill-rule="evenodd"/>
              </g>
              <g id="Group_61921" data-name="Group 61921" transform="translate(73.994 0.006)">
                <path id="Path_69901" data-name="Path 69901" d="M1214.272,983.306a2.673,2.673,0,0,0,1.292-4.717l-9.273-8.095a3.114,3.114,0,0,0-3.245-.3,2.729,2.729,0,0,0-1.2,2.632l.423,4.315a6.881,6.881,0,0,0,2.533,4.955,7.442,7.442,0,0,0,5.42,1.6Zm-.261-2.665-9.563-8.066.423,4.315a4.641,4.641,0,0,0,1.766,3.1,4.1,4.1,0,0,0,3.319,1.048Z" transform="translate(-1201.827 -969.877)" fill="#fff" fill-rule="evenodd"/>
              </g>
            </g>
            <g id="Group_61990" data-name="Group 61990" transform="translate(2.731 2.686)">
              <g id="Group_61923" data-name="Group 61923" transform="translate(0 5.064)">
                <path id="Path_69902" data-name="Path 69902" d="M163.311,1089.7,103.1,1101.692a4.756,4.756,0,0,0-3.157,2.023,4.382,4.382,0,0,0-.505,3.423l17.594,88.353a4.316,4.316,0,0,0,1.772,2.94,4.757,4.757,0,0,0,3.691.659L186.7,1186.3a4.1,4.1,0,0,0,2.872-1.966,4.576,4.576,0,0,0,.8-3.452l-16.748-84.1Z" transform="translate(-99.305 -1089.701)" fill="#fdb8e3" fill-rule="evenodd"/>
              </g>
              <g id="Group_61989" data-name="Group 61989" transform="translate(8.551)">
                <path id="Path_69903" data-name="Path 69903" d="M296.911,1011.349l-61.1,6a4.755,4.755,0,0,0-3.341,1.7,4.382,4.382,0,0,0-.84,3.357l8.8,89.657a4.317,4.317,0,0,0,1.474,3.1,4.758,4.758,0,0,0,3.609,1.02l65.157-6.394a4.1,4.1,0,0,0,3.052-1.673,4.576,4.576,0,0,0,1.133-3.356l-8.375-85.342Z" transform="translate(-231.592 -1011.349)" fill="#ffd6f0" fill-rule="evenodd"/>
                <g id="Group_61987" data-name="Group 61987" transform="translate(13.785 6.983)">
                  <g id="Group_61965" data-name="Group 61965" transform="translate(4.29 0)">
                    <g id="Group_61964" data-name="Group 61964" transform="translate(0)">
                      <path id="Path_69945" data-name="Path 69945" d="M15.071,0A15.071,15.071,0,1,1,0,15.071,15.071,15.071,0,0,1,15.071,0Z" transform="translate(0 21.314) rotate(-45)" fill="#ea8ac6"/>
                      <g id="Group_61963" data-name="Group 61963" transform="translate(0)" clip-path="url(#clip-path)">
                        <g id="Group_61962" data-name="Group 61962" transform="translate(10.317 8.111)">
                          <g id="Group_61961" data-name="Group 61961">
                            <g id="Group_61932" data-name="Group 61932" transform="translate(0 19.135)">
                              <g id="Group_61931" data-name="Group 61931">
                                <path id="Path_69904" data-name="Path 69904" d="M696.007,1553.3l-24.506,2.405s-.455-2.769-.652-5.546c-.212-2.972,2.681-5.412,3.66-5.733a13.963,13.963,0,0,1,16.357-1.6c1.022.125,4.334,1.956,4.7,4.913C695.915,1550.5,696.007,1553.3,696.007,1553.3Z" transform="translate(-670.837 -1540.908)" fill="#fff" fill-rule="evenodd"/>
                                <g id="Group_61930" data-name="Group 61930" clip-path="url(#clip-path-2)">
                                  <g id="Group_61929" data-name="Group 61929" transform="translate(-1.97 -0.503)">
                                    <g id="Group_61924" data-name="Group 61924" transform="translate(13.345 2.891)">
                                      <path id="Path_69905" data-name="Path 69905" d="M847.717,1577.843l-.892.088.372,11.234,2.339-.229Z" transform="translate(-846.825 -1577.843)" fill="#fdb8e3" fill-rule="evenodd"/>
                                    </g>
                                    <g id="Group_61925" data-name="Group 61925" transform="translate(14.887 0.809)">
                                      <path id="Path_69906" data-name="Path 69906" d="M872.779,1545.7l-2.1,13.226,12.423-1.219S889.808,1544.622,872.779,1545.7Z" transform="translate(-870.68 -1545.636)" fill="#3c3c3c" fill-rule="evenodd"/>
                                    </g>
                                    <g id="Group_61926" data-name="Group 61926" transform="translate(0 1.533)">
                                      <path id="Path_69907" data-name="Path 69907" d="M650.612,1556.841l4.631,12.566-12.423,1.219S633.7,1559.095,650.612,1556.841Z" transform="translate(-640.363 -1556.841)" fill="#3c3c3c" fill-rule="evenodd"/>
                                    </g>
                                    <g id="Group_61927" data-name="Group 61927" transform="translate(13.619)">
                                      <path id="Path_69908" data-name="Path 69908" d="M855.261,1534.408a9.275,9.275,0,0,0-4.194-.919l5.628-.367Z" transform="translate(-851.067 -1533.123)" fill="#3c3c3c" fill-rule="evenodd"/>
                                    </g>
                                    <g id="Group_61928" data-name="Group 61928" transform="translate(7.859 0.383)">
                                      <path id="Path_69909" data-name="Path 69909" d="M763.6,1540.767a9.268,9.268,0,0,1,3.935-1.716l-5.593.734Z" transform="translate(-761.947 -1539.051)" fill="#3c3c3c" fill-rule="evenodd"/>
                                    </g>
                                  </g>
                                </g>
                              </g>
                            </g>
                            <g id="Group_61933" data-name="Group 61933" transform="translate(9.263 18.961)">
                              <rect id="Rectangle_11921" data-name="Rectangle 11921" width="4.671" height="1.139" transform="translate(0 0.456) rotate(-5.605)" fill="#e8e8e8"/>
                            </g>
                            <g id="Group_61934" data-name="Group 61934" transform="translate(4.41 28.484)">
                              <path id="Path_69911" data-name="Path 69911" d="M739.062,1685.733l.4,4.868a.158.158,0,0,0,.315-.026l-.4-4.868a.158.158,0,0,0-.315.026Z" transform="translate(-739.061 -1685.563)" fill="#58595c" fill-rule="evenodd"/>
                            </g>
                            <g id="Group_61935" data-name="Group 61935" transform="translate(20.165 26.938)">
                              <path id="Path_69912" data-name="Path 69912" d="M982.811,1661.819l.556,4.852a.158.158,0,0,0,.314-.036l-.556-4.852a.158.158,0,0,0-.314.036Z" transform="translate(-982.809 -1661.643)" fill="#58595c" fill-rule="evenodd"/>
                            </g>
                            <g id="Group_61940" data-name="Group 61940" transform="translate(9.731 15.5)">
                              <g id="Group_61939" data-name="Group 61939">
                                <path id="Path_69913" data-name="Path 69913" d="M824.4,1484.677l-3.016.3s.061,2.753.083,3.8a.838.838,0,0,0,.324.644h0a2.247,2.247,0,0,0,3.072-.3h0a.838.838,0,0,0,.193-.694Z" transform="translate(-821.387 -1484.677)" fill="#f5b5a3" fill-rule="evenodd"/>
                                <g id="Group_61938" data-name="Group 61938" clip-path="url(#clip-path-3)">
                                  <g id="Group_61937" data-name="Group 61937" transform="translate(-4.553 -11.8)">
                                    <g id="Group_61936" data-name="Group 61936">
                                      <path id="Path_69914" data-name="Path 69914" d="M750.962,1307.594l.383,3.9a6.163,6.163,0,0,0,4.7,5.341h0a3.643,3.643,0,0,0,2.429-.238h0a6.163,6.163,0,0,0,3.575-6.153l-.383-3.9a5.176,5.176,0,0,0-5.836-4.4h0A5.176,5.176,0,0,0,750.962,1307.594Z" transform="translate(-750.94 -1302.119)" fill="#e48182" fill-rule="evenodd"/>
                                    </g>
                                  </g>
                                </g>
                              </g>
                            </g>
                            <g id="Group_61941" data-name="Group 61941" transform="translate(4.886 3.07)">
                              <path id="Path_69916" data-name="Path 69916" d="M746.449,1297.868l.383,3.9a6.189,6.189,0,0,0,4.88,5.324h0a3.96,3.96,0,0,0,2.533-.249h0a6.19,6.19,0,0,0,3.753-6.171l-.383-3.9c-.267-2.718-2.983-4.676-6.066-4.374h0C748.466,1292.7,746.183,1295.15,746.449,1297.868Z" transform="translate(-746.428 -1292.368)" fill="#f5b5a3" fill-rule="evenodd"/>
                            </g>
                            <g id="Group_61942" data-name="Group 61942" transform="translate(15.634 4.406)">
                              <path id="Path_69917" data-name="Path 69917" d="M913.2,1313.043a6.506,6.506,0,0,1,.312,3.671l-.264,1.431a6.719,6.719,0,0,1-.434-3.936A4.507,4.507,0,0,1,913.2,1313.043Z" transform="translate(-912.713 -1313.043)" fill="#3c3c3c" fill-rule="evenodd"/>
                            </g>
                            <g id="Group_61943" data-name="Group 61943" transform="translate(4.155 5.57)">
                              <path id="Path_69918" data-name="Path 69918" d="M735.221,1331.054a6.5,6.5,0,0,0,.408,3.661l.538,1.352a6.715,6.715,0,0,0-.34-3.944A4.5,4.5,0,0,0,735.221,1331.054Z" transform="translate(-735.113 -1331.054)" fill="#3c3c3c" fill-rule="evenodd"/>
                            </g>
                            <g id="Group_61944" data-name="Group 61944" transform="translate(1.78)">
                              <path id="Path_69919" data-name="Path 69919" d="M698.377,1248.508s1.753.524,2.51-.473c1.9-2.5,8.524-5.529,10.856-.235C714.554,1254.182,699.033,1257.6,698.377,1248.508Z" transform="translate(-698.377 -1244.875)" fill="#3c3c3c" fill-rule="evenodd"/>
                            </g>
                            <g id="Group_61945" data-name="Group 61945" transform="translate(13.907 1.866)">
                              <path id="Path_69920" data-name="Path 69920" d="M885.992,1279.708a4.634,4.634,0,0,0,.722-1.771c.074-1,.644-1.6.426-2.433-.391-1.483.116-1.76.116-1.76s-.125.01.354,1.111c.995.316,1.782,2.85.235,4.132A13.434,13.434,0,0,1,885.992,1279.708Z" transform="translate(-885.992 -1273.744)" fill="#3c3c3c" fill-rule="evenodd"/>
                            </g>
                            <g id="Group_61951" data-name="Group 61951" transform="translate(14.835 7.752)">
                              <g id="Group_61950" data-name="Group 61950" transform="translate(0 0)">
                                <ellipse id="Ellipse_3319" data-name="Ellipse 3319" cx="1.622" cy="1.418" rx="1.622" ry="1.418" transform="translate(0 2.779) rotate(-58.957)" fill="#f5b5a3"/>
                                <g id="Group_61949" data-name="Group 61949" transform="translate(0)" clip-path="url(#clip-path-4)">
                                  <g id="Group_61948" data-name="Group 61948" transform="translate(1.948 1.48)">
                                    <g id="Group_61946" data-name="Group 61946" transform="translate(0.011 0.426)">
                                      <path id="Path_69921" data-name="Path 69921" d="M931.017,1394.3a.393.393,0,1,1-.353.429A.393.393,0,0,1,931.017,1394.3Z" transform="translate(-930.663 -1394.302)" fill="#e48182" fill-rule="evenodd"/>
                                    </g>
                                    <g id="Group_61947" data-name="Group 61947">
                                      <path id="Path_69922" data-name="Path 69922" d="M930.8,1388.519a.5.5,0,0,1,.345-.522.151.151,0,1,0-.125-.276.777.777,0,0,0-.517.861.151.151,0,0,0,.3-.063Z" transform="translate(-930.493 -1387.707)" fill="#e48182" fill-rule="evenodd"/>
                                    </g>
                                  </g>
                                </g>
                              </g>
                            </g>
                            <g id="Group_61957" data-name="Group 61957" transform="translate(2.439 8.926)">
                              <g id="Group_61956" data-name="Group 61956" transform="translate(0 0)">
                                <ellipse id="Ellipse_3321" data-name="Ellipse 3321" cx="1.418" cy="1.622" rx="1.418" ry="1.622" transform="matrix(0.74, -0.672, 0.672, 0.74, 0, 1.906)" fill="#f5b5a3"/>
                                <g id="Group_61955" data-name="Group 61955" transform="translate(0)" clip-path="url(#clip-path-5)">
                                  <g id="Group_61954" data-name="Group 61954" transform="translate(1.955 1.565)">
                                    <g id="Group_61952" data-name="Group 61952" transform="translate(0.072 0.377)">
                                      <path id="Path_69923" data-name="Path 69923" d="M740.275,1413.022a.393.393,0,1,0,.429.353A.393.393,0,0,0,740.275,1413.022Z" transform="translate(-739.92 -1413.02)" fill="#e48182" fill-rule="evenodd"/>
                                    </g>
                                    <g id="Group_61953" data-name="Group 61953">
                                      <path id="Path_69924" data-name="Path 69924" d="M739.669,1407.932a.777.777,0,0,0-.675-.744.152.152,0,0,0-.069.3.5.5,0,0,1,.44.445.152.152,0,1,0,.3,0Z" transform="translate(-738.808 -1407.185)" fill="#e48182" fill-rule="evenodd"/>
                                    </g>
                                  </g>
                                </g>
                              </g>
                            </g>
                            <g id="Group_61958" data-name="Group 61958" transform="translate(10.7 20.117)">
                              <path id="Path_69925" data-name="Path 69925" d="M838.355,1556.1l-1.975.194.109,1.116h0a1.514,1.514,0,0,0,1.975-.194h0Z" transform="translate(-836.38 -1556.102)" fill="#fdb8e3" fill-rule="evenodd"/>
                            </g>
                            <g id="Group_61959" data-name="Group 61959" transform="translate(9.145 19.419)">
                              <path id="Path_69926" data-name="Path 69926" d="M814.861,1546.1l-2.438-.793h0a1.611,1.611,0,0,0,.667,1.94l.945.579Z" transform="translate(-812.319 -1545.311)" fill="#e8e8e8" fill-rule="evenodd"/>
                            </g>
                            <g id="Group_61960" data-name="Group 61960" transform="translate(11.688 18.96)">
                              <path id="Path_69927" data-name="Path 69927" d="M851.67,1539.46l2.238-1.252h0a1.612,1.612,0,0,1-.277,2.032l-.815.752Z" transform="translate(-851.67 -1538.208)" fill="#e8e8e8" fill-rule="evenodd"/>
                            </g>
                          </g>
                        </g>
                      </g>
                    </g>
                  </g>
                  <g id="Group_61966" data-name="Group 61966" transform="translate(8.565 38.02)">
                    <path id="Path_69928" data-name="Path 69928" d="M615.025,1709.511a1.563,1.563,0,0,0-.725-1.434,1.828,1.828,0,0,0-1.506-.454l-33.3,3.268a3.126,3.126,0,0,0-1.679.767,2.739,2.739,0,0,0-.433,1.548h0a2.672,2.672,0,0,0,.725,1.434,3.164,3.164,0,0,0,1.8.449l33.3-3.268a1.844,1.844,0,0,0,1.387-.761,1.545,1.545,0,0,0,.433-1.548Z" transform="translate(-577.37 -1707.611)" fill="#fdb8e3" fill-rule="evenodd"/>
                  </g>
                  <g id="Group_61967" data-name="Group 61967" transform="translate(6.542 50.788)">
                    <path id="Path_69929" data-name="Path 69929" d="M596.866,1906.9a1.836,1.836,0,0,0-1.75-1.758l-47.276,4.639a2.169,2.169,0,0,0-1.766,2.1h0a2.171,2.171,0,0,0,2.143,1.74l47.276-4.64a1.842,1.842,0,0,0,1.373-2.084Z" transform="translate(-546.068 -1905.138)" fill="#fdb8e3" fill-rule="evenodd"/>
                  </g>
                  <g id="Group_61968" data-name="Group 61968" transform="translate(7.19 57.393)">
                    <path id="Path_69930" data-name="Path 69930" d="M606.9,2009.094a1.836,1.836,0,0,0-1.75-1.757l-47.275,4.639a2.17,2.17,0,0,0-1.766,2.1h0a2.17,2.17,0,0,0,2.143,1.739l47.275-4.639a1.842,1.842,0,0,0,1.373-2.084Z" transform="translate(-556.097 -2007.332)" fill="#fdb8e3" fill-rule="evenodd"/>
                  </g>
                  <g id="Group_61969" data-name="Group 61969" transform="translate(7.839 64.002)">
                    <path id="Path_69931" data-name="Path 69931" d="M616.928,2111.336a1.835,1.835,0,0,0-1.75-1.757l-47.275,4.638a2.171,2.171,0,0,0-1.766,2.1h0a2.171,2.171,0,0,0,2.143,1.74l47.276-4.639a1.843,1.843,0,0,0,1.373-2.085Z" transform="translate(-566.129 -2109.574)" fill="#fdb8e3" fill-rule="evenodd"/>
                  </g>
                  <g id="Group_61970" data-name="Group 61970" transform="translate(8.487 70.607)">
                    <path id="Path_69932" data-name="Path 69932" d="M626.957,2213.531a1.835,1.835,0,0,0-1.75-1.757l-47.276,4.639a2.17,2.17,0,0,0-1.766,2.1h0a2.169,2.169,0,0,0,2.143,1.739c8.2-.8,39.071-3.833,47.275-4.64a1.841,1.841,0,0,0,1.373-2.084Z" transform="translate(-576.159 -2211.769)" fill="#fdb8e3" fill-rule="evenodd"/>
                  </g>
                  <g id="Group_61971" data-name="Group 61971" transform="translate(9.135 77.213)">
                    <path id="Path_69933" data-name="Path 69933" d="M636.985,2315.726a1.836,1.836,0,0,0-1.75-1.757l-47.276,4.639a2.169,2.169,0,0,0-1.766,2.1h0a2.17,2.17,0,0,0,2.143,1.74l47.275-4.639a1.842,1.842,0,0,0,1.373-2.084Z" transform="translate(-586.187 -2313.964)" fill="#fdb8e3" fill-rule="evenodd"/>
                  </g>
                  <g id="Group_61972" data-name="Group 61972" transform="translate(0 55.291)">
                    <ellipse id="Ellipse_3324" data-name="Ellipse 3324" cx="2.383" cy="2.383" rx="2.383" ry="2.383" transform="matrix(0.995, -0.1, 0.1, 0.995, 0, 0.476)" fill="#fdb8e3"/>
                  </g>
                  <g id="Group_61973" data-name="Group 61973" transform="translate(0.652 61.9)">
                    <ellipse id="Ellipse_3325" data-name="Ellipse 3325" cx="2.383" cy="2.383" rx="2.383" ry="2.383" transform="translate(0 0.468) rotate(-5.639)" fill="#fdb8e3"/>
                  </g>
                  <g id="Group_61974" data-name="Group 61974" transform="translate(1.3 68.506)">
                    <ellipse id="Ellipse_3326" data-name="Ellipse 3326" cx="2.383" cy="2.383" rx="2.383" ry="2.383" transform="translate(0 0.468) rotate(-5.638)" fill="#fdb8e3"/>
                  </g>
                  <g id="Group_61975" data-name="Group 61975" transform="translate(1.949 75.115)">
                    <ellipse id="Ellipse_3327" data-name="Ellipse 3327" cx="2.383" cy="2.383" rx="2.383" ry="2.383" transform="matrix(0.995, -0.098, 0.098, 0.995, 0, 0.466)" fill="#fdb8e3"/>
                  </g>
                  <g id="Group_61976" data-name="Group 61976" transform="translate(2.598 81.721)">
                    <ellipse id="Ellipse_3328" data-name="Ellipse 3328" cx="2.383" cy="2.383" rx="2.383" ry="2.383" transform="matrix(0.995, -0.098, 0.098, 0.995, 0, 0.466)" fill="#fdb8e3"/>
                  </g>
                  <g id="Group_61978" data-name="Group 61978" transform="translate(1.011 55.958)">
                    <path id="Path_69934" data-name="Path 69934" d="M461.222,2005.245a.43.43,0,1,0-.544.663l1.148.943a.429.429,0,1,0,.544-.662Z" transform="translate(-460.493 -2003.832)" fill="#ea8ac6" fill-rule="evenodd"/>
                    <g id="Group_61977" data-name="Group 61977" transform="translate(1.141)">
                      <path id="Path_69935" data-name="Path 69935" d="M478.259,1987.515a.429.429,0,1,0,.662.544l1.813-2.208a.429.429,0,1,0-.662-.544Z" transform="translate(-478.138 -1985.129)" fill="#ea8ac6" fill-rule="evenodd"/>
                    </g>
                  </g>
                  <g id="Group_61980" data-name="Group 61980" transform="translate(1.661 62.589)">
                    <path id="Path_69936" data-name="Path 69936" d="M471.29,2107.836a.43.43,0,1,0-.544.663l1.148.942a.429.429,0,1,0,.544-.662Z" transform="translate(-470.561 -2106.424)" fill="#ea8ac6" fill-rule="evenodd"/>
                    <g id="Group_61979" data-name="Group 61979" transform="translate(1.141)">
                      <path id="Path_69937" data-name="Path 69937" d="M488.326,2090.106a.429.429,0,1,0,.662.544l1.813-2.208a.429.429,0,1,0-.662-.544Z" transform="translate(-488.206 -2087.72)" fill="#ea8ac6" fill-rule="evenodd"/>
                    </g>
                  </g>
                  <g id="Group_61982" data-name="Group 61982" transform="translate(2.309 69.192)">
                    <path id="Path_69938" data-name="Path 69938" d="M481.314,2209.99a.429.429,0,1,0-.544.662l1.148.943a.43.43,0,1,0,.544-.663Z" transform="translate(-480.585 -2208.578)" fill="#ea8ac6" fill-rule="evenodd"/>
                    <g id="Group_61981" data-name="Group 61981" transform="translate(1.141)">
                      <path id="Path_69939" data-name="Path 69939" d="M498.35,2192.26a.429.429,0,1,0,.662.544l1.813-2.208a.429.429,0,1,0-.662-.544Z" transform="translate(-498.23 -2189.875)" fill="#ea8ac6" fill-rule="evenodd"/>
                    </g>
                  </g>
                  <g id="Group_61984" data-name="Group 61984" transform="translate(2.957 75.795)">
                    <path id="Path_69940" data-name="Path 69940" d="M491.339,2312.144a.429.429,0,1,0-.544.662l1.148.942a.429.429,0,1,0,.544-.662Z" transform="translate(-490.61 -2310.731)" fill="#ea8ac6" fill-rule="evenodd"/>
                    <g id="Group_61983" data-name="Group 61983" transform="translate(1.141)">
                      <path id="Path_69941" data-name="Path 69941" d="M508.376,2294.413a.429.429,0,1,0,.662.544l1.813-2.208a.429.429,0,1,0-.662-.544Z" transform="translate(-508.255 -2292.027)" fill="#ea8ac6" fill-rule="evenodd"/>
                    </g>
                  </g>
                  <g id="Group_61986" data-name="Group 61986" transform="translate(3.605 82.398)">
                    <path id="Path_69942" data-name="Path 69942" d="M501.363,2414.3a.43.43,0,1,0-.544.663l1.148.942a.429.429,0,1,0,.544-.662Z" transform="translate(-500.634 -2412.884)" fill="#ea8ac6" fill-rule="evenodd"/>
                    <g id="Group_61985" data-name="Group 61985" transform="translate(1.141)">
                      <path id="Path_69943" data-name="Path 69943" d="M518.4,2396.567a.429.429,0,1,0,.662.544l1.813-2.208a.429.429,0,1,0-.662-.544Z" transform="translate(-518.279 -2394.181)" fill="#ea8ac6" fill-rule="evenodd"/>
                    </g>
                  </g>
                </g>
                <g id="Group_61988" data-name="Group 61988" transform="translate(65.322 0.029)">
                  <path id="Path_69944" data-name="Path 69944" d="M1251.758,1019.861l-9.563-8.066.424,4.315a4.64,4.64,0,0,0,1.766,3.1,4.1,4.1,0,0,0,3.319,1.048Z" transform="translate(-1242.195 -1011.795)" fill="#fdb8e3" fill-rule="evenodd"/>
                </g>
              </g>
            </g>
          </g>
        </g>
      </g>
    </g>
    <g transform="matrix(1, 0, 0, 1, 85.2, 233.11)" filter="url(#Ellipse_3316)">
      <circle id="Ellipse_3316-2" data-name="Ellipse 3316" cx="28.613" cy="28.613" r="28.613" transform="translate(123.25 105.3)" fill="#fff"/>
    </g>
    <g id="Group_61995" data-name="Group 61995" transform="translate(-184.715 -84.348)">
      <path id="Path_69947" data-name="Path 69947" d="M439.534,464.309c-.157.2-.325.38-.616.27s-.31-.344-.31-.606q.006-2.31,0-4.62a1.512,1.512,0,0,0-1.644-1.65q-3.326-.006-6.651,0a1.5,1.5,0,0,0-1.637,1.652c0,1.519,0,3.039,0,4.558a1.5,1.5,0,0,1-.025.336.451.451,0,0,1-.89-.057c-.01-.1-.007-.2-.007-.308,0-2.238-.01-4.476,0-6.714a2.281,2.281,0,0,0-.907-1.952c-.51-.395-.994-.822-1.565-1.3-.027.314-.066.559-.067.8q-.006,4.543,0,9.085c0,.113.005.226-.006.338a.458.458,0,0,1-.477.459.441.441,0,0,1-.436-.467c-.01-.41,0-.821-.007-1.232,0-.08-.012-.16-.021-.268H423.9q-7.606,0-15.211,0a.707.707,0,0,1-.685-.307v-.308c.2-.425.61-.281.986-.326v-.335c0-1.6.046-3.2-.011-4.8a4.513,4.513,0,0,1,3.954-4.715c0-.37.007-.746-.006-1.122,0-.066-.076-.14-.132-.194a4.535,4.535,0,0,1-1.137-1.805.614.614,0,0,0-.179-.271,3.981,3.981,0,0,1-1.41-4.161.509.509,0,0,0-.153-.512,3.416,3.416,0,1,1,5.132-4.5.53.53,0,0,0,.514.22,5.305,5.305,0,0,1,5.556,4.509,4.772,4.772,0,0,1-.231,3.014.308.308,0,0,1-.023.057,8.711,8.711,0,0,0-1.025,2.133,3.91,3.91,0,0,1-1.821,1.977c-.265.144-.226.347-.195.543.013.079.173.165.28.195a2.93,2.93,0,0,1,2.157,2.6c.015.209.072.286.288.279.42-.013.842-.014,1.262,0a1.42,1.42,0,0,1,1.415,1.387c.027,1.683.009,3.366,0,5.05a3.18,3.18,0,0,1-.066.446h1.132v-.359c0-2.2.013-4.393-.005-6.59a2.538,2.538,0,0,1,1.558-2.525c.9-.426,1.773-.9,2.672-1.324.326-.154.185-.407.223-.628.035-.2-.094-.252-.246-.321a4.283,4.283,0,0,1-2.7-3.924c-.045-.983-.009-1.97-.02-2.956a.415.415,0,0,0-.125-.3,1.567,1.567,0,0,1-.816-1.843,2.909,2.909,0,0,1,2.771-2.407c1.416-.031,2.833-.04,4.248,0a3.9,3.9,0,0,1,3.73,3.787q.041,1.816,0,3.633a2.32,2.32,0,0,1-1.243,2.061.391.391,0,0,0-.234.405c.014.544.02,1.088,0,1.632a.689.689,0,0,0,.441.726c.7.335,1.4.691,2.092,1.042a2.413,2.413,0,0,1,1.418,2.3c0,.862.006,1.725,0,2.587a.386.386,0,0,0,.228.407,2.371,2.371,0,0,1,1.187,1.537c.018.067.046.131.069.2Zm-28.007-2.592c-.027-.251-.068-.464-.07-.677-.008-.719,0-1.437,0-2.156,0-.413.163-.624.472-.619s.451.2.451.6c0,.688,0,1.376,0,2.063,0,.6.186.785.8.785h8.345c.622,0,.8-.177.8-.813q0-2.171,0-4.342c0-.676-.158-.835-.83-.836h-8.037c-.988,0-1.012.022-1.073,1a.468.468,0,0,1-.457.482.473.473,0,0,1-.462-.449,1.614,1.614,0,0,1,1.736-1.965c1.919.039,3.839.011,5.758.011h.358a1.916,1.916,0,0,0-1.4-1.96.308.308,0,0,0-.435.17,2.414,2.414,0,0,1-4.189.029.4.4,0,0,0-.511-.226,3.489,3.489,0,0,0-2.866,3.474c-.009,1.725,0,3.449,0,5.174,0,.078.014.156.023.253h1.592Zm21.722-10.879c-.023-.352-.053-.675-.062-1-.011-.379-.008-.759,0-1.139,0-.21.018-.383-.259-.468a.5.5,0,0,1-.213-.418c.012-.137.168-.275.288-.384.057-.052.176-.041.267-.05a1.49,1.49,0,0,0,1.388-1.465c.018-1.2.029-2.4,0-3.6a2.945,2.945,0,0,0-2.824-2.873c-1.4-.045-2.811-.034-4.216,0a1.963,1.963,0,0,0-1.889,1.844c-.028.468.154.668.618.674.144,0,.288,0,.431,0a1.914,1.914,0,0,1,1.876,1.74c.052.529.023,1.066.029,1.6a1.994,1.994,0,0,0,2.087,2.092,3.234,3.234,0,0,1,.491.021.42.42,0,0,1,.373.456.413.413,0,0,1-.4.435,3.117,3.117,0,0,1-2.539-.767,2.809,2.809,0,0,1-.934-2.04c-.012-.513,0-1.026-.01-1.539a.965.965,0,0,0-1.048-1.03c0,.991-.017,1.985,0,2.978a3.433,3.433,0,0,0,2.5,3.318c.361.115.452.238.455.628,0,.325,0,.65,0,.989Zm-4.542,6.444a2.86,2.86,0,0,1,1.9-.507c2.052.013,4.1,0,6.157,0h.364c0-.994.017-1.938-.007-2.881a1.31,1.31,0,0,0-.68-1.143c-.6-.336-1.218-.633-1.836-.933a.867.867,0,0,0-.362-.042c-1.211,0-2.425.057-3.632-.018a5.489,5.489,0,0,0-3.418.815,14.407,14.407,0,0,1-1.286.654c.575.48,1.115.934,1.659,1.384a2.907,2.907,0,0,1,1.041,1.7C428.665,456.61,428.67,456.92,428.707,457.281Zm-9.371-10.47c0-.236,0-.472,0-.708,0-.443-.149-.6-.595-.653a12.226,12.226,0,0,1-4.632-1.339.273.273,0,0,0-.254.023,4.666,4.666,0,0,0-1.456,2.674,3.538,3.538,0,0,0,2.046,3.743,3.5,3.5,0,0,0,4.134-1.023A3.774,3.774,0,0,0,419.336,446.811Zm-7.957.2c.16-.552.291-1.117.488-1.658a6.905,6.905,0,0,1,1.592-2.166c.267-.294.429-.3.779-.09a9.863,9.863,0,0,0,.941.518,11.871,11.871,0,0,0,3.711.922,1.432,1.432,0,0,1,1.311,1.038,1.459,1.459,0,0,0,.078.165l.084-.019a15.184,15.184,0,0,0-.179-1.612,4.323,4.323,0,0,0-2.639-3.362,4.927,4.927,0,0,0-6.638,5A2.325,2.325,0,0,0,411.378,447.009ZM410.46,443a6.134,6.134,0,0,1,1.507-2.039,6.216,6.216,0,0,1,2.209-1.233,2.445,2.445,0,0,0-3.381-.209A2.492,2.492,0,0,0,410.46,443Zm3.407,8.374a1.619,1.619,0,0,0,.762,1.742,1.424,1.424,0,0,0,1.644-.1,1.4,1.4,0,0,0,.6-1.27,6.691,6.691,0,0,1-3.009-.371Z" fill="#c80880"/>
      <path id="Path_69948" data-name="Path 69948" d="M507.051,674.047a1.447,1.447,0,0,1-1.443,1.451,1.469,1.469,0,0,1-1.451-1.453,1.449,1.449,0,0,1,1.452-1.442A1.427,1.427,0,0,1,507.051,674.047Zm-1.438-.517a.523.523,0,0,0-.53.52.541.541,0,0,0,.536.522.524.524,0,0,0,.506-.513A.5.5,0,0,0,505.613,673.53Z" transform="translate(-88.261 -215.328)" fill="#c80880"/>
      <path id="Path_69949" data-name="Path 69949" d="M493.416,565.514c-.382-.095-.763-.168-1.129-.287a.437.437,0,0,1-.291-.588.445.445,0,0,1,.6-.264,2.233,2.233,0,0,0,1.617,0,.45.45,0,0,1,.622.279.443.443,0,0,1-.313.577C494.169,565.35,493.8,565.42,493.416,565.514Z" transform="translate(-77.07 -115.954)" fill="#c80880"/>
      <path id="Path_69950" data-name="Path 69950" d="M486.831,534.944a1.56,1.56,0,0,1,0,.276.433.433,0,0,1-.461.4.423.423,0,0,1-.448-.412,3.22,3.22,0,0,1,0-.521.462.462,0,0,1,.462-.473.469.469,0,0,1,.455.452c.009.091,0,.184,0,.276Z" transform="translate(-71.509 -88.305)" fill="#c80880"/>
      <path id="Path_69951" data-name="Path 69951" d="M522.849,534.96a1.571,1.571,0,0,1,0,.276.43.43,0,0,1-.435.4.423.423,0,0,1-.469-.389,2.563,2.563,0,0,1-.006-.582.457.457,0,0,1,.469-.434.463.463,0,0,1,.446.458c.007.091,0,.184,0,.276Z" transform="translate(-104.568 -88.313)" fill="#c80880"/>
    </g>
  </g>
</svg>
