<svg xmlns="http://www.w3.org/2000/svg" width="204.602" height="176.122" viewBox="0 0 204.602 176.122">
  <g id="no_notification" transform="translate(-85.199 -233.111)">
    <g id="Group_47437" data-name="Group 47437" transform="translate(-448.101 -220.629)">
      <g id="Group_47434" data-name="Group 47434" transform="translate(545.829 453.74)">
        <g id="Group_47433" data-name="Group 47433" transform="translate(0 7.731)">
          <circle id="Ellipse_3303" data-name="Ellipse 3303" cx="80.508" cy="80.508" r="80.508" fill="#e7eaef"/>
        </g>
        <rect id="Rectangle_11265" data-name="Rectangle 11265" width="103.79" height="171.679" rx="9.36" transform="translate(30.39 2.222)" fill="#fff"/>
        <path id="Path_64132" data-name="Path 64132" d="M652.929,629.862H576.864a16.1,16.1,0,0,1-16.084-16.084V469.824a16.1,16.1,0,0,1,16.084-16.084h76.065a16.1,16.1,0,0,1,16.084,16.084V613.779A16.1,16.1,0,0,1,652.929,629.862ZM576.864,458.183a11.654,11.654,0,0,0-11.641,11.641V613.779a11.654,11.654,0,0,0,11.641,11.641h76.065a11.654,11.654,0,0,0,11.641-11.641V469.824a11.654,11.654,0,0,0-11.641-11.641Z" transform="translate(-532.611 -453.74)" fill="#001968"/>
      </g>
      <circle id="Ellipse_3305" data-name="Ellipse 3305" cx="5.398" cy="5.398" r="5.398" transform="translate(727.106 495.594)" fill="#e7eaef"/>
      <circle id="Ellipse_3306" data-name="Ellipse 3306" cx="3.799" cy="3.799" r="3.799" transform="translate(712.977 483.597)" fill="#2dd4bf"/>
      <circle id="Ellipse_3307" data-name="Ellipse 3307" cx="3.199" cy="3.199" r="3.199" transform="translate(534.633 492.395)" fill="#ffd9a9"/>
      <circle id="Ellipse_3308" data-name="Ellipse 3308" cx="3.199" cy="3.199" r="3.199" transform="translate(533.3 619.288)" fill="#ff8999"/>
    </g>
    <g id="Group_47472" data-name="Group 47472" transform="translate(-526.35 49.92)">
      <g id="Group_47468" data-name="Group 47468" transform="translate(675.435 226.08)">
        <path id="Path_64164" data-name="Path 64164" d="M707.666,302.1a25.264,25.264,0,0,1-3.584-1.111,10.81,10.81,0,0,1-5.979-7.164c-.052-.188-.108-.374-.182-.634h-.873q-9.575,0-19.15,0a2.242,2.242,0,0,1-2.263-1.362,2.187,2.187,0,0,1,.53-2.521l.1-.109a34,34,0,0,0,8.862-17.235,52.49,52.49,0,0,0,.689-7.219c.139-3.012-.107-6.054.193-9.045.775-7.73,4.677-13.576,11.305-17.573a33.15,33.15,0,0,1,4.307-1.953c.395-.167.564-.325.565-.777a25.2,25.2,0,0,1,.136-3.846,6.605,6.605,0,0,1,7.05-5.46,6.7,6.7,0,0,1,6.152,6.409c.03.939.046,1.882,0,2.82-.027.522.172.7.638.867,7.82,2.836,12.888,8.256,15,16.307a27.244,27.244,0,0,1,.684,5.722c.137,3.21-.02,6.437.18,9.642a33.451,33.451,0,0,0,6.543,17.852c.885,1.217,1.892,2.349,2.887,3.481a2.287,2.287,0,0,1-1.79,4.007q-9.5-.023-19-.008h-.831c-.258.742-.449,1.484-.764,2.168a10.965,10.965,0,0,1-8.608,6.61,3.035,3.035,0,0,0-.416.131Zm-25.1-13.407H735.09c-.013-.09,0-.144-.028-.178-.151-.226-.309-.447-.465-.67a38.246,38.246,0,0,1-7.037-19.866c-.192-3.181-.081-6.379-.157-9.568a27.389,27.389,0,0,0-.308-3.764,18.554,18.554,0,0,0-36.8,3.676c0,2.35.018,4.7-.007,7.051a39.137,39.137,0,0,1-5.715,20.224C683.949,286.631,683.263,287.623,682.563,288.7Zm20.063,4.529a6.6,6.6,0,0,0,6.591,4.415c2.651-.12,5.34-2.147,5.826-4.415Zm8.419-58.189c.012-.2.036-.413.035-.63a15.992,15.992,0,0,0-.039-1.994,2.2,2.2,0,0,0-2.155-1.875,2.168,2.168,0,0,0-2.2,1.815,22.329,22.329,0,0,0-.022,2.684Z" transform="translate(-675.435 -226.08)" fill="#ea8ac6" stroke="#fff" stroke-width="1"/>
        <path id="Path_64165" data-name="Path 64165" d="M675.462,265.412a33.157,33.157,0,0,1,9.644-22.631,2.228,2.228,0,1,1,3.2,3.082,29.814,29.814,0,0,0-5.143,7.038,28.886,28.886,0,0,0-3.26,13.034,3.633,3.633,0,0,1-.137,1.018,2.2,2.2,0,0,1-2.35,1.523,2.261,2.261,0,0,1-1.954-2.026C675.437,266.106,675.462,265.758,675.462,265.412Z" transform="translate(-675.444 -234.338)" fill="#ea8ac6" stroke="#fff" stroke-width="2.5"/>
        <path id="Path_64166" data-name="Path 64166" d="M799.64,265.386c0,.272,0,.544,0,.816a2.242,2.242,0,0,1-2.238,2.282,2.308,2.308,0,0,1-2.227-2.232,59.263,59.263,0,0,0-.859-6.894,27.664,27.664,0,0,0-7.306-13.273,3.621,3.621,0,0,1-.856-1.349,2.1,2.1,0,0,1,1.046-2.461,2.244,2.244,0,0,1,2.721.432,33.283,33.283,0,0,1,9.718,22.679Z" transform="translate(-732.814 -234.334)" fill="#ea8ac6" stroke="#fff" stroke-width="2.5"/>
      </g>
      <g id="Group_47469" data-name="Group 47469" transform="translate(701.227 267.066)">
        <path id="Path_64167" data-name="Path 64167" d="M735.979,319.972c-.15,0-.3-.007-.441-.021a7.879,7.879,0,0,1-5.859-3.4,4.544,4.544,0,0,1-.253-4.245,1.6,1.6,0,0,1,.9-1.031h0a1.654,1.654,0,0,1,1.15.232,6.678,6.678,0,0,0,.684.277,11.934,11.934,0,0,0,3.416.562,19.824,19.824,0,0,0,4.646-.606c.76-.161,1.545-.327,2.344-.45l.361-.055.15.333a4.78,4.78,0,0,1-.689,4.874A8.688,8.688,0,0,1,735.979,319.972ZM730.6,312.2c-.02.013-.12.1-.283.48a3.57,3.57,0,0,0,.193,3.377,6.979,6.979,0,0,0,5.125,2.938,7.426,7.426,0,0,0,5.978-3.116,3.955,3.955,0,0,0,.728-3.578c-.645.11-1.287.246-1.911.378a20.668,20.668,0,0,1-4.869.627,12.878,12.878,0,0,1-3.692-.61,7.421,7.421,0,0,1-.781-.315A2.389,2.389,0,0,0,730.6,312.2Z" transform="translate(-729.019 -311.231)" fill="#fdb8e3"/>
      </g>
      <g id="Group_47470" data-name="Group 47470" transform="translate(696.154 253.824)">
        <path id="Path_64168" data-name="Path 64168" d="M727.125,288.649h-.963c0-2.187-1.507-3.966-3.36-3.966s-3.36,1.779-3.36,3.966h-.963c0-2.718,1.939-4.929,4.322-4.929S727.125,285.931,727.125,288.649Z" transform="translate(-718.48 -283.72)" fill="#c80880"/>
      </g>
      <g id="Group_47471" data-name="Group 47471" transform="translate(712.038 253.824)">
        <path id="Path_64169" data-name="Path 64169" d="M760.125,288.649h-.963c0-2.187-1.507-3.966-3.36-3.966s-3.36,1.779-3.36,3.966h-.963c0-2.718,1.939-4.929,4.322-4.929S760.125,285.931,760.125,288.649Z" transform="translate(-751.48 -283.72)" fill="#fdb8e3"/>
      </g>
    </g>
  </g>
</svg>
