<svg xmlns="http://www.w3.org/2000/svg" xmlns:xlink="http://www.w3.org/1999/xlink" width="204.602" height="176.122" viewBox="0 0 204.602 176.122">
  <defs>
    <filter id="Ellipse_3316" x="119.75" y="101.8" width="72.226" height="72.227" filterUnits="userSpaceOnUse">
      <feOffset dx="4" dy="4" input="SourceAlpha"/>
      <feGaussianBlur stdDeviation="2.5" result="blur"/>
      <feFlood flood-opacity="0.149"/>
      <feComposite operator="in" in2="blur"/>
      <feComposite in="SourceGraphic"/>
    </filter>
  </defs>
  <g id="no_pages" data-name="no pages" transform="translate(-85.199 -363.111)">
    <g id="no_pages-2" data-name="no pages" transform="translate(0 130)">
      <g id="Group_47437" data-name="Group 47437" transform="translate(-448.101 -220.629)">
        <g id="Group_47434" data-name="Group 47434" transform="translate(545.829 453.74)">
          <g id="Group_47433" data-name="Group 47433" transform="translate(0 7.731)">
            <circle id="Ellipse_3303" data-name="Ellipse 3303" cx="80.508" cy="80.508" r="80.508" fill="#e7eaef"/>
          </g>
          <rect id="Rectangle_11265" data-name="Rectangle 11265" width="103.79" height="171.679" rx="9.36" transform="translate(30.39 2.222)" fill="#fff"/>
          <path id="Path_64132" data-name="Path 64132" d="M652.929,629.862H576.864a16.1,16.1,0,0,1-16.084-16.084V469.824a16.1,16.1,0,0,1,16.084-16.084h76.065a16.1,16.1,0,0,1,16.084,16.084V613.779A16.1,16.1,0,0,1,652.929,629.862ZM576.864,458.183a11.654,11.654,0,0,0-11.641,11.641V613.779a11.654,11.654,0,0,0,11.641,11.641h76.065a11.654,11.654,0,0,0,11.641-11.641V469.824a11.654,11.654,0,0,0-11.641-11.641Z" transform="translate(-532.611 -453.74)" fill="#001968"/>
        </g>
        <circle id="Ellipse_3305" data-name="Ellipse 3305" cx="5.398" cy="5.398" r="5.398" transform="translate(727.106 495.594)" fill="#e7eaef"/>
        <circle id="Ellipse_3306" data-name="Ellipse 3306" cx="3.799" cy="3.799" r="3.799" transform="translate(712.977 483.597)" fill="#2dd4bf"/>
        <circle id="Ellipse_3307" data-name="Ellipse 3307" cx="3.199" cy="3.199" r="3.199" transform="translate(534.633 492.395)" fill="#ffd9a9"/>
        <circle id="Ellipse_3308" data-name="Ellipse 3308" cx="3.199" cy="3.199" r="3.199" transform="translate(533.3 619.288)" fill="#ff8999"/>
      </g>
      <g id="Group_61999" data-name="Group 61999" transform="translate(-266.969 -145.007)">
        <path id="Path_69997" data-name="Path 69997" d="M487.938,427.383V504.09c-.973,4.162-3.424,5.423-6.644,5.412-21.852-.079-43.7-.041-65.556-.042a17.055,17.055,0,0,1-2.495-.035,6.958,6.958,0,0,1-2.307-.718c-1.651-.9-2.471-2.621-2.936-4.618V427.383c.91-4.025,3.356-5.425,6.566-5.413,21.358.081,42.717.042,64.075.043,1.327,0,2.655-.037,3.98.014,2.268.088,3.873,1.415,4.845,3.813C487.666,426.33,487.783,426.867,487.938,427.383Zm-1.249,10.706h-77.44v1.073q0,31.614,0,63.229c0,3.645,1.635,5.595,4.7,5.595,22.684,0,45.368-.027,68.052.035,2.921.008,4.727-2.466,4.719-5.544q-.08-31.66-.028-63.321Zm0-1.6v-.956c0-2.12-.089-4.246.021-6.358.172-3.309-1.813-5.732-4.8-5.723-22.449.072-44.9.039-67.348.039-.39,0-.781-.007-1.171,0a4.286,4.286,0,0,0-4.067,4.218c-.165,2.9-.039,5.817-.039,8.777Z" transform="translate(0)" fill="#ea8ac6"/>
        <path id="Path_69998" data-name="Path 69998" d="M469.572,512.145h31.216c2.094,0,3.044.951,3.048,3.052q.006,3.434,0,6.868c-.005,1.98-1.006,3-2.96,3q-31.332,0-62.665,0c-1.977,0-2.962-1-2.965-2.991q-.006-3.395,0-6.79c0-2.219.917-3.143,3.113-3.143Zm-20.551,11.7c.259.013.439.029.62.029q25.636,0,51.272,0c1.2,0,1.663-.453,1.67-1.646.012-2.315.006-4.631,0-6.946,0-1.5-.387-1.887-1.9-1.887H449.021Zm-1.338-10.413c-.277-.013-.531-.036-.784-.036q-4.329,0-8.659,0c-1.313,0-1.741.417-1.745,1.717q-.011,3.471,0,6.943c0,1.331.445,1.764,1.8,1.766q4.329.008,8.659,0c.229,0,.457-.025.734-.041Z" transform="translate(-21.572 -67.288)" fill="#ea8ac6"/>
        <path id="Path_69999" data-name="Path 69999" d="M456.488,595.492h20.057c1.1,0,1.168.079,1.169,1.32q0,17.55,0,35.1c0,1.251-.087,1.355-1.151,1.355q-20.057,0-40.115,0c-1.021,0-1.2-.195-1.2-1.354q0-17.6,0-35.192c0-1.091.132-1.229,1.1-1.23Q446.421,595.49,456.488,595.492Zm-19.933,1.5v34.673h39.866V596.994Z" transform="translate(-21.576 -132.34)" fill="#ea8ac6"/>
        <path id="Path_70000" data-name="Path 70000" d="M671.47,595.491q4.838,0,9.677,0c1.018,0,1.091.069,1.091,1.042q0,5.931,0,11.862c0,.973-.111,1.093-1.057,1.093q-9.716.005-19.432,0c-.99,0-1.093-.1-1.094-1.056q0-5.931,0-11.862c0-1,.077-1.079,1.061-1.08Q666.592,595.488,671.47,595.491Zm-9.509,1.273v11.423h18.971V596.763Z" transform="translate(-200.058 -132.338)" fill="#ea8ac6"/>
        <path id="Path_70001" data-name="Path 70001" d="M671.454,683.994q4.877,0,9.755,0c.946,0,1.028.083,1.029,1.026q0,5.97,0,11.94c0,.906-.121,1.03-1.042,1.03q-9.755.006-19.509,0c-.916,0-1.03-.122-1.031-1.04q0-5.97,0-11.94c0-.928.094-1.016,1.045-1.017Q666.576,683.991,671.454,683.994Zm-9.523,12.694h19V685.293h-19Z" transform="translate(-200.057 -197.063)" fill="#ea8ac6"/>
        <path id="Path_70002" data-name="Path 70002" d="M587.605,446.856q-8.9,0-17.791,0a2.76,2.76,0,0,1-3.007-3.071,2.707,2.707,0,0,1,2.161-2.448,5.608,5.608,0,0,1,1.085-.093q17.635-.007,35.27,0c2.006,0,3.25,1.131,3.216,2.9a2.737,2.737,0,0,1-2.518,2.7c-.31.027-.624.023-.936.023Q596.345,446.857,587.605,446.856Zm.04-1.249q8.7,0,17.4,0a6.494,6.494,0,0,0,1.011-.045,1.537,1.537,0,0,0,.187-2.963,3.768,3.768,0,0,0-1-.109q-17.595-.008-35.19,0a3.93,3.93,0,0,0-.775.06,1.47,1.47,0,0,0-1.228,1.565c.028.964.678,1.492,1.885,1.493Q578.79,445.612,587.646,445.607Z" transform="translate(-125.739 -15.255)" fill="#ea8ac6"/>
        <path id="Path_70003" data-name="Path 70003" d="M432.675,444.06a2.784,2.784,0,0,1,2.839-2.783,2.875,2.875,0,0,1,2.774,2.806,2.8,2.8,0,0,1-2.829,2.8A2.755,2.755,0,0,1,432.675,444.06Zm2.814,1.565a1.547,1.547,0,1,0-.043-3.093,1.536,1.536,0,0,0-1.518,1.615A1.5,1.5,0,0,0,435.489,445.625Z" transform="translate(-19.538 -15.287)" fill="#ea8ac6"/>
        <path id="Path_70004" data-name="Path 70004" d="M475.4,444.08a2.748,2.748,0,0,1-2.807,2.8,2.787,2.787,0,0,1-2.8-2.828,2.822,2.822,0,0,1,2.786-2.778A2.785,2.785,0,0,1,475.4,444.08Zm-2.809,1.544a1.494,1.494,0,0,0,1.554-1.486,1.525,1.525,0,0,0-1.524-1.609,1.551,1.551,0,0,0-1.569,1.579A1.522,1.522,0,0,0,472.586,445.624Z" transform="translate(-48.928 -15.284)" fill="#ea8ac6"/>
        <path id="Path_70005" data-name="Path 70005" d="M510.1,446.88a2.788,2.788,0,0,1-2.806-2.819,2.823,2.823,0,0,1,2.777-2.787,2.784,2.784,0,0,1,2.827,2.8A2.749,2.749,0,0,1,510.1,446.88Zm1.544-2.8a1.522,1.522,0,0,0-1.5-1.551,1.549,1.549,0,0,0-1.591,1.556,1.527,1.527,0,0,0,1.6,1.538A1.5,1.5,0,0,0,511.641,444.082Z" transform="translate(-78.621 -15.285)" fill="#ea8ac6"/>
        <path id="Path_70006" data-name="Path 70006" d="M455.128,527.016a2.838,2.838,0,0,1,2.735,3.815.913.913,0,0,0,.284,1.2,2.966,2.966,0,0,1,.744.788.9.9,0,0,1-.036.8c-.1.139-.662.174-.731.067-.792-1.207-1.84-1.077-3.108-.942a2.712,2.712,0,0,1-2.761-2.932A2.862,2.862,0,0,1,455.128,527.016Zm0,4.459a1.6,1.6,0,1,0,.037-3.2,1.6,1.6,0,1,0-.037,3.2Z" transform="translate(-35.041 -78.825)" fill="#ea8ac6"/>
        <path id="Path_70007" data-name="Path 70007" d="M551.23,661.594c.976.932,1.892,1.809,2.809,2.683.734.7,1.459,1.41,2.21,2.091a.776.776,0,0,1,.022,1.313c-.682.678-1.352,1.371-1.991,2.09-.468.526-.858.531-1.365.037-1.62-1.577-3.269-3.126-5-4.772-.488,1.033-.948,2.006-1.406,2.979a3.347,3.347,0,0,1-.338.7c-.181.224-.48.566-.658.528a1.076,1.076,0,0,1-.657-.634c-.545-1.652-1.032-3.322-1.54-4.986q-1.149-3.762-2.3-7.524c-.285-.941.036-1.272.995-1.025,4.149,1.067,8.3,2.13,12.439,3.232.34.09.6.461.9.7a3.751,3.751,0,0,1-.75.792C553.531,660.414,552.419,660.969,551.23,661.594Zm-5.616,5.212c.132-.122.184-.15.2-.193.362-.776.72-1.554,1.08-2.331.535-1.156.791-1.2,1.714-.313l4.775,4.6,1.8-1.5c-1.791-1.713-3.5-3.342-5.206-4.98-.671-.646-.621-.974.189-1.4.891-.465,1.785-.925,2.843-1.472l-10.537-2.744Z" transform="translate(-105.249 -174.102)" fill="#ea8ac6"/>
      </g>
      <g transform="matrix(1, 0, 0, 1, 85.2, 233.11)" filter="url(#Ellipse_3316)">
        <circle id="Ellipse_3316-2" data-name="Ellipse 3316" cx="28.613" cy="28.613" r="28.613" transform="translate(123.25 105.3)" fill="#fff"/>
      </g>
      <g id="Group_62000" data-name="Group 62000" transform="translate(-220.426 -91.463)">
        <path id="Path_70008" data-name="Path 70008" d="M444.3,458.107q0-5.739,0-11.478a2.124,2.124,0,0,1,1.58-2.223,2.907,2.907,0,0,1,.724-.078q11.511-.006,23.022,0a2.132,2.132,0,0,1,2.3,2.3q0,11.511,0,23.022a2.134,2.134,0,0,1-2.3,2.3q-11.511,0-23.022,0a2.135,2.135,0,0,1-2.3-2.3Q444.3,463.879,444.3,458.107Zm1.106-6.578v.382q0,8.85,0,17.7c0,.858.38,1.24,1.233,1.24H469.6c.851,0,1.231-.384,1.231-1.242q0-8.85,0-17.7v-.38Zm25.4-1.133a1.247,1.247,0,0,0,.019-.135c0-1.231,0-2.462,0-3.693a1.037,1.037,0,0,0-1.134-1.137q-11.577,0-23.154,0a1.036,1.036,0,0,0-1.131,1.14q0,1.763,0,3.526c0,.1.013.192.02.3Z" fill="#c80880"/>
        <path id="Path_70009" data-name="Path 70009" d="M524.774,565.593a6.676,6.676,0,1,1,6.7,6.667A6.688,6.688,0,0,1,524.774,565.593Zm10.947,3.544a5.566,5.566,0,1,0-8.548-7.131,5.459,5.459,0,0,0,.02,7.1,4.535,4.535,0,0,1,2.392-2.6c-1.085-1.586-1.071-2.925.03-3.949a2.683,2.683,0,0,1,3.556-.1,2.569,2.569,0,0,1,.929,1.606,2.7,2.7,0,0,1-.813,2.431A4.594,4.594,0,0,1,535.721,569.137Zm-3.89,2.013a5.331,5.331,0,0,0,2.756-.966.319.319,0,0,0,.154-.41,3.406,3.406,0,0,0-3.293-2.559,3.45,3.45,0,0,0-3.289,2.575.3.3,0,0,0,.143.382A5.89,5.89,0,0,0,531.83,571.149Zm-.36-8.209a1.588,1.588,0,1,0,1.57,1.606A1.6,1.6,0,0,0,531.47,562.94Z" transform="translate(-73.329 -104.4)" fill="#c80880"/>
        <path id="Path_70010" data-name="Path 70010" d="M599.418,478.537c1.6,0,3.192,0,4.788.006a.931.931,0,0,1,.523.147.523.523,0,0,1-.166.907,1.44,1.44,0,0,1-.458.051q-4.7,0-9.41,0a2.6,2.6,0,0,1-.266,0,.547.547,0,0,1-.544-.589.537.537,0,0,1,.578-.517c.576-.01,1.153,0,1.729,0Z" transform="translate(-136.306 -31.174)" fill="#c80880"/>
        <path id="Path_70011" data-name="Path 70011" d="M482.708,474.372a4.251,4.251,0,0,1,0,.5.558.558,0,0,1-.538.5.534.534,0,0,1-.548-.481,7.051,7.051,0,0,1,0-1.062.54.54,0,0,1,.535-.5.559.559,0,0,1,.556.512,5.3,5.3,0,0,1,0,.531Z" transform="translate(-33.983 -26.429)" fill="#c80880"/>
        <path id="Path_70012" data-name="Path 70012" d="M507.708,474.368c0,.166.012.333,0,.5a.551.551,0,0,1-.526.506.522.522,0,0,1-.55-.47,7.419,7.419,0,0,1,0-1.093.52.52,0,0,1,.547-.473.548.548,0,0,1,.528.5C507.721,474.012,507.708,474.191,507.708,474.368Z" transform="translate(-56.776 -26.436)" fill="#c80880"/>
        <path id="Path_70013" data-name="Path 70013" d="M532.627,474.364a5.162,5.162,0,0,1,0,.531.526.526,0,0,1-.546.474.5.5,0,0,1-.52-.464,8.341,8.341,0,0,1,0-1.094.522.522,0,0,1,.544-.476.537.537,0,0,1,.527.5c.015.176,0,.354,0,.531Z" transform="translate(-79.493 -26.436)" fill="#c80880"/>
      </g>
    </g>
  </g>
</svg>
