<svg xmlns="http://www.w3.org/2000/svg" xmlns:xlink="http://www.w3.org/1999/xlink" width="204.602" height="176.122" viewBox="0 0 204.602 176.122">
  <defs>
    <filter id="Ellipse_3316" x="119.75" y="101.8" width="72.226" height="72.227" filterUnits="userSpaceOnUse">
      <feOffset dx="4" dy="4" input="SourceAlpha"/>
      <feGaussianBlur stdDeviation="2.5" result="blur"/>
      <feFlood flood-opacity="0.149"/>
      <feComposite operator="in" in2="blur"/>
      <feComposite in="SourceGraphic"/>
    </filter>
  </defs>
  <g id="no_polls" transform="translate(-85.199 -363.111)">
    <g id="temporary_down" transform="translate(0 130)">
      <g id="Group_47437" data-name="Group 47437" transform="translate(-448.101 -220.629)">
        <g id="Group_47434" data-name="Group 47434" transform="translate(545.829 453.74)">
          <g id="Group_47433" data-name="Group 47433" transform="translate(0 7.731)">
            <circle id="Ellipse_3303" data-name="Ellipse 3303" cx="80.508" cy="80.508" r="80.508" fill="#e7eaef"/>
          </g>
          <rect id="Rectangle_11265" data-name="Rectangle 11265" width="103.79" height="171.679" rx="9.36" transform="translate(30.39 2.222)" fill="#fff"/>
          <path id="Path_64132" data-name="Path 64132" d="M652.929,629.862H576.864a16.1,16.1,0,0,1-16.084-16.084V469.824a16.1,16.1,0,0,1,16.084-16.084h76.065a16.1,16.1,0,0,1,16.084,16.084V613.779A16.1,16.1,0,0,1,652.929,629.862ZM576.864,458.183a11.654,11.654,0,0,0-11.641,11.641V613.779a11.654,11.654,0,0,0,11.641,11.641h76.065a11.654,11.654,0,0,0,11.641-11.641V469.824a11.654,11.654,0,0,0-11.641-11.641Z" transform="translate(-532.611 -453.74)" fill="#001968"/>
        </g>
        <circle id="Ellipse_3305" data-name="Ellipse 3305" cx="5.398" cy="5.398" r="5.398" transform="translate(727.106 495.594)" fill="#e7eaef"/>
        <circle id="Ellipse_3306" data-name="Ellipse 3306" cx="3.799" cy="3.799" r="3.799" transform="translate(712.977 483.597)" fill="#2dd4bf"/>
        <circle id="Ellipse_3307" data-name="Ellipse 3307" cx="3.199" cy="3.199" r="3.199" transform="translate(534.633 492.395)" fill="#ffd9a9"/>
        <circle id="Ellipse_3308" data-name="Ellipse 3308" cx="3.199" cy="3.199" r="3.199" transform="translate(533.3 619.288)" fill="#ff8999"/>
      </g>
      <g id="Group_61997" data-name="Group 61997" transform="translate(-248.683 -79.087)">
        <path id="Path_69964" data-name="Path 69964" d="M456.8,543.24c1.576-1.6,2.941-3,4.321-4.383,1.033-1.035,2.053-1.148,2.847-.346s.655,1.826-.378,2.86q-7.189,7.2-14.388,14.387c-1.219,1.216-2.066,1.221-3.268.033-1.259-1.245-2.517-2.492-3.756-3.758a1.823,1.823,0,0,1-.223-2.7,1.786,1.786,0,0,1,2.687.191c.936.925,1.833,1.891,2.654,2.741l6.858-6.882a9.445,9.445,0,0,0-9.492-2.918,9.3,9.3,0,0,0-7.4,7.529,9.835,9.835,0,1,0,19.447,2.414c.081-1.358.768-2.161,1.83-2.138,1.109.024,1.786.929,1.734,2.319a13.4,13.4,0,1,1-4.135-10.229A7.576,7.576,0,0,1,456.8,543.24Z" transform="translate(-40.605 -152.458)" fill="#ea8ac6"/>
        <path id="Path_69965" data-name="Path 69965" d="M446.72,714.175a13.4,13.4,0,1,1,13.436-13.342A13.5,13.5,0,0,1,446.72,714.175Zm9.871-13.447a9.85,9.85,0,1,0-9.773,9.881A9.847,9.847,0,0,0,456.591,700.728Z" transform="translate(-40.48 -268.065)" fill="#ea8ac6"/>
        <path id="Path_69966" data-name="Path 69966" d="M460.155,407.8a13.4,13.4,0,1,1-13.3-13.476A13.5,13.5,0,0,1,460.155,407.8Zm-3.565-.1a9.85,9.85,0,1,0-9.79,9.866A9.839,9.839,0,0,0,456.59,407.7Z" transform="translate(-40.479 -41.284)" fill="#ea8ac6"/>
        <path id="Path_69967" data-name="Path 69967" d="M601.44,701.968h18.423a7.048,7.048,0,0,1,1.016.018,1.649,1.649,0,0,1,1.573,1.632,1.6,1.6,0,0,1-1.368,1.794,6.221,6.221,0,0,1-1.346.094q-18.254.007-36.507,0c-1.867,0-2.727-.569-2.722-1.791s.842-1.751,2.735-1.751Z" transform="translate(-154.364 -279.356)" fill="#fdb8e3"/>
        <path id="Path_69968" data-name="Path 69968" d="M601.433,408.935h18.535a5.3,5.3,0,0,1,1.015.029,1.639,1.639,0,0,1,1.465,1.613,1.6,1.6,0,0,1-1.366,1.794,6.309,6.309,0,0,1-1.348.086q-18.253.006-36.505,0c-1.881,0-2.73-.557-2.727-1.779s.837-1.748,2.735-1.748Z" transform="translate(-154.36 -52.582)" fill="#fdb8e3"/>
        <path id="Path_69969" data-name="Path 69969" d="M601.476,558.961c-6.254,0-12.508.015-18.761-.023a2.927,2.927,0,0,1-1.748-.547,1.671,1.671,0,0,1,.749-2.848,5.425,5.425,0,0,1,1.345-.1q18.366-.007,36.732,0c.151,0,.3,0,.452,0,1.39.035,2.158.666,2.154,1.77s-.777,1.751-2.16,1.753Q610.856,558.968,601.476,558.961Z" transform="translate(-154.297 -165.962)" fill="#fdb8e3"/>
        <path id="Path_69970" data-name="Path 69970" d="M599.107,629.123q7.962,0,15.924,0a5.1,5.1,0,0,1,1.233.077,1.744,1.744,0,0,1,.059,3.377,3.56,3.56,0,0,1-1,.1q-16.263.007-32.525,0a3.348,3.348,0,0,1-.9-.078,1.75,1.75,0,0,1,.048-3.414,4.853,4.853,0,0,1,1.123-.063Q591.089,629.12,599.107,629.123Z" transform="translate(-154.404 -222.989)" fill="#fdb8e3"/>
        <path id="Path_69971" data-name="Path 69971" d="M599.092,486.236q-7.96,0-15.92,0a7.2,7.2,0,0,1-1.127-.034,1.728,1.728,0,0,1,0-3.418,6.663,6.663,0,0,1,1.014-.035q16.033,0,32.066,0a5.612,5.612,0,0,1,1.125.053,1.73,1.73,0,0,1,0,3.38,5.891,5.891,0,0,1-1.237.053Q607.052,486.238,599.092,486.236Z" transform="translate(-154.412 -109.71)" fill="#fdb8e3"/>
        <path id="Path_69972" data-name="Path 69972" d="M599.044,779.3q-7.96,0-15.921,0a5.5,5.5,0,0,1-1.236-.065,1.731,1.731,0,0,1,.079-3.382,4.723,4.723,0,0,1,.9-.039q16.2,0,32.406,0a5,5,0,0,1,.9.034,1.73,1.73,0,0,1,.03,3.4,6.617,6.617,0,0,1-1.238.052Q607,779.3,599.044,779.3Z" transform="translate(-154.407 -336.506)" fill="#fdb8e3"/>
        <path id="Path_69973" data-name="Path 69973" d="M596.236,592.248q6.556,0,13.113,0a5.1,5.1,0,0,1,1.23.1,1.6,1.6,0,0,1,1.3,1.629,1.639,1.639,0,0,1-1.321,1.735,4.713,4.713,0,0,1-1.233.08q-13.113.006-26.225,0a5.4,5.4,0,0,1-1.015-.032,1.679,1.679,0,0,1-1.518-1.7A1.638,1.638,0,0,1,582,592.313a5.583,5.583,0,0,1,1.124-.062Q589.679,592.245,596.236,592.248Z" transform="translate(-154.409 -194.452)" fill="#fdb8e3"/>
        <path id="Path_69974" data-name="Path 69974" d="M596.217,445.851q6.554,0,13.109,0a5.008,5.008,0,0,1,1.126.046,1.618,1.618,0,0,1,1.371,1.688,1.594,1.594,0,0,1-1.358,1.691,6.5,6.5,0,0,1-1.35.067q-12.94,0-25.879,0h-.226c-1.692-.007-2.509-.575-2.515-1.745s.811-1.749,2.5-1.749Q589.606,445.849,596.217,445.851Z" transform="translate(-154.354 -81.152)" fill="#fdb8e3"/>
        <path id="Path_69975" data-name="Path 69975" d="M596.139,738.919q6.837,0,13.674,0c1.228,0,1.967.634,2.013,1.657.048,1.08-.687,1.775-1.96,1.839-.338.017-.678.007-1.017.007H584.89c-.791,0-1.583.019-2.373-.008-1.284-.043-2.044-.727-2.026-1.786s.793-1.709,2.086-1.711Q589.358,738.91,596.139,738.919Z" transform="translate(-154.351 -307.957)" fill="#fdb8e3"/>
      </g>
      <g transform="matrix(1, 0, 0, 1, 85.2, 233.11)" filter="url(#Ellipse_3316)">
        <circle id="Ellipse_3316-2" data-name="Ellipse 3316" cx="28.613" cy="28.613" r="28.613" transform="translate(123.25 105.3)" fill="#fff"/>
      </g>
    </g>
    <g id="Group_61998" data-name="Group 61998" transform="translate(-184.838 75.162)">
      <path id="Path_69976" data-name="Path 69976" d="M484.337,408h1.189a1.183,1.183,0,0,0,.178.049,6.3,6.3,0,0,1,5.286,4.475c.114.395.179.8.266,1.206v1.135a2.315,2.315,0,0,0-.051.233,6.321,6.321,0,0,1-7.492,5.4c-.4-.083-.793-.211-1.189-.318v5.282c.057-.009.093-.013.127-.021a2.424,2.424,0,0,1,3.095,2.406c0,.648.009,1.3,0,1.945a7.065,7.065,0,0,1-1.781,4.608,3.535,3.535,0,0,1-1.73,1.145c-.162.046-.326.087-.489.13H470.229c-.059-.018-.117-.041-.178-.053a2.618,2.618,0,0,1-2.131-2.463q-.045-3.458,0-6.916a2.37,2.37,0,0,1,2.372-2.294,8.041,8.041,0,0,1,1.156.167,2.409,2.409,0,0,1,1.708-1.22,2.452,2.452,0,0,1,2.057.57,2.5,2.5,0,0,1,2.426-.484v-.31c0-1.477.006-2.954,0-4.431a2.5,2.5,0,0,1,1.066-2.159.33.33,0,0,0,.1-.26c-.035-.312-.116-.619-.145-.931a6.285,6.285,0,0,1,4.555-6.644C483.579,408.141,483.961,408.081,484.337,408Zm-3.456,15.892v-1.486c0-1.423,0-2.847,0-4.27a.8.8,0,0,0-.9-.84.83.83,0,0,0-.717.924q0,4.8,0,9.594a.817.817,0,1,1-1.621.008c0-.8,0-1.6,0-2.405a1.387,1.387,0,0,0-.024-.322.809.809,0,0,0-1.594.2c-.009.847,0,1.694,0,2.54a.815.815,0,1,1-1.62,0c0-.811,0-1.622,0-2.432a.816.816,0,1,0-1.621-.01c0,.829,0,1.658,0,2.486a.811.811,0,1,1-1.619-.007c0-.477,0-.955,0-1.432a.812.812,0,1,0-1.62,0q0,3.257,0,6.513a1.04,1.04,0,0,0,1.1,1.107q5.324,0,10.648,0a1.62,1.62,0,0,0,1.337-.593,9.432,9.432,0,0,0,.995-1.468c.715-1.386.5-2.9.5-4.376a.2.2,0,0,0-.015-.052.808.808,0,0,0-1.588.215c-.01.612,0,1.225-.005,1.838a.8.8,0,0,1-.9.817.822.822,0,0,1-.72-.894Q480.879,426.716,480.881,423.892ZM484.648,419a4.753,4.753,0,0,0,4.906-5.544,4.692,4.692,0,1,0-9.158,2.022.4.4,0,0,0,.222.245,2.427,2.427,0,0,1,1.88,2.4.314.314,0,0,0,.191.313A4.529,4.529,0,0,0,484.648,419Z" transform="translate(-55.58)" fill="#c80880"/>
      <path id="Path_69977" data-name="Path 69977" d="M414.919,408c.471.109.954.181,1.41.334a6.309,6.309,0,1,1-8.28,6.735,2.006,2.006,0,0,0-.049-.2V413.73a1.288,1.288,0,0,0,.049-.18,6.308,6.308,0,0,1,4.893-5.393c.261-.058.525-.1.788-.156Zm-.585,11a4.69,4.69,0,1,0-4.712-4.648A4.709,4.709,0,0,0,414.334,419Z" fill="#c80880"/>
      <path id="Path_69978" data-name="Path 69978" d="M671.608,470.581c.56-.559,1.08-1.1,1.622-1.608a1.233,1.233,0,0,1,.55-.3.749.749,0,0,1,.824.429.814.814,0,0,1-.166.947c-.408.42-.826.831-1.239,1.245-.312.312-.621.628-.937.936a.816.816,0,0,1-1.262,0q-.521-.51-1.032-1.032a.809.809,0,0,1-.031-1.181.819.819,0,0,1,1.182.045C671.286,470.219,671.437,470.4,671.608,470.581Z" transform="translate(-242.836 -56.282)" fill="#fdb8e3"/>
      <path id="Path_69979" data-name="Path 69979" d="M470.729,469.543c.2-.207.359-.388.532-.556a.808.808,0,1,1,1.141,1.143c-.168.174-.355.329-.59.543.222.195.414.344.583.516a.808.808,0,0,1,.02,1.182.816.816,0,0,1-1.164-.039c-.167-.163-.319-.342-.534-.575-.182.206-.326.387-.489.549a.812.812,0,1,1-1.142-1.145c.157-.159.323-.309.519-.5-.2-.188-.372-.342-.534-.507a.812.812,0,1,1,1.148-1.143C470.382,469.173,470.534,469.34,470.729,469.543Z" transform="translate(-56.409 -56.353)" fill="#fdb8e3"/>
    </g>
  </g>
</svg>
