<svg xmlns="http://www.w3.org/2000/svg" width="10.774" height="9.454" viewBox="0 0 10.774 9.454">
  <g id="Group_59918" data-name="Group 59918" transform="translate(0 0)">
    <path id="Path_68866" data-name="Path 68866" d="M216,127.328v-7.12a.405.405,0,0,1,.424-.234c.877.007,1.753,0,2.63,0h.123c0-.108,0-.2,0-.29a.947.947,0,0,1,.973-.969c.824,0,1.648-.006,2.472,0a1.084,1.084,0,0,1,.435.1.912.912,0,0,1,.539.867c0,.1,0,.193,0,.291h.143c.877,0,1.753,0,2.63,0a.362.362,0,0,1,.4.255v7.1a2.01,2.01,0,0,1-.1.3.94.94,0,0,1-.91.543h-8.763a.919.919,0,0,1-.816-.393A2.451,2.451,0,0,1,216,127.328Zm.65-5.036-.019,0v.1q0,2.373,0,4.746c0,.287.111.4.4.4h8.71c.289,0,.4-.11.4-.4q0-2.368,0-4.735V122.3a.153.153,0,0,0-.045.074l-.439,1.312a.954.954,0,0,1-.977.706h-1.717c0,.1,0,.195,0,.285a.318.318,0,0,1-.349.344q-1.231,0-2.461,0a.318.318,0,0,1-.346-.348c0-.093,0-.186,0-.282h-1.72a.954.954,0,0,1-.972-.7c-.086-.255-.17-.511-.255-.766Zm9.368-1.679h-9.26c.007.024.012.04.017.056q.473,1.417.947,2.834a.326.326,0,0,0,.362.255h1.725c0-.11,0-.2,0-.3a.314.314,0,0,1,.33-.331q1.246,0,2.493,0a.314.314,0,0,1,.332.329c0,.1,0,.194,0,.3h1.68c.26,0,.343-.059.424-.3l.455-1.362Zm-6.208-.643h3.155c0-.094,0-.181,0-.268a.322.322,0,0,0-.359-.355h-1.03c-.476,0-.953,0-1.429,0a.313.313,0,0,0-.335.292C219.8,119.747,219.81,119.855,219.81,119.97Zm2.519,3.8h-1.881v.617h1.881Z" transform="translate(-216 -118.714)" fill="#001968"/>
  </g>
</svg>
