<svg xmlns="http://www.w3.org/2000/svg" width="58" height="58" viewBox="0 0 58 58">
  <g id="blog" transform="translate(-34 -158)">
    <circle id="Ellipse_3228" data-name="Ellipse 3228" cx="29" cy="29" r="29" transform="translate(34 158)" fill="#001968" opacity="0.01"/>
    <g id="Group_61893" data-name="Group 61893" transform="translate(30.952 158.322)">
      <g id="Group_61885" data-name="Group 61885" transform="translate(17.68 17.339)">
        <path id="Path_69844" data-name="Path 69844" d="M46.415,19.014V37.125a1.841,1.841,0,0,1-1.824,1.855H19.5a1.841,1.841,0,0,1-1.824-1.855V19.014A1.832,1.832,0,0,1,19.5,17.17H44.592A1.832,1.832,0,0,1,46.415,19.014Z" transform="translate(-17.68 -17.17)" fill="#41739f" style="mix-blend-mode: normal;isolation: isolate"/>
        <path id="Path_69845" data-name="Path 69845" d="M24.3,41.614H39.034A1.923,1.923,0,0,0,37.728,40.2H34.933l-.273-2.658h-6l-.319,2.634H25.609A1.723,1.723,0,0,0,24.3,41.614Z" transform="translate(-17.284 -15.953)" fill="#2e6c93" style="mix-blend-mode: normal;isolation: isolate"/>
        <path id="Path_69846" data-name="Path 69846" d="M46.343,18.982V36.245H18.9V18.982a1.788,1.788,0,0,1,1.779-1.812H44.563A1.8,1.8,0,0,1,46.343,18.982Z" transform="translate(-17.607 -17.17)" fill="#83a7c5" style="mix-blend-mode: normal;isolation: isolate"/>
        <path id="Path_69847" data-name="Path 69847" d="M46.415,19.014V36.245H17.68V19.014A1.832,1.832,0,0,1,19.5,17.17H44.592A1.832,1.832,0,0,1,46.415,19.014Z" transform="translate(-17.68 -17.17)" fill="#83a7c5" opacity="0.5" style="mix-blend-mode: normal;isolation: isolate"/>
        <rect id="Rectangle_11915" data-name="Rectangle 11915" width="25.818" height="15.339" rx="0.674" transform="translate(1.46 1.909)" fill="#cce6f2" style="mix-blend-mode: normal;isolation: isolate"/>
        <rect id="Rectangle_11916" data-name="Rectangle 11916" width="24.664" height="14.063" rx="0.63" transform="translate(2.614 1.909)" fill="#eafaff" style="mix-blend-mode: normal;isolation: isolate"/>
        <circle id="Ellipse_3279" data-name="Ellipse 3279" cx="0.4" cy="0.4" r="0.4" transform="translate(21.75 19.799)" fill="#5d83a0" style="mix-blend-mode: normal;isolation: isolate"/>
        <circle id="Ellipse_3280" data-name="Ellipse 3280" cx="0.4" cy="0.4" r="0.4" transform="translate(23.289 19.799)" fill="#5d83a0" style="mix-blend-mode: normal;isolation: isolate"/>
        <circle id="Ellipse_3281" data-name="Ellipse 3281" cx="0.4" cy="0.4" r="0.4" transform="translate(24.797 19.799)" fill="#5d83a0" style="mix-blend-mode: normal;isolation: isolate"/>
        <path id="Path_69848" data-name="Path 69848" d="M25.308,41.537a1.439,1.439,0,0,1,1.316-1.358h2.693V38.9a.552.552,0,0,1,.552-.552h4.845l.172,1.792,2.835.02a1.777,1.777,0,0,1,1.256,1.427H25.268" transform="translate(-17.227 -15.905)" fill="#41739f" style="mix-blend-mode: normal;isolation: isolate"/>
      </g>
      <path id="Path_69849" data-name="Path 69849" d="M27.422,29.819,29.8,27.8h7.108a1.519,1.519,0,0,0,1.519-1.519V17.538a1.519,1.519,0,0,0-1.519-1.519H24.334a1.519,1.519,0,0,0-1.519,1.519V26.1a1.518,1.518,0,0,0,1.519,1.519h2l.335,1.926A.459.459,0,0,0,27.422,29.819Z" transform="translate(0.307 0.1)" fill="#4fcbf7" style="mix-blend-mode: normal;isolation: isolate"/>
      <path id="Path_69850" data-name="Path 69850" d="M28.284,29.74,30.8,27.8h7.108a1.519,1.519,0,0,0,1.519-1.519V17.538a1.519,1.519,0,0,0-1.519-1.519H25.334a1.519,1.519,0,0,0-1.519,1.519V26.1a1.518,1.518,0,0,0,1.519,1.519h2l.211,1.809A.458.458,0,0,0,28.284,29.74Z" transform="translate(0.366 0.1)" fill="#72d1fb" style="mix-blend-mode: normal;isolation: isolate"/>
      <g id="Group_61892" data-name="Group 61892" transform="translate(26.481 18.885)">
        <g id="Group_61886" data-name="Group 61886" transform="translate(0.011 1.852)">
          <path id="Path_69851" data-name="Path 69851" d="M36.715,21.225h-10.3a.424.424,0,0,1,0-.848h10.3a.424.424,0,1,1,0,.848Z" transform="translate(-25.995 -20.377)" fill="#fff"/>
        </g>
        <g id="Group_61887" data-name="Group 61887" transform="translate(0 3.584)">
          <path id="Path_69852" data-name="Path 69852" d="M30.449,22.859h-4.04a.424.424,0,0,1,0-.848h4.04a.424.424,0,1,1,0,.848Z" transform="translate(-25.985 -22.011)" fill="#fff"/>
        </g>
        <g id="Group_61888" data-name="Group 61888" transform="translate(5.022 3.584)">
          <path id="Path_69853" data-name="Path 69853" d="M35.734,22.859H31.148a.424.424,0,0,1,0-.848h4.586a.424.424,0,1,1,0,.848Z" transform="translate(-30.724 -22.011)" fill="#fff"/>
        </g>
        <g id="Group_61889" data-name="Group 61889" transform="translate(0 5.436)">
          <path id="Path_69854" data-name="Path 69854" d="M35.835,24.607H26.409a.424.424,0,0,1,0-.848h9.426a.424.424,0,1,1,0,.848Z" transform="translate(-25.985 -23.759)" fill="#fff"/>
        </g>
        <g id="Group_61890" data-name="Group 61890" transform="translate(5.153)">
          <path id="Path_69855" data-name="Path 69855" d="M36.425,19.477H31.272a.424.424,0,0,1,0-.848h5.153a.424.424,0,1,1,0,.848Z" transform="translate(-30.848 -18.629)" fill="#fff"/>
        </g>
        <g id="Group_61891" data-name="Group 61891" transform="translate(0.011)">
          <path id="Path_69856" data-name="Path 69856" d="M30.459,19.477h-4.04a.424.424,0,0,1,0-.848h4.04a.424.424,0,0,1,0,.848Z" transform="translate(-25.995 -18.629)" fill="#fff"/>
        </g>
      </g>
      <path id="Path_69857" data-name="Path 69857" d="M41.666,15.813a1.5,1.5,0,0,1-.212.752l-.583.975L38.36,16.025l.562-.954a1.473,1.473,0,0,1,2.745.742Z" transform="translate(1.235 0)" fill="#ff6969" style="mix-blend-mode: normal;isolation: isolate"/>
      <path id="Path_69858" data-name="Path 69858" d="M41.1,17.445l-.646,1.07-3.381,5.648-2.448-1.409a.037.037,0,0,0-.021-.011l3.338-5.712.646-1.1Z" transform="translate(1.011 0.095)" fill="#ffe958" style="mix-blend-mode: normal;isolation: isolate"/>
      <path id="Path_69859" data-name="Path 69859" d="M35.325,25.174s-.4.569-.926.425c0,0-.441-.159-.145-1.01Z" transform="translate(0.984 0.612)" fill="#2e6c93" style="mix-blend-mode: normal;isolation: isolate"/>
      <path id="Path_69860" data-name="Path 69860" d="M37.092,23.78l-.042.064-1.8,1.515-1.028-.572.392-2.406.011-.021a.037.037,0,0,1,.021.011Z" transform="translate(0.988 0.479)" fill="#f4baa6" style="mix-blend-mode: normal;isolation: isolate"/>
      <path id="Path_69861" data-name="Path 69861" d="M40.908,17.445l-.646,1.07L37.75,17.032l.646-1.1Z" transform="translate(1.199 0.095)" fill="#41739f" style="mix-blend-mode: normal;isolation: isolate"/>
    </g>
  </g>
</svg>
