<svg xmlns="http://www.w3.org/2000/svg" width="114.999" height="102.066" viewBox="0 0 114.999 102.066">
  <g id="Group_66189" data-name="Group 66189" transform="translate(-54.81 -80.34)">
    <path id="Path_76196" data-name="Path 76196" d="M183.559,82.292v8.241H84.6V82.292a1.95,1.95,0,0,1,1.949-1.952h95.058A1.952,1.952,0,0,1,183.559,82.292Z" transform="translate(-21.459)" fill="#fdc74f"/>
    <path id="Path_76197" data-name="Path 76197" d="M401.869,82.292v8.241H387.66V80.34h12.257A1.952,1.952,0,0,1,401.869,82.292Z" transform="translate(-239.769)" fill="#dd980e"/>
    <path id="Path_76198" data-name="Path 76198" d="M64.223,116.79l-7.712,15.987H170.75l-7.568-15.987Z" transform="translate(-1.225 -26.257)" fill="#fc502a"/>
    <rect id="Rectangle_13057" data-name="Rectangle 13057" width="98.245" height="61.879" transform="translate(62.997 110.518)" fill="#dbdbdb"/>
    <rect id="Rectangle_13058" data-name="Rectangle 13058" width="12.281" height="61.879" transform="translate(148.962 110.518)" fill="#b9bbc1"/>
    <path id="Path_76199" data-name="Path 76199" d="M120.221,116.774l-5.5,16.058L131,132.758l3.5-15.984Z" transform="translate(-43.159 -26.245)" fill="#fff"/>
    <path id="Path_76200" data-name="Path 76200" d="M232.731,116.511,231.66,132.79l16.35-.074-1.142-16.132Z" transform="translate(-127.394 -26.056)" fill="#fff"/>
    <path id="Path_76201" data-name="Path 76201" d="M336.851,116.848l3.07,16.058h16.422l-5.426-16.132Z" transform="translate(-203.169 -26.245)" fill="#fff"/>
    <path id="Path_76202" data-name="Path 76202" d="M73.095,173.47v6.748a8.163,8.163,0,0,1-16.325,0V173.47Z" transform="translate(-1.412 -67.086)" fill="#e60d28"/>
    <path id="Path_76203" data-name="Path 76203" d="M131.48,173.47v6.748a8.163,8.163,0,0,1-16.325,0V173.47Z" transform="translate(-43.47 -67.086)" fill="#f2f2f2"/>
    <path id="Path_76204" data-name="Path 76204" d="M190.117,173.215v6.748a8.163,8.163,0,0,1-16.325,0v-6.748Z" transform="translate(-85.709 -66.903)" fill="#e60d28"/>
    <path id="Path_76205" data-name="Path 76205" d="M248.5,173.215v6.748a8.163,8.163,0,0,1-16.325,0v-6.748Z" transform="translate(-127.767 -66.903)" fill="#f2f2f2"/>
    <path id="Path_76206" data-name="Path 76206" d="M306.883,173.725v6.748a8.163,8.163,0,0,1-16.325,0v-6.748Z" transform="translate(-169.822 -67.27)" fill="#e60d28"/>
    <path id="Path_76207" data-name="Path 76207" d="M423.65,173.981v6.748a8.163,8.163,0,0,1-16.325,0v-6.748Z" transform="translate(-253.935 -67.455)" fill="#e60d28"/>
    <path id="Path_76208" data-name="Path 76208" d="M365.268,173.725v6.748a8.163,8.163,0,0,1-16.325,0v-6.748Z" transform="translate(-211.879 -67.27)" fill="#f2f2f2"/>
    <path id="Path_76209" data-name="Path 76209" d="M131.14,260.767V300.8H107.91V260.767a2.048,2.048,0,0,1,2.047-2.047h19.136A2.048,2.048,0,0,1,131.14,260.767Z" transform="translate(-38.251 -128.497)" fill="#00c6c8"/>
    <path id="Path_76210" data-name="Path 76210" d="M161.554,260.767V300.8H150.13V258.72h9.377A2.048,2.048,0,0,1,161.554,260.767Z" transform="translate(-68.664 -128.497)" fill="#0fb0c0"/>
    <rect id="Rectangle_13059" data-name="Rectangle 13059" width="3.427" height="9.139" rx="1.714" transform="translate(83.845 147.455)" fill="#fff"/>
    <rect id="Rectangle_13060" data-name="Rectangle 13060" width="53.312" height="30.94" rx="3.915" transform="translate(99.839 130.605)" fill="#00c6c8"/>
    <path id="Path_76211" data-name="Path 76211" d="M355.217,261.183v28.751a1.1,1.1,0,0,1-1.1,1.093h-18.8V260.09h18.8A1.1,1.1,0,0,1,355.217,261.183Z" transform="translate(-202.066 -129.483)" fill="#0fb0c0"/>
    <path id="Path_76212" data-name="Path 76212" d="M169.809,412.843v6.236h-115v-6.236a3.951,3.951,0,0,1,3.951-3.951h107.1A3.951,3.951,0,0,1,169.809,412.843Z" transform="translate(0 -236.673)" fill="#8b8996"/>
    <path id="Path_76213" data-name="Path 76213" d="M433.185,412.843v6.236H420.43V408.892h8.8A3.951,3.951,0,0,1,433.185,412.843Z" transform="translate(-263.375 -236.673)" fill="#706f7f"/>
  </g>
</svg>
