<svg xmlns="http://www.w3.org/2000/svg" width="41.764" height="42.683" viewBox="0 0 41.764 42.683">
  <g id="Group_61912" data-name="Group 61912" transform="translate(-12.287 -5.645)">
    <path id="Path_69876" data-name="Path 69876" d="M39.686,35.758a2.3,2.3,0,0,1-1.92.562c-2.683-.17-7.18-2.779-11.444-6.841-4.486-4.274-7.35-8.867-7.4-11.5a2.082,2.082,0,0,1,.5-1.57c1.792-1.867,7.774.944,13.374,6.289S41.479,33.891,39.686,35.758Z" transform="translate(0.402 0.617)" fill="#d1e3ee" style="mix-blend-mode: normal;isolation: isolate"/>
    <path id="Path_69877" data-name="Path 69877" d="M15.779,31.41a19.64,19.64,0,0,0,4.232,11.263L12.29,45.59Z" transform="translate(0 1.561)" fill="#dd1c4b" style="mix-blend-mode: normal;isolation: isolate"/>
    <path id="Path_69878" data-name="Path 69878" d="M38.661,36.175l-8.315,3.3A22.346,22.346,0,0,1,17.29,24.892l1.729-7.032c.053,2.63,2.917,7.223,7.4,11.5,4.264,4.062,8.76,6.671,11.444,6.841Z" transform="translate(0.303 0.74)" fill="#dd1c4b" style="mix-blend-mode: normal;isolation: isolate"/>
    <path id="Path_69879" data-name="Path 69879" d="M30.449,39.073l-10.638,4.02A19.64,19.64,0,0,1,15.58,31.829l1.814-7.339A22.346,22.346,0,0,0,30.449,39.073Z" transform="translate(0.2 1.142)" fill="#fff"/>
    <path id="Path_69880" data-name="Path 69880" d="M17.923,13.017l-2.155-1.143L13.606,13l.421-2.4L12.287,8.89,14.7,8.548l1.087-2.183L16.86,8.556l2.412.359-1.753,1.7Z" transform="translate(0 0.044)" fill="#ffdb43" style="mix-blend-mode: normal;isolation: isolate"/>
    <g id="Group_61897" data-name="Group 61897" transform="translate(25.085 9.878)" style="mix-blend-mode: normal;isolation: isolate">
      <path id="Path_69881" data-name="Path 69881" d="M25.042,25.917a.688.688,0,0,1-.567-1.081c3.834-5.554,2.086-14.283,2.068-14.371a.689.689,0,0,1,1.349-.28c.08.381,1.891,9.389-2.281,15.435A.692.692,0,0,1,25.042,25.917Z" transform="translate(-24.354 -9.636)" fill="#ffbf41"/>
    </g>
    <g id="Group_61898" data-name="Group 61898" transform="translate(28.425 18.855)">
      <path id="Path_69882" data-name="Path 69882" d="M28.192,26.087a.689.689,0,0,1-.458-1.2l7.417-6.607a.69.69,0,1,1,.917,1.03l-7.418,6.606A.683.683,0,0,1,28.192,26.087Z" transform="translate(-27.503 -18.101)" fill="#ffbf41"/>
    </g>
    <g id="Group_61899" data-name="Group 61899" transform="translate(33.086 19.221)">
      <path id="Path_69883" data-name="Path 69883" d="M32.587,26.958a.689.689,0,0,1-.294-1.313l15.159-7.134a.689.689,0,1,1,.587,1.247L32.88,26.893A.684.684,0,0,1,32.587,26.958Z" transform="translate(-31.898 -18.445)" fill="#ffbf41"/>
    </g>
    <g id="Group_61900" data-name="Group 61900" transform="translate(31.546 28.631)">
      <path id="Path_69884" data-name="Path 69884" d="M45.786,30.393a.7.7,0,0,1-.334-.087c-5.779-3.217-14.021-.577-14.1-.548a.69.69,0,0,1-.43-1.311c.36-.118,8.89-2.858,15.2.654a.69.69,0,0,1-.337,1.292Z" transform="translate(-30.446 -27.318)" fill="#ffbf41"/>
    </g>
    <g id="Group_61901" data-name="Group 61901" transform="translate(43.543 36.054)">
      <path id="Path_69885" data-name="Path 69885" d="M50.807,46.591a.68.68,0,0,1-.375-.113.688.688,0,0,1-.2-.953,3.594,3.594,0,0,0,.087-3.933,4.076,4.076,0,0,1-.539,1.878,3.022,3.022,0,0,1-2.548,1.544,2.951,2.951,0,0,1-2.412-1.04,2.371,2.371,0,0,1-.484-1.943,3.96,3.96,0,0,1,1.729-2.553A3.594,3.594,0,0,1,47.8,38.94a12.045,12.045,0,0,0-2.468-1.933A7.645,7.645,0,0,0,42.4,35.693a.689.689,0,0,1-.64-.735.718.718,0,0,1,.735-.641,8.566,8.566,0,0,1,3.559,1.516,10.506,10.506,0,0,1,3.762,3.548,4.423,4.423,0,0,1,1.293.991,4.855,4.855,0,0,1,.277,5.907A.689.689,0,0,1,50.807,46.591Zm-2.83-6.281a2.21,2.21,0,0,0-1.183.337,2.606,2.606,0,0,0-1.1,1.609,1,1,0,0,0,.19.845,1.571,1.571,0,0,0,1.285.535,1.671,1.671,0,0,0,1.418-.865,2.886,2.886,0,0,0,.2-2.325A2.586,2.586,0,0,0,47.977,40.31Z" transform="translate(-41.757 -34.316)" fill="#2bb3ce"/>
    </g>
    <circle id="Ellipse_3282" data-name="Ellipse 3282" cx="1.5" cy="1.5" r="1.5" transform="translate(48.853 31.726)" fill="#d5557e" style="mix-blend-mode: normal;isolation: isolate"/>
    <circle id="Ellipse_3283" data-name="Ellipse 3283" cx="1.434" cy="1.434" r="1.434" transform="translate(32.007 11.992)" fill="#dd95c1" style="mix-blend-mode: normal;isolation: isolate"/>
    <circle id="Ellipse_3284" data-name="Ellipse 3284" cx="1.434" cy="1.434" r="1.434" transform="translate(25.645 5.65)" fill="#7fcccb" style="mix-blend-mode: normal;isolation: isolate"/>
    <rect id="Rectangle_11920" data-name="Rectangle 11920" width="3.557" height="3.557" transform="translate(38.376 14.094)" fill="#c9da53" style="mix-blend-mode: normal;isolation: isolate"/>
    <g id="Group_61902" data-name="Group 61902" transform="translate(47.565 7.829)">
      <path id="Path_69886" data-name="Path 69886" d="M47.031,9.082h-.791a.689.689,0,1,1,0-1.378h.791a.689.689,0,1,1,0,1.378Z" transform="translate(-45.55 -7.704)" fill="#2276bb"/>
    </g>
    <g id="Group_61903" data-name="Group 61903" transform="translate(43.989 7.829)">
      <path id="Path_69887" data-name="Path 69887" d="M43.658,9.082h-.79a.689.689,0,1,1,0-1.378h.79a.689.689,0,1,1,0,1.378Z" transform="translate(-42.178 -7.704)" fill="#2276bb"/>
    </g>
    <g id="Group_61904" data-name="Group 61904" transform="translate(46.172 5.645)">
      <path id="Path_69888" data-name="Path 69888" d="M44.926,7.814a.69.69,0,0,1-.69-.689V6.333a.69.69,0,0,1,1.38,0v.791A.689.689,0,0,1,44.926,7.814Z" transform="translate(-44.236 -5.645)" fill="#2276bb"/>
    </g>
    <g id="Group_61905" data-name="Group 61905" transform="translate(46.172 9.221)">
      <path id="Path_69889" data-name="Path 69889" d="M44.926,11.187a.69.69,0,0,1-.69-.689V9.706a.69.69,0,0,1,1.38,0V10.5A.69.69,0,0,1,44.926,11.187Z" transform="translate(-44.236 -9.017)" fill="#2276bb"/>
    </g>
    <g id="Group_61906" data-name="Group 61906" transform="translate(46.502 16.43)">
      <path id="Path_69890" data-name="Path 69890" d="M45.784,17.83a.689.689,0,0,1-.524-.241l-.547-.638a.689.689,0,0,1,1.048-.9l.547.638a.689.689,0,0,1-.524,1.137Z" transform="translate(-44.547 -15.814)" fill="#ffbf41"/>
    </g>
    <g id="Group_61907" data-name="Group 61907" transform="translate(48.998 15.455)">
      <path id="Path_69891" data-name="Path 69891" d="M47.59,17.155h-.021a.69.69,0,0,1-.668-.711l.028-.88a.671.671,0,0,1,.71-.668.691.691,0,0,1,.668.711l-.028.88A.688.688,0,0,1,47.59,17.155Z" transform="translate(-46.901 -14.895)" fill="#ffbf41"/>
    </g>
    <g id="Group_61908" data-name="Group 61908" transform="translate(50.93 16.43)">
      <path id="Path_69892" data-name="Path 69892" d="M49.412,17.879a.688.688,0,0,1-.474-1.189L49.662,16a.689.689,0,1,1,.949,1l-.724.687A.687.687,0,0,1,49.412,17.879Z" transform="translate(-48.723 -15.814)" fill="#ffbf41"/>
    </g>
    <g id="Group_61909" data-name="Group 61909" transform="translate(51.686 19.089)">
      <path id="Path_69893" data-name="Path 69893" d="M50.123,19.719a.689.689,0,0,1-.014-1.379l.988-.019a.713.713,0,0,1,.7.676.689.689,0,0,1-.676.7l-.987.019Z" transform="translate(-49.435 -18.321)" fill="#ffbf41"/>
    </g>
    <g id="Group_61910" data-name="Group 61910" transform="translate(50.834 20.959)">
      <path id="Path_69894" data-name="Path 69894" d="M49.99,22.1a.689.689,0,0,1-.476-.191l-.668-.638a.689.689,0,0,1,.952-1l.668.638A.689.689,0,0,1,49.99,22.1Z" transform="translate(-48.632 -20.084)" fill="#ffbf41"/>
    </g>
    <g id="Group_61911" data-name="Group 61911" transform="translate(49.011 21.582)">
      <path id="Path_69895" data-name="Path 69895" d="M47.6,23.16a.689.689,0,0,1-.689-.689V21.361a.69.69,0,0,1,1.38,0v1.109A.69.69,0,0,1,47.6,23.16Z" transform="translate(-46.913 -20.672)" fill="#ffbf41"/>
    </g>
  </g>
</svg>
