<svg xmlns="http://www.w3.org/2000/svg" width="12.54" height="13.242" viewBox="0 0 12.54 13.242">
  <g id="Group_62879" data-name="Group 62879" transform="translate(-7079.513 -3473.072)">
    <path id="Path_71267" data-name="Path 71267" d="M7175.549,3479.7q0,2.531,0,5.063a1.434,1.434,0,0,1-.671,1.329,1.317,1.317,0,0,1-1.409.029,1.4,1.4,0,0,1-.719-1.326q0-2.584,0-5.167,0-2.518,0-5.037a1.4,1.4,0,1,1,2.8-.006C7175.554,3476.294,7175.549,3478,7175.549,3479.7Z" transform="translate(-88.368)" fill="#001968"/>
    <path id="Path_71268" data-name="Path 71268" d="M7082.288,3557.879c0,1.043.007,2.087,0,3.13a1.358,1.358,0,0,1-1.191,1.363,1.376,1.376,0,0,1-1.482-.9,1.506,1.506,0,0,1-.095-.506q-.01-3.117,0-6.234a1.388,1.388,0,0,1,2.734-.349,2.054,2.054,0,0,1,.038.466c0,1.009,0,2.017,0,3.026Z" transform="translate(0 -76.078)" fill="#001968"/>
    <path id="Path_71269" data-name="Path 71269" d="M7266.424,3557.793c0-1.052-.008-2.1,0-3.156a1.38,1.38,0,0,1,2.683-.423,1.526,1.526,0,0,1,.084.483q.008,3.117,0,6.235a1.387,1.387,0,0,1-2.733.353,2.027,2.027,0,0,1-.038-.466c0-1.009,0-2.017,0-3.026Z" transform="translate(-177.147 -76.027)" fill="#001968"/>
  </g>
</svg>
