<svg xmlns="http://www.w3.org/2000/svg" width="11.553" height="11.534" viewBox="0 0 11.553 11.534">
  <g id="Group_59770" data-name="Group 59770" transform="translate(-106 -229.541)">
    <path id="Path_68813" data-name="Path 68813" d="M106,238.39c.021-.182.039-.365.064-.547a6.275,6.275,0,0,1,1.615-3.446,6.4,6.4,0,0,1,3.8-2.049c.207-.034.417-.048.635-.073v-2.734l5.434,4.425-5.427,4.436v-2.739c-.223.024-.431.037-.636.07a6.192,6.192,0,0,0-3.524,1.816,5.749,5.749,0,0,0-1.2,1.784c-.228.539-.462,1.077-.694,1.614-.019.044-.045.085-.068.128Z" transform="translate(0 0)" fill="#001968"/>
  </g>
</svg>
