<svg xmlns="http://www.w3.org/2000/svg" width="34.051" height="35.483" viewBox="0 0 34.051 35.483">
  <g id="losts" transform="translate(-217.559 -250.969)">
    <g id="Group_59968" data-name="Group 59968" transform="translate(217.559 250.969)">
      <g id="Group_59967" data-name="Group 59967">
        <path id="Path_68878" data-name="Path 68878" d="M1172.2,351.3q7.88,0,15.759,0c1.107,0,1.257.151,1.258,1.275q0,6.273,0,12.545a6.614,6.614,0,0,1-6.858,6.875q-10.232.01-20.464,0a6.579,6.579,0,0,1-6.7-6.556c-.051-4.364-.016-8.729-.009-13.093,0-.855.225-1.043,1.175-1.043Q1164.28,351.3,1172.2,351.3Z" transform="translate(-1155.168 -336.514)" fill="#7c60ff"/>
        <path id="Path_68879" data-name="Path 68879" d="M1276.359,270.43c-1.906,0-3.812-.018-5.718.009a1.078,1.078,0,0,1-1.23-.915c-.338-1.286-.742-2.555-1.124-3.829-.139-.463-.172-.976.345-1.124a1.292,1.292,0,0,1,1.051.333c1.2,1.2,4.164,1.394,5.45.245a1.455,1.455,0,0,0,.418-.944c.046-1.33.032-2.663.015-3.994a1.43,1.43,0,1,0-2.843.021c-.006.209.067.477-.035.613-.21.278-.516.672-.779.669a1.046,1.046,0,0,1-.728-.7,3.059,3.059,0,0,1,2.725-3.748c1.861-.155,3.223,1.224,3.237,3.288.009,1.253.021,2.507-.007,3.76a1.319,1.319,0,0,0,.739,1.265,4.684,4.684,0,0,0,5.231-.6,1.041,1.041,0,0,1,.944-.209,1.1,1.1,0,0,1,.373.951c-.347,1.417-.793,2.81-1.2,4.214a.9.9,0,0,1-1.071.689c-.026,0-.052,0-.078,0h-5.718Z" transform="translate(-1250.468 -257.058)" fill="#ed1c24"/>
        <path id="Path_68880" data-name="Path 68880" d="M1164.528,281.168a2.21,2.21,0,0,1,1.193-2.145c2.317-1.081,4.643-2.143,6.994-3.148a2.177,2.177,0,0,1,2.893,1.157c1.2,2.607,2.358,5.235,3.536,7.852.227.5.18.956-.353,1.183s-.9-.032-1.13-.535q-1.666-3.714-3.336-7.426c-.385-.857-.6-.942-1.438-.564q-2.965,1.328-5.926,2.664c-.907.411-.967.586-.564,1.5q.68,1.54,1.376,3.072c.228.5.3,1.013-.279,1.279-.6.278-.965-.083-1.205-.638-.5-1.149-1.029-2.284-1.525-3.433A5.445,5.445,0,0,1,1164.528,281.168Z" transform="translate(-1163.06 -272.764)" fill="#ed1c24"/>
        <circle id="Ellipse_3253" data-name="Ellipse 3253" cx="0.901" cy="0.901" r="0.901" transform="translate(4.407 8.637)" fill="#ed1c24"/>
      </g>
      <path id="Path_68881" data-name="Path 68881" d="M404.089,266.377a13.9,13.9,0,0,1,.092-1.635,2.929,2.929,0,0,1,1.513-2.12,1.886,1.886,0,0,0,.755-2.414,1.778,1.778,0,0,0-2-1.04,1.848,1.848,0,0,0-1.5,1.768.7.7,0,0,1-.844.712.678.678,0,0,1-.51-.708,3.091,3.091,0,0,1,1.684-2.75,3.133,3.133,0,0,1,4.665,2.641,3.086,3.086,0,0,1-1.576,2.952,1.772,1.772,0,0,0-.911,1.622q0,1.116,0,2.231a.61.61,0,0,1-.355.6.694.694,0,0,1-.719-.051.629.629,0,0,1-.271-.562c0-.414,0-.828,0-1.242Z" transform="translate(-388.941 -238.516)" fill="#fff"/>
    </g>
    <path id="Path_68882" data-name="Path 68882" d="M417.447,329.787a.735.735,0,1,1,.72-.736A.7.7,0,0,1,417.447,329.787Z" transform="translate(-184.043 -46.554)" fill="#fff"/>
  </g>
</svg>
