<svg xmlns="http://www.w3.org/2000/svg" width="58" height="58" viewBox="0 0 58 58">
  <g id="offers" transform="translate(-34 -158)">
    <circle id="Ellipse_3228" data-name="Ellipse 3228" cx="29" cy="29" r="29" transform="translate(34 158)" fill="#001968" opacity="0.01"/>
    <g id="Group_61877" data-name="Group 61877" transform="translate(207.652 338.826)">
      <path id="Path_69824" data-name="Path 69824" d="M-140.545-170.111h.492a7.777,7.777,0,0,1,.908.793c.787.928,1.536,1.889,2.313,2.826a.765.765,0,0,0,.422.25c1.3.222,2.608.427,3.914.632a1.226,1.226,0,0,1,1.16,1.159c.2,1.294.406,2.588.629,3.879a.872.872,0,0,0,.282.479c.916.765,1.86,1.5,2.769,2.271a8.4,8.4,0,0,1,.821.928v.492c-.527,1.368-1.057,2.735-1.577,4.106a.562.562,0,0,0,0,.366c.52,1.371,1.05,2.737,1.578,4.105v.492a7.861,7.861,0,0,1-.794.906c-.919.78-1.872,1.52-2.8,2.292a.872.872,0,0,0-.281.479c-.223,1.291-.425,2.585-.629,3.879a1.226,1.226,0,0,1-1.16,1.158c-1.294.2-2.588.406-3.879.626a.817.817,0,0,0-.455.257c-.793.954-1.556,1.934-2.357,2.881a6.783,6.783,0,0,1-.863.737h-.492c-1.363-.526-2.725-1.054-4.092-1.572A.565.565,0,0,0-145-135.7c-1.375.521-2.746,1.053-4.118,1.583h-.492a7.933,7.933,0,0,1-.906-.8c-.788-.928-1.537-1.888-2.315-2.825a.765.765,0,0,0-.422-.25c-1.3-.222-2.608-.427-3.914-.632a1.227,1.227,0,0,1-1.157-1.162c-.2-1.305-.409-2.611-.631-3.914a.765.765,0,0,0-.25-.422c-.937-.777-1.9-1.525-2.827-2.311a7.829,7.829,0,0,1-.794-.906q0-.246,0-.492c.528-1.368,1.059-2.734,1.578-4.105a.561.561,0,0,0,0-.366c-.519-1.371-1.049-2.738-1.577-4.106v-.492a8.412,8.412,0,0,1,.823-.928c.91-.773,1.854-1.5,2.771-2.269a.871.871,0,0,0,.283-.478c.222-1.279.423-2.561.622-3.844a1.246,1.246,0,0,1,1.2-1.2c1.283-.2,2.565-.4,3.844-.622a.872.872,0,0,0,.478-.283c.772-.926,1.513-1.878,2.293-2.8a7.977,7.977,0,0,1,.9-.8h.492c1.368.529,2.734,1.06,4.1,1.58a.562.562,0,0,0,.367,0C-143.28-169.051-141.913-169.582-140.545-170.111ZM-138-159.952a1.264,1.264,0,0,0-.884-1.128,1.178,1.178,0,0,0-1.374.588l-8.814,12.342c-.768,1.076-1.549,2.144-2.3,3.233a1.131,1.131,0,0,0,.856,1.813,1.2,1.2,0,0,0,1.088-.59c.519-.737,1.048-1.466,1.572-2.2q4.745-6.642,9.484-13.288A4.947,4.947,0,0,0-138-159.952Zm-.066,13.461a3.406,3.406,0,0,0-3.4-3.388,3.405,3.405,0,0,0-3.379,3.376,3.4,3.4,0,0,0,3.384,3.4A3.4,3.4,0,0,0-138.069-146.491Zm-6.749-11.246a3.408,3.408,0,0,0-3.4-3.39,3.406,3.406,0,0,0-3.38,3.375,3.4,3.4,0,0,0,3.383,3.4A3.4,3.4,0,0,0-144.818-157.738Z" transform="translate(0)" fill="#f44336"/>
      <path id="Path_69825" data-name="Path 69825" d="M-21.4-66.75a4.949,4.949,0,0,1-.372.771q-4.734,6.65-9.484,13.288c-.524.733-1.053,1.463-1.572,2.2a1.2,1.2,0,0,1-1.088.59,1.131,1.131,0,0,1-.856-1.812c.75-1.089,1.531-2.156,2.3-3.233l8.814-12.342a1.178,1.178,0,0,1,1.374-.588A1.264,1.264,0,0,1-21.4-66.75Z" transform="translate(-116.603 -93.202)" fill="#fff"/>
      <path id="Path_69826" data-name="Path 69826" d="M48.59,63.52a3.39,3.39,0,1,1-3.4-3.388A3.4,3.4,0,0,1,48.59,63.52Zm-3.374-1.1A1.1,1.1,0,1,0,46.3,63.531,1.141,1.141,0,0,0,45.216,62.419Z" transform="translate(-186.659 -210.012)" fill="#fff"/>
      <path id="Path_69827" data-name="Path 69827" d="M-28.216-64.482a3.4,3.4,0,0,1-3.4,3.39A3.4,3.4,0,0,1-35-64.5a3.406,3.406,0,0,1,3.38-3.375A3.408,3.408,0,0,1-28.216-64.482Zm-2.286,0a1.133,1.133,0,0,0-1.1-1.1A1.136,1.136,0,0,0-32.71-64.5a1.136,1.136,0,0,0,1.115,1.118A1.137,1.137,0,0,0-30.5-64.483Z" transform="translate(-116.602 -93.255)" fill="#fff"/>
      <path id="Path_69828" data-name="Path 69828" d="M68.947,86.151a1.1,1.1,0,1,1-1.12,1.08A1.141,1.141,0,0,1,68.947,86.151Z" transform="translate(-210.39 -233.744)" fill="#f44336"/>
      <path id="Path_69829" data-name="Path 69829" d="M-6.767-40.734a1.137,1.137,0,0,1-1.092,1.106,1.136,1.136,0,0,1-1.115-1.118,1.136,1.136,0,0,1,1.11-1.089A1.133,1.133,0,0,1-6.767-40.734Z" transform="translate(-140.337 -117.004)" fill="#f44336"/>
    </g>
  </g>
</svg>
