<svg xmlns="http://www.w3.org/2000/svg" width="30.515" height="40.072" viewBox="0 0 30.515 40.072">
  <g id="safety" transform="translate(-8.7 -2.641)">
    <g id="Group_61859" data-name="Group 61859" transform="translate(8.7 2.641)">
      <g id="Group_61858" data-name="Group 61858">
        <path id="Path_69788" data-name="Path 69788" d="M39.215,8.28V24.168a1.984,1.984,0,0,0-.068.288c-.091.676-.144,1.351-.273,2.012a18.265,18.265,0,0,1-5.367,9.618,51.661,51.661,0,0,1-9.238,6.627h-.547c-.121-.061-.25-.114-.364-.182a2.044,2.044,0,0,1-.22-.121q-1.765-1.116-3.522-2.262A28.23,28.23,0,0,1,12.4,33.8,17.2,17.2,0,0,1,9,26.126c-.121-.729-.2-1.465-.3-2.194V8.28c.023-.03.061-.053.068-.083A1.2,1.2,0,0,1,10,7.422a30.722,30.722,0,0,0,5.147-.235A14.45,14.45,0,0,0,21.066,4.7c.486-.349.949-.721,1.412-1.1.228-.19.455-.372.683-.562.068-.053.129-.106.2-.152a.974.974,0,0,1,.721-.243,1.816,1.816,0,0,1,1.01.622,12.338,12.338,0,0,0,.964.827A15.617,15.617,0,0,0,28.2,5.54c.4.228.82.433,1.237.622A13.474,13.474,0,0,0,33.9,7.324c1.283.106,2.581.1,3.871.083A1.343,1.343,0,0,1,39.215,8.28Z" transform="translate(-8.7 -2.641)" fill="#70da40"/>
      </g>
    </g>
    <circle id="Ellipse_3276" data-name="Ellipse 3276" cx="8.877" cy="8.877" r="8.877" transform="translate(14.312 13.971)" fill="#deecf1"/>
    <g id="Group_61860" data-name="Group 61860" transform="translate(17.528 18.804)">
      <path id="Path_69789" data-name="Path 69789" d="M25.269,31.677A2.026,2.026,0,0,1,23.85,31.1L20.668,28a1.122,1.122,0,0,1,1.567-1.607l3.032,2.955,5.053-5.084a1.123,1.123,0,0,1,1.593,1.583l-5.2,5.231A2.027,2.027,0,0,1,25.269,31.677Z" transform="translate(-20.33 -23.934)" fill="#70da40"/>
    </g>
    <path id="Path_69790" data-name="Path 69790" d="M43.867,8.28V24.168a1.985,1.985,0,0,0-.068.288c-.091.676-.144,1.351-.273,2.012a18.265,18.265,0,0,1-5.367,9.618,51.661,51.661,0,0,1-9.238,6.627h-.547c-.121-.061-.25-.114-.364-.182V2.891a.974.974,0,0,1,.721-.243,1.816,1.816,0,0,1,1.01.622A12.338,12.338,0,0,0,30.7,4.1,15.617,15.617,0,0,0,32.853,5.54c.4.228.82.433,1.237.622a13.474,13.474,0,0,0,4.463,1.161c1.283.106,2.581.1,3.871.083A1.343,1.343,0,0,1,43.867,8.28Z" transform="translate(-4.652)" opacity="0.2"/>
  </g>
</svg>
