<svg id="saved" xmlns="http://www.w3.org/2000/svg" width="13.893" height="18.749" viewBox="0 0 13.893 18.749">
  <path id="Path_69834" data-name="Path 69834" d="M25.48,14V28.03l-.168-.15q-1.218,1.208-2.434,2.417l-1.232,1.225a6.554,6.554,0,0,1-1.183,1.13A1.61,1.61,0,0,1,19,32.425a1.422,1.422,0,0,1-.551-1.12V15.684A1.681,1.681,0,0,1,20.134,14Z" transform="translate(-18.45 -14)" fill="#ff6b61" style="isolation: isolate"/>
  <path id="Path_69835" data-name="Path 69835" d="M36.48,15.684V31.12a1.889,1.889,0,0,1-.931,1.488,1.14,1.14,0,0,1-1.319-.36c-.435-.4-.833-.835-1.273-1.233-1.069-.968-2.154-1.916-3.225-2.881l-.115-.1-.168-.15V14H34.8A1.684,1.684,0,0,1,36.48,15.684Z" transform="translate(-22.588 -14)" fill="#ee3368" style="isolation: isolate"/>
</svg>
