<svg xmlns="http://www.w3.org/2000/svg" width="100" height="100" viewBox="0 0 100 100">
  <g id="spotlight" transform="translate(-47 -47)">
    <path id="Path_71611" data-name="Path 71611" d="M0,0H100V100H0Z" transform="translate(47 47)" fill="#fff" opacity="0"/>
    <g id="Group_63190" data-name="Group 63190" transform="translate(-43.172 -218.377)">
      <g id="Group_63180" data-name="Group 63180" transform="translate(98.135 267.635)">
        <rect id="Rectangle_12048" data-name="Rectangle 12048" width="80.931" height="8.683" transform="translate(0 27.401) rotate(-19.79)" fill="#2f2f30"/>
        <path id="Path_71612" data-name="Path 71612" d="M174.523,268.469l.21.582-76.05,27.682-.318-.883Z" transform="translate(-98.341 -268.385)" fill="#58595b" fill-rule="evenodd"/>
        <g id="Group_63178" data-name="Group 63178" transform="translate(12.786 1.09)">
          <path id="Path_71613" data-name="Path 71613" d="M224.332,477.316l7.049-2.536.657-9.465-7.049,2.536Z" transform="translate(-224.332 -446.377)" fill="#e6e7e8" fill-rule="evenodd"/>
          <path id="Path_71614" data-name="Path 71614" d="M354.2,430.585l7.049-2.536.657-9.465-7.049,2.536Z" transform="translate(-341.045 -404.38)" fill="#e6e7e8" fill-rule="evenodd"/>
          <path id="Path_71615" data-name="Path 71615" d="M484.078,383.855l7.048-2.536.656-9.465-7.048,2.536Z" transform="translate(-457.762 -362.385)" fill="#e6e7e8" fill-rule="evenodd"/>
          <path id="Path_71616" data-name="Path 71616" d="M613.947,337.123,621,334.586l.656-9.465-7.049,2.536Z" transform="translate(-574.473 -320.387)" fill="#e6e7e8" fill-rule="evenodd"/>
          <path id="Path_71617" data-name="Path 71617" d="M743.818,290.393l7.049-2.536.656-9.465-7.048,2.536Z" transform="translate(-691.187 -278.393)" fill="#e6e7e8" fill-rule="evenodd"/>
        </g>
        <path id="Path_71618" data-name="Path 71618" d="M221.43,372.244l66.6-23.964-.276,1.14L221.979,373.2Z" transform="translate(-208.938 -340.109)" fill="#404041" fill-rule="evenodd"/>
        <g id="Group_63179" data-name="Group 63179" transform="translate(13.366 1.09)">
          <path id="Path_71619" data-name="Path 71619" d="M237.116,466.372l.073-1.057-7.049,2.536-.075,1.089Z" transform="translate(-230.064 -446.377)" fill="#fff" fill-rule="evenodd"/>
          <path id="Path_71620" data-name="Path 71620" d="M496.943,372.792l.065-.938-7.048,2.536-.067.97Z" transform="translate(-463.568 -362.385)" fill="#fff" fill-rule="evenodd"/>
          <path id="Path_71621" data-name="Path 71621" d="M626.853,326l.061-.878-3.907,1.406-3.142,1.131-.063.91Z" transform="translate(-580.316 -320.387)" fill="#fff" fill-rule="evenodd"/>
          <path id="Path_71622" data-name="Path 71622" d="M756.767,279.211l.057-.818-.809.291-6.239,2.245-.059.85Z" transform="translate(-697.068 -278.393)" fill="#fff" fill-rule="evenodd"/>
        </g>
        <path id="Path_71623" data-name="Path 71623" d="M293.9,539.233l6.109-2.2,1.337.645-6.1,2.2Z" transform="translate(-274.069 -509.741)" fill="#231f20" fill-rule="evenodd"/>
        <path id="Path_71624" data-name="Path 71624" d="M354.2,514.538,361.251,512l1.323.638-7.035,2.543Z" transform="translate(-328.259 -487.244)" fill="#6d6e70" fill-rule="evenodd"/>
        <path id="Path_71625" data-name="Path 71625" d="M423.775,492.5l6.11-2.2,1.311.633-6.1,2.2Z" transform="translate(-390.783 -467.744)" fill="#231f20" fill-rule="evenodd"/>
        <path id="Path_71626" data-name="Path 71626" d="M484.078,467.808l7.048-2.536,1.3.626-7.034,2.543Z" transform="translate(-444.976 -445.248)" fill="#6d6e70" fill-rule="evenodd"/>
        <path id="Path_71627" data-name="Path 71627" d="M553.645,445.772l6.109-2.2,1.285.62-6.1,2.2Z" transform="translate(-507.495 -425.749)" fill="#231f20" fill-rule="evenodd"/>
        <path id="Path_71628" data-name="Path 71628" d="M813.389,350.663l1.246.6,5.1-1.845.276-1.14Z" transform="translate(-740.923 -340.109)" fill="#231f20" fill-rule="evenodd"/>
        <path id="Path_71629" data-name="Path 71629" d="M752.113,372.41l-1.246-.6-7.049,2.536,1.26.608Z" transform="translate(-678.401 -361.255)" fill="#6d6e70" fill-rule="evenodd"/>
        <path id="Path_71630" data-name="Path 71630" d="M690.888,397.449l-1.26-.608-6.109,2.2,1.272.613Z" transform="translate(-624.211 -383.75)" fill="#231f20" fill-rule="evenodd"/>
        <path id="Path_71631" data-name="Path 71631" d="M622.267,419.153,621,418.539l-7.049,2.536,1.285.62Z" transform="translate(-561.688 -403.25)" fill="#6d6e70" fill-rule="evenodd"/>
        <path id="Path_71632" data-name="Path 71632" d="M239.472,560.718l5.515-1.984,1.349.651-6.363,2.3Z" transform="translate(-225.152 -529.241)" fill="#6d6e70" fill-rule="evenodd"/>
        <path id="Path_71633" data-name="Path 71633" d="M367.1,418.584l-7.055,2.619-.066.947,7.051-2.568Z" transform="translate(-333.449 -403.291)" fill="#fff" fill-rule="evenodd"/>
      </g>
      <g id="Group_63181" data-name="Group 63181" transform="translate(98.634 303.636)">
        <path id="Path_71634" data-name="Path 71634" d="M103.06,622.973h80.931v61.741H103.06V622.973Z" transform="translate(-103.06 -622.973)" fill="#2f2f30" fill-rule="evenodd"/>
        <path id="Path_71635" data-name="Path 71635" d="M149.05,824.424h71.612V825H197.641v16.485h23.022v.577H149.05v-.577h22.541V825H149.05v-.577Zm48.014.577h-24.9v16.485h24.9V825ZM149.05,857.587h71.612v.577H149.05v-.577Zm0-8.123h71.612v.577H149.05Z" transform="translate(-144.391 -804.014)" fill="#fff" fill-rule="evenodd"/>
        <path id="Path_71636" data-name="Path 71636" d="M149.05,788.91h.5v-.985a.957.957,0,0,0,.185.014.881.881,0,0,0,1-.882.761.761,0,0,0-.253-.588,1.124,1.124,0,0,0-.749-.209,3.756,3.756,0,0,0-.681.055v2.6Zm.5-2.236a.986.986,0,0,1,.219-.021.4.4,0,0,1,.458.427.444.444,0,0,1-.5.462.843.843,0,0,1-.178-.014v-.855Zm2.776.985a.7.7,0,0,0,.451-.653c0-.7-.67-.745-1-.745a4.112,4.112,0,0,0-.677.055v2.6h.5v-1.067h.171c.239,0,.345.106.414.444a3.275,3.275,0,0,0,.164.622h.52a5.609,5.609,0,0,1-.2-.725.646.646,0,0,0-.349-.516v-.01Zm-.725-.192v-.8a.872.872,0,0,1,.233-.021.383.383,0,0,1,.438.4.412.412,0,0,1-.462.417Zm2.588-1.227c-.687,0-1.121.578-1.121,1.364,0,.763.393,1.344,1.087,1.344.653,0,1.118-.468,1.118-1.385,0-.7-.356-1.323-1.084-1.323Zm-.014.414c.386,0,.567.448.567.93,0,.53-.195.95-.571.95s-.574-.424-.574-.94c0-.482.181-.94.578-.94Zm1.484,2.246a4.479,4.479,0,0,0,.571.034,1.564,1.564,0,0,0,1.064-.321,1.373,1.373,0,0,0,.4-1.074,1.223,1.223,0,0,0-.4-1.005,1.424,1.424,0,0,0-.954-.274,3.884,3.884,0,0,0-.68.055V788.9Zm.5-2.222a1.279,1.279,0,0,1,.239-.021c.468,0,.759.294.759.889,0,.691-.321.988-.8.985a1.157,1.157,0,0,1-.195-.01v-1.843Zm3.792-.4h-.506v1.588c0,.468-.167.662-.441.662s-.434-.2-.434-.662v-1.588h-.506v1.543c0,.772.335,1.124.927,1.124s.961-.359.961-1.127v-1.54Zm2.113,2.157a1.177,1.177,0,0,1-.427.075c-.475,0-.78-.318-.78-.913,0-.636.349-.933.783-.933a1.031,1.031,0,0,1,.421.086l.1-.41a1.229,1.229,0,0,0-.544-.1,1.258,1.258,0,0,0-1.289,1.385,1.181,1.181,0,0,0,1.227,1.316,1.481,1.481,0,0,0,.581-.1l-.072-.407Zm2.031-2.157h-1.8v.438h.646v2.192h.506v-2.192h.65v-.438Zm.3,2.629h.506v-2.629H164.4v2.629Zm2.01-2.67c-.687,0-1.122.578-1.122,1.364,0,.763.393,1.344,1.087,1.344.653,0,1.118-.468,1.118-1.385,0-.7-.356-1.323-1.084-1.323Zm-.014.414c.386,0,.568.448.568.93,0,.53-.195.95-.571.95s-.574-.424-.574-.94c0-.482.181-.94.578-.94Zm3.4-.373h-.458v.79c0,.427.014.8.045,1.135h-.007a8.411,8.411,0,0,0-.393-.858l-.554-1.067h-.547v2.629h.458V788.1c0-.468-.01-.838-.031-1.163h.014a8.889,8.889,0,0,0,.4.882l.564,1.087h.506Z" transform="translate(-144.391 -769.699)" fill="#fff" fill-rule="evenodd"/>
        <path id="Path_71637" data-name="Path 71637" d="M213.437,850.435a1.274,1.274,0,0,0-.564-.12c-.568,0-.906.332-.906.762,0,.342.246.588.643.759.291.126.417.24.417.428s-.147.328-.427.328a1.182,1.182,0,0,1-.568-.147l-.1.424a1.407,1.407,0,0,0,.646.147c.612,0,.957-.335.957-.793,0-.346-.188-.588-.609-.776-.322-.147-.451-.232-.451-.42,0-.147.12-.291.386-.291a1.013,1.013,0,0,1,.468.113l.106-.414Zm2.093,2.075a1.179,1.179,0,0,1-.427.075c-.475,0-.78-.318-.78-.913,0-.636.349-.933.783-.933a1.031,1.031,0,0,1,.421.086l.1-.411a1.235,1.235,0,0,0-.544-.1,1.258,1.258,0,0,0-1.289,1.385,1.181,1.181,0,0,0,1.228,1.317,1.475,1.475,0,0,0,.581-.1l-.072-.407Zm1.911.048h-.964v-.732h.858v-.414h-.858v-.636h.909v-.424h-1.415v2.629h1.47v-.424Zm2.3-2.205h-.458v.79c0,.427.014.8.044,1.135h-.007a8.416,8.416,0,0,0-.393-.858l-.554-1.067h-.547v2.629h.458v-.807c0-.468-.01-.838-.031-1.163h.014a8.931,8.931,0,0,0,.4.882l.564,1.087h.506v-2.629Zm1.986,2.205h-.964v-.732h.858v-.414h-.858v-.636h.91v-.424h-1.415v2.629h1.47Z" transform="translate(-200.903 -827.282)" fill="#fff" fill-rule="evenodd"/>
        <path id="Path_71638" data-name="Path 71638" d="M462.915,850.669h-1.8v.438h.646V853.3h.506v-2.192h.65v-.438Zm1.419,0H463.7l-.745,2.629h.513l.181-.694h.7l.188.694h.53l-.735-2.629Zm-.615,1.552.157-.6c.038-.154.082-.369.116-.533H464c.034.161.079.373.12.537l.157.6Zm2.746-.428.793-1.125h-.6l-.564.889c-.055.1-.113.2-.167.3h-.01v-1.19h-.5V853.3h.5v-.9l.2-.263.609,1.162h.578l-.831-1.5Zm2.547,1.081h-.964v-.732h.858v-.414h-.858v-.636h.909v-.424h-1.416V853.3h1.47Z" transform="translate(-424.837 -827.6)" fill="#fff" fill-rule="evenodd"/>
        <path id="Path_71639" data-name="Path 71639" d="M705.034,851.7a.7.7,0,0,0,.451-.653c0-.7-.67-.745-1-.745a4.112,4.112,0,0,0-.677.055v2.6h.5v-1.067h.171c.239,0,.345.106.414.445a3.313,3.313,0,0,0,.164.622h.52a5.67,5.67,0,0,1-.195-.725.645.645,0,0,0-.349-.516v-.01Zm-.725-.192v-.8a.857.857,0,0,1,.232-.02.383.383,0,0,1,.438.4.412.412,0,0,1-.462.417Zm2.588-1.227c-.687,0-1.121.578-1.121,1.364,0,.763.393,1.344,1.087,1.344.653,0,1.118-.468,1.118-1.385,0-.7-.356-1.323-1.084-1.323Zm-.014.413c.386,0,.568.448.568.93,0,.53-.2.95-.571.95s-.574-.424-.574-.94c0-.482.181-.941.578-.941Zm2.93,1.83h-.94v-2.2h-.506v2.629h1.447v-.427Zm1.785,0h-.941v-2.2h-.506v2.629H711.6Z" transform="translate(-642.942 -827.251)" fill="#fff" fill-rule="evenodd"/>
        <path id="Path_71640" data-name="Path 71640" d="M149.05,1014.229a4.509,4.509,0,0,0,.571.034,1.562,1.562,0,0,0,1.063-.322,1.372,1.372,0,0,0,.4-1.073,1.224,1.224,0,0,0-.4-1.005,1.424,1.424,0,0,0-.954-.274,3.873,3.873,0,0,0-.681.055v2.585Zm.5-2.222a1.275,1.275,0,0,1,.239-.021c.468,0,.759.294.759.889,0,.691-.321.988-.8.984a1.137,1.137,0,0,1-.195-.01v-1.843Zm1.911,2.233h.506v-2.629h-.506v2.629Zm2.246-1.252a.7.7,0,0,0,.451-.653c0-.7-.67-.745-1-.745a4.085,4.085,0,0,0-.677.055v2.6h.5v-1.067h.171c.239,0,.345.106.414.444a3.3,3.3,0,0,0,.164.623h.52a5.651,5.651,0,0,1-.195-.725.646.646,0,0,0-.349-.516v-.01Zm-.725-.191v-.8a.867.867,0,0,1,.232-.021.383.383,0,0,1,.438.4.412.412,0,0,1-.462.417Zm3.067,1.019h-.964v-.732h.858v-.413h-.858v-.636H156v-.424h-1.415v2.629h1.47v-.424Zm2-.048a1.184,1.184,0,0,1-.427.075c-.475,0-.78-.318-.78-.913,0-.636.349-.933.783-.933a1.032,1.032,0,0,1,.421.086l.1-.41a1.233,1.233,0,0,0-.544-.1,1.258,1.258,0,0,0-1.289,1.385,1.181,1.181,0,0,0,1.228,1.316,1.481,1.481,0,0,0,.581-.1l-.072-.407Zm2.031-2.158h-1.8v.438h.646v2.192h.506v-2.192h.65v-.437Zm1.289-.041c-.687,0-1.121.578-1.121,1.365,0,.762.393,1.344,1.087,1.344.653,0,1.118-.469,1.118-1.385,0-.7-.356-1.323-1.084-1.323Zm-.013.414c.386,0,.567.448.567.93,0,.53-.195.951-.571.951s-.575-.424-.575-.94c0-.482.181-.94.578-.94Zm2.711,1.005a.7.7,0,0,0,.451-.653c0-.7-.67-.745-1-.745a4.085,4.085,0,0,0-.677.055v2.6h.5v-1.067h.171c.239,0,.345.106.414.444a3.292,3.292,0,0,0,.164.623h.52a5.643,5.643,0,0,1-.195-.725.646.646,0,0,0-.349-.516v-.01Zm-.725-.191v-.8a.867.867,0,0,1,.233-.021.383.383,0,0,1,.438.4.412.412,0,0,1-.462.417Z" transform="translate(-144.391 -972.198)" fill="#fff" fill-rule="evenodd"/>
        <path id="Path_71641" data-name="Path 71641" d="M149.506,1090.288a1.188,1.188,0,0,1-.428.075c-.475,0-.78-.318-.78-.913,0-.636.349-.933.783-.933a1.032,1.032,0,0,1,.421.086l.1-.41a1.231,1.231,0,0,0-.544-.1,1.258,1.258,0,0,0-1.289,1.385,1.181,1.181,0,0,0,1.227,1.317,1.483,1.483,0,0,0,.581-.1l-.072-.407Zm1.631-2.158H150.5l-.745,2.629h.513l.181-.694h.7l.188.694h.53l-.735-2.629Zm-.615,1.552.157-.6c.038-.154.082-.369.116-.533h.01c.034.161.079.373.12.537l.157.6Zm4.086-1.552h-.622l-.3.988c-.089.314-.167.632-.229.926h-.01c-.058-.3-.133-.609-.219-.926l-.284-.988h-.626l-.178,2.629h.462l.051-1.012c.017-.325.034-.715.041-1.046h.01c.061.322.143.677.229.974l.291,1.046h.383l.321-1.063c.089-.294.185-.643.26-.958h.01c0,.332.014.687.027,1.036l.048,1.022h.482l-.15-2.629Zm2.065,2.205h-.964v-.732h.858v-.414h-.858v-.636h.91v-.424H155.2v2.629h1.47v-.424Zm1.617-.827a.7.7,0,0,0,.451-.653c0-.7-.67-.745-1-.745a4.118,4.118,0,0,0-.677.055v2.6h.5v-1.067h.171c.239,0,.345.106.414.444a3.288,3.288,0,0,0,.164.622h.52a5.609,5.609,0,0,1-.2-.725.647.647,0,0,0-.349-.516v-.01Zm-.725-.191v-.8a.879.879,0,0,1,.232-.021.383.383,0,0,1,.438.4.412.412,0,0,1-.461.417Zm2.787-1.187h-.636l-.746,2.629h.513l.181-.694h.7l.188.694h.53l-.735-2.629Zm-.615,1.552.157-.6c.038-.154.082-.369.116-.533h.01c.034.161.079.373.12.537l.157.6Z" transform="translate(-143.239 -1040.969)" fill="#fff" fill-rule="evenodd"/>
        <path id="Path_71642" data-name="Path 71642" d="M149.05,1168.579a4.532,4.532,0,0,0,.571.034,1.563,1.563,0,0,0,1.063-.322,1.372,1.372,0,0,0,.4-1.073,1.225,1.225,0,0,0-.4-1.005,1.425,1.425,0,0,0-.954-.273,3.9,3.9,0,0,0-.681.055v2.585Zm.5-2.223a1.287,1.287,0,0,1,.239-.021c.468,0,.759.294.759.889,0,.691-.321.988-.8.985a1.124,1.124,0,0,1-.195-.01v-1.843Zm3.1-.4h-.636l-.745,2.629h.513l.181-.694h.7l.188.694h.53l-.735-2.629Zm-.615,1.552.157-.6c.038-.154.082-.369.116-.533h.01c.034.16.079.373.12.537l.157.6Zm3.18-1.552h-1.8v.438h.646v2.192h.506V1166.4h.65v-.438Zm1.768,2.205h-.964v-.732h.858v-.414h-.858v-.636h.91v-.424h-1.416v2.629h1.47Z" transform="translate(-144.391 -1110.929)" fill="#fff" fill-rule="evenodd"/>
      </g>
      <g id="Group_63184" data-name="Group 63184" transform="translate(98.634 303.636)">
        <rect id="Rectangle_12049" data-name="Rectangle 12049" width="80.931" height="8.683" transform="translate(0 0)" fill="#2f2f30"/>
        <rect id="Rectangle_12050" data-name="Rectangle 12050" width="67.922" height="0.833" transform="translate(13.009 0)" fill="#58595b"/>
        <rect id="Rectangle_12051" data-name="Rectangle 12051" width="80.931" height="1.033" transform="translate(0 8.683)" fill="#000001"/>
        <g id="Group_63182" data-name="Group 63182" transform="translate(16.166 0)">
          <path id="Path_71643" data-name="Path 71643" d="M265.658,628.826l2.577-5.853h-5.611Z" transform="translate(-262.624 -622.973)" fill="#e6e7e8" fill-rule="evenodd"/>
          <path id="Path_71644" data-name="Path 71644" d="M344.362,631.656h7.491l3.822-8.683h-7.491Z" transform="translate(-336.081 -622.973)" fill="#e6e7e8" fill-rule="evenodd"/>
          <path id="Path_71645" data-name="Path 71645" d="M482.388,631.656h7.491l3.822-8.683H486.21Z" transform="translate(-460.122 -622.973)" fill="#e6e7e8" fill-rule="evenodd"/>
          <path id="Path_71646" data-name="Path 71646" d="M620.41,631.656H627.9l3.822-8.683h-7.491Z" transform="translate(-584.161 -622.973)" fill="#e6e7e8" fill-rule="evenodd"/>
          <path id="Path_71647" data-name="Path 71647" d="M758.435,631.656h7.491l3.822-8.683h-7.491Z" transform="translate(-708.201 -622.973)" fill="#e6e7e8" fill-rule="evenodd"/>
        </g>
        <g id="Group_63183" data-name="Group 63183" transform="translate(16.166 0)">
          <path id="Path_71648" data-name="Path 71648" d="M267.868,623.806l.367-.833h-5.611l.432.833Z" transform="translate(-262.624 -622.973)" fill="#fff" fill-rule="evenodd"/>
          <path id="Path_71649" data-name="Path 71649" d="M385.96,623.806l.367-.833h-7.491l-.367.833Z" transform="translate(-366.732 -622.973)" fill="#fff" fill-rule="evenodd"/>
          <path id="Path_71650" data-name="Path 71650" d="M523.985,623.806l.367-.833h-7.491l-.367.833Z" transform="translate(-490.773 -622.973)" fill="#fff" fill-rule="evenodd"/>
          <path id="Path_71651" data-name="Path 71651" d="M662.007,623.806l.367-.833h-7.491l-.367.833Z" transform="translate(-614.811 -622.973)" fill="#fff" fill-rule="evenodd"/>
          <path id="Path_71652" data-name="Path 71652" d="M800.03,623.806l.367-.833h-7.491l-.367.833Z" transform="translate(-738.851 -622.973)" fill="#fff" fill-rule="evenodd"/>
        </g>
      </g>
      <g id="Group_63189" data-name="Group 63189" transform="translate(98.634 294.774)">
        <path id="Path_71653" data-name="Path 71653" d="M103.06,553.051h20.668l-9.1-17.545H103.06Z" transform="translate(-103.06 -535.506)" fill="#231f20" fill-rule="evenodd"/>
        <g id="Group_63188" data-name="Group 63188" transform="translate(3.328 0.614)">
          <g id="Group_63185" data-name="Group 63185" transform="translate(10.103 12.379)">
            <path id="Path_71654" data-name="Path 71654" d="M236.8,666.094a1.176,1.176,0,1,0-1.176-1.176A1.178,1.178,0,0,0,236.8,666.094Z" transform="translate(-235.624 -663.743)" fill="#808184" fill-rule="evenodd"/>
            <path id="Path_71655" data-name="Path 71655" d="M237.073,663.906a1.175,1.175,0,0,1,.728.433l-1.731,1.581a1.172,1.172,0,0,1-.36-.713l1.364-1.3Zm.963.962-1.489,1.326a1.177,1.177,0,0,0,.33.047l.077,0,1.052-.847a1.183,1.183,0,0,0,.029-.524Z" transform="translate(-235.7 -663.889)" fill="#d0d2d3" fill-rule="evenodd"/>
          </g>
          <g id="Group_63186" data-name="Group 63186" transform="translate(0 12.379)">
            <path id="Path_71656" data-name="Path 71656" d="M137.08,666.094a1.176,1.176,0,1,0-1.176-1.176A1.178,1.178,0,0,0,137.08,666.094Z" transform="translate(-135.904 -663.743)" fill="#808184" fill-rule="evenodd"/>
            <path id="Path_71657" data-name="Path 71657" d="M137.352,663.906a1.175,1.175,0,0,1,.728.433l-1.732,1.581a1.173,1.173,0,0,1-.36-.713l1.364-1.3Zm.963.962-1.489,1.326a1.179,1.179,0,0,0,.33.047l.077,0,1.053-.847a1.184,1.184,0,0,0,.029-.524Z" transform="translate(-135.979 -663.889)" fill="#d0d2d3" fill-rule="evenodd"/>
          </g>
          <g id="Group_63187" data-name="Group 63187">
            <path id="Path_71658" data-name="Path 71658" d="M137.08,543.914a1.176,1.176,0,1,0-1.176-1.176A1.178,1.178,0,0,0,137.08,543.914Z" transform="translate(-135.904 -541.563)" fill="#808184" fill-rule="evenodd"/>
            <path id="Path_71659" data-name="Path 71659" d="M137.352,541.725a1.176,1.176,0,0,1,.728.433l-1.732,1.582a1.172,1.172,0,0,1-.36-.713l1.364-1.3Zm.963.962-1.489,1.326a1.183,1.183,0,0,0,.33.047l.077,0,1.053-.846a1.186,1.186,0,0,0,.029-.524Z" transform="translate(-135.979 -541.708)" fill="#d0d2d3" fill-rule="evenodd"/>
          </g>
        </g>
      </g>
    </g>
  </g>
</svg>
