<svg xmlns="http://www.w3.org/2000/svg" width="100" height="100" viewBox="0 0 100 100">
  <g id="allow-sharing" transform="translate(6137 3259)">
    <g id="Rectangle_12142" data-name="Rectangle 12142" transform="translate(-6137 -3259)" fill="#fff" stroke="#707070" stroke-width="1" opacity="0">
      <rect width="100" height="100" stroke="none"/>
      <rect x="0.5" y="0.5" width="99" height="99" fill="none"/>
    </g>
    <g id="Group_62904" data-name="Group 62904" transform="translate(-6314.749 -4280.737)">
      <path id="Path_70129" data-name="Path 70129" d="M264.4,1045a13.35,13.35,0,0,1-13.307,13.383,12.79,12.79,0,0,1-9.046-3.594,1.187,1.187,0,0,0-1.7-.2q-11.077,6.367-22.2,12.655c-.74.419-.818.809-.738,1.662a34.388,34.388,0,0,1-.017,5.686c-.052.712-.074,1.107.614,1.5q11.227,6.357,22.411,12.787a1.135,1.135,0,0,0,1.6-.224,12.776,12.776,0,0,1,13.312-2.882A12.5,12.5,0,0,1,264.171,1096a13.286,13.286,0,1,1-26.162.083,1.171,1.171,0,0,0-.7-1.385q-11.441-6.482-22.847-13.024a1.043,1.043,0,0,0-1.409.141,13.3,13.3,0,1,1-.229-20.414,1.392,1.392,0,0,0,1.927.165q11.076-6.367,22.207-12.638a1.631,1.631,0,0,0,.963-2.06c-1.255-6.832,4.066-14,11-14.934,7.4-1,13.59,3.245,15.208,10.464A22.46,22.46,0,0,1,264.4,1045Z" transform="translate(0 0)"/>
    </g>
  </g>
</svg>
