<svg xmlns="http://www.w3.org/2000/svg" width="37" height="36.15" viewBox="0 0 37 36.15">
  <g id="Group_63168" data-name="Group 63168" transform="translate(-373.344 -530)">
    <g id="Group_63166" data-name="Group 63166" transform="translate(373.344 530)">
      <ellipse id="Ellipse_3481" data-name="Ellipse 3481" cx="18.5" cy="15.842" rx="18.5" ry="15.842" transform="translate(0 0)" fill="#00d6f0" style="mix-blend-mode: normal;isolation: isolate"/>
      <path id="Path_71434" data-name="Path 71434" d="M7219.1,533.944v31.684c10.161-.056,18.379-7.127,18.379-15.842S7229.266,534,7219.1,533.944Z" transform="translate(-7200.553 -533.933)" fill="#00b8f3" style="mix-blend-mode: normal;isolation: isolate"/>
      <path id="Path_71435" data-name="Path 71435" d="M1354.673,11093.488s-.483,2.967-5.108,5.591c0,0-1.864,1.657,1.173,1.933,0,0,6.558-.828,10.423-5.592Z" transform="translate(-1346.355 -11064.861)" fill="#00d6f0" style="mix-blend-mode: normal;isolation: isolate"/>
    </g>
    <g id="Group_63167" data-name="Group 63167" transform="translate(384.927 537.627)">
      <path id="Path_71436" data-name="Path 71436" d="M4285.506,2822.569a6.948,6.948,0,0,1,3.223.79,5,5,0,0,1,2.683,3.411,3.686,3.686,0,0,1-.849,3.335c-.692.777-1.49,1.459-2.242,2.183-.405.391-.817.776-1.213,1.175a1.709,1.709,0,0,0-.443,1.079,1.164,1.164,0,0,1-1.346,1.231c-.231,0-.463.009-.694,0a1.06,1.06,0,0,1-1.06-1.066,4.1,4.1,0,0,1,.911-2.808c.569-.627,1.214-1.187,1.836-1.765.352-.327.731-.624,1.092-.941a2.093,2.093,0,0,0,.737-2.259,2.348,2.348,0,0,0-1.694-1.643,3.7,3.7,0,0,0-2.418.059,3.007,3.007,0,0,0-1.712,1.642,3.276,3.276,0,0,1-.292.562,1.27,1.27,0,0,1-1.335.381c-.385-.048-.767-.11-1.152-.151a.591.591,0,0,1-.571-.744,5.414,5.414,0,0,1,3.884-4.147A7.986,7.986,0,0,1,4285.506,2822.569Z" transform="translate(-4278.95 -2822.567)" fill="#fff"/>
      <path id="Path_71437" data-name="Path 71437" d="M6247.9,8974.4c-.012.239,0,.481-.039.718a1.027,1.027,0,0,1-.957.95,4.76,4.76,0,0,1-1.106,0,1,1,0,0,1-.936-.939,7.337,7.337,0,0,1,0-1.438,1.057,1.057,0,0,1,1.069-.967,8.137,8.137,0,0,1,.859,0,1.112,1.112,0,0,1,1.1,1.154c.007.176,0,.352,0,.527Z" transform="translate(-6240.229 -8958.325)" fill="#fff"/>
    </g>
  </g>
</svg>
