<svg xmlns="http://www.w3.org/2000/svg" width="41.327" height="33.11" viewBox="0 0 41.327 33.11">
  <g id="Group_62640" data-name="Group 62640" transform="translate(-96.428 -223.89)">
    <g id="Group_62639" data-name="Group 62639" transform="translate(104.307 224.102)">
      <path id="Path_70918" data-name="Path 70918" d="M472.169,585.124a.1.1,0,0,1,.017.02c.1.006.2.009.306.009C472.381,585.148,472.272,585.138,472.169,585.124Zm-.182-.02.054.01.017-.007-.076-.014Z" transform="translate(-464.841 -570.859)" fill="#f5b285"/>
      <path id="Path_70919" data-name="Path 70919" d="M918.675,230.358l-.023-.013.076.043Zm.292.17a11.2,11.2,0,0,1,2.1,1.634A10.519,10.519,0,0,0,918.968,230.528Zm-2.686-1.155a8.131,8.131,0,0,0-.833-.2,10.993,10.993,0,0,1,2.77.94A9.922,9.922,0,0,0,916.282,229.373Z" transform="translate(-890.572 -229.178)" fill="#f5b285"/>
      <path id="Path_70920" data-name="Path 70920" d="M615.817,958.478c-.069-.159-.149-.313-.2-.476a1.672,1.672,0,0,1,.036-1,5.986,5.986,0,0,1,1.121-2.021c.081-.107.174-.205.246-.318.039-.061.063-.046.1-.015a9.921,9.921,0,0,1,1.555,1.454c.268.343.218.487.025.839-.032.058-.083.106-.088.177h0c-.035,0-.057.012-.056.05a6.277,6.277,0,0,1-.93.665,6.437,6.437,0,0,1-.667.435A1.882,1.882,0,0,1,615.817,958.478Z" transform="translate(-602.667 -925.613)" fill="#ffb69c"/>
      <path id="Path_70921" data-name="Path 70921" d="M613.732,792.705a8.737,8.737,0,0,1-1.028.782,1.329,1.329,0,0,0-.7-.945c-.489-.315-.978-.629-1.464-.948h0l-.011-.007-.012-.008-1.107-.741-.528-.353a.092.092,0,0,0-.024,0c-.371-.255-.739-.514-1.113-.766q-1.337-.9-2.68-1.794a1.209,1.209,0,0,1-.337-.27c-.024-.033-.064-.074-.03-.121s.093-.02.135,0a14.557,14.557,0,0,1,1.406.87c.568.363,1.132.732,1.7,1.1l.237.154,1,.631a1.137,1.137,0,0,1,.187-.031c.085.092.122.2.254.223.456.321.864.644,1.339.935.736.45,1.483.88,2.253,1.269A.749.749,0,0,0,613.732,792.705Z" transform="translate(-592.233 -765.176)" fill="#ff784c"/>
      <path id="Path_70922" data-name="Path 70922" d="M723.933,871.625q-.557-.365-1.107-.741Z" transform="translate(-705.653 -845.221)" fill="#c80881"/>
      <path id="Path_70923" data-name="Path 70923" d="M674.507,704.32c.652.343,1.3.7,1.935,1.067.808.464,1.618.923,2.423,1.391,1.171.681,2.293,1.443,3.461,2.129a11.1,11.1,0,0,0,1.484.775.911.911,0,0,0,.619.065q-.549.489-1.1.977a.42.42,0,0,1-.07.042,1.055,1.055,0,0,0-.043-.862,1.659,1.659,0,0,0-.544-.458c-1.444-.982-2.949-1.867-4.448-2.76-1.015-.6-2.027-1.216-3.015-1.864-.242-.158-.51-.274-.742-.448Z" transform="translate(-659.229 -685.318)" fill="#ff784c"/>
      <path id="Path_70924" data-name="Path 70924" d="M358.7,884.955a.641.641,0,0,0,.082.009c.253,0,.253,0,.282.257A.787.787,0,0,1,358.7,884.955Z" transform="translate(-356.091 -858.728)" fill="#ff784c"/>
      <path id="Path_70925" data-name="Path 70925" d="M522.3,995.394c.259-.067.27-.061.3.159C522.477,995.55,522.4,995.46,522.3,995.394Z" transform="translate(-513.15 -964.715)" fill="#ff784c"/>
      <path id="Path_70926" data-name="Path 70926" d="M442.006,943.168c.128-.054.224-.056.208.127A.386.386,0,0,1,442.006,943.168Z" transform="translate(-436.064 -914.583)" fill="#ff784c"/>
      <path id="Path_70927" data-name="Path 70927" d="M976.877,786.18c0-.029,0-.054.037-.059C976.918,786.151,976.9,786.166,976.877,786.18Z" transform="translate(-949.543 -763.847)" fill="#f5b285"/>
      <path id="Path_70928" data-name="Path 70928" d="M690.593,1017.144c0-.038.022-.051.057-.05C690.656,1017.14,690.622,1017.139,690.593,1017.144Z" transform="translate(-674.709 -985.583)" fill="#f4b285"/>
      <path id="Path_70929" data-name="Path 70929" d="M893.615,865.694l.024-.026C893.641,865.687,893.633,865.7,893.615,865.694Z" transform="translate(-869.612 -840.214)" fill="#ecac82"/>
      <path id="Path_70930" data-name="Path 70930" d="M756.069,825.025c-.074-.015-.089.045-.12.09s-.08.065-.126.018.007-.077.04-.1c.1-.063.163-.131.058-.242l.077,0,.137.189A.064.064,0,0,1,756.069,825.025Z" transform="translate(-737.309 -800.97)" fill="#572b2f"/>
      <path id="Path_70931" data-name="Path 70931" d="M468.415,583.739c.012-.019.023-.017.034,0Z" transform="translate(-461.417 -569.547)" fill="#f5b285"/>
      <path id="Path_70932" data-name="Path 70932" d="M842.641,470.845a.362.362,0,0,1-.306-.188c-.093-.123-.153-.273-.336-.3-.071-.011-.135-.4-.09-.466.067-.1.106-.018.133.028.061.1.128.155.241.07.1-.073.2-.139.075-.275-.066-.072-.018-.147.037-.191s.1.025.126.068c.06.094.12.156.221.048.048-.051.088-.032.126.014a.085.085,0,0,1-.007.133c-.057.051-.152.1-.068.186.11.11.128.341.359.3.073-.014.141-.033.167.05s-.054.115-.107.149a.225.225,0,0,1-.306-.038,4.235,4.235,0,0,1-.28-.335c-.049-.064-.1-.079-.151-.018s-.241.087-.149.212c.107.145.165.4.45.3.064-.022.082.044.1.088s0,.076-.042.095A.383.383,0,0,1,842.641,470.845Z" transform="translate(-819.959 -459.891)" fill="#f9d6be"/>
      <path id="Path_70933" data-name="Path 70933" d="M951.32,388.234c0-.138,0-.254,0-.37a.171.171,0,0,1,.064-.164c.032-.022.065-.055.1-.042s.028.066.031.1,0,.09,0,.135c0,.315,0,.316.31.382.065.014.131.026.2.039.042.009.106.009.107.058s-.053.086-.1.1a.4.4,0,0,1-.247-.019,1.148,1.148,0,0,0-.163-.038c-.032-.005-.07-.01-.089.026s0,.064.023.091a1.276,1.276,0,0,1,.1.116c.031.047.064.1,0,.148s-.113.025-.159-.033c-.195-.245-.392-.488-.587-.733-.056-.07-.11-.142-.166-.211s-.029-.1.02-.145c.066-.058.1-.006.135.039A3.535,3.535,0,0,0,951.32,388.234Z" transform="translate(-924.428 -381.315)" fill="#f9d6be"/>
      <path id="Path_70934" data-name="Path 70934" d="M802.406,507.861c.058,0,.079.042.1.08.079.12.154.159.274.029a.3.3,0,0,1,.486,0c.137.139.265.288.4.432.041.043.057.08.006.128s-.1.053-.146,0q-.183-.2-.364-.4a.171.171,0,0,0-.252-.032c-.093.065-.128.119-.038.227.115.139.247.26.369.392.047.05.1.095.034.17s-.125.021-.168-.023c-.267-.279-.531-.562-.8-.844-.022-.024-.053-.049-.03-.086A.2.2,0,0,1,802.406,507.861Z" transform="translate(-781.925 -496.702)" fill="#f9d6be"/>
      <path id="Path_70935" data-name="Path 70935" d="M870.364,461.3a.494.494,0,0,1,.392-.424.434.434,0,0,1,.4.275c.022.066-.032.092-.067.121-.082.068-.171.126-.253.194-.042.034-.1.076-.052.14a.128.128,0,0,0,.181.024.384.384,0,0,0,.136-.167.14.14,0,0,1,.172-.068c.072.031.014.1,0,.147a.534.534,0,0,1-.383.323.212.212,0,0,1-.13-.011A.871.871,0,0,1,870.364,461.3Zm.547-.107c-.035-.072-.076-.129-.154-.114-.1.021-.194.067-.188.194,0,.06.018.148.093.127C870.767,461.371,870.831,461.269,870.911,461.193Z" transform="translate(-847.29 -451.607)" fill="#f9d6be"/>
      <path id="Path_70936" data-name="Path 70936" d="M826.272,492.4a.243.243,0,0,1-.167-.084c-.132-.145-.259-.293-.387-.441-.044-.051-.1-.11-.014-.169s.128,0,.173.05c.082.1.159.2.241.3.065.077.129.158.251.138a.215.215,0,0,0,.155-.117c.038-.065-.005-.114-.047-.163-.113-.132-.219-.268-.333-.4-.057-.065-.055-.117.011-.17s.114-.013.155.037c.133.165.263.333.4.5a.2.2,0,0,1,0,.287A.55.55,0,0,1,826.272,492.4Z" transform="translate(-804.374 -480.834)" fill="#f9d6be"/>
      <path id="Path_70937" data-name="Path 70937" d="M900.355,437.115a.7.7,0,0,1-.494.469.07.07,0,0,1-.07-.06.1.1,0,0,1,.054-.128.649.649,0,0,0,.249-.166c.029-.039.071-.082.04-.135s-.1-.047-.152-.034a.377.377,0,0,0-.091.043c-.223.125-.32.112-.431-.058a.36.36,0,0,1,.125-.443,1.469,1.469,0,0,1,.192-.1.076.076,0,0,1,.121.043c.025.054.023.1-.032.129a.615.615,0,0,0-.192.133c-.033.039-.075.072-.028.129a.1.1,0,0,0,.133.022.6.6,0,0,1,.33-.108A.267.267,0,0,1,900.355,437.115Z" transform="translate(-875.188 -428.195)" fill="#f9d6be"/>
      <path id="Path_70938" data-name="Path 70938" d="M797.562,521.766a.615.615,0,0,1-.4.452.079.079,0,0,1-.092-.054.1.1,0,0,1,.039-.133c.069-.048.139-.095.2-.148a.111.111,0,0,0,.027-.164c-.041-.054-.1-.042-.153-.016s-.091.045-.135.069a.274.274,0,0,1-.367-.049.329.329,0,0,1,0-.417.547.547,0,0,1,.214-.159c.052-.023.116-.059.151.033a.1.1,0,0,1-.058.15c-.068.034-.15.052-.169.148s.019.156.125.123c.074-.023.14-.072.213-.1A.3.3,0,0,1,797.562,521.766Z" transform="translate(-776.481 -509.445)" fill="#f9d6be"/>
      <path id="Path_70939" data-name="Path 70939" d="M942.96,402.18c-.02-.14.085-.211.179-.277a.311.311,0,0,1,.335,0c.041.021.062.046.036.093s-.043.1-.111.071a.166.166,0,0,0-.221.1c-.045.082.011.15.06.212s.106.13.16.194a.181.181,0,0,0,.335-.079c0-.08.037-.113.114-.1s.092.07.09.136a.386.386,0,0,1-.236.321.264.264,0,0,1-.338-.051,4.727,4.727,0,0,1-.372-.452A.239.239,0,0,1,942.96,402.18Z" transform="translate(-916.981 -394.948)" fill="#f9d6be"/>
      <path id="Path_70940" data-name="Path 70940" d="M910.609,423.348c-.166,0-.25-.144-.355-.257-.081-.086-.118-.235-.286-.194-.011,0-.041-.018-.04-.025.02-.167-.172-.27-.13-.446.022-.093.049-.107.113-.037a.674.674,0,0,1,.088.1c.049.081.1.1.173.028.049-.049.093-.077.151,0s.054.1-.018.146-.071.114-.006.18.132.152.2.229a.158.158,0,0,0,.179.063c.08-.028.15-.035.169.064s-.076.12-.148.144A.385.385,0,0,1,910.609,423.348Z" transform="translate(-885.141 -414.62)" fill="#f9d6be"/>
      <path id="Path_70941" data-name="Path 70941" d="M888.918,448.586a.345.345,0,0,1,.154-.3c.053-.048.1-.034.146.013s.024.091-.018.126c-.12.1-.09.2-.008.307s.165.226.256.331c.069.08.012.117-.036.164s-.1.013-.136-.033c-.1-.133-.2-.268-.3-.4A.285.285,0,0,1,888.918,448.586Z" transform="translate(-865.101 -439.494)" fill="#f9d6be"/>
      <path id="Path_70942" data-name="Path 70942" d="M926.449,416.352c.081.008.135.149.077.2-.094.085-.116.152-.008.242a.11.11,0,0,1-.013.187c-.085.066-.1-.025-.135-.067-.2-.247-.192-.417.031-.536Z" transform="translate(-900.919 -408.866)" fill="#f9d6be"/>
      <path id="Path_70943" data-name="Path 70943" d="M943.044,422.3c.011.115-.1.171-.182.242-.046.04-.08,0-.108-.04s-.087-.1-.022-.144c.155-.1.1-.184.009-.281-.033-.034-.087-.068-.022-.122.048-.041.105-.06.151-.012A.484.484,0,0,1,943.044,422.3Z" transform="translate(-916.723 -414.203)" fill="#f9d6be"/>
      <path id="Path_70944" data-name="Path 70944" d="M750.758,588.872c-.049-.017-.143.04-.152-.068s.067-.1.138-.1c.095,0,.127-.047.129-.135a.088.088,0,0,1,.107-.1c.074.009.057.07.059.117C751.047,588.8,750.971,588.873,750.758,588.872Z" transform="translate(-732.322 -574.102)" fill="#f1c3a5"/>
      <path id="Path_70945" data-name="Path 70945" d="M752.693,337.94a.258.258,0,0,1-.359.268c-.045-.018-.085-.033-.074-.091s.051-.054.09-.053c.1,0,.18-.007.176-.139,0-.048-.027-.128.066-.122A.106.106,0,0,1,752.693,337.94Z" transform="translate(-733.908 -333.459)" fill="#f1c3a5"/>
      <path id="Path_70946" data-name="Path 70946" d="M744.972,577.99c-.114-.015-.142.056-.142.149,0,.067-.022.108-.1.1s-.071-.064-.06-.122c.044-.242.146-.329.329-.287.063.014.106.03.1.1S745.086,578,744.972,577.99Z" transform="translate(-726.619 -563.877)" fill="#f1c3a5"/>
      <path id="Path_70947" data-name="Path 70947" d="M745.662,327.411c.049.016.145-.038.149.071,0,.094-.059.093-.139.082-.107-.015-.123.07-.125.154,0,.047,0,.092-.067.094s-.076-.04-.091-.083A.256.256,0,0,1,745.662,327.411Z" transform="translate(-727.302 -323.482)" fill="#f1c3a5"/>
      <path id="Path_70948" data-name="Path 70948" d="M389.152,884.881a.33.33,0,0,1-.4.138.15.15,0,0,0-.049-.012c-.062.005-.143-.044-.18.038s.029.115.074.156c.073.066.11.125.009.2-.056.042-.088.044-.138-.014q-.352-.416-.714-.823c-.061-.068-.031-.1.018-.152s.092-.051.134.013c.093.141.243.232.332.378.016.026.042.06.081.044s.026-.058.026-.089c0-.1,0-.191,0-.286a.175.175,0,0,1,.058-.151c.025-.021.044-.058.083-.043s.028.056.029.088c0,.05,0,.1,0,.151.005.307-.052.25.294.316C388.913,884.852,389.023,884.863,389.152,884.881Z" transform="translate(-383.945 -858.074)" fill="#f9d6be"/>
      <path id="Path_70949" data-name="Path 70949" d="M379.361,901.625c.046.006.13-.014.127.076a.119.119,0,0,1-.132.125.225.225,0,0,0-.234.156c-.045.1.038.152.089.216.024.031.044.065.07.094.043.049.081.123.16.1a.232.232,0,0,0,.193-.167c.008-.038,0-.082.039-.108a.158.158,0,0,1,.122-.047c.061.014.043.07.044.112a.483.483,0,0,1-.318.4c-.173.059-.266.022-.4-.154-.037-.049-.079-.095-.119-.142a.319.319,0,0,1-.063-.4A.468.468,0,0,1,379.361,901.625Z" transform="translate(-375.476 -874.732)" fill="#f9d6be"/>
      <path id="Path_70950" data-name="Path 70950" d="M461.952,828.664c-.081-.005-.115.053-.118.134s-.042.1-.109.087-.062-.069-.057-.118c.02-.21.136-.307.315-.261.049.013.125,0,.116.087S462.039,828.693,461.952,828.664Z" transform="translate(-454.936 -804.526)" fill="#f1c3a5"/>
      <path id="Path_70951" data-name="Path 70951" d="M602.694,953.462a.285.285,0,0,1,.3-.294c.055,0,.1.007.1.079s-.032.092-.093.089c-.1-.005-.147.036-.143.138,0,.06.014.132-.084.131S602.7,953.517,602.694,953.462Z" transform="translate(-590.325 -924.213)" fill="#f1c3a5"/>
      <path id="Path_70952" data-name="Path 70952" d="M469.726,839.747a.238.238,0,0,1-.319.258c-.047-.014-.089-.021-.081-.082s.047-.058.087-.057c.1,0,.147-.032.147-.136,0-.044-.037-.127.066-.115A.1.1,0,0,1,469.726,839.747Z" transform="translate(-462.29 -815.201)" fill="#f1c3a5"/>
      <path id="Path_70953" data-name="Path 70953" d="M610.57,963.734c-.047-.014-.132.034-.14-.064s.07-.069.121-.072c.09-.005.109-.061.109-.138,0-.06-.014-.132.084-.13s.083.086.083.147C610.828,963.66,610.753,963.734,610.57,963.734Z" transform="translate(-597.751 -933.968)" fill="#f1c3a5"/>
      <path id="Path_70954" data-name="Path 70954" d="M568.839,897.483c.055-.109.109-.219.165-.328.039-.077.082-.062.144-.017s.06.074,0,.125c-.107.1-.2.2-.307.306Q568.842,897.525,568.839,897.483Z" transform="translate(-557.824 -870.388)" fill="#ff784c"/>
      <path id="Path_70955" data-name="Path 70955" d="M550.985,922.644l.04.04a1.016,1.016,0,0,1-.325.425A2.233,2.233,0,0,1,550.985,922.644Z" transform="translate(-540.411 -894.91)" fill="#ff784c"/>
      <path id="Path_70956" data-name="Path 70956" d="M343.884,703.768l-.071-.035C343.858,703.7,343.865,703.747,343.884,703.768Z" transform="translate(-341.798 -684.743)" fill="#49181c"/>
      <path id="Path_70957" data-name="Path 70957" d="M293.476,738.45c.007,0,.029.013.029.021,0,.027-.011.054-.043.057-.011,0-.033-.011-.034-.019C293.424,738.48,293.435,738.457,293.476,738.45Z" transform="translate(-293.427 -718.083)" fill="#49181c"/>
      <path id="Path_70958" data-name="Path 70958" d="M302.323,729.946a.252.252,0,0,1-.16-.185.083.083,0,0,1,.092-.1.216.216,0,0,1,.169.183C302.437,729.907,302.388,729.934,302.323,729.946Z" transform="translate(-301.812 -709.648)" fill="#572b2f"/>
      <path id="Path_70959" data-name="Path 70959" d="M363.339,685.166a.211.211,0,0,1,.153.176.08.08,0,0,1-.082.1c-.109-.005-.145-.1-.168-.183C363.225,685.2,363.277,685.176,363.339,685.166Z" transform="translate(-360.447 -666.93)" fill="#572b2f"/>
      <path id="Path_70960" data-name="Path 70960" d="M780.293,808.722a.218.218,0,0,1,.154.191c.011.056-.045.094-.1.086-.1-.014-.135-.1-.153-.179C780.181,808.76,780.226,808.731,780.293,808.722Z" transform="translate(-760.724 -785.544)" fill="#572b2f"/>
      <path id="Path_70961" data-name="Path 70961" d="M328.65,712.09c.014.018.025.038,0,.054-.006,0-.026-.01-.039-.016Z" transform="translate(-327.207 -692.777)" fill="#49181c"/>
      <path id="Path_70962" data-name="Path 70962" d="M753.491,826.811a.139.139,0,0,1-.105.087.036.036,0,0,1-.039-.043.09.09,0,0,1,.094-.078C753.459,826.778,753.475,826.8,753.491,826.811Z" transform="translate(-734.952 -802.877)" fill="#572b2f"/>
      <path id="Path_70963" data-name="Path 70963" d="M875.833,466.073c-.08.077-.144.178-.249.208-.075.021-.09-.067-.093-.127-.006-.127.086-.174.188-.194C875.757,465.944,875.8,466,875.833,466.073Z" transform="translate(-852.213 -456.488)" fill="#eeae83"/>
    </g>
    <path id="Path_70964" data-name="Path 70964" d="M173.236,300.112q-.3.274-.587.557C172.826,300.487,173.021,300.3,173.236,300.112Z" transform="translate(-73.172 -73.174)" fill="#49181c"/>
    <path id="Path_70965" data-name="Path 70965" d="M301.969,738.646v0l0,0v0Z" transform="translate(-197.317 -494.169)" fill="#49181c"/>
    <path id="Path_70966" data-name="Path 70966" d="M292.224,244.615a.345.345,0,0,1-.285.119.217.217,0,0,1-.187-.132q.222-.054.455-.1C292.232,244.537,292.279,244.568,292.224,244.615Z" transform="translate(-187.512 -19.788)" fill="#ffb69c"/>
    <path id="Path_70967" data-name="Path 70967" d="M331.231,240.05a.167.167,0,0,1-.13.012Z" transform="translate(-225.287 -15.514)" fill="#ffb69c"/>
    <path id="Path_70968" data-name="Path 70968" d="M342.147,238.742a.154.154,0,0,1-.108.021H340.63A13.765,13.765,0,0,1,342.147,238.742Z" transform="translate(-234.435 -14.247)" fill="#ffb69c"/>
    <path id="Path_70969" data-name="Path 70969" d="M382.011,239.171c-.1.031-.2.084-.292-.017C381.815,239.158,381.913,239.164,382.011,239.171Z" transform="translate(-273.881 -14.653)" fill="#ffb69c"/>
    <path id="Path_70970" data-name="Path 70970" d="M462.664,584.009a.573.573,0,0,0,0,.064c0,.071-.031.1-.1.1s-.106-.042-.1-.115c0-.031.007-.062.011-.094A1.8,1.8,0,0,0,462.664,584.009Z" transform="translate(-351.393 -345.67)" fill="#49181c"/>
    <path id="Path_70971" data-name="Path 70971" d="M470.2,585.628a.062.062,0,0,1-.021,0Z" transform="translate(-358.807 -347.268)" fill="#49181c"/>
    <path id="Path_70972" data-name="Path 70972" d="M470.928,333.33h0v0Z" transform="translate(-359.52 -105.061)" fill="#49181c"/>
    <path id="Path_70973" data-name="Path 70973" d="M474.049,586.109a.135.135,0,0,1-.124-.011Z" transform="translate(-362.399 -347.722)" fill="#49181c"/>
    <path id="Path_70974" data-name="Path 70974" d="M506.37,309.65l0,0h0Z" transform="translate(-393.541 -82.33)" fill="#49181c"/>
    <path id="Path_70975" data-name="Path 70975" d="M740.324,837.415s0,0,0,0h0Z" transform="translate(-618.141 -588.988)" fill="#49181c"/>
    <path id="Path_70976" data-name="Path 70976" d="M440.329,571.239l.014.011Z" transform="translate(-330.147 -333.457)" fill="#f5b285"/>
    <path id="Path_70977" data-name="Path 70977" d="M474,585.218l-.111-.017A.1.1,0,0,1,474,585.218Z" transform="translate(-362.367 -346.852)" fill="#f5b285"/>
    <path id="Path_70978" data-name="Path 70978" d="M485.395,585.667a3.452,3.452,0,0,1-.64.036c.2,0,.391-.012.586-.031Z" transform="translate(-372.796 -347.308)" fill="#f5b285"/>
    <path id="Path_70979" data-name="Path 70979" d="M720.378,869.259s0-.011,0-.016h-.023l.267.179Z" transform="translate(-598.97 -619.543)" fill="#49181c"/>
    <path id="Path_70980" data-name="Path 70980" d="M131.758,260.322a.913.913,0,0,0-.388-.708c-.738-.572-1.51-1.1-2.278-1.625-.037-.025-.081-.04-.1-.087a7.45,7.45,0,0,1-.818-.547c-.419-.274-.839-.547-1.256-.822-.8-.527-1.6-1.058-2.4-1.582q-1.454-.951-2.914-1.894t-2.893-1.866q-.505-.327-1-.663a.189.189,0,0,0-.263.014,14.093,14.093,0,0,1-1.951,1.4,7.45,7.45,0,0,1-2.95.942q-.126.012-.251.02a3.8,3.8,0,0,1-1.5-.239.144.144,0,0,1-.021-.023h0a2.008,2.008,0,0,1-1.073-.921.7.7,0,0,1,.335-1.026c.18-.089.367-.166.548-.253a5.6,5.6,0,0,0,1.193-.931c1.139-.99,2.231-2.031,3.308-3.087.595-.583,1.182-1.176,1.728-1.806a.271.271,0,0,0,.082-.142c-.488-.575-1.026-1.1-1.545-1.648a12.976,12.976,0,0,0-3.076-2.45,10.5,10.5,0,0,0-3.067-1.176,6.374,6.374,0,0,0-1.077-.165c-.1.031-.2.084-.292-.017l-.126-.005h0a.154.154,0,0,1-.108.021h-1.409l-.251.02a.168.168,0,0,1-.13.012c-.39.039-.763.095-1.119.166.026.035.073.066.018.113a.345.345,0,0,1-.285.119.217.217,0,0,1-.187-.132l-.229.058q-.441.117-.844.261l-.068.024c-.3.109-.58.228-.848.354l-.1.047a9.546,9.546,0,0,0-1.492.9c-.211.155-.407.313-.589.471l-.008.007q-.3.274-.587.557l0,0a10,10,0,0,0-1.749,2.225,8.122,8.122,0,0,0-.653,1.475c-.087.272-.139.552-.236.82a5.741,5.741,0,0,0-.248.922,11.79,11.79,0,0,0-.158,2.2,10.109,10.109,0,0,0,.159,1.81,10.9,10.9,0,0,0,.39,1.506,11.555,11.555,0,0,0,.614,1.53c.059,0,.125-.015.156.054a.1.1,0,0,1-.057.148,8.483,8.483,0,0,0,.428.925,7.034,7.034,0,0,0,.623,1.031,22.274,22.274,0,0,0,1.381,1.8q.988,1.176,2.045,2.29c.521.547,1.082,1.053,1.642,1.56a2.454,2.454,0,0,0,.538.437,3.226,3.226,0,0,1,.792-2.29c.352-.467.712-.927,1.1-1.366a1.62,1.62,0,0,1,2-.39,2.078,2.078,0,0,1,.961,1.391,1.951,1.951,0,0,1-.079.979c-.007.027-.023.051,0,.08.082-.034.124-.112.175-.175a1.8,1.8,0,0,1,2.095-.461,2.186,2.186,0,0,1,.9.966,2.078,2.078,0,0,1,.127,1.617,3.467,3.467,0,0,1,.452-.363,1.7,1.7,0,0,1,2.466.643,2.031,2.031,0,0,1,.332,1.409.108.108,0,0,0,.053.124c.089.057.182.109.265.174a.13.13,0,0,0,.177,0,2.656,2.656,0,0,1,.808-.363,1.772,1.772,0,0,1,1.414.142,1.529,1.529,0,0,1,.593.848,1.986,1.986,0,0,1-.085,1.555.125.125,0,0,0,.039.174,13.118,13.118,0,0,0,2.588,1.767.611.611,0,0,0,.1.029.267.267,0,0,0,.079-.024c.843-.6,1.689-1.2,2.523-1.813a2.3,2.3,0,0,0,.568-.468,1.329,1.329,0,0,0-.7-.945c-.61-.393-1.221-.785-1.826-1.187q-.3-.2-.6-.4l-.267-.179-1.14-.764-.008-.005q-.209-.144-.419-.285-1.337-.9-2.68-1.794a1.208,1.208,0,0,1-.337-.27c-.024-.033-.065-.074-.03-.121s.093-.02.135,0a14.567,14.567,0,0,1,1.406.87c.568.363,1.132.732,1.7,1.1q.6.391,1.205.782a.632.632,0,0,0,.092.04.221.221,0,0,1,.028-.245.3.3,0,0,1,.117-.078c.164-.065.237.077.314.182a.167.167,0,0,1-.024.244l.835.715.446.272c.736.45,1.483.88,2.253,1.269a.749.749,0,0,0,.534.018c.118-.072.237-.141.353-.215a9.889,9.889,0,0,0,1.341-1.07,8.678,8.678,0,0,0,.81-.764l.024-.025.005-.007a1.054,1.054,0,0,0-.043-.862,1.66,1.66,0,0,0-.544-.458c-1.444-.982-2.949-1.867-4.448-2.761-1.015-.6-2.027-1.216-3.016-1.863-.242-.158-.509-.274-.742-.448a.467.467,0,0,1-.265-.194.486.486,0,0,1,.3.14c.652.343,1.3.7,1.935,1.067.808.464,1.618.923,2.423,1.391,1.172.681,2.293,1.444,3.461,2.129a11.053,11.053,0,0,0,1.484.775.907.907,0,0,0,.619.065c.138-.08.281-.153.413-.242a4.953,4.953,0,0,0,1.721-1.855c0-.029,0-.053.038-.059h0A2.541,2.541,0,0,0,131.758,260.322Zm-18.935-18.477h.006l0,0h0Zm-1.417.946v0h0ZM104.651,259l0,0v0h0Zm17.528,3.95,0,0s0,0,0,0h0Z" transform="translate(0 -14.524)" fill="#ffb69c"/>
    <path id="Path_70981" data-name="Path 70981" d="M706.159,837.883l1.87,1.184s-.372-1.044-.375-1.06a1.8,1.8,0,0,0-.279-.39,3.257,3.257,0,0,0-.557-.217,2.743,2.743,0,0,0-.425-.047c-.052.014-.142-.012-.2.073A1.475,1.475,0,0,0,706.159,837.883Z" transform="translate(-585.344 -588.926)" fill="#ffb69c"/>
    <path id="Path_70982" data-name="Path 70982" d="M727.616,874.142q-.3-.2-.6-.4Z" transform="translate(-605.369 -623.86)" fill="#49181c"/>
    <path id="Path_70983" data-name="Path 70983" d="M453.911,234.952a10.231,10.231,0,0,1-.416,2.529,15.263,15.263,0,0,1-1.094,2.749,23.063,23.063,0,0,1-2.5,3.823q-.945,1.192-2,2.289a.259.259,0,0,1-.054.034,2.539,2.539,0,0,0,.08-.576.913.913,0,0,0-.388-.708c-.553-.429-1.126-.831-1.7-1.228l-3.154-2.12q-1-.658-1.995-1.315-1.454-.951-2.914-1.894t-2.893-1.866q-.505-.327-1-.663a.189.189,0,0,0-.263.015,14.1,14.1,0,0,1-1.951,1.4,7.459,7.459,0,0,1-2.9.936l-.053.005c-.2.019-.391.03-.586.031a3.215,3.215,0,0,1-.323-.028.1.1,0,0,0-.111-.017l-.076-.014a3.049,3.049,0,0,1-1.251-.543h0l-.014-.011,0,0,0,0a1.688,1.688,0,0,1-.476-.576.7.7,0,0,1,.335-1.026c.18-.089.367-.166.548-.253a5.6,5.6,0,0,0,1.193-.931c1.139-.99,2.231-2.031,3.307-3.087.595-.583,1.182-1.176,1.728-1.806a.271.271,0,0,0,.082-.142c.073,0,.109-.047.148-.1.541-.677,1.1-1.341,1.68-1.984a13.89,13.89,0,0,1,2.749-2.328,10.683,10.683,0,0,1,4.268-1.561l.19-.024h.005a9.962,9.962,0,0,1,3.248.141,10.992,10.992,0,0,1,2.77.94l.175.089.138.073.12.066.076.043.089.051.083.048.068.041a11.2,11.2,0,0,1,2.1,1.634q.14.14.276.287a9.586,9.586,0,0,1,1.536,2.228,10.786,10.786,0,0,1,.878,2.527,11.323,11.323,0,0,1,.229,1.544A11.751,11.751,0,0,1,453.911,234.952Z" transform="translate(-316.164 0)" fill="#ff784c"/>
    <path id="Path_70984" data-name="Path 70984" d="M311.3,737.15a13.115,13.115,0,0,1-2.588-1.767.125.125,0,0,1-.039-.174,1.986,1.986,0,0,0,.085-1.555,1.529,1.529,0,0,0-.593-.848,1.772,1.772,0,0,0-1.414-.142,2.659,2.659,0,0,0-.808.363.13.13,0,0,1-.177,0c-.083-.065-.176-.117-.265-.174a.108.108,0,0,1-.053-.124,2.031,2.031,0,0,0-.332-1.409,1.7,1.7,0,0,0-2.466-.643,3.468,3.468,0,0,0-.452.363,2.077,2.077,0,0,0-.127-1.617,2.186,2.186,0,0,0-.9-.966,1.8,1.8,0,0,0-2.095.461c-.051.063-.093.141-.175.175-.021-.029-.005-.053,0-.08a1.951,1.951,0,0,0,.079-.979,2.078,2.078,0,0,0-.961-1.391,1.62,1.62,0,0,0-2,.39c-.387.439-.747.9-1.1,1.366a3.226,3.226,0,0,0-.792,2.29.52.52,0,0,1,.038.162,2.07,2.07,0,0,0,1.227,1.694,3.074,3.074,0,0,0,1.306.243.684.684,0,0,0,.082.009c.253,0,.253,0,.282.257.013.054.026.108.037.162a2.258,2.258,0,0,0,1.815,1.827,5.05,5.05,0,0,0,1.116.1c.127-.054.224-.056.208.127.024.086.046.173.071.259a2.284,2.284,0,0,0,1.859,1.638,5.383,5.383,0,0,0,1.073.07c.259-.067.27-.061.3.159a1.605,1.605,0,0,0,.282.688,2.957,2.957,0,0,0,1.118.908,4.787,4.787,0,0,0,1.109.41,4.135,4.135,0,0,0,1.186.02c-.069-.158-.149-.313-.2-.476a1.674,1.674,0,0,1,.036-1,5.985,5.985,0,0,1,1.121-2.021c.081-.107.174-.205.246-.318.039-.061.063-.046.1-.015a9.908,9.908,0,0,1,1.555,1.454c.268.343.218.487.025.839-.032.058-.083.106-.088.177a.112.112,0,0,0,.094-.022l1.267-.872A.6.6,0,0,1,311.3,737.15Zm-5.878-3.713c-.106.1-.2.2-.306.306a5.2,5.2,0,0,1-.407.593,1.015,1.015,0,0,1-.325.425,2.234,2.234,0,0,1,.285-.465,4.589,4.589,0,0,1,.44-.639c.055-.109.109-.219.165-.328.039-.077.081-.062.144-.018S305.475,733.386,305.419,733.438Z" transform="translate(-189.785 -482.462)" fill="#ff784c"/>
  </g>
</svg>
