<svg xmlns="http://www.w3.org/2000/svg" width="17.249" height="14.961" viewBox="0 0 17.249 14.961">
  <g id="Group_62065" data-name="Group 62065" transform="translate(-630.149 -797.594)">
    <path id="Path_70066" data-name="Path 70066" d="M643.907,800.311l-3.661,2.133c-.56.326-1.12.652-1.677.983a1.778,1.778,0,0,1-1.943,0q-2.538-1.493-5.085-2.97c-.064-.037-.13-.071-.227-.124-.007.119-.016.209-.016.3q0,3.28,0,6.561c0,.532.192.723.724.723,1.452,0,2.9,0,4.355,0a.572.572,0,0,1,.6.79.552.552,0,0,1-.539.354c-1.547,0-3.094.016-4.641-.006a1.681,1.681,0,0,1-1.644-1.685q-.011-4.025,0-8.051a1.736,1.736,0,0,1,1.776-1.717c1.853-.006,3.705,0,5.558,0h5.673a1.76,1.76,0,0,1,1.891,1.895c0,.669,0,1.337,0,2.006,0,.411-.23.681-.57.683s-.572-.262-.574-.674C643.906,801.126,643.907,800.747,643.907,800.311ZM631.4,799.03c.088.057.163.111.243.157,1.826,1.067,3.656,2.126,5.475,3.2a.851.851,0,0,0,.975,0c1.458-.866,2.927-1.712,4.391-2.567.441-.257.88-.518,1.328-.782a.606.606,0,0,0-.6-.3q-2.721,0-5.441,0-2.893,0-5.785,0A.583.583,0,0,0,631.4,799.03Z" transform="translate(0)"/>
    <path id="Path_70067" data-name="Path 70067" d="M774.6,906.84a4.614,4.614,0,1,1,4.619-4.591A4.591,4.591,0,0,1,774.6,906.84Zm-2.827-6.574a3.382,3.382,0,0,0,.538,4.52A3.338,3.338,0,0,0,776.5,905Zm.885-.9,4.744,4.748a3.412,3.412,0,0,0-4.744-4.748Z" transform="translate(-131.819 -94.285)"/>
  </g>
</svg>
