<svg xmlns="http://www.w3.org/2000/svg" width="100" height="100" viewBox="0 0 100 100">
  <g id="buy-sell" transform="translate(-47 -47)">
    <rect id="Rectangle_1" data-name="Rectangle 1" width="100" height="100" transform="translate(47 47)" fill="#fff" opacity="0"/>
    <g id="Group_1" data-name="Group 1" transform="translate(47 47.3)">
      <rect id="Rectangle_2" data-name="Rectangle 2" width="26.9" height="11.4" transform="translate(32 16.6)" fill="#ffd580"/>
      <path id="Path_1" data-name="Path 1" d="M19.1,28l76.1-.5s2.6,0,1.6,4.7L91,65.3,31.5,72Z" fill="#f24973"/>
      <path id="Path_2" data-name="Path 2" d="M96.7,32.1,91,65.3,61.5,68.6V27.7l33.6-.2C95.2,27.5,97.7,27.5,96.7,32.1Z" fill="#d92c49"/>
      <path id="Path_3" data-name="Path 3" d="M45.1,56.5h-.9a2.433,2.433,0,0,1-2.4-2.4V41.3a2.433,2.433,0,0,1,2.4-2.4h.9a2.433,2.433,0,0,1,2.4,2.4V54.1A2.369,2.369,0,0,1,45.1,56.5Z" fill="#fff"/>
      <path id="Path_4" data-name="Path 4" d="M62.2,56.5h-.9a2.433,2.433,0,0,1-2.4-2.4V41.3a2.433,2.433,0,0,1,2.4-2.4h.9a2.433,2.433,0,0,1,2.4,2.4V54.1A2.433,2.433,0,0,1,62.2,56.5Z" fill="#fff"/>
      <path id="Path_5" data-name="Path 5" d="M78.8,56h-.9a2.433,2.433,0,0,1-2.4-2.4V40.8a2.433,2.433,0,0,1,2.4-2.4h.9a2.433,2.433,0,0,1,2.4,2.4V53.6A2.433,2.433,0,0,1,78.8,56Z" fill="#fff"/>
      <path id="Path_6" data-name="Path 6" d="M19.1,28,14.4,11.5H3V5.8H19.1L25.3,28Z" fill="#80334d"/>
      <path id="Path_7" data-name="Path 7" d="M87.4,86a8.8,8.8,0,1,1-17.6,0,8.627,8.627,0,0,1,.8-3.6H46.8A8.308,8.308,0,0,1,48,86.8a8.5,8.5,0,1,1-17-.1,8.308,8.308,0,0,1,1.2-4.4h-.7C18.6,75.1,30,66.8,30,66.8L31.6,72c-2.6,6.2,5.2,5.2,5.2,5.2H78.4a12.768,12.768,0,0,1,4,.8c.1.1.2.1.4.2.1,0,.2.1.3.1a.1.1,0,0,1,.1.1A9.007,9.007,0,0,1,87.4,86Z" fill="#59243f"/>
      <path id="Path_8" data-name="Path 8" d="M60.8,82.2H46.9a8.308,8.308,0,0,1,1.2,4.4,8.5,8.5,0,1,1-17,0,8.308,8.308,0,0,1,1.2-4.4h-.7C18.8,75,30.1,66.8,30.1,66.8l1.5,5.1C29,78.1,36.7,77,36.7,77H60.6v5.2Z" fill="#80334d"/>
      <circle id="Ellipse_1" data-name="Ellipse 1" cx="2.8" cy="2.8" r="2.8" transform="translate(36.7 83.9)" fill="#fff"/>
      <circle id="Ellipse_2" data-name="Ellipse 2" cx="2.8" cy="2.8" r="2.8" transform="translate(75.5 83.9)" fill="#fff"/>
      <path id="Path_9" data-name="Path 9" d="M87.9,13.7V27.5h-29V13.7a2.8,2.8,0,0,1,2.8-2.8H85.2A2.775,2.775,0,0,1,87.9,13.7Z" fill="#8ae68a"/>
      <path id="Path_10" data-name="Path 10" d="M87.9,13.7V27.5h-15V11H84.8A2.858,2.858,0,0,1,87.9,13.7Z" fill="#60bf80"/>
      <path id="Path_11" data-name="Path 11" d="M66.7,10.9,64.1,7.8l4.1-3.1,4.7,6.2Z" fill="#f24973"/>
      <path id="Path_12" data-name="Path 12" d="M78.9,10.9l2.6-3.1L77.3,4.7l-4.6,6.2Z" fill="#d92c49"/>
    </g>
  </g>
</svg>
