<svg xmlns="http://www.w3.org/2000/svg" width="18.436" height="15.98" viewBox="0 0 18.436 15.98">
  <g id="Camera" transform="translate(-240.974 -141.901)">
    <path id="Path_68513" data-name="Path 68513" d="M250.19,157.881h-6.874a2.248,2.248,0,0,1-2.341-2.346q0-4.417,0-8.833a2.248,2.248,0,0,1,2.347-2.34c.787,0,1.575,0,2.362,0,.131,0,.192-.033.23-.162.083-.282.179-.56.281-.836a2.216,2.216,0,0,1,2.079-1.461q1.92-.01,3.84,0a2.212,2.212,0,0,1,2.076,1.465c.1.263.189.53.268.8a.228.228,0,0,0,.265.2c.794-.01,1.587-.006,2.381,0a2.243,2.243,0,0,1,2.305,2.3q0,4.455,0,8.91a2.244,2.244,0,0,1-2.306,2.3Q253.646,157.882,250.19,157.881Zm-.008-1.229h6.873a1.026,1.026,0,0,0,1.125-1.116q0-4.415,0-8.831a1.022,1.022,0,0,0-1.107-1.114c-.979,0-1.958,0-2.937,0a.612.612,0,0,1-.647-.464c-.143-.417-.42-1.254-.42-1.254s-.518-.739-1.025-.739q-1.853,0-3.705,0a1.01,1.01,0,0,0-1.024.74c-.137.405-.269.813-.406,1.218a.632.632,0,0,1-.7.5h-2.88a1.026,1.026,0,0,0-1.125,1.134q0,4.387,0,8.773a1.035,1.035,0,0,0,1.164,1.154Z" fill="#001968"/>
    <path id="Path_68514" data-name="Path 68514" d="M330.8,230.406a4.609,4.609,0,1,1,4.6,4.6A4.611,4.611,0,0,1,330.8,230.406Zm4.613,3.374a3.379,3.379,0,1,0-3.384-3.379A3.388,3.388,0,0,0,335.415,233.78Z" transform="translate(-85.219 -79.587)" fill="#001968"/>
    <path id="Path_68515" data-name="Path 68515" d="M529.038,237.777a.614.614,0,1,1-.61.612A.618.618,0,0,1,529.038,237.777Z" transform="translate(-272.705 -90.957)" fill="#001968"/>
  </g>
</svg>
