<svg xmlns="http://www.w3.org/2000/svg" width="12.19" height="12.199" viewBox="0 0 12.19 12.199">
  <path id="Path_70076" data-name="Path 70076" d="M556.6,628.216c.053.014.107.026.16.041a.786.786,0,0,1,.4,1.261c-.038.046-.08.088-.122.13q-2.285,2.286-4.571,4.57a1.049,1.049,0,0,1-.134.094c.067.056.106.083.139.117q2.3,2.3,4.6,4.6a.8.8,0,0,1,.254.764.785.785,0,0,1-1.252.461,1.49,1.49,0,0,1-.14-.128l-4.57-4.571c-.033-.033-.06-.074-.1-.121-.049.047-.083.078-.116.111q-2.3,2.3-4.6,4.605a.8.8,0,0,1-.835.231.745.745,0,0,1-.514-.5c-.013-.037-.027-.073-.041-.109V639.5a1.2,1.2,0,0,1,.374-.578q2.254-2.247,4.5-4.5a1.064,1.064,0,0,1,.139-.1c-.071-.056-.112-.083-.146-.116q-2.247-2.246-4.494-4.491a1.233,1.233,0,0,1-.377-.577v-.262a.822.822,0,0,1,.376-.535,2.462,2.462,0,0,1,.362-.132h.1a1.177,1.177,0,0,1,.688.41q2.234,2.244,4.476,4.48c.03.03.062.059.121.115a.84.84,0,0,1,.084-.122q2.233-2.236,4.467-4.472a1.173,1.173,0,0,1,.687-.41Z" transform="translate(-545.152 -628.216)" fill="#001968"/>
</svg>
