<svg xmlns="http://www.w3.org/2000/svg" width="100" height="100" viewBox="0 0 100 100">
  <g id="connection-icon" transform="translate(6137 3259)">
    <g id="Rectangle_12142" data-name="Rectangle 12142" transform="translate(-6137 -3259)" fill="#fff" stroke="#707070" stroke-width="1" opacity="0">
      <rect width="100" height="100" stroke="none"/>
      <rect x="0.5" y="0.5" width="99" height="99" fill="none"/>
    </g>
    <g id="Group_62912" data-name="Group 62912" transform="translate(-6432.717 -4501.246)">
      <path id="Path_70679" data-name="Path 70679" d="M348.072,1285.707h1.278q3.894,0,7.788,0c1.871,0,2.552-.7,2.556-2.6,0-1.161.072-2.332-.035-3.484a10.588,10.588,0,0,0-4.669-7.933,12.447,12.447,0,0,1-18.077.016,10.986,10.986,0,0,0-3.994,4.959c-.967,2.226-.69,4.559-.708,6.867a1.985,1.985,0,0,0,2.154,2.17c2.48.02,4.96.007,7.44.007h2.018c0,3.062.021,5.962-.032,8.86-.005.294-.4.689-.705.854a6.466,6.466,0,0,0-3.567,4.861,1.12,1.12,0,0,1-.971,1.046c-2.477.734-4.955,1.471-7.4,2.312-.894.309-1.3.216-1.809-.654a7.893,7.893,0,0,0-10.324-3.017,7.959,7.959,0,0,0,3.937,15.09,7.811,7.811,0,0,0,7.222-5.717,1.616,1.616,0,0,1,1.25-1.278c2.775-.817,5.532-1.691,8.283-2.582a1.44,1.44,0,0,1,1.7.439,6.286,6.286,0,0,0,9.047.029,1.53,1.53,0,0,1,1.8-.452c2.641.856,5.283,1.714,7.946,2.5a1.977,1.977,0,0,1,1.577,1.524,7.959,7.959,0,0,0,15.243-4.583,7.722,7.722,0,0,0-6.4-5.692,7.844,7.844,0,0,0-8.119,3.789c-.343.585-.565,1.013-1.387.74-2.634-.874-5.3-1.661-7.933-2.533a1.279,1.279,0,0,1-.729-.808,6.79,6.79,0,0,0-3.809-5.095,1.16,1.16,0,0,1-.543-.844C348.056,1291.631,348.072,1288.766,348.072,1285.707Zm-16.4,29.926c-7.418,5.247-11.022,5.247-18.209.006a10.437,10.437,0,0,0-3.752,4.447c-1.156,2.441-1.046,5.049-.922,7.635a2.1,2.1,0,0,0,2.36,1.916q11.39.02,22.78,0a2.286,2.286,0,0,0,2.465-2.47c.025-.929.049-1.862-.009-2.789A11.022,11.022,0,0,0,331.674,1315.633Zm46.778-.007c-7.194,5.26-10.742,5.26-18.264-.016-.5.443-1.047.873-1.535,1.361-3.013,3.015-3.418,6.809-3.1,10.77a2.105,2.105,0,0,0,2.288,1.891q11.506.027,23.012,0a2.147,2.147,0,0,0,2.281-2.257,30.712,30.712,0,0,0-.02-3.484A10.714,10.714,0,0,0,378.451,1315.626Zm-24.571-52.375a7.906,7.906,0,0,0-7.885-8.006,8,8,0,1,0,7.885,8.006Z" transform="translate(0 0)" fill="#fff"/>
      <path id="Path_70680" data-name="Path 70680" d="M367.394,1339.993c0,3.061-.016,5.925.024,8.788a1.161,1.161,0,0,0,.543.844,6.788,6.788,0,0,1,3.809,5.094,1.282,1.282,0,0,0,.729.811c2.635.872,5.3,1.658,7.933,2.531.822.273,1.043-.155,1.387-.739a7.839,7.839,0,0,1,8.119-3.787,7.718,7.718,0,0,1,6.4,5.691,7.959,7.959,0,0,1-15.243,4.583,1.982,1.982,0,0,0-1.577-1.525c-2.663-.783-5.3-1.641-7.946-2.5a1.531,1.531,0,0,0-1.8.451,6.283,6.283,0,0,1-9.047-.029,1.441,1.441,0,0,0-1.7-.438c-2.751.89-5.509,1.764-8.283,2.581a1.622,1.622,0,0,0-1.25,1.281,7.811,7.811,0,0,1-7.221,5.716,7.96,7.96,0,1,1,6.386-12.073c.509.87.915.962,1.809.654,2.441-.842,4.919-1.578,7.4-2.313a1.119,1.119,0,0,0,.971-1.046,6.466,6.466,0,0,1,3.567-4.86c.309-.166.7-.56.705-.855.053-2.9.032-5.8.032-8.86h-2.018c-2.48,0-4.96.014-7.44-.007a1.983,1.983,0,0,1-2.154-2.167c.018-2.309-.258-4.642.708-6.868a10.97,10.97,0,0,1,3.995-4.957,12.447,12.447,0,0,0,18.077-.018,10.6,10.6,0,0,1,4.669,7.934c.107,1.153.038,2.322.035,3.484,0,1.9-.684,2.593-2.556,2.6q-3.894.007-7.788,0Z" transform="translate(-19.322 -54.286)"/>
      <path id="Path_70681" data-name="Path 70681" d="M331.674,1515a11.027,11.027,0,0,1,4.714,8.745c.058.927.034,1.86.009,2.789a2.286,2.286,0,0,1-2.465,2.47q-11.39.022-22.78,0a2.1,2.1,0,0,1-2.36-1.916c-.125-2.587-.234-5.194.922-7.635a10.437,10.437,0,0,1,3.752-4.447C320.651,1520.244,324.256,1520.244,331.674,1515Z" transform="translate(0 -199.363)"/>
      <path id="Path_70682" data-name="Path 70682" d="M532.785,1514.921a10.715,10.715,0,0,1,4.666,8.264,30.689,30.689,0,0,1,.021,3.484,2.147,2.147,0,0,1-2.281,2.257q-11.506.033-23.012,0a2.106,2.106,0,0,1-2.288-1.891c-.323-3.962.083-7.756,3.1-10.771.487-.488,1.033-.918,1.535-1.359C522.043,1520.181,525.591,1520.181,532.785,1514.921Z" transform="translate(-154.333 -199.294)"/>
      <path id="Path_70683" data-name="Path 70683" d="M450.516,1263.251a7.945,7.945,0,1,1-7.885-8.006A7.938,7.938,0,0,1,450.516,1263.251Z" transform="translate(-96.636 0)"/>
    </g>
  </g>
</svg>
