<svg xmlns="http://www.w3.org/2000/svg" width="16.165" height="16.127" viewBox="0 0 16.165 16.127">
  <g id="Group_62067" data-name="Group 62067" transform="translate(-620.615 -768.424)">
    <path id="Path_70070" data-name="Path 70070" d="M849.2,966.063a2.362,2.362,0,1,1-2.4,2.35A2.369,2.369,0,0,1,849.2,966.063Z" transform="translate(-214.76 -187.66)"/>
    <path id="Path_70071" data-name="Path 70071" d="M622.981,966.063a2.362,2.362,0,1,1-2.366,2.371A2.382,2.382,0,0,1,622.981,966.063Z" transform="translate(0 -187.661)"/>
    <path id="Path_70072" data-name="Path 70072" d="M736.039,773.156a2.366,2.366,0,1,1,2.391-2.353A2.387,2.387,0,0,1,736.039,773.156Z" transform="translate(-107.358 0)"/>
    <path id="Path_70073" data-name="Path 70073" d="M641.633,835.63l-.9-.067c-.193-1.708,1.54-4.716,3.174-5.509l.5.762a6.22,6.22,0,0,0-1.958,2.08A6.143,6.143,0,0,0,641.633,835.63Z" transform="translate(-19.084 -58.519)"/>
    <path id="Path_70074" data-name="Path 70074" d="M851.332,835.6c-.2.018-.382.037-.566.049-.1.007-.2,0-.332,0a6.266,6.266,0,0,0-2.778-4.8l.5-.754A7,7,0,0,1,851.332,835.6Z" transform="translate(-215.578 -58.558)"/>
    <path id="Path_70075" data-name="Path 70075" d="M723.27,1056.278l.423.843a7.214,7.214,0,0,1-6.4,0l.425-.845A6.259,6.259,0,0,0,723.27,1056.278Z" transform="translate(-91.795 -273.321)"/>
  </g>
</svg>
