<svg xmlns="http://www.w3.org/2000/svg" width="100" height="100" viewBox="0 0 100 100">
  <g id="create-event" transform="translate(-47 -47)">
    <rect id="Rectangle_1" data-name="Rectangle 1" width="100" height="100" transform="translate(47 47)" fill="#fff" opacity="0"/>
    <g id="Group_5" data-name="Group 5" transform="translate(47.1 47.5)">
      <path id="Path_16" data-name="Path 16" d="M84.5,84.1H10.2a5.7,5.7,0,0,1-5.7-5.7V14.2a5.7,5.7,0,0,1,5.7-5.7H84.5a5.7,5.7,0,0,1,5.7,5.7V78.4A5.7,5.7,0,0,1,84.5,84.1Z" fill="#d3dcfb"/>
      <path id="Path_17" data-name="Path 17" d="M81.4,77.2H9a4.653,4.653,0,0,1-4.6-4.6V13A4.653,4.653,0,0,1,9,8.4H81.4A4.653,4.653,0,0,1,86,13V72.6A4.653,4.653,0,0,1,81.4,77.2Z" fill="#ebf5fc"/>
      <path id="Path_18" data-name="Path 18" d="M89.7,14.8V32.4H3.9V14.8a6.445,6.445,0,0,1,6.4-6.4h73A6.445,6.445,0,0,1,89.7,14.8Z" fill="#e80054"/>
      <path id="Path_19" data-name="Path 19" d="M9.8,8.4H79.1S85,9.5,85,14.8v8.5H4.4V13.2S4.4,9.5,9.8,8.4Z" fill="#ff4155"/>
      <rect id="Rectangle_13" data-name="Rectangle 13" width="80.5" height="4.3" transform="translate(4.4 28.1)" fill="#ff4155"/>
      <path id="Path_20" data-name="Path 20" d="M33.9,17.5H19.2a1.43,1.43,0,0,1-1.4-1.4v-.8a1.43,1.43,0,0,1,1.4-1.4H33.9a1.43,1.43,0,0,1,1.4,1.4V16A1.453,1.453,0,0,1,33.9,17.5Z" fill="#e80054"/>
      <path id="Path_21" data-name="Path 21" d="M71.2,17.5H56.5a1.43,1.43,0,0,1-1.4-1.4v-.8a1.43,1.43,0,0,1,1.4-1.4H71.2a1.43,1.43,0,0,1,1.4,1.4V16A1.391,1.391,0,0,1,71.2,17.5Z" fill="#e80054"/>
      <g id="Group_3" data-name="Group 3">
        <path id="Path_22" data-name="Path 22" d="M27.2,19.1H25.3A3.329,3.329,0,0,1,22,15.8V4.8a3.329,3.329,0,0,1,3.3-3.3h1.9a3.329,3.329,0,0,1,3.3,3.3v11A3.265,3.265,0,0,1,27.2,19.1Z" fill="#d3dcfb"/>
        <path id="Path_23" data-name="Path 23" d="M25,16.9H23.9A1.9,1.9,0,0,1,22,15V4.9A1.9,1.9,0,0,1,23.9,3H25a1.9,1.9,0,0,1,1.9,1.9V15A1.965,1.965,0,0,1,25,16.9Z" fill="#ebf5fc"/>
      </g>
      <g id="Group_4" data-name="Group 4">
        <path id="Path_24" data-name="Path 24" d="M65.1,19.1H63.2a3.329,3.329,0,0,1-3.3-3.3V4.8a3.329,3.329,0,0,1,3.3-3.3h1.9a3.329,3.329,0,0,1,3.3,3.3v11A3.329,3.329,0,0,1,65.1,19.1Z" fill="#d3dcfb"/>
        <path id="Path_25" data-name="Path 25" d="M62.8,16.9H61.7A1.9,1.9,0,0,1,59.8,15V4.9A1.9,1.9,0,0,1,61.7,3h1.1a1.9,1.9,0,0,1,1.9,1.9V15A1.9,1.9,0,0,1,62.8,16.9Z" fill="#ebf5fc"/>
      </g>
      <path id="Path_26" data-name="Path 26" d="M14,43.4H12.5A2.476,2.476,0,0,1,10,40.9V39.4a2.476,2.476,0,0,1,2.5-2.5H14a2.476,2.476,0,0,1,2.5,2.5V41A2.456,2.456,0,0,1,14,43.4Z" fill="#2a428c"/>
      <path id="Path_27" data-name="Path 27" d="M26.8,43.4H25.3a2.476,2.476,0,0,1-2.5-2.5V39.4a2.476,2.476,0,0,1,2.5-2.5h1.5a2.476,2.476,0,0,1,2.5,2.5V41A2.456,2.456,0,0,1,26.8,43.4Z" fill="#2a428c"/>
      <path id="Path_28" data-name="Path 28" d="M40.2,43.4H38.7a2.476,2.476,0,0,1-2.5-2.5V39.4a2.476,2.476,0,0,1,2.5-2.5h1.5a2.476,2.476,0,0,1,2.5,2.5V41A2.6,2.6,0,0,1,40.2,43.4Z" fill="#2a428c"/>
      <path id="Path_29" data-name="Path 29" d="M53,43.4H51.5A2.476,2.476,0,0,1,49,40.9V39.4a2.476,2.476,0,0,1,2.5-2.5H53a2.476,2.476,0,0,1,2.5,2.5V41A2.6,2.6,0,0,1,53,43.4Z" fill="#2a428c"/>
      <path id="Path_30" data-name="Path 30" d="M66.3,43.4H64.8a2.476,2.476,0,0,1-2.5-2.5V39.4a2.476,2.476,0,0,1,2.5-2.5h1.5a2.476,2.476,0,0,1,2.5,2.5V41A2.6,2.6,0,0,1,66.3,43.4Z" fill="#2a428c"/>
      <path id="Path_31" data-name="Path 31" d="M79.1,43.4H77.6a2.476,2.476,0,0,1-2.5-2.5V39.4a2.476,2.476,0,0,1,2.5-2.5h1.5a2.476,2.476,0,0,1,2.5,2.5V41A2.6,2.6,0,0,1,79.1,43.4Z" fill="#2a428c"/>
      <path id="Path_32" data-name="Path 32" d="M13.5,56.3H12a2.476,2.476,0,0,1-2.5-2.5V52.3A2.476,2.476,0,0,1,12,49.8h1.5A2.476,2.476,0,0,1,16,52.3v1.5A2.476,2.476,0,0,1,13.5,56.3Z" fill="#2a428c"/>
      <path id="Path_33" data-name="Path 33" d="M26.3,56.3H24.8a2.476,2.476,0,0,1-2.5-2.5V52.3a2.476,2.476,0,0,1,2.5-2.5h1.5a2.476,2.476,0,0,1,2.5,2.5v1.5A2.476,2.476,0,0,1,26.3,56.3Z" fill="#2a428c"/>
      <path id="Path_34" data-name="Path 34" d="M39.6,56.3H38.1a2.476,2.476,0,0,1-2.5-2.5V52.3a2.476,2.476,0,0,1,2.5-2.5h1.5a2.476,2.476,0,0,1,2.5,2.5v1.5A2.476,2.476,0,0,1,39.6,56.3Z" fill="#2a428c"/>
      <path id="Path_35" data-name="Path 35" d="M52.4,56.3H50.9a2.476,2.476,0,0,1-2.5-2.5V52.3a2.476,2.476,0,0,1,2.5-2.5h1.5a2.476,2.476,0,0,1,2.5,2.5v1.5A2.476,2.476,0,0,1,52.4,56.3Z" fill="#2a428c"/>
      <path id="Path_36" data-name="Path 36" d="M13.5,69.6H12a2.476,2.476,0,0,1-2.5-2.5V65.6A2.476,2.476,0,0,1,12,63.1h1.5A2.476,2.476,0,0,1,16,65.6v1.5A2.476,2.476,0,0,1,13.5,69.6Z" fill="#2a428c"/>
      <path id="Path_37" data-name="Path 37" d="M26.3,69.6H24.8a2.476,2.476,0,0,1-2.5-2.5V65.6a2.476,2.476,0,0,1,2.5-2.5h1.5a2.476,2.476,0,0,1,2.5,2.5v1.5A2.476,2.476,0,0,1,26.3,69.6Z" fill="#2a428c"/>
      <path id="Path_38" data-name="Path 38" d="M39.6,69.6H38.1a2.476,2.476,0,0,1-2.5-2.5V65.6a2.476,2.476,0,0,1,2.5-2.5h1.5a2.476,2.476,0,0,1,2.5,2.5v1.5A2.476,2.476,0,0,1,39.6,69.6Z" fill="#2a428c"/>
      <path id="Path_39" data-name="Path 39" d="M65.8,69.6H64.3a2.476,2.476,0,0,1-2.5-2.5V65.6a2.476,2.476,0,0,1,2.5-2.5h1.5a2.476,2.476,0,0,1,2.5,2.5v1.5A2.61,2.61,0,0,1,65.8,69.6Z" fill="#2a428c"/>
      <path id="Path_40" data-name="Path 40" d="M78.6,69.6H77.1a2.476,2.476,0,0,1-2.5-2.5V65.6a2.476,2.476,0,0,1,2.5-2.5h1.5a2.476,2.476,0,0,1,2.5,2.5v1.5A2.61,2.61,0,0,1,78.6,69.6Z" fill="#2a428c"/>
      <circle id="Ellipse_6" data-name="Ellipse 6" cx="23.7" cy="23.7" r="23.7" transform="translate(48.7 51.1)" fill="#1886ea"/>
      <circle id="Ellipse_7" data-name="Ellipse 7" cx="21.3" cy="21.3" r="21.3" transform="translate(49.2 52.2)" fill="#4fabf7"/>
      <circle id="Ellipse_8" data-name="Ellipse 8" cx="17.3" cy="17.3" r="17.3" transform="translate(55.1 56.4)" fill="#d3dcfb"/>
      <ellipse id="Ellipse_9" data-name="Ellipse 9" cx="15.2" cy="17.3" rx="15.2" ry="17.3" transform="translate(55.1 56.4)" fill="#ebf5fc"/>
      <path id="Path_41" data-name="Path 41" d="M71.4,72.9h-.7a1.216,1.216,0,0,1-1.2-1.2V62.5a1.216,1.216,0,0,1,1.2-1.2h.7a1.216,1.216,0,0,1,1.2,1.2v9.2A1.1,1.1,0,0,1,71.4,72.9Z" fill="#3c58a0"/>
      <path id="Path_42" data-name="Path 42" d="M82.3,73.1v.7A1.216,1.216,0,0,1,81.1,75H71.9a1.216,1.216,0,0,1-1.2-1.2v-.7a1.216,1.216,0,0,1,1.2-1.2H81A1.24,1.24,0,0,1,82.3,73.1Z" fill="#3c58a0"/>
      <circle id="Ellipse_10" data-name="Ellipse 10" cx="3.2" cy="3.2" r="3.2" transform="translate(67.9 70.3)" fill="#ffdd40"/>
    </g>
  </g>
</svg>
