<svg xmlns="http://www.w3.org/2000/svg" width="100" height="100" viewBox="0 0 100 100">
  <g id="disable-comment" transform="translate(6137 3259)">
    <g id="Rectangle_12142" data-name="Rectangle 12142" transform="translate(-6137 -3259)" fill="#fff" stroke="#707070" stroke-width="1" opacity="0">
      <rect width="100" height="100" stroke="none"/>
      <rect x="0.5" y="0.5" width="99" height="99" fill="none"/>
    </g>
    <g id="Group_62903" data-name="Group 62903" transform="translate(-6763.888 -4033.686)">
      <path id="Path_70057" data-name="Path 70057" d="M711.38,829.2h-7.356c0-2.185.136-4.324-.033-6.438a53.786,53.786,0,0,0-1.122-8.83,29.846,29.846,0,1,0-34.121,37.2,46.579,46.579,0,0,0,6.255.536c2.135.089,4.276.02,6.5.02v7.1c-4,0-8,.441-11.876-.079-14.621-1.961-24.892-9.933-30.34-23.615-8.262-20.75,4.154-44.318,25.849-49.54a37.348,37.348,0,0,1,45.017,26.432c1.254,4.552,1.291,9.2,1.224,13.87C711.367,826.921,711.38,827.99,711.38,829.2Z" transform="translate(0 0)"/>
      <path id="Path_70058" data-name="Path 70058" d="M850.872,1003.573l-7.623-7.693-7.764,7.861-5.263-5.362,7.972-7.745-8.019-8,5.154-5.112,7.749,7.768,7.766-7.961,5.363,5.49-7.654,7.541,7.791,7.764Z" transform="translate(-139.286 -138.846)"/>
      <path id="Path_70059" data-name="Path 70059" d="M703.614,911.965v-7.124h7.242C711.734,910.967,710.247,912.726,703.614,911.965Z" transform="translate(-48.165 -86.659)"/>
      <path id="Path_70060" data-name="Path 70060" d="M817.773,904.83c.758,6.648-1.135,7.777-7.268,7.135V904.83Z" transform="translate(-125.123 -86.651)"/>
      <path id="Path_70061" data-name="Path 70061" d="M757.475,904.722h7c.793,5.537.141,7.945-7,7.191Z" transform="translate(-86.943 -86.573)"/>
    </g>
  </g>
</svg>
