<svg xmlns="http://www.w3.org/2000/svg" width="100" height="100" viewBox="0 0 100 100">
  <g id="dont-allow-sharing" transform="translate(6137 3259)">
    <g id="Rectangle_12142" data-name="Rectangle 12142" transform="translate(-6137 -3259)" fill="#fff" stroke="#707070" stroke-width="1" opacity="0">
      <rect width="100" height="100" stroke="none"/>
      <rect x="0.5" y="0.5" width="99" height="99" fill="none"/>
    </g>
    <g id="Group_62902" data-name="Group 62902" transform="translate(-6527.443 -4305.858)">
      <path id="Path_70193" data-name="Path 70193" d="M440.045,1133.942c-20.5-.016-37.382-14.594-37.6-37.687-.2-21.008,17.461-37.432,37.7-37.4,20.121.035,37.761,16.41,37.54,37.437C477.438,1119.511,460.4,1133.973,440.045,1133.942Zm-3.346-43.823c4.479,4.468,8.862,8.85,13.268,13.208a2.014,2.014,0,0,0,1.038.4,9.4,9.4,0,0,1,7.7,7.847,1.413,1.413,0,0,0,.267.745c1.991,2.045,4,4.069,6.018,6.106,10.953-12.5,12.227-31.435-1.491-45.232-13.534-13.614-32.564-12.712-45.21-1.672.007.035,0,.082.021.1q7.388,7.425,14.8,14.83a.948.948,0,0,0,.879.1q3.081-1.712,6.1-3.528a1.1,1.1,0,0,0,.36-.835c-.01-1.051-.2-2.108-.136-3.152.254-4.363,4.9-8.447,9.246-8.211,6.27.34,9.425,4.972,9.171,9.912a9.062,9.062,0,0,1-6.961,8.4,9.374,9.374,0,0,1-8.993-2.555Zm-21.651-15.38a31.235,31.235,0,0,0-6.883,30.67c4.106,13.335,12.961,21.851,26.99,24.052,10.037,1.574,19.008-1.272,26.662-7.725l-4.113-4.266c-.113.142-.242.282-.347.438a8.906,8.906,0,0,1-8.475,4.245,9.2,9.2,0,0,1-8.5-10.785,1.257,1.257,0,0,0-.781-1.63c-3.575-2.032-7.127-4.105-10.689-6.16-.359-.207-.735-.385-1.071-.561a9.356,9.356,0,0,1-13.292.062,9.243,9.243,0,0,1-.637-12.4c3.523-4.185,8.629-4.423,14.046-.609l1.508-.912Zm29.856,30.069-12.315-12.323a16.82,16.82,0,0,0-1.915,1.128,1.491,1.491,0,0,0-.446,1.028c-.053,1.274-.055,2.552,0,3.826a1.381,1.381,0,0,0,.46,1.008c4.006,2.364,8.04,4.682,12.051,7Zm9.513-24.648a4.894,4.894,0,0,0-4.941-4.915,4.916,4.916,0,0,0-.011,9.832A4.931,4.931,0,0,0,454.416,1080.159Zm-33.3,21.223a4.782,4.782,0,0,0,4.9-4.765,4.831,4.831,0,0,0-4.752-4.937,4.748,4.748,0,0,0-4.99,4.792A4.694,4.694,0,0,0,421.117,1101.382Zm28.453,16.466a5.022,5.022,0,0,0,4.445-2.953,1.267,1.267,0,0,0-.328-1.652c-1.53-1.463-3.034-2.954-4.485-4.494a1.269,1.269,0,0,0-1.656-.3,4.921,4.921,0,0,0,2.025,9.4Z" transform="translate(0 0)"/>
    </g>
  </g>
</svg>
