<svg xmlns="http://www.w3.org/2000/svg" width="100" height="100" viewBox="0 0 100 100">
  <g id="enable-comment" transform="translate(6137 3259)">
    <g id="Rectangle_12142" data-name="Rectangle 12142" transform="translate(-6137 -3259)" fill="#fff" stroke="#707070" stroke-width="1" opacity="0">
      <rect width="100" height="100" stroke="none"/>
      <rect x="0.5" y="0.5" width="99" height="99" fill="none"/>
    </g>
    <g id="Group_62901" data-name="Group 62901" transform="translate(-6586.617 -4042.724)">
      <path id="Path_70053" data-name="Path 70053" d="M472.36,856.534c-5.534-.421-9.494-2.909-11.539-7.974a12.351,12.351,0,0,1-.865-4.45q-.1-17.422-.028-34.846a12.33,12.33,0,0,1,12.284-12.328q27.4-.055,54.81,0a12.306,12.306,0,0,1,12.271,12.211q.082,17.546,0,35.093A12.325,12.325,0,0,1,526.9,856.457q-18.167.05-36.333-.007a2.629,2.629,0,0,0-2.148.885c-3.751,4.017-7.559,7.979-11.328,11.978-.883.936-1.823,1.57-3.151,1.025s-1.587-1.659-1.582-2.939C472.368,863.809,472.36,860.218,472.36,856.534Zm4.935,5.219c.4-.356.616-.523.8-.718,2.568-2.69,5.167-5.351,7.678-8.092a4.169,4.169,0,0,1,3.356-1.459q18.785.055,37.57.018a7.364,7.364,0,0,0,7.636-7.412q.039-17.421,0-34.843a7.311,7.311,0,0,0-7.317-7.348q-27.4-.038-54.805,0a7.316,7.316,0,0,0-7.322,7.344q-.042,17.483,0,34.966a7.013,7.013,0,0,0,4.745,6.734,16.765,16.765,0,0,0,4.5.541c2.3.088,3.154.861,3.158,3.138C477.3,856.917,477.294,859.213,477.294,861.753Z" transform="translate(0 0)"/>
      <path id="Path_70054" data-name="Path 70054" d="M549.907,901.919a4.957,4.957,0,1,1-4.987-4.927A4.994,4.994,0,0,1,549.907,901.919Z" transform="translate(-60.222 -75.255)"/>
      <path id="Path_70055" data-name="Path 70055" d="M604.845,906.9a4.959,4.959,0,1,1,5.062-4.853A5,5,0,0,1,604.845,906.9Z" transform="translate(-105.337 -75.252)"/>
      <path id="Path_70056" data-name="Path 70056" d="M669.915,901.919a4.957,4.957,0,1,1-4.987-4.927A4.994,4.994,0,0,1,669.915,901.919Z" transform="translate(-150.459 -75.255)"/>
    </g>
  </g>
</svg>
