<?xml version="1.0" encoding="utf-8"?>
<!-- Generator: Adobe Illustrator 26.0.1, SVG Export Plug-In . SVG Version: 6.00 Build 0)  -->
<svg version="1.1" id="Layer_1" xmlns="http://www.w3.org/2000/svg" xmlns:xlink="http://www.w3.org/1999/xlink" x="0px" y="0px"
	 viewBox="0 0 200 200" style="enable-background:new 0 0 200 200;" xml:space="preserve">
<style type="text/css">
	.st0{fill:#D3DCFB;}
	.st1{fill:#EBF5FC;}
	.st2{fill:#E80054;}
	.st3{fill:#FF4155;}
	.st4{fill:#2A428C;}
	.st5{fill:#1886EA;}
	.st6{fill:#4FABF7;}
	.st7{fill:#3C58A0;}
	.st8{fill:#FFDD40;}
</style>
<g>
	<path class="st0" d="M165.6,165.4H25c-6.6,0-12-5.4-12-12V32.3c0-6.6,5.4-12,12-12h140.5c6.6,0,12,5.4,12,12v121.1
		C177.6,160,172.2,165.4,165.6,165.4z"/>
	<path class="st1" d="M157.4,152.1H25c-6.6,0-12-5.4-12-12V32.3c0-6.6,5.4-12,12-12h132.4c6.6,0,12,5.4,12,12v107.8
		C169.4,146.7,164,152.1,157.4,152.1z"/>
	<path class="st2" d="M176.5,32.5v33.7H12V32.5c0-6.7,5.5-12.3,12.3-12.3h140C171,20.3,176.5,25.8,176.5,32.5z"/>
	<path class="st3" d="M23.2,20.3h132.9c0,0,11.2,2,11.2,12.3v16.4H13V29.5C13,29.5,13,22.3,23.2,20.3z"/>
	<rect x="13" y="58.1" class="st3" width="154.3" height="8.2"/>
	<path class="st2" d="M68.8,37.7H42.1c-1.9,0-3.5-1.6-3.5-3.5V34c0-1.9,1.6-3.5,3.5-3.5h26.7c1.9,0,3.5,1.6,3.5,3.5v0.2
		C72.3,36.1,70.7,37.7,68.8,37.7z"/>
	<path class="st2" d="M140.3,37.7h-26.7c-1.9,0-3.5-1.6-3.5-3.5V34c0-1.9,1.6-3.5,3.5-3.5h26.7c1.9,0,3.5,1.6,3.5,3.5v0.2
		C143.8,36.1,142.3,37.7,140.3,37.7z"/>
	<g>
		<path class="st0" d="M55.1,40.7h-0.4c-4.4,0-8-3.6-8-8V15c0-4.4,3.6-8,8-8h0.4c4.4,0,8,3.6,8,8v17.7
			C63.1,37.1,59.5,40.7,55.1,40.7z"/>
		<path class="st1" d="M51.4,36.6h-0.2c-2.5,0-4.5-2-4.5-4.5V14.6c0-2.5,2-4.5,4.5-4.5h0.2c2.5,0,4.5,2,4.5,4.5v17.6
			C55.9,34.6,53.9,36.6,51.4,36.6z"/>
	</g>
	<g>
		<path class="st0" d="M127.7,40.7h-0.4c-4.4,0-8-3.6-8-8V15c0-4.4,3.6-8,8-8h0.4c4.4,0,8,3.6,8,8v17.7
			C135.7,37.1,132.1,40.7,127.7,40.7z"/>
		<path class="st1" d="M124,36.6h-0.2c-2.5,0-4.5-2-4.5-4.5V14.6c0-2.5,2-4.5,4.5-4.5h0.2c2.5,0,4.5,2,4.5,4.5v17.6
			C128.5,34.6,126.5,36.6,124,36.6z"/>
	</g>
	<path class="st4" d="M33.7,87.4h-7.3c-1.4,0-2.5-1.1-2.5-2.5v-7.3c0-1.4,1.1-2.5,2.5-2.5h7.3c1.4,0,2.5,1.1,2.5,2.5V85
		C36.2,86.3,35.1,87.4,33.7,87.4z"/>
	<path class="st4" d="M58.3,87.4h-7.3c-1.4,0-2.5-1.1-2.5-2.5v-7.3c0-1.4,1.1-2.5,2.5-2.5h7.3c1.4,0,2.5,1.1,2.5,2.5V85
		C60.7,86.3,59.6,87.4,58.3,87.4z"/>
	<path class="st4" d="M83.8,87.4h-7.3c-1.4,0-2.5-1.1-2.5-2.5v-7.3c0-1.4,1.1-2.5,2.5-2.5h7.3c1.4,0,2.5,1.1,2.5,2.5V85
		C86.3,86.3,85.2,87.4,83.8,87.4z"/>
	<path class="st4" d="M108.3,87.4H101c-1.4,0-2.5-1.1-2.5-2.5v-7.3c0-1.4,1.1-2.5,2.5-2.5h7.3c1.4,0,2.5,1.1,2.5,2.5V85
		C110.8,86.3,109.7,87.4,108.3,87.4z"/>
	<path class="st4" d="M133.9,87.4h-7.3c-1.4,0-2.5-1.1-2.5-2.5v-7.3c0-1.4,1.1-2.5,2.5-2.5h7.3c1.4,0,2.5,1.1,2.5,2.5V85
		C136.3,86.3,135.2,87.4,133.9,87.4z"/>
	<path class="st4" d="M158.4,87.4h-7.3c-1.4,0-2.5-1.1-2.5-2.5v-7.3c0-1.4,1.1-2.5,2.5-2.5h7.3c1.4,0,2.5,1.1,2.5,2.5V85
		C160.9,86.3,159.8,87.4,158.4,87.4z"/>
	<path class="st4" d="M32.7,112.1h-7.3c-1.4,0-2.5-1.1-2.5-2.5v-7.3c0-1.4,1.1-2.5,2.5-2.5h7.3c1.4,0,2.5,1.1,2.5,2.5v7.3
		C35.2,111,34.1,112.1,32.7,112.1z"/>
	<path class="st4" d="M57.2,112.1h-7.3c-1.4,0-2.5-1.1-2.5-2.5v-7.3c0-1.4,1.1-2.5,2.5-2.5h7.3c1.4,0,2.5,1.1,2.5,2.5v7.3
		C59.7,111,58.6,112.1,57.2,112.1z"/>
	<path class="st4" d="M82.8,112.1h-7.3c-1.4,0-2.5-1.1-2.5-2.5v-7.3c0-1.4,1.1-2.5,2.5-2.5h7.3c1.4,0,2.5,1.1,2.5,2.5v7.3
		C85.2,111,84.1,112.1,82.8,112.1z"/>
	<path class="st4" d="M107.3,112.1H100c-1.4,0-2.5-1.1-2.5-2.5v-7.3c0-1.4,1.1-2.5,2.5-2.5h7.3c1.4,0,2.5,1.1,2.5,2.5v7.3
		C109.8,111,108.7,112.1,107.3,112.1z"/>
	<path class="st4" d="M32.7,137.7h-7.3c-1.4,0-2.5-1.1-2.5-2.5v-7.3c0-1.4,1.1-2.5,2.5-2.5h7.3c1.4,0,2.5,1.1,2.5,2.5v7.3
		C35.2,136.6,34.1,137.7,32.7,137.7z"/>
	<path class="st4" d="M57.2,137.7h-7.3c-1.4,0-2.5-1.1-2.5-2.5v-7.3c0-1.4,1.1-2.5,2.5-2.5h7.3c1.4,0,2.5,1.1,2.5,2.5v7.3
		C59.7,136.6,58.6,137.7,57.2,137.7z"/>
	<path class="st4" d="M82.8,137.7h-7.3c-1.4,0-2.5-1.1-2.5-2.5v-7.3c0-1.4,1.1-2.5,2.5-2.5h7.3c1.4,0,2.5,1.1,2.5,2.5v7.3
		C85.2,136.6,84.1,137.7,82.8,137.7z"/>
	<path class="st4" d="M132.9,137.7h-7.3c-1.4,0-2.5-1.1-2.5-2.5v-7.3c0-1.4,1.1-2.5,2.5-2.5h7.3c1.4,0,2.5,1.1,2.5,2.5v7.3
		C135.3,136.6,134.2,137.7,132.9,137.7z"/>
	<path class="st4" d="M157.4,137.7H150c-1.4,0-2.5-1.1-2.5-2.5v-7.3c0-1.4,1.1-2.5,2.5-2.5h7.3c1.4,0,2.5,1.1,2.5,2.5v7.3
		C159.8,136.6,158.7,137.7,157.4,137.7z"/>
	<circle class="st5" cx="143.3" cy="147.5" r="45.5"/>
	<circle class="st6" cx="139.7" cy="145" r="40.9"/>
	<circle class="st0" cx="143.3" cy="145.5" r="33.2"/>
	<ellipse class="st1" cx="139.2" cy="145.5" rx="29.1" ry="33.2"/>
	<path class="st7" d="M140.8,143.9h-0.1c-1.6,0-3-1.3-3-3v-16.5c0-1.6,1.4-3,3-3h0.1c1.6,0,3,1.3,3,3v16.5
		C143.8,142.6,142.5,143.9,140.8,143.9z"/>
	<path class="st7" d="M162.2,144.9v0.1c0,1.6-1.4,3-3,3h-16.5c-1.7,0-3-1.4-3-3v-0.1c0-1.6,1.3-3,3-3h16.5
		C160.9,141.9,162.2,143.3,162.2,144.9z"/>
	<circle class="st8" cx="140.8" cy="145" r="6.1"/>
</g>
</svg>
