<svg xmlns="http://www.w3.org/2000/svg" width="17.492" height="13.833" viewBox="0 0 17.492 13.833">
  <g id="Group_62066" data-name="Group 62066" transform="translate(-620.623 -801.492)">
    <path id="Path_70068" data-name="Path 70068" d="M624.675,812.466a11.367,11.367,0,0,1-2.571-2.213c-.481-.566-.9-1.182-1.341-1.785a.684.684,0,0,1-.009-.819,11.023,11.023,0,0,1,6.94-5.246,8.119,8.119,0,0,1,5.766.9.3.3,0,0,0,.432-.063c.479-.5.973-.983,1.464-1.47a.727.727,0,0,1,1.085-.065.738.738,0,0,1-.053,1.091q-6.127,6.13-12.257,12.256a.749.749,0,0,1-1.093.067.734.734,0,0,1,.075-1.107C623.622,813.5,624.134,813,624.675,812.466Zm7.923-7.984a6.8,6.8,0,0,0-5.4-.439,10.075,10.075,0,0,0-4.895,3.881c-.1.135-.032.209.037.307a11.35,11.35,0,0,0,2.021,2.207c.423.352.886.656,1.35,1,.266-.275.5-.52.734-.756s.487-.458.725-.682a2.972,2.972,0,0,1,.075-3.939,2.816,2.816,0,0,1,1.681-.88,2.876,2.876,0,0,1,2.321.651Zm-4.418,4.369,2.007-1.978a1.4,1.4,0,0,0-1.888.2A1.379,1.379,0,0,0,628.18,808.851Z"/>
    <path id="Path_70069" data-name="Path 70069" d="M764.353,882.8a7.63,7.63,0,0,0,4.712-1.814,11.991,11.991,0,0,0,2.238-2.376c.094-.129.117-.219.006-.351-.286-.341-.55-.7-.835-1.042a.737.737,0,0,1,.008-1.09.71.71,0,0,1,1.077.127c.454.566.882,1.154,1.31,1.74a.7.7,0,0,1,.024.842A11.674,11.674,0,0,1,767,883.793a8.462,8.462,0,0,1-2.752.464c-.563.009-.888-.247-.918-.682a.714.714,0,0,1,.7-.779C764.134,882.792,764.243,882.8,764.353,882.8Z" transform="translate(-134.908 -70.372)"/>
  </g>
</svg>
