<svg xmlns="http://www.w3.org/2000/svg" width="16.717" height="16.687" viewBox="0 0 16.717 16.687">
  <g id="gallery" transform="translate(-216 -94.002)">
    <path id="Path_68516" data-name="Path 68516" d="M216,108.8V95.894c.016-.068.032-.136.048-.2A2.137,2.137,0,0,1,218.2,94q5.123,0,10.246,0c.718,0,1.436-.006,2.154,0a2.123,2.123,0,0,1,2,1.45c.049.142.077.292.115.438V108.8a.709.709,0,0,0-.03.091,2.107,2.107,0,0,1-1.442,1.691,4.207,4.207,0,0,1-.422.108h-12.93a.434.434,0,0,0-.075-.028,2.1,2.1,0,0,1-1.7-1.426A4.388,4.388,0,0,1,216,108.8Zm6.986-4.12a.931.931,0,0,1,.108-.171q2.143-2.146,4.288-4.29a1.374,1.374,0,0,1,.881-.445,1.324,1.324,0,0,1,1.18.535l2.15,2.642c.036.044.073.088.143.171v-.189q0-3.356,0-6.711a1.163,1.163,0,0,0-1.236-1.237q-6.136,0-12.273,0a1.166,1.166,0,0,0-1.242,1.248q0,4.537,0,9.073c0,.045.007.09.012.159.331-.28.64-.544.951-.806.577-.487,1.144-.988,1.737-1.455a1.154,1.154,0,0,1,1.291-.117,4.075,4.075,0,0,1,.683.5C222.088,103.929,222.511,104.286,222.986,104.68Zm1.371,5.029q3.068,0,6.137,0a1.164,1.164,0,0,0,1.24-1.233q0-1.833,0-3.665a.375.375,0,0,0-.077-.218q-1.466-1.812-2.939-3.618c-.244-.3-.391-.306-.664-.033l-4.659,4.657a.506.506,0,0,1-.788.041q-.943-.778-1.884-1.56c-.23-.191-.345-.192-.572,0q-1.536,1.3-3.067,2.61a.3.3,0,0,0-.093.2c-.008.532-.007,1.064,0,1.6a1.435,1.435,0,0,0,.048.369,1.152,1.152,0,0,0,1.2.851Z" fill="#001968"/>
    <path id="Path_68517" data-name="Path 68517" d="M286.81,146.744a2.374,2.374,0,1,1,2.386,2.36A2.377,2.377,0,0,1,286.81,146.744Zm.988,0a1.387,1.387,0,0,0,2.773-.016,1.387,1.387,0,0,0-2.773.016Z" transform="translate(-67.92 -48.312)" fill="#001968"/>
  </g>
</svg>
