<?xml version="1.0" encoding="utf-8"?>
<!-- Generator: Adobe Illustrator 26.0.1, SVG Export Plug-In . SVG Version: 6.00 Build 0)  -->
<svg version="1.1" id="Layer_1" xmlns="http://www.w3.org/2000/svg" xmlns:xlink="http://www.w3.org/1999/xlink" x="0px" y="0px"
	 viewBox="0 0 200 200" style="enable-background:new 0 0 200 200;" xml:space="preserve">
<style type="text/css">
	.st0{fill:#64798A;}
	.st1{fill:#3A556A;}
	.st2{fill:#FCD462;}
	.st3{fill:#27A2DB;}
	.st4{fill:#44C4A1;}
	.st5{fill:#EBF0F3;}
	.st6{fill:#E56353;}
	.st7{fill:#D5D6DB;}
</style>
<g>
	<path class="st0" d="M184.8,190H14.7c-5.1,0-9.2-4.1-9.2-9.2V19.2c0-5.1,4.1-9.2,9.2-9.2h170.1c5.1,0,9.2,4.1,9.2,9.2v161.6
		C194,185.9,189.9,190,184.8,190z"/>
	<path class="st1" d="M193.7,20.3v26.4H6.3V20.3c0-5.4,4.4-9.8,9.8-9.8H184C189.4,10.5,193.7,14.9,193.7,20.3z"/>
	<circle class="st2" cx="23.3" cy="28.6" r="7.5"/>
	<circle class="st3" cx="42.5" cy="28.6" r="7.5"/>
	<circle class="st4" cx="62.7" cy="28.6" r="7.5"/>
	<path class="st5" d="M179.2,35H99.6c-3.3,0-6-2.7-6-6v-0.8c0-3.3,2.7-6,6-6h79.6c3.3,0,6,2.7,6,6V29C185.2,32.3,182.5,35,179.2,35z
		"/>
	<rect x="15.1" y="54.2" class="st5" width="169.3" height="125.7"/>
	<rect x="23.3" y="61.7" class="st0" width="49" height="33.2"/>
	<rect x="23.3" y="99.9" class="st6" width="49" height="33.2"/>
	<rect x="23.3" y="139.2" class="st2" width="49" height="33.2"/>
	<rect x="78.7" y="61.7" class="st7" width="98" height="8.5"/>
	<rect x="78.7" y="81.9" class="st7" width="68.2" height="8.5"/>
	<rect x="78.7" y="103.2" class="st7" width="98" height="8.5"/>
	<rect x="78.7" y="123.4" class="st7" width="68.2" height="8.5"/>
	<rect x="78.7" y="143.7" class="st7" width="98" height="8.5"/>
	<rect x="78.7" y="163.9" class="st7" width="68.2" height="8.5"/>
</g>
</svg>
