<svg xmlns="http://www.w3.org/2000/svg" width="100" height="100" viewBox="0 0 100 100">
  <g id="globe" transform="translate(6137 3259)">
    <g id="Rectangle_12142" data-name="Rectangle 12142" transform="translate(-6137 -3259)" fill="#fff" stroke="#707070" stroke-width="1" opacity="0">
      <rect width="100" height="100" stroke="none"/>
      <rect x="0.5" y="0.5" width="99" height="99" fill="none"/>
    </g>
    <g id="Group_62892" data-name="Group 62892" transform="translate(-7070.204 -4347.444)">
      <path id="Path_70022" data-name="Path 70022" d="M983.543,1100.444A38.349,38.349,0,1,1,945.2,1138.8,38.378,38.378,0,0,1,983.543,1100.444ZM956,1119.142a33.407,33.407,0,0,0-6.226,17.362h13.4c.51-4.774,1.008-9.434,1.5-14.072Zm46.428,3.288c.5,4.72,1,9.375,1.5,14.069h13.413a33.442,33.442,0,0,0-6.247-17.351Zm-37.748,32.719c-.5-4.686-1-9.374-1.507-14.092h-13.3c-.339,4.508,3.155,14.161,6.227,17.346Zm52.587-14.1h-13.329c-.51,4.766-1.012,9.454-1.51,14.1l8.607,3.256C1014.229,1154.784,1017.394,1146.043,1017.266,1141.05ZM981.3,1125.219,969,1123.672c-.421,4.226-.846,8.487-1.28,12.824H981.3Zm18.1,11.33q-.679-6.657-1.314-12.873l-12.26,1.536v11.337Zm-31.7,4.489q.682,6.664,1.316,12.871l12.256-1.532v-11.339Zm31.693.021H985.813v11.318l12.276,1.524C998.512,1149.736,998.948,1145.445,999.395,1141.058ZM981.3,1104.829c-2.276.451-4.439.87-6.594,1.322a.808.808,0,0,0-.486.463c-1.44,4.1-2.86,8.205-4.4,12.642l11.478,1.458Zm15.983,14.419c-1.514-4.361-2.9-8.37-4.312-12.367-.1-.3-.384-.69-.646-.747-2.12-.465-4.255-.859-6.507-1.3v15.891ZM981.3,1172.736v-15.874l-11.477,1.473c1.512,4.354,2.892,8.362,4.311,12.356a1.344,1.344,0,0,0,.744.806C976.962,1171.949,979.067,1172.317,981.3,1172.736Zm4.514-.077c1.536-.23,2.972-.546,4.422-.64,2.008-.128,2.937-1.206,3.484-3.052,1.029-3.476,2.241-6.9,3.479-10.647l-11.384-1.444Zm-17.2-64.219a32.5,32.5,0,0,0-9.6,7.092l6.7,2.475Zm29.868-.02,2.926,9.6,6.678-2.494A32.654,32.654,0,0,0,998.479,1108.42Zm-32.773,51.144-6.583,2.457c1.791,2.433,7.434,6.533,9.422,6.9C967.617,1165.859,966.69,1162.8,965.707,1159.564Zm35.7,0c-.974,3.207-1.913,6.3-2.912,9.591a32.606,32.606,0,0,0,9.593-7.093C1005.824,1161.215,1003.706,1160.424,1001.4,1159.562Z" transform="translate(0 0)" fill="#001968"/>
    </g>
  </g>
</svg>
