<svg xmlns="http://www.w3.org/2000/svg" width="10.409" height="10.409" viewBox="0 0 10.409 10.409">
  <g id="Group_66281" data-name="Group 66281" transform="translate(-168.687 -462.596)">
    <path id="NoPath_-_Copy_2_" data-name="NoPath - Copy (2)" d="M307.774,38.434h-4.312l-3.049,3.049v4.312l3.049,3.049h4.312l3.049-3.049V41.483Z" transform="translate(-131.727 424.161)" fill="#19963f"/>
    <g id="Group_66274" data-name="Group 66274" transform="translate(975.884 102.275)">
      <path id="Path_76621" data-name="Path 76621" d="M-799.023,364.1a.7.7,0,0,1-.224.356q-1.609,1.606-3.215,3.214a.464.464,0,0,1-.511.138.55.55,0,0,1-.2-.125q-.822-.814-1.637-1.635a.468.468,0,0,1,.038-.724.474.474,0,0,1,.635.066q.63.629,1.259,1.259a.573.573,0,0,1,.05.071.7.7,0,0,1,.05-.068l2.923-2.924a.469.469,0,0,1,.5-.139.458.458,0,0,1,.318.346c0,.013.008.025.012.038Z" fill="#fff"/>
    </g>
  </g>
</svg>
