<svg xmlns="http://www.w3.org/2000/svg" width="100" height="100" viewBox="0 0 100 100">
  <g id="private-icon" transform="translate(6137 3259)">
    <g id="Rectangle_12142" data-name="Rectangle 12142" transform="translate(-6137 -3259)" fill="#fff" stroke="#707070" stroke-width="1" opacity="0">
      <rect width="100" height="100" stroke="none"/>
      <rect x="0.5" y="0.5" width="99" height="99" fill="none"/>
    </g>
    <g id="Group_62914" data-name="Group 62914" transform="translate(-6597.787 -4289.107)">
      <path id="Path_70593" data-name="Path 70593" d="M490.883,1070.372c0-3.308,0-6.452,0-9.594a20.143,20.143,0,0,1,39.245-6.845,27.753,27.753,0,0,1,1.041,6.663c.172,3.182.043,6.379.043,9.669a36.316,36.316,0,0,1,3.855.289,7.314,7.314,0,0,1,6.21,7.3q.059,17.7,0,35.4a7.446,7.446,0,0,1-7.526,7.517q-22.737.051-45.476,0a7.425,7.425,0,0,1-7.456-7.454q-.069-17.7,0-35.4a7.514,7.514,0,0,1,7.52-7.535C489.128,1070.357,489.921,1070.372,490.883,1070.372Zm20.038,45.368q11.088,0,22.176,0c2.267,0,3.155-.867,3.155-3.09q0-17.073,0-34.146c0-2.186-.882-3.089-3.027-3.089q-22.176-.006-44.352,0c-2.141,0-3.028.908-3.028,3.086q0,17.073,0,34.146c0,2.228.884,3.093,3.153,3.093Q499.959,1115.742,510.921,1115.74ZM495.85,1070.3H526.1c0-3.915.008-7.764-.01-11.613a7.594,7.594,0,0,0-.206-1.492,15.319,15.319,0,0,0-13.649-12.007,15.151,15.151,0,0,0-15.322,9.748C495.055,1059.946,496.334,1065.142,495.85,1070.3Z" transform="translate(0 0)"/>
      <path id="Path_70594" data-name="Path 70594" d="M583.429,1230.847v2.516c0,2.333-.916,3.619-2.552,3.592-1.6-.026-2.489-1.281-2.49-3.53,0-2.056.04-4.112-.033-6.166a1.744,1.744,0,0,0-.709-1.221,6.828,6.828,0,0,1-3.232-7.654,6.906,6.906,0,0,1,6.275-4.969,6.787,6.787,0,0,1,6.6,4.675,6.492,6.492,0,0,1-2.681,7.579,2.121,2.121,0,0,0-1.194,2.282C583.48,1228.913,583.429,1229.882,583.429,1230.847Zm-.827-10.67a1.7,1.7,0,1,0-1.727,1.661A1.748,1.748,0,0,0,582.6,1220.177Z" transform="translate(-69.86 -129.61)"/>
    </g>
  </g>
</svg>
