<svg xmlns="http://www.w3.org/2000/svg" xmlns:xlink="http://www.w3.org/1999/xlink" width="227.441" height="227.441" viewBox="0 0 227.441 227.441">
  <defs>
    <linearGradient id="linear-gradient" x1="0.5" x2="0.5" y2="1" gradientUnits="objectBoundingBox">
      <stop offset="0" stop-color="#4ac14b"/>
      <stop offset="1" stop-color="#06853a"/>
    </linearGradient>
  </defs>
  <g id="Group_66113" data-name="Group 66113" transform="translate(-106.866 -83.866)">
    <path id="Path_76458" data-name="Path 76458" d="M227.843,101.311c-54.344,0-98.535,43.853-98.535,97.773a96.753,96.753,0,0,0,18.766,57.324l-12.3,36.3,37.858-12.029a98.529,98.529,0,0,0,54.215,16.164c54.321,0,98.525-43.857,98.525-97.762s-44.2-97.773-98.525-97.773Z" transform="translate(-4.612 -3.585)" fill-rule="evenodd" fill="url(#linear-gradient)"/>
    <g id="Group_66112" data-name="Group 66112" transform="translate(106.866 83.866)">
      <path id="Path_76459" data-name="Path 76459" d="M334.307,194.661c0,61.178-49.987,110.786-111.649,110.786a111.765,111.765,0,0,1-53.973-13.785l-61.82,19.646,20.151-59.438A109.627,109.627,0,0,1,111,194.661c0-61.191,49.986-110.8,111.657-110.8s111.649,49.6,111.649,110.8ZM222.659,101.512c-51.774,0-93.876,41.78-93.876,93.149a92.185,92.185,0,0,0,17.88,54.614l-11.723,34.587L171.008,272.4a93.864,93.864,0,0,0,51.651,15.4c51.753,0,93.867-41.783,93.867-93.141s-42.114-93.149-93.867-93.149Zm56.381,118.667c-.692-1.134-2.518-1.813-5.244-3.172s-16.2-7.932-18.707-8.833-4.344-1.358-6.157,1.355-7.073,8.836-8.674,10.649-3.185,2.037-5.923.679-11.565-4.233-22.014-13.473a82.6,82.6,0,0,1-15.229-18.808c-1.589-2.714-.158-4.183,1.2-5.538,1.235-1.223,2.742-3.172,4.109-4.751a18.6,18.6,0,0,0,2.74-4.542A4.931,4.931,0,0,0,204.9,169c-.679-1.355-6.157-14.721-8.44-20.164-2.268-5.426-4.552-5.224-6.157-5.224a39.463,39.463,0,0,0-4.546.473s-5.487.679-7.992,3.4-9.575,9.29-9.575,22.643,9.8,26.282,11.167,28.083c1.371,1.816,18.928,30.133,46.755,41.006s27.827,7.244,32.846,6.785c5.009-.442,16.189-6.564,18.473-12.907s2.284-11.783,1.6-12.908Zm0,0" transform="translate(-106.866 -83.866)" fill="#fff" fill-rule="evenodd"/>
    </g>
  </g>
</svg>
