<svg xmlns="http://www.w3.org/2000/svg" width="20.51" height="16.267" viewBox="0 0 20.51 16.267">
  <path id="your_connections" d="M-24.565,150.946c-.471.42-.923.864-1.418,1.253a3.4,3.4,0,0,0-1.074,1.4c-.253.609-.564,1.193-.841,1.791a.308.308,0,0,0,0,.232,1.422,1.422,0,0,1-1.208,2.092.389.389,0,0,0-.053.014,1.462,1.462,0,0,1-1.439,1.445,1.475,1.475,0,0,1-1.438,1.441,1.465,1.465,0,0,1-2.536.964,1.471,1.471,0,0,1-1.534.583,1.415,1.415,0,0,1-1.1-1.233,3.187,3.187,0,0,1-.375,0,1.4,1.4,0,0,1-1.246-1.259c-.011-.1-.011-.17-.147-.188a1.392,1.392,0,0,1-1.293-1.518c0-.026,0-.053,0-.091-.044-.013-.086-.028-.129-.037a1.414,1.414,0,0,1-.863-2.224.2.2,0,0,0,0-.29c-.538-.714-1.063-1.438-1.6-2.149a2.951,2.951,0,0,0-.431-.414c-.514-.446-1.032-.888-1.548-1.332-.281-.243-.3-.425-.061-.718q1.829-2.267,3.66-4.533c.223-.276.382-.3.688-.106.625.4,1.246.8,1.877,1.187a2.5,2.5,0,0,0,.595.267c.62.182,1.245.348,1.87.51a.628.628,0,0,0,.309,0c.547-.148,1.093-.3,1.633-.468a3.239,3.239,0,0,1,1.041-.147c.747.011,1.5.007,2.243,0a.6.6,0,0,0,.3-.086c.662-.413,1.318-.836,1.977-1.254.323-.206.48-.179.714.124q1.643,2.133,3.285,4.267l.156.2Zm-10.513,7.929c.011.008.021.02.032.022A1.424,1.424,0,0,1-34,160.868a.157.157,0,0,0,.021.139.635.635,0,0,0,.649.214.613.613,0,0,0,.277-1.034c-.3-.317-.609-.617-.912-.928a.409.409,0,0,1-.1-.508.4.4,0,0,1,.66-.07c.305.3.6.606.9.91a.612.612,0,0,0,.619.187.614.614,0,0,0,.265-1.048c-.514-.533-1.041-1.055-1.562-1.581a2.448,2.448,0,0,1-.192-.2.4.4,0,0,1,.023-.529.4.4,0,0,1,.545-.025,1.737,1.737,0,0,1,.144.139q.789.8,1.576,1.595a.628.628,0,0,0,.649.21.617.617,0,0,0,.241-1.066q-1.236-1.255-2.477-2.505c-.051-.052-.13-.1-.141-.164a.677.677,0,0,1-.007-.408.484.484,0,0,1,.354-.193.535.535,0,0,1,.336.176c.836.834,1.663,1.678,2.5,2.515a.623.623,0,0,0,.924.038.621.621,0,0,0-.05-.909q-2.313-2.316-4.632-4.626a.479.479,0,0,0-.276-.12c-.478-.043-.959-.064-1.437-.108a.245.245,0,0,0-.281.148q-.447.815-.916,1.619a1.409,1.409,0,0,1-1.575.675,1.416,1.416,0,0,1-.881-2.1c.462-.834.939-1.659,1.409-2.489.039-.068.075-.138.12-.223-.346-.1-.674-.182-1-.28a.245.245,0,0,0-.3.1c-.766.943-1.538,1.879-2.309,2.818l-1.287,1.57,1.55,2.087a1.445,1.445,0,0,1,2.371.836,1.468,1.468,0,0,1,1.2.292,1.444,1.444,0,0,1,.526,1.115A1.455,1.455,0,0,1-35.079,158.875Zm6.484-3.925c.071-.136.1-.187.125-.24.311-.649.617-1.3.935-1.946a.258.258,0,0,0-.044-.318q-1.614-2.042-3.218-4.091a.317.317,0,0,0-.284-.136c-.794.006-1.589,0-2.383.005a1.487,1.487,0,0,0-.393.054c-.84.238-1.676.488-2.516.723a.462.462,0,0,0-.309.249c-.2.364-.406.72-.609,1.08-.259.458-.524.914-.776,1.377a.609.609,0,0,0,.3.9.616.616,0,0,0,.778-.312c.358-.625.714-1.251,1.064-1.88a.468.468,0,0,1,.488-.27q1.008.077,2.017.139a.692.692,0,0,1,.471.225q2.1,2.108,4.2,4.209A1.384,1.384,0,0,1-28.594,154.95Zm-12.192-8.072L-44.112,151l1.417,1.217,3.533-4.3Zm15.268,3.87-2.976-3.865-1.624,1.035,3.183,4.049ZM-38.8,158.69a.745.745,0,0,0,.287-.116c.374-.352.745-.708,1.088-1.089a.591.591,0,0,0-.071-.816.6.6,0,0,0-.8-.015q-.533.5-1.033,1.033a.56.56,0,0,0-.079.655A.625.625,0,0,0-38.8,158.69Zm.723.813a.7.7,0,0,0,.4.577.57.57,0,0,0,.668-.108c.328-.314.65-.633.963-.962a.612.612,0,0,0,0-.881.61.61,0,0,0-.879.029c-.311.3-.623.6-.916.923A2,2,0,0,0-38.077,159.5Zm3.384.688a.548.548,0,0,0-.317-.437.543.543,0,0,0-.637.044,5.313,5.313,0,0,0-.635.632.557.557,0,0,0-.042.656.579.579,0,0,0,.56.313A1.564,1.564,0,0,0-34.693,160.192Zm-4.939-4.879a1.263,1.263,0,0,0-.357.151,5.817,5.817,0,0,0-.622.617.6.6,0,0,0,.043.786.587.587,0,0,0,.781.086,4.749,4.749,0,0,0,.659-.662.552.552,0,0,0,.031-.64A.663.663,0,0,0-39.633,155.312Z" transform="translate(45.075 -145.941)" fill="#464344"/>
</svg>
