<svg xmlns="http://www.w3.org/2000/svg" width="16.261" height="12.173" viewBox="0 0 16.261 12.173">
  <g id="no_one" transform="translate(-18 -153.961)">
    <path id="Path_68720" data-name="Path 68720" d="M18,159.921a9.736,9.736,0,0,1,6.233-4.733,8.379,8.379,0,0,1,5.326.5.214.214,0,0,0,.283-.056c.5-.5,1-1,1.5-1.5a.494.494,0,0,1,.522-.141.48.48,0,0,1,.348.376.528.528,0,0,1-.181.512q-1.03,1.023-2.056,2.05-4.5,4.494-9,8.989a.567.567,0,0,1-.518.213.507.507,0,0,1-.263-.868q.633-.634,1.269-1.266c.041-.041.09-.074.153-.127A10.68,10.68,0,0,1,18,160.174Zm10.9-3.388a.045.045,0,0,0-.014-.014.25.25,0,0,0-.043-.02,7.411,7.411,0,0,0-5.231-.076,9.138,9.138,0,0,0-4.448,3.527.151.151,0,0,0,.011.207,10.134,10.134,0,0,0,1.694,1.88,8.757,8.757,0,0,0,1.465,1.039l1.288-1.285a3.051,3.051,0,0,1,4.262-4.235Zm-1.77,1.776a1.987,1.987,0,0,0-2.543.417,1.932,1.932,0,0,0-.2,2.318Z" fill="#464344"/>
    <path id="Path_68721" data-name="Path 68721" d="M160.816,225.252a9.826,9.826,0,0,1-5.969,4.671,8.434,8.434,0,0,1-4.62-.083.611.611,0,0,1-.076-.037c.269-.267.528-.527.793-.782a.171.171,0,0,1,.132-.019,7.671,7.671,0,0,0,6.729-1.756,9.934,9.934,0,0,0,1.832-2.009.161.161,0,0,0,0-.22,10.31,10.31,0,0,0-2.133-2.244l-.153-.119.737-.737A10.531,10.531,0,0,1,160.816,225Z" transform="translate(-126.555 -65.077)" fill="#464344"/>
    <path id="Path_68722" data-name="Path 68722" d="M191.7,283.255c.3-.3.588-.586.883-.872a.241.241,0,0,1,.131-.045,2.008,2.008,0,0,0,1.767-1.76.241.241,0,0,1,.043-.131c.287-.294.579-.583.874-.879a2.954,2.954,0,0,1-.721,2.872A2.991,2.991,0,0,1,191.7,283.255Z" transform="translate(-166.342 -120.287)" fill="#464344"/>
  </g>
</svg>
