<svg xmlns="http://www.w3.org/2000/svg" width="20.472" height="15.424" viewBox="0 0 20.472 15.424">
  <g id="public" transform="translate(-213.001 -212.272)">
    <g id="Group_59650" data-name="Group 59650" transform="translate(213.001 212.355)">
      <path id="Path_68706" data-name="Path 68706" d="M216.509,228.518a2.319,2.319,0,0,1-.3-.211,9.924,9.924,0,0,1-3.1-6.021,10.076,10.076,0,0,1,3.1-8.9,2.153,2.153,0,0,1,.3-.211h.209a.523.523,0,0,1,.353.337.512.512,0,0,1-.183.547,9.306,9.306,0,0,0-.028,13.537c.326.31.3.778-.141.92Z" transform="translate(-213.001 -213.176)" fill="#001968"/>
      <path id="Path_68707" data-name="Path 68707" d="M249.181,237.031a.5.5,0,0,1,.508.29.481.481,0,0,1-.11.537c-.275.295-.572.574-.817.892a5.931,5.931,0,0,0-1.254,3.275,6.169,6.169,0,0,0,1.973,5.077.887.887,0,0,1,.235.366.439.439,0,0,1-.234.49.477.477,0,0,1-.555-.069,6.747,6.747,0,0,1-1.143-1.3,7.191,7.191,0,0,1,1.124-9.408A1.085,1.085,0,0,1,249.181,237.031Z" transform="translate(-243.462 -234.853)" fill="#001968"/>
      <path id="Path_68708" data-name="Path 68708" d="M280.162,264.255a4.075,4.075,0,0,1,1.5-3.179.483.483,0,0,1,.7.026.477.477,0,0,1-.075.7,3.169,3.169,0,0,0-.053,4.852.848.848,0,0,1,.207.249.459.459,0,0,1-.149.562.473.473,0,0,1-.594-.014,4.1,4.1,0,0,1-1.529-3.2Z" transform="translate(-274.031 -256.581)" fill="#001968"/>
      <path id="Path_68709" data-name="Path 68709" d="M314.8,285.816a1.039,1.039,0,1,1-1.038,1.039A1.044,1.044,0,0,1,314.8,285.816Z" transform="translate(-304.563 -279.184)" fill="#001968"/>
    </g>
    <g id="Group_59651" data-name="Group 59651" transform="translate(225.026 212.272)">
      <path id="Path_68710" data-name="Path 68710" d="M393.308,227.45a9.924,9.924,0,0,0,3.1-6.021,10.075,10.075,0,0,0-3.1-8.9c-.105-.1-.253-.165-.367-.259-.225.064-.432.156-.5.385a.512.512,0,0,0,.183.547,9.305,9.305,0,0,1,.028,13.537.523.523,0,0,0,.3.955A4.135,4.135,0,0,0,393.308,227.45Z" transform="translate(-388.067 -212.272)" fill="#001968"/>
      <path id="Path_68711" data-name="Path 68711" d="M369.14,236.651a.5.5,0,0,0-.508.29.481.481,0,0,0,.11.537c.275.295.572.574.817.892a5.931,5.931,0,0,1,1.254,3.275,6.169,6.169,0,0,1-1.973,5.077.886.886,0,0,0-.235.366.439.439,0,0,0,.234.49.477.477,0,0,0,.555-.069,6.751,6.751,0,0,0,1.143-1.3,7.192,7.192,0,0,0-1.124-9.408A1.083,1.083,0,0,0,369.14,236.651Z" transform="translate(-366.412 -234.425)" fill="#001968"/>
      <path id="Path_68712" data-name="Path 68712" d="M347.039,263.875a4.075,4.075,0,0,0-1.5-3.179.483.483,0,0,0-.7.026.477.477,0,0,0,.075.7,3.17,3.17,0,0,1,.053,4.853.846.846,0,0,0-.207.249.459.459,0,0,0,.149.562.473.473,0,0,0,.594-.014,4.1,4.1,0,0,0,1.529-3.2Z" transform="translate(-344.724 -256.153)" fill="#001968"/>
    </g>
  </g>
</svg>
