<svg xmlns="http://www.w3.org/2000/svg" width="15.917" height="15.897" viewBox="0 0 15.917 15.897">
  <g id="nearby_locality" transform="translate(-41.944 -129.735)">
    <path id="Path_68713" data-name="Path 68713" d="M84.2,328.352H80.775a2.833,2.833,0,0,1-2.826-2.819q0-1.7,0-3.4a.562.562,0,0,1,.371-.55.515.515,0,0,1,.609.156.828.828,0,0,1,.15.436c.012,1.111.006,2.221.007,3.332a1.693,1.693,0,0,0,1.723,1.714q3.392,0,6.783,0a1.693,1.693,0,0,0,1.725-1.712q0-1.684,0-3.368a.567.567,0,0,1,1.115-.167.85.85,0,0,1,.02.21q0,1.693,0,3.385a2.833,2.833,0,0,1-2.771,2.784c-.58.006-1.16,0-1.74,0H84.2Z" transform="translate(-34.299 -182.722)" fill="#464344"/>
    <path id="Path_68714" data-name="Path 68714" d="M49.864,131.092a1.146,1.146,0,0,1-.12.174q-3.375,3.375-6.751,6.748a.626.626,0,0,1-.6.228.567.567,0,0,1-.3-.934c.035-.04.074-.076.112-.114L49.408,130a.593.593,0,0,1,.988,0q3.61,3.6,7.221,7.206a.654.654,0,0,1,.244.473.547.547,0,0,1-.331.523.539.539,0,0,1-.6-.076,1.874,1.874,0,0,1-.153-.147q-3.358-3.354-6.715-6.709a1.238,1.238,0,0,1-.123-.173Z" fill="#464344"/>
  </g>
</svg>
